<?xml version="1.0" encoding="UTF-8" standalone="no"?>
<!-- Created with Inkscape (http://www.inkscape.org/) -->

<svg
   width="6.3550262in"
   height="2.1144736in"
   viewBox="0 0 161.41767 53.707629"
   version="1.1"
   id="svg1"
   sodipodi:docname="bigLogoWhiteVector.svg"
   inkscape:version="1.3.2 (091e20e, 2023-11-25)"
   xmlns:inkscape="http://www.inkscape.org/namespaces/inkscape"
   xmlns:sodipodi="http://sodipodi.sourceforge.net/DTD/sodipodi-0.dtd"
   xmlns="http://www.w3.org/2000/svg"
   xmlns:svg="http://www.w3.org/2000/svg">
  <sodipodi:namedview
     id="namedview1"
     pagecolor="#ffffff"
     bordercolor="#000000"
     borderopacity="0.25"
     inkscape:showpageshadow="2"
     inkscape:pageopacity="0.0"
     inkscape:pagecheckerboard="0"
     inkscape:deskcolor="#d1d1d1"
     inkscape:document-units="in"
     inkscape:export-bgcolor="#000000f7"
     showguides="true"
     inkscape:zoom="1.1627855"
     inkscape:cx="264.02118"
     inkscape:cy="24.940111"
     inkscape:window-width="1728"
     inkscape:window-height="1051"
     inkscape:window-x="0"
     inkscape:window-y="38"
     inkscape:window-maximized="1"
     inkscape:current-layer="layer1" />
  <defs
     id="defs1" />
  <g
     id="layer1"
     transform="translate(-29.08707,-28.664083)">
    <text
       xml:space="preserve"
       style="font-size:32.6932px;line-height:0;text-align:start;letter-spacing:-1.81628px;writing-mode:lr-tb;direction:ltr;text-anchor:start;fill:#ffffff;fill-opacity:1;stroke:none;stroke-width:0.454071"
       x="85.924438"
       y="54.760376"
       id="text1-8"><tspan
         style="font-style:normal;font-variant:normal;font-weight:bold;font-stretch:normal;font-size:27.7696px;line-height:0.7;font-family:'Helvetica Neue',sans-serif;-inkscape-font-specification:'Helvetica Neue Bold';letter-spacing:0px;fill:#ffffff;fill-opacity:1;stroke:none;stroke-width:0.454071"
         id="tspan7-3"
         x="85.924438"
         y="54.760376">Subway</tspan><tspan
         style="font-style:normal;font-variant:normal;font-weight:bold;font-stretch:normal;font-size:36.6163px;line-height:0.8;font-family:'Helvetica Neue',sans-serif;-inkscape-font-specification:'Helvetica Neue Bold';letter-spacing:-1.81628px;fill:#ffffff;fill-opacity:1;stroke:none;stroke-width:0.454071"
         x="85.924438"
         y="65.044052"
         id="tspan2-5" /></text>
    <path
       d="m 66.254641,69.400341 v -4.638993 h 4.083425 q 0.583346,0 1.111136,0.111114 0.555568,0.08334 0.972244,0.333341 0.416676,0.250005 0.666682,0.69446 0.250005,0.444454 0.250005,1.138914 0,1.250028 -0.750016,1.805596 -0.750017,0.555568 -1.91671,0.555568 z m -4.361209,-8.027957 v 19.833777 h 9.611327 q 1.333363,0 2.583391,-0.33334 1.277807,-0.333341 2.250051,-1.027801 1.000022,-0.69446 1.583368,-1.777818 0.583347,-1.111136 0.583347,-2.611169 0,-1.861153 -0.916687,-3.166738 -0.888909,-1.333363 -2.722284,-1.861153 1.333364,-0.638903 2.000045,-1.638925 0.69446,-1.000023 0.69446,-2.500057 0,-1.38892 -0.472233,-2.333385 -0.444454,-0.944466 -1.277806,-1.500034 -0.833352,-0.583346 -2.000045,-0.833352 -1.166693,-0.250005 -2.583391,-0.250005 z m 4.361209,16.444813 V 72.37263 h 4.750107 q 1.416698,0 2.277829,0.666682 0.86113,0.638903 0.86113,2.166715 0,0.777795 -0.277784,1.277806 -0.250006,0.500012 -0.69446,0.805574 -0.444454,0.277784 -1.027801,0.416676 -0.583346,0.111114 -1.22225,0.111114 z m 28.250647,3.388964 V 66.844728 h -3.944533 v 7.527947 q 0,2.194494 -0.722238,3.166738 -0.722239,0.944465 -2.333386,0.944465 -1.416698,0 -1.972266,-0.86113 -0.555568,-0.888909 -0.555568,-2.666727 v -8.111293 h -3.944533 v 8.833532 q 0,1.333363 0.222227,2.444499 0.250006,1.083358 0.833352,1.861153 0.583346,0.750017 1.583369,1.166693 1.027801,0.416676 2.611169,0.416676 1.250028,0 2.4445,-0.555568 1.194471,-0.555568 1.944488,-1.805596 h 0.08334 v 2.000044 z m 7.055722,-16.583705 v -3.250072 h -3.94453 v 3.250072 z m -3.94453,2.222272 v 14.361433 h 3.94453 V 66.844728 Z m 7.16681,-5.472344 v 19.833777 h 3.94453 V 61.372384 Z m 17.25037,12.611393 q 0,0.888909 -0.16667,1.722261 -0.16667,0.833352 -0.55557,1.500034 -0.38889,0.638903 -1.05558,1.027801 -0.6389,0.388897 -1.61114,0.388897 -0.91669,0 -1.58337,-0.388897 -0.63891,-0.416676 -1.08336,-1.05558 -0.41668,-0.666681 -0.61112,-1.500033 -0.19445,-0.833352 -0.19445,-1.666704 0,-0.888909 0.16667,-1.694483 0.19445,-0.833352 0.58334,-1.472255 0.41668,-0.638903 1.08336,-1.027801 0.66668,-0.388897 1.63893,-0.388897 0.97224,0 1.61114,0.388897 0.63891,0.388898 1.0278,1.027801 0.41668,0.611125 0.58335,1.444477 0.16667,0.805574 0.16667,1.694482 z m 0.0556,5.38901 v 1.833374 h 3.75008 V 61.372384 h -3.94453 v 7.222384 h -0.0556 q -0.66668,-1.05558 -1.83337,-1.583369 -1.13892,-0.555568 -2.41672,-0.555568 -1.58337,0 -2.77784,0.638903 -1.19447,0.611125 -2.00005,1.638926 -0.77779,1.027801 -1.19447,2.388942 -0.3889,1.333363 -0.3889,2.77784 0,1.500034 0.3889,2.888954 0.41668,1.38892 1.19447,2.472277 0.80558,1.05558 2.02783,1.694483 1.22225,0.611125 2.83339,0.611125 1.4167,0 2.52784,-0.500012 1.13891,-0.527789 1.83337,-1.694482 z m 16.38926,-6.889043 h -6.41681 q 0.0278,-0.416676 0.16667,-0.944466 0.16667,-0.527789 0.52779,-1.000022 0.3889,-0.472233 1.00002,-0.777795 0.6389,-0.333341 1.58337,-0.333341 1.44448,0 2.13894,0.777795 0.72223,0.777795 1.00002,2.277829 z m -6.41681,2.500056 h 10.36134 q 0.11112,-1.666704 -0.27778,-3.194516 -0.3889,-1.527812 -1.27781,-2.722283 -0.86113,-1.194472 -2.22227,-1.888932 -1.36114,-0.722238 -3.19452,-0.722238 -1.63892,0 -3.00006,0.583346 -1.33337,0.583347 -2.30561,1.611148 -0.97225,1.000022 -1.50004,2.388942 -0.52778,1.38892 -0.52778,3.000067 0,1.666704 0.50001,3.055624 0.52779,1.38892 1.47225,2.388943 0.94447,1.000022 2.30561,1.55559 1.36114,0.52779 3.05562,0.52779 2.4445,0 4.16676,-1.111136 1.72226,-1.111136 2.55562,-3.694528 h -3.4723 q -0.19445,0.666682 -1.05558,1.277807 -0.86113,0.583346 -2.05561,0.583346 -1.6667,0 -2.55561,-0.86113 -0.88891,-0.861131 -0.97224,-2.77784 z m 12.69471,-8.139072 v 14.361433 h 3.94453 v -6.472367 q 0,-0.972244 0.19445,-1.805596 0.19445,-0.833352 0.63891,-1.444477 0.47223,-0.638903 1.22225,-1.000022 0.75001,-0.361119 1.83337,-0.361119 0.36112,0 0.75002,0.05556 0.38889,0.02778 0.66668,0.08333 v -3.666749 q -0.47223,-0.138892 -0.86113,-0.138892 -0.75002,0 -1.44448,0.222227 -0.69446,0.222227 -1.30558,0.638903 -0.61113,0.388898 -1.08336,0.972244 -0.47223,0.555568 -0.75002,1.22225 h -0.0555 v -2.666727 z"
       id="text3-2"
       style="font-weight:bold;font-size:27.7784px;line-height:0.8;font-family:'Helvetica Neue', sans-serif;-inkscape-font-specification:'Helvetica Neue Bold';letter-spacing:0px;fill:#ffffff;stroke-width:0.409763"
       aria-label="Builder" />
    <path
       id="rect3-1-8-8"
       style="fill:#0062cf;fill-opacity:1;stroke:#17100c;stroke-width:1.5;stroke-dasharray:none;stroke-opacity:1"
       d="m 47.625001,15.875 v 12.7 H 76.2 a 6.3500005,6.3500005 45 0 1 6.35,6.35 v 0 28.575 h 12.7 V 34.925 C 95.249999,24.403976 86.721024,15.875001 76.2,15.875 Z"
       transform="matrix(0,-0.72064723,0.72064723,0,36.49173,116.15204)" />
    <path
       id="rect3-0-61-0-7"
       style="fill:#009952;fill-opacity:1;stroke:#17100c;stroke-width:1.5;stroke-dasharray:none;stroke-opacity:1"
       d="m 34.924998,15.875 v 12.7 L 63.5,28.574999 h 10e-7 A 19.049999,19.049999 45 0 1 82.55,47.624998 v 1e-6 28.575 H 95.249999 V 47.625 C 95.249999,28.575 82.55,15.875 63.5,15.875 Z"
       transform="matrix(0,-0.72064723,0.72064723,0,27.339514,106.99981)" />
    <path
       id="rect3-0-3-2-4-8"
       style="fill:#d82233;fill-opacity:1;stroke:#17100c;stroke-width:1.5;stroke-dasharray:none;stroke-opacity:1"
       d="m 22.224998,15.874999 v 12.7 H 50.8 l 0,0 a 31.75,31.75 45.000001 0 1 31.749999,31.75 v 28.574999 h 12.7 V 66.667284 c 0,-3.502747 0.04603,-9.195978 -0.403314,-12.667345 C 91.976591,31.827255 74.087228,15.874999 50.8,15.874999 Z"
       transform="matrix(0,-0.72064723,0.72064723,0,18.187283,97.84761)" />
    <circle
       style="fill:#ffffff;fill-opacity:1;fill-rule:evenodd;stroke:none;stroke-width:0.134961"
       id="path7-0-0-7"
       cx="-52.089489"
       cy="65.132469"
       r="3.2390783"
       transform="rotate(-90)" />
    <circle
       style="fill:#ffffff;fill-opacity:1;fill-rule:evenodd;stroke:none;stroke-width:0.134961"
       id="path7-4-4-5-7"
       cx="-42.899677"
       cy="65.132469"
       r="3.2390783"
       transform="rotate(-90)" />
    <circle
       style="fill:#ffffff;fill-opacity:1;fill-rule:evenodd;stroke:none;stroke-width:0.134961"
       id="path7-4-9-4-7-4"
       cx="-33.778625"
       cy="65.132469"
       r="3.2390783"
       transform="rotate(-90)" />
  </g>
</svg>
