<?xml version="1.0"?>
<svg xmlns="http://www.w3.org/2000/svg" version="1.2" baseProfile="tiny" width="800" height="740" viewBox="0 0 800 740" stroke-linecap="round" stroke-linejoin="round">
<defs>
    <style>
        :root {
            --water-color: #9FC9EA;
            --bg-color: #F2E7D3;
        }
    
        svg {
            background: var(--bg-color, #ffffff);
        }
        path, polygon, rect, circle {
            fill: var(--water-color, #3b82f6);
            stroke: none;
        }
    </style>
</defs>
<g id="water">
<path d="M 789.01 503.96 784.01 503.96 780.23 505.97 776.15 509.05 772.4 510.18 761.19 509.56 758.8 509.67 756.05 511 750.99 512.67 749.76 514.73 750.04 516.17 752.84 517.14 762.84 512.88 766.92 514.06 768.95 513.78 772.55 516.14 771.65 518.2 774.58 521.43 779.74 524.34 784.47 523.82 789.01 522.64 789.01 621.83 786.55 624.13 784.34 624.31 780.85 623.26 774.6 622.07 771.24 624.39 772.22 626.78 770.78 630.19 770.52 633.79 773.42 632.66 774.99 633.35 773.17 637.77 771.96 641.91 769.41 643.53 759.32 643.63 756.18 645.04 747.65 647.02 744.9 649.69 745.34 652.19 740.74 653.7 740.28 655.96 738.51 657.86 736.6 657.69 736.71 654.09 738.79 652.29 738.48 651.11 735.09 647.54 732.34 648.85 728.87 648.33 727.25 649.23 728.41 652.08 732.16 655.4 732.83 657.4 731.67 658.87 729.33 659.38 729.59 662.31 728.97 665.91 731.49 670.22 732.6 671.23 735.17 671.33 739.15 669.43 741.08 669.71 742.1 671.1 741.13 673.36 740.64 681.81 741.67 682.89 746.09 684.28 750.02 684.46 751.53 683.43 752.53 681.27 754.87 680.91 757.7 682.27 756.05 685.9 758.55 686.72 756.57 688.11 751.81 689.52 750.81 691.32 752.02 693.19 750.97 695.97 752.35 699.49 751.46 701.88 753.13 703.73 750.68 708.63 747.45 709.51 747.65 713.8 748.78 715.13 754.05 714.9 753.2 718.32 755.85 721.87 754.1 723.87 755.44 726.49 753.25 726.9 753.36 723.43 754.72 721.69 751.99 718.42 748.68 717.63 746.03 716.01 745.08 714.62 745.55 710.07 747.4 707.27 740.87 705.86 737.61 699.77 738.99 695.97 736.76 694.61 733.29 696.46 732.31 694.53 735.6 694.89 736.3 691.37 739.84 692.37 741.56 692.04 737.27 689.08 735.83 686.51 734.19 685.66 732.9 683.07 731.98 679.6 730.36 679.96 729.05 678.29 731.59 674.23 725.56 667.42 725.33 664.8 726.56 660.07 720.5 658.92 718.41 659.02 712.74 660.85 712.09 658.64 716.54 658.61 717.9 657.48 713.07 654.88 712.89 652.42 713.64 648.92 717.77 648.36 716.2 646.1 717.1 644.22 722.24 644.4 722.34 642.65 725.33 640.83 730.44 640.03 734.55 638.8 737.48 639.24 742.51 639.11 743.59 642.12 751.43 640.75 754.18 638.49 756.57 638.57 756.85 635.15 753.2 632.38 750.94 629.32 749.99 625.88 750.68 622.33 747.27 618.84 745.31 619.94 747.63 621.97 747.68 623.03 744.44 626.24 739.76 626.8 737.89 627.47 738.02 629.42 745.21 630.81 746.32 632.12 741.9 634.56 736.68 634.02 733.47 634.25 727.18 634.07 721.42 634.82 714.17 634.66 712.38 635.23 713.87 638.54 712.71 642.55 708.03 644.74 698.71 647.02 694.24 648.69 691.82 651.39 688.1 651.9 687.45 652.67 682.01 653.5 677.84 656.71 674.4 656.89 672.45 658.02 666.77 659.48 660.4 658.71 660.5 659.69 658.04 662.13 657.83 663.72 660.63 663.34 660.96 667.42 658.63 669.04 652.25 670.3 648.66 669.99 648.76 665.29 649.76 663.62 648.71 662.18 638.46 666.01 638.82 669.38 637.38 670.48 636.71 679.45 645.06 681.35 645.11 677.52 649.53 678.14 651.89 677.98 655.39 679.04 658.06 679.14 660.32 678.37 667.18 680.58 672.24 683.53 674.61 683.66 678.54 685.43 679.67 684.33 681.57 686.31 680.67 688.11 677.69 688.29 674.35 687.51 676.38 691.88 676.46 695.45 679.1 697.05 676.38 698.85 673.12 698.28 669.47 692.94 665.13 690.83 663.38 691.5 664.05 693.91 658.65 695.84 656.85 697.28 655.52 702.42 657.01 704.34 653.9 706.12 652.87 708.12 653.69 712.21 650.79 716.34 647.42 718.35 643.78 718.09 640.82 719.81 636.14 721.48 632.91 721.4 629.16 724.23 626.07 724.31 630.13 721.15 635.09 719.4 637.33 719.09 642.85 715.29 646.4 713.95 649.3 711.85 647.81 711.13 649.15 707.45 648.55 703.44 648.89 701.8 647.3 700.72 650.76 699 649.53 692.78 646.7 693.04 643.93 691.99 642.18 693.09 639.74 691.29 634.91 689.18 631.24 688.77 627.56 688.93 626.56 687.15 622.99 686.72 622.96 682.17 624.56 681.09 619.68 678.75 621.35 675.67 627.95 677.13 629.23 673.02 621.14 673.54 622.32 670.81 625.28 668.09 631.91 667.63 634.09 663.26 638.69 658.46 634.78 657.48 630.65 660.92 626.51 659.48 622.55 658.76 617.93 656.97 617.11 653.65 613.95 651.16 611.53 647.84 612.1 646.07 610.79 644.56 606.44 644.17 603.57 645.79 599.69 645.99 596.53 647.84 595.65 645.48 589.92 644.45 588.51 644.99 580.39 643.48 578.98 644.09 577.26 641.91 574.84 642.09 572.94 640.32 569.73 638.42 569.86 636.03 574.35 639.6 578.57 639.52 581.91 640.91 585.4 641.29 587.71 640.03 586.69 637.8 587.15 636.41 591.62 639.26 594.68 637.28 593.73 635.61 593.85 633.48 595.52 633.15 595.78 630.4 600.35 631.14 605.83 630.91 611.97 633.41 615.1 635.59 618.93 635.49 622.91 634.23 628.44 636.31 631.57 638.8 635.68 640.39 634.32 641.14 633.81 643.58 635.63 646.48 634.65 647.43 631.26 647.69 629.26 650.54 631.6 652.03 635.35 651.9 637.38 652.98 641.69 653.81 645.06 655.32 647.5 657.09 651.69 654.68 652.1 652.65 653.98 649.72 654.26 647.3 657.19 643.22 660.89 642.22 661.66 639.26 660.22 636.62 657.44 635.54 653.77 637.57 649.53 637.08 645.7 633.84 641.72 633.94 638.3 632.43 640.36 631.04 644.24 630.17 641.36 628.11 638.77 627.16 636.92 628.01 635.09 626.72 639.43 625.98 642.8 626.44 645.29 625 648.79 625.9 651.97 622.46 655.39 620.76 656.47 621.41 660.42 621.56 663.66 622.92 669.16 623.87 672.89 625.59 675.48 626.06 677.69 624.64 675.22 620.3 673.94 616.52 678.08 611.85 679.41 604.65 678.72 601.96 679.67 596.02 681.34 592.42 680.75 589.26 678.08 586.23 675.1 584.77 670.09 575.39 668.7 574.93 665.95 575.72 664.33 577.27 667.54 579.4 670.03 584.74 670.37 587.67 671.99 591.29 669.29 594.87 665.61 597.69 662.84 598.8 659.45 599.28 648.91 602.78 646.76 602.98 640.46 605.01 636.68 607.64 627.92 612.13 625.25 615.7 621.65 618.55 616.82 618.71 607.55 616.37 603.49 614.57 598.63 613.39 595.68 613.34 592.36 614.24 589.1 616.19 588.64 617.3 585.27 617.09 577.72 614.06 575.66 612.13 572.01 610.8 569.83 610.77 564.69 612.75 560.99 612.36 559.99 611.13 561.12 608.3 559.94 602.55 558.63 598.08 557.11 596.41 551.69 592.55 546.76 589.57 532.04 584.31 527.03 583.33 521.61 580.68 517.11 579.6 512.33 576.98 504.06 570.07 500.79 564.57 499.38 560.82 498.04 559.97 492.88 554.27 496.61 553.14 498.79 549.08 501.33 548.49 506.04 548.46 505.93 546.69 509.84 547.28 508.86 549.29 511.79 550.08 516.39 550.24 522.38 546.69 526.41 546.1 529.42 544.84 532.06 544.97 532.34 542.53 534.68 540.24 538.15 538.57 539.05 537.18 536.48 533.36 536.66 527.09 537.28 525.83 535.71 524.62 529.96 521.85 529.06 520.64 531.37 519.74 540.23 519.3 547.81 518.27 551.36 518.2 558.63 516.91 563.23 514.93 566.85 514.37 570.47 515.09 576.51 514.14 577.77 513.16 581.32 512.26 584.24 508.38 582.86 506.82 575.23 503.96 560.58 515.06 557.6 516.14 528.62 518.99 525.56 517.09 524.66 515.45 527.41 513.83 525.13 512.93 521.17 512.75 517.11 514.29 515.54 516.27 516.88 517.56 516.95 520.05 513.15 523.82 512.41 525.6 508.94 528.78 508.58 530.61 506.47 531.89 499 535.13 496.4 538.42 492.88 540.29 491.67 539.88 491.78 536.75 489.59 534.95 491.06 530.4 489.93 528.01 490.34 526.88 486.84 525.49 478.49 524.08 477.03 526.68 472.71 525.83 472.81 523.03 459.3 520.97 450.74 521.87 449.05 523.08 453.39 527.63 458.68 534.41 462.64 545.66 464.26 545.59 464.8 548.03 464.28 550.9 467.34 552.09 470.71 547.46 470.76 551.47 469.58 552.55 470.63 553.96 466.93 561.1 465.47 560.67 463.85 563.65 464.46 565.09 461.48 567.43 457.99 565.78 455.5 564.01 453.29 565.37 450.28 572.05 450.62 574.77 451.72 577.29 450.98 581.92 452.18 582.92 455.19 580.91 455.65 585.72 453.29 584.2 449.9 583.23 449.02 579.94 446.84 582.33 440.24 586.54 437.77 586.98 432.94 586.77 427.75 583.92 425.59 582.3 419.01 582.12 415.16 582.71 411.64 585.23 410.25 587.9 410.79 589.39 414.41 592.04 416.44 596.72 421.48 597.54 422.33 599.16 421.66 601.57 419.3 604.17 418.27 603.27 420.58 601.7 421.22 598.72 418.76 597.82 415.9 599.31 414 599.23 410.46 601.01 409.87 603.06 407.63 604.12 403.06 605.09 402.21 608.69 392.91 610.18 388.75 609.3 385.97 607.81 383.56 605.66 383.2 602.98 384.3 601.44 382.01 598.57 377.34 597.92 376.18 599.41 373.25 600.36 367.32 599.54 363.8 600.95 358.66 601.06 356.73 600.47 353.65 600.65 350.18 602.47 340.16 605.48 337.75 605.48 323.15 602.42 320.17 603.86 320.63 606.66 320.04 609.66 317.55 610.9 309.66 609.23 308.3 610.1 306.27 613.16 304.29 614.73 302.08 618.27 300.34 619.99 297.82 620.66 294.17 623.95 288.06 627.75 285.02 628.32 281.91 626.01 279.89 625.52 273.9 625.67 270.66 624.05 265.09 625.7 262.08 629.06 255.19 634.25 255.19 635.9 253.37 638.44 247.77 642.78 246.56 644.71 243.22 647.25 233.41 648.56 228.7 649.82 226.03 649.05 218.86 651.21 218.86 653.32 216.94 658.53 212.7 659.15 212.11 660.1 207.97 662.72 204.94 663.54 203.86 664.98 198.16 666.73 191.19 668.37 186.7 668.71 181.94 665.83 177.88 665.42 176.96 668.14 175.75 669.09 172.98 667.81 171.18 669.04 169.2 668.14 162.98 663.67 160.75 663.62 158.38 661.67 157.25 659.84 157.87 658.46 157.23 654.47 158.07 651.52 154.63 650.7 151.37 651.03 151.24 652.73 147.18 654.06 144.92 653.6 149.88 650.83 154.17 650.21 156.76 650.36 158.33 651.6 158.13 653.81 159.9 655.86 159.64 659.51 160.49 660.56 164.65 662.95 163.83 663.65 171.02 668.45 172.23 667.32 175.21 668.42 177.37 664.98 179.14 664.75 187.21 666.78 193.04 666.14 203.29 660.74 207.28 659.66 209.79 660.97 212.9 658.82 216.73 657.69 218.4 652.93 218.58 651.03 221.82 649.03 226.16 648.74 229.42 649.44 237.26 647.28 242.4 646.89 245.51 644.81 246.66 642.78 252.7 637.88 254.68 635.43 255.37 633.15 261.93 628.14 264.52 625.13 266.88 624.08 270.94 623.69 275.67 625.21 279.94 624.64 281.68 624.95 284.59 627.6 287.8 626.98 293.3 623.67 296.84 620.38 300.88 618.81 303.29 614.85 305.5 613.08 308.04 609.59 310.85 608.74 313.21 609.77 318.06 610.41 319.45 609.9 320.17 606.97 319.45 603.73 321.38 602.09 323.23 601.83 337.46 604.58 341.11 602.7 345.56 601.85 348.18 602.32 350.77 601.44 352.42 600.03 356.5 599.77 359.12 600.47 362.69 600.49 366.32 599.1 371.76 599.67 375.87 598.98 377.47 597.28 381.89 597.92 385.66 599.9 386.28 601.34 385.15 603.24 386.23 604.47 388.57 604.45 389.29 606.53 391.06 607.76 393.83 605.96 393.27 605.01 400.21 603.11 400.8 601.91 406.81 597.61 411.61 595.74 410.82 593.09 406.91 589.68 407.09 585.59 410.25 582.76 412.8 581.84 422.46 579.32 426.44 579.84 431.45 582.02 434.07 583.59 436.05 583.95 439.18 582.69 442.88 579.35 441.44 577.88 441.88 576.21 444.01 576.67 444.71 566.6 446.17 564.57 452.49 560.21 452.18 558.48 454.06 556.71 455.34 554.27 453.9 551.98 454.03 547.87 450.64 545.79 450.56 543.43 449.36 542.5 443.01 541.53 443.22 544.17 440.72 543.12 436.72 540.5 433.48 534.54 431.45 528.68 431.96 527.4 434.2 527.11 438.15 525.52 437.59 523.41 439.88 521.61 439.1 518.22 430.73 516.5 430.22 518.76 427.88 518.84 428.47 516.19 426.05 516.66 424.18 519.33 417.03 513.21 413.93 508.15 414.67 504.73 416.83 503.99 425.05 504.14 428.62 505.12 429.01 506.3 427.67 511.39 428.96 514.27 431.42 511.08 432.48 507.53 434.35 503.73 436.87 500.96 441.75 499.54 442.21 498 435.46 498.34 438.23 496.44 437.97 494.43 435.82 492.35 434.22 492.5 432.42 490.63 436.74 487.8 438.08 487.98 453.98 497.72 456.65 497.51 465.88 490.55 466.8 488.34 466.37 482.23 457.19 479.53 455.45 477.65 455.91 475.91 450 473.47 449.66 472.64 440.21 468.82 439.44 466.63 437.69 465.63 432.71 464.09 430.93 464.42 429.21 463.32 428.6 458.46 429.29 455.17 430.68 452.86 433.53 450.37 437.85 448.47 442.42 448.03 448.64 447.95 451.75 448.34 455.27 450.01 458.35 450.83 466.37 449.62 468.6 448.03 479.34 443.17 483.76 441.66 485.28 440.63 489.93 440.01 497.07 441.38 492.57 435.39 492.24 431.64 494.04 429.12 496.3 427.48 500.49 426.04 509.35 425.45 516.52 426.24 518.44 427.48 520.17 431 518.7 433.59 520.01 434.44 522.58 431.59 525.43 430.28 527.18 428.71 526.59 425.57 523.61 422.08 514.9 416.48 486.79 416.84 474.69 417.1 475.72 418.82 475.72 421.03 473.2 421.08 473.28 417.33 471.35 417.66 464.54 417.74 464.64 420.62 461.3 420.69 460.97 417.35 455.65 417.74 451.21 417.51 450.15 421.26 445.4 423.83 444.73 422.29 451.93 414.4 451.85 412.27 454.29 412.24 455.73 413.19 495.19 412.6 495.22 410.11 485.92 410.21 483.19 408.15 472.84 408.33 472.87 407.25 491.67 406.97 491.65 403.89 484.17 400.81 482.83 401.11 468.65 395.18 465.57 399.26 463.72 400.37 461.87 399.62 465.93 394.15 464.67 394.31 461.74 398.26 460.89 397.9 463.82 393.95 463.2 393.28 459.25 398.52 457.42 397.8 455.63 400.22 451.28 398.47 456.86 391.07 454.32 390.04 448.77 397.41 446.32 396.41 451.85 388.99 448.53 387.63 444.19 393.36 440.85 392.97 445.73 386.8 444.65 386.37 442.55 388.47 439.88 388.5 437.05 387.19 439.31 383.85 434.79 382.74 431.35 382.98 427.93 384.39 425.67 386.75 411.43 405.35 410.23 406.66 406.04 407.05 405.83 406.12 408.25 403.71 423.18 381.28 423.23 379.1 425.56 377.5 424.33 373.16 426.87 372.9 426.82 371.36 421.71 372.13 421.17 371.18 425.87 370.28 428.88 370.15 428.75 368.64 424.85 369.46 423.3 368.43 420.84 368.66 420.73 365.61 425.18 364.94 420.79 363.58 421.68 362.63 424.33 363.53 425.33 361.26 424.79 358.59 420.63 357.77 423.43 356.43 424.64 354.79 424.85 352.73 423.05 350.19 420.76 351.68 414.8 348.08 408.74 347 404.19 347.75 401.67 349.86 400.28 349.81 395.94 351.78 394.4 347.39 394.32 344.92 397.28 344.05 399.38 341.07 403.21 342.84 407.32 340.97 403.06 338.91 405.22 337.58 409.87 337.86 413.62 336.32 416.98 337.83 420.79 335.55 421.68 331.77 423.82 327.14 425.64 325.14 428.39 326.14 427.31 322.37 427.59 320.82 414.34 318.95 412 319.02 405.37 317.89 400.98 316.17 401.95 314.89 404.11 315.07 419.45 317.36 420.5 317.84 428.83 319.1 429.78 315.86 423.48 314.91 424.79 313.42 429.26 314.32 428.88 311.57 426.1 309.54 420.48 308.31 410.12 307.31 401.36 306.77 398.1 311.14 395.48 310.55 398.2 306.85 397.38 306.54 394.5 310.37 391.21 309.88 393.99 306.18 391.55 305.84 388.46 309.6 386.43 308.98 388.52 306.02 385.46 305.36 384.33 306.23 381.66 304.89 377.98 304.07 375.62 304.23 365.47 298.86 361.28 291.71 360.07 291.15 358.79 287.89 355.58 282 362.82 279.59 362.05 284.88 365.26 287.53 370.63 281.51 372.3 282.28 371.2 283.93 366.86 288.35 366.96 291.66 368.06 293.72 372.05 294.33 388.77 296.06 396.63 296.72 398.64 295.57 400.54 296.49 403.29 295.67 405.27 296.85 409.4 295.72 415.85 289.35 421.56 287.58 423.23 284.72 425.9 285.55 425.2 288.42 422.69 290.17 420.27 289.53 416.32 291.84 414.52 293.59 410.92 299.09 416.11 301.12 419.6 301.37 422.51 300.45 425.08 300.68 426.21 299.65 433.45 301.96 435.89 304.79 438.31 305.56 441.19 304.43 443.24 302.17 445.43 301.43 452.72 301.27 456.29 301.76 465.03 303.94 469.96 303.76 471.94 303.25 475.49 303.76 475.92 306.9 481.11 306.95 488.82 303.58 492.8 301.4 492.85 300.4 498.87 295.88 500.05 293.69 498.69 291.43 501.64 291.94 505.65 287.37 505.78 283.36 502.21 281.08 504.52 277.09 508.04 273.47 507.68 270.7 510.94 269.28 514.08 268.62 516.9 269.18 523.17 267.43 526.2 265.02 522.3 263.14 516.98 261.34 515.67 258.8 520.94 260.37 523.94 262.29 530.08 263.19 531.91 265.3 529.67 267.95 526.64 269.57 527.23 270.62 525.97 272.55 521.22 278.1 515.88 279.43 513.23 280.64 510.87 283 510.56 285.29 513.64 287.53 503.23 300.24 500.77 302.61 497.25 302.45 485.69 308.31 481.81 309.85 481.68 312.04 478.18 311.83 475.95 309.72 474.36 311.39 467.19 311.81 465.21 309.8 465.26 307.59 461 306.59 455.6 308.59 449.87 308.72 448.07 309.96 446.92 313.06 442.98 313.27 443.19 316.97 445.19 321.16 441.26 321.95 441.21 324.27 442.93 324.16 443.16 326.48 445.07 326.48 445.27 329.56 443.5 331.61 445.5 333.95 443.09 336.11 441.7 338.32 439.31 337.24 437.92 338.96 435.87 343.15 438.51 343.74 437.41 345.13 440.7 346.31 443.19 348.19 441.39 351.12 443.94 351.68 442.34 353.81 446.89 355.33 443.86 358.75 446.99 360.26 450 356.87 452.41 357.51 449.25 361.5 451.33 362.37 455.09 357.67 460.74 359.67 464.08 361.44 465.16 363.14 472.38 362.7 472.71 360.93 475.72 361.5 477.77 359.83 479.88 357.08 481.52 357.59 484.04 360.03 483.66 364.76 478.9 375.27 507.73 389.35 512.38 391.92 515.39 394.13 531.55 404.51 538.64 403.35 538.95 396.21 539.95 390.32 542.57 383.85 539.92 382.87 538.46 385.98 535.61 384.62 534.66 382.98 536.15 381.28 539.64 380.95 541.98 379.56 546.96 378.48 553.49 377.94 556.68 379.1 564.87 385.13 568.8 385.18 572.84 385.8 575.71 384.13 586.51 376.27 585.4 371.95 585.71 370.08 584.09 367.15 580.88 365.02 578.95 364.91 573.99 366.4 569.14 366.56 567.6 365.91 564 367.87 558.91 368.92 556.62 368.38 555.39 366.51 553.26 365.94 546.71 360.96 547.45 358.75 545.35 356.07 542.21 355.82 544.68 350.83 546.58 352.12 549.28 352.73 552.08 352.61 552.39 351.22 548.79 348.78 546.76 346.36 554.65 330.61 556.39 326.55 553.46 324.86 550.46 324.75 544.81 323.42 540.18 321.23 538.28 320.85 534.35 321.98 530.88 326.45 528.85 331.64 524.89 335.01 525.72 337.27 522.12 340.48 517.31 339.4 509.63 333.59 511.07 331.9 507.76 329.48 503.23 327.91 500.87 325.55 501.95 324.19 508.89 318.18 510.71 318.05 512.97 320.72 517.11 320.13 516.98 316.51 519.52 316.4 521.32 317.71 522.84 316.74 522.94 312.76 524.66 309.21 527.75 307.44 533.06 307.28 539.1 308.9 542.44 308.93 547.25 310.49 555.67 314.81 559.4 315.63 562.64 315.15 565.1 311.52 563.33 309.9 563.97 305.2 567.8 302.71 572.58 302.45 574.15 300.81 576.69 299.58 581.39 299.73 584.91 300.73 585.22 298.91 582.19 294.87 582.34 292.61 583.47 290.81 580.24 289.04 575.18 289.99 573.53 287.65 576.49 286.93 579.75 288.71 584.09 290.07 583.76 287.6 582.52 286.78 578.13 285.75 575.97 285.8 570.4 287.11 565.72 286.27 566.26 284.42 569.03 285.06 572.37 284.83 577.8 283.7 583.71 285.08 585.99 286.68 587.2 288.86 585.86 293.79 586.94 296.24 589.67 297.49 588.69 301.66 585.5 303.84 579.23 303.25 577.85 304.33 578.85 305.87 577.28 307.98 571.86 308.34 569.65 307.59 567 309.13 566.77 313.55 570.81 314.14 570.11 321.52 570.65 326.22 568.39 328.09 563.23 328.97 561.28 330.77 559.63 337.7 560.14 339.96 564.02 342.56 566.75 343.46 572.55 344.33 577.95 347.83 583.19 348.26 593.44 346.59 598.97 343.74 596.01 342.66 596.29 341.33 601.54 341.66 601.28 340.38 610.4 340.09 614.77 341.15 620.5 339.81 623.14 338.68 625.35 340.17 626.18 342.07 624.35 344.05 625.35 345.36 623.99 347.72 624.2 349.63 622.35 353.27 624.76 353.92 627.02 352.27 629.23 353.66 629.23 355.77 626.23 361.75 624.63 365.99 621.19 364.99 622.73 360.55 621.55 359.9 617.59 359.7 615.67 361.93 614.67 365.25 614.97 368.97 616 371.72 622.07 376.55 628.95 379.2 634.29 381.87 632.24 384 637.17 385.83 641.26 387.93 640.69 391.17 642.8 393.02 645.21 393.51 650.12 396.95 655.16 399.24 658.29 402.99 658.65 405.17 662.12 408.87 665.18 410.06 667.28 409.88 671.11 411.11 671.86 409.34 669.6 402.04 669.31 399.16 671.37 396.72 669.47 393.12 666 388.11 662.94 385.13 656.06 381.07 653.31 380.59 648.89 382.82 646.55 382.82 636.66 379.02 632.93 374.65 630.39 368.92 630.08 363.58 632.34 358 634.94 356.15 639.36 355.74 640.92 354.17 638.38 348.52 636.38 345.46 634.63 340.66 635.48 335.03 633.6 330.46 629.44 327.99 626.79 325.86 623.94 320.85 623.45 318.51 622.71 310.75 623.22 306.9 626.41 301.89 631.24 299.68 635.84 299.16 637.3 298.01 636.35 295.59 633.22 293.64 630.83 293.1 622.12 292.51 618.93 292.92 613.51 294.77 606.85 292.92 603.51 292.3 599.76 286.68 597.71 280.92 592.52 274.45 591.88 262.91 590.67 262.01 580.13 260.96 577.49 255.23 575.92 248.45 576.07 245.23 577.41 239.3 580.78 229.79 585.63 220.98 593.85 210.52 599.28 202.71 604.13 196.8 610.48 190.25 617.29 185.04 638.28 171.42 642.67 169.03 654.05 163.38 654.75 162.01 650.4 160.52 640.77 159.75 636.53 158.7 632.65 157.03 626.48 158.34 625.12 161.73 624.04 162.55 624.81 164.43 623.48 166.2 621.83 170.19 611.35 180.28 606.93 185.34 601.66 189.53 600.3 188.5 593.11 188.04 592.6 187.01 589.31 186.78 586.66 182.03 579.11 179.31 574.46 179.64 571.71 181.31 567.83 185.91 561.79 189.04 558.24 189.3 557.7 188.27 554.13 188.2 549.97 186.63 548.69 190.77 549.28 192.54 551.95 192.46 552.69 194.29 556.24 194.49 558.91 192.67 561.84 192.77 557.04 196.29 553.46 196.14 549.56 194.57 547.99 191.05 549.28 187.12 545.63 184.01 540.34 183.29 537.33 183.57 533.27 181.03 528.67 180 527.59 183.98 524.38 186.32 518.27 185.47 512.84 186.32 508.3 184.19 507.32 182.06 507.96 179.77 510.35 178.87 516.67 179.2 518.96 181.54 522.07 180.33 521.76 177.25 527.54 178.87 529.93 178.54 531.34 179.61 534.01 180 536.69 182.16 539.51 181.72 545.29 183.08 548.99 185.06 554.62 184.7 558.27 185.81 557.83 187.25 561.1 188.02 567.29 182.93 566.9 179.74 569.03 179.2 571.63 176.94 573.76 176.2 579.08 176.66 582.19 177.56 587.02 179.87 595.27 185.63 601.02 184.24 605.44 181.62 609.32 176.84 608.45 175.91 613.87 170.37 618.65 166.61 619.19 165.59 617.59 163.89 619.16 160.01 622.94 156.85 622.94 155.85 626.64 153.43 622.55 148.55 618.75 149.45 617 149.22 610.12 150.4 610.79 149.25 614.97 149.04 620.39 146.73 616.72 144.24 610.43 141.05 607.52 141.59 602.54 138.56 596.27 137.17 593.34 135.27 590.9 132.83 591.95 127.89 595.5 125.12 601.82 124.17 599.58 123.22 595.83 120.65 592.52 117.8 588.56 120.65 588 122.7 588.46 124.99 587.17 127.23 584.76 128.13 582.24 126.43 582.47 121.16 585.02 116.49 582.42 117.57 580.88 116.87 578.72 114.07 569.6 115.1 567.06 118.05 564.9 117.62 564.41 116.2 561.79 116.15 559.48 115.05 558.71 113.46 560.66 112.35 563.56 112.71 566.93 111.63 565.72 109.86 562.46 109.27 560.32 110.63 557.94 110.32 556.11 108.03 552.08 108.83 549.51 107.39 550.9 105.54 552.44 105.62 552.05 108.32 555.85 107.39 560.25 109.68 561.97 108.6 565.69 109.24 568.06 111.22 564.95 113.15 559.99 113.76 561.51 114.79 566.8 115.72 569.24 113.56 577.87 113.07 579.7 114.23 583.35 113.89 586.89 111.96 592.31 115.33 595.5 115.23 597.84 115.9 599.43 118.88 602.69 119.42 604.82 121.81 606.65 121.19 607.6 119.11 609.55 120.96 615.05 118.85 615.82 120.73 612.74 121.45 609.22 123.78 605.83 124.84 606.5 126.02 602.02 128.67 598.14 129.08 596.04 129.95 595.47 132.06 598.53 134.45 603.13 134.96 607.03 136.48 614.46 140.02 615.92 141.33 622.89 144.36 626 146.26 629.31 149.5 631.06 149.19 632.09 150.84 635.37 151.66 639.51 150.35 646.94 151.99 656.29 145.93 669.21 137.97 682.88 129.02 684.24 126.15 691.95 121.27 692.18 119.9 689.12 118.08 691.15 116.33 693.47 115.61 695.42 116.74 695.52 118.52 698.09 119.16 700.87 118.77 705.88 120.8 707.6 122.55 706.26 125.43 708.62 127.53 709.52 130.67 707.57 143.41 705.28 156.82 704.9 161.81 705.44 164.94 707.7 169.08 716.2 181.23 717.36 183.96 718.9 189.74 716.92 192.18 717.18 197.78 714.56 200.68 712.3 202.4 714.43 205.38 713.12 209.42 716.28 215.76 715.15 218.62 715.54 220.31 714.2 223.88 716.85 225.04 718.03 220.65 719.65 220.08 722.42 221.03 726.97 219.88 730.88 219.82 731.13 221.96 732.67 222.55 736.45 222.32 733.42 213.97 736.76 211.99 741.38 210.16 746.01 209.88 749.53 207.23 756 205.98 760.29 207.49 759.65 209.5 763.07 211.4 763.2 214.51 765.69 213.5 769.41 214.22 770.44 219.1 773.83 218.36 777.87 218.75 782.52 221.47 780.1 224.5 782.03 226.32 784.29 225.68 784.57 224.24 789.01 223.27 789.01 503.96 Z M 690.28 618.84 687.86 618.25 683.14 618.94 683.75 620.92 687.3 620.15 690.28 618.84 Z M 777.69 602.88 774.14 603.11 772.86 604.65 774.3 608.07 776.4 607.4 779.64 609.07 782.11 606.92 780.8 604.27 777.69 602.88 Z M 746.14 608.12 755 607.79 757.36 605.86 761.27 604.06 764.4 604.47 765.79 600.7 765.46 599.59 762.73 597.13 760.19 596.97 751.56 600.85 746.37 601.44 742.72 602.88 741.97 603.96 742.46 606.32 746.14 608.12 Z M 737.97 518.61 734.4 517.14 729.49 516.76 722.58 517.79 717.87 521.18 717.08 522.87 717.05 525.55 718.85 530.68 717.05 535.26 713.17 539.57 711.17 541.12 708.16 542.32 700.79 546.56 696.91 548 693.18 548.44 685.27 547.44 680.11 548.85 679.67 550.13 683.7 558.02 687.74 557.53 690.18 554.09 700.53 550.57 698.96 548.62 702.72 547 703.64 547.51 702.46 550.39 704.46 553.76 705.31 556.69 707.42 560.31 710.01 560.39 706.39 557.38 706.29 554.78 707.47 552.04 708.75 550.88 714.95 547.77 716.18 545.64 717.62 539.47 719.96 535.87 724.19 533.41 731.31 532.07 735.37 528.89 738.94 526.78 739.61 521.72 737.97 518.61 Z M 674.84 495 676.33 494.28 681.03 494.15 680.31 491.96 678.13 490.86 674.07 490.14 672.32 491.01 671.4 492.94 667.23 494.74 662.81 494.66 662.74 496.31 664.82 496.59 666.72 498.88 668.65 498.36 667.98 495.69 670.11 494.35 672.4 494.07 674.84 495 Z M 732.62 477.47 735.4 480.3 738.02 478.35 740.59 478.58 742.44 475.06 741.43 469.82 740.48 469 735.45 467.51 730.05 467.79 729.23 470.36 729.72 473.54 732.62 477.47 Z M 667.95 445.79 663.25 444.95 659.53 445.33 657.47 446.72 656.93 449.19 654.31 452.4 651.2 454.74 647.17 456.79 640.85 459.13 640.23 461.7 636.81 463.81 633.34 467.04 630.7 472.49 629.62 477.96 625.66 485.03 620.63 490.71 618.7 492.2 611.25 495.79 610.76 497.75 616.49 497.59 626.36 494.66 628.77 492.32 632.65 490.45 637.48 490.19 639.1 489.32 639.48 485.52 640.69 482.28 642.18 480.38 643.29 477.19 648.14 468.04 651.64 464.42 654.9 460.05 656.78 455.71 659.27 454.68 660.53 452.99 664.54 450.55 668.39 449.73 669.91 447.18 667.95 445.79 Z M 593.01 452.53 586.27 451.52 580.93 452.17 576.2 453.89 574.48 455.58 574.66 457.61 579.05 459.9 581.75 462.06 582.63 465.24 582.34 472.41 582.99 474.42 585.53 475.42 587.82 475.01 589.41 472.08 592.03 468.53 591.21 466.79 592.34 457 592.11 454.81 593.01 452.53 Z M 720.67 456.1 711.99 455.48 706.83 453.55 702.33 453.45 700.94 454.99 701.3 457.18 704.36 459.46 705.39 461.36 712.09 458.08 718.59 457.56 720.67 456.1 Z M 730.1 442.69 730.16 447.39 728.77 451.14 731.95 450.86 737.3 452.45 739.53 454.53 741.51 458.41 745.42 459.18 746.42 457.28 748.06 456.41 745.78 455.02 731.62 439.09 729.49 438.14 725.71 440.09 729 441.45 730.1 442.69 Z M 607.65 354.33 604.8 352.3 603.82 353.99 606.11 357.82 608.17 356.36 607.65 354.33 Z M 578.8 288.81 575.61 287.63 575.59 289.35 578.8 288.81 Z M 549.58 475.08 551.2 475.62 552.85 471.77 551.1 470.05 545.06 469.43 538 470.36 533.6 471.56 527.08 476.29 524.41 480.79 520.58 483.56 514.92 486.29 509.68 488.34 508.48 490.24 510.97 490.78 515.18 489.58 517.78 487.03 520.73 487.78 520.4 490.09 522.68 491.58 518.88 493.97 516.93 496.59 507.19 493.17 509.84 497.41 512.36 498.34 515.77 497.8 518.57 498.8 521.94 501.55 522.4 499.47 525.05 495.25 528.8 491.84 529.49 490.24 531.81 489.24 533.48 486.93 534.35 483.23 540.08 476.27 542.52 474.55 545.19 473.62 547.74 473.62 549.58 475.08 Z M 436.18 531.04 433.12 528.53 433.58 533.13 434.53 534.62 436.61 534.41 436.18 531.04 Z M 589.56 115.56 585.02 120.06 584.12 122.34 583.86 125.68 585.97 125.09 585.12 120.78 586.12 119.34 589.41 117.33 589.56 115.56 Z M 523.92 179.36 520.89 181.13 523.2 182.18 526.62 179.69 523.92 179.36 Z M 524.64 182.13 518.62 184.09 518.03 185.24 524.41 185.65 526.02 183.34 524.64 182.13 Z M 789.01 216.82 787.35 216.1 786.6 212.76 784.91 210.93 785.63 208.88 788.38 208.08 787.37 206.23 788.53 204.82 786.47 204 786.65 202.3 784.68 199.81 776.99 195.8 769.65 195.88 766.02 195.34 759.75 192 756.36 192.28 751.53 191.18 747.7 191.66 746.01 190.28 742.8 191.77 739.43 192.31 735.04 195.03 733.24 195.34 728.2 193.41 723.78 189.35 720.55 184.73 719.72 180.72 723.89 179.61 726.17 178.12 728.56 175.04 731.85 173.73 735.29 171.14 732.31 169.52 726.64 170.62 724.68 170.24 715.48 172.52 714.59 172.37 711.17 168.49 709.52 164.66 709.11 161.96 709.58 155.28 711.12 144.98 713.66 133.44 715.66 127.15 718.98 119.7 722.27 115.13 725.02 113.51 728.87 113.4 729.26 112.2 731.72 110.53 734.81 110.09 736.94 111.5 739.02 110.73 739.02 108.32 740.3 106.47 751.53 98.4 755.75 95.75 759.91 94.31 763.07 94.34 765.33 96.06 771.42 96.11 774.17 96.57 775.79 95.5 779.31 94.88 782.42 94.96 785.91 95.7 789.01 97.13 789.01 102.39 787.73 104.98 789.01 106.41 789.01 216.82 Z" fill-rule="evenodd"/>
<path d="M 10.99 526.99 19.2 532.25 20.8 536.49 21.59 537.21 24.42 545.48 24.21 548.21 25.68 551.44 28.61 552.6 34.9 552.81 37.45 555.09 43.82 557.43 46.82 559.08 47.7 556.53 50.63 553.96 54.58 554.35 57.18 555.71 61.75 560.08 62.32 561.77 60.95 567.43 62.09 570.43 68.05 573.77 71.54 574.59 77.53 577.39 79.51 579.4 81.46 580.07 80.04 583.77 81.38 585.1 86.11 583.89 87.8 581.89 90.6 582.28 93.66 580.91 97.31 580.89 99.75 581.66 101.52 584.38 103.53 585.13 104.81 586.98 102.63 591.01 102.6 592.4 105.07 595.97 107.54 601.01 106.15 603.42 103.43 605.73 104.32 608.71 110.88 610.87 111.72 613.83 109.46 615.91 108.74 618.09 108.74 623.46 106.33 628.99 106.79 637.34 110.34 641.91 109.05 645.64 106.41 646.89 100.91 646.79 97.26 647.13 94.54 650.41 90.35 649.54 88.16 646.43 88.39 644.56 86.6 642.58 79.48 642.09 79.86 638.98 78.3 638.13 78.35 635.49 76.86 634.33 74.39 634.84 73.49 636.13 74.06 640.16 70.23 639.96 66.99 638.34 67.07 636.13 62.62 633.69 62.7 632.48 66.14 629.22 67.2 627.06 65.22 625.39 62.39 625.44 60.85 629.86 58.03 630.09 56.95 628.52 58.87 627.32 55.05 624.46 56 621.95 58.59 619.43 60.83 620.3 65.27 618.68 62.83 617.58 59 612.59 59.59 610.33 62.32 611.87 64.27 609.77 60.44 608.41 58.51 606.81 59.1 605.73 62.57 606.35 63.04 602.7 64.68 600.24 62.7 599.59 57.72 600.83 49.29 602.47 42.28 605.27 39.89 607.12 37.5 607.99 23.96 609.28 24.24 608.74 37.39 607.17 41.35 604.71 43.46 604.45 48.11 601.98 57.28 600.24 60.65 599.03 65.58 600.13 63.65 602.88 63.99 605.48 63.22 606.53 59.54 607.07 61.96 608.59 64.86 609.41 64.55 614.24 63.09 614.83 61.31 611.9 59.7 612.67 63.37 617.06 65.63 616.86 65.76 619.02 61.19 620.76 58.69 620.1 57.95 622.07 55.87 623.87 56.02 624.88 58.69 625.95 59.34 627.19 57.77 628.63 59.16 629.65 61.06 628.91 60.67 626.75 62.37 624.8 64.91 624.7 68.07 627.08 68.41 628.81 66.38 629.91 65.76 631.99 68.35 632.61 76.14 633.15 79.02 634.59 81.25 637.62 81.66 641.42 85.08 640.78 88.86 641.37 89.86 642.96 89.63 645.3 91.97 648.1 93.89 648.18 94.48 646.2 96.13 645.76 106.61 645.3 108.31 644.45 108.38 642.58 107.2 640.24 104.92 637.67 103.91 635.1 104.32 631.99 103.53 630.19 105.69 626.29 106.87 621.95 106.3 616.24 109.69 613.78 110.54 612.21 109 611.1 103.4 610 101.83 607.76 102.89 604.22 106.05 601.57 105.38 599.62 101.01 591.86 101.76 589.62 100.8 587.23 95.85 586.8 92.71 587.57 85.72 586.59 81.33 587.34 79.25 586.67 78.32 583.92 76.04 583.3 74.03 581.35 74.37 579.12 72.57 577.27 69.33 576.91 66.32 574.7 62.24 573.08 59.52 570.64 58.75 567.19 59.62 562.21 59.46 560.72 56.43 557.28 52.32 555.27 50.11 555.68 49.37 557.23 50.21 559 49.19 560.98 47.26 561.88 42.66 560.1 40.66 558.41 38.37 558.2 32.46 554.5 29.35 554.81 25.99 553.83 22.52 550.75 22.21 546.54 20.36 539.83 18.51 536.47 17.51 533.02 15.91 531.43 10.99 528.2 10.99 526.99 Z M 10.99 359.27 14.66 358.18 18.92 359.36 21.36 358.08 24.09 355.28 26.83 354.84 30.51 355.3 35.11 354.22 40.01 351.4 42.84 350.83 44.95 352.09 46.49 350.6 49.83 349.78 51.53 352.58 60.29 357 65.5 355.69 69.28 357.44 73.57 357.36 77.04 358.03 79.48 360.9 81.69 367.35 86.7 368.48 89.96 369.77 94.82 370.57 102.73 370.87 109.15 370.08 112.88 367.79 120 365.71 122.59 365.79 124.47 366.79 125.62 369 129.81 372.49 134.64 372.83 136.21 371.67 140.65 369.85 146.59 369.31 153.04 369.54 160.72 367.41 169.92 366.79 171.87 365.94 175.03 362.45 176.78 359.34 179.86 356.67 183.69 356.33 190.32 357.9 193.27 357.05 198.21 352.86 202.11 350.42 204.76 349.86 209.08 347.42 210.44 346.05 210.8 343.2 207.66 339.66 208.1 337.24 211.41 334.47 214.5 333.62 219.84 333.77 222.18 334.44 227.29 337.52 231.12 341.33 232.71 344.49 235.64 346.67 242.91 345.9 247.59 346.75 249.67 348.06 252.21 351.58 252.93 354.66 252.6 358.64 252.7 363.86 253.68 372.75 252.78 377.37 254.29 382.05 255.94 383.67 260.59 385.96 266.63 387.99 269.79 388.22 271.41 387.65 282.38 387.57 285.36 386.93 291.06 384.98 297.79 383.33 345.61 367.35 348.67 367.05 350.31 366.17 351.03 362.96 363.95 349.45 367.52 351.73 369.79 352.4 371.2 354.35 373.84 351.53 366.37 347.7 368.35 346.57 372.2 348.55 375.64 346.52 378.03 345.93 381.94 346.29 392.5 346.18 392.91 349.37 391.65 349.78 385.46 347.96 384.76 348.52 374.23 351.71 369.01 357.31 365.83 358.31 364.08 360.19 363.41 364.19 363.46 370.21 362.69 372.06 363.44 373.34 362.62 375.45 361.05 376.22 358.15 380.17 356.32 381.13 342.32 385.03 341.7 385.88 335.48 387.57 334.15 387.21 323.41 389.96 316.42 390.79 308.92 393.23 299.05 393.15 295.46 392.02 291.86 391.61 283.69 392.22 277.06 391.71 272.43 390.66 265.55 390.32 262.13 390.45 257.89 389.17 250.65 385.13 248.46 382.72 247.85 378.74 250.24 371.67 249.98 367.23 249.1 361.73 249.77 359.65 249.05 353.53 247.05 349.32 244.38 349.01 239.68 349.45 236.85 349.19 229.53 346.44 226.57 342.53 225.31 339.01 220.51 335.83 217.43 335.26 214.29 335.57 211.93 336.47 210.46 338.01 210.69 339.35 212.83 341.4 214.5 344.72 214.14 346.7 211.18 349.03 207.1 351.27 202.7 352.76 199.36 355.05 195.95 358.26 190.83 359.83 184.38 358.34 180.89 358.75 178.63 361.01 176.27 364.37 171.77 367.51 168.99 368.3 159.51 369.43 156.4 370.87 151.06 371.64 143.94 371.23 140.78 371.8 134.05 375.11 130.2 375.14 127.78 374.39 123.9 371.44 120.77 371.64 115.17 373.03 104.92 373.83 101.29 373.78 93.61 372.36 86.67 370.44 81.18 368.2 80.22 367.1 78.43 361.57 76.45 359.29 73.78 358.16 70.51 358.23 67.94 357.38 64.17 357.1 61.44 358.18 58.8 358.18 56.38 356.13 49.86 352.32 48.8 350.76 46.54 352.55 44.77 352.71 43.05 351.5 40.99 352.01 37.01 354.28 32.18 355.79 24.73 356.07 21.36 358.87 17.97 360.08 14.78 358.75 12.45 359.95 10.99 359.27 Z M 358.12 377.55 355.06 379.69 334.56 385.21 334.89 385.96 349.82 381.79 351.23 381.95 356.91 380.41 358.3 379.58 358.12 377.55 Z M 123.41 366.79 120.07 367.17 120.69 368.87 124.39 369 123.41 366.79 Z" fill-rule="evenodd"/>
<path d="M 304.6 101.97 306.5 105.64 305.81 107.21 308.46 109.81 310.92 110.17 311.46 111.48 313.85 112.32 317.29 115.61 321.17 116.9 322.28 119.21 318.76 121.06 318.78 122.24 316.29 124.66 314.49 125.27 316.5 129.9 315.37 133.57 310.9 137.48 308.43 138.89 305.32 142.41 302.57 142.05 300.62 143.28 299.26 145.62 295.94 143.46 293.17 142.75 290.34 142.85 288.06 141.28 284.33 141.28 285.72 136.35 289.24 133.88 291.83 132.75 294.86 130.59 295.53 125.35 291.34 122.83 289.8 121.09 290.29 116.67 292.32 112.89 293.68 111.73 295.63 112.48 297.56 114.48 300.03 114.35 299.9 112.5 296.2 111.17 294.97 109.86 296.64 107.67 296.1 106.7 292.55 105.36 291.63 103.61 293.19 101.87 296.41 101.28 297.77 102.33 299.98 101.66 302.37 102.36 304.6 101.97 Z M 313.41 115.51 311.08 113.17 309.02 114.12 313.41 115.51 Z" fill-rule="evenodd"/>
<path d="M 607.11 55.34 604.21 54.21 601.82 55.98 601.48 57.32 603.95 59.89 608.4 59.89 612.04 57.26 613.84 55.18 611.86 52.1 615.87 49.79 616.23 47.86 618.01 46.81 620.39 48.97 625.74 45.7 629.9 44.6 630.08 49.02 631.83 50.87 630.7 53.08 626.07 53.87 624.43 55.93 621.78 56.67 617.85 56.75 615.72 58.63 618.6 59.5 614.51 61.04 610.66 63.89 612.2 65 614.2 63.92 617.77 67.67 616.62 74.02 612.38 77.97 605.6 78.92 600.95 75.81 599.58 72.01 595.29 70.5 592.47 68.42 591.16 65.77 594.47 63.82 597.79 63.51 594.78 59.58 598.48 60.4 599.66 58.75 597.3 55.54 598.81 52.51 600.3 51.71 600.51 49.97 599.48 44.6 601.56 42.75 604.98 43.7 604.54 46.42 605.31 48.22 602.28 49.53 602.26 50.69 607.11 55.34 Z"/>
<path d="M 549.71 23.91 557.88 23.4 560.38 22.91 562.97 24.43 565.8 24.92 568.24 23.89 570.6 24.12 573.53 22.5 578.03 23.81 580.26 23.12 583.37 23.4 584.99 20.16 586.69 21.94 589.95 23.22 593.73 23.43 596.24 22.89 599.51 23.25 601.41 25.97 604.18 28.13 602.08 28.75 586.22 26.97 579.26 26.72 571.68 26.97 566.05 28.05 557.34 27.95 553.54 28.8 552.1 29.67 544.88 28.98 542.11 32.5 546.01 34.27 549.15 37.45 540.08 34.14 533.17 34.4 530.7 31.62 531.42 24.61 528.23 20.99 529.36 17.77 532.5 18.08 533.35 16.08 532.29 13.97 529.72 13.82 527.51 11.45 522.02 11.92 519.48 10 532.62 10 538.31 12.4 540.26 11.89 541.11 13.84 546.01 14.56 546.71 15.74 545.65 18.49 546.63 19.32 546.12 22.22 549.71 23.91 Z"/>
<path d="M 135.67 252.63 134.13 251.91 136.98 249.73 140.83 249.09 146.9 246.62 149.21 243.92 148.31 242.36 149.7 240.28 155.43 238.27 159.51 238.3 161.36 237.73 166.68 241.18 167.4 242.61 166.14 244.64 169.87 251.71 167.99 252.61 165.27 251.5 164.24 249.11 162.65 248.7 160.05 249.53 157.51 247.75 154.68 247.26 153.76 249.81 149.29 251.79 150.08 256.85 148.11 258.36 138.44 253.66 135.67 252.63 Z"/>
<path d="M 352.42 278.15 344.22 276.19 339.16 274.5 337.13 273.37 336.23 270.39 334.05 270.82 328.75 268.77 317.17 271.54 314.85 270.49 310.23 266.51 308.2 263.99 307.97 261.04 304.16 258.88 306.94 258.42 307.4 255.97 303.06 253.58 299.87 250.89 297.05 250.06 292.53 245.59 291.16 241.23 291.5 235.73 290.37 233.96 285.72 229.97 280.81 229.84 278.42 228.97 271.84 224.37 264.55 220.85 262.82 220.95 260.36 222.98 257.22 221.73 252.8 221.65 248.03 222.32 239.7 221.73 237.67 220.29 233.3 220.7 228.7 221.88 225.24 220.98 221.36 221.52 217.37 222.75 214.65 224.14 213.93 227.56 211.7 229.02 205.73 228.25 200.72 229.1 197.74 228.66 193.38 227.25 189.86 224.47 186.98 220.16 183.59 217.2 184.38 211.6 179.55 210.65 174.26 211.37 170.77 210.47 167.81 209.03 167.38 207.62 169.64 205.44 168.81 201.76 164.65 198.29 162.29 193.69 165.99 188.79 157.02 185.01 155.58 183.34 155.17 178.23 156.33 175.48 157.92 174.5 158.56 172.22 162.31 169.57 164.81 168.59 161.54 165.95 160.18 163.76 160.52 161.94 162.75 160.32 167.32 160.42 169.05 158.47 170.87 157.72 171.33 155.23 173.23 155 173.08 152.2 173.98 151.25 177.37 150.22 180.2 150.79 183.79 153.82 184.33 157 188.73 154.33 194.17 153.87 196.25 151.76 194.56 146.06 198.28 137.17 203.45 133.32 203.29 129.31 202.39 126.94 203.96 124.94 205.53 126.87 203.94 128.1 203.6 131.41 204.89 134.27 201.01 135.29 198.28 137.86 194.87 146.91 196.41 148.14 196.87 152.3 194.61 154.38 188.7 154.77 187.42 156.39 181.97 159.34 178.14 159.47 173.36 160.24 171.51 159.5 168.22 161.3 169.43 163.07 166.45 164.25 167.3 165.48 169.46 164.97 170.23 163.63 174.13 164.2 176.98 166.38 176.34 169.88 175.01 171.47 172.64 172.19 175.96 176.12 174.65 182.72 175.44 184.34 171.56 188.17 172.57 189.2 175.88 189.58 175.55 190.89 178.47 193.44 177.99 195.31 175.91 196.85 178.58 200.5 182.38 202.48 183.2 205.69 180.12 207.98 179.76 209.08 185.36 210.88 185.77 211.89 184.46 214.45 184.82 216.97 187.96 219.67 192.32 225.45 196.25 227.58 201.93 228.17 205.45 227.46 211.46 228.05 212.59 227.35 213.21 223.63 219.61 221.37 224.59 220.42 228.96 220.83 232.89 219.49 238.67 219.05 241.04 221.03 243.53 220.67 248.59 221.67 250.88 220.34 254.58 220.95 257.69 220.39 261.39 221.44 262.93 219.93 265.24 220.39 272.54 223.81 279.19 228.69 281.89 229.36 286.82 229.3 291.24 232.29 293.5 234.93 293.3 241.71 294.48 244.67 298.05 248.19 303.03 250.45 305.73 253.28 307.68 253.3 310.02 254.72 311.13 259.73 321.33 264.86 325.46 264.27 326.62 263.35 330.06 263.27 330.68 260.7 332.74 260.06 334.38 261.19 333.53 263.25 336.08 264.12 336.64 265.92 339.47 265.2 341.57 265.94 347.05 266.38 351.83 269.54 351.83 272.55 354.04 273.81 354.04 268.59 357.38 264.32 361.38 261.29 364.44 256.05 365.19 251.17 363.64 248.22 361.95 242.82 362.36 238.5 363 236.94 362 222.5 363.77 222.44 364.39 227.48 364.52 233.65 366.57 234.73 367.22 236.94 367.09 240.64 364.44 242.9 364.88 246.19 366.32 248.14 368.14 252.09 365.47 258.85 365.55 261.27 362.13 264.92 360.79 267.13 360.84 271.24 360.18 272.93 360.38 276.35 362.36 279.12 355.35 281.28 353.78 278.43 352.42 278.15 Z"/>
<path d="M 136.67 80.52 139.11 80.64 136.49 84.96 136.42 88.04 133.43 86.43 125.47 85.4 125.73 83.81 132.43 83.52 135.44 82.42 136.67 80.52 Z"/>
<path d="M 140.09 80.62 142.61 79.39 144.87 79.57 147.57 78.54 152.32 85.22 154.63 86.07 160.36 94.78 162.67 97.29 160.39 99.99 153.81 102.66 154.53 104.54 152.96 105.31 149.52 102.95 146.49 101.92 145.64 100.4 146.13 98.55 148.34 98.63 148.41 100.38 150.03 101.28 152.22 100.2 152.81 97.6 149.85 95.37 145.43 95.86 146.72 94.26 141.81 93.54 139.55 92.39 137.08 87.84 136.83 85.45 139.32 81.11 140.09 80.62 Z"/>
<path d="M 349.38 37.02 347.97 35.22 352.96 33.76 356.35 35.96 359.56 32.86 361.41 28.98 361.95 25.38 360.36 21.68 360.33 20.16 364 19.6 368.53 19.8 369.66 20.75 371.51 25.76 371.46 28.31 372.64 32.09 371.58 34.37 369.12 34.83 366.91 33.19 365.11 34.19 361.72 34.86 360.77 37.1 362.15 38.92 363.72 39.23 363.75 42.85 357.4 41.1 352.85 41.08 352.52 39.92 349.87 38.48 349.38 37.02 Z"/>
<path d="M 151.75 440.89 148.77 442.48 145.82 442.53 141.4 439.11 135.93 436.8 134.05 435.08 133.23 432.61 135.7 430.64 136.47 428.97 138.68 428.45 142.86 429.76 144.12 428.19 143.17 426.34 145.02 425.75 150.34 427.5 153.17 426.78 155.43 432.43 155.25 435.11 153.68 438.88 151.75 440.89 Z"/>
<path d="M 172.23 302.43 173.16 302.76 179.61 301.63 183.95 300.09 186.23 301.22 186.7 304.33 185.95 306.69 184.2 308.57 181.79 308.72 180.45 310.11 177.76 310.67 174.18 309.62 172.39 310.03 171.49 312.01 172.51 314.01 176.27 315.92 173.49 318.72 166.37 319.38 164.65 316.22 161.05 314.81 157.18 314.73 156.17 312.09 152.81 309.08 152.68 306.62 151.21 305.15 150.62 301.68 152.14 300.04 154.5 299.29 157.66 299.32 163.91 296.88 167.84 298.62 172.23 302.43 Z"/>
<path d="M 691.84 10 693.59 14.05 692.44 19.57 693.9 24.02 693.29 27.31 689.25 27.02 688.71 25.43 685.35 24.33 680.7 28.03 678.82 26.61 679.8 23.56 677.66 21.35 684.24 17.72 685.37 16.16 684.17 10 691.84 10 Z"/>
<path d="M 511.01 10 511.71 11.66 511.05 13.38 504.65 13.77 500.87 12.35 500.58 10 511.01 10 Z"/>
<path d="M 535.89 49.02 536.04 50.35 540.08 50.1 539.82 52.36 537.74 53.26 535.63 55.36 537.82 57.32 538.51 59.6 541.44 60.4 542.24 59.58 546.66 60.76 549.3 62.94 552.26 63.25 554.49 65.54 559.5 68.65 563.79 68.49 566.59 69.85 567.9 73.43 572.09 75.07 570.73 76.28 566.8 75.97 563.56 73.55 558.68 72.65 556.6 71.42 548.94 68.95 546.48 68.98 541.36 65.2 533.73 60.63 530.8 57.73 532.63 56.37 531.99 54.87 533.89 50.07 535.89 49.02 Z"/>
<path d="M 250.62 138.81 250.16 141.02 251.78 148.22 256.43 148.11 261.59 145.24 261.87 141.15 264.42 139.87 264.57 141.97 266.58 143.8 263.83 147.01 265.6 148.27 264.34 150.71 265.7 151.56 263.98 153.77 262.11 154.33 259.33 152.3 256.48 153.25 254.68 156.34 253.58 156.47 250.77 159.01 245.35 162.79 240.14 162.81 243.43 159.81 246.64 158.55 248.98 154.87 245.41 153.41 244.51 151.69 246.43 150.4 247.46 147.09 249.08 144.18 246.59 140.15 248.36 137.45 251.88 136.37 253.37 138.04 250.62 138.81 Z"/>
<path d="M 461.61 42.72 466.88 44.8 469.19 47.55 462.77 49.53 460.71 48.25 459.3 45.75 461.61 42.72 Z"/>
<path d="M 425.59 707.79 423.59 710.84 419.42 709.64 416.78 707.66 418.83 706.53 421.51 706.53 425.59 707.79 Z"/>
<path d="M 454.03 28.23 456.06 29.39 459.74 29.8 460.69 30.8 461.28 34.24 462.18 35.3 458.43 38.66 456.86 41.05 456.5 43.16 452.7 46.06 450.64 44.75 452.67 38.95 455.29 38.77 459.04 35.45 458.17 31.55 454.03 28.23 Z"/>
<g/>
<path d="M 288.03 115.1 286.26 117.93 286.41 121.06 284.1 120.52 282.79 116.38 283.46 114.59 288.03 115.1 Z"/>
<path d="M 25.32 658.66 25.37 657.15 27.89 657.15 28.02 654.17 24.96 653.52 26.29 651.8 31.36 654.17 35.29 651.57 35.7 648.49 38.96 650.36 38.78 652.21 40.12 654.47 35.65 655.84 32.95 658.51 25.32 658.66 Z"/>
<path d="M 264.98 428.53 267.12 431.12 265.06 432.43 264.32 428.3 266.01 424.67 267.45 419.77 269.66 417.63 272.38 416.84 272.82 415.53 276.96 413.55 275.95 416.04 269.84 418.17 267.19 421.03 266.58 424.34 264.98 428.53 Z"/>
<path d="M 371.38 382.9 371.76 384.82 374.15 386.65 373 388.73 370.81 384.7 371.38 382.9 Z"/>
<path d="M 374.31 110.22 375.57 108.62 384.56 109.01 385.77 106.88 388.36 106.88 388.36 108.8 390.26 110.65 389.47 114.41 385.59 114.61 383.68 114.17 381.66 112.27 378.73 111.37 375.64 111.4 374.31 110.22 Z"/>
<path d="M 196.31 124.4 191.73 126.17 192.55 128.67 191.99 131.23 188.08 133.37 185.51 132.78 183.64 131.52 183.64 127.74 186.11 126.87 187.62 124.97 192.45 122.24 196.31 124.4 Z"/>
<path d="M 247.38 99.66 249.31 99.71 252.11 98.19 253.45 98.42 255.17 101.23 256.61 102.23 257.07 104.8 263.24 106.52 263.78 108.27 266.78 111.35 270.48 112.12 271.53 115.74 268.5 115.97 267.73 117.67 268.89 122.27 266.76 121.42 265.09 118.41 263.16 116.54 262.03 113.04 262.52 111.99 260.64 109.5 253.96 107.01 248.82 106.88 247.74 105.7 243.45 103.85 242.86 102.23 245.28 101.46 247.38 99.66 Z"/>
<path d="M 293.99 155.75 297.38 156.7 296.87 158.32 300.9 157.67 301.6 158.85 300.39 161.04 295.89 162.01 297.95 163.56 293.01 167.44 289.96 166.54 289.29 163.12 291.01 161.19 290.37 159.93 291.24 155.69 293.99 155.75 Z"/>
<path d="M 127.27 281.31 131.92 281 134.13 281.74 133.61 284.39 130.63 285.68 122.75 284.03 123.62 282.39 127.27 281.31 Z"/>
<path d="M 242.12 475.65 247.38 475.78 250.6 477.42 248.98 484.49 244.45 487.67 242.96 487.91 238.72 486.31 235.59 485.77 235.85 481.51 234.77 479.97 233.84 476.39 234.51 475.03 237.95 472.82 241.35 469.87 243.43 470.56 243.61 472.44 242.22 473.54 242.12 475.65 Z"/>
<path d="M 146.38 268.1 144.64 270.49 142.5 271.9 140.91 270.44 137.34 268.56 137.65 266.74 139.73 265.4 145.84 263.99 148.13 264.38 149.13 266.23 146.38 268.1 Z"/>
<path d="M 185.85 609.46 187.49 610.74 186.7 613.34 184.31 611.85 181.22 611.23 181.15 609.43 182.89 608.17 185.85 609.46 Z"/>
<g/>
<path d="M 417.16 64.82 418.29 62.15 417.96 60.63 420.07 56.75 421.66 59.65 421.22 63.2 419.22 64.07 418.32 66.95 416.34 66.28 417.16 64.82 Z"/>
<g/>
<g/>
<path d="M 307.66 151.92 305.19 151.58 303.5 146.5 301.85 144.8 304.52 143.31 306.14 147.06 306.25 150.12 307.66 151.92 Z"/>
<path d="M 107.48 461.67 109.57 459.54 114.91 457.64 118.64 460.72 117.99 462.37 115.53 464.01 109.49 466.32 107.13 464.04 107.48 461.67 Z"/>
<path d="M 12.32 548.05 10.99 547.1 10.99 535.76 14.27 537.21 16.79 540.47 13.86 540.94 14.42 546.61 12.32 548.05 Z"/>
<path d="M 256.68 454.63 255.45 454.14 255.84 451.09 258.05 448.31 259.38 445.61 261.59 448.26 260.64 450.98 258.69 451.6 256.68 454.63 Z"/>
<path d="M 469.53 687.08 472.84 689.52 471.56 693.09 469.01 691.37 468.68 689.9 469.53 687.08 Z"/>
<path d="M 470.04 697.43 467.03 694.61 471.4 693.4 471.71 695.56 470.04 697.43 Z"/>
<path d="M 309.82 418.69 313.8 414.47 314.52 415.17 313.08 417.71 309.82 418.69 Z"/>
<g/>
<path d="M 202.45 456.71 198.82 457.54 196.25 459.36 192.71 458.26 192.53 456.38 193.76 455.48 197.13 455.07 203.91 451.99 207.35 451.47 209.43 452.55 207.97 456.07 204.37 455.99 202.45 456.71 Z"/>
<path d="M 124.96 411.42 123.21 410.42 122.18 408.54 123.26 406.23 128.89 406.1 131.4 406.69 126.09 411.24 124.96 411.42 Z"/>
<path d="M 192.94 282.7 192.27 278.58 195.74 280.02 195.35 282.77 192.94 282.7 Z"/>
<path d="M 332.53 147.14 335.79 145.13 337.28 145.01 338.77 147.76 341.32 150.25 339.72 152.41 337.28 152.07 337.59 150.09 335.33 149.25 332.61 149.35 329.01 148.47 328.01 146.06 330.63 145.39 332.53 147.14 Z"/>
<path d="M 595.65 698.56 593.11 694.37 591.28 693.27 591.54 691.83 593.49 691.37 594.32 693.99 596.83 697.38 595.65 698.56 Z"/>
<path d="M 332.27 192.41 334.53 193.41 335.05 195.08 332.35 197.6 329.37 199.22 328.73 197.21 332.3 195.13 332.27 192.41 Z"/>
<path d="M 418.24 70.73 421.94 72.96 421.99 75.92 419.96 76.25 418.52 74.48 419.01 72.29 418.24 70.73 Z"/>
<path d="M 446.02 135.71 443.78 133.62 445.4 132.96 446.38 130.64 448.46 133.52 446.02 135.71 Z"/>
<path d="M 495.91 38.15 499 40.18 500.77 42.57 498.66 44.73 497.48 44.8 494.83 42.93 494.37 40.13 495.91 38.15 Z"/>
<path d="M 635.73 26.02 635.81 29.26 639.02 29.21 637.79 31.96 637.76 35.4 641.64 35.48 646.63 34.91 646.45 37.71 648.25 39.64 650.69 40.33 650.66 43.93 647.81 42.29 644.32 43.11 639.36 40.05 635.3 36.68 629.8 34.73 626.41 33.14 624.81 30.72 627.13 30.75 629.88 33.22 633.5 32.7 635.91 31.01 635.43 28.64 633.73 26.66 635.73 26.02 Z"/>
<path d="M 442.42 144.03 441.55 144.62 436.79 142.77 434.17 143.72 434.53 140.46 437.18 138.35 439.9 139.69 439.8 141.95 442.42 144.03 Z"/>
<path d="M 705.67 45.19 709.96 48.91 710.89 51.48 708.91 52.25 706.95 51.69 705.64 48.97 702.56 47.66 701.79 45.27 703.43 44.24 705.67 45.19 Z"/>
<g/>
<path d="M 455.7 99.12 458.61 101.17 465.18 102.12 460.87 103.95 454.93 103.23 454.32 102.07 455.7 99.12 Z"/>
<path d="M 510.45 76.61 505.78 78.51 502.9 75.46 505.75 73.89 507.91 74.99 509.91 74.68 510.45 76.61 Z"/>
<path d="M 458.4 121.86 458.43 124.37 452.23 123.71 451.93 122.24 457.24 121.39 458.4 121.86 Z"/>
<path d="M 663.92 50.58 666.59 49.74 670.42 51.33 671.76 53.46 674.09 52.36 676.95 52.25 682.24 50.25 682.88 52.43 685.35 50.89 689.43 52.41 688.48 55.21 683.78 58.06 682.21 58.27 679.93 56.31 677.23 57.24 678.54 58.99 677.69 61.61 675.94 62.17 674.12 60.45 671.63 60.94 669.83 62.71 668.11 60.5 670.91 58.81 668.88 56.34 664.74 53.69 662.69 50.94 663.92 50.58 Z"/>
<g/>
<path d="M 422.58 65.56 425.28 65.56 428.24 68.42 425.69 71.37 422.79 72.09 418.58 67.34 420.07 65.67 422.58 65.56 Z"/>
<path d="M 742.23 51 745.93 52.72 752.02 53.8 750.71 54.93 746.14 54.67 742.36 52.72 742.23 51 Z"/>
<path d="M 673.34 10 670.65 11.27 665.36 14.77 662.51 17.11 659.45 16.93 660.19 14.97 663.25 12.28 663.93 10 673.34 10 Z"/>
<path d="M 436.74 146.39 431.47 148.22 430.93 146.37 435.02 144.93 436.74 146.39 Z"/>
<path d="M 626.18 13.61 621.24 11.71 620.38 10 624.4 10.58 626.56 12.74 626.18 13.61 Z"/>
<path d="M 659.29 21.37 658.27 25.97 656.96 25.05 657.6 22.63 659.29 21.37 Z"/>
<g/>
<path d="M 199.83 183.98 196.2 185.11 192.97 183.49 200.21 182.16 199.83 183.98 Z"/>
<path d="M 258.89 118.13 256.61 119.49 259.54 121.63 260.18 125.2 263.7 126.89 264.03 132.16 265.88 135.47 264.55 137.94 258.77 138.94 256.43 137.25 254.24 137.45 259.3 132.37 259.36 129.9 256.76 125.51 253.4 125.99 250.7 124.35 251.16 123.09 249.46 121.68 249.7 119.11 253.4 118.08 258.89 118.13 Z"/>
<path d="M 161.52 122.11 161.21 124.04 158.36 125.43 151.83 125.74 150.98 123.58 153.22 122.47 154.63 119.67 159.74 119.16 162.06 120.14 161.52 122.11 Z"/>
<path d="M 69.23 192.87 71.21 194.59 70 196.7 66.68 198.55 60.62 194.54 60.62 192.02 62.83 190.43 61.52 188.53 61.78 187.19 66.92 186.96 68.02 188.99 67.38 191.23 69.23 192.87 Z"/>
<path d="M 621.29 338.29 617.75 336.86 617.34 334.9 614.69 334.13 613.07 331.9 615.85 331.85 617.88 334.8 620.01 334.88 621.86 336.6 621.29 338.29 Z"/>
<path d="M 221.95 53.87 224.72 54.59 227.75 53.64 228.06 55.34 230.58 56.83 228.14 60.09 225.44 59.86 223.98 56.75 221.95 53.87 Z"/>
<path d="M 164.27 122.24 166.71 122.19 166.73 123.86 164.83 124.97 162.06 123.45 164.27 122.24 Z"/>
<path d="M 142.43 605.43 142.84 603.94 146.23 603.63 147.03 604.47 145.69 606.66 142.43 605.43 Z"/>
<path d="M 59.36 662.31 62.83 662.64 60.39 666.24 59.13 665.03 59.36 662.31 Z"/>
<path d="M 308.79 530.97 304.99 532.28 303.91 531.43 298.95 532.41 298.41 530.27 303.5 530.53 305.58 530.12 306.68 531.56 308.79 530.97 Z"/>
<path d="M 23.85 417.12 26.58 417.84 25.6 420.33 21.8 424.26 20.31 423.11 22.13 421.08 22.36 417.56 23.85 417.12 Z"/>
<path d="M 30.17 455.17 34.54 449.98 36.37 448.54 39.78 449.16 39.76 451.81 41.76 456.12 35.26 459.33 31.36 458.51 29.07 457.38 30.17 455.17 Z"/>
<path d="M 348.2 625.26 348.74 622.72 350.26 622.2 353.78 622.77 357.04 626.13 350.39 627.42 348.2 625.26 Z"/>
<path d="M 200.65 692.09 202.7 693.24 200.21 698.41 198.18 698.69 196.36 697.77 198.46 692.81 200.65 692.09 Z"/>
<g/>
<path d="M 471.63 550.16 471.56 546.9 475.82 546.54 479.42 547.62 480.78 549.83 478.8 551.78 476.82 548.82 474.25 547.82 471.63 550.16 Z"/>
<path d="M 541.8 625.54 540.64 626.03 536.2 624.34 532.7 624.7 533.94 622.07 539.51 624.16 541.8 625.54 Z"/>
<path d="M 558.73 610.49 558.27 612.44 556.5 613.6 553.75 613.42 551.13 615.7 548.27 616.29 548.04 622.77 546.32 622.72 547.17 619.89 546.27 618.48 548.15 614.85 545.99 613.42 548.56 609.28 548.12 607.97 542.49 606.97 545.01 605.17 547.63 605.07 548.38 606.2 551.95 606.43 553 608.53 557.91 609.38 558.73 610.49 Z"/>
<path d="M 304.68 651.62 305.6 651.83 307.3 656.37 305.37 657.51 304.37 654.63 304.68 651.62 Z"/>
<path d="M 787.01 726.62 787.22 728.98 783.65 729.14 782.36 726.95 784.29 725 786.65 724.54 787.01 726.62 Z"/>
<path d="M 363.57 689.47 360.05 691.52 359.07 690.55 359.53 687.62 367.01 685.28 368.42 686 368.35 688.11 365.08 687.51 363.57 689.47 Z"/>
<path d="M 101.63 680.55 106.15 682.2 108.13 684.74 106.07 691.14 103.09 690.32 101.42 688.88 98.52 687.9 99.11 684.3 101.6 682.22 101.63 680.55 Z"/>
<g/>
</g>
</svg>