<?xml version="1.0"?>
<svg xmlns="http://www.w3.org/2000/svg" version="1.2" baseProfile="tiny" width="800" height="788" viewBox="0 0 800 788" stroke-linecap="round" stroke-linejoin="round">
<defs>
    <style>
        :root {
            --water-color: #9FC9EA;
            --bg-color: #F2E7D3;
        }
    
        svg {
            background: var(--bg-color, #ffffff);
        }
        path, polygon, rect, circle {
            fill: var(--water-color, #3b82f6);
            stroke: none;
        }
    </style>
</defs>
<g id="water">
<g/>
<g/>
<g/>
<g/>
<g/>
<g/>
<g/>
<g/>
<g/>
<g/>
<path d="M 421.88 398.36 423.01 396.3 421.96 391.97 426 390.08 426.96 391.39 427.25 392.73 426.82 396.33 425.36 398.3 423.13 404.61 423.45 407.37 426.44 414.05 430.62 418.96 432.4 420.5 432.92 421.34 435.36 424.37 436.46 425.96 438.7 428.9 439.8 430.58 440.91 432.36 442.19 434.48 448.17 440.67 450.09 442.61 453.52 446.51 454.21 447.96 456.02 454.38 455.81 455.6 452.27 466.2 451.77 467.54 451.37 468.27 451.08 469.84 451.11 470.91 449.97 472.28 449.33 474.08 448.99 475.44 448.58 476.63 445.64 482.79 444.51 484.74 443.58 486.89 442.91 489.01 442.85 492.76 443.41 494.1 444.71 497.06 446.2 500.26 450.47 507.49 451.86 509.18 452.44 510.05 454.21 510.74 454.62 511.27 454.33 511.56 453.46 511.62 457.93 515.86 459.56 516.85 468.28 522.63 471.53 527.01 472.32 528.38 473.83 530.5 475.05 531.92 475.8 533.7 476.64 534.89 477.05 535.24 477.28 536.54 477.63 537.07 478.04 538.11 478.18 538.49 478.68 539.71 478.1 544.19 476.91 545.81 476.15 546.68 475.31 548.14 471.27 553.77 470.8 555.28 470.4 556.04 469.41 558.31 468.89 559.76 468.45 560.95 467.49 562.93 466.48 564.17 465.52 565.74 465.26 567.37 464.82 569.23 464.82 574.34 464.79 576.73 464.91 577.54 464.91 580.04 464.82 581.35 466.16 588.52 466.3 589.36 466.74 590.21 467.03 593.66 467 595.06 467.78 597.38 469.15 599.5 470.11 600.75 476.85 610.69 478.27 612.55 479.49 613.42 481.55 614.96 484.63 616.73 488.3 618.97 490.59 621.21 493.21 623.56 494.6 625.36 495.91 627.05 496.4 628.79 498 631.29 498.84 632.07 500.15 633.35 501.63 634.49 502.59 635.5 506.13 639.42 508.52 641.6 510.58 643.41 511.71 644.22 513.37 644.92 515.23 645.26 516.45 645.61 518.22 645.5 519.96 645.61 520.46 645.41 521.53 645.21 528.04 645.47 529.84 645.35 536.12 645.85 537.6 646.08 540.56 646.31 542.02 646.51 546.08 646.8 546.69 646.95 547.51 646.95 548.23 647.65 548.18 648.49 548.79 648.87 550.36 649.56 551.84 650.41 554.34 651.71 555.58 652.24 556.98 653.02 561.37 655.09 562.38 655.72 564.68 656.65 566.45 657.15 568.83 657.99 569.68 658.63 576.47 664.24 577.87 665.49 579.67 667.75 580.16 669.41 580.05 671.99 579.82 674.26 578.94 675.86 578.94 676.96 577.43 679.61 576.82 680.28 575.23 681.79 572.55 684.52 570.05 686.52 569.27 687.04 567.85 688.32 561.37 694.37 559.74 695.7 557.5 697.04 555.88 698.23 547.54 706.39 546.29 707.41 545.82 707.79 544.6 708.78 537.28 718.92 536.55 720.51 535.07 725.92 534.49 727.63 534.4 729.23 531.93 729.09 532.11 727.72 532.52 726.38 533.59 722.69 534.4 721.1 535.16 719.32 536.47 716.68 537.4 715.17 540.13 711.3 540.91 710.23 542.95 708.2 547.13 704.1 549.51 701.6 551.46 700.03 555.24 696.89 557.68 694.86 559.57 693.38 560.38 692.65 561.25 691.87 562.38 690.94 565.72 688.32 566.97 686.9 568.37 685.39 569.09 684.84 574.47 680.59 575.57 679.43 576.3 678.15 576.68 676.5 576.65 675.68 576.74 674.17 577.43 671.47 577.35 669.35 576.97 667.96 576.13 666.76 574.03 664.61 573.39 664 568.22 660.2 566.97 659.44 559.07 655.52 558.23 655.03 555.64 653.66 554.42 653.08 549.89 650.96 548.5 650.29 546.61 649.56 544.34 648.87 543.38 648.43 542.39 648.29 541.23 647.94 539.63 647.76 537.54 647.33 535.65 647.3 529.23 647.12 527.63 647.04 526.3 646.95 524.41 646.83 522.99 646.92 521.56 647.01 519.21 647.01 517.15 646.89 515.93 646.89 514.39 646.54 508.2 644.13 506.4 642.48 504.59 640.41 503.52 639.08 502.36 637.91 500.64 636.35 499.74 635.3 498.2 633.96 495.76 631.41 494.45 629.84 492.68 627.63 491.46 624.35 490.42 623.18 489.63 622.43 488.41 621.24 486.06 619.38 485.3 619.15 484.08 618.3 482.11 617.66 479.17 615.98 477.92 615.34 472.87 609.41 472.32 607.73 471.73 606.97 471.12 605.55 469.96 604.01 468.95 602.64 466.48 598.66 465.58 597.09 465.02 595.52 464.53 593.78 464.24 590.9 463.13 579.43 462.79 577.05 462.76 574.75 463.4 562.84 464.06 561.82 467.35 556.85 468.1 555.14 468.95 553.4 470.08 551.13 472.26 548.17 473.3 547.06 473.71 546.66 474.96 545.35 475.69 544.04 476.15 542.62 476.33 540.18 476.06 538.61 475.31 536.81 470.86 529.16 469.35 527.1 466.3 523.15 458.43 518.62 456.92 517.92 451.31 513.01 450.67 512.43 449.86 510.98 449.36 510.13 447.82 507.37 446.66 506.15 444.37 502.84 443 500.43 442.42 499.56 440.12 494.71 440.27 493.46 441.46 485.5 441.78 484.62 443.38 481.75 444.02 480.41 445.38 477.45 445.91 476.29 447.76 469.23 448.23 467.54 450.79 461.32 451.28 459.7 452.62 456.91 452.73 455.37 452.94 453.91 452.88 451.74 452.41 449.35 446.28 442.5 444.8 441.04 444.1 440.11 443.03 439.15 441.93 437.41 440.12 435.73 438.67 433.95 435.85 429.89 434.63 428.55 433.47 426.25 432.1 424.74 427.4 419.43 425.97 417.65 424.96 416.61 424.38 415.77 423.56 414.46 420.28 405.92 420.22 403.83 421.88 398.36 Z"/>
<path d="M 665.76 497.47 661.05 494.85 665.12 491.37 672.18 496.57 665.76 497.47 Z"/>
<path d="M 790 259.95 777.21 267.24 773.32 268.29 770.41 269.16 768.55 269.51 763.67 270.21 758.79 269.62 746.53 266.17 745.77 266.05 744.9 266.22 743.13 266.6 742.64 267.74 743.86 270.38 745.45 272.76 746.7 274.51 747.17 275.44 747.78 277.38 748.24 280.08 748.1 284.01 748.85 284.99 753.39 288.57 755.22 293.68 752.69 300.36 744.67 305.42 741.65 305.88 730.17 306.23 726.07 308.88 728.54 315.53 728.75 317.8 729.36 321.66 727.35 328.08 726.07 330.14 725.06 337.35 724.16 338.83 723.08 340.14 722.18 341.39 722.47 341.94 718.96 343.57 714.54 345.86 710.5 347.43 701.52 352.05 695.51 361.14 694.32 362.92 690.19 373.9 689.38 376.43 684.09 388.51 683.25 390.75 681.48 398.28 674.21 407.02 670.46 409.08 663.14 411.2 658.81 417.04 659.28 421.75 660.18 421.87 661.08 422.04 660.96 422.68 659.8 422.59 659.54 422.8 659.54 424.31 658.78 426.98 651.93 433.34 646.58 443.66 639.23 447.23 631.1 442.87 631.15 439.97 631.56 434.74 634.12 432.5 635.13 434.42 636.36 436.71 636.67 438.2 641.85 443.66 647.69 434.59 654.14 428.75 657.04 424.48 656.49 420.21 656.02 418.03 657.54 413.79 661.78 409.75 663.67 408.65 669.56 407.2 672.27 405.89 680.14 395.02 680.92 387.44 682.12 384.88 687.32 375.53 690.54 366 692.87 361.73 699.9 351.21 704.81 347.95 716.78 342.64 722.15 338.86 723.2 336.13 722.91 333.66 723.43 330.29 724.56 327.79 724.94 327.35 725.61 327.24 726.13 325.79 726.45 324.91 727.5 319.74 724.3 311.49 724.8 308.38 725.61 307.19 726.66 306.32 727.76 305.65 731.51 303.73 733.6 303.62 736.82 303.5 740.66 303.65 746.88 302.19 749.09 299.96 749.64 294.12 747.17 288.95 745.54 277.12 739.47 267.76 739.85 266.37 740.49 264.1 741.24 263.15 755.04 258.96 768.38 264.37 770.38 265.15 775.61 263.76 784.07 259.25 787.29 258.85 790 257.3 790 259.95 Z M 765.5 263.99 754.43 260.53 749.99 264.16 765.41 268.35 774.07 266.52 765.5 263.99 Z" fill-rule="evenodd"/>
<path d="M 421.96 391.97 420.54 391.94 419.7 392.03 416.5 392.55 403.23 394.15 392.62 397.32 390.09 397.84 388.35 398.1 385.01 398.8 380.8 398.83 379.69 399 368.24 399.58 367.52 399.61 358.95 398.77 355.95 397.99 351.71 396.01 348.6 394.76 338.41 388.54 334.57 386.13 330.65 383.89 319.78 380.03 315.31 378.72 306.65 377.21 296.16 377.33 286.31 379.8 278.58 383.23 274.02 388.57 270.74 394.76 267.83 398.6 258.94 407.57 254.82 411.67 245.84 402.75 252.09 398.42 254.7 394.73 259.06 388.25 264.4 383.6 269.17 377.56 269.14 377.04 274.17 373.2 274.89 372.45 279.77 369.86 289.04 367.45 295.7 367.07 296.92 367.04 302.29 367.07 304.06 366.96 304.62 367.25 306.3 366.9 308.8 367.13 316.73 368.84 336.72 376.34 352.15 385.03 356.04 386.68 356.68 387 360.25 388.28 371.32 389.41 373.91 389.47 390.15 387.12 405.17 383.84 405.99 383.66 408.57 382.79 411.8 381.42 413.36 380.87 421.62 378.17 423.27 377.65 428.94 374.95 429.49 374.54 430.39 373.87 431.06 373.41 432.63 372.36 433.47 371.81 435.45 370.5 436.43 369.95 443.15 365.24 443.7 364.81 445.03 363.73 455.64 369.19 445.93 377.79 439.14 381.6 434.55 384.68 432.54 385.78 426 390.08 421.96 391.97 Z"/>
<path d="M 632.37 395.81 632.78 397.32 632.87 403.62 632.98 406.03 631.97 426.43 634.12 432.5 631.56 434.74 631.15 439.97 615.52 440.43 616.48 427.13 617.09 419.83 617.21 404.81 617.27 401.79 617.35 397.17 614.74 381.16 612.62 374.04 611.66 371.37 610.9 369.05 608.87 364.05 597.16 346.97 594.11 343.86 584.52 334.79 583.04 333.14 575.34 327.15 572.9 325.18 564.85 319.8 550.99 314.34 550.12 314.6 548.58 314.11 548.09 313.93 547.8 313.84 545.91 313.64 541.73 313.29 528.01 313.29 523.94 314.08 521.24 314.57 508.78 318.12 499.83 322.27 486.32 333.11 484.55 335.17 478.85 341.5 473.77 349.64 467.23 357.57 466.27 358.59 465.2 359.98 464.82 360.42 464.06 361.41 462.96 362.6 461.36 364.08 460.14 365.21 458.46 366.64 455.64 369.19 445.03 363.73 447.47 361.52 448.08 360.88 450.21 359.08 450.82 357.83 451.95 356.32 452.82 355.51 455.41 351.93 457.29 350.13 464.12 340.46 464.56 339.94 469.7 334.3 470.22 333.54 472.05 331.77 472.81 331.19 473.04 331.02 473.97 330.32 474.93 329.68 475.45 329.33 476.21 328.84 478.24 326.8 480.19 324.89 481.12 323.17 483.73 321.54 486.93 319.42 490.47 316.55 494.83 313.87 497.07 313 501.66 310.74 502.01 310.71 502.44 310.18 503.46 310.24 513.4 304.87 518.54 303.12 519.56 303.09 522.09 302.25 524.38 301.73 524.85 301.61 525.8 301.67 527.69 301.82 528.1 301.67 530.31 301.53 536.29 301.7 537.63 301.38 548.38 302.54 549.98 302.77 551.14 302.57 555.5 303.5 559.33 304.69 562.85 305.77 564.3 306.7 580.25 313.9 581.97 314.86 591.58 322.53 593.15 324.01 598.21 328.52 600.53 331.02 606.26 337.67 607.45 339.03 607.91 339.85 609.04 340.84 612.68 346.56 614.25 348.62 616.28 351.47 617.06 352.34 618.17 354.08 620.52 357.69 621.22 359.05 623.69 363.73 624.85 365.74 626.77 371.17 627.87 374.36 630.89 387.9 630.92 389.15 631.39 390.58 631.24 391.33 631.79 393.57 632.29 395.4 632.37 395.81 Z"/>
<path d="M 615.78 448.95 615.47 446.04 615.52 440.43 631.15 439.97 631.1 442.87 630.52 453.77 631.88 462.92 632.78 467.63 634.29 472.39 634.79 473.12 638.45 481.89 641.67 486.98 642.25 488.4 643.3 489.53 643.88 489.94 644.93 491.98 647.13 494.74 647.86 495.64 649.92 497.67 651.7 499.27 652.68 499.97 662.07 505.37 662.56 505.63 663.23 506.01 663.35 506.07 663.93 506.39 664.62 506.79 666.48 507.9 667.33 508.22 669.39 509.29 660.24 519.84 656.98 518.44 651.17 515.8 648.35 514.38 641.79 509.61 640.22 508.22 637.87 505.92 634.55 502.35 633.3 500.84 627.64 492.24 620.96 475.09 618.34 463.01 618.08 459.52 617.73 457.43 617.56 455.54 615.78 448.95 Z"/>
<path d="M 665.09 521.58 663.67 521.38 660.24 519.84 669.39 509.29 671.66 510.02 672.15 510.08 694.2 516.87 695.1 517.14 710.7 520.1 712.77 520.45 713.78 520.54 715.93 521 717.56 521.41 718.99 521.38 737.41 525.85 739.32 526.11 750.33 526.03 751.67 525.97 752.22 526.14 755.51 526.43 756.49 523.56 756.55 522.39 756.2 521.55 756.99 523.41 757.19 523.96 757.57 525.82 762.65 525.91 781.31 527.1 790 528.74 790 543.66 778.28 543.14 771.34 543.02 747.63 541.11 734.59 539.39 729.44 538.75 709.43 536.34 701.67 535.03 690.77 532.51 678.95 528.29 674.5 525.39 671.57 523.79 665.09 521.58 Z"/>
<path d="M 224.05 417.92 227.36 416.52 245.84 402.75 254.82 411.67 253.8 413.15 247.99 417.74 231.46 427.36 228.96 427.77 226.9 428.52 225.36 428.58 223.79 428.96 222.19 428.84 221.38 429.16 219.72 429.39 218.91 429.68 216.96 429.8 216.12 430.18 213.76 430.53 207.26 432.41 205.69 432.68 195.81 435.67 192.87 436.83 187.99 438.72 182.09 440.49 178.87 441.8 158.73 448.95 156.35 449.79 144.18 452.78 126.54 454.12 99.38 453.59 96.5 442.61 101.47 442.21 114.02 443.16 124.1 443.16 136.45 440.96 147.67 436.45 167.92 430.79 172.83 428.93 188.11 425.7 198.95 424.13 219.43 419.54 224.05 417.92 Z"/>
<path d="M 79.65 440.35 80.81 440.55 96.5 442.61 99.38 453.59 77.62 453.65 71.63 452.61 68.09 450.25 67.5 450.63 48.68 443.19 46.93 442.55 42.37 440.75 39.21 438.78 32.96 434.42 19.62 427.07 10 418.76 10 400.61 16.28 406.76 26.25 414.55 43.68 425.96 57.48 432.88 70.88 437.85 73.49 437.99 73.98 438.11 74.91 438.89 75.73 438.98 76.77 439.1 79.65 440.35 Z"/>
<g/>
<g/>
<g/>
<path d="M 765.5 263.99 774.07 266.52 765.41 268.35 749.99 264.16 754.43 260.53 765.5 263.99 Z"/>
<g/>
<path d="M 653.29 411.79 651.75 409.26 658.06 405.13 660.91 408.94 653.29 411.79 Z"/>
<path d="M 419.2 128.42 416.68 123.54 423.48 118.43 429.14 121.13 419.2 128.42 Z"/>
<path d="M 298.28 338.45 295.03 338.31 295.46 332.5 298.72 332.64 298.28 338.45 Z"/>
<path d="M 664.89 450.83 668.63 451.74 666.89 456.27 658.96 460.86 662.42 451.97 664.89 450.83 Z"/>
<path d="M 674.53 461.24 669.83 453.13 671.16 450.02 678.69 451.85 678.57 457.66 674.53 461.24 Z"/>
<g/>
<g/>
<g/>
<path d="M 36.27 586.72 42.78 584.08 50.19 588.14 39.73 588.64 36.27 586.72 Z"/>
<g/>
<path d="M 575.89 469.57 583.13 470.68 582.72 473 575.14 471.67 575.89 469.57 Z"/>
<g/>
<g/>
<path d="M 632.98 406.03 632.87 403.62 641.67 402.02 643.12 417.8 637.72 418.44 638.36 414.46 637.11 406.38 632.98 406.03 Z"/>
<g/>
<g/>
<path d="M 281.87 691.66 286.08 694.74 280.67 698.58 274.6 698.23 269.84 695.15 281.87 691.66 Z"/>
<g/>
<path d="M 548.58 314.11 550.12 314.6 562.99 320.32 559.71 324.07 548.84 319.92 548.58 314.11 Z"/>
<path d="M 557.21 44.86 557.18 45.44 550.76 48 542.66 55.84 540.97 64.36 540.62 64.12 542.19 54.86 550.04 47.85 557.21 44.86 Z"/>
<path d="M 540.62 64.12 540.97 64.36 531.47 71.97 522.26 72.75 519.91 73.68 518.22 72.61 517.81 64.62 512.64 64.04 512.61 63.34 517.7 64.07 519.18 65.64 518.48 71.36 519.59 72.93 531.56 71.39 540.62 64.12 Z"/>
<path d="M 512.61 63.34 512.64 64.04 505.06 65.34 499.54 68.8 495.56 65.52 490.04 65.84 486.15 68.22 481.99 67.38 482.17 66.86 485.36 67.58 493.23 64.53 496.81 65.81 499.51 68.1 501.28 66.27 512.61 63.34 Z"/>
<path d="M 482.17 66.86 481.99 67.38 476.91 67.2 469.44 76.12 468.45 81.82 467.93 81.56 467.67 78.65 473.07 69.88 476.73 66.51 482.17 66.86 Z"/>
<path d="M 467.93 81.56 468.45 81.82 464.59 88.97 467.55 92.07 469.56 98.38 459.39 107.24 458.83 107.01 464.96 102.24 469.12 97.39 464.01 88.5 467.93 81.56 Z"/>
<path d="M 458.83 107.01 459.39 107.24 457.27 111.57 450.18 114.53 446.11 121.83 430.22 132.75 422.11 134.67 421.99 134.03 430.16 131.68 445.79 121.27 450.06 113.87 456.95 111.05 458.83 107.01 Z"/>
<path d="M 421.99 134.03 422.11 134.67 416.76 139.84 417.61 146.38 420.69 150.07 417.9 162.97 417.08 162.97 419.38 149.57 416.91 147.04 415.86 141.76 417.05 137.17 421.99 134.03 Z"/>
<path d="M 417.08 162.97 417.9 162.97 419.47 168.72 411.77 174.41 400.58 186.04 395.61 186.7 388.29 184.52 378.73 183.01 360.66 189.55 343.69 196.29 339.71 196.87 339.51 196 343.55 195.42 379.95 182.08 394.36 185.43 400.2 185.08 410.84 174.12 418.42 168.05 417.08 162.97 Z"/>
<path d="M 298.22 230.81 297.09 230.43 306.1 216.51 317.78 210.21 325.16 200.53 329.89 197.31 339.51 196 339.71 196.87 329.63 198.33 326.38 200.36 321.09 208.15 315.98 212.71 307.78 215.82 298.22 230.81 Z"/>
<path d="M 533.92 743.14 531.62 737.74 531.93 729.09 534.4 729.23 533.71 736.2 535.07 741.09 536.18 743.14 533.92 743.14 Z M 573.85 743.14 575.14 737.6 575.98 735.25 579.99 726.62 591.29 714.12 597.04 709.33 600.73 706.69 606.37 703.55 620.58 700.29 627.93 701.48 636.44 705.78 643.04 710.38 646.79 713.75 648.73 719.32 643.62 732.05 639.7 736.26 638.19 735.42 641.47 727.87 643.44 725.43 645.07 723.68 645.91 721.59 645.91 716.36 638.16 709.04 634.55 706.77 626.51 702.7 620.67 701.92 615.96 703.02 609.65 704.33 605.21 705.93 591.96 715.95 582.11 726.5 577.49 736.81 575.69 742.28 573.85 743.14 Z" fill-rule="evenodd"/>
<g/>
<g/>
<g/>
<g/>
<g/>
<g/>
<path d="M 299.01 338.48 299.41 332.64 302.67 332.76 302.23 338.63 299.01 338.48 Z"/>
</g>
</svg>