<?xml version="1.0"?>
<svg xmlns="http://www.w3.org/2000/svg" version="1.2" baseProfile="tiny" width="800" height="766" viewBox="0 0 800 766" stroke-linecap="round" stroke-linejoin="round">
<defs>
    <style>
        :root {
            --water-color: #9FC9EA;
            --bg-color: #F2E7D3;
        }
    
        svg {
            background: var(--bg-color, #ffffff);
        }
        path, polygon, rect, circle {
            fill: var(--water-color, #3b82f6);
            stroke: none;
        }
    </style>
</defs>
<g id="water">
<path d="M 10.58 395.15 14.79 398.27 17.54 399.63 22.61 400.39 24.03 401.01 33.37 400.81 39.32 400.27 47.22 400.25 46.66 392.09 44.95 372.53 45.18 372.52 47.64 400.27 49.42 399.8 52.8 397.76 60.27 396.06 65.62 396.34 69.53 396.11 76.58 394.19 79.62 394.35 85.28 393.59 86.52 393.79 90.74 392.91 97.54 392.29 101.4 392.24 105.62 391.05 108.24 389.46 111.84 388.19 125.78 386.2 127.64 387.3 130.56 386.96 139.66 383.93 144.15 383.87 146.33 384.3 154.33 382.34 160.32 380.5 162.31 379.46 171.14 377.87 186.46 374.62 195.61 372.33 204.51 370.51 210.14 368.89 213.51 369.33 216 367.76 221.38 363.48 224.28 360.76 225.6 358.31 226.6 354.28 226.39 351.56 223.85 349.98 222.54 351.8 221.73 354.87 217.13 357.85 216.92 356.23 219.66 352.44 222.47 350.65 224.14 348.26 223.34 344.96 222.4 344.77 222.35 340.69 222.98 338.53 221.04 336.61 220.57 334.57 217.78 333.18 217.96 332.19 214.93 326.95 211.7 323.98 208.95 318.91 207.4 318.23 195.11 318.45 193.15 318.8 191.51 316.79 191.37 312.83 190.24 311.26 186.13 310.7 179.42 313.67 177.1 313.2 175.87 311.57 174.27 311.21 172.99 309.51 169.85 308.94 170.22 306.62 168.57 305.61 166.44 307.78 161.65 307.18 158.82 304.46 157.26 304.53 154.61 306.25 146.88 302.77 145.46 299.09 146.16 297.11 148.34 295.66 147.53 293.71 150.04 291.96 153.19 292.97 154.83 290.99 152.35 290.37 150.1 287.02 148.4 282.27 149.03 279.85 151.95 279.24 153.5 281.11 154.91 280.59 155.99 277.31 157.6 276.6 157.89 273.46 160.28 273.83 161.86 276.15 160.98 278.87 159.36 279.34 159.11 281 163.84 279.64 165.49 281.19 167.84 280.02 167.55 282.67 172.31 282.32 173.61 285.07 175.99 285.18 176.21 287.28 173.84 289.41 174.18 293.34 179.08 296.17 180.8 299.76 179.22 302.83 180.83 305.54 183.97 306.14 186.67 303.05 188.91 301.61 191.11 302.01 194.68 300.17 196.13 300.37 197.74 298.94 199.21 300.33 199.83 302.52 199.01 304.35 193.98 304.42 192.16 306.23 194.37 307.28 196.83 309.65 197.83 313.62 198.68 314.38 205.15 314.3 207.06 313.27 209.78 313.41 211.93 314.75 212.29 316.68 214.08 319.45 216.6 322.26 218.3 322.91 220.19 326.76 222.18 328.77 225.12 329.19 225.38 324.47 224.08 323.5 224.99 321.58 222.92 318.68 222.89 316.81 224.5 314.86 226.06 311.72 224.22 308.03 222.98 307.86 221.16 305.97 220.96 303 219.15 302.26 218.01 299.38 219.51 297.13 219.09 292.24 216.15 291.95 214.67 291.07 212.69 292.38 209.21 292.97 206.94 291.42 203.57 288.22 200.03 283.14 197.63 276.82 195.89 275.61 194.37 273.26 194.09 266.67 192.76 261.81 193.35 259.07 195.85 257.69 199.16 257.2 202.21 257.63 203.96 258.7 204.17 261.53 205.78 263.04 207.25 265.93 211.13 270.49 213.79 270.55 215.53 272.8 218.39 273.96 217.88 277.6 219.49 278.64 220.16 281.08 222.34 282.88 227.62 285.63 229.17 285.32 232.01 280.39 232.48 277.46 232.52 270.46 228.89 265.18 228.06 262.72 228.43 260.8 230.34 259.75 232.23 260.66 234.45 259.35 238.75 258.34 242.4 258.48 245.11 259.33 246.23 261.33 251.12 263.52 253.45 263.6 254.71 265.5 257.26 266.57 261.15 265.99 268.2 270.45 271.42 271.56 270.12 273.07 269.34 275.52 271.79 277.37 274.89 275.3 278.08 274 279.52 274.13 281.17 276.26 283.64 277.43 282.48 279.38 279.79 279.77 280.6 282.27 278.13 285.77 275.57 286.74 272.85 291.84 271.91 294.84 265.37 297.47 265.37 301.41 260.95 303.19 260.24 304.76 263.25 308.27 270.86 301.19 272.75 302.69 268.28 307.69 268.77 310.61 273.66 311.21 273.69 312.37 268.02 312.73 269.51 316 268.96 316.47 257.61 309.94 255.71 312.83 252.8 311.33 253.59 309.34 250.69 307.7 246.65 313.11 245.26 312.23 240.34 313.95 238.75 312.56 236.82 312.86 230.76 316.99 230.78 320.38 232.74 322.82 236.34 319.48 236.84 319.94 233.26 323.24 235.23 326.07 235.57 329.84 230.81 334.24 229.79 337.52 229.45 345.1 233.13 347.14 236.26 349.89 235.85 351.88 239.51 358.92 240.08 362.04 243.78 364.73 243.73 367.09 247.35 367.29 248.29 368.14 252.4 368.48 254.5 366.99 258.32 367.26 262.71 368.44 264.09 378.64 260.18 378.8 260.05 381.52 258.86 382.54 260.07 384.82 260.04 387.56 286.97 387.79 292.08 387.48 323.99 387.47 325.91 385.74 326.29 382.03 325.63 379.37 322.71 377.4 307.67 377.4 305.33 375.89 305.89 373.2 316.91 365.32 322.77 361.47 326.17 358.88 335.45 352.53 338.32 348.62 341.54 346.36 344.09 346.35 345.63 345.36 348.72 347.31 348.6 348.51 346.27 350.46 345.62 352.96 343.25 354.4 347.12 362.27 348.77 366.17 349.7 371.27 353.58 370.37 361.51 367.31 362 363.12 363.36 362.78 362.92 367.17 364.03 367.26 364.46 363.04 365.62 363.15 365.16 367.46 367.75 363.88 369.75 363.77 369.55 366.8 372.21 367.43 369.52 372.27 381.54 380 382.52 379.6 380.83 374.73 381.99 374.75 383.27 378.1 385.61 377.57 386.72 371.93 388.59 372.57 389.16 374.9 388.65 378.19 390.42 379.74 387.22 382.38 387.62 385.03 389.92 383.73 391.13 385.6 389.81 387.76 390.85 388.81 385.62 394.86 383.12 399.45 385.08 400.48 390.4 405 395.39 408.48 398.58 404.26 401.39 402.29 405.09 404.26 403.17 407.3 400.36 405.68 398.49 407.63 403.22 407.84 404.16 407.18 408.8 409.23 416.96 411.85 418.19 414.58 415.46 417.41 418.26 419.78 419.06 422.2 421.67 412.87 426.73 412.51 436.76 410.49 440.07 411.49 450.39 420.32 458.12 427.17 463.06 431.97 462.56 432.47 439.57 412.49 438.54 411.44 436.36 411.24 428.13 412.87 426.42 414.07 428.54 416.87 426.79 418.66 426.43 420.92 427.73 423.07 429.31 422.4 431.44 422.85 435.62 426.53 437.97 427.91 444.15 429.99 447.43 430.33 450.29 431.76 452.28 433.61 454.09 437.01 454.63 442.36 455.94 447.62 455.9 449.33 457.29 453.83 458.67 454.59 461.34 458.92 464.17 459.78 467.96 461.79 472.66 461.9 474.57 462.78 479.66 463.51 485.1 461.82 487.17 461.78 496.07 459.66 498.89 462.15 501.18 462.97 503.96 462.57 504.62 459.8 503.82 457.56 505.97 455.81 512.91 452.66 518.03 449.67 521.91 446.69 524.32 442.52 527.13 440 533.45 437.04 538.6 435.9 544.71 432.16 549.16 430.69 552.56 430.75 554.01 434.12 556.02 434.62 558.98 434.01 560.4 432.51 560.26 430.64 564.73 429.02 567.28 429.34 576.43 426.38 577.48 425 585.87 424.69 587.99 423.89 590.67 425.31 592.6 424.99 592.85 422.22 595.04 421.51 597.61 421.72 602.78 422.98 607.56 422.94 606.82 421.34 604.9 422.71 602.29 422.02 601.38 420.5 604.47 419.71 605.52 418.76 609.37 417.69 610.33 418.76 613.4 418.25 615.41 417.27 619.36 410.96 617.56 407.87 618.78 405.8 620.76 406.37 620.99 409.99 617.67 414.3 620.95 415.52 626.73 416 628.01 412.46 626.99 408.92 629.16 409.99 631.15 409.68 633.07 410.62 629.39 413.04 629.33 414.29 632.62 418.52 636.82 416.82 638 415.37 640.32 414.54 641.72 413.08 644.49 411.92 644.43 409.71 648.85 404.7 648.8 402.76 650.47 399.15 650.21 396.34 651.71 393.3 653.24 394.1 651.29 395.97 652.24 399.63 653.6 401.01 656.58 401.6 651.22 406.95 648.94 410.11 645.48 410.32 645.4 412.31 639.7 416.99 640.19 419.06 643.01 417.98 645.56 414.75 646.27 415.26 643.67 418.77 641.37 419.95 636.24 427.41 634.63 427.44 628.54 422.31 627.7 424.2 630.1 427.83 629.98 429.34 631.1 432.2 630.61 434.35 631.4 440.41 630.47 443.38 628.93 444.82 626.51 449.72 627.33 454.09 629.59 455.93 633.84 456.75 637.09 456.26 639.53 456.47 643.73 455.67 646.53 454.7 648.34 453.41 651.08 452.81 653.81 451.23 657.42 449.86 657.06 447.54 654.09 446.15 652.14 443.83 649.27 443.23 648.79 441.34 649.69 438.37 651.73 435.85 653.66 435.82 657.17 438.77 658.45 441.39 660.85 442.21 663.89 437.66 666.04 431.18 672.15 428.17 673.07 427.06 677.45 424.82 680.17 422.71 682.6 418.59 686.31 416.34 688.52 416.67 692.63 415.2 693.97 413.53 693.8 412.23 697.33 411.46 698.92 408.99 704.16 406.81 705.34 405.34 707.92 405 709.51 403.88 709.76 401.5 707.49 400.13 709.25 398.92 710.22 400.36 713.25 400.25 714.78 398.29 720.36 395.69 721.44 393.68 722.4 389.14 723.87 387.33 723.36 385.91 724.12 379.38 723.72 376.75 721.15 377.98 719.14 377.25 715.63 377.03 712.09 377.85 708.64 377.93 706.42 375.36 706.42 372.01 702.15 367.97 699.65 368.04 696.49 368.89 693.51 367.17 688.63 361.82 684.81 358.99 680.94 357.77 679.2 356.02 676.37 354.7 666.29 351.5 661.81 349.22 657.85 346.49 655.51 344.4 650.66 337.44 646.39 330.18 643.69 326.92 637.69 317.7 634.18 309.97 630.84 299.83 629.71 291.38 632.43 282.72 634.86 276.99 635.79 273.72 635.46 269.47 632.14 268.41 629.54 262.79 627.8 260.12 626.2 256.18 623.89 254.17 620.44 249.22 618.32 248.39 613.95 245.74 609.39 245.39 605.18 243.01 604.18 244.24 599.34 247.86 598.78 250.37 600.14 252.7 599.17 253.58 601.63 257.89 602.38 263.03 600.93 266.71 597.31 268.5 595.02 271.27 594.96 273.69 591.79 271.14 589.34 270.89 590.17 268.34 588.98 266.89 586.92 267.49 585.93 269.49 586.34 273.69 584.45 275.73 583.01 274.91 581.85 269.38 583.6 268.67 583.54 266.5 587.25 264.82 588.84 262.42 590.48 262.33 591.75 263.97 591.53 266.77 592.16 269.13 593.59 270.34 595.74 269.7 597.1 267.83 600.1 266.77 601.24 265.73 602.03 262.62 601.73 259.41 598.32 253.81 597.9 249.04 599.99 245.87 604.9 242.76 603.96 241.85 598.12 240.26 592.89 238.45 590.93 237.21 586.43 232.7 582.46 226.73 579.06 219.43 578.05 215 576.68 211.3 576.2 205.83 579.06 199.62 577.17 200.44 572.93 206.03 568.47 215.66 557.85 229.11 557.58 228.57 568.07 215.31 572.52 205.46 576.74 200.05 578.3 199.09 582.44 199.96 583.88 201.56 585.52 199.83 585.95 195.09 588.64 190.67 589.27 186.58 588.89 181.25 588.16 179.44 587.77 172.97 588.15 170.68 591.44 167.96 594.05 168.19 598.92 166.58 604.89 161.79 605.54 159.52 605.51 155.47 606.63 154.04 609.65 152.65 610.54 149.42 609.34 147.37 605.63 148.05 599.6 146.82 598.33 145.97 593.34 147.97 587.47 152.68 584 152.93 582.78 155.68 580.2 156.52 575.69 156.07 567.01 153.3 560.95 151.71 557.99 151.73 553.55 149.17 552.39 149.87 546.67 146.87 545.68 144.63 543.8 143.73 542 148.7 540.16 149.76 539.75 151.49 538.34 152.19 532.06 150.46 530.18 155.93 525.03 158.88 524.49 160.78 525.86 162.82 526.03 164.37 523.17 167.25 525.72 171.99 533.27 172.95 544.72 178.5 546.3 179.97 547.98 179.38 552.07 181.71 554.6 182.15 555.95 184.03 555.5 185.5 551.05 188.33 550.64 191.11 549.13 194.28 545.53 195.69 545.25 198.94 543.72 200.11 543.42 201.76 545.37 205.44 543.72 209.39 541.88 209.6 542.17 213.76 539.75 214.01 537.64 217.02 534.54 216.45 533.96 219.11 531.86 219.74 529.67 218.95 526.11 220.7 520.22 221.12 518.54 221.97 514.39 220.04 509.63 216.99 509.31 212.49 507.85 211.35 505.97 211.84 505.4 209.23 506.31 206.83 508.19 203.96 507.82 201.66 506.65 200.87 503.25 201.87 502.72 200.2 503.29 196.21 500.87 194.33 498.3 194.28 497.37 195.77 498.27 197.3 498.19 199.66 495.86 201.01 493.08 200.25 489.94 201.27 487.43 198.69 485.56 197.9 483.58 195.3 482.35 192.57 478.73 189.2 475.34 184.71 473.37 181.13 474.42 178.24 476.52 177.12 477.11 174.94 478.88 174.09 478.39 172.72 473.21 174.06 470.15 169.47 467.96 163.55 467.41 160.32 465.93 155.68 464.86 154.51 458.94 157.66 455.47 158.02 453.21 156.33 451.59 156.78 450.07 155.53 448.26 152.34 445.23 151.51 443.96 149.68 441.46 149.45 439.85 144.61 437.67 145.03 435.69 144.57 433.25 144.77 432.03 145.33 431.27 146.61 430.21 146.69 429.11 149.7 431.75 151.51 429.63 152.13 427.79 151.63 427.78 148.93 428.98 146.24 427.01 145.65 424.13 141.29 423.47 138.6 424.7 136.67 424.33 133.99 423.25 134.01 421.27 130.04 421.36 127.66 423.3 126.37 423.14 123.96 424.97 121.61 425.82 115.34 425.03 108.5 423.53 107.24 420.87 109.2 418.41 108.4 415.52 106.48 413.91 103.48 415.1 102.52 414.65 100.51 416.76 97.78 417.17 95.64 416.03 94.22 414.28 93.76 412.48 91.28 410.02 84.94 409.35 79.7 410.79 76.6 410.81 73.61 412.49 73.1 414.35 73.83 415.13 75.51 418.12 75.04 422.24 72.72 426.33 72.36 432.43 70.83 435.32 69.67 435.46 68.5 434.38 63.58 434.35 58.36 435.43 56.81 435.6 51.49 436.51 49.61 436.45 45.19 437.09 43.69 436.44 41.37 433.99 36.7 432.29 34.38 431.44 31.26 428.38 28.49 426.85 24.87 426.16 22.01 424.66 19 421.46 17.33 418.53 12.78 418.65 10 789.42 10 789.42 756 10.58 756 10.58 395.15 Z M 615.92 416.65 615.82 418.6 617.78 419.76 621.29 420.52 623.14 421.92 626.02 422.68 626.96 420.78 629.7 420.29 631.17 419.23 629.54 416.11 626.3 417.38 621.01 417.38 618.65 415.49 615.92 416.65 Z M 248.23 284 244.33 283.52 241.81 286.86 239.79 287.42 238.2 289.43 232.79 292.69 232.62 293.46 229.08 298.64 229.35 302.23 233.4 305.21 232.94 307.79 235.6 308.38 240.79 306.43 243.47 304.44 244.36 300.3 245.89 298.06 249.82 298.04 253.82 295.92 256.34 293.42 257.23 291.07 257.19 287.13 253.59 287.65 251.1 286.69 248.23 284 Z M 333.28 379.83 330.13 379.58 329.83 383.2 331.26 384.86 335.43 382.64 335.55 381.55 333.28 379.83 Z M 378.23 394.41 380.45 395.69 382.83 392.58 382.78 390.36 378.84 383.49 375.84 381.78 376.83 380.45 373.95 378.27 366.25 373.34 357.07 371.84 352.16 373.85 351.75 374.76 352.81 377.99 356.59 383.87 359.1 388.5 361.06 393.3 366.36 391.9 372.76 392.29 378.23 394.41 Z M 347.56 379.58 346.42 381.05 347.12 382.3 349.11 381.59 347.56 379.58 Z M 510.08 184.02 508.81 183.66 506.57 185.33 507.34 186.94 505.88 188.22 508.55 190.62 510.85 187.77 510.08 184.02 Z M 713.78 361.39 712.83 360.28 710.28 362.49 713.39 363.82 713.78 361.39 Z M 714.04 346.9 711.81 344.77 707.61 346.98 706.62 349.35 707.79 351.43 712.9 353.32 714.8 352.45 715.17 348.33 714.04 346.9 Z M 647.17 259.13 649.61 259.12 648.51 256.8 646.49 258.11 647.17 259.13 Z M 646.13 253.43 648.03 253.38 648.25 251.28 646.78 250.27 644.69 250.51 644.83 253.21 646.13 253.43 Z M 611.38 130.28 610.31 131.81 611.4 133.24 613.57 132.66 615.48 131.24 613.71 129.56 611.38 130.28 Z M 635.43 419.37 634.23 421.31 637.12 423.27 638.08 422.17 637.78 420.22 635.43 419.37 Z" fill-rule="evenodd"/>
<path d="M 289.24 375.32 289.32 377.85 265.87 377.87 265.59 377.65 264.49 368.92 269.31 368.98 271.05 369.41 277.71 369.81 282.69 373.25 284.88 374.39 286.6 373.54 289.24 375.32 Z"/>
<path d="M 418.52 67.86 418.33 66.5 419.77 63.92 421.78 62.96 424.41 63.58 424.56 66.41 426.62 69.58 426 70.61 422.35 72.22 413.22 73.2 411.19 72.82 411.28 69.76 413.73 69.22 414.44 68.11 417.51 66.46 418.52 67.86 Z"/>
<g/>
<path d="M 110.03 93.77 114.3 93.99 117.28 95.24 116.88 97.84 117.96 98.67 121.22 98.49 123.54 95.98 127.5 95.63 129.52 97.59 131.56 96.12 135.38 96.97 137.76 95.58 139.21 97.28 138.12 98.84 142.62 98.66 143.02 99.72 146.11 101.49 149.05 98.64 152.18 98.61 153.02 100.96 149 99.34 147.04 101.69 145.37 101.55 142.48 100.22 142.21 101.73 137.93 99.58 136.05 97.62 132.48 97.62 127.99 98.69 127.3 96.48 123.2 97.74 124.2 100.17 119.44 101.35 114.78 100.84 114.09 96.46 109.83 95.15 107.82 93.63 105.73 93.66 103.61 91.17 104.17 88.86 105.56 87.99 108.93 88.9 110.96 88.9 111.33 90.63 113.99 90.59 116.03 88.53 117.56 88.96 119.78 91.24 122.88 88.07 125.07 84.82 126.79 84.34 127.42 82.25 128.95 81.79 130.33 83.23 129.58 85.66 127.79 84.84 124.51 86.64 123.99 88.11 120.08 92.58 117.34 92.55 116.71 90.29 114.95 90.79 113.55 92.35 111.93 92.78 109.07 90.12 108.25 90.94 110.03 93.77 Z"/>
<g/>
<path d="M 481.53 253.55 485.89 254.74 484.81 256.56 482.58 258.08 481.11 258.06 480 256.44 480.21 254.15 481.53 253.55 Z"/>
<g/>
<g/>
<g/>
<g/>
<g/>
<path d="M 580.03 191.78 579.52 188.83 581.56 188.04 583.31 188.62 583.55 190.54 580.03 191.78 Z"/>
<g/>
<path d="M 321.16 310.13 321.89 307.78 324.33 306.98 327.02 307.13 325.37 309.25 321.16 310.13 Z"/>
<g/>
<g/>
<g/>
<g/>
<path d="M 115.95 381.52 120.7 380.8 122.06 382.61 124.08 380.84 126.59 380.87 126.85 384.93 116.89 386.35 115.95 381.52 Z"/>
<path d="M 216.2 357.85 215.01 360.82 212.8 360.66 214.68 358.34 216.2 357.85 Z"/>
<g/>
<path d="M 435.57 149.96 432.18 148.97 431.03 147.4 432.35 145.29 435.46 144.69 437.38 146.39 436.99 148.96 435.57 149.96 Z"/>
<path d="M 135.61 42.02 137.61 41.06 142.43 40.67 140.2 42.7 136.76 43.92 135.61 42.02 Z"/>
<path d="M 514.13 222.23 516.05 221.06 518.86 222.39 514.67 223.25 514.13 222.23 Z"/>
<path d="M 587.81 343.98 587.6 345.81 584.88 344.86 585.05 343.5 587.81 343.98 Z"/>
<g/>
<g/>
<g/>
<g/>
<g/>
<g/>
<g/>
<g/>
<g/>
<path d="M 520.61 254.65 519.77 251.79 521.09 250.74 522 247.78 523.71 248.12 524.18 251.26 521.77 254.66 520.61 254.65 Z"/>
<g/>
<g/>
<g/>
<g/>
<g/>
<path d="M 169.17 271 172.88 270.21 173.61 271.85 173.35 273.89 168.51 272.83 169.17 271 Z"/>
<g/>
</g>
</svg>