<?xml version="1.0"?>
<svg xmlns="http://www.w3.org/2000/svg" version="1.2" baseProfile="tiny" width="800" height="685" viewBox="0 0 800 685" stroke-linecap="round" stroke-linejoin="round">
<defs>
    <style>
        :root {
            --water-color: #9FC9EA;
            --bg-color: #F2E7D3;
        }
    
        svg {
            background: var(--bg-color, #ffffff);
        }
        path, polygon, rect, circle {
            fill: var(--water-color, #3b82f6);
            stroke: none;
        }
    </style>
</defs>
<g id="water">
<g/>
<g/>
<g/>
<g/>
<path d="M 666.61 174.07 671.98 174.28 669.33 176.97 667.7 179.13 668.04 182.87 670.2 186.25 673.07 187.98 677.52 193.86 681.69 197.77 686.88 200.42 697.68 202.04 706.18 204.74 711.08 208.07 712.18 216.49 709.89 221.68 710.47 231.69 711.29 235.97 710.04 238.86 708.49 247.56 708.72 250.38 712 257.35 719.15 267.45 721.84 275.18 721.26 282.17 711.95 296.51 707.63 305.05 705.62 307.72 697.86 311.77 692.27 311.94 683.83 311.26 670.02 311.94 668.14 316.34 670.53 324.96 668.85 330.74 662.44 334.22 650.18 337.78 645.43 342.43 643.57 346.2 644.57 347.98 639.81 354.21 639.3 354.43 630.38 356.77 623.16 357.66 617.46 359.9 615.02 362.04 611.51 368.01 606.8 370.63 600.55 377.93 590.71 383.35 585.42 385.71 583.36 388.33 582.85 396.7 586.21 406.21 580.74 417.22 579.62 421.49 580.03 426.37 582.55 432.32 581.12 435.01 582.42 440.38 580.94 444.22 577.77 447.93 567.01 451.64 558.9 452.94 554.68 456.35 553.99 459.2 549.52 462.12 551.19 466.44 550.36 476.97 553.05 482.18 553.79 490.5 550.1 498.48 545.09 504.28 543.62 509.04 543.97 513.66 543.46 522.16 545.65 540.21 547.51 543.19 552.54 546.24 554.78 546.52 558.19 550.86 559.28 554.27 559.08 558.47 561.26 567.9 561.14 570.95 556.41 573.19 553.2 579.37 552.8 581.91 555.24 586.08 556.03 593.23 552.82 599 546.77 601.92 550.97 608.08 556.53 608.66 562.92 604.97 567.39 607.01 567.42 610.72 561.44 617.21 558.54 619.27 553.38 621.1 546.59 620.49 542.45 619.29 525.89 618.55 518.11 620.31 518.37 623.38 524.39 625.95 530.37 629.49 534.92 635.13 535.17 639.79 531.39 646.4 528.59 649.3 523.12 652.25 520.81 655.27 517.6 657.2 508.88 655.86 497.16 650.57 493.07 651.2 490.8 654.48 493.88 656.64 495.84 660.56 495.99 664.43 490.4 670.3 494.24 661.25 488.95 657.53 488.11 653.97 490.98 649.7 495.61 648.63 502.07 649.47 508.83 653.75 512.09 654.97 518.01 654.69 522.03 650.34 525.46 648.71 529.71 644.49 532.35 637.6 531.08 633.71 525.18 629.28 515.44 623.26 515.16 619.98 521.93 616.39 527.06 616.19 534.59 617.33 541.51 617.49 543.51 618.38 553.66 619.85 561.59 614.89 565.41 610.65 565.66 607.29 562.26 606.75 558.92 609.88 555.06 611.28 551.88 610.49 546.69 605.66 545.27 600.14 549.85 595.8 554.55 592.74 553.51 587.99 550.74 583.21 552.47 574.87 556.18 570.57 558.34 563.63 556.28 555.39 556.79 552.06 554.96 549.16 545.96 543.57 543.97 540.39 542.19 534.69 542.93 529.91 541.3 522.46 542.17 509.82 543.01 505.2 548.3 498.61 551.58 493.17 552.62 487.07 548.5 476.31 549.41 470.49 546.64 466.52 547.1 459.22 558.77 451.52 567.52 449.61 575.94 446.81 579.95 442.52 580.08 438.78 577.05 431.89 578.48 428.2 577.89 417.9 581.61 412.28 583.49 407.12 583.11 399.67 580.94 393.21 582.95 386.09 588.42 381.49 590.73 381.24 597.98 377.52 604.26 370.91 611.28 365.47 613.65 361.3 616.65 358.93 624.3 356.06 629.79 354.79 639.56 351.36 640.88 343.78 642.58 340.83 648.51 335.69 650.64 334.96 652.7 333.66 663.79 332.01 666.53 330.46 668.16 327.56 666.76 321.45 666.51 314.11 668.26 309.63 678.36 310.01 682.91 309.32 693.87 309.6 705.29 304.95 706.13 300.93 712.97 290.61 717.7 281.76 718.59 271.97 717.65 269.78 710.12 258.47 706.1 248.98 706.38 244.31 708.21 238.05 707.37 234.08 706.18 222.41 708.77 217.38 705.72 209.06 701.78 206.11 691.45 204.05 685.56 203.57 680.95 200.9 675.03 196.15 666.46 184.96 664.58 180.2 666.61 174.07 Z M 579.85 428.1 577.84 432.47 581.68 431.71 579.85 428.1 Z" fill-rule="evenodd"/>
<g/>
<g/>
<g/>
<g/>
<path d="M 677.98 175.19 672.66 175.42 670.78 175.6 672.31 174.35 678.16 174.2 683.47 174.02 692.7 173.87 696.21 173.44 700.38 171.48 701.45 170.39 702.08 169.52 703.25 166.9 703.69 162.89 702.16 162.2 701.6 161.59 702.03 159.68 701.35 157.75 698.88 153.94 698.88 153.66 697.73 150.4 697.81 144.25 698.01 141.86 698.14 141.17 697.33 139.67 696.41 134.51 697.58 131.53 698.9 130.11 701.32 127.97 701.55 127.26 702.06 125.35 706.13 124.01 707.07 123.88 711.64 127.26 713.75 128.61 716.02 129.6 717.09 130.11 719.15 130.82 721.69 132.47 722.4 133.14 726.98 132.91 727.79 132.86 734.91 131.84 735.8 131.86 736.72 130.97 737.38 130.06 737.17 129.04 736.74 128.05 735.39 126.47 734.99 124.54 736.59 121.08 740.3 118.67 743.45 118.44 743.78 118.46 744.55 118.57 747.09 117.8 748.26 117.4 748.44 117.32 748.9 117.01 749.94 116.58 751.18 115.9 752.07 115.28 754.26 114.24 755.13 113.66 755.74 113.33 755.91 113.23 757.82 112.18 758.91 111.57 759.7 111.09 761.86 110.3 763.31 110.22 765.75 110.28 766.21 110.33 768.04 110.45 769.11 110.28 769.34 110.25 770.08 110.12 771.37 109.97 772.77 109.54 773.66 108.93 774.81 108.34 775.62 107.91 778.7 107.28 780.55 106.54 780.38 107.53 778.27 108.24 774.83 109.18 773.94 109.82 767.31 111.32 764.13 111.17 763.03 111.14 761.99 111.11 761.05 111.37 754.97 115.03 754.74 115.28 754.57 115.46 754.39 115.64 754.36 115.67 753.91 116.15 753.73 116.33 753.7 116.35 753.29 116.76 753.27 116.79 751.77 117.78 751.41 117.88 750.75 118.03 750.73 118.06 750.09 118.21 750.07 118.23 749.76 118.31 749.61 118.34 749.4 118.39 749.38 118.41 749.07 118.49 749.02 118.51 748.74 118.59 748.69 118.62 748.41 118.69 747.75 118.9 747.73 118.9 747.47 118.97 741.42 119.53 736.97 122.05 735.98 123.93 735.57 124.46 736.13 125.79 737.94 128.33 737.53 131.28 736.03 132.75 728.88 133.72 726.77 133.77 725.88 133.59 725.3 133.95 722.93 133.8 722.22 133.54 713.55 130.03 710.93 127.9 708.31 125.48 706.58 124.77 704.07 124.95 702.92 125.84 702.44 126.5 702.46 127.77 701.88 128.91 701.14 129.5 700.25 130.44 699.03 131.58 698.52 132.3 697.56 133.36 697.58 134.56 697.86 135.78 697.94 138.35 699.13 140.61 698.93 146.18 698.9 146.71 698.83 148.34 698.93 149.51 699.21 150.71 699.21 152 699.77 153.3 700.51 154.49 700.74 155.28 704.85 161.44 705.85 165.84 704.35 166.78 703.33 169.34 702.8 170.34 700.81 171.94 693.69 174.66 677.98 175.19 Z M 705.39 164.67 704.75 164.26 704.27 166.32 705.26 166.09 705.52 165.56 705.39 164.67 Z M 703.3 160.29 702.8 159.66 702.18 159.78 701.73 161.39 702.13 162.07 703.74 162.81 704.35 163.75 704.52 163.39 704.65 163.11 704.52 162.07 703.3 160.29 Z" fill-rule="evenodd"/>
<path d="M 599.25 422.89 600.12 423.11 600.52 423.06 600.93 423.04 601.59 423.14 602.46 422.96 603.93 423.17 604.47 423.37 604.54 424.79 604.41 426.06 604.36 426.62 605.18 426.6 606.19 426.75 606.58 426.52 607.31 426.34 608.23 426.52 608.43 426.75 609.68 427.36 611.74 430.44 611.66 431.68 611.87 432.22 611.64 433.18 610.59 433.62 609.53 433.77 607.95 433.79 606.53 433.85 604.72 433.79 603.55 433.95 602.15 433.79 600.93 432.73 600.02 432.6 595.49 431.89 594.88 431.4 593.43 430.97 592.26 430.92 590.94 430.69 590.84 430.84 590.61 431.18 590.56 431.48 588.09 433.13 587.23 433.03 586.39 432.32 586.44 431.89 586.46 431.63 586.51 431.25 586 430.87 586 430.51 586.72 425.56 586.92 425.1 587.63 424.03 588.01 423.83 588.6 423.52 589.08 422.96 589.77 422.22 589.67 421.23 589.92 420.37 590.89 418.64 590.96 417.88 591.4 417.06 591.75 416.78 592.11 416.48 593.35 416.96 594.22 416.88 594.98 417.04 596.35 417.01 596.74 417.5 597.96 417.6 598.06 420.11 597.78 421.64 598.16 422.02 598.8 422.12 599.25 422.89 Z"/>
<path d="M 635.56 274.49 635.44 277.39 631.06 277.97 630.3 275.12 635.56 274.49 Z"/>
<g/>
<path d="M 692.55 19.32 693.54 21.66 692.01 24.89 694.91 28.22 693.26 29.75 687.41 27.89 681.38 31.58 678.87 30.58 679.33 25.37 684.82 25.12 688.38 20.13 692.55 19.32 Z"/>
<path d="M 387.16 86.7 398.65 89.12 399.21 93.16 395.8 93.34 387.59 90.49 384.87 88.15 387.16 86.7 Z"/>
<path d="M 341.03 41.98 340.4 42.71 339.79 42.46 339.63 41.87 332.31 42.71 329.92 41.06 329.03 40.4 329.21 39.61 327.96 38.54 326.08 37.78 325.04 36.76 325.27 35.87 326.13 36.89 327.3 36.18 327.58 36.46 329.46 35.44 329.84 36.33 330.53 36.64 331.12 37.91 331.65 37.7 332.16 38.57 333.1 39.26 333.86 39.48 334.93 39.28 335.16 39.08 335.36 38.87 335.87 38.42 337.47 38.44 338.03 38.42 338.36 37.76 338.92 37.55 343.47 39.13 344.26 39.92 345.08 40.12 346.3 40.17 347.9 40.35 349.96 41.04 351.99 41.49 352.58 40.68 352.76 39.08 353.16 39.13 353.26 39.74 353.75 41.19 355.04 42 357.46 44.04 359.11 43.88 360.71 43.76 360.92 43.35 362.29 43.45 362.52 44.14 362.95 44.37 364.86 44.95 364.25 42.69 364.22 41.39 364.1 40.07 363.56 39.13 363.38 38.85 364.07 38.77 365.67 36.05 364.25 35.92 364.96 34.68 363.94 33.59 363.46 30.79 361.93 29.49 362.7 28.19 364.17 29.08 366.89 28.22 365.77 21 363.84 19.68 362.39 18.76 361.55 17.97 360.87 17.59 357.36 16.42 357.97 14.41 363.08 15.58 363.89 15.15 363.84 14.49 362.04 10 384.03 10 384.06 10.47 384.54 10.8 385.43 10.78 385.66 10.42 385.91 10.52 386.42 10.73 385.58 11.31 384.59 11.59 384.31 11.79 384.36 12.3 385.63 13.19 385.99 13.83 386.29 14.74 386.09 17.23 386.04 17.82 386.6 17.77 385.46 18.2 385.1 18.51 384.95 19.14 385.23 19.9 385.89 21.07 387.01 22.96 387.29 23.62 388.51 24.91 388.71 25.35 389.24 26.39 390.46 28.12 392.24 32.97 391.94 34.4 391.51 35.42 391.43 36.13 391.2 36.94 390.9 37.96 390.97 38.87 391.56 39.08 393.39 38.75 393.64 39.03 392.04 40.3 390.18 41.24 389.83 41.59 389.57 42.51 390.16 44.52 391.25 44.85 388.91 45.82 387.49 46.63 386.8 47.49 386.47 48.16 385.51 48.94 384.92 49.96 385.15 50.42 385.46 51 385.3 51.44 383.8 51.31 383.32 51.92 383.27 52.86 383.37 53.27 383.75 53.98 384.18 54.74 384.82 55.53 385.07 55.78 385.53 56.27 385.73 56.5 386.09 56.85 387.97 60.18 386.52 62.7 385.73 64 384.87 68.57 380.78 68.93 380.14 68.55 379.89 68.4 379.35 68.27 378.56 68.32 378.39 68.35 378.11 68.17 377.95 68.07 377.78 67.94 377.55 67.76 377.45 67.71 377.11 67.48 377.06 67.46 376.81 67.28 376.73 67.23 376.48 67.05 376.48 66.97 376.45 66.49 376.2 65.98 358.65 54.23 358.02 52.1 358.86 50.55 360.59 49.07 361.73 48.87 362.34 48.16 361.25 47.57 358.35 47.52 351.84 46.78 349.81 46.71 348.97 44.44 343.96 43.4 342.99 42.48 341.85 41.93 341.03 41.98 Z"/>
<path d="M 672.87 174.2 672.31 174.35 670.78 175.6 669.33 176.97 671.98 174.28 666.61 174.07 669.18 172.9 670.45 171.84 673.86 166.93 674.54 166.73 673.78 164.56 673.04 163.98 670.83 163.27 658.93 160.93 652.68 158.74 651.07 157.7 644.21 152.31 643.57 151.49 643.32 151.32 642.02 149.82 638.67 145.21 637.6 140.61 637.65 139.75 641.21 135.47 647.72 132.25 651.69 128.66 651.38 125.84 650.08 124.08 647.49 121.59 645.38 115.08 645.94 109.84 646.5 108.6 655.7 99.29 655.83 99.11 656.29 98.4 657.05 97.46 657.25 95.88 657.05 95.22 657.02 93.9 657.66 92.91 658.12 92.2 658.83 91.2 660.38 89.37 662.59 85.38 664.27 80.65 664.78 79.33 664.96 78.87 664.65 78.64 664.96 78.13 665.11 77.88 665.03 76.25 665.11 74.8 665.14 74.27 665.16 73.58 665.44 72.87 665.87 70.84 666.13 68.8 666.1 68.19 666.31 67.71 666.38 67.2 666.41 66.26 666.31 65.22 665.77 64.35 665.62 63.23 665.01 62.57 664.88 62.37 664.53 61.86 663.61 60.87 663.03 60.23 661.14 58.73 660.38 57.82 659.8 57.11 658.75 56.32 657.94 55.1 657.84 54.94 656.97 53.6 656.72 52.99 656.41 52.63 656.16 52.25 655.45 51.16 654.94 50.21 654.86 49.94 653.82 45.33 653.92 45.03 654.05 44.7 654.2 44.49 654.74 43.83 655.37 43.04 658.14 42.41 658.53 42.38 659.21 42.36 659.95 42.43 660.51 42.48 660.92 42.51 661.27 42.61 661.93 42.79 662.62 42.99 664.09 43.53 665.9 43.96 666.46 44.01 668.42 44.62 668.57 44.88 668.7 45.1 668.34 45.03 668.01 44.95 667.76 44.9 668.01 45.43 668.72 45.61 669.28 45.74 670.5 45.84 671.9 45.94 673.81 45.84 675.18 45.59 677.24 45.15 677.9 44.65 684.23 42.59 684.44 42.54 686.24 41.93 688.71 40.81 691.78 39.2 695.29 37.73 698.01 34.96 698.37 32.52 697.84 30.46 697.33 28.91 697.18 26.72 697 25.52 696.16 23.54 695.73 21.28 695.19 17.87 694.71 16.14 695.19 12.56 695.57 13.52 696.46 17.18 696.67 20.03 697.63 24 698.22 25.88 699.72 29.39 699.36 34.93 696.87 37.91 687.23 42.51 685.35 43.3 683.34 43.93 681.87 44.72 680.19 45.28 678.71 45.69 677.82 46.07 675.82 46.66 674.24 47.01 671.72 46.93 671.16 46.86 670.86 46.83 665.42 44.82 664.4 44.75 662.75 44.19 662.21 44.04 660.94 43.91 660.56 43.78 660.1 43.63 658.93 43.63 658.07 43.71 657.66 43.73 657.25 43.83 656.24 44.04 655.75 44.42 655.19 45.08 654.99 45.74 655.32 47.44 656.31 49.6 657.15 51.18 657.69 51.87 658.17 52.48 658.7 53.19 658.98 53.55 661.5 56.29 662.09 57.18 662.34 57.56 662.92 57.97 664.07 59.01 664.65 59.57 667.2 61.25 667.65 61.63 668.11 62.04 668.54 62.95 669.51 63.97 669.59 64.05 670.12 64.61 670.48 64.99 670.6 65.98 670.53 67.18 670.43 68.9 670.17 70.74 669.54 73 669.51 75.31 669.36 78.9 669.05 79.74 668.98 80.02 666.92 85.28 666.36 86.78 666.13 87.26 665.87 87.8 660.13 96.16 659.67 97 658.4 99.01 658.27 99.27 657.61 101.02 656.62 102.06 650.85 107.05 648 110.83 648.13 116.99 653.59 125.23 653.21 130.06 652.12 131.51 647.69 135.04 642.3 137.46 641.31 140.64 642.99 144.43 648.76 151.39 651.13 153.66 654.71 156.3 654.79 156.83 656.08 157.29 657.84 158.26 665.16 160.11 669 160.32 669.48 160.52 671.37 160.78 671.67 160.95 673.6 161.39 676.71 164.74 676.35 168.91 672.87 174.2 Z M 666.28 82.71 666.48 82.99 666.79 82.64 666.99 82.2 667.32 81.49 667.45 81.21 667.76 77.73 667.27 77.37 666.97 78.87 666.87 79.02 666.56 79.99 666.51 80.12 666.28 80.83 666.28 82.71 Z" fill-rule="evenodd"/>
<g/>
<path d="M 49.91 614.26 48.56 617.89 45.28 621.12 42 617.82 49.91 614.26 Z"/>
<path d="M 629.11 426.14 624.81 427.34 620.82 425.07 621.55 421.18 624.78 419.33 632.39 418.84 634.9 417.47 639.38 417.42 642.81 422.89 642.4 427.11 638.77 429.04 633.99 429.09 633.43 426.8 629.11 426.14 Z"/>
<path d="M 657.23 46.2 662.44 44.75 671.87 49.55 670.45 53.93 665.47 51.94 663.41 54.03 660.71 52.81 657.23 46.2 Z"/>
<g/>
<path d="M 541.18 550.13 540.95 548.37 533.42 548.6 527.11 542.5 531.03 542.98 532.71 546.24 536.93 547.43 542.42 547.48 541.18 550.13 Z"/>
<path d="M 724.21 316.9 724.46 314.33 727.21 313.55 731.48 315.35 724.21 316.9 Z"/>
<g/>
<g/>
<g/>
<g/>
<path d="M 603.88 491.19 609.96 492.13 612.88 491.01 615.96 493.7 606.65 494.31 603.88 491.19 Z"/>
<path d="M 628.44 408.98 634.83 408.75 638.08 410.91 636.38 414.04 629.21 413.4 628.44 408.98 Z"/>
<g/>
<path d="M 639.89 401.58 643.57 399.98 656.19 399.82 653.29 404.68 654.15 413.17 651.86 413.99 650.57 405.98 645.94 403.18 643.07 405.29 639.56 405.67 639.89 401.58 Z"/>
<g/>
<g/>
<path d="M 51.03 370 51.79 363.61 54.44 365.6 53.95 368.95 51.03 370 Z"/>
<path d="M 676.1 299.61 676.25 298.77 676.25 296.13 679.45 295.16 681.92 295.09 682.96 294.75 683.9 294.73 685.07 294.83 685.48 294.6 684.87 294.09 683.65 294.04 682.07 292.24 682.71 291.47 683.75 290.74 684.18 290 684.84 289.69 685.58 289.62 686.14 289.57 687.23 288.98 689.6 290.36 689.5 290.71 687.79 293.71 687.36 293.25 686.62 293.25 686.42 294.12 685.33 296 685.73 296.15 688.4 295.42 689.01 295.98 689.01 296.69 689.39 297.55 689.78 299.13 689.73 299.59 689.57 300.68 689.17 301.82 689.88 302.84 691.28 296.15 691.96 295.57 693.21 295.09 695.45 295.03 695.93 295.29 696.59 295.59 697.07 296.33 697.96 296.59 698.32 296.69 697.4 297.68 697.4 298.42 697.4 298.77 696.44 299.92 696.77 300.78 696.72 301.8 697.89 302.61 698.6 302.89 698.68 304.09 694.66 306.15 693.18 305.59 692.4 305.89 685.07 305.97 683.65 306.2 682.25 306.15 681.41 306.12 679.07 305.87 678.21 305.66 676.4 305 676.1 299.61 Z"/>
<path d="M 702.67 293.33 705.41 291.63 708.08 293.53 701.45 304.67 699.24 300.12 699.72 297.45 702.67 293.33 Z"/>
<g/>
<g/>
<path d="M 621.88 279.9 625.29 281.99 622.75 286.39 618.98 285.6 618.4 283.26 621.88 279.9 Z"/>
<path d="M 634.6 290.84 635.41 293.36 630.73 293.46 630.71 290.89 634.6 290.84 Z"/>
<g/>
<g/>
<path d="M 395.6 236.93 396.21 244.23 392.4 244.33 392.96 238.92 395.6 236.93 Z"/>
<g/>
<path d="M 611.48 606.93 618.3 602.41 619.65 603.88 611.48 606.93 Z"/>
<path d="M 389.68 264.01 389.6 266.45 384.49 267.78 383.68 264.06 389.68 264.01 Z"/>
<path d="M 331.78 292.85 328.88 297.6 326.46 294.25 331.78 292.85 Z"/>
<g/>
<path d="M 167.28 584.96 165.43 582.17 167.36 580.89 165.86 577.69 162.78 575.76 157.32 574.84 159.53 571.44 158.87 558.72 160.47 557.3 166.95 557.81 166.95 565.21 170.13 566.63 170.08 568.84 166.24 573.44 169.85 575.5 171.1 578.56 170 581.28 167.51 582.04 167.28 584.96 Z"/>
<path d="M 471.4 356.6 475.14 356.29 475.52 358.96 471.81 358.99 471.4 356.6 Z"/>
<g/>
<g/>
<path d="M 601.31 344.67 600.63 346.78 596.13 347.64 594.6 345.13 600.5 343.53 601.31 344.67 Z"/>
<path d="M 620.13 325.95 620.82 326.69 620.87 327.68 620.59 328.09 620.74 328.42 620.33 331.09 620.08 331.52 620.41 332.67 619.85 333.13 619.8 333.74 619.37 334.88 618.2 335.74 617.87 335.97 617.61 336.18 617.74 336.51 618.55 337.98 618.71 338.92 618.55 340.19 617.54 340.86 616.67 341.21 615.81 342.25 613.7 343.3 611.71 343.47 606.47 342.86 605 342.13 605.05 341.69 605.58 340.3 604.97 335.49 605 334.57 605.36 330.12 605.28 329.44 605.84 328.47 606.19 327.86 607.85 326.46 609.65 326.57 612.81 326.06 615.35 326.01 620.13 325.95 Z"/>
<path d="M 613.03 314.64 613.92 321.78 612.88 324.45 610.21 325.42 607.19 323.9 607.24 321.15 611.71 319.7 611.23 316.37 613.03 314.64 Z"/>
<path d="M 596.79 351.64 601.69 358.78 606.75 363 598.52 368.6 594.24 370.28 590.66 369.92 589.16 366.54 584.71 362.72 583.89 358.76 591.09 360.84 596.96 357.92 595.31 354 596.79 351.64 Z"/>
<g/>
<g/>
<g/>
<path d="M 653.52 357.92 655.17 361.99 652.07 363.21 648.56 358.73 653.52 357.92 Z"/>
<g/>
<path d="M 668.49 385.28 669 389.45 663.81 391.46 660.41 389.7 662.75 385.18 668.49 385.28 Z"/>
<path d="M 660.31 384.31 659.31 388.56 652.45 388.13 652.42 384.57 660.31 384.31 Z"/>
<g/>
<path d="M 474.76 132.88 478.19 134.05 478.5 138.32 474.02 136.85 474.76 132.88 Z"/>
<path d="M 475.47 140.23 478.83 140.2 481.47 146.92 476.03 146.79 475.47 140.23 Z"/>
<path d="M 688.48 313.75 690.97 313.16 698.07 313.8 697.66 319.7 687.97 319.98 688.48 313.75 Z"/>
<g/>
<path d="M 214.91 20.97 226.18 20.72 226.2 21.79 215.16 21.94 214.91 20.97 Z"/>
<g/>
<g/>
<g/>
<g/>
<path d="M 531.72 664.25 526.2 665.77 526.1 663.28 531.46 662.57 533.45 657.48 541.48 656.97 545.55 658.37 545.83 660.43 551.45 660.15 546.97 663.71 544.07 664.27 531.72 664.25 Z"/>
<path d="M 533.52 671.88 536.42 666.84 538.1 667.91 547.07 666.1 543.85 670.15 541.07 670.07 537.64 672.08 533.52 671.88 Z"/>
<g/>
<path d="M 626.38 506.82 626.44 504.99 630.94 503.59 631.29 505.81 626.38 506.82 Z"/>
<g/>
<g/>
<g/>
<path d="M 568.28 521.29 571.99 521.32 572.02 526.25 568 527.01 568.28 521.29 Z"/>
<path d="M 584.43 515.49 589.92 521.39 587.91 523.48 584.56 520.81 584.43 515.49 Z"/>
<g/>
<g/>
<g/>
<path d="M 555.64 482.9 566.3 482.79 570.34 483.63 573.27 486.94 567.57 487.8 564.65 485.74 559.43 485.77 555.64 482.9 Z"/>
<path d="M 563.3 487.4 566.65 488.52 576.65 488.52 577 494.01 571.92 492.08 566.98 493.98 567.16 491.13 563.3 487.4 Z"/>
<path d="M 562.13 496.02 575.48 496.47 573.85 498.79 574.13 502.73 565.82 501.33 562.94 499.78 562.13 496.02 Z"/>
<path d="M 108.34 429.47 110.33 429.93 110.35 434.25 107.91 434.28 108.34 429.47 Z"/>
<path d="M 220.66 147.53 223.91 147.91 223.3 151.52 220.38 151.32 220.66 147.53 Z"/>
<g/>
<g/>
<path d="M 254.12 505.42 259.89 505.96 259.18 508.32 255.19 507.59 254.12 505.42 Z"/>
<g/>
<g/>
<path d="M 410.83 101.88 410.3 98.93 411.8 95.99 419.17 97.15 421.94 99.09 421.28 103.61 428.84 103.79 431.05 105.14 431.48 108.09 423.88 107.45 420.83 109.84 411.82 104.91 410.83 101.88 Z"/>
<path d="M 434.84 106.66 441.02 109.44 442.03 114.19 440.56 115.51 435.12 114.62 432.24 112.69 432.88 107.25 434.84 106.66 Z"/>
<path d="M 466.49 193.96 472.19 193.96 474.99 197.8 467.59 197.75 466.49 193.96 Z"/>
<g/>
<g/>
<g/>
<path d="M 210.66 115.72 210.08 121.06 206.57 121.49 210.66 115.72 Z"/>
<path d="M 466.14 20.21 471.55 23.03 471.3 25.32 465.6 24.3 466.14 20.21 Z"/>
<g/>
<path d="M 272.25 22.75 280.39 23.67 280.39 25.91 275.02 25.91 272.25 22.75 Z"/>
<path d="M 283.57 14.9 286.08 15.81 285.45 18.74 289.44 20.52 289.26 22.35 280.06 18.71 282.88 17.82 283.57 14.9 Z"/>
<path d="M 143.08 442.85 144.75 438.91 147.32 438.5 151.42 442.47 143.08 442.85 Z"/>
<path d="M 155.97 442.06 153.38 438.07 154.52 434.46 150.65 432.83 147.55 427.31 148.49 425.76 156.07 425.94 154.6 429.47 156.2 432.62 157.14 439.92 155.97 442.06 Z"/>
<path d="M 638.82 532.96 641.59 533.85 643.09 536.45 639.86 538.43 636.91 536.62 638.82 532.96 Z"/>
<path d="M 681.18 507.36 678.92 502.55 681.77 502.5 681.18 507.36 Z"/>
<path d="M 522.61 654.66 527.62 653.03 527.83 660.31 523.25 662.14 521.19 656.59 522.61 654.66 Z"/>
<path d="M 558.98 645.38 562.18 644.97 560.73 650.31 558.01 651.79 551.7 652.04 547.89 653.54 546.52 648.3 547.2 644.21 540.77 644.18 547 640.55 548.47 638.64 553.74 638.39 553.51 640.27 559.64 643.24 558.98 645.38 Z"/>
<path d="M 549.74 633.96 559.71 633.84 558.7 637.47 554.65 637.55 553.94 635.64 549.74 633.96 Z"/>
<g/>
<path d="M 573.42 609.83 574.71 609.55 576.9 616.57 573.95 616.24 573.42 609.83 Z"/>
<path d="M 575.48 607.34 571.61 609.5 568.84 604.9 579.93 603.83 580.05 607.26 575.48 607.34 Z"/>
<g/>
<path d="M 163.65 545.47 155.1 545.52 152.51 539.73 152.74 536.24 164.03 536.55 163.65 545.47 Z"/>
<path d="M 156.76 547.56 166.39 547.51 167.84 552.92 164.03 553.99 160.65 552.08 156.83 554.14 156.76 547.56 Z"/>
<path d="M 130.29 533.73 134.63 536.65 137.25 542.83 135.24 543.8 128 539.8 127.08 536.88 130.29 533.73 Z"/>
<path d="M 120.24 525.77 120.47 527.37 128.91 528.08 129.65 530.7 128.74 534.67 126.85 535.91 120.6 535.81 116.05 530.22 116.43 526.4 120.24 525.77 Z"/>
<path d="M 149.82 519.16 158.66 521.06 155.31 525.44 155.15 528.28 150.32 528.26 149.15 526.05 149.82 519.16 Z"/>
<path d="M 154.49 516.66 153.15 512.01 156.3 507.89 157.85 500.52 165.86 500.75 166.01 503.01 161.41 504.15 160.8 506.72 157.49 508.45 158.44 516.26 154.49 516.66 Z"/>
<path d="M 160.09 516.94 160.27 512.65 159.1 509.9 163.32 505.6 166.75 505.3 166.24 510.59 161.89 516.79 160.09 516.94 Z"/>
<path d="M 157.52 492.53 168.94 492.43 170.31 494.03 168.33 499.6 158.28 499.47 157.52 492.53 Z"/>
<path d="M 152.31 477.23 158.44 477.1 159.81 481.01 154.6 485.08 153.02 482.67 152.31 477.23 Z"/>
<g/>
<path d="M 141.68 341.77 142.34 348.87 140.18 348.94 140 343.86 141.68 341.77 Z"/>
<g/>
<path d="M 297.58 675 296.99 669.74 302.43 668.57 297.58 675 Z"/>
<path d="M 369.59 464.99 367.55 468.71 364.45 470.54 364.66 465.2 369.59 464.99 Z"/>
<path d="M 408.98 640.6 407.22 632.59 403.56 628.52 408.7 629.11 411.47 632.28 413.22 639.48 408.98 640.6 Z"/>
<g/>
<path d="M 314.77 343.47 319.14 343.4 319.55 346.22 314.97 346.17 314.77 343.47 Z"/>
<g/>
<path d="M 633.56 431.38 634.65 435.24 633.2 438.17 626.51 438.47 625.39 443.97 620.31 444.8 617.56 444.19 617.94 439.62 616.65 436.03 625.67 435.8 628.6 433.97 629.46 431.33 633.56 431.38 Z"/>
<path d="M 651.81 374.06 656.03 373.68 655.68 376.66 651.79 377.14 651.81 374.06 Z"/>
<g/>
<g/>
<g/>
<g/>
<path d="M 611.08 480.38 607.59 488.08 604.52 487.09 605.69 481.73 609.32 482.59 611.08 480.38 Z"/>
<path d="M 178.83 479.72 176.11 485.08 173.74 482.06 178.83 479.72 Z"/>
<g/>
<g/>
<path d="M 716.1 10 705.41 26.72 703.25 31.3 698.12 38.21 681.69 46.5 675.23 56.57 673.07 69.21 671.54 74.07 671.62 78.67 668.01 88.59 668.04 91.87 671.44 99.01 692.27 117.65 691.94 118.01 671.8 99.85 668.47 94.51 667.4 90.65 667.81 87.21 671.01 78.59 671.32 71.73 672.76 68.57 674.85 56.11 676.27 53.32 682.1 45.61 696.9 38.62 701.32 33.53 704.58 27.15 712.15 15.2 716.1 10 Z"/>
<path d="M 596.91 395.04 601.34 395.37 605.53 394.25 612.73 388.97 614.59 390.97 612.98 396.03 605.76 397.18 598.26 397.18 596.91 395.04 Z"/>
<g/>
<path d="M 602.91 541.79 597.63 542.65 597.93 535.79 605.05 533.95 607.21 538.63 602.91 541.79 Z"/>
<g/>
<g/>
<path d="M 570.57 158 570.27 158.03 572.66 151.95 573.49 144.98 575.88 140.97 576.11 138.12 575.15 133.26 575.66 132.09 574.77 128.48 572.25 127.24 571.31 122.2 565.56 120.01 560.58 119.61 552.44 116.2 548.83 114.24 547.28 113.56 546.11 113.2 543.67 113.17 537.64 113.33 537.64 113.15 545.37 113.05 546.13 113.15 547.61 113.66 551.83 115.54 552.29 115.95 560.63 119.51 565.69 119.96 571.74 122.25 572.4 127.06 574.23 127.92 575.43 129.04 576.29 140.46 573.37 146.21 573.04 151.47 570.57 158 Z"/>
<g/>
<path d="M 652.7 333.66 650.64 334.96 651.38 329.11 651.2 301.59 651.99 298.44 650.36 290.15 650.69 285.32 649.4 283.85 643.47 282.91 640.83 279.4 638.44 271.49 637.98 267.27 628.11 257.71 623.03 254.04 621.71 247.81 618.58 244.26 613.24 242.55 609.55 240.31 607.03 235.23 608 235.46 611.31 240.59 621.35 245.63 625.11 255.21 628.22 256.69 632.39 261.24 637.14 264.98 639.25 268.06 642.51 281.43 648.56 283.03 651.23 285.27 651.99 295.8 652.93 298.47 651.96 302.03 652.02 311.31 652.7 333.66 Z"/>
<path d="M 608.74 235.05 608 235.46 607.03 235.23 612.78 233.86 613.75 233.4 614.1 232.69 613.62 230.6 614.89 226.71 615.35 225.95 614.89 225.39 613.65 224.98 612.98 225.03 611.66 224.96 609.78 224.57 607.9 224.47 605.64 223.56 604.13 223.3 603.5 223.12 602.76 222.9 601.19 222.23 596.28 220.63 596.02 220.3 595.13 219.97 594.14 219.44 593.15 218.73 591.42 217.33 587.58 213.82 575.43 213.79 573.04 214 569.45 213.97 567.52 213.67 563.98 212.98 559.36 210.21 556.43 204.82 556.13 202.86 555.67 201.92 554.45 196.07 553.53 195.08 552.24 193.91 550.38 192.92 538.84 187.6 535.15 186.48 532.28 185.95 510.13 179.87 496.07 178.45 494.21 177.91 492.18 176.64 490.19 175.75 487.96 174.43 480.94 169.83 478.85 165.91 475.78 163.32 472.09 159.94 471.12 158.92 470.74 158.28 470.56 157.65 470.18 157.06 470.46 148.93 469.9 146.69 468.5 143.54 466.42 137.51 466.14 136.49 464.79 135.45 464.56 135.19 464.64 135.07 464.74 134.92 464.41 134.15 464.08 133.97 463.8 134.13 461.89 132.4 462.12 131.1 462.12 130.41 461.76 129.91 460.98 129.19 460.67 129.19 458.08 128.13 456.4 127.82 454.21 127.57 446.76 125.46 446.36 125.35 445.87 125.51 443.51 125.74 441.88 126.17 440.63 126.14 440.02 126.14 438.88 125.81 438.09 125.68 436.29 125.13 434.58 124.69 433.26 124.21 431.63 123.04 431.51 122.58 430.62 121.97 430.36 122.18 429.55 122.18 428.3 121.36 427.41 120.6 426.6 120.45 425.66 120.68 422.35 118.39 421.97 113.66 421.46 112.56 421.13 112.26 418.89 111.06 417.65 110.3 417.14 109.84 416.71 109.59 416.3 109.39 416.15 109.28 415.59 108.98 414.8 108.75 414.42 107.96 413.53 107.68 412.38 107.07 410.22 107.05 408.26 106.05 406.26 105.16 402.85 103.44 401.47 102.93 398.09 101.5 396.75 100.89 396.59 101.02 396.36 101.25 395.7 100.51 394.58 97.82 394.33 97.51 394.18 97.1 394.1 96.88 393.8 95.99 392.58 95.12 388.51 93.95 387.54 93.85 383.85 91.79 383.45 91.54 381.69 90.44 381.34 90.21 379.73 89.63 378.46 89.37 376.66 88.76 374.06 87.67 369.13 85.99 368.39 85.28 368.37 84.29 368.39 83.35 368.14 83.02 367.27 81.85 366.97 81.44 366.44 79.25 366.77 77.4 367.02 76.51 367.73 75.85 370.45 73.46 371.34 72.57 373.58 70.74 374.09 70.2 374.32 69.64 374.55 69.03 374.83 68.29 375.95 67.46 376.35 67.15 377.52 67.94 377.62 67.99 378.26 68.42 376.63 69.79 376 69.49 373.5 71.52 372.51 72.41 370.73 74.19 368.65 75.67 367.43 77.07 367.05 79.74 367.71 81.62 368.29 82 369.11 85 371.78 86.6 374.06 87.03 375.08 87.39 378.95 89.02 381.26 89.68 384.46 91.46 385.84 92.43 385.99 92.68 387.03 93.26 388.07 93.49 392.42 94.54 394.63 96.42 395.6 100.05 396.8 100.79 401.91 102.88 404.3 104.12 405.24 104.43 413.88 107.48 421.97 111.88 423.09 117.14 423.37 118.69 429.22 121.26 431.51 122.07 433.01 123.09 438.7 125.13 440.56 125.48 441.7 125.51 443.53 125.1 447.04 125 453.07 126.8 457.8 127.54 461.61 129.19 462.81 130.92 462.53 131.46 462.58 132.14 463.37 133.03 465.25 134.79 467.18 137.38 471.27 148.39 471.48 148.88 471.38 149.43 471.3 149.82 471.05 155.16 470.82 156.53 470.87 156.83 471.73 157.75 471.94 158.87 478.95 165.07 479.74 166.32 479.95 167.34 480.94 168.76 481.7 169.6 487.04 172.62 489.18 174.1 490.47 174.81 492.51 176.01 493.09 176.54 493.35 176.77 493.63 177.02 499.47 177.96 501.23 178.22 505.73 178.73 510.08 179.41 529.17 184.65 531.11 185.06 531.44 185.21 533.04 185.47 534.44 185.8 535.91 186.13 546.95 190.73 547.99 191.19 552.57 193.42 555.29 196.91 555.31 197.77 555.54 199.63 556 200.72 557.88 207.31 559.81 209.83 564.49 212.62 568.99 213.33 572.68 213.36 576.65 213.11 585.24 213.08 588.73 213.72 591.22 215.57 591.6 216.13 592.06 217.15 594.17 218.73 595.64 219.39 596.58 219.92 597.14 220.23 597.68 220.86 605.58 223.23 606.09 223.38 609.53 224.14 611.87 224.57 615.68 225.29 615.5 226.94 615.07 228.29 614.74 229.33 614.59 230.52 614.71 231.57 614.23 234.01 611.36 234.62 608.74 235.05 Z"/>
<path d="M 570.27 158.03 570.57 158 570.47 159.66 564.52 166.12 564.31 176.06 565.94 177.41 566.68 178.8 566.15 181.75 569.27 185.26 577.26 186.48 579.29 193.58 590.07 199.37 592.31 205.83 592.21 210.13 593.84 212.55 598.36 213.84 605.69 219.67 606.09 223.38 605.58 223.23 605.51 219.72 598.54 214.25 593.18 212.37 591.98 210.18 592.01 206.14 589.79 199.43 579.44 194.34 577.31 186.92 570.16 185.82 568.26 184.7 565.76 181.42 566.43 179.39 565.87 177.79 563.86 176.24 564.06 165.71 570.04 159.81 570.27 158.03 Z"/>
<g/>
<g/>
<path d="M 578.99 289.47 582.83 289.59 582.65 292.29 578.83 292.29 578.99 289.47 Z"/>
<path d="M 393.21 655.73 390.34 657.38 384.74 653.39 391.53 653.31 393.21 655.73 Z"/>
<g/>
<path d="M 415.31 617.59 412.82 623.31 408.93 622.06 415.31 617.59 Z"/>
<path d="M 612.14 443.61 613.03 445.11 612.88 450.37 611.25 450.45 610.36 450.17 609.5 449.89 609.09 450.42 603.83 451.01 602.36 449.86 601.9 448.21 600.47 445.97 597.37 445.52 595.62 444.83 595.49 444.73 594.98 444.32 593.89 443.97 588.62 439.44 589.77 438.68 590.3 437.79 590.48 434.89 593.61 434.43 595.44 434.68 596 434.56 597.14 434.68 599.43 434.74 600.45 435.22 601.08 435.07 602.33 434.28 610.59 434.18 610.72 437.02 610.62 437.81 612.48 439.8 612.14 443.61 Z"/>
<g/>
<path d="M 177.23 652.27 179.64 658.7 177.38 658.75 177.23 652.27 Z"/>
<path d="M 324.35 597.63 326.21 604.31 322.8 605.69 324.35 597.63 Z"/>
<path d="M 451.82 649.37 451.47 658.45 446.1 658.4 447.6 652.32 441.14 650.01 442.8 647.87 451.82 649.37 Z"/>
<path d="M 469.14 642.15 473.05 642.46 474.58 647.29 469.57 647.95 469.14 642.15 Z"/>
<path d="M 472.11 652.73 475.22 650.87 480.05 654.3 477.17 658.14 469.52 658.81 468.2 654.41 472.11 652.73 Z"/>
<path d="M 477.43 646.14 479.26 646.6 482.54 651.56 477.81 651 477.43 646.14 Z"/>
<g/>
<g/>
<g/>
<g/>
<path d="M 471.81 359.09 475.67 359.06 476.08 362.11 471.78 362.42 471.81 359.09 Z"/>
<path d="M 466.7 359.39 471.3 359.34 470.97 362.44 467.05 362.44 466.7 359.39 Z"/>
<g/>
<path d="M 261.44 70.68 263.02 71.07 263.96 84.42 261.37 77.5 261.44 70.68 Z"/>
<g/>
<path d="M 263.22 55.73 269.15 55.73 269.12 58.83 263.22 55.73 Z"/>
</g>
</svg>