<?xml version="1.0"?>
<svg xmlns="http://www.w3.org/2000/svg" version="1.2" baseProfile="tiny" width="800" height="603" viewBox="0 0 800 603" stroke-linecap="round" stroke-linejoin="round">
<defs>
    <style>
        :root {
            --water-color: #9FC9EA;
            --bg-color: #F2E7D3;
        }
    
        svg {
            background: var(--bg-color, #ffffff);
        }
        path, polygon, rect, circle {
            fill: var(--water-color, #3b82f6);
            stroke: none;
        }
    </style>
</defs>
<g id="water">
<path d="M 701.37 396.9 701.76 396.26 701.78 396.28 701.37 396.9 Z"/>
<path d="M 465.67 593 466.01 592.8 465.68 593 465.67 593 Z"/>
<g/>
<g/>
<g/>
<g/>
<g/>
<g/>
<g/>
<path d="M 13.3 42.21 13.81 42.78 13.3 42.25 13.3 42.21 Z"/>
<g/>
<g/>
<g/>
<g/>
<path d="M 13.3 94.56 13.48 94.54 13.3 94.59 13.3 94.56 Z M 13.3 70.08 13.53 69.95 13.3 70.11 13.3 70.08 Z" fill-rule="evenodd"/>
<g/>
<g/>
<g/>
<g/>
<g/>
<g/>
<g/>
<path d="M 757.04 593 756.84 592.97 757.39 593 757.04 593 Z"/>
<g/>
<g/>
<g/>
<g/>
<g/>
<g/>
<g/>
<g/>
<g/>
<g/>
<g/>
<g/>
<g/>
<g/>
<g/>
<g/>
<g/>
<g/>
<g/>
<g/>
<g/>
<g/>
<g/>
<g/>
<g/>
<g/>
<g/>
<g/>
<g/>
<g/>
<g/>
<g/>
<g/>
<path d="M 786.7 365.12 780.03 363.29 773.73 362.4 769.47 362.51 768.42 362.75 766.51 363.06 766.12 363.12 765.62 363.29 765.25 363.43 764.82 363.58 764 363.51 754.84 365.94 754.3 365.9 744.3 369.94 744.14 370.49 743.54 370.64 739.44 372.71 738.39 373.11 733.19 374.77 732.53 374.63 732.04 374.86 730.99 374.94 728.29 376.01 721.13 381.94 721 382.18 720.71 382.7 720.26 383.5 720.03 383.67 719.83 384.18 718.31 385.46 718.29 385.79 717.94 386.03 713.12 391.57 707.07 396.2 700.75 402.56 694.41 405.91 693.79 406.16 692.31 407 674.75 411.43 669.13 413.84 665.41 416.47 662.73 419.27 661.21 422.15 659.91 426.72 659.59 430.22 652.73 440.45 650.45 443.09 644.56 446.48 633.79 453.97 628.79 457.66 623.42 458.44 613.97 458.61 610.43 459.02 604.07 461.78 594.94 464.86 584.91 465.97 572.52 465.81 569.58 465.67 563.98 464.72 554.78 464.33 550.11 463.28 545.72 461.53 546.16 460.07 543.5 455.87 542.78 454.28 542.68 447.63 540.5 444.34 530.35 439.38 524.4 435.92 524.52 435.74 524.91 435.78 525.1 435.51 521.89 428.23 521.85 428.04 520.84 423.12 520.16 419.54 520.26 418.94 519.83 417.07 519.75 410.65 520.12 408.71 520.14 408.28 520.35 408.03 520.28 406.68 520.98 404.23 521.13 403.36 522.46 400.71 522.49 399.49 522.26 394.12 522.28 393.85 522.3 393.59 522.32 393.42 522.34 391.3 521.31 386.2 521.54 385.37 521.56 384.49 521.44 382.37 521.79 377.16 523.08 376.19 523.14 371.91 523.06 371.25 522.88 370.6 522.92 369.96 522.44 369.46 521.76 369.36 521.33 368.82 521.48 368.1 521.29 367.22 521.5 366.25 522.01 366.85 522.34 366.58 521.6 365.06 521.15 363.37 519.85 359.93 519.6 359.52 518.95 358.18 518.12 357.87 518.14 357.44 517.34 355.88 517.09 355.47 514.87 353.47 510.98 351.8 510.09 351.16 508.78 350.3 507.97 349.87 507.81 349.75 507.67 349.66 507.6 349.6 505.36 348.06 492.77 340.4 483.26 332.52 482.41 331.63 481.11 330.54 480.52 330.3 474.06 324.47 470.33 322.37 462.57 320.17 453.99 318.56 453.35 318.27 451.52 317.22 451.04 316.88 449.66 315.6 449.21 314.84 447.94 309.69 448.31 307.16 447.38 304.55 446.7 303.8 446.66 303.6 446.04 303.25 445.98 303.11 445.86 302.88 445.32 302.47 443.29 301.5 439.19 300.45 437.99 300.33 435.81 300.1 430.19 299.54 430.15 299.65 431.41 300.1 430.98 300.06 429.56 299.94 429.08 299.92 427.95 299.96 427.6 299.94 422.64 299.3 418.4 298.17 417.15 297.71 417.06 297.67 416.9 297.61 416.82 297.59 416.69 297.53 416.59 297.51 416.47 297.45 415.72 297.16 415.37 297.05 414.96 296.89 414.72 296.79 413.96 296.52 413.93 296.48 414.67 296.6 414.82 296.64 415.25 296.77 415.81 296.95 418.07 297.75 418.34 297.71 418.59 297.69 418.77 297.67 418.94 297.65 418.32 297.2 418.36 296.81 418.03 296.58 417.5 296.4 413.15 294.87 407.25 292.38 406.57 291.91 405.97 291.78 405.5 291.52 405.25 291.31 404.28 290.43 398.85 286.39 398.48 285.71 397.55 284.68 396.95 284.13 396.29 283.41 395.22 281.51 394.9 280.75 394.38 280.07 393.91 279.72 392.63 278.96 391.21 278.26 390.39 277.89 388.54 277.05 387.3 276.37 386.44 275.92 385.78 275.98 384.09 276.97 383.53 277.27 383.86 276.74 384.28 276.47 384.46 276.37 384.97 276.06 385.16 275.81 385.08 275.24 384.81 274.95 383.43 273.88 382.42 273.22 381.95 272.99 381.54 272.34 381.37 272.07 381.02 271.64 380.67 270.98 380.06 270.05 379.52 269 379.21 268.22 378.88 267.37 378.74 266.39 378.76 265.87 378.7 265.58 378.47 264.41 378.41 264.04 378.24 262.62 378.16 262.04 377.92 261.63 377.91 261.24 377.67 260.91 377.83 259.92 377.87 259.45 378.12 257.6 378.43 256.94 378.76 256.05 378.94 255.58 379.6 253.25 379.73 252.9 379.91 252.33 380.12 251.49 380.2 250.85 380.32 246.26 380.3 245.41 379.13 233.23 378.22 230.92 377.94 230.55 377.83 230.37 377.22 229.52 377.26 229.15 377.09 228.12 376.33 226.33 375.98 226.05 375.86 225.69 375.69 224.65 375.14 223.41 375.18 223.06 373.67 217.32 373.37 216.85 373.14 216.15 372.6 214.62 371.76 212.09 371.78 211.8 370.3 208.86 369.81 208.26 369.48 207.67 369.02 206.86 366.74 203.55 363.38 197.93 361.53 191.53 362.6 184.61 365.13 180.52 366.94 175.27 366.9 170.72 366.18 168.29 364.93 158.12 362.07 151.21 361.2 150.08 359.27 144.39 358.9 142.46 359.02 140.71 362.58 127.91 363.55 126.63 363.67 126.22 364.58 125.32 364.97 124.66 365.22 124.22 365.61 123.54 365.65 123.01 365.69 122.58 365.75 122.19 365.92 121.53 366.06 121.18 366.33 120.75 366.53 120.44 366.7 119.9 366.64 119.3 364.17 116.11 361.92 111.05 361.45 108.23 362.01 103.27 364.68 97.51 367.83 95.35 368.47 94.09 367.83 87.81 368.04 84.07 370.07 74.95 369.48 71.1 371.7 65.4 372.65 63.03 372.73 60.23 371.55 56.69 369.72 53.77 367.21 51.86 354.7 44.88 352.46 42.74 348.75 40.6 342.2 35.82 340.45 33.06 338.85 25.9 337.12 21.02 336.21 16.31 336.42 13.22 335.37 11.45 334.15 10 339.42 10 340.78 11.78 340.81 19.32 343.56 22.55 349.74 26.27 352.87 35.93 354.76 39.82 361.65 45.44 367.81 49.06 369.46 48.98 372.71 50.58 373.98 52.43 375.88 56.57 376.66 59.04 376.7 62.11 374.87 71.49 372.63 80.61 372.73 81.37 372.52 82.92 372.44 83.18 372.23 83.47 372.4 84.46 372.56 84.95 372.98 84.99 373.35 86.02 373.76 86.41 373.84 86.48 374.17 86.81 375.18 90.68 374.95 90.9 375.08 94.15 376.1 97.88 376.02 98.52 375.1 99.77 374.72 100.37 374.7 101.07 374.46 101.91 374.66 103.56 373.9 107.49 373.14 115.27 371.56 116.79 370.28 122.76 370.18 122.91 369.93 123.59 369.68 124.12 369.5 124.76 369.44 125.21 368.94 126.24 368.9 126.61 368.28 127.02 367.79 128.05 365.26 132.75 364 141.1 365.19 147.03 366.62 151.08 371.58 158 373.76 158.88 371.53 163.89 372.69 170.55 368.61 182.6 366.66 190.13 367.11 196.18 369.68 200.3 375.28 209.76 376.8 212.44 380.94 221.83 382.28 225.72 382.73 227.2 383.84 232.1 384.48 233.06 384.73 237.22 384.36 240.43 384.93 246.07 384.85 246.73 384.91 247.49 384.93 248.93 384.93 249.12 384.89 249.84 384.91 249.98 384.97 250.54 384.6 252.35 384.54 252.88 384.34 254.35 384.28 254.63 383.62 256.08 383.27 256.94 383.04 257.47 382.75 258.19 382.61 259.14 382.65 259.7 382.86 261.16 383 263.65 383.06 264.18 383.49 265.5 384.25 266.72 384.4 266.9 385.53 267.93 386.25 268.55 387.47 271.04 387.75 271.2 388.43 271.24 388.87 271.26 389.83 270.93 389.94 271 389.26 271.57 388.39 271.68 388.23 271.86 388.56 272.17 388.99 273.41 389.69 273.96 390.66 274.52 391.56 274.91 392.36 275.26 393.02 275.5 394.17 276.06 395.39 276.74 396.44 276.9 396.81 276.84 399.94 275.61 400.29 275.71 401.46 276.02 401.69 276.08 404.67 277.21 406.11 277.83 409.01 282.05 409.61 282.98 410.74 284.54 411.03 285.18 411.36 285.59 411.92 286.29 412.6 286.74 414.74 287.71 415.21 288.02 415.87 288.45 416.43 288.68 416.9 288.6 417.76 288.76 418.5 288.99 419.35 289.27 419.86 289.44 418.63 290.96 419.18 291.56 419.41 291.68 419.51 291.74 420.52 292.28 421.43 292.44 422.29 292.26 423.13 292.3 423.88 292.55 424.02 292.59 423.94 292.18 423.88 291.87 423.48 291.44 424.02 291.43 424.29 291.78 424.7 291.97 424.92 292.18 425.27 292.51 425.87 293.31 426.67 294.44 426.76 294.91 426.94 295.12 427.66 295.98 428.42 296.37 428.75 296.54 429.33 296.56 431 296.42 431.26 297.14 431.63 297.45 432.66 297.38 433.49 298.12 434.06 298.12 434.93 297.65 435.57 297.84 436.66 298.15 437.27 298.19 438.18 298.25 439.83 298.27 440.32 298.39 440.49 298.43 440.81 298.49 441.72 298.7 442.32 298.76 442.61 298.5 443.22 298.7 443.12 298.97 443.47 299.13 443.66 298.82 444.25 298.95 446.48 300.12 447.4 300.64 449.09 301.5 449.44 301.71 449.99 302.59 450.51 303.13 451.39 305.39 451.42 306.3 451.79 306.87 452.44 313.25 453.53 314.78 455.84 316.48 456.62 316.92 464.59 317.74 468.95 318.58 472.98 319.9 479.72 324.41 482.66 327.17 483.3 327.29 484.08 327.91 485.68 329.12 486.34 330.36 487.27 331.43 492.11 334.97 494.9 336.04 497.97 338.4 500.73 339.04 500.22 339.68 508.28 345.69 510.51 346.88 511.27 347.42 512.57 348.06 513.2 348.2 513.47 348.26 514.93 348.78 515.34 348.98 515.86 349.21 515.9 349.23 518.76 350.92 520.86 352.13 524.07 354.93 525.94 359.71 527.16 363.6 527.76 367.82 527.67 371.5 529.3 377.57 527.75 386.18 528.27 389.67 528.48 391.26 528.66 392.35 528.74 392.58 528.76 393.4 528.97 393.48 528.82 394.02 529.07 394.82 530.49 396.78 530.78 400.54 529.38 403.2 528.31 407.42 528.58 407.44 529.36 407.46 528.64 408.08 527.36 412.05 526.85 415.84 527.63 417.73 527.24 420.12 527.75 422.9 528.78 428.27 528.58 428.33 528.08 429.01 527.63 429.38 526.07 431.44 525.98 432.57 526.38 433.8 529.94 437.47 532.28 438.45 534.65 439.51 536.75 440.43 539.03 441.67 541.05 442.86 544.12 444.96 544.94 445.89 544.88 450.43 546.22 456.34 548.98 460.07 551.51 461.67 554.98 462.64 560.05 463.17 579.42 464.04 588.33 463.54 588.1 463.17 587.79 461.18 587.61 460.52 589.13 459.41 590.12 459.28 590.7 460.31 590.88 462.33 590.67 462.85 590.57 462.97 590.72 463.42 591.56 463.38 593.78 462.91 600.49 461.08 606.71 458.01 611.01 456.77 617.25 456.88 622.15 456.12 628.14 453.58 628.79 453.44 631.9 451.57 642.54 443.95 644.64 442.28 646.87 440.78 651.48 436.15 654.21 432.07 655.16 429.32 655.78 424.03 657.9 419.42 659.4 417.32 664.15 413.26 666.15 412.38 671.93 409.45 677.2 407.79 677.51 407.75 679.82 407.4 680.43 407.01 681.57 406.49 683.23 405.94 684.33 405.42 685.05 405.21 685.81 404.76 685.95 404 690.69 403.26 695.38 401.57 699.08 399.33 701.37 396.9 701.78 396.28 702.46 395.15 708.28 389.55 711.82 384.9 715.03 381.89 716.29 380.76 717.01 380.04 717.36 379.77 717.4 379.73 717.63 379.53 718.99 378.68 719.32 378.5 719.87 378.19 721.78 376.65 722.18 376.34 722.57 376.03 722.65 375.84 722.67 375.82 722.79 375.56 723.25 375.31 723.47 375.14 723.84 374.84 723.93 374.77 724.05 374.69 724.19 374.57 724.4 374.42 724.97 373.97 725.49 373.62 726.95 372.67 728.04 371.95 728.16 371.87 730.16 370.57 731.31 369.98 735.58 368.87 736.54 368.68 739.12 367.94 740.84 367.41 742.28 366.87 744.28 366.07 749.02 364.23 753.3 362.73 761.24 360.16 765.48 359.21 767.33 358.92 768.45 358.78 769.23 358.72 772.07 358.6 772.95 358.62 775.96 358.76 782.34 359.91 786.7 361.28 786.7 365.12 Z M 383.74 267.68 383.68 268.05 386.62 271.8 387.18 271.86 387.2 271.53 387.22 271.35 387.22 271.2 386.48 270.34 385.61 269.06 384.93 268.42 384.01 267.7 383.74 267.68 Z M 522.65 425.63 522.77 426.54 522.9 426.89 523.37 426.74 523.27 425.73 522.94 425.51 524.21 425.94 523.88 426.25 523.93 427.09 524.56 429.67 525.31 428.58 526.4 428.1 526.6 427.4 527.01 426.78 527.03 426.54 527.03 426.41 527.05 426.35 527.08 425.71 526.85 425.26 526.27 424.71 525.84 424.6 525.18 424.42 524.93 424.25 524.58 424.4 524.5 424.91 524.11 425.1 523.91 424.95 523.74 424.81 523.1 423.96 522.47 423.84 522.61 424.42 522.65 425.63 Z M 363.01 190.11 363.51 189.96 363.53 189.57 363.73 189.16 363.84 187.47 363.57 187.76 362.79 188.98 362.85 189.88 363.01 190.11 Z M 424.49 295.26 424.99 294.98 424.2 293.21 423.65 292.69 422.81 292.32 422.33 292.3 421.43 292.48 421.71 293.1 421.73 293.53 422.23 294.54 422.97 295.08 424.49 295.26 Z M 400.7 283.74 404.61 286.95 408.89 288.62 412.16 287.69 409.01 284.54 406.22 279.95 404.67 278.41 401.26 276.64 398.85 276.66 396.73 277.69 398.31 281.31 400.7 283.74 Z M 414.65 291.97 417.89 293.02 418.44 291.56 415.13 290.71 414.65 291.97 Z M 349.2 35.08 348.69 29.69 345.52 27.01 341.26 25.92 340.6 29.22 341.36 32.1 345.7 37.61 350.07 40.06 351.06 39.55 349.2 35.08 Z M 373.39 96.17 372.71 91.87 371.27 92.24 371.8 95.47 373.39 96.17 Z M 370.51 97.71 367.58 99.18 364.06 103.11 363.51 106.96 365.34 113.95 368.49 117.35 370.92 109.82 371.16 103.91 371.78 101.36 370.51 97.71 Z" fill-rule="evenodd"/>
<path d="M 623.61 458.75 623.42 458.44 628.79 457.66 625.62 459.82 619.86 465.19 616.22 467.7 611.28 469.56 596.5 472.21 592.22 473.88 586.68 476.84 580.71 480.51 577.61 483.32 575.94 485.96 571.29 489.64 567.35 493.8 561.14 497.44 553.69 500 550.72 502.2 546.83 509.69 541.2 513.02 530.64 518.27 527.88 520.08 527.28 522.57 530.74 525.37 531.97 526.67 532.76 528.91 531.23 533.63 525.61 539.6 524.81 539.29 521.72 542.23 521.7 543.34 521.31 544.7 520.94 545.48 520.16 546.88 519.75 547.62 518.62 549.64 517.67 551.56 516.91 553.02 516.5 554 515.03 556.91 514.56 558.08 513.78 559.75 513.37 561.21 512.4 562.9 511.72 563.84 508.08 567.82 506.95 568.87 506.2 569.63 505.3 570.47 502.52 573.19 501.59 574.2 497.15 578.89 496.31 579.71 495.36 580.64 493.92 582.06 491.53 584.3 490.42 585.64 485.38 588.38 475.87 590.95 472.47 592.14 470.73 593 465.68 593 466.01 592.8 474.32 589.22 475.56 588.89 482.14 587.24 485.83 585.83 490.87 581.48 496.16 576.19 500.55 572.28 502.67 569.07 507.05 565.72 509.95 562.24 514.89 551.08 516.46 548.14 518.41 542.54 519.48 537.33 519.28 533.03 519.81 527.04 519.48 527.08 519.89 525.56 519.4 525.33 520.16 525.07 523.16 520.35 526.89 517.76 526.68 517.39 533.37 514.77 538.97 511.75 542.51 509.48 545.62 506.32 548.26 501.44 553.59 497.48 560.63 495.37 566.08 491.52 567.97 489.23 569.82 488.37 575.94 481.99 577.34 480.73 577.93 480.36 578.37 479.87 580.75 478.06 582.13 477.17 581.74 477.15 577.24 477.93 573.1 477.56 568.59 476.2 566.63 476.31 561.3 477.83 559.86 479 559.86 479.8 562.15 482.42 567.73 486.47 567.09 488.02 561.24 484.09 557.39 480.11 559.23 477.07 563.51 475.13 567.21 474.99 567.62 475.09 567.95 474.1 568.45 473.8 568.76 473.42 569.35 473.01 569.5 471.8 569.02 469.18 570.57 466.43 570.55 466.16 569.58 465.67 572.52 465.81 571.33 466.49 570.34 467.62 569.83 468.73 569.78 469.49 570.26 472.03 569.17 473.84 568.36 474.52 568.41 475.26 571.1 476.55 576.54 477.42 580.34 477.01 581.68 476.53 583.35 475.87 584.21 475.81 589.73 472.68 594.26 470.65 599.9 469.04 609.51 467.48 613.36 466.55 616.65 464.92 623.61 458.75 Z M 524.56 522.8 522.77 525.68 522.12 529.12 522.24 540.26 528.99 533.2 530.45 529.41 529.65 527.41 524.56 522.8 Z" fill-rule="evenodd"/>
<path d="M 349.72 497.84 346.51 503.02 343.85 502.94 341.57 500.61 339.08 499.42 341.73 494.64 344.45 492.96 349.72 490.82 353.15 491.31 349.9 495.84 349.72 497.84 Z"/>
<path d="M 408.81 476.53 406.05 479.33 407.94 482.44 404.94 483 401.83 479.66 404.51 479.29 408.81 476.53 Z"/>
<path d="M 84.35 155.61 84.55 156.15 83.09 158.08 81.03 158.12 80.73 158.08 80.03 158.1 79.18 158.31 77.89 158.86 75.31 159.3 74.33 159.36 73.25 159.07 72.62 158.82 72.06 158.68 71.63 158.58 69.1 158.47 67.78 158.41 66.87 158.23 66.42 158.14 65.48 158.41 65.15 158.8 65.19 159.34 65.45 160.04 65.85 160.26 66.05 160.47 66.44 160.86 67.1 161.37 66.85 161.35 66.05 161.29 65.52 161.01 64.84 159.5 64.45 158.74 64.4 158.08 64.86 157.9 65.04 157.84 65.17 156.72 65.54 156.56 66.71 156.23 66.32 155.92 63.03 153.76 62.2 152.5 61.71 151.76 60.93 151.33 60.56 150.28 60.49 149.95 60.33 149.29 60.62 147.75 60.84 147.48 61.17 147.23 61.05 146.64 62.14 145.16 62.49 144.85 64.05 144.21 65.62 143.69 66.36 143.45 69.94 143.55 71.26 143.57 72.41 143.18 73.52 143.12 74.14 143.14 74.84 143.18 75.83 143.32 76.3 143.37 78.61 144.37 79.02 144.74 80.03 145.22 81.22 145.61 81.82 145.94 82.06 148.02 81.92 148.43 81.92 148.7 82.31 149.48 82.6 149.81 83.05 149.95 84.58 150.92 84.86 151.82 84.68 152.71 84.41 153.62 84.21 154.05 84.16 154.75 84.35 155.61 Z M 75.11 151.02 75.38 150.61 75.33 150.49 75.21 150.26 74.63 149.97 74.08 149.99 73.63 150.47 73.77 150.96 74.32 151.17 74.74 151.19 75.11 151.02 Z" fill-rule="evenodd"/>
<path d="M 114.09 128.26 113.41 128.07 112.69 127.7 112.49 127.54 112.03 126.76 111.87 126.39 111.66 125.93 111.64 125.56 110.63 124.78 110.32 124.59 110.2 124.08 110.12 123.75 110.1 123.19 110.1 122.95 109.77 122.54 109.73 122.31 109.75 122.14 109.81 122.04 110.12 121.9 110.18 121.36 109.03 120.91 107.65 120.54 106.97 120.6 105.88 120.68 103.76 121.03 103.35 121.16 101.97 121.2 101.18 121.01 100.71 120.62 100.38 120.19 97.91 117.64 97.64 117.49 95.79 118.5 93.76 119.51 93.55 120.25 93.51 120.42 93.38 120.91 93.06 121.34 92.48 122.14 92.31 122.76 91.24 123.05 90.73 122.72 90.13 122.66 89.35 123.01 88.53 122.74 89.35 121.94 90.57 120.93 95.38 118.15 97.42 117.06 97.27 115.87 97.11 115.27 97.5 113.46 98.02 112.59 98.26 111.61 98.59 109.78 99.07 109.1 99.04 108.29 99.87 106.98 100.84 106.56 101.29 106.36 101.91 105.91 102.13 105.56 101.72 104.2 101.49 103.97 99.83 104.14 102.56 103.81 101.93 103.89 102.63 105.62 102.94 105.58 105.06 105.16 106.04 105.14 106.25 104.96 107.19 104.47 108.49 104.46 111.25 104.32 112.09 103.44 112.57 102.82 113.27 102.41 113.31 101.97 115.8 100.62 116.64 100.51 117.22 100.27 117.73 99.98 118.06 99.81 118.49 99.73 118.97 99.32 119.26 98.8 119.36 98.62 120.04 98.27 120.33 98.19 120.61 98.46 120.14 99.07 120.06 99.48 120.24 99.59 121.03 99.63 121.95 99.34 122.03 98.83 122.57 99.01 123.09 99.85 122.98 100.2 122.84 100.55 122.71 100.92 123.02 102.06 123.04 102.65 123.29 103.13 123.44 103.46 124.05 103.91 125.64 104.2 126.34 104.22 125.56 104.4 125.25 104.63 125.21 104.84 125 105.84 124.9 106.28 125.08 106.75 124.86 107.78 124.63 108.19 124.77 108.58 122.94 110.21 122.36 110.48 121.29 111.3 120.86 111.71 120.24 112.68 119.71 113.75 119.71 114.32 120.22 118.03 120.24 118.36 120.18 118.89 120.12 119.08 119.87 120.48 119.96 120.85 120.04 122.54 120.35 122.89 120.59 123.26 120.8 123.81 121.68 124.78 121.99 125.03 122.69 125.25 123 125.34 122.74 125.81 122.59 126.1 122.43 126.38 122.06 126.63 121.52 127.02 121.21 127.23 119.03 128.85 118.37 129.08 114.3 129.62 113.31 129.76 114.01 129.29 115.18 129.18 115.67 129.12 115.76 128.96 115.3 128.73 115.18 128.67 114.61 128.4 114.09 128.26 Z M 91.92 122.35 92.29 121.9 93.05 121.01 93.16 120.64 93.08 120.37 92.97 119.94 92.58 120.02 90.89 120.97 90.07 121.69 89.99 121.9 90.32 122.45 91.45 122.56 91.92 122.35 Z" fill-rule="evenodd"/>
<path d="M 256.71 177.29 256.91 177.49 256.79 179.9 256.95 180.76 256.62 181.9 255.78 182.2 255.68 182.37 256.17 183.05 257.18 183.13 258.33 183.93 258.8 184.55 259.44 184.88 259.96 185.04 260.95 184.74 261.85 184.2 262.53 184.08 263.87 184.45 264.2 184.78 265.08 184.84 266.28 184.43 266.77 184.35 267.02 184.39 267.41 184.08 267.92 184.84 267.63 184.96 266.87 185.27 266.75 185.87 266.07 186.05 265.41 185.93 264.96 185.99 264.05 186.11 262.98 186.11 262.63 186.28 261.91 187.17 261.73 187.39 261.4 187.6 261.11 187.49 261.01 186.88 260.97 186.63 260.39 186.46 259.88 186.65 259.4 187.02 259.36 187.45 259.57 188.05 259.85 188.4 260.08 189.8 260.02 190.33 257.57 191.86 256.33 190.73 253.5 186.86 253.68 185.27 254.05 184.72 254.3 184.49 254.92 183.91 255.98 183.19 255.51 182.41 254.67 182.43 253.27 180.66 253.7 180.35 253.82 180.25 253.97 180.15 253.8 179.71 253.49 179.63 253.25 179.55 253.12 179.51 252.84 179.22 251.85 178.73 251.42 178.36 251.03 178.03 249.83 176.5 249.15 175.31 249.17 174.69 249.11 174.14 249.19 173.17 248.97 172.84 248.86 172.28 248.93 171.93 249.01 171.62 248.37 170.14 248.31 169.79 248.21 169.22 248.62 168.35 249.5 167.61 249.83 167.32 251.52 166.29 255.18 166.27 255.64 166.32 256.4 166.25 257.12 165.82 257.59 165.1 257.73 164.89 257.45 164.67 257.06 163.62 257.22 162.86 257.41 162.3 257.26 161.89 256.89 161.56 256.5 161.48 256.15 161.66 256.01 161.89 255.88 162.08 255.82 162.2 252.88 161.91 253.27 159.89 254.15 156.66 254.34 155.67 254.38 155.02 254.81 153.9 255.02 152.53 255.61 149.73 255.8 148.86 256.68 147.93 256.85 147.85 259.32 148.37 259.5 148.53 260.06 148.31 260.02 147.83 259.32 145.51 259.32 145.03 259.42 144.79 259.55 144.52 261.17 143.28 263.74 145.71 264.51 146.54 265.47 147.89 265.35 148.45 265.04 148.78 264.63 149.21 264.44 149.71 264.46 152.07 264.11 152.36 263.48 153.33 263.7 153.66 264.24 153.76 266.21 153.7 266.34 153.68 266.79 153.66 267.59 153.78 268.01 153.7 268.29 153.66 268.75 153.72 269.03 153.51 268.68 153.2 268.56 152.87 269.18 153.27 269.94 153.74 270.64 154.58 270.31 157.59 269.12 158.02 268.6 158.41 267.47 159.28 266.65 159.96 265.99 160.86 265.72 161.23 265.7 161.97 265.56 163.23 265.47 163.52 265.93 163.91 261.67 164.4 260.93 164.2 259.87 164.13 259.26 164.17 258.7 164.46 258 164.83 257.86 165.04 257.59 165.49 257.47 165.66 255.96 166.56 255.72 166.75 255.9 167.34 255.94 167.41 256.15 168.11 256.5 173.21 256.62 174.09 256.62 174.16 256.66 174.47 256.58 175.97 256.71 177.29 Z M 258.37 156.29 259.26 155.78 260.27 153.95 260.53 153.31 260.57 152.88 260.27 152.5 260.2 151.37 260.12 150.76 259.88 150.2 259.63 149.64 259.26 149.44 258.81 150.12 258.91 150.61 259.05 154.05 258.8 154.4 257.69 156.02 257.84 156.42 258.37 156.29 Z" fill-rule="evenodd"/>
<path d="M 208.15 405.73 207.51 405.91 209.04 402.25 210.4 400.54 209.94 398.16 202.86 394.2 200.8 394.61 197.84 391.94 196.23 391.79 195.64 392.15 195.45 394 194.61 394.99 191.77 396.06 188.97 394.78 182.18 394.76 179.64 392.84 176.37 392.82 176.45 393.79 174.15 394.37 172.79 393.91 171.51 392.37 168.67 392.02 167.23 391.53 163.76 389.78 162.52 388.79 159.35 389.06 157.77 387.27 156.39 383.77 158.4 380.74 155.3 378.35 154.74 376.77 151.59 375.43 151.9 371.6 149.7 369.3 151.02 367.96 148.77 364.54 145.56 366.83 140.91 365.26 140.15 366.79 136.05 368.1 131.61 367.96 129.2 367.12 127.12 364.77 120.84 364.13 122.16 361.39 118.85 361.23 119.11 359.38 122.57 360.63 123.35 364.26 126.44 364.17 129.1 365.92 129.53 367.05 132.24 367.59 136.67 367.59 139.24 366.66 141.47 364.75 144.41 365.94 146.88 364.44 149.7 363.68 151.61 367.38 150.23 369.75 152.09 371.01 152.07 375.41 155.07 376.5 155.26 377.96 159 380.49 156.74 384.16 157.05 385.39 162.83 387.04 163.51 389.08 167.63 391.57 171.25 392.1 173.14 393.85 175.98 393.56 175.92 392.58 177.71 392.29 179.85 392.68 182.38 394.59 188.97 394.47 191.27 395.34 194.36 394.9 194.98 392.95 195.49 391.88 196.21 391.59 199.84 391.47 200.66 393.94 202.68 393.89 210.09 397.97 210.75 400.69 209.33 402.52 208.15 405.73 Z"/>
<path d="M 319.71 353.06 317.83 352.34 313.25 351.39 311.6 351.29 309.27 350.1 309.66 349.09 308.96 346.7 308.84 346.25 309.73 341.26 312.88 340.4 313.08 338.22 315.06 338.01 316.15 338.92 315.92 339.68 315.1 340.48 315.43 341.24 316.11 340.94 318.25 342.31 318.97 342.81 319.61 342.97 320.31 342.91 321.33 342.36 322.4 341.33 322.73 340.91 323.74 338.43 324.32 337.29 324.54 334.95 323.33 331.59 327.08 333.38 327.72 336.12 325.99 338.36 324.79 340.22 324.22 342.69 325.9 344.09 327.32 344.44 327.84 347.09 326.73 347.77 325.96 350.01 323.06 352.07 319.71 353.06 Z M 315.96 345.83 316.62 345.81 316.41 344.25 315.86 345.13 315.96 345.83 Z M 319.98 346 316.58 347.42 320.18 348.45 322.26 347.77 322.86 345.94 319.98 346 Z" fill-rule="evenodd"/>
<path d="M 358.96 315.27 360.77 317.51 363.43 317.33 364.74 318.54 363.32 319.86 360.4 319.32 358.79 316.88 358.96 315.27 Z"/>
<path d="M 653.1 141.78 655.7 142.6 659.23 144.81 659.15 147.87 650.75 145.69 651.74 144.54 651.52 142.27 653.1 141.78 Z"/>
<path d="M 155.58 209.25 151.98 209.83 149.39 204.84 146.94 202.79 144.63 202.13 138.64 202.23 142.04 200.26 147.87 201.59 147.99 202.6 151.08 204.99 151.61 207.27 154.31 207.64 155.58 209.25 Z"/>
<path d="M 189.24 306.87 192.67 304.73 194.13 307.18 189.24 306.87 Z"/>
<path d="M 201.94 430.1 202.04 432.44 199.3 432.45 200.89 434.92 199.49 435.68 197.96 432.51 197.72 430 201.94 430.1 Z"/>
<path d="M 650.75 178.99 644.97 179.92 643.14 178.99 644.21 176.28 646.49 175.43 651.25 176.71 650.75 178.99 Z"/>
<path d="M 413.26 368.54 418.61 371.5 419.2 372.9 415.91 373.52 413.26 371.99 412.41 370.14 413.26 368.54 Z"/>
<path d="M 782.38 532.39 784.09 531.3 785.47 527.51 786.7 527.39 786.7 533.85 781.51 534.57 782.38 532.39 Z"/>
<path d="M 218.85 546.29 219.22 546.16 220.77 545.26 222.97 545.83 223.16 545.69 225.65 546.16 226.84 546.55 231.27 547.6 232.3 548.14 232.6 549.89 232.36 551.25 231.94 552.26 231.12 553.12 231.53 553.49 229.89 555.57 225.83 556.06 223.26 555.4 221.28 554.44 219.78 554.19 218.28 554.85 214.88 554.21 213.89 552.73 210.83 550.84 210.52 547.79 210.62 547.4 210.35 546.97 209.68 546.57 209.94 545.94 211.05 545.71 210.74 545.42 211.14 544 212.29 543.78 213.87 543.9 214.74 545.79 215.87 546.25 218.85 546.29 Z M 227.7 553.68 227.09 553.55 226.35 554.66 227.58 554.13 227.7 553.68 Z M 219.08 547.62 218.79 548.06 218.67 548.36 218.46 548.84 219.02 549.56 218.77 549.6 218.38 549.66 219 550.63 219.25 550.22 220.13 549.78 220.93 549.23 219.2 548.26 219.55 547.79 219.08 547.62 Z" fill-rule="evenodd"/>
<path d="M 687.16 298.52 687.19 297.55 690.4 295.94 692.27 296.91 690.62 299.03 687.16 298.52 Z"/>
<g/>
<path d="M 344.8 480.34 345.21 479.08 347.86 476.78 351.69 478.14 352.25 480.01 351.06 482.98 346.49 481.99 344.8 480.34 Z"/>
<path d="M 400.53 535.89 406.63 535.69 406.92 538.84 404.53 538.94 403.68 536.39 401.5 537.6 400.53 535.89 Z"/>
<path d="M 194.55 522.27 197.51 520.99 200.1 519.03 201.46 521.28 194.55 522.27 Z"/>
<path d="M 118.41 454.67 119.13 456.55 116.19 457.08 116.42 455 118.41 454.67 Z"/>
<path d="M 225.91 237.2 227.73 236.19 230.28 237.08 230.05 240.35 225.73 239.03 225.91 237.2 Z"/>
<path d="M 737.76 222.59 734.17 221.54 734.98 219.56 734.42 217.19 736.79 216.06 739.36 216.41 739.84 219.99 737.76 222.59 Z"/>
<path d="M 738.46 111.22 742.02 110.8 745.02 108.85 745.56 112.37 739.73 112.2 738.46 111.22 Z"/>
<path d="M 13.3 306.45 17.68 308.05 15.87 309.47 16.63 310.87 14.41 312.1 13.3 310.19 14.7 307.16 13.3 306.45 Z"/>
<path d="M 482.25 167.53 483.11 167.47 485.19 166.67 489.35 167.78 489.02 169.49 488.71 169.61 489.08 170.16 490.42 171.58 488.32 172.63 487.82 173.05 487.41 173.4 487.19 173.58 486.82 173.83 486.16 174.3 484.16 175.43 482.06 174.55 481.42 174.57 481.09 175.25 481.61 176.26 481.22 176.73 480.29 177.26 479.57 177.29 478.3 177.61 477.8 177.64 474.22 176.54 473.11 175.52 472.14 175.37 471.91 175.27 471.17 174.67 471.19 174.2 471.59 173.74 472.02 172.8 472.22 172.63 472.2 172.45 472.06 170.72 472.18 170.04 473.73 169.34 474.36 169.26 481.03 168.62 481.11 167.9 482.25 167.53 Z M 482.89 169.14 482.17 169.18 482.47 170.29 482.27 171.01 482.41 171.4 483.3 172.22 483.46 171.81 483.24 170.9 483.28 170.58 484.78 170.8 485.33 170.78 485.03 170.39 483.34 169.44 482.89 169.14 Z M 481.4 172.74 481.12 172.72 480.37 172.65 479.7 172.96 479.35 173.44 479.34 173.81 479.61 173.85 479.82 173.89 480.11 173.81 480.99 173.6 481.22 173.35 481.4 172.74 Z" fill-rule="evenodd"/>
<path d="M 496.53 60.58 495.96 56.75 500.07 57 503.94 56.16 504.64 57.97 498.16 57.43 496.53 60.58 Z"/>
<path d="M 462.03 141.86 464.28 141.55 465.56 142.79 463.54 145.01 463.11 147.98 460.82 146.56 459.11 142.71 462.03 141.86 Z"/>
<path d="M 520.96 107.88 521.05 107.74 521.17 107.72 521.35 107.7 521.68 107.65 521.77 107.63 522.07 107.59 522.12 107.57 522.4 107.53 522.55 107.51 522.69 107.49 522.32 107.14 522.28 107.06 522.22 106.94 522.14 106.79 521.99 106.52 521.6 106.36 521.37 106.26 520.26 106.09 519.89 106.21 518.97 106.5 518.66 106.63 517.36 106.83 516.43 107.14 516.17 107.24 515.88 107.37 515.78 107.41 515.49 107.59 514.83 108.01 514.31 108.54 514.19 108.6 513.45 108.46 513 108.21 512.94 108.17 512.61 107.98 513.02 107.88 512.87 107.33 513.02 107.26 514.97 105.97 515.65 105.8 516.02 105.12 516.35 104.47 516.43 104.07 516.17 103.74 515.51 103.42 513.31 102.53 512.19 99.52 511.86 99.13 510.88 98.8 509.93 98.54 509.15 98.43 508.16 98.37 507.09 98.17 506.56 97.86 506.2 97.65 505.81 97.41 505.4 95.1 505.22 94.77 504.02 94.15 504.11 93.8 504.89 93.84 505.28 93.68 505.88 93.68 506.55 93.66 507.11 93.72 507.87 93.49 511.37 92.47 511.51 92.45 511.64 92.18 514.44 91.62 516.21 92.9 515.86 92.94 515.53 93.19 515.69 93.64 515.61 94.24 515.14 94.59 515.39 94.89 517.83 95.74 518.66 96.09 519.85 95.76 520.04 95 519.89 94.69 519.28 94.26 517.98 93.89 518.35 93.17 520.06 93.99 520.12 94.09 521.39 94.63 522.14 95.12 522.4 94.98 522.51 94.91 522.59 94.87 522.77 94.77 523.04 94.54 523.27 94.34 523.64 94.24 523.62 93.99 523.56 93.49 521.83 91.89 523.68 90.92 524.11 90.74 524.38 89.77 524.23 88.76 523.21 87.75 522.9 87.03 523.43 86.97 523.45 87.24 524.81 89.19 525.63 92.88 524.24 93.8 524.23 94.03 523.8 94.34 523.66 94.38 523.6 94.65 522.71 95.28 520.37 96.01 518.88 96.5 518.57 96.79 518.37 97.69 518.18 98.35 517.63 99.81 517.96 100.55 518.25 100.78 518.53 100.99 518.72 101.89 518.9 102.26 519.67 102.59 519.75 102.76 520.37 103.39 520.9 103.7 521.48 103.66 521.52 103.76 521.56 103.85 522.2 104.16 522.22 104.61 522.24 104.94 522.26 105.35 522.75 105.64 522.75 106.09 523.39 106.42 523.47 106.61 523.58 106.87 524.01 106.83 525.04 109.41 523.1 110.54 525.66 112.84 530.18 115.06 531.15 115.58 531.52 115.95 531.75 117.49 530.27 119.92 534.63 124.04 534.53 125.87 531.58 127.89 531.07 128.11 530.22 128.28 529.03 128.61 528.13 128.81 524.11 128.98 523.29 127.93 523.14 126.84 522.84 125.73 523.04 125.17 522.22 122.47 522.14 122.21 521.93 121.61 521.46 120.48 521.19 119.08 521.46 118.56 521.56 117.84 519.54 117.19 519.19 117.02 517.34 115.58 517.48 115.29 517.57 115.07 517.67 114.86 517.69 114.82 517.81 114.59 517.94 114.3 518.29 113.93 517.81 113.23 517.79 113.11 517.38 111.34 517.34 111.15 517.26 110.87 517.22 110.7 517.11 110.25 517.48 109.69 518.88 108.71 520.43 108.15 520.96 107.88 Z"/>
<path d="M 13.3 24.75 13.57 24.75 14.97 24.87 17.23 24.65 21.22 24.5 21.76 23.99 21.61 23.74 20.42 23.54 19.19 23.51 17.72 23.04 17.31 23.06 17.17 22.44 18.09 21.64 18.73 21.25 20.13 20.43 21.49 19.75 21.24 20.18 21.02 20.32 20.75 20.96 20.73 21.15 20.19 21.93 19.58 22.11 19.23 22.42 19.25 22.67 20.63 22.96 20.85 22.92 21.16 22.55 22.79 22.98 22.4 23.43 22.58 24.15 22.38 25.94 22.15 26.75 21 29.24 20.75 29.67 20.85 30.18 19.91 30.16 20.11 30.04 19.93 29.87 19.14 30.2 19.06 30.24 18.3 30.55 17.7 30.94 17.21 31.54 17.04 31.77 16.98 32.06 16.94 33.56 17.29 33.85 18.01 34.13 18.84 34.26 21.55 35.1 20.36 35.25 19.33 35.62 18.84 35.8 18.61 35.27 17.93 34.57 17.15 34.16 16.67 34.32 14.92 37.53 14.57 38.77 14.45 39.01 13.67 39.79 13.3 40.55 13.3 24.75 Z M 13.3 42.25 13.81 42.78 14.14 42.39 16.28 39.63 16.41 39.05 16.51 38.66 16.63 38.21 18.36 36.46 20.98 37.9 21.18 38.5 21.65 41.11 21.51 41.52 21.98 41.94 22.46 43.03 22.73 43.97 22.83 44.47 22.83 45.52 22.72 45.97 23.8 47.7 21.82 49.86 21.24 50.11 20.79 51.79 20.77 51.8 20.48 51.96 20.09 51.82 19.64 51.67 19.06 51.45 18.81 50.79 19.16 49.94 19.99 49.9 20.24 49.59 19.66 49.43 18.92 49.26 18.46 49.14 17.7 48.81 16.24 48.62 15.42 48.63 14.66 48.93 14.41 49.32 13.3 48.23 13.3 42.25 Z" fill-rule="evenodd"/>
<path d="M 428.75 108.25 428.98 106.87 430.21 104.82 432.48 103.04 434.81 102.3 437.54 104.49 439.79 104.82 440.61 104.75 434.43 117.21 433.67 117.8 431.2 115.09 427.02 112.22 426.61 110.56 428.75 108.25 Z M 437.36 106.03 436.99 106.48 438.37 106.91 439.17 105.91 438.28 105.72 437.36 106.03 Z" fill-rule="evenodd"/>
<path d="M 541.77 99.36 541.67 101.42 543.79 103.19 546.4 104.09 547.93 105.8 547.84 109.14 546.92 110.29 541.75 109.28 540.43 106.69 537.61 105.14 537.04 99.18 538.46 98.29 536.63 96.46 537.08 93.84 539.53 93.89 541.03 96.17 541.77 99.36 Z"/>
<path d="M 377.05 19.32 376.35 20.59 380.57 21.68 381.21 23.53 376.04 26.29 373.92 22.98 376.15 21.54 376.17 19.91 377.05 19.32 Z"/>
<path d="M 580.12 183.75 580.03 183.81 579.83 183.95 579.36 183.95 578.24 183.93 577.75 183.97 575.71 182.14 576.21 182.45 576.53 182.14 575.18 180.58 573.72 179.57 572.32 178.42 571.7 176.13 572.67 173.62 572.56 171.91 571 168.76 571.57 167.28 574.29 165.64 575.07 165.41 577.69 165.99 578.65 165.96 584.83 165.94 587.71 163.62 588.97 164.07 589.67 164.61 589.56 165.39 589.6 171.03 592.01 169.57 592.26 169.09 593.93 168.64 595.14 169.55 595.2 169.71 597.92 172.28 598.15 175.49 596.31 177.8 596.54 178.81 597.41 180.27 592.96 183.32 588.99 182.08 588.53 181.53 588.29 181.26 586.54 180.27 585.16 179.86 584.48 178.58 584.31 178.15 583.45 177.76 582.44 177.78 581.87 178.31 581.64 179.08 581.76 179.61 582.19 179.94 582.5 180.19 582.69 179.74 583.49 179.76 583.7 180.43 583.76 180.93 582.55 182.22 582.4 182.78 581.82 183.28 580.98 183.67 580.12 183.75 Z M 593.5 170.93 594.38 170.82 594.92 170.37 594.98 169.92 594.21 169.05 593.17 168.97 592.38 169.71 593.08 170.88 593.5 170.93 Z" fill-rule="evenodd"/>
<path d="M 515.45 146.02 513.24 146.21 511.27 143.35 512.07 141.41 515.43 141.58 516.68 143.28 515.45 146.02 Z"/>
<path d="M 238.43 509.71 240.92 511.01 241.41 513.44 244.21 515.87 241.45 517.94 236.33 513.95 236.58 510.02 238.43 509.71 Z"/>
<path d="M 620.6 231.19 619.59 228.87 616.28 230.1 614.45 228.54 618.89 227.09 622.95 227.69 620.6 231.19 Z"/>
<path d="M 78.09 435.02 78.5 435.88 77.89 436.75 76.75 437.3 76.07 437.67 75.42 438 75.05 438.19 74.14 438.68 73.3 439.07 70.23 438.68 69.61 438.25 69.12 437.47 69.1 437.01 68.32 436.46 69.76 435.8 70.78 435.55 71.98 435.27 74.2 434.65 74.06 434.5 68.56 435.78 67.96 435.88 66.89 432.98 67.97 432.67 68.19 432.44 68.19 431.7 68.31 430.41 69.26 429.73 70.85 428.78 71.28 428.7 71.73 428.45 72.39 428.08 72.7 427.69 73.03 427.46 73.54 427.11 74.26 426.72 75 426.23 75.33 426.04 76.3 425.47 76.75 425.16 77.5 424.81 78.07 424.75 79.43 424.89 80.83 425.98 81.43 426.79 81.71 427.22 81.88 427.51 82.06 427.77 82.48 428.47 82.45 429.25 82.43 429.63 82.52 430.16 82.46 430.7 82.45 430.94 82.25 431.21 80.38 432.71 79.7 432.94 79.31 433.08 78.54 433.27 78.5 433.27 77.95 433.41 77.52 433.52 77.31 433.66 76.14 433.97 75.56 434.13 75.03 434.26 75.13 434.5 75.58 434.38 77.68 434.4 78.09 435.02 Z M 77.39 437.8 78.13 437.43 79.18 437.69 79.18 438.17 79.37 438.66 79.47 439.13 79.49 439.28 79.57 439.67 79.66 440.14 79.99 440.9 76.86 441.81 76.12 440.93 75.5 440.55 75.03 440.27 74 440.08 76.49 438.23 76.96 438 77.39 437.8 Z" fill-rule="evenodd"/>
<path d="M 52.61 433.54 55.45 432.34 56.48 434.69 55.68 437.59 53.97 438.7 52.2 437.38 52.61 433.54 Z"/>
<path d="M 320.06 552.63 316.25 549.31 316.27 544.91 319.79 546.7 321.03 549.44 320.06 552.63 Z"/>
<path d="M 89.64 574.09 88.73 574.79 87.46 573.83 88.51 573.04 88.86 572.65 89.33 571.52 90.01 570.26 90.44 569.48 91.72 566.74 93.59 566.33 94.19 566.21 97.99 566.04 99.46 566.19 100.2 565.76 99.74 566.33 99.72 566.87 99.99 567.26 100.63 567.45 102.42 566.95 103.51 566.83 104.4 567.18 104.71 567.42 104.01 569.56 103.8 569.73 104.01 569.85 104.79 570.26 105.38 570.16 105.84 569.93 106.27 570.57 105.67 570.68 105.84 570.96 106.33 572.47 106.72 573.21 107.22 574.77 106.82 574.75 105.26 574.42 103.61 571.33 103.14 570.63 102.54 570.06 101.33 569.59 99.56 568.54 98.94 568.58 96.6 568.99 95.92 569.11 93.55 569.52 92.56 569.48 92.33 569.73 91.47 571.48 90.77 572.45 90.46 572.82 90.28 573.21 90.09 573.62 89.64 574.09 Z M 90.52 576.48 89.08 575.66 90.89 572.76 91.7 571.7 92.34 570.39 92.58 570.06 92.83 569.71 94.13 569.69 99.06 569.05 99.44 569.22 99.64 569.09 102.91 570.92 103.96 572.75 105.06 574.67 105.67 575 100.94 577.16 100.28 578.97 99.62 579.46 94.66 578.33 93.18 577.72 93.06 577.37 92.36 577.18 90.52 576.48 Z" fill-rule="evenodd"/>
<g/>
<path d="M 13.3 70.11 13.53 69.95 14.29 69.19 14.55 68.84 15.17 68.22 15.11 68.1 14.6 67.91 13.9 67.64 13.3 67.33 13.3 57.05 15.46 56.55 18.3 57.33 19.72 59.12 19.76 60.07 19.84 60.4 19.95 60.85 20.13 61.14 20.6 61.92 20.96 62.5 21.04 62.77 21.14 63.22 20.98 63.51 19.84 64.72 18.59 65.4 18.22 65.83 18.22 66.57 18.38 67.25 18.83 67.85 19 68.06 19.06 68.14 19.37 68.55 20.15 68.98 20.42 69.13 20.87 69.37 21.7 69.95 21.94 70.2 22.48 71.24 22.64 71.68 22.23 72.83 22.09 73.32 19.41 75.75 19.08 76.1 18.73 76.29 18.03 76.68 17.79 77.07 17.64 77.87 17.6 78.65 17.56 78.88 17.11 79.79 16.88 80.12 14.82 81.87 14.66 82.17 14.74 82.26 14.97 82.59 15.15 82.85 15.34 83.53 15.58 84.4 16 84.73 16.3 84.87 20.6 86.48 21.04 86.78 21.37 87.15 21.8 87.4 22.6 87.73 23.78 88.12 23.86 88.14 24.41 88.31 24.76 88.51 25.11 88.7 25.59 89.15 25.69 89.3 25.81 89.5 25.89 89.62 26.12 89.97 26.82 90.04 26.7 90.22 26.51 90.49 26.53 90.8 25.87 90.82 25.65 90.94 25.05 91.25 24.35 91.44 23.03 91.68 22.7 91.87 21.86 92.51 21.57 92.63 20.95 92.88 20.58 93.37 20.69 93.52 20.67 93.84 20.28 93.95 19.54 94.42 19.1 94.63 18.55 94.91 17.83 95.24 17.52 95.61 16.71 95.98 16.35 96.05 15.03 95.82 14.74 95.7 14.16 95.64 14.04 95.63 13.69 95.59 13.3 95.46 13.3 94.59 13.48 94.54 14.1 93.84 14.06 92.92 14.25 90.14 14.25 89.79 13.81 89.38 13.46 89.27 13.3 89.24 13.3 70.11 Z"/>
<path d="M 324.22 371.42 324.19 371.79 323.31 378.75 323.27 379.03 323.23 379.24 323.19 379.36 323.13 379.59 321.97 381.65 321.75 381.9 319.73 383.34 318.99 383.81 313.94 385.81 310.08 386.07 307.46 385.56 306.16 384.8 303 383.03 302.87 382.72 302.65 382.55 301.74 382.35 301.04 382.37 300.34 382.64 298.9 382.97 298.8 383.13 294.54 381.9 294.41 381.07 294.7 379.82 294.72 378.95 294.72 378.19 294.62 377.16 294.15 376.4 293.84 375.99 293.14 374.59 292.95 373.58 292.97 372.24 293.14 370.68 293.26 369.96 293.49 368.62 293.94 367.24 294.49 365.8 296.51 363 296.9 362.55 297.81 361.97 298.28 361.54 298.69 361.07 298.9 360.98 301.23 359.05 301.66 358.9 302.46 358.57 302.6 358.49 305.46 357.28 305.92 357.13 305.98 357.11 306.37 356.99 306.43 356.97 306.72 356.87 307.3 356.56 307.79 356.35 308.37 356.11 309.15 355.94 309.29 355.92 309.52 355.9 314.4 356.04 315.9 356.64 316.48 356.89 316.99 357.03 317.69 357.22 318.04 357.65 318.66 358.45 318.91 359.91 322.16 366.58 322.69 367.38 323.48 368.29 323.82 369.17 324.13 370 324.26 370.8 324.22 371.42 Z"/>
<path d="M 61.73 206.94 59.01 204.29 61.69 203.07 61.73 206.94 Z"/>
<path d="M 164.35 490.32 164.78 491.6 161.08 494.01 162.42 495.49 160.19 496.54 159.84 492.18 161.74 488.7 164.35 490.32 Z"/>
<path d="M 682.7 149.58 683.01 149.4 683.34 149 683.44 148.86 683.89 147.89 684.08 147.48 683.91 146.64 682.8 146.06 682.45 146.16 682.08 146.27 679.88 146.88 678.4 145.05 680 145.22 680.37 145.36 680.95 145.3 680.91 144.89 680.66 144.87 678.42 144.07 678.77 143.74 680.7 144.17 681.01 144.46 683.5 144.35 685.05 143.9 685.42 143.51 686.03 142.56 686.01 141.23 686.92 140.98 687.33 141.16 687.72 141.1 688.46 141.18 689.35 141.43 692.33 141.62 696.8 144.91 701.28 145.71 703.16 146.76 701.08 152.44 698.22 155.16 694.76 157.22 693.2 157.03 689.06 158.1 683.21 154.6 682.7 149.58 Z"/>
<path d="M 281.05 514.8 278.46 511.46 281.55 511.52 280.38 513.44 282.15 516.4 282 518.31 280.25 521.3 282.74 523.97 279.28 523.85 281.82 517.04 281.05 514.8 Z"/>
<path d="M 537.98 559.71 541.28 558.1 543.83 559.89 542.97 561.87 539.98 562.81 537.18 565.24 536.71 562.16 537.98 559.71 Z"/>
<path d="M 445.92 591.09 445.92 591.79 448.08 592.14 449.4 592.06 450.96 592.47 451.58 593 438.94 593 442.19 592.02 443.18 591.42 443.08 590.33 443.26 590.04 443.61 589.8 443.98 589.53 444.7 589.8 445.65 589.02 445.65 588.54 446.47 587.59 447.03 587.31 448.51 585.68 452.9 585.35 453.21 585.04 457.01 584.84 458.41 584.73 459.94 583.09 457.2 582.18 454.75 583.13 453.93 583.48 453.04 583.75 451.78 583.89 451.54 583.64 451.91 583 451.56 582.2 450.67 581.85 449.32 583.31 448.33 583.95 447.63 585.02 445.92 582.88 446.97 581.69 447.38 581.36 448.47 580.82 452.42 576.36 453.18 575.49 457.57 574.63 457.79 574.32 459.59 572.71 461.19 571.58 462.88 568.97 462.82 568.25 462.53 567.9 461.52 567.26 461.6 566.52 465.7 562.42 466.93 561.78 468.21 561.72 471.17 560.01 470.8 559.01 473.29 556.27 474.04 555.42 474.04 554.81 474.03 553.74 475.74 550.75 476.42 549.08 480.99 547.13 485.11 543.86 492.48 542.79 495.44 543.55 495.81 542.83 497.35 545.9 497.35 547.36 497.29 548.88 500.05 549.23 501.06 548.39 501.68 548.57 503.47 549.66 507.42 549.5 508.47 550.84 508.22 553.55 506.47 556.64 504.74 557.69 502.09 562.22 500.11 563.78 494.12 564.3 493.05 563.78 489.9 563.51 488.83 562.48 491.88 556.6 485.81 558.1 484.88 558.86 482.53 559.23 478.36 558.04 476.69 558.26 474.24 558.88 473.21 559.21 472.94 559.71 472.8 559.95 472.57 560.38 472.94 561.13 476.9 563.62 478.21 563.93 478.73 564.4 478.71 565.04 479.1 565.1 480.04 564.83 480.93 566.5 477.2 570.74 477.27 573.43 478.34 575.95 477 579.07 476.3 580.19 475.87 580.54 474.43 581.03 473.07 581.24 472.82 581.67 472.59 582.06 472.26 582.61 472.59 583.19 474.47 584.92 471.11 587.29 470.06 587.68 467.7 588.31 464.24 588.52 462.18 588.48 459.98 587.6 459.32 586.98 457.32 586.54 456.5 586.42 456.29 586.61 454.79 586.83 453.93 586.34 452.3 586.38 451.09 586.89 447.07 588.99 446.68 589.37 445.84 590.04 445.92 591.09 Z M 461.87 572.98 460.9 573.91 458.35 575.7 458.64 577.35 458.43 579.82 459.48 581.91 463.27 581.15 466.85 577.98 468.58 577.12 471.63 575.31 472.74 574.17 472.41 572.22 468.11 573.33 463.97 571.27 462.45 571.62 461.87 572.98 Z" fill-rule="evenodd"/>
<path d="M 146.78 355.43 146.34 354.46 150.36 353.24 153.84 355.61 151.94 357.22 146.78 355.43 Z"/>
<path d="M 547.6 555.67 547.1 558.12 545 560.01 541.52 558.08 541.79 556.17 546.05 556.27 547.6 555.67 Z"/>
<path d="M 504.25 574.24 506.29 574.48 504.85 577.74 501.26 577.61 504.25 574.24 Z"/>
<path d="M 512.67 563.18 515.94 567.79 511.29 569.38 508.55 571.42 507.56 569.71 512.01 565.86 512.67 563.18 Z"/>
<path d="M 560.83 498.64 562.35 498.37 565.52 498.41 565.65 498.89 565.89 499.01 566.66 498.99 568.71 499.13 569.21 500.16 568.53 501.4 567.79 501.87 567.81 502.12 568.78 502.07 571.08 503.7 572.52 505.9 572.32 507.01 572.38 507.59 572.85 508.19 572.95 508.66 572.62 510.04 571.6 511.85 570.55 512.82 569.58 513.48 567.05 512.45 566.45 512.02 565.75 512.02 564.8 512.63 564.04 513.25 563.28 513.68 562.95 514.51 562.93 515.27 562.72 515.6 562.37 516.15 562.33 516.79 562.74 517.06 563.42 517.08 564.14 516.65 565.07 517.57 564.84 518.62 564.47 519.86 563.86 520.39 563.4 521.55 560.93 523.19 560.6 524.04 559.92 524.69 558.2 526.63 552.25 527.21 549.63 526.1 548.58 526.05 546.92 526.12 546.07 526.14 545.48 527.17 545.64 528.58 545.99 529.43 546.48 529.94 547.08 530.09 547.99 530.5 549.43 530.95 549.65 531.03 550.27 531.32 550.56 531.8 551.34 532.11 552.66 531.98 553.36 531.73 553.65 531.73 554.68 531.76 554.9 531.45 555.25 531.34 555.79 531.16 555.64 530.85 555.75 530.54 555.93 530.71 556.39 530.58 556.88 530.15 557.27 530.46 557.04 530.56 556.71 530.7 556.36 530.85 556.26 531.12 555.25 532.06 554.74 532 554.04 532.19 553.59 532.08 553.34 532.72 553.67 532.72 554.12 533.61 553.57 533.36 553.3 533.07 552.58 532.72 551.86 532.72 551.51 533.01 550.44 532.76 549.94 532.6 549.63 532.58 549.12 532.08 548.79 531.92 547.84 531.98 547.29 531.67 544.53 533.32 544.9 534.18 545.43 534.59 546.24 535.05 546.65 535.67 549.18 539.27 550.7 540.87 550.93 541.76 550.29 543.86 550.03 544.23 549.78 544.99 549.45 545.92 549.39 545.85 549.1 545.46 548.89 545.17 548.21 545.13 546.71 545.44 541.94 545.05 541.38 544.87 540.82 545.22 538.13 548.08 536.11 548.57 535.29 549.11 533.87 549.95 533.6 550.51 530.99 549.81 530.55 549.52 529.87 549.5 529.4 549.95 529.34 550.44 528.64 551.49 528.13 551.53 526.97 551.62 523.99 551.08 524.28 550.55 523.93 549.87 523.16 549.56 525.55 545.2 526.99 544.8 527.51 542.99 528.6 541.59 529.67 539.72 533.04 536.08 533.77 534.41 534.69 533.55 535.23 533.17 534.61 531.55 534.69 530.29 535.25 529.06 535.6 526.75 535.37 526.09 534.73 525.58 533.97 524.7 535.93 523.58 536.38 524.37 536.54 525.27 538.48 524.92 538.17 523.93 536.56 521.9 538.73 519.63 540.06 518.4 541.32 517.45 543.89 514.77 545.43 512.78 548.52 511.07 547.8 510.58 547.93 510.35 548.98 510.78 549.37 510.53 549.78 510.27 548.77 509.34 551.63 504.01 554.39 501.77 556.88 500.59 560.83 498.64 Z M 560.79 526.12 560.11 526.67 562.5 525.62 561.72 525.89 560.79 526.12 Z" fill-rule="evenodd"/>
<path d="M 460 561.09 462.67 558.97 465.82 559.42 462.76 561.68 460 561.09 Z"/>
<path d="M 153.28 347.65 154.04 348.94 152.54 351.16 144.2 350.88 138.87 352.15 138.25 350.63 139 348.49 142.93 348.18 147.47 346.1 153.28 347.65 Z"/>
<path d="M 115.08 157.55 114.73 156.11 118.39 154.97 120.66 155.18 120.39 157.61 122.65 161.01 119.09 161.97 114.79 158.51 115.08 157.55 Z"/>
<path d="M 246.89 484.07 251.35 483.78 249.4 480.13 247.67 482.17 245.86 482.27 245.16 479.8 247.36 478.74 255.66 480.11 258.56 482.4 258.81 484.39 247.2 484.46 246.89 484.07 Z M 257.22 484.91 258.72 486.86 263.6 486.19 264.61 487.59 264.01 490.78 262.35 492.05 260.64 491.23 260.08 489.46 256.19 488.37 252.96 488.06 248.6 486.72 247.59 485.05 257.22 484.91 Z" fill-rule="evenodd"/>
<g/>
<path d="M 194.88 570.61 194.98 572.34 191.6 574.15 189.18 573.35 191.19 571.66 190.9 570.02 192.24 568.72 194.88 570.61 Z"/>
<path d="M 263.83 266.96 262.67 268.1 260.82 269.41 260.2 269.82 259.69 270.59 259.07 271.8 259.01 271.92 258.97 272.01 258.78 272.38 258.39 273.14 258.35 273.22 258.23 273.43 258.02 273.49 257.47 273.76 257.26 274 255.88 274.37 255.55 274.76 255.51 274.95 255.47 275.13 255.43 275.34 255.53 275.75 255.55 275.88 255.88 276.64 255.94 276.7 255.99 277.27 255.98 277.48 254.19 278.88 253.8 278.92 253.72 278.94 253.62 278.94 252.98 279.27 252.69 279.41 252.4 279.56 252.05 280.14 250.14 281.29 249.5 281.49 249.62 281.76 249.17 282.03 248.91 282.21 248.7 282.21 248.49 281.72 248.18 281.54 247.71 281.29 247.38 280.92 247.24 280.69 247.11 279.97 247.16 279.72 247.51 278.92 247.65 278.76 247.92 278.45 247.92 277.79 248.14 277.32 248.18 277.21 248.37 276.78 248.35 276.51 248.35 276.41 248.76 275.32 248.93 275.03 249.07 274.82 249.17 274.64 249.67 274.35 249.95 274.23 250.63 273.92 251.66 273.43 252.14 272.95 252.26 272.81 252.42 272.62 252.84 272.13 254.91 270.58 255 270.52 255.18 270.4 255.29 270.34 255.82 270.03 256.01 269.72 257.76 268.63 258.45 268.2 258.89 267.91 259.13 267.64 259.55 266.78 259.69 266.49 259.77 266.24 259.85 265.93 259.96 265.77 260.12 265.58 260.33 265.28 260.74 264.57 261.09 263.71 261.15 263.57 262.45 261.45 263.04 261.32 263.39 261.26 263.58 261.24 263.99 261.18 264.53 261.26 265.02 261.24 265.76 261.36 267.24 261.9 267.49 261.9 267.61 261.9 267.98 261.9 268.35 261.9 268.48 261.63 269.16 261.3 269.55 261.32 270.21 261.59 270.21 261.73 270.21 261.88 270.19 262.33 269.55 263.32 268.91 263.59 268.99 263.79 268.85 263.86 268.81 263.88 268.66 263.98 268.48 264.08 268.15 264.25 267.92 264.23 267.59 264.21 267.39 264.2 267 264.25 265.93 264.41 265.45 264.51 265.39 264.62 265.19 265.44 265.17 265.54 265.17 265.58 265.14 265.91 265.93 266.08 266.01 266.14 266.28 267.31 266.07 267.7 265.86 267.77 265.64 267.85 265.56 267.87 265.6 267.93 265.87 268.42 265.52 268.59 264.98 268.65 264.9 268.77 264.73 268.69 264.81 268.53 265.43 267.05 265.52 266.84 265.49 266.74 265.45 266.65 265 266.02 264.69 265.98 263.83 266.96 Z"/>
<path d="M 564.27 145.36 563.61 144.83 558.13 143.88 557.41 144.02 557.11 146.41 553.15 145.55 552.14 143.18 553.09 138.98 554.39 138.12 555.69 134.14 557.19 132.13 560.07 133.53 562.21 137.64 561.92 140.34 564.84 141.51 565.46 143.74 564.27 145.36 Z"/>
<path d="M 109.34 172 112.05 170.27 113.02 167.82 116.23 167.92 117.28 169.44 117.71 172.47 111.97 172.86 109.34 172 Z"/>
<path d="M 714.95 500.9 714.85 499.19 717.96 497.96 722.07 498.37 724.98 497.88 729.71 498.86 734.67 498.86 737.9 500.7 737.84 501.85 733.8 501.7 726.99 502.78 723.41 501.83 722.55 502.92 719.42 503.37 717.83 502.1 715.96 502.73 714.95 500.9 Z"/>
<path d="M 775.75 512.49 775.92 512.41 776.78 512.3 777.38 512.68 777.48 512.65 778.84 513.03 779.19 513.38 779.72 513.58 780.53 513.89 780.59 513.91 780.82 513.89 780.88 514.71 780.75 514.75 780.67 514.77 780.22 515.15 778.51 514.51 778.16 514.09 777.97 514.38 775.2 514.3 775.01 513.91 774.7 513.54 774.37 513.42 773.75 513.54 771.66 513.91 770.75 513.09 770.61 512.98 770.5 512.88 769.78 512.2 769.66 512.1 769.54 512 769.37 511.85 768.18 510.86 767.93 510.64 767.89 510.23 767.85 509.92 765.85 507.86 765.81 507.43 765.93 507.12 766.02 506.95 765.58 506.52 765.09 506.29 764.7 506.21 763.83 503.68 763.92 503.64 765.46 503.21 766.51 503.06 767.03 502.98 767.17 502.96 767.83 502.96 767.99 502.98 768.14 503 768.86 503.13 769.95 503.56 770.4 503.82 772.42 504.32 773.4 504.46 776.16 505.24 775.38 505.72 774.99 506.77 773.88 507.28 773.16 507.3 772.95 507.3 772.31 507.65 772.25 507.98 772.4 508.58 772.69 508.68 773.32 508.6 773.51 508.56 773.71 508.37 775.9 508.27 776.18 508.5 775.81 511.13 775.48 510.76 774.85 510.49 774.27 510.45 774.15 510.7 774.19 510.72 774.46 510.88 774.62 511.25 774.43 511.5 774.39 511.54 774.02 512 773.92 512.35 774.33 512.33 775.24 512.49 775.75 512.49 Z M 759.64 499.96 759.59 499.03 760.89 499.65 760.97 500.1 762.97 501.52 761.01 502.51 759.92 502.12 759.84 501.19 759.64 499.96 Z" fill-rule="evenodd"/>
<path d="M 750.41 588.25 749.65 588.15 747.88 585.15 748.46 583.99 749.26 583.95 750.83 586.07 750.66 588.15 750.41 588.25 Z M 752.36 593 752.39 592.1 752.35 591.92 753.58 590.25 754.3 590.29 754.96 590 757.06 589.55 758.17 589.53 758.96 591.07 758.55 592.29 758.52 592.76 757.39 593 756.84 592.97 756.73 592.8 756.32 592.25 755.85 592.18 752.36 593 Z" fill-rule="evenodd"/>
<path d="M 448.78 423.12 450.41 423.37 452.81 423.9 456.77 425.9 458.33 428.31 458.35 428.39 457.57 430.1 456.05 431.15 454.01 433.23 453.02 436.56 452.55 437.43 449.69 438.54 449.48 438.58 449.38 438.97 449.71 440.27 447.3 442.12 445.69 445.52 440.14 448.64 437.44 448.25 435.28 446.67 434.5 444.47 433.92 444.44 433.82 444.96 430.57 445.35 430.24 444.94 430.69 440.58 434.06 439.96 434.64 439.92 436.8 436.52 436.45 434.44 437.93 432.84 438.57 432.47 440.24 431.91 441.17 431.68 443.1 430.55 443.59 430.12 443.9 429.69 444.29 428.74 444.48 428.7 444.5 428.39 443.98 427.86 443.61 427.2 444.89 424.42 445.16 423.57 445.06 423.45 445.24 423.33 448.78 423.12 Z"/>
<path d="M 425.69 465.85 427.99 464.39 431.49 464.53 432.81 466.76 432.38 468.83 428.42 467.25 425.48 467.35 425.69 465.85 Z"/>
<path d="M 313.31 402.13 314.25 400.5 315.14 399.25 318.33 398.03 318.47 397.99 319.65 397.7 319.83 397.66 325.53 397.74 331.56 399.18 335.41 401.18 336.91 402.87 337.92 405.63 337.35 409.37 333.17 416.72 332.12 418.28 330.49 419.64 330.12 419.85 324.87 421.93 321.17 422.57 313.25 421.8 311.39 421.29 308.68 420.26 305.46 417.4 305.34 416.95 304.87 416.04 306.56 412.56 311.15 406.76 311.62 404.78 313.31 402.13 Z"/>
<path d="M 441.19 106.01 444.58 105.37 446.82 105.72 446.43 107.39 443.53 109.32 441.08 113.05 441.08 114.12 437.42 117 436.04 116.01 441.19 106.01 Z"/>
<path d="M 418.75 136.99 421.67 134.99 425.28 136.57 423.61 138.8 419.22 139.21 418.75 136.99 Z"/>
<path d="M 392.26 81.8 386.54 80.61 384.27 83.72 380.96 84.29 380.22 83.08 380.98 80.8 383.88 79.75 383.68 77.83 387.22 76.78 389.94 78.61 390.04 81.19 392.26 81.8 Z"/>
<path d="M 454.71 18.14 454.44 19.38 448.43 21.04 444.17 20.49 441.7 18.31 442.59 14.97 440.36 11.72 441.56 10 447.81 10 449.15 12.56 449.38 14.91 454.17 17.2 454.71 18.14 Z"/>
<path d="M 465.31 47.66 463.23 46.67 462.14 44.82 462.98 41.61 462.86 39.16 465.66 37.88 468.58 44.14 471.56 43.97 477.7 45 479.51 46.4 477.37 48.97 473.23 49.53 468.85 49.26 465.31 47.66 Z"/>
<path d="M 370.51 97.71 371.78 101.36 371.16 103.91 370.92 109.82 368.49 117.35 365.34 113.95 363.51 106.96 364.06 103.11 367.58 99.18 370.51 97.71 Z"/>
<path d="M 373.39 96.17 371.8 95.47 371.27 92.24 372.71 91.87 373.39 96.17 Z"/>
<path d="M 349.2 35.08 351.06 39.55 350.07 40.06 345.7 37.61 341.36 32.1 340.6 29.22 341.26 25.92 345.52 27.01 348.69 29.69 349.2 35.08 Z"/>
<path d="M 288.26 335.19 288.07 335.03 284.18 333.26 284.1 332.99 284.08 332.54 284.49 331.01 285.42 330.11 285.56 329.84 285.66 329.08 285.62 325.01 289.06 324.9 293.77 326.01 294.45 326.55 295.28 326.59 295.87 326.42 300.4 326.2 300.59 326.4 300.61 326.43 300.79 326.61 300.96 327.06 301.62 328.79 300.55 329.82 297.93 332.85 296.27 332.78 295.85 332.85 295.73 333.32 296.24 333.98 299.64 335.58 299.5 336.26 295.79 339.35 294.54 340.28 294.06 340.98 294.1 341.06 293.79 341.35 293.22 341.57 292.15 344.87 291.86 345.2 291.86 345.28 291.82 345.69 292.17 346.2 292.64 347.81 289.56 348.63 286.84 348.33 282.91 346.56 281.88 346.08 279.63 344.83 281.84 343.01 282.74 343.2 282.97 343.01 282.74 340.79 283.38 340.32 284.64 339.82 285.42 339.43 285.6 339.33 286.06 339.1 285.69 338.94 284.96 338.98 284.57 339.14 283.01 339.39 281.9 339.04 280.56 338.47 280.31 338.2 279.76 337.35 280.03 336.02 280.7 335.46 285.48 335.52 287.17 335.83 288.26 335.19 Z"/>
<path d="M 319.98 346 322.86 345.94 322.26 347.77 320.18 348.45 316.58 347.42 319.98 346 Z"/>
<path d="M 513.37 123.94 513.86 126.98 515.14 130.21 514.23 131.7 511.17 131.57 507.27 129.7 505.38 124.61 506.1 122.87 508.3 122.19 513.37 123.94 Z"/>
<path d="M 470.97 92.61 471.65 95.12 467.47 95.18 466.89 93.93 468.99 92.53 470.97 92.61 Z"/>
<path d="M 578.41 121.28 577.07 122.08 573.8 123.44 570.28 123.17 570.18 122.06 570.96 122.5 571.62 121.8 564.62 117.97 563.09 115.23 562.72 113.77 561.82 110.41 561.94 108 562.13 107.43 563.49 105.99 564.54 105.6 564.99 105.12 568.36 105.49 569.02 106.07 569.7 106.28 570.94 106.85 572.73 107.66 574.11 109.65 574.89 110.23 577.95 111.87 578.16 113.05 578.59 113.97 580.03 115.29 581.82 115.91 582.3 117.47 581.17 119.35 578.41 121.28 Z"/>
<path d="M 594.15 141.78 595.51 142.93 597.47 145.57 595.76 147.21 591.91 147.52 588.18 145.67 586.11 145.94 584.23 143.84 587.05 137.15 588.41 135.26 586.27 132.87 587.34 130.07 591.09 131.14 591.95 133.63 590.92 136.04 591.62 139.81 591.83 140.46 594.15 141.78 Z"/>
<path d="M 483.75 103.23 485.25 104.07 485.38 105.97 482.54 105.8 483.75 103.23 Z"/>
<g/>
<path d="M 284.29 289.64 285.27 289.19 292.81 289.56 292.99 290.49 290.44 292.77 290.3 294.81 281.65 299.5 279.84 298.64 279.96 297.03 283.54 293.43 283.15 292.09 284.29 289.64 Z"/>
<path d="M 318.56 387.88 322.3 386.75 323.27 387.53 322.65 390.23 317.83 390.91 317.14 388.52 318.56 387.88 Z"/>
<path d="M 499.52 571.7 494.56 572.12 487.06 571.54 488.22 570.49 499.08 570.76 499.52 571.7 Z"/>
<path d="M 524.56 522.8 529.65 527.41 530.45 529.41 528.99 533.2 522.24 540.26 522.12 529.12 522.77 525.68 524.56 522.8 Z"/>
<g/>
<g/>
<path d="M 193.02 559.58 195.68 558.8 197.47 561.15 196.65 562.53 193.15 562.09 193.02 559.58 Z"/>
<path d="M 580.55 203.01 584.5 204.39 583.78 205.92 580.9 205.9 579.29 203.88 580.55 203.01 Z"/>
<path d="M 138.85 339.41 141.2 339.76 141.4 341.57 142.97 343.9 140.02 343.69 138.23 341.78 138.85 339.41 Z"/>
<path d="M 85.01 253.96 85.23 254.24 89.68 255.31 92.91 256.8 95.42 256.94 99.52 260.5 99.62 263.73 94.45 267.77 91.98 266.35 91.8 264.39 92.01 262.27 89.86 261.38 87.95 261.92 90.5 268.73 89.43 268.98 85.75 268.16 84.2 265.79 83.96 263.86 81.96 259.06 81.94 258.91 82.52 257 82.13 256.79 78.65 252.02 78.03 249.8 78.65 245.45 83.15 242.04 84.9 240.19 85.6 236.83 79.12 235.72 76.01 236.64 72.6 235.84 70.41 233.04 68.64 229.36 66.09 227.92 65.17 222.65 62.14 217.32 63.48 215.14 65.83 219.19 67 222.32 69.71 225.39 73.71 225.69 75.23 224.87 80.01 224.15 81.63 224.44 93.92 223.92 97.38 224.79 100.01 227.18 103.66 229.61 106.87 233.43 109.25 237.16 114.28 241.54 118.35 244.47 124.5 248.21 125.97 249.14 128.5 251.01 129.69 254.98 131.32 258.44 131.3 260.29 129.22 262.58 122.38 266.78 117.9 268.22 113.62 268.55 109.32 265.79 105.49 264.62 104.44 262.66 105.82 261.2 105.45 259.61 101.06 256.94 98.2 253.52 95.18 251.34 93.22 250.83 87.99 251.28 85.01 253.96 Z"/>
<path d="M 86.67 273.51 83.55 273.18 80.89 271.29 82.13 269.86 86.88 271.78 86.67 273.51 Z"/>
<path d="M 601.73 237.65 598.1 237.55 597.53 233.04 601.03 232.84 602.78 234.53 601.73 237.65 Z"/>
<g/>
<path d="M 381.66 497.94 380.94 495.32 383.2 495.51 381.66 497.94 Z"/>
<path d="M 142.97 558.43 142.58 558.14 142.47 556.93 148.3 554.09 149.62 553.76 150.67 555.82 149.24 556.52 148.61 556.39 148.46 556.68 148.61 557.24 149.02 559.34 148.65 559.81 148.54 559.97 148.24 560.34 148.5 560.78 149.59 561.7 151.1 562.22 151.98 562.26 152.7 561.78 154.08 561.54 154.45 561.54 153.96 561.97 153.32 562.01 153.01 562.28 152.27 563.72 151.34 564.91 151.08 565.86 150.05 568.16 147.91 569.03 146.14 569.67 143.87 570.64 142.49 568.54 142.84 568.04 144 566.4 144.28 566.09 144.14 565.61 143.11 564.67 142.56 564.36 141.88 563.86 141.42 562.42 142.97 558.43 Z"/>
<path d="M 120.64 552.46 121.25 551.37 121.36 552.05 121.87 552.67 123 552.85 124.59 554.37 126.54 554.85 126.77 554.81 127.02 554.75 127.24 554.97 128.21 554.99 129.24 554.27 129.3 554.56 128.58 555.47 128.27 555.8 128.97 557.28 129.86 558.51 132.24 560.38 136.46 561.23 137.04 560.76 136.92 559.99 137.39 559.31 137.88 559.19 138.54 558.61 139.18 558.72 139.41 558.99 139.12 560.45 138.62 561.02 136.48 561.78 135.91 561.87 134.4 562.38 134.2 562.5 133.4 563.23 132.06 564.56 131.85 564.75 131.79 564.81 131.38 565.16 130.97 565.45 128.35 566.62 127.51 566.89 127.12 567.26 126.85 567.81 127.26 568.21 128.25 568.66 128.11 568.97 127.76 569.11 127.57 569.19 127.39 569.69 126.6 570.08 124.65 569.69 124.22 569.67 122.8 569.03 121.73 568.12 119.87 567.2 119.61 567.18 118.5 566.48 118.56 566.31 119.77 564.98 119.87 564.56 119.92 564.32 120.06 563.72 120.99 562.59 121.69 562.22 122.26 561.15 122.04 559.25 121.64 558.57 120.92 558.27 120.33 557.89 120.31 552.75 120.64 552.46 Z"/>
<path d="M 284.35 323.98 282.15 324.04 281.57 322.25 285.31 318.73 287.95 319.67 284.35 323.98 Z"/>
<g/>
<path d="M 391.89 459.3 388.45 459.41 387.18 455.46 386.99 450.39 388.02 447.98 391.4 445.93 393.95 445.86 396.15 447.51 396.83 451.09 395.23 454.65 392.06 456.69 391.89 459.3 Z"/>
<path d="M 56.3 536.49 57.96 536.88 59.03 536.86 60.86 536.47 61.91 536.82 62.63 536.94 63.44 541.26 61.96 541.57 61.67 541.84 61.36 542.13 61.75 542.48 61.81 542.87 62.28 543.24 63.03 544.23 62.49 545.5 62.49 546.97 59.3 547.09 59.2 547.32 54.52 547.89 52.36 548.74 51.87 549.97 49.52 550.36 48.89 548.36 48.74 547.67 47.65 545.24 50.82 543.77 51.38 543.08 51.31 542.71 50.2 541.57 48.76 540.58 50.61 538.77 53.68 538.57 56.3 536.49 Z"/>
<path d="M 76.03 529.39 76.12 526.61 79.14 527.7 84.33 528.03 84 530.23 81.04 530.44 76.03 529.39 Z"/>
<g/>
<path d="M 414.65 291.97 415.13 290.71 418.44 291.56 417.89 293.02 414.65 291.97 Z"/>
<path d="M 390.68 478.88 389.94 482.17 387.98 481.18 388.02 478.94 390.68 478.88 Z"/>
<path d="M 95.15 502.45 95.92 503.06 96.82 504.96 97.36 505.99 97.36 506.21 97.87 506.27 97.77 507.32 97.27 507.32 96.99 507.47 95.55 508.27 95.42 508.33 94.33 508.44 93.88 508.46 90.69 506.93 90.61 506.48 90.19 506.05 89.93 505.78 89.12 504.38 89.06 503.48 88.77 503.33 88.05 503.33 87.72 503.33 84.76 503.87 84.25 503.76 83.48 503.04 83.2 502.69 82.83 502.4 81.88 501.87 81.82 501.83 81.47 501.64 81.01 501.66 80.46 501.68 79.68 501.52 78.77 501.48 78.56 501.36 78.32 501.17 78.22 501.09 77.87 500.8 77.82 500.76 77.68 500.65 77.43 500.43 76.4 499.65 76.24 499.44 76.14 499.3 75.99 499.07 75.42 497.77 75.29 497.44 75.23 497.26 74.82 496.87 74.59 496.5 74.45 496.25 74.26 495.18 74.28 494.67 74.04 493.57 73.96 493.27 74.7 491.74 74.76 491.66 74.68 491.43 73.23 491.31 72.62 491.31 72.04 491.41 71.51 491.78 71.01 491.1 71.44 491.23 71.07 490.73 70.46 490.43 67.6 488.51 67.12 488.16 66.54 487.98 65.31 486.78 65.23 486.45 65.19 486.21 65.33 485.34 65.56 484.42 65.56 483.96 65.29 483 64.98 482.69 64.84 482.54 64.34 482.27 63.19 481.45 63 481.23 63.5 479.83 63.89 479.87 64.88 479.97 65.25 480.11 65.72 480.28 66.13 480.55 66.3 480.69 67.08 480.59 67.53 480.9 67.94 481.43 68.81 481.99 69.22 482.34 69.53 482.6 69.76 482.81 70.41 483.84 70.95 484.04 71.69 484.04 72.1 484.04 72.58 484.05 75.66 485.79 75.89 486.04 76.42 487.38 76.22 487.96 76.22 488.37 76.82 488.63 78.36 488.51 80.07 489.11 80.73 489.36 80.95 489.46 81.14 489.52 82.43 490.01 82.99 490.16 83.26 490.34 83.4 490.41 83.65 490.59 84.18 490.69 84.76 491 84.93 491.1 85.54 491.43 86.59 491.78 87.35 491.76 87.62 492.03 87.95 491.85 90.13 492.59 90.34 493.04 90.56 493.39 90.98 494.09 91.35 494.85 91.37 495.34 91.24 496.06 90.59 497.42 90.24 498.1 90.13 498.53 90.05 498.8 89.97 499.46 90.15 500.37 90.5 501.23 90.67 501.46 91.08 501.97 91.88 502.65 92.27 502.49 93.94 502.07 94.43 502.16 95.15 502.45 Z"/>
<path d="M 80.21 447.02 81.06 450.74 78.67 452.72 75.03 451.69 74.61 448.89 77 448.54 77.85 446.77 80.21 447.02 Z"/>
<path d="M 60.51 536 58.06 536.59 51.79 534.62 47.36 534.78 49.81 532.23 53.06 533.81 57.67 534.08 60.51 536 Z"/>
<path d="M 17.06 573.37 17.02 572.8 16.98 572.3 17.13 572.01 17.27 571.75 17.58 571.13 18.01 570.64 19.12 569.17 22.07 567.53 22.5 567.49 22.72 567.47 23.32 567.42 23.86 567.36 25.36 567.4 25.94 567.42 26.99 567.67 28.04 567.81 29.43 567.79 35.12 567.77 36.82 569.19 36.89 571.73 39.46 572.43 42.3 571.64 43.76 572.63 44.5 575.08 43.76 577.02 40.71 580.47 39.66 580.99 39.42 581.11 38.59 581.52 36.41 581.98 31.43 581.98 27.15 580.8 23.36 578.56 17.17 573.72 17.06 573.37 Z"/>
<path d="M 138.64 122.25 136.69 122.12 135.6 119.84 135.78 117.31 140.91 116.86 138.93 119.47 138.64 122.25 Z"/>
<path d="M 638.76 288.94 638.96 288.92 642.05 289.85 642.34 291.76 642.09 292.3 641.6 292.71 641.37 292.9 641.39 293.1 642.23 293.53 643.32 293.95 643.92 294.54 643.7 295.06 643.43 295.39 645.92 296.72 646.31 299.87 646.89 300.57 648.24 301.13 649.19 301.29 651.13 302.67 649.89 304.22 644.04 305.2 640.28 302.49 638.69 302.06 638.24 301.64 638.08 301.38 637.93 301.09 637.81 299.63 636.74 297.65 636.29 297.14 636.26 295.02 636.53 294.63 637.93 293.06 637.97 293 637.95 292.83 637.91 292.49 637.38 292.09 637.25 291.99 637.33 291.41 637.4 289.71 637.87 289.07 637.89 289.03 638.12 289.01 638.76 288.94 Z"/>
<path d="M 48.52 91.19 48.29 90.84 52.24 89.17 53.31 89.05 54.18 88.56 54.63 89.03 54.63 89.21 54.5 90.16 54.42 90.28 55.35 90.76 56.4 91.11 56.77 91.35 57.35 91.48 57.63 91.31 57.72 90.61 57.96 90.18 58.64 89.73 59.79 89.38 60.47 89.3 61.38 89.21 62.51 89.79 62.63 90 62.1 90.68 60.86 90.9 60.31 91.27 60.49 91.68 60.82 91.95 60.25 93.08 60.18 93.43 59.63 95.61 59.81 96.03 60.04 96.58 60.54 96.81 60.62 96.54 61.69 95.9 61.96 96.33 62.3 96.5 62.68 96.13 62.59 95.68 62.22 92.98 62.43 92.22 63.83 92.51 64.28 93.02 64.51 92.96 64.67 92.92 65.19 92.98 65.52 92.61 65.7 92.42 66.09 92.14 67.76 94.44 67.7 94.89 70.41 96.4 70.37 96.5 69.94 96.77 69.22 96.23 68.79 96.01 68.5 95.88 67.99 95.45 67.39 95.55 66.81 96.31 66.54 96.58 64.28 97.36 63.81 97.32 63.09 97.88 61.85 100.02 61.67 100.88 61.24 101.32 60.54 101.79 59.24 101.75 57.88 101.21 57.08 100.93 56.87 100.86 56.09 100.58 50.92 99.09 50.22 98.68 49.89 97.9 49.85 97.67 50.06 97.32 50.7 96.75 51.17 96.17 51.87 95.39 52.53 94.26 52.08 93.84 51.36 93.86 49.26 92.57 49.01 91.87 48.74 91.48 48.52 91.19 Z"/>
<path d="M 63.01 85.01 65.39 86.29 62.37 87.38 60.56 86.6 63.01 85.01 Z"/>
<path d="M 151.61 318.42 151.36 316.94 153.73 316.26 156.78 313.93 164.31 313.29 165.9 315.1 165.67 316.55 162.99 317.95 162.25 320.23 160.3 321.71 153.65 318.36 151.61 318.42 Z"/>
<path d="M 103.3 524.69 103.39 522.66 107.03 520.78 110.01 521.18 112.57 522.9 114.38 522.25 119.71 524.7 120.37 526.14 116.62 527.23 114.93 528.79 112.13 529 106.87 526.88 105.45 526.79 103.3 524.69 Z"/>
<g/>
<path d="M 242.77 445.49 243.12 447.43 239.95 446.96 238.9 444.49 242.77 445.49 Z"/>
<path d="M 55.27 59 54.5 61.74 52.08 63.4 47.88 62.17 48.29 60.46 51.44 60.21 55.27 59 Z"/>
<path d="M 60.04 61.28 64.34 62 65.12 64.37 61.85 66.57 58.74 64.56 58.25 63.3 60.04 61.28 Z"/>
<path d="M 66.15 68.14 70.17 67.93 71.83 71.51 68.36 71.9 66.09 70.87 63.11 71.25 60.27 69.41 62.02 68.34 64.38 69.74 66.15 68.14 Z"/>
<path d="M 89.91 155.94 85.58 154.34 87.83 152.5 90.87 152.28 91.94 155.1 89.91 155.94 Z"/>
<path d="M 95.63 156.99 92.64 152.94 96.72 153.41 95.63 156.99 Z"/>
<g/>
<path d="M 109.75 122.14 109.73 122.31 106.52 123.79 106.97 127.6 108.31 130.95 104.71 131.49 99.04 133.79 95.36 133.14 91.72 133.3 90.98 130.6 97.32 128.86 97.11 127.58 99.11 125.87 103.92 125.15 105.59 124.06 109.75 122.14 Z"/>
<path d="M 157.13 352.26 160.44 352.11 160.44 353.39 157.03 354.27 157.13 352.26 Z"/>
<path d="M 166.08 352.13 162.93 351.35 163.8 349.09 167.42 348.14 169.21 349.44 166.08 352.13 Z"/>
<path d="M 276.77 200.36 277.21 199.91 278.79 199.39 279.37 199.29 282.13 200.24 283.11 201.28 283.4 201.86 283.57 202.73 283.59 203.08 283.63 204.08 284 205.61 284.18 206.29 284.57 207.83 284.61 208.02 284.66 208.43 284.55 209.06 284.16 211.56 282.99 212.67 282.23 213.37 280.73 213.94 279.92 214.66 278.83 214.05 278.69 213.92 278.3 213.43 278.17 212.87 277.84 212.17 277.64 211.35 278.26 210.86 277.93 210.34 276.86 209.79 275.85 209.64 275.62 209.6 275.25 209.54 273.09 207.97 273.15 207.56 271.53 204.89 271.17 204.7 270.31 203.36 272.33 201.45 273.25 201.1 273.3 201.08 273.79 200.89 276.09 200.61 276.77 200.36 Z"/>
<path d="M 633.53 221.93 635.13 219.62 637.64 219.75 639.48 221.06 645.03 222.42 645.55 224.19 643.57 226.74 637.71 225.72 637.17 223.86 633.53 221.93 Z"/>
<path d="M 601.73 453.79 601.79 453.07 606.36 450.82 609.14 451.05 604.07 454.65 601.73 453.79 Z"/>
<path d="M 632.5 438.62 632 439.53 632 439.9 630.73 441.46 629.49 443 627.78 445 623.24 450.08 618.93 451.24 618.79 450.52 616.84 450.06 616.11 450.17 615.42 450.83 610.47 450.97 609.96 449.94 616.98 445 622.04 442.34 623.46 440.82 628.79 438.21 629.82 436.62 632 436.97 632.5 438.62 Z"/>
<path d="M 625.5 187.93 625.56 188.17 625.69 189.02 625.69 189.78 625.62 190.13 625.03 191.26 624.78 192.52 624.92 192.93 625.01 193.26 625.07 193.42 624.33 195.6 624.31 195.79 622.95 197.5 620.93 197.64 617.51 195.71 616.63 195.11 615.27 194.57 614.67 194.39 613.95 193.92 612.22 191.61 612.2 191.14 611.63 190.66 610.08 190.35 609.12 190.01 608.35 189.64 607.16 187.52 607.47 186.67 608.29 185.44 608.5 184.67 611.52 182.39 612.41 182.06 614.32 181.59 615.07 181.46 617.08 181.24 620.07 182.2 620.31 182.37 622.76 184.02 623.32 184.35 624.12 185.29 624.33 186.05 625.07 186.84 625.5 187.93 Z"/>
<path d="M 264.73 268.69 264.9 268.77 266.26 270.15 262.76 275.67 259.98 279.29 257.92 278.96 258.39 276.62 260.95 271.59 264.73 268.69 Z"/>
<path d="M 675.1 304.18 678.07 303.72 677.78 307.12 673.5 307.3 672.41 306.32 675.1 304.18 Z"/>
<path d="M 688.11 263.38 687.58 263.03 685.17 261.36 686.49 258.44 686.69 258.07 686.47 257.85 687.31 257.74 688.24 256.96 690.66 256.3 691.49 256.51 692.6 256.98 693.67 257.35 695.25 257.74 695.91 257.91 696.98 258.32 699.27 259.1 699.82 259.27 701.35 259.78 701.74 259.96 702.31 261.2 702.6 261.67 703.12 261.98 704.15 262.81 704.82 263.2 705.59 263.79 706.27 264.06 705.87 265.73 705.17 266.63 702.83 267.35 702.07 267.04 701.61 266.69 700.44 266.41 698.11 266.08 697.44 265.75 694.94 265.3 694.14 265.01 692.54 264.21 691.67 263.5 691.49 263.03 690.93 262.81 690.21 263.03 689.92 263.11 688.11 263.38 Z"/>
<path d="M 579.35 186.3 582.46 186.07 584.36 187.41 583.9 189.51 579.79 192.72 577.56 189.31 579.35 186.3 Z"/>
<path d="M 730.35 80.28 729.94 81.56 729.26 83 724.36 87.18 723.43 87.79 722.86 88.39 722.46 89.38 721.93 90.55 717.73 90.32 715.16 88.53 714.75 87.46 715.07 84.85 715.51 84.69 715.75 84.23 715.4 82.89 715.16 81.6 714.56 79.93 711.95 77.23 710.65 76.54 709.27 76.19 707.44 76.19 704.87 75.9 703.78 75.75 701.51 75.55 698.28 75.16 695.89 73.63 694.78 72.5 693.83 71.97 692.6 71.66 691.36 69.7 691.82 68.67 692.39 67.68 692.52 67.11 692.72 66.41 693.26 65.67 694.27 65.19 695.42 64.37 695.25 64.21 694.45 64 693.4 64.41 692.7 65.19 693.38 63.81 695.62 64.12 695.93 63.98 702.7 61.7 703.96 61.28 704.35 60.4 704.15 58.63 706.78 57.27 708.16 56.22 708.92 56.01 713.18 58.63 711.6 60.67 710.49 61.43 709.81 61.59 708.92 61.65 708.14 62.72 707.99 63.47 708.01 64 709.04 66.08 706.72 67.71 706.14 68.26 706.45 68.69 707.6 69.29 708.59 70.05 709.79 71.31 710.18 71.95 710.92 71.7 713.08 70.17 713.41 69.45 714.85 68.24 715.79 67.79 719.4 65.81 720.61 65.38 721.33 64.64 721.43 64.31 721.33 63.81 720.9 63.44 719.67 60.62 720.22 59.86 721.8 58.13 725.3 56.28 727.47 55.95 728.33 55.52 729.09 54.72 732.59 53.92 733.89 53.79 736.36 53.48 738.02 53.67 745.23 56.24 746.38 57.02 749.02 60.05 750.27 62.37 750.5 66.98 749.34 69.21 746.2 71.99 744.9 72.66 743.25 73.32 741.54 73.63 734.55 73.71 734.07 74.23 733.78 74.99 732.24 78.22 731.09 79.21 730.55 79.89 730.35 80.28 Z"/>
<path d="M 139.12 538.11 139.59 538.26 142.25 540.19 144.39 544.04 139.98 547.56 139.28 547.87 136.85 547.5 136.22 547.36 135.97 547.6 136.36 547.95 136.63 548.51 136.53 548.84 135.43 548.9 135.35 548.53 135.43 547.11 134.57 546.02 134.41 545.32 133.75 544.29 132.68 543.57 132.24 543.65 132.04 544.23 132.06 545.36 130.29 547.69 128.11 545.73 127.51 545.57 126.98 545.77 126.38 546.35 126.13 547.07 126.5 547.36 126.79 549.11 125.27 548.98 124.38 548.63 123.74 548.3 117.67 547.09 116.38 546.49 115.53 544.6 115.45 544.45 115.31 544.19 115.49 544.04 115.02 542.19 114.48 541.88 113.49 541.66 112.07 541.86 111.33 541.49 109.64 540.48 107.98 538.09 107.46 537.81 106 538.28 105.82 537.74 105.47 537.27 104.6 536.92 103.28 536.8 102.32 536.55 102.71 536.12 103.55 535.01 103.82 534.47 107.71 535.62 108.41 536.2 109.17 536.34 109.93 537.02 115.24 537.85 116.87 537.91 121.32 538.57 121.79 538.26 122.43 538.22 123.64 538.55 124.61 539.12 126.6 539.91 128.93 539.51 129.4 541.96 129.92 542.46 130.21 542.19 131.11 539.93 133.58 538.32 139.12 538.11 Z"/>
<path d="M 177.01 571.15 177.18 572.36 175.82 575.47 182.55 575.95 182.57 578.91 179.07 584.05 179.54 584.65 181.56 586.13 181 587.51 179.34 588.42 178.02 588.85 178.16 589.94 177.98 590.93 176.72 592.1 173.68 591.83 172.63 590.21 172.19 587.6 173.45 587.31 172.92 586.32 174.29 583.42 174.31 582.61 175.71 580.74 173.63 579.49 169.95 579.75 168.98 578.35 164.64 575.25 165.28 572.78 165.26 572.43 161.82 573.54 161.55 572.73 159.85 571.19 156.28 569.73 155.58 565.82 157.66 564.27 161.45 563.14 161.26 562.88 164 561.74 164.56 562.05 165.01 562.92 165.67 563.27 163.94 563.95 164 564.36 168.39 566 169.37 567.53 169.25 569.11 169.74 569.4 170.98 569.26 173.66 569.3 177.01 571.15 Z"/>
<path d="M 741.63 220.06 743.19 216.04 747.18 217.54 746.09 218.99 741.63 220.06 Z"/>
<path d="M 84.04 559.87 80.66 560.26 77.1 557.73 77.6 555.16 81.22 555.38 84.04 559.87 Z"/>
<path d="M 661.13 78.16 660.82 78.96 659.19 81.64 655.69 83.64 652.18 84.34 647.42 82.81 646.84 80.34 642.4 79.81 636.74 77.11 634.31 72.62 635.22 67.97 636.31 65.61 638.24 64.08 637.4 60.48 634.31 60.13 631.9 57 632.81 52.93 638.67 50.35 647.4 48.87 651.43 48.87 656.17 49.51 659.01 50.87 659.42 52.64 658.6 55.71 660.94 60.77 660.78 66.43 658.02 71.62 660.86 75.69 661.13 78.16 Z"/>
<path d="M 679.94 123.73 674.71 127 672.02 127.6 670.72 126.26 670.37 122.7 668.37 121.84 667.1 119.68 668.41 117.68 664.19 115.99 662.12 116.59 659.05 115.33 656.64 113.17 656.6 110.37 658.6 108.13 661.29 106.42 666.62 105.56 669.13 107.04 669.63 109.61 674.73 110.97 677.64 114.26 680.64 116.2 681.15 118.93 679.94 123.73 Z"/>
<path d="M 172.22 426.72 175.14 427.77 181.29 431.68 181.93 433.76 185.29 436.58 185.86 438.23 182.11 437.49 181.27 435.66 176.78 430.57 169.95 427.07 172.22 426.72 Z"/>
<path d="M 299.95 100.9 294.6 99.44 289.25 98.95 290.03 96.38 292.27 97.1 292.95 98.78 297.68 96.68 300.83 100.39 303.14 97.03 306.89 95.76 308.86 96.4 308.98 98.27 304.15 100.55 299.95 100.9 Z"/>
<path d="M 656.95 210.77 656.19 210.86 655.65 210.86 654.67 211.12 653.74 211.66 652.53 212.65 649.85 212.3 649.13 212.17 648.18 211.91 646.68 211.14 646.19 210.85 646.02 210.42 645.81 209.91 645.94 208.41 647.38 208.06 648.43 207.42 648.8 207.09 649.54 206.72 649.7 206.59 649.87 206.47 650.28 206.16 650.55 204.93 650.82 205.36 650.78 205.87 651.76 205.59 652.24 205.38 652.09 204.68 652.75 204.27 653.08 204.8 653.88 204.82 654.73 204.7 655.49 204.31 657.83 203.42 657.83 203.2 657.83 202.97 658.35 203.18 658.91 202.97 660.24 202.33 660.51 201.82 660.74 200.77 660.53 200.44 660.33 200.13 660.33 199.89 660.57 199.47 661.42 198.49 661.56 198.28 661.73 197.44 662.12 197.09 662.84 195.79 663.15 195.21 663.58 194.68 664.03 194.16 664.22 193.65 665.62 190.31 665.62 189.78 665.92 188.77 666.11 188.36 666.42 188.11 666.79 187.8 667.47 186.79 668 185.31 668.62 184.41 669.07 184.04 669.57 183.62 671.28 180.5 671.44 180.11 671.69 179.65 671.91 179.22 672.22 178.66 672.68 177.99 673.87 176.05 674.63 175.37 675.91 174.77 676.28 174.63 678.73 174.51 679.24 174.61 680.89 176.22 680.97 176.92 683.48 179.53 684.43 179.88 684.9 179.94 685.5 180.19 686.22 180.08 686.94 180.08 688.67 179.88 690.03 180.06 690.64 179.73 690.75 179.45 690.71 178.66 690.13 177.84 693.15 176.28 694.39 176.11 695.32 176.03 695.99 176.07 696.94 176.11 699.41 177.14 699.93 177.64 700.96 181.09 701.12 181.85 701.45 185.77 701.57 186.71 701.47 186.9 701.7 187.41 700.87 189.18 698.75 189.43 695.73 189.26 693.92 189.66 693.11 189.84 692.29 189.64 690.95 189.43 690.29 189.45 688.54 190.17 685.97 191.78 685.09 191.69 684.53 191.86 683.91 192.17 683.28 192.5 682.72 192.58 682.23 193.36 681.51 193.94 680.64 193.26 680.7 192.93 681.09 192.47 681.73 192.37 681.51 191.92 679.12 190.99 678.15 190.56 677.47 190.71 676.89 191.43 675.8 192.43 674.82 192.87 673.48 193.55 672.86 193.83 672.72 194.23 673.17 194.88 672.35 196.72 671.98 196.92 671.61 197.33 671.56 197.87 670.37 198.05 669.86 197.79 669.67 198.05 669.98 198.46 669.09 199.27 668.72 199.27 668.79 199.84 669.09 200.61 667.57 201.1 667.26 201.57 667.2 201.66 666.64 202.52 666.05 203.26 665.35 203.45 664.92 203.92 664.71 204.39 664.13 204.82 663.39 205.19 663.7 205.44 664.22 205.52 663.48 205.59 662.61 205.65 661.68 206.08 661.38 206.59 659.77 208.41 659.32 208.9 658.64 209.02 658.53 209.46 657.92 209.83 657.26 210.61 656.95 210.77 Z"/>
<g/>
<path d="M 80.05 322.33 79 319.41 81.88 318.23 82.48 316.81 86 316.03 92.73 317.74 94.29 320.79 94.35 322.91 91.78 323.23 85.83 321.55 83.75 320.58 81.55 323.96 80.05 322.33 Z"/>
<path d="M 682.86 171.46 684.35 169.26 686.9 168.15 693.94 166.5 697.19 167.82 697.23 169.96 692.23 173.56 686.79 173.74 685.52 174.49 682.31 173.89 682.86 171.46 Z"/>
<path d="M 647.5 150.88 651.41 148.1 654.56 148.66 656 149.93 655.3 153.43 652.61 154.56 653.47 158.27 651.23 160.1 647.36 160.02 646.86 156.27 648.18 155.18 646.89 151.43 647.5 150.88 Z"/>
<path d="M 460.51 415.9 460.24 416.14 457.94 417.3 455.57 416.86 455.33 416.89 451.37 414.93 450.2 410.22 452.4 407.91 456.25 407.07 458.87 407.25 462.55 410.57 460.51 415.9 Z"/>
<path d="M 80.81 509.79 79.08 506.71 80.19 505.45 83.09 505.04 84.93 506.32 84.57 507.98 80.81 509.79 Z"/>
<path d="M 761.63 530.07 759 529.2 758.38 526.65 756.84 524.32 761.2 523.3 763.46 524.06 765.23 527.74 761.63 530.07 Z"/>
<g/>
<path d="M 55.8 13.55 53.78 15.22 51.71 14.38 50.61 12.09 52.43 10.44 54.32 13.02 55.8 13.55 Z"/>
<path d="M 37.54 98.48 36.54 99.52 31.49 97.18 35.24 96.97 37.54 98.48 Z"/>
<path d="M 37.3 74.02 35.36 75.71 33.49 73.39 35.82 72.42 37.3 74.02 Z"/>
<g/>
<g/>
<path d="M 38.62 38.77 43.45 36.95 46.27 38.79 43.76 39.98 40.67 40.27 38.62 38.77 Z"/>
<path d="M 86.51 71.94 86.72 70.15 92.58 71.66 91.96 73.59 88.96 73.41 86.51 71.94 Z"/>
<g/>
<path d="M 24.33 138.59 25.75 139.11 27.05 141.41 24.27 144.13 19.74 145.81 17.35 143.86 19.74 142.32 22.7 139.25 24.33 138.59 Z"/>
<path d="M 13.3 115.37 14.95 118.5 13.3 118.93 13.3 115.37 Z"/>
<path d="M 103.72 146.86 104.27 149.42 100.63 151.04 101.41 147.52 103.72 146.86 Z"/>
<path d="M 162.73 139.11 165.28 141.08 162.54 143.04 161.12 140.15 158.01 138.65 158.98 137.07 162.73 139.11 Z"/>
<path d="M 151.32 117.43 148.5 121.34 146.84 119.31 151.32 117.43 Z"/>
<path d="M 286.59 59.58 282.72 55.97 284.55 54.53 287.78 57.68 286.59 59.58 Z"/>
<path d="M 579.71 10 579.21 12.13 576.53 12.26 577.12 10 579.71 10 Z"/>
<g/>
<path d="M 681.94 26.44 681.53 23.37 683.89 22.36 686.03 25.59 682.76 25.55 681.94 26.44 Z"/>
<path d="M 710.55 18.22 711.84 18.7 712.52 21.97 715.73 23.02 715.86 24.42 713.06 27.34 707.89 28 702.42 26.99 703.73 22.79 707.07 21 708.34 19.17 710.55 18.22 Z"/>
<path d="M 780.11 26.93 779.42 27.1 778.16 26.97 779.95 26.23 780.46 25.9 781.97 22.98 783.92 21 786.7 20.82 786.7 33.74 781.37 27.34 780.11 26.93 Z"/>
<path d="M 536.28 168.17 538.95 169.85 536.96 172.1 535.25 171.13 536.28 168.17 Z"/>
<path d="M 462.1 155.65 465.04 155.94 465 160.22 461.67 160.18 462.1 155.65 Z"/>
<path d="M 485.07 137.58 486.03 139.08 482.27 140.38 482.1 138.8 485.07 137.58 Z"/>
<path d="M 462.76 125.23 464.32 125.91 464.01 128.92 462.18 128.32 462.76 125.23 Z"/>
<path d="M 491.49 111.11 493.11 110.95 494.12 113.38 491.22 113.3 491.49 111.11 Z"/>
<path d="M 516.5 171.11 517.16 169.49 519.95 167.06 522.26 169.86 520.65 172.2 518.16 172.67 516.5 171.11 Z"/>
<path d="M 618.79 97.75 615.68 101.25 613.3 102.74 610.87 102.3 610.11 100.92 612.97 99.05 614.84 99.44 618.79 97.75 Z"/>
<path d="M 644.42 97.69 646.04 95.82 648.59 96.46 647.54 98.1 644.42 97.69 Z"/>
<path d="M 686.14 65.73 677.82 66.12 676.73 61.96 678.17 60.32 682.99 59.93 685.91 60.38 690.83 62.25 689.18 64.8 686.14 65.73 Z"/>
<path d="M 618.28 68.38 613.65 67.87 613.4 67.17 618.32 65.71 618.28 68.38 Z"/>
<g/>
<path d="M 618.32 65.71 613.4 67.17 612.2 63.61 613.25 61.74 617.74 62.31 619.02 64.12 618.32 65.71 Z"/>
<g/>
<path d="M 762.5 98.52 761.12 100.33 760.85 100.86 760.71 101.67 759.06 103.04 756.32 101.01 755.37 101.83 755.56 103.13 753.63 102.96 754.65 102.61 753.42 102.43 752.74 101.69 750.74 99.46 751.65 95.76 755.21 92.9 758.79 92.26 759.62 91.7 759.8 91.31 759.33 91.19 759 89.56 757.74 89.67 757.93 87.79 758.75 87.07 759.14 85.65 762.08 85.74 762.68 85.49 762 87.07 763.86 87.48 765.62 88.16 771.08 91.42 771.61 92.1 770.13 93.23 769.49 93.7 768.82 95.51 766.02 96.34 764.43 98.25 762.5 98.52 Z"/>
<path d="M 780.32 82.89 783.88 82.77 781.86 87.57 780.32 82.89 Z"/>
<path d="M 775.05 88.88 770.85 88.78 769.82 87.28 774.6 85.41 775.05 88.88 Z"/>
<g/>
<g/>
<g/>
<path d="M 742 41.85 742.68 41.07 743.62 40.62 744.05 37.37 746.28 33.56 748.91 32.08 755.89 33.33 757.15 30.66 759.2 31.13 759.96 31.58 760.46 31.67 761.08 31.64 761.26 31.69 763.22 33.25 763.48 33.81 762.58 35.6 763.63 37.39 761.32 40.14 756.45 39.96 753.81 37.68 751.28 38.11 746.73 40.17 745.95 40.25 744.34 40.91 743.09 41.55 742.72 41.65 742 41.85 Z"/>
<path d="M 782.03 74.81 785.88 75.55 786.7 79.03 783.9 79 781.47 78.08 782.03 74.81 Z"/>
<path d="M 785.77 69.5 784.5 71.2 780.36 70.48 779.74 68.41 783.65 68.3 785.77 69.5 Z"/>
<path d="M 611.36 143.94 612.12 141.68 614.47 140.57 617.51 141.66 614.26 143.74 611.36 143.94 Z"/>
<path d="M 656.48 162.18 661.46 162.03 663.27 162.9 659.89 165.04 657.38 164.85 656.48 162.18 Z"/>
<g/>
<path d="M 625.44 113.99 623.65 115.87 613.95 107.86 617.19 107.18 623.07 112.86 625.44 113.99 Z"/>
<g/>
<g/>
<path d="M 742.94 158.89 742.14 159.54 740.29 161.44 740.58 161.66 745.82 161.35 747.53 161.79 750.72 164.34 752.37 165.08 757.6 166.69 759.74 166.95 764.76 168.02 765.67 169.38 764.62 172.55 762.78 174.28 761.12 174.44 758.77 174.16 754.18 174.49 752.41 174.96 749.39 176.46 747.49 176.38 745.89 175.56 745.19 175.27 743.68 174.47 741.83 173.33 740.06 171.83 734.87 170.33 732.98 169.13 732.63 167.2 732.14 166.46 730 164.34 729.61 163.39 730.55 163 731.05 162.8 730.61 162.47 729.28 162.8 729.24 162.2 730.8 159.63 731.13 159.34 731.19 159.26 731.5 158.99 730.76 157.65 729.46 157.03 726.75 156.23 724.32 151.39 722.75 149.38 721.99 146.78 723.04 144.42 723.9 139.35 725.1 138.73 726.5 138.47 727.55 138.01 727.84 138.06 728.54 137.87 732.82 138.47 737.39 141.68 737.96 142.65 738.39 143.39 738.66 147.15 738.64 147.83 739.88 149.85 739.71 153.39 740.95 154.38 742.24 154.75 742.35 154.44 743.29 154.25 744.3 154.81 746.54 156.15 746.44 157.11 746.48 158.1 746.5 158.49 746.13 158.47 745.87 158.19 744.24 157.77 742.94 158.89 Z"/>
<path d="M 709.13 151.33 709.19 149.79 710.36 148.41 709.46 146.35 710.36 145.12 710.63 144.09 713.22 142.05 716.12 141.9 717.87 143.12 718.82 143.49 719.05 143.7 719.77 144.85 720.8 145.53 721.19 147.11 721.48 148.28 722.32 151.6 723.45 152.5 724.95 154.65 726.07 155.76 726.39 156.93 726.44 157.9 726.5 159.36 727.32 160.35 727.88 160.7 728.74 161.4 725.65 165.64 724.5 166.71 723 168.17 721.25 168.5 719.36 168.97 717.69 169.22 714.7 169.16 711.84 166.13 711.35 162.86 709.33 157.12 709.29 155.37 709.13 151.33 Z"/>
<path d="M 726.66 121.07 725.74 120.29 722.09 119.22 720.61 116.22 720.22 116.11 718.64 115.17 720.2 112.95 721.83 112.27 722.3 112.08 722.92 111.57 723.56 110.66 723.72 108.56 723.7 108.13 723.16 105.43 723.27 104.67 723.99 107.43 724.27 107.65 726.54 106.32 727.03 106.67 728.43 107.12 729.91 109.94 731.11 110.6 733.37 110.83 734.61 112.31 734.69 112.92 733.52 113.89 732.63 113.62 732.32 113.42 731.38 113.38 731.11 113.5 730.96 114.45 727.88 115.21 727.07 115.5 726.89 115.85 726.99 116.48 727.63 117.88 728.08 118.67 728.47 119.55 728.35 120.35 728.04 121.16 726.66 121.07 Z"/>
<g/>
<path d="M 75.62 172.51 77.91 173.27 78.3 175.82 76.82 178.81 77.89 181.07 75.6 181.98 75.4 183.93 73.85 185.37 70.39 184.26 67.51 185.21 67.66 181.53 69.59 179.73 72.37 178.36 71.44 175.68 74.26 175.17 75.62 172.51 Z"/>
<g/>
<path d="M 75.73 211.97 73.11 211.27 72.25 207.93 75.6 208.26 75.73 211.97 Z"/>
<path d="M 57.88 190.42 57 191.51 54.28 191.73 53.19 189.86 54.81 188.81 57.88 190.42 Z"/>
<path d="M 106.93 194.86 109.11 195.05 110.92 197.66 108.12 201.86 104.36 201.41 103.39 199.02 106.93 194.86 Z"/>
<path d="M 51.23 292.16 55.08 290.71 55.95 292.05 52.71 294.11 51.23 292.16 Z"/>
<path d="M 71.14 275.26 72.76 277.54 71.73 279.31 69.37 277.65 71.14 275.26 Z"/>
<path d="M 50.16 275.22 50.78 273.01 53.29 272.56 54.71 273.86 52.98 275.71 50.16 275.22 Z"/>
<g/>
<path d="M 178.08 253.67 178.27 251.49 184.89 251.61 184.77 253.85 178.08 253.67 Z"/>
<g/>
<path d="M 290.83 279.91 293.96 282.59 294.35 285.05 292.6 286.45 291.06 284.58 290.97 281.51 284.86 280.81 287.64 279.46 290.83 279.91 Z"/>
<path d="M 70.97 390.62 68.44 388.01 71.07 385.15 73.28 385.99 72.9 387.7 70.52 387.86 70.97 390.62 Z"/>
<path d="M 25.22 390.27 27.19 389.43 29.62 391.9 28.59 392.64 25.22 390.27 Z"/>
<path d="M 61.19 325.93 64.03 325.5 66.03 327.45 62.37 327.72 61.19 325.93 Z"/>
<path d="M 122.18 350.36 126.17 350.38 126.01 352.01 122.18 350.36 Z"/>
<path d="M 121.03 324.08 120.24 325.62 122.78 329.31 114.96 329.1 116 326.63 119.69 325.64 121.03 324.08 Z"/>
<path d="M 256.75 338.53 254.19 336.92 255.02 335.34 257.3 335.61 259.67 338.08 263.42 337.38 261.93 340.3 259.05 338.67 256.75 338.53 Z"/>
<path d="M 178.86 323.89 179.58 320.76 182.36 320.58 181.54 323.69 178.86 323.89 Z"/>
<path d="M 336.22 462.25 336.73 464.47 340.15 469.06 338.34 470.38 336.73 469.29 332.94 469.82 331.26 468.11 332.33 463.85 335.04 461.96 336.22 462.25 Z"/>
<path d="M 269.24 465.91 270.87 468.16 268.83 469.16 266.98 468.4 267.41 466.34 269.24 465.91 Z"/>
<path d="M 272.02 397 271.3 395.68 273.67 394.8 273.73 399.33 271.85 399.39 272.02 397 Z"/>
<path d="M 553.63 313.62 554.68 313.44 564.17 314.73 565.67 315.87 564.95 318.46 560.97 317.82 560.3 316.52 556.8 315.76 553.63 313.62 Z"/>
<path d="M 509.42 180.6 512.61 179.55 513.45 181.55 510.57 183.99 508.53 183.87 509.42 180.6 Z"/>
<path d="M 463.35 187.6 460.41 186.82 463.7 184.49 466.15 187.64 463.35 187.6 Z"/>
<path d="M 526.83 256.26 524.36 256.57 522.81 254.72 524.4 252.93 526.83 256.26 Z"/>
<path d="M 538.15 195.32 537.12 198.48 533.5 198.88 531.83 197.15 535.72 196.67 538.15 195.32 Z"/>
<path d="M 561.08 204.13 559.72 204.1 562.39 199.04 562.72 203.49 563.84 205.87 564.16 208.59 561.45 209.7 561.28 207.52 559.41 204.52 561.08 204.13 Z"/>
<path d="M 626.98 197.6 632.21 198.36 632.11 199.58 628.96 201.14 626.57 200.54 626.98 197.6 Z"/>
<path d="M 663.66 178.56 662.69 175.6 666.27 175 666.46 178.48 663.66 178.56 Z"/>
<path d="M 717.07 211.12 717.77 208.9 721.48 209.46 724.38 211.21 723.33 213.28 721.62 213.14 717.07 211.12 Z"/>
<g/>
<path d="M 734.5 178.54 733.13 176.57 734.22 175.58 740.17 175.41 742.49 178.87 746.87 180.7 748.05 182.02 746.85 183.6 743.99 183.89 737.39 181.77 734.5 178.54 Z"/>
<path d="M 719.99 258.92 724.3 254.18 725.18 254.49 724.52 259.04 722.85 259.57 719.99 258.92 Z"/>
<path d="M 772.69 251.36 772.09 253.07 769.62 254.12 768.32 251.75 771.18 250.06 769.19 248.5 772.34 247.92 774.5 249.86 772.69 251.36 Z"/>
<path d="M 772.75 453.21 769.93 455.93 768.8 454.51 772.75 453.21 Z"/>
<path d="M 727.4 458.6 724.52 458.89 724.58 456.92 727.32 457.37 727.4 458.6 Z"/>
<path d="M 746.15 462.15 746.26 460.72 748.5 460.09 748.99 462.58 746.15 462.15 Z"/>
<path d="M 778.59 435.29 776.95 431.64 778.57 431.02 780.84 432.36 780.49 434.73 778.59 435.29 Z"/>
<path d="M 701.78 396.28 701.76 396.26 695.52 398.73 695.83 397.19 700.93 394.43 702.46 395.15 701.78 396.28 Z"/>
<path d="M 671.11 423.92 671.73 423.33 672.68 422.63 673.44 422.07 674.45 421.12 675.19 420.16 675.25 419.89 675.41 419.17 675.87 418.3 677.1 417.36 683.71 413.08 684.43 412.05 685.04 411.64 686.28 411.16 688.71 411.04 689.66 413.04 689.86 413.45 690.56 413.43 690.33 413.06 690.01 412.13 689.2 410.71 689.08 410.05 689.26 409.93 689.33 409.89 690.99 409.21 692.02 408.61 692.76 408.47 693.22 408.28 694.72 408.1 694.39 408.49 695.21 409.37 692.13 414.25 690.13 413.84 690.23 417.09 689.64 418.26 686.22 420.92 684.63 423.2 683.21 424.44 681.92 425.24 680.54 426.39 676.56 428.88 676.32 428.9 673.58 428.62 672.24 428.49 670.39 428.02 669.67 428.33 668.85 428.29 667.69 428.43 667.22 428.64 667.06 428.39 667.8 427.94 668.72 427.05 669.11 426.56 669.96 425.49 670.62 425.22 670.72 424.79 671.11 423.92 Z"/>
<path d="M 717.94 386.03 718.29 385.79 719.07 386.22 722.94 383.67 722.86 385.74 719.09 387.6 717.94 386.03 Z"/>
<path d="M 774.21 423.14 777.56 427.09 774.64 426.95 774.21 423.14 Z"/>
<g/>
<path d="M 653.9 504.59 653.84 504.79 653.57 505.18 652.88 505.22 653.14 506.34 653.6 508.68 653.08 509.85 650.03 511.89 647.44 512 646.52 512.26 645.96 512.88 643.47 513.79 640.51 514.26 639.46 514.09 638.67 514.22 638.63 514.47 637.05 515.7 635.67 514.71 635.69 514.16 636.33 513.68 638.06 507.04 640.01 504.98 642.62 505 642.93 505.14 643.22 505.27 644.42 505.8 644.91 505.84 645.9 505.68 646.64 505.41 646.76 504.81 646.95 504.46 648.47 503.58 649.48 503.52 651.99 503.43 652.61 503.29 653.39 503.23 654.25 503.45 655.28 503.33 653.9 504.59 Z"/>
<path d="M 675.84 518.54 679.45 516.5 681.77 519.12 680.02 519.43 678.21 517.78 675.84 518.54 Z"/>
<path d="M 718.66 526.44 719.97 527.6 724.95 528.65 724.87 530.27 720.74 528.73 718.18 528.65 714.52 525.91 712.09 525.33 711.72 522.35 712.36 520.85 715.51 521.11 715.2 524.08 718.66 526.44 Z"/>
<path d="M 702.19 518.68 700.44 520.87 697.54 518.85 699.12 517.78 702.19 518.68 Z"/>
<path d="M 649.97 497.34 647.77 496.17 647.71 491.91 651.15 492.26 653.64 497.48 657.51 500.1 656.35 502.65 652.36 502.65 650.14 501.5 651.52 500.2 649.97 497.34 Z"/>
<g/>
<path d="M 704.37 510.1 702.27 509.03 704.47 507.63 708.36 511.42 706.76 512.18 704.37 510.1 Z"/>
<g/>
<path d="M 690.33 508.54 690.81 507.39 696.63 502.75 698.71 503.64 698.36 505.45 694.2 507.16 693.83 508.56 690.33 508.54 Z"/>
<path d="M 699.25 513.33 702.46 511.83 704.25 513.21 702.95 514.34 699.25 513.33 Z"/>
<path d="M 696.65 476.47 693.38 477.99 692.31 477.33 693.85 475.01 696.53 474.62 696.65 476.47 Z"/>
<path d="M 772.34 489.68 779.66 487.93 780.11 490.22 782.48 491.62 781.08 493.6 777.4 491.66 772.34 489.68 Z"/>
<path d="M 210 563.8 210.17 566.89 206.77 566.52 210 563.8 Z"/>
<path d="M 214.57 568.1 212.39 568.23 211.77 566.52 212.8 564.89 215.4 565.9 214.57 568.1 Z"/>
<path d="M 240.36 549.99 235.81 549.41 236.86 547.97 240.32 548.2 240.36 549.99 Z"/>
<path d="M 673.62 265.54 672.59 263.28 675.04 261.8 677.12 262.02 673.62 265.54 Z"/>
<g/>
<g/>
<path d="M 20.17 450.43 19.1 448.33 22.44 447.45 22.64 444.28 26.45 444.55 30.71 445.89 32.93 447.14 33.28 451.11 31 453.52 26.49 452.55 24.7 455.5 21.72 455.02 19.8 451.69 20.17 450.43 Z"/>
<path d="M 606.94 560.76 606.98 565.33 605.17 566.79 601.21 565.24 601.46 563.66 597.39 561.33 596.79 560.22 593 558.2 593.54 556.47 597.03 556 599.59 558.53 604.01 561.17 606.94 560.76 Z"/>
<path d="M 252.2 474.06 255.64 475.01 255.49 476.94 252.1 475.28 252.2 474.06 Z"/>
<path d="M 17.27 561.85 17.97 560.45 20.6 559.38 24.78 561.41 23.92 562.75 18.67 562.88 17.27 561.85 Z"/>
<g/>
<g/>
<g/>
<path d="M 148.36 587.88 149 590.25 145.93 589.61 145.17 587.64 146.53 586.54 146.26 584.32 144.86 582.84 146.2 581.21 149.27 580.97 149.57 582.63 148.36 587.88 Z"/>
<g/>
<path d="M 171.04 566.87 170.86 565.67 175.3 565.49 173.22 567.63 171.04 566.87 Z"/>
<g/>
<path d="M 224.68 584.14 223.88 587.78 221.76 588.31 222.97 583.79 224.68 584.14 Z"/>
<path d="M 252.3 576.48 248.51 577.22 248.14 574.22 251.58 573.56 252.3 576.48 Z"/>
<g/>
<g/>
<path d="M 248.27 545.13 251.48 541.9 252.55 543.55 251.03 546.22 248.27 545.13 Z"/>
<path d="M 217.04 536.34 216.24 539.16 210.74 540.79 210.54 539.21 214.88 537.91 217.04 536.34 Z"/>
<path d="M 152.97 482.6 147.39 481.88 143.56 480.15 144.68 478.41 143.79 476.1 147.68 475.98 147.66 478.94 150.42 478.34 152.07 479.23 152.97 482.6 Z"/>
<path d="M 131.34 476.59 135.43 473.73 136.75 475.83 134.63 476.27 134.01 477.91 131.34 476.59 Z"/>
<path d="M 191.32 450.08 192.53 449.05 195.14 449.88 192.84 451.52 191.32 450.08 Z"/>
<path d="M 83.38 399.43 86.65 398.94 86.88 401.63 84.74 401.55 83.38 399.43 Z"/>
<path d="M 75.05 393.96 75.64 391.84 77.64 391.01 79.26 393.24 75.05 393.96 Z"/>
<path d="M 417.78 513.48 420.48 512.06 420.44 514.73 417.78 513.48 Z"/>
<path d="M 317.28 555.75 320.12 553.9 324.4 555.38 325.04 558.94 322.57 563.62 319.26 563.51 319.79 561.17 318.23 559.25 317.28 555.75 Z"/>
<path d="M 278.83 588.27 279.57 586.67 282.39 585.7 282.78 588.36 279.98 589.49 278.83 588.27 Z"/>
<path d="M 273.64 583.31 274.36 584.4 273.48 586.57 270.33 586.32 267.8 584.12 272.84 582.65 273.64 583.31 Z"/>
<path d="M 267.14 558.68 268.6 558.16 270.13 560.36 267.28 563.86 265 561.13 267.14 558.68 Z"/>
<path d="M 269.55 539.51 266.56 544.5 266.4 540.24 264.94 539.21 262.16 540.65 259.3 539.7 262.12 538.47 269.55 539.51 Z"/>
<path d="M 279.39 550.73 282.02 553.39 280.77 555.8 278.19 557.3 276.46 551.25 279.39 550.73 Z"/>
<path d="M 306.51 552.48 305.82 550.32 309.71 550.51 308.98 552.21 306.51 552.48 Z"/>
<path d="M 369.09 579.46 367.5 583.58 362.01 584.26 360.17 582 364.1 580.6 364.56 578.56 369.09 579.46 Z"/>
<path d="M 256.36 475.98 256.05 473.45 259.46 473.71 259.75 475.69 256.36 475.98 Z"/>
<path d="M 266.48 480.86 264.81 481.45 262.08 480.53 261.13 478.76 264.98 479.31 266.48 480.86 Z"/>
<g/>
<path d="M 511.99 535.42 508.8 535.19 505.32 532.64 509.56 529.9 511.21 530.21 511.99 535.42 Z"/>
<path d="M 464.96 561.21 461.21 565.98 458.72 567.94 457.49 566.93 464.28 561.02 464.96 561.21 Z"/>
<path d="M 453.72 571.09 456.35 567.9 458.39 568.35 454.83 572.4 453.72 571.09 Z"/>
<path d="M 451.27 571.19 452.03 573.95 449.44 576.17 447.22 572.53 448.55 571.4 451.27 571.19 Z"/>
<path d="M 554.31 479.62 555.64 476.9 557.89 477.44 556.08 480.09 554.31 479.62 Z"/>
<path d="M 549.84 486.14 550.27 485.36 549.96 483.8 551.57 481.49 554.12 479.93 554.92 480.44 555.54 480.5 555.81 480.63 556.12 481.23 557.15 482.3 557.17 482.85 557.7 489.62 557.7 490.1 560.13 492.98 560.6 494.07 559.95 494.97 554.55 496.58 552.29 497.26 544.96 500.18 544.63 500.14 543.03 498.66 543.44 498.04 543.79 496.72 544.2 495.94 545.72 493.74 546.53 493.02 546.46 492.01 547.18 490.67 548.98 486.52 549.84 486.14 Z"/>
<path d="M 682.64 537.64 683.23 539.14 677.88 539.35 677.88 537.11 682.64 537.64 Z"/>
<path d="M 639.74 578.06 638.36 577.2 639.56 575.2 641.35 574.9 641.8 577.32 639.74 578.06 Z"/>
<path d="M 623.32 590.78 626.49 589.06 627.52 591.22 623.32 590.78 Z"/>
<path d="M 614.94 592.82 618.38 590.02 619.78 591.81 619.04 593 614.94 592.82 Z"/>
<path d="M 663.29 561.54 664.89 562.98 665.2 564.87 662.71 565.86 660.31 563.37 660.9 561.33 663.29 561.54 Z"/>
<path d="M 670.91 578.02 663.89 569.09 664.67 567.44 667.82 567.47 668.11 571.19 669.84 571.91 672.47 577.61 670.91 578.02 Z"/>
<path d="M 622.91 551.51 625.11 550.18 627.62 551.91 626.02 552.85 622.91 551.51 Z"/>
<path d="M 658.35 533.11 658.8 534.1 656.87 536.51 657.88 539.6 656.52 540.5 654.91 537.87 655.78 535.46 651.83 534.53 650.76 532.78 652.55 531.06 654.65 531.01 657.14 533.34 658.35 533.11 Z"/>
<path d="M 693.85 569.77 690.87 569.4 690.58 567.16 693.09 566.77 697 569.13 696.24 572.86 699 574.81 695.75 575.41 694.88 570.64 693.85 569.77 Z"/>
<path d="M 691.69 561.37 692.31 560.98 697.74 562.13 693.36 563.31 691.69 561.37 Z"/>
<path d="M 712.15 541.8 709.17 543.1 706.35 543.22 704.25 544.48 701.98 544.06 704.27 541.55 712.15 541.8 Z"/>
<path d="M 711.06 548.51 713.35 548.94 712.87 550.57 710.14 551.2 708.39 550.61 711.06 548.51 Z"/>
<path d="M 720.32 546.53 722.48 547.6 717.69 549.87 715.88 548.32 716.52 547.03 720.32 546.53 Z"/>
<path d="M 609.82 503.72 608.68 503.68 604.05 501.7 602.47 497.48 604.12 497.11 609.82 503.72 Z"/>
<path d="M 614.22 502.16 612.18 502.53 608.46 499.38 606.44 493.74 603.93 490.76 604.09 487.65 607.47 488.39 609.53 490.88 612.04 491.93 613.44 494.36 614.14 497.51 614.22 502.16 Z"/>
<path d="M 608.68 503.68 609.82 503.72 613.5 508.13 609.98 512.22 607.72 510.43 608.01 509.42 611.15 508.79 607.84 506.56 607.31 504.54 608.68 503.68 Z"/>
<path d="M 624.99 477.83 628.05 478.67 628.44 479.66 623.61 483.12 622.76 482.54 624.99 477.83 Z"/>
<path d="M 322.61 199.16 323.21 197.99 327.84 197.99 327.06 199.18 322.61 199.16 Z"/>
<path d="M 761.84 548.9 760.6 547.52 760.75 545.2 764.29 545.71 761.84 548.9 Z"/>
<path d="M 740.21 194.22 739.63 189.86 742.86 190.99 740.21 194.22 Z"/>
<path d="M 521.91 514.12 518.16 513.4 518.06 511.69 523.51 513.11 521.91 514.12 Z"/>
<g/>
<path d="M 38.45 535.07 33.55 535.46 32.25 534.02 34.79 533.11 38.45 535.07 Z"/>
<path d="M 280.25 15.05 276.98 14.27 283.36 10.98 283.48 13.26 280.25 15.05 Z"/>
<path d="M 400.7 283.74 398.31 281.31 396.73 277.69 398.85 276.66 401.26 276.64 404.67 278.41 406.22 279.95 409.01 284.54 412.16 287.69 408.89 288.62 404.61 286.95 400.7 283.74 Z"/>
<g/>
<path d="M 89.66 343.59 89.21 341.66 91.63 341.12 92.31 342.66 89.66 343.59 Z"/>
<path d="M 485.99 417.05 485.99 417.28 483.32 419.5 481.3 419.93 476.79 418.96 476.75 416.93 473.25 415.28 470.87 415.92 469.07 417.75 465.76 418 462.73 417.3 460.24 416.14 460.51 415.9 461.5 416.66 466.85 417.91 469.3 417.34 470.8 415.77 473.05 415.11 475.13 415.48 476.92 416.97 477.72 419.13 481.05 419.72 483.61 418.92 485.99 417.05 Z"/>
<path d="M 371.1 178.48 377.17 178.4 376.89 179.55 371 179.55 371.1 178.48 Z"/>
<path d="M 370.61 179.92 376.58 179.69 376.12 180.87 370.61 180.85 370.61 179.92 Z"/>
<path d="M 370.32 181.15 376.29 181.07 375.98 182.14 370.24 182.18 370.32 181.15 Z"/>
<path d="M 287.82 593 286.84 589.45 288.94 588.17 291.12 588.13 293.98 590.04 287.82 593 Z"/>
<path d="M 224.35 449.34 226.57 450.74 230.01 451.75 232.5 456.07 231.08 456.01 228.32 452.31 224.78 451.42 224.35 449.34 Z"/>
<path d="M 104.27 476.53 106.74 479.06 104.05 479.56 104.27 476.53 Z"/>
<path d="M 233.24 412.85 232.85 412.85 230.83 410.69 228.75 410.83 225.91 412.64 218.69 413.94 217.08 414.87 213.17 413.1 214.27 412.19 220.65 412.81 226.74 411.95 228.57 410.63 231.04 410.36 233.24 412.85 Z"/>
<path d="M 207.51 405.91 208.15 405.73 211.92 406 213.05 409 212.87 411.35 214.27 412.19 213.17 413.1 207.97 410.96 204.51 409.02 204.67 407.4 207.51 405.91 Z"/>
<path d="M 786.7 217.75 784.13 220.34 780.36 222.15 781.21 223.8 786.08 223.43 786.7 225.95 786.7 229.92 784.93 229.11 784.09 226.85 782.44 227.4 781.31 227.51 775.92 230.94 774.74 234.26 769.95 233.87 769.82 232.34 769.56 232.12 768.4 229.07 767 227.59 767.64 223.37 769.64 221.68 768.32 217.98 768.9 215.32 772.52 214.23 772.93 212.11 772.15 210.24 776.41 206.27 781.06 206.12 784.27 206.9 786.7 208.23 786.7 217.75 Z"/>
<path d="M 207.91 305.31 214.1 304.96 212.76 306.97 207.91 305.31 Z"/>
<path d="M 76.28 58.4 73.5 58.71 71.51 55.81 74.24 53.42 80.05 55.42 80.38 58.79 77.93 59.66 76.28 58.4 Z"/>
<g/>
<g/>
<path d="M 613.67 68.26 613.65 68.01 613.65 67.87 618.28 68.38 618.73 70.05 621.2 72.77 621.32 74.15 624.08 77.91 623.77 81.29 618.5 82.71 616.2 79.09 614.26 78.74 613.4 78.39 611.09 77.42 611.9 74.97 613.6 73.36 613.15 71.53 613.67 68.26 Z"/>
<path d="M 180.45 60.75 181.5 62.23 173.18 63.34 173.06 60.77 180.45 60.75 Z"/>
<g/>
<path d="M 403.44 80.1 404.16 80.28 406.36 82.54 407.2 82.98 407.8 83.84 408.81 83.8 409.24 82.19 410.72 79.46 414.9 75.79 416.82 76.64 417.93 76.39 417.29 74.89 418.38 73.1 421.9 74.21 422.97 72.07 427.13 74.6 424.43 75.49 422.15 74.41 418.09 74.09 418.24 75.88 417.72 76.86 416.53 76.76 414.39 76.47 412.43 80.18 409.49 82.22 409.06 83.99 408.03 84.05 407.49 83.8 403.44 80.1 Z"/>
<path d="M 285.01 179.69 285.25 177.55 289.23 176.09 292.81 177.66 293.49 181.2 291.74 182.04 284.55 182.37 285.01 179.69 Z"/>
<g/>
<path d="M 61.28 45.74 64.9 46.79 64.24 48.27 65.12 50.54 61.79 51.32 59.81 48.79 61.28 45.74 Z"/>
<path d="M 65.47 47.99 70.52 49.28 65.25 52.31 66.05 49.94 65.47 47.99 Z"/>
<path d="M 251.23 129.31 253.89 130.97 254.42 134.43 253.27 136.39 250.9 138.26 247.26 134.35 245.16 134.27 245.45 131.51 247.9 130.67 249.95 131.26 251.23 129.31 Z"/>
<path d="M 693.44 528.44 694.97 529.51 693.77 532.13 691.36 531.26 693.44 528.44 Z"/>
<g/>
<path d="M 684.51 216.7 682.25 216.97 680.76 215.61 685.11 214.68 684.51 216.7 Z"/>
<g/>
<path d="M 115.04 88.37 115.33 86.09 117.45 86.62 117.14 88.74 115.04 88.37 Z"/>
<g/>
<g/>
<path d="M 445.24 423.33 445.06 423.45 444.35 420.8 445.14 419.33 446.25 418.78 448.84 419.07 451.46 418.31 455.24 417.5 455.33 416.89 455.57 416.86 455.49 417.63 454.65 417.96 449.34 419.27 445.75 419.15 444.62 420.75 445.24 423.33 Z"/>
<path d="M 491.3 588.31 493.55 587.59 494 585.04 495.91 583.36 497.79 583.58 494.6 587.27 493.24 590.09 491.3 588.31 Z"/>
<path d="M 308.84 346.25 308.96 346.7 302.87 346.78 298.9 344.74 293.79 341.35 294.1 341.06 299.72 344.81 307.21 345.65 308.84 346.25 Z"/>
<g/>
<path d="M 726.48 187.45 727.79 191.22 725.86 192.74 725.74 188.44 726.48 187.45 Z"/>
<path d="M 711.31 185.44 710.44 182.9 711.02 177.8 715.07 176.46 718.96 178.48 717.92 182.57 715.03 185.6 711.31 185.44 Z"/>
<path d="M 683.69 126.88 684 124.08 686.53 124.59 687.04 126.61 689.16 126.82 689.39 128.98 691.2 130.09 692.54 132.68 695.67 136.72 692.76 136.7 690.93 134.47 690.66 132.27 688.65 130.3 683.69 126.88 Z"/>
<g/>
<g/>
<path d="M 139.49 551.72 139.7 554.42 136.88 553.72 139.49 551.72 Z"/>
<path d="M 558.71 35.33 557.21 37.43 555.58 35.6 558.71 35.33 Z"/>
<g/>
<path d="M 599.81 64.16 596.52 64.37 594.3 66.47 591.87 66.16 591.58 64.31 595.51 62.95 598.91 62.52 599.81 64.16 Z"/>
<path d="M 287.81 576.87 286.88 579.38 287.19 581.03 289.39 581.91 291.55 581.58 292.09 583.93 288.42 583.48 286.55 580.64 286.82 577.8 287.81 576.87 Z"/>
<path d="M 667.37 430.49 670.25 431.54 669.63 432.75 664.54 435.02 661.64 434.5 663.08 430.98 664.75 429.5 667.37 430.49 Z"/>
<g/>
<g/>
<path d="M 746.65 524.96 745.02 526.92 743.46 526.28 743.93 523.11 745.93 521.16 749.2 522.39 750.6 525.27 748.89 526.55 746.65 524.96 Z"/>
<g/>
<g/>
</g>
</svg>