<?xml version="1.0"?>
<svg xmlns="http://www.w3.org/2000/svg" version="1.2" baseProfile="tiny" width="800" height="612" viewBox="0 0 800 612" stroke-linecap="round" stroke-linejoin="round">
<defs>
    <style>
        :root {
            --water-color: #9FC9EA;
            --bg-color: #F2E7D3;
        }
    
        svg {
            background: var(--bg-color, #ffffff);
        }
        path, polygon, rect, circle {
            fill: var(--water-color, #3b82f6);
            stroke: none;
        }
    </style>
</defs>
<g id="water">
<path d="M 787.2 125.53 783.27 125.95 782.49 121.24 784.61 118.13 780.53 108.22 775.33 108.17 774.08 110.55 766.12 112.91 762.21 109.73 756.3 111.45 754.82 116.51 746.79 113.8 744.36 115.07 746.06 122.14 742.6 123.55 741.87 127.51 736.74 132.12 731.7 134.31 734.31 138.93 740.22 140.79 740.55 142.93 754.77 142.15 753.69 144.27 753.81 150.73 755.76 152.3 755.46 159.77 756.33 163.11 753.9 165.91 756.66 169.7 755.67 173.02 758.45 178.79 766.66 182.02 776.04 180.02 781.03 181.6 785.15 187.53 785.55 191.96 781.52 202.15 777.83 203.92 783.5 192.12 782.98 188.1 779.92 183.67 775.5 182.16 771.19 183.5 769.58 186.42 756.21 194.55 749.15 196.31 741.96 194.34 730.94 188.99 723.17 178.96 731.96 177.83 736.29 174.23 740.95 165.77 709.77 151.15 700.12 145.83 707.51 139.28 704 132.57 694.02 144.23 685.19 140.03 682.95 142.72 685.61 146.32 671.11 147.81 670.66 150.09 672.52 161.51 660.25 162.95 660.2 157.46 655.59 156.05 653.28 153.79 656.3 151.27 655.14 145.76 649.44 141.73 644.97 140.36 638.26 141.19 645.37 135.47 642.76 132.12 634.49 126.33 612.59 122.04 605.83 125.6 595.45 136.1 578.26 150 573.5 152.02 568.23 155.83 565.05 156.61 562.25 153.76 558.38 152.42 552.87 152.63 546.8 159.27 547.25 165.35 553.53 167.23 551.77 172.58 540.75 176.49 533.99 182.92 516.44 205.26 507.19 215.48 507.17 216.99 501.16 220.92 496.22 227.8 497.06 231.24 492.43 234.08 490.49 237.26 491.18 240.87 487.9 245.15 492.45 246.38 500.97 242.8 508.72 242.35 516.73 244.16 535.75 250.83 540.16 254.95 543.34 262.2 549.69 266.32 554.14 267.62 566.44 269.55 575.31 277.34 578.19 278.92 576.23 283.63 579.36 288.72 575.08 288.93 570.02 277.46 569.83 275.36 564.11 270.75 548.26 267.55 541.81 262.93 538.63 255.8 535.64 252.73 516.66 245.91 506.98 243.97 501.42 244.54 494.24 249.2 490.45 253.3 488.94 258.48 491.04 263.45 491.77 268.89 490.28 274.63 491.48 276.68 487.08 284.34 482.18 290.86 479.26 293.05 473.4 305.03 470.81 314.22 472.39 319.61 468.29 320.11 462.57 323.66 465.96 327.59 460.99 333.08 456.56 331.55 452.96 328.54 450.18 323.31 444.95 322.22 413.3 325.71 408.85 328.25 404.43 332.49 407.44 333.93 402.73 342.83 397.76 350.13 395.24 355.33 389.54 353.76 380.27 368.19 374.64 372.99 377.28 375.51 369.34 382.27 366.8 379.19 371.6 376.34 369.88 374.69 358.77 381.85 355.33 383.45 357.76 391.29 357.28 396.52 361.64 399.74 371.55 404.43 374.43 410.06 371.11 416.84 360.91 418.42 358.65 404.36 355.54 403.04 358.16 416.86 360.98 419.24 372.85 418.39 376.73 410.36 384.36 410.03 385.87 411.78 393.41 412.93 394.77 410.13 399.46 409.78 399.95 412.81 393.22 415.22 401.13 419.97 397.36 423.5 388.46 418.35 385.31 425.91 379.35 422.47 375.6 424.71 382.27 429.06 379.77 431.51 369.86 425.6 366.87 426.73 373.89 431.09 372.12 432.81 363.31 428.54 358.98 431.7 366.04 435.96 362.54 439.26 356.13 435.47 354.91 436.53 361.17 440.6 357.92 444.37 349.98 443.73 347.65 449.05 343.81 450.56 339.91 454.4 343.2 459.51 339.46 461.89 333.52 467.89 328.13 465.14 323.94 468.95 319.73 467.23 313.56 473.5 315.93 475.85 313.25 479.76 303.05 500.58 301.17 515.03 301.78 523.47 304.61 534.93 307.9 540.37 313.18 545.62 314.52 548.9 322.13 556.22 331.22 560.88 349.61 563.31 356.81 566.06 365.95 566.93 375.89 570.68 387.05 577.55 392.58 582.05 397.24 589.31 401.18 588.22 405.79 590.6 403.2 597.05 404.85 599.15 399.04 602 242.26 602 253.11 590.91 267.8 577.06 275.34 571.86 273.29 557.75 269.12 556.5 264.86 550.69 258.17 543.86 255.25 537.99 244.44 527.73 235.21 521.3 229.63 513.74 228.38 508.18 229.21 506.18 227.3 495.94 228.29 492.48 226.88 482.99 227.86 481.64 227.58 472.27 231.7 470.76 230.01 466.64 224.05 465.18 220.33 461.44 213.95 458.4 206.48 458.05 199.47 456.49 180.13 463.49 174.76 464.71 163.16 465.44 154.94 463.89 142.97 464.29 132.9 468.43 128.42 471.57 122.79 473.78 115.75 475.1 113.94 473.92 107.3 477.22 96.7 476.89 83.47 473.03 65.53 477.05 60.84 480.21 58.13 478.84 49.68 480.14 40.61 484.28 35.48 482.8 27.9 482.37 23.77 480.66 17.75 480.37 18.92 476.28 15.58 475.17 12.8 476.9 12.8 438.96 17.11 436.22 20.88 430.83 30.77 423.9 49.47 431.49 72.92 397.55 22.29 366.19 25.52 361.55 60.37 383.14 79.68 361.79 69.03 350.48 37.46 339.6 39.41 335.43 73.6 347.19 86.72 361.64 88.96 363.46 104.17 346.9 102.85 342.83 108.26 340.76 112.41 333.41 115.75 325.05 115.66 321.09 110.76 310.1 109.16 295.47 110.03 288.06 113.99 278.21 117.31 266.02 120.42 258.41 121.29 246.12 117.99 242.14 111.18 239.57 102.83 238.61 83.02 239.76 72.87 241.27 65.69 245.65 58.63 254.78 49.18 258.5 32.94 258.08 24.15 256.2 18.92 252.88 12.8 244.04 12.8 233.84 16.62 242.68 20.43 249.77 23.21 252.69 28.7 255.42 43.2 253.84 51.28 253.89 56.67 250.9 61.9 243.69 70.52 238.7 75.82 236.96 99.98 234.6 111.51 234.86 119.43 237.5 125.62 241.34 127.27 247.84 124.49 262.81 122.11 273.01 118.08 283.65 120.98 284.38 120.98 288.43 125.57 294.91 132.14 294.79 139.11 291.05 148.3 291.12 150.04 289.35 142.86 287.56 143.23 285.89 152.44 287.77 159.32 282.12 161.46 274.56 161.58 268.42 168.38 255.23 174.53 249.3 181.95 244.52 190.82 241.15 199.14 240.28 207.38 237.48 213.01 234.39 216.63 233.68 220.78 227.89 219.79 223.46 212.09 223.75 201.35 225.23 185.31 224.71 181.76 223.58 175.49 219.39 172.15 212.8 173.12 204.51 177.21 196.88 136.17 189.96 139.82 183.93 141.59 183.9 144.36 178.91 154.11 167.19 159.08 164.19 161.25 160.17 157.06 158.14 129.93 188.85 126.8 187.65 139.35 156.92 133.88 155.15 133.53 151.13 128 148.13 130.47 144.7 120.02 142.32 112.03 141.64 111.61 138.81 114.67 133.54 125.57 142.58 132.45 132.33 131.41 127.46 135.82 129.08 140.88 133.51 141 139.33 141.75 138.67 151.85 137.07 165.32 148.09 157.69 157.53 163.06 157.06 168.19 154.61 170.6 152.11 178.56 147.71 175.56 145.03 177.05 142.88 172.17 140.81 165.25 147.52 153.1 137.77 161.62 131.2 165.58 132.03 169.58 135.91 166.78 140.69 174.81 140.51 177.8 143.12 179.69 147.73 178.98 150.32 182.37 154.14 184.54 153.03 188.23 144.6 194.52 137.51 197.82 135.02 196.71 131.91 185.53 129.72 183.52 126.71 187.1 119.22 180.7 116.13 172.15 110.06 173.35 108.93 180.91 114.56 188.45 117.57 184.91 128.47 200.78 130.76 206.44 125.53 208.48 117.71 211.81 111.24 220.94 106.55 221.79 102.71 217.08 98.78 197.98 85.85 189.72 81.45 184.14 75.51 181.17 67.84 182.72 65.65 186.91 76.57 200.67 85.5 211.57 93.13 220.78 98.9 223.72 103.28 227.58 104.19 235.42 103.65 241.45 93.53 246.33 88.77 255.13 84.44 274.91 81.87 281.58 81.71 289.77 79.87 299.85 79.42 313.34 79.92 319.35 75.68 324.51 62.54 324.72 57.03 315.79 50.41 315.7 43.42 313.13 39.81 312.26 35.18 314.03 31.15 319 27.83 327.47 23.5 327.71 20.06 323.94 11.18 329.86 10 334.77 20.53 328.91 28.16 319.87 34.85 320.38 41.18 324.67 49.4 331.81 56.93 331.83 66 328.93 69.32 333.85 69.72 335.1 62.63 340.19 62.82 346.64 60.11 344.26 65.76 342.47 66.92 337.81 62.96 335.67 64.16 334.73 70.94 328.2 70.94 324.27 76.86 319.84 81.71 312.19 87.33 320.53 92.07 321.35 94.19 326.13 95.29 322.48 99.39 322.08 104.62 318.67 110.01 315.02 113.33 307.01 109.68 306.14 107.47 319.11 94.19 317.37 92.04 309.22 97.93 309.46 100.94 292.43 118.51 285.6 115.47 284.24 112.88 279.32 111.07 282.83 105.14 292.67 101.53 299.17 101.32 300.7 99.23 298.32 91.13 297.73 85.57 294.32 85.1 276.23 87.5 268.86 87.5 259.89 89.81 248.8 96.52 241.15 104.85 233.75 109.4 225.93 111.16 227.3 113.38 232.34 115.33 230.36 119.1 226.22 118.28 221.6 122.54 218.56 126.99 213.27 128.66 211.26 132.92 208.63 134.57 197.44 145.92 192.66 149.88 189.81 154.12 193.77 161.58 197.11 170.72 197.58 176.84 195.93 184.7 184.61 198.06 180.37 205.97 179.21 210.32 180.04 215.43 181.85 217.11 189.2 216.85 197.84 214.59 212.56 212.54 216.59 213.55 224.62 219.51 226.31 225.68 223.56 232.88 216.18 238.86 207.38 243.2 194.29 246.16 184.37 251.67 179.21 255.51 176.86 262.32 173.85 265.76 171.87 274.4 173.12 279.84 170.76 284.31 170.81 287.82 166.97 293.66 160.56 294.41 149.29 302.63 155.62 306.54 146.34 307.95 146.13 313.25 149.17 314.05 149.52 327.15 153.88 325.9 155.17 328.09 160.31 329.69 152.42 338.94 147 340.31 144.91 342.17 146.22 345.23 141.3 351.09 137.82 357.73 133.39 359.52 135.6 363.34 132.28 367.91 119.38 383 124.47 385.47 124.49 387.43 117.92 393.2 114.67 394.45 109.68 401.63 104.07 401.49 99.53 408.46 99.13 416.7 96.7 417.97 92.16 416.06 86.13 422.73 89.14 427.01 86.48 431.13 79.98 436.71 77.75 435.75 73.58 440.65 69.34 442.63 69.83 445.71 63.36 452.63 59.43 454.73 58.77 458.36 55.85 461.82 57.02 466.38 61.38 468.53 68.02 467.42 71.44 465.56 77.89 464.05 80.34 465.21 98.7 465.96 117.85 462.36 122.56 456.85 129.08 454.96 127.74 447.22 133.72 451.74 144.67 452.28 150.53 451.46 151.15 453.62 171.4 455.72 180.46 452.99 194.5 444.91 197.35 440.93 191.79 440.46 188.68 435.14 188.14 430.36 185.34 424.3 187.06 420.73 183.83 416.98 172.64 415.29 169.54 417.62 160.94 410.32 146.88 408.65 149.12 405.89 188.54 411.8 218.94 422.02 233.68 428.4 238.79 421.46 206.98 407.66 188.35 401.25 181.99 399.96 178.44 397.46 172.83 395.84 176.51 392.54 181.71 394.71 187.48 392.56 192.43 392.92 196.71 394.59 199.51 397.98 242.79 416.23 246.7 411.49 247.08 409.23 240.2 405.54 230.48 402.03 216.02 395.84 209.33 392.47 209.31 389.48 218.21 393.65 221.93 389.34 226.88 381.45 232.64 379.35 210.89 364.4 214.25 362.16 220.49 362.63 224.38 365.22 227.25 362.94 229.94 362.59 234.13 366.16 235.07 359.22 240.32 352.77 245.76 349.09 240.91 346.6 244.35 340.71 256.43 347.82 257.72 349.54 264.62 353.1 263.87 355.05 271.08 358.04 272.49 355.22 268.41 352.25 270.96 348.46 276.33 343.98 279.34 345.54 285.77 338.03 291.35 332.73 302.7 325.12 298.08 322.39 302.89 321.02 317.86 322.6 319.37 315.58 316.83 314.81 286.08 311.27 279.79 310.17 281.86 307.7 300.53 309.63 298.11 307.37 301.12 304.4 303.08 309.44 306.89 310.47 313.39 308.83 320.6 308.68 322.41 304.14 323.45 290.72 325.85 288.46 325.99 284.59 319.37 284.01 320.31 279.34 330.53 280.17 330.72 278.26 320.27 277.27 323.33 274.75 329.19 274.07 326.74 270.11 327.92 264.23 327.9 257.3 335.1 255.82 341.3 248.71 335.67 247.7 338.09 239.57 340.45 238.63 342 234.53 346.17 231.54 346.88 226.71 344.59 222 345.3 207.5 335.81 205.45 335.95 201.28 341.25 199 345.09 200.39 347.58 196.03 354.18 187.34 357.59 186.73 360.32 183.95 359.92 179.24 368 168.08 374.5 165.28 377.04 161.89 374.17 160.47 372.57 157.15 375.56 153.34 378.15 154.47 385.57 145.38 387.43 146.16 392.39 142.41 406.55 124.02 404.43 122.99 413.49 115.47 413.33 114.01 418.93 107.16 413 104.48 417.64 100.83 418.18 98.17 422.46 92.09 424.11 92.59 431.51 84.25 436.1 81.19 440.46 82.79 442.25 80.1 438.67 77.09 443.49 74.62 443.05 71.63 447.47 65.95 446.84 64.85 452.98 59.81 458.35 52.29 468.03 37.08 466.69 34.92 470.9 32.04 472.86 27.4 471.87 25.85 475.09 21.07 475.92 15.61 471.35 13.7 471.98 10 520.15 10 517.27 19.82 508.3 33.55 505.94 36 500.6 36.75 495.16 44.99 498.48 47.99 485.15 62.63 473.23 80.2 465.46 90.49 428.52 143.31 426.23 148.42 421.36 153.5 408.01 172.65 408.38 175.8 404.26 180.54 397.29 177.59 396.35 178.84 403.93 182.04 402 184.94 397.72 186.78 389.38 197 382.06 208.32 376.57 220.9 378.67 223.61 377.61 229.42 378.41 235.19 375.58 243.81 373.7 264.41 366.89 263.9 366.21 268.75 373.2 269.69 370.45 285.54 368.45 288.97 368.87 293 360.65 292.27 358.06 307.06 354.46 321.82 356.58 326.32 364.35 334.14 368.26 334.94 373.72 334 392.16 322.86 394.89 325.31 398.61 323.35 397.17 319.96 406.66 315.47 425.55 312.73 427.39 314.62 444.15 312.97 451.12 311.42 455.76 307.65 462.45 291.66 466.48 275.32 467.02 266.98 462.57 262.44 460 252.26 464.76 251.86 464.38 243.76 466.17 235.54 468.76 231.54 480.06 217.67 497.39 198.57 507.33 189.7 526.45 168.03 534.51 160.07 536.6 156.28 532.15 144.77 533.89 139.73 541.71 135.37 545.67 130.85 551.11 121.64 556.62 117.69 564.39 113.38 567.1 108.27 567.1 98.1 562.08 88.96 556.45 82.74 554.59 78.01 555.65 68.4 555.82 54.25 552.66 23.21 553.53 17.09 557.45 10 561.61 10 557.18 18.39 556.22 24.96 557.72 35.34 559.07 37.25 559.51 54.08 559.25 65.48 558.12 76.76 559.35 80.34 563.73 84.98 570.86 94.42 579.86 94.75 584 96.61 588.1 101.89 602.51 107.96 608.14 108.53 616.08 102.9 624.76 93.2 630.44 89.43 639.18 87.8 646.88 84.53 647.3 86.25 654.86 85.62 663.85 88.94 670.38 95.62 681.68 94.59 686.34 93.34 687.43 96.64 697.86 98.61 702.12 96.99 710.5 84.56 702.85 70.43 700.26 68.07 683.87 62.04 675.58 54.77 677.16 54.34 685 60.09 691.01 62.61 702.38 65.48 705.25 67.13 711.4 75.47 723.69 76.86 728.45 77.96 731.77 77.18 733.49 81.12 732.05 86.46 740.34 90.07 752.82 89.85 758.33 88.75 756.19 82.91 753.9 81.56 752.98 77.77 757.69 71.56 759.34 75.07 764.17 72.97 772.17 56.2 776.48 53.99 777.4 49.8 770.9 36 769.44 31.17 770.39 28.28 776.91 22.2 777.59 19.96 776.53 10 778.87 10 779.17 22.13 772.27 28.46 771.33 34.16 778.84 47.23 778.96 55.83 776.32 60.09 778.16 63.29 775.94 73.46 782.96 86.56 787.2 87.87 787.2 125.53 Z M 289.49 359.43 294.55 362.99 296.65 359.24 291.94 357.15 289.49 359.43 Z M 184.07 160.33 181.12 156.47 181.29 154.26 176.65 149.36 171.87 153.32 185.27 168.79 184.07 160.33 Z M 185.64 170.55 178.23 162 173.16 164.03 174.67 168.48 187.53 176.23 185.64 170.55 Z M 188.47 180.07 187.76 177.12 175.61 169.94 170.88 171.02 169.56 177.24 176.06 184.52 179.85 186.26 185.81 186.71 189.2 183.08 188.47 180.07 Z M 369.65 355.99 366.51 353.03 360.56 351.82 353.45 352.41 352.41 354.89 338.75 367.91 339.29 372.9 346.4 373.14 362.23 365.95 368.96 363.98 371.01 361.17 369.65 355.99 Z M 27.97 469.71 25.42 466.74 19.98 464.76 20.57 473.03 23.94 473.9 27.97 469.71 Z M 551.04 135.94 553.09 140.69 563.28 142.44 568.51 145.38 571.1 145.26 581.63 139.4 583.04 135.21 591.89 125.53 599.87 119.27 603.03 114.89 599.26 107.7 596.22 105.58 586.97 101.49 582.1 96.26 575.81 96 572.42 100.5 570.84 105.75 572.11 110.36 568.84 116.77 571.33 119.85 569.47 122.3 565.64 121.01 561.52 122.99 551.37 134.36 551.04 135.94 Z M 540.82 164.34 536.27 166.5 530.15 171.92 519.91 184.92 517.62 186.47 512.82 192.92 508.98 196.29 497.79 209.1 490.8 218.4 499.04 213.46 512.14 201.24 534.6 175.21 538.67 172.6 540.7 169.52 540.82 164.34 Z M 676.41 112.04 673.6 110.95 666.28 104.99 657.28 106.05 654.53 108.79 652.69 117 654.18 123.62 658.53 124.4 661.01 130.24 664 131.56 670.12 131.93 685.82 135.11 690.51 133.96 697.5 134.1 702.5 131.58 704.03 129.08 702.94 123.88 696.02 119.95 692.18 116.79 683.33 112.88 676.41 112.04 Z M 643.16 98.9 639.51 95.34 634.91 99.67 635.03 102.83 641.44 101.04 643.16 98.9 Z M 303.22 334.96 297.14 340.78 301.88 344.48 311.18 337.7 305.95 334.02 303.22 334.96 Z M 231.47 366.82 226.76 363.98 224.71 365.58 227.23 368.97 233.85 373.98 235.38 372.78 233.82 367.81 231.47 366.82 Z M 400.01 602 410.86 596.56 412.03 599.74 407.14 602 400.01 602 Z M 561.8 602 565.66 601.01 562.17 596.32 561.47 590.11 558.57 585.07 561.09 584.29 565.31 587.77 563.52 594.53 570.09 598.37 572.97 602 561.8 602 Z M 593.94 602 602.11 597.92 601.29 595.24 596.67 592.6 592.5 587.8 582.38 580.69 571.01 571.55 564.34 568.75 559.94 565.31 561.73 563.19 573.5 570.16 579.06 572.28 581.84 568.23 585.2 567.64 598.2 573.41 603.6 579.04 607.25 585.07 608.3 592.18 607.41 599.24 608.01 602 593.94 602 Z M 586.45 580.22 593.19 584.03 597.5 590.04 601.03 591.92 605.17 590.58 605.31 585.56 601.69 580.78 595.75 575.44 590.46 572.49 586.78 572.61 582.92 575.22 586.45 580.22 Z M 625.58 602 635.55 599.93 638.48 602 625.58 602 Z M 686.09 602 682.39 590.32 678.74 573.06 674.57 564.56 676.24 561.61 671.7 559.35 666 559 657.92 561.87 651.87 564.98 641.04 563.97 638.23 563.03 628.39 565.38 623.05 565.38 615.2 567.69 603.88 566.28 601.45 564.98 589.56 553.7 593.07 550.85 592.86 547.55 598.44 543.81 596.32 540.02 600.44 538.75 601.24 544.28 597.4 546.92 595.92 550.99 596.06 555.61 603.85 562.48 609.74 563.45 615.79 562.15 612.47 557.8 621.23 556.69 623.02 560.04 631.5 557.99 630.23 547.18 617.04 535.69 612.83 532.6 615.72 530.67 634.96 548.05 633.12 555.3 635.62 558.55 643.11 558.43 651.59 555.49 654.58 550.17 659.12 546.45 659.4 544.16 654.06 539.52 646.88 538.35 643.84 532.67 645.46 523.7 642.1 520.36 634.28 520.69 629.1 514.59 615.18 507.95 599.8 501.57 594.95 498.93 597.73 496.24 601.41 498.76 611.11 502.67 644.36 517.77 646.19 518.4 655.47 514.45 659.92 508.75 665.13 505.47 670.52 503.68 673.79 506.63 676.41 504.96 673.11 501.99 675.75 497 680.9 494.57 689.59 487.13 686.18 483.25 674.43 472.01 668.02 468.5 664.02 463.58 656.34 456.45 658.98 455.55 664.4 458.92 664.54 462.36 669.39 467.94 674.45 466.83 679.23 471.85 682.29 472.67 681.89 475.71 686.84 480.4 690.86 481.55 693.71 484.49 697.72 486.14 702.85 484.26 706.62 481.53 705.63 477.24 699.6 469.94 698.59 464.62 704.24 465.33 708.52 473.71 711.87 477.41 717.1 475.69 723.48 471.49 735.84 469.07 736.48 467.11 733.49 461.13 736.74 452.42 733.56 449.81 729.41 442.67 730.59 441.9 733.74 446.65 739.63 448.77 739.07 451.48 747.21 452.8 753.01 450.11 751.17 455.79 747.1 459.44 751.12 465.4 759.13 467.16 786.33 464.48 779.62 436.95 776.55 425.74 779.38 427.04 785.9 454.02 787.2 457.28 787.2 531.4 783.2 535.4 787.2 536.89 787.2 590.52 783.24 593.78 787.2 596.42 787.2 602 686.09 602 Z M 682.93 529.92 683.96 533.07 689.15 534.63 697.39 534.25 714.67 529.23 716.98 526.83 717.87 520.92 714.34 517.77 714.62 514.4 718.13 510.73 716.23 505.64 711.99 505.9 699.53 512.63 685.14 523.11 682.93 529.92 Z M 12.8 197.75 15.37 193.18 24.72 182.51 28.53 177.22 29.64 171.31 35.62 163.02 46.52 153.57 49.39 149.95 48.99 139.47 49.63 135.42 58.74 121.24 62.86 117.57 70.38 107.47 73.41 102 69.69 90.35 70.16 85.83 72.47 79.16 72.59 69.53 76.26 59.17 82.83 54.91 101.51 50.88 106.55 47 110.88 39.2 111.59 44.76 109.37 48.1 102.75 52.74 85.33 56.77 78.45 60.56 75.09 70.05 74.5 83.12 72.83 88.35 73.93 95.98 76.92 100.85 74.52 106.81 72.35 108.39 64.77 119.5 57.64 127.25 53.19 133.77 51.11 142.2 52.03 149.83 50.69 152.63 39.29 164.15 30.84 179.74 18.81 193.35 14.87 202.46 12.8 197.75 Z" fill-rule="evenodd"/>
<g/>
<path d="M 149.47 207.12 149.85 203.68 142.6 206.91 135.58 200.06 154.51 195.94 164.31 195.51 173.59 197.14 175.49 198.72 173.47 202.01 171.54 210.21 166.43 209.5 161.15 212.96 152.53 215.95 147.38 211.31 146.01 208.61 149.47 207.12 Z"/>
<path d="M 490.94 127.22 500.08 128.1 499.28 132.5 492.28 142.13 487.98 142.48 485.03 138.88 478.49 135.28 479.64 130.38 483.03 128.21 490.94 127.22 Z"/>
<path d="M 786.92 264.04 787.2 267.9 783.41 269.41 779.43 267.76 779.03 264.77 773.05 259.56 771.09 254.05 768.31 250.92 767.91 246.82 771.09 244.26 775.45 243.72 779.71 246.47 780.53 249.01 779 256.2 779.69 259.09 786.92 264.04 Z"/>
<path d="M 91.52 209.5 93.76 201.64 92.42 198.69 84.88 197.09 86.13 188.4 89.73 188.83 95.24 183.48 114.34 186.85 113.73 189.06 108.85 189.2 107.44 192.48 118.81 193.39 114.34 199.7 109.25 201.38 100.68 199.45 95.97 201.45 96.77 205.92 91.52 209.5 Z"/>
<g/>
<path d="M 474.69 434.78 480.91 434.1 481.36 436.9 484.54 440.44 480.06 441.94 469.75 447.19 466.95 445.57 467.91 438.95 477.19 439.54 479.12 437.99 474.69 434.78 Z"/>
<path d="M 129.29 209.17 132.64 211.97 125.31 215.88 121.64 212.28 127.34 208.02 129.29 209.17 Z"/>
<path d="M 133.2 210.42 132.42 207.83 135.84 205.36 137.35 209.03 133.2 210.42 Z"/>
<path d="M 508.13 108.24 512.28 106.53 517.62 108.81 514.3 112.58 512.25 107.91 508.13 108.24 Z"/>
<g/>
<g/>
<path d="M 190.71 267.52 187.62 271.22 183.83 269.36 190.71 267.52 Z"/>
<g/>
<path d="M 730.59 441.9 729.41 442.67 722.96 440.06 725.74 437.37 730.59 441.9 Z"/>
<path d="M 463.65 153.83 465.46 156.66 473.26 159.44 469.51 160.78 467.09 158.05 462.92 158.71 461.51 155.27 463.65 153.83 Z"/>
<path d="M 132.33 197.61 137.35 198.43 134.5 190.14 157.79 194.34 154.91 195.42 135.02 199.78 132.33 197.61 Z"/>
<path d="M 395.67 94.05 405.86 91.43 405.02 95.98 400.82 98.17 394.89 95.81 395.67 94.05 Z"/>
<path d="M 269.87 239.64 273.24 240.7 271.1 244.19 267.02 242.19 269.87 239.64 Z"/>
<g/>
<g/>
<g/>
<g/>
<path d="M 167.51 510.35 170.9 505.22 176.79 500.18 182.7 501.59 178.56 506.77 173.92 514.63 170.38 515.01 167.51 510.35 Z"/>
<path d="M 207.33 563.05 208.56 557.99 212.58 558.17 214.47 561.4 210.89 563.28 207.33 563.05 Z"/>
<path d="M 109.87 592.96 111.47 600.35 106.45 596.84 109.87 592.96 Z"/>
<g/>
<g/>
<path d="M 332.37 188.8 326.3 186.33 328.41 183.01 334.02 185.46 332.37 188.8 Z"/>
<g/>
<g/>
<g/>
<g/>
<g/>
<path d="M 315.56 20.93 310.02 17.89 309.76 12.05 312.65 10 317.3 10 321.16 15.35 315.56 20.93 Z"/>
<g/>
<path d="M 122.18 139.33 120.23 136.95 119.94 135.28 115.64 132.9 118.32 129.46 119.94 123.79 124.7 126.21 120.09 131.06 120.39 136.71 122.18 139.33 Z"/>
<path d="M 145.05 209.95 152.91 217.3 149.59 218.43 148.44 214.61 145.05 209.95 Z"/>
<g/>
<g/>
<g/>
<path d="M 119.07 217.2 120.67 212.26 124.61 216.09 119.07 217.2 Z"/>
<g/>
<path d="M 188.82 70.12 185.45 69.98 184.61 66.12 187.93 65.98 188.82 70.12 Z"/>
<g/>
<g/>
<g/>
<g/>
<path d="M 123.85 191.63 120.44 202.6 116.84 201.35 121.15 197.61 120.84 195.14 123.85 191.63 Z"/>
<g/>
<path d="M 125.34 228.15 133.44 226.31 135.79 231.66 125.13 232.39 115.66 231.59 125.34 228.15 Z"/>
<path d="M 307.88 77.04 302.91 75.63 306.73 72.55 310.49 74.52 307.88 77.04 Z"/>
<g/>
<g/>
<g/>
<g/>
<path d="M 139.96 126.92 140.9 126.8 150.3 135.63 146.95 137.59 141.23 138.29 141.28 133.21 136.24 129.01 139.96 126.92 Z"/>
<path d="M 186.35 86.27 183.95 85.92 180.51 78.64 182.42 77.61 186.35 86.27 Z"/>
<g/>
<g/>
</g>
</svg>