<?xml version="1.0"?>
<svg xmlns="http://www.w3.org/2000/svg" version="1.2" baseProfile="tiny" width="800" height="956" viewBox="0 0 800 956" stroke-linecap="round" stroke-linejoin="round">
<defs>
    <style>
        :root {
            --water-color: #9FC9EA;
            --bg-color: #F2E7D3;
        }
    
        svg {
            background: var(--bg-color, #ffffff);
        }
        path, polygon, rect, circle {
            fill: var(--water-color, #3b82f6);
            stroke: none;
        }
    </style>
</defs>
<g id="water">
<g/>
<path d="M 10 194.4 12.23 192.77 10 194.4 10 194.4 Z"/>
<path d="M 790 513.4 788.3 512.9 783.71 514.05 781.62 515.59 778.03 515.89 772.63 515.09 768.48 510.84 761.8 509.09 750.74 504.98 748.78 502.85 747.59 499.57 748.37 494.5 747.89 491.33 742.17 484.78 741.44 482.69 741.84 480.02 748.2 476.14 748.57 470.3 742.13 468.95 741.81 466.09 738.83 465.07 736.39 463.12 732.82 464.25 729.61 464.34 726.31 466.07 715.34 466.82 712.75 467.94 707.81 471.68 702.63 476.44 695.75 484.34 692.56 485.47 685.36 486.22 679 487.3 674.99 485.76 670.63 481.38 668.5 477.92 664.77 476.83 663.54 474.56 665.04 471.62 669.21 469.4 677.12 467.84 681.96 468.3 683.98 470.13 688.32 470.14 691.06 469.26 690.53 466.57 691.62 464.17 694.44 461.96 692.29 457.32 689.11 447.56 688.36 441.89 688.38 435.54 687.22 428.49 685.48 426.7 680.31 426.49 677.83 427.57 676.64 429.83 677.1 437.78 675.41 441.72 672.07 445.27 669.32 446.94 666.54 447.39 663.31 446.85 661.28 445.37 658.36 445.31 652.52 443.78 649.27 442.12 647.41 439.88 646.85 434.69 643.97 433 641.01 434.19 638.61 440.66 639.96 442.85 639.75 444.39 638.21 445.6 636.88 445.6 634.85 446.56 632.7 447.9 628.17 451.19 623.1 456.78 622.23 458.68 614.76 466.8 609.69 468.69 605.62 468.61 600.22 466.25 599.53 462.85 594.77 459.35 591.25 458.54 582.15 457.33 576.54 455.28 570.03 456.14 564.46 460.66 563.42 464.77 561.43 466.46 557.3 467.9 548.65 472.45 545.41 473.35 540.01 473.22 532.29 469.8 530.18 469.88 528.66 471.89 529.01 476.62 528.53 479 528.35 478.6 528.29 471.93 530.68 469.3 533.04 469.59 539.63 472.72 545.1 472.97 549.98 471.24 543.05 469.95 538.95 467.94 536.75 465.07 538.36 459.97 538.69 457.2 538.05 452.57 536.21 447.6 536.4 443.51 538.03 441.16 541.59 439.76 542.53 438.46 543.28 432.46 537.97 427.2 532.92 429.49 527.41 429.87 523.03 431 521.88 432.85 522 437.61 520.29 440.4 519.77 445.75 518.67 449.19 516.46 451.48 512.43 456.87 507.99 458.53 503.92 458.68 500.14 456.37 497.45 457.53 495.09 459.91 488.75 462.87 481.07 463.81 475.08 464.9 473.48 466.19 465.51 468.72 458.5 467.26 453.72 467.32 440.89 462.92 435.28 459.5 430.79 454.32 428.71 453.55 424.12 447.39 419.23 442.47 416.94 437.71 415.1 431.43 417.29 426.68 421.2 423.51 426.98 416.41 429.77 414.62 437.36 411.89 443.85 410.8 448.61 409.4 458.16 407.5 463.78 405.54 471.62 397.22 477.92 387.62 478.57 382.78 477.67 376.86 474.23 375.29 471.29 375.82 464.17 376.06 460.42 375.69 455.87 374.52 450.51 374.85 447.32 372.5 448.92 366.91 447.71 363.74 443.83 362.04 440.6 361.38 437.26 361.71 432.92 363.26 428.42 363.3 422.34 364.05 419.47 363.57 413.35 365.34 411.6 364.86 404.88 370.49 396.62 376.42 391.22 381.93 388.84 385.37 381.83 389.46 377.74 391.46 371.5 393.71 364.55 394.9 353.68 395.91 346.22 395.13 343.63 396.34 340.85 396.32 337.1 393.24 335.85 388.92 333.28 387.25 329.78 386.35 325.92 386.16 324.43 386.83 322.98 386.06 319.41 385.39 313.07 387.33 311.71 385.29 317.3 384.81 323.29 385.08 324.37 386.22 326.9 385.41 334.93 386.48 337.31 389.15 337.83 393.51 340.21 395.11 343.57 395.32 345.19 394.24 351.52 395.28 352.83 394.55 358.92 393.71 365.89 393.51 372.15 392.5 382.83 387.89 388.05 383.97 390.24 381.3 390.97 377.32 402.17 369.78 408.72 364.63 411.24 363.84 415.27 363.99 416.23 361.9 427.45 362.13 436.45 361.23 440.22 360.19 445.52 361.57 446.15 361.65 449.9 363.51 450.45 367.7 448.23 371.39 449.61 373.73 455.37 373.58 461.65 374.6 467.62 374.73 473.6 374.35 477.55 374.86 479.01 377.05 479.76 383.68 478.3 389.79 474.98 394.09 472.89 397.91 469.62 402 466.39 404.27 465.76 406.04 457.92 408.72 447.04 410.95 441.16 412.83 437.43 413.03 432.92 415.04 432.36 416.85 426.77 419.36 422.39 424.07 418.17 427.58 416.13 431.81 418.69 438.69 421.03 442.39 428.23 450.8 434.59 457.14 440.03 461.02 445.88 462.96 452.22 465.94 461.8 467.19 467.45 467.23 473.27 464.61 485.35 461.66 490.67 461.23 498.37 456.22 503.63 454.59 507.92 450.98 509.97 451.53 511.64 449.86 513.95 451 516.37 450.46 518 447.81 519.27 439.68 520.52 436.59 520.46 433.71 522.38 430.43 525.34 429.37 532.58 428.55 538.21 426.51 540.34 427.62 543.99 432.73 544.02 437.25 541.85 440.57 537.82 442.53 537.34 444.56 537.49 449.58 539.97 454.59 538.44 465.23 539.28 467.28 544.45 469.38 550.17 470.09 559.52 465.96 562.85 462.71 563.77 459.91 567.61 456.53 570.38 455.07 577.1 454.43 581.65 455.82 587.18 456.64 595.69 458.83 597.99 459.85 601.64 463.69 601.57 465.4 604.95 467.36 611.48 467.19 615.49 464.33 620.37 458.24 621.94 455.57 627.97 449.98 631.56 447.6 632.95 443.76 630.85 441.28 633.52 438.57 636.96 436.5 638.11 434.58 641.21 433.02 641.65 432.79 644.07 431.91 646.41 432.33 648.47 434.69 649.16 440.4 652.65 442.47 661.2 444.35 663.89 445.93 667.88 446.46 670.71 445.31 673.26 441.47 675.82 439.53 675.33 429.52 677.35 426.41 680.87 425.53 686.13 426.3 687.72 427.99 689.18 431.6 690.05 442.05 692.35 451.57 696.02 460.58 695.81 465.69 694.89 468.7 692.72 471.11 688.22 473.18 683.25 472.22 680.16 469.36 674.39 468.65 668.27 470.72 665.41 472.33 664.48 474.27 667.38 475.68 669.82 477.96 672.36 482.11 676.53 485.7 678.89 486.3 685.3 484.88 688.78 484.88 693.96 483.67 696.65 482.19 701.11 476.06 709.69 468.45 712.84 466.73 719.09 465.27 725.1 464.98 733.74 459.27 736.6 458.26 743.36 464.29 748.01 466.3 752.95 471.83 751.75 476.48 748.93 479.42 743.13 480.4 742.38 482.48 743.98 485.43 746.28 487.14 749.14 491.89 748.85 498.8 750.81 504 761.93 508.11 768.35 509.77 770.86 512.26 774.86 514.76 778.2 515.18 781.58 514.7 785.23 511.46 786.71 511.42 790 513.4 Z M 691.66 466.28 693.7 468.92 694.33 464.58 691.66 466.28 Z M 513.53 453.07 512.87 452.3 507.05 452.44 503.08 456.57 505.82 458.35 511.68 457.12 513.28 455.34 513.53 453.07 Z M 633.74 447.12 635 446.18 636.56 445.52 638.29 445.2 639.57 442.83 638.06 440.76 638.75 437.8 633.5 440.26 633.74 447.12 Z M 730.36 463.71 733.01 463.86 738.35 461.23 736.26 458.66 730.99 462.14 730.36 463.71 Z M 738.54 461.6 742.17 465.92 744 466.84 745.05 469.32 748.85 469.86 749.09 476.66 751.56 474.72 752.02 472.07 750.62 469.9 747.01 468.32 738.54 461.6 Z" fill-rule="evenodd"/>
<path d="M 572.63 12.18 572.37 12.39 572.61 12.18 572.63 12.18 Z"/>
<g/>
<g/>
<g/>
<path d="M 173.14 303.46 172.08 307.28 173.18 315.63 175.06 318.98 178.65 323.26 186.51 329.85 187.76 330.75 191.71 333.82 192.37 333.88 197.67 337.84 197.8 337.97 199.95 340.87 200.14 340.89 200.76 340.03 200.26 341.12 200.39 341.24 200.99 340.93 201.41 341.24 201.89 341.24 201.74 340.56 202.14 341.52 202.58 341.6 202.87 341.43 203.2 341.45 202.93 341.87 202.58 341.91 202.51 342.04 202.89 342.21 203.14 342.33 203.2 342.35 203.22 342.62 203.02 343.08 203.37 343.66 205.31 344.79 206.08 345.15 206.42 345.52 206.54 345.86 206.56 345.9 206.96 345.92 207.52 346.23 208.11 346.46 208.59 346.77 209.15 347.02 209.32 347.27 209.86 347.57 210.46 347.92 211.01 348.21 215.47 349.57 215.93 349.74 216.45 349.69 216.91 349.65 217.33 349.9 221.33 351.84 221.9 352.09 222.1 352.18 222.56 352.37 223.9 352.99 226.09 353.97 230.43 355.81 232.76 356.48 234.23 357.02 235.54 357.39 236.19 357.6 236.5 357.71 236.79 358.02 237.27 358.35 238.09 358.69 238.23 358.65 239.11 358.98 240.48 359.35 240.59 359.17 238.61 358.58 237.46 357.79 237.71 357.58 237.9 357.52 238 357.91 238.4 358.17 238.98 358.33 240.19 358.64 241.03 358.81 242.38 359.27 243.05 359.6 244.05 359.94 244.39 360.08 245.22 360.36 245.39 360.42 246.31 360.42 247.18 360.65 247.45 360.86 248.64 361.31 249.16 361.69 249.6 362 250.06 362.11 250.66 362.25 250.81 362.55 251.06 362.78 251.14 362.86 251.58 363.19 252.06 363.38 254.36 365.63 254.82 365.93 255.07 366.15 255.44 366.45 255.84 366.82 256.03 366.88 256.46 367.57 256.42 367.68 256.38 367.89 256.32 368.09 256.28 368.24 255.82 368.49 256.26 368.76 256.24 368.95 256.23 369.1 256.23 369.24 256.21 369.39 256.42 369.54 257.55 370.95 257.74 371.58 257.92 372.02 258.18 372.71 258.32 373.37 258.66 374.02 258.8 374.58 259.13 374.85 260.45 377.86 260.6 378.07 260.78 378.32 261.16 378.38 261.45 378.42 261.49 378.99 261.6 379.22 261.74 379.53 262.2 380.01 263.22 380.66 263.29 380.7 263.41 380.78 264.06 381.3 264.27 381.61 264.6 381.76 265.23 382.45 265.83 382.8 266.1 383.2 266.21 383.3 266.83 383.8 267.29 383.93 267.67 384.16 268.36 384.37 268.98 384.39 271.09 385.04 272.13 385.39 272.17 385.41 272.84 385.64 274.32 386.29 274.51 386.43 274.68 386.54 277.51 387.77 277.58 387.79 277.66 387.83 277.79 387.87 277.95 387.92 278.83 388.21 279.68 388.4 280.1 388.5 280.83 388.77 282.63 389.56 283.23 389.63 283.56 389.77 287.34 391.69 287.61 391.65 287.88 391.06 288.09 390.58 288.2 390.17 287.45 389.94 286.7 389.67 285.28 389.17 283.69 388.58 283.11 388.4 283.07 388.39 283.92 387.43 284.34 387.44 284.61 387.46 284.92 387.48 285.51 387.02 287.22 387.43 287.86 387.73 288.36 387.73 289.41 387.94 289.7 389.71 289.62 389.96 289.24 390.4 288.95 390.54 288.32 391.82 288.43 392.05 288.86 392.07 289.6 392.3 290.41 392.17 290.87 392.07 291.22 392 292.31 391.61 292.72 391.48 293.39 391.32 294.06 391.15 294.56 391.04 295.62 390.29 296.63 389.38 297.1 388.71 297.1 388.21 297.81 387.96 298.02 388.12 298.5 388.33 298.82 388.48 299.27 388.33 300.11 387.12 300.3 386.75 301.07 385.91 302.11 385.81 302.24 385.79 303.01 385.72 303.8 385.45 304.62 385.33 307.47 385.31 307.77 385.04 307.45 384.91 307.26 385.08 304.24 385.14 303.45 385.27 301.4 384.76 302.09 384.45 304.12 384.29 304.32 384.33 307.02 384.24 307.56 384.29 307.72 384.37 308.04 384.54 308.62 384.37 308.96 384.43 309.21 384.47 309.81 384.26 310.58 384.37 310.29 386.93 310.27 387.08 309.66 387 308.93 387.5 308.73 388.44 308.75 389.65 308.5 390.17 308.18 390.5 307.98 390.69 307.87 391.13 307.62 391.63 304.39 396.74 304.43 396.8 304.49 396.87 304.66 397.12 301.86 398.91 301.03 398.8 300.67 398.39 300.59 398.16 300.21 398.07 299.55 398.18 299.52 398.3 299.36 398.39 299.09 398.32 298.19 397.87 297.81 397.76 296.98 397.76 296.44 397.6 295.56 397.24 295.35 397.01 294.73 397.01 294.2 396.8 293.41 395.4 293.71 394.92 295.48 393.78 296 393.63 296.56 393.51 296.83 393.46 297.1 393.4 296.92 393.13 296.79 393.15 296.02 393.32 295.23 393.55 294.92 393.61 294.58 393.69 294.02 393.84 293.48 393.97 293.04 394.09 292.18 394.65 291.97 394.78 290.95 394.97 290.07 395.18 289.53 395.22 288.66 395.15 288.03 395.09 287.05 394.88 286.86 394.82 286.46 394.7 285.69 394.49 285.53 394.45 284.57 394.22 284.23 394.13 283.52 393.86 282.83 393.76 278 391.65 277.56 391.44 276.72 391.02 274.72 389.86 270.98 388.35 270.17 388.02 269.78 387.87 269.65 387.46 267.6 387.06 267.19 386.83 264.1 385.33 263.72 385.2 262.43 384.83 261.78 384.56 259.07 381.89 259.05 381.57 259.03 381.41 259.03 381.3 259.18 381.01 258.99 380.9 258.89 380.84 258.74 380.76 258.53 380.63 256.63 379.47 256.57 379.4 255.57 378.07 255.25 377.82 255.07 377.69 254.77 376.84 254.77 376.4 254.52 374.69 254.52 374.54 254.3 373.21 254.29 373.16 254.17 372.62 253.96 371.83 253.63 370.62 253.61 370.56 253.59 370.45 253.56 370.35 253.54 370.27 253.5 370.1 253.42 369.91 253.31 369.64 253.23 369.49 253.15 369.3 252.83 368.55 252.77 368.33 252.35 367.64 252.21 367.49 251.9 367.16 251.85 367.12 251.4 366.72 251.31 366.64 251.12 366.53 250.98 366.41 250.94 366.39 250.69 366.22 249.94 365.88 249.54 365.78 249.39 365.74 248.31 365.4 247.85 365.24 246.56 364.76 245.66 364.59 245.51 364.53 245.14 364.38 245.05 363.96 244.59 363.73 244.47 363.67 244.05 363.46 243.95 363.28 243.57 362.71 243.45 362.52 243.03 362.36 242.42 362.46 242.26 362.4 241.94 362.25 241.17 361.9 240.53 361.71 240.07 361.56 239.44 361.29 239.13 361.17 238.46 360.88 238.34 360.84 238.29 360.81 238.04 360.71 237.81 360.61 237.1 360.56 236.96 360.54 236.73 360.44 236.58 360.38 236.12 360.08 236.04 360.02 235.77 359.85 234.83 359.42 234.18 359.4 233.25 359.08 232.99 359.15 232.72 359.14 232.35 359.12 232.2 359.1 231.81 359.21 231.41 359.81 231.1 359.67 231.24 359.42 231.32 359.29 231.28 359.19 231.22 359.1 229.74 358.6 229.05 358.31 227.82 357.75 227.15 357.45 226.42 357.2 225.15 356.52 225.03 356.48 224.52 356.24 223.82 355.89 222.79 355.37 222.52 355.22 222 354.93 221.46 354.74 219.47 354.05 218.14 353.35 218.02 353.28 217.6 352.99 217.08 352.64 204.35 347.52 203.7 347.07 202.7 346.25 201.7 345.33 201.39 344.92 201.43 344.73 201.45 344.58 200.78 344.06 200.49 343.85 198.63 342.08 198.53 341.91 198.05 341.35 195.09 339.43 194.19 338.93 193.61 338.76 191.71 337.09 190.77 336.45 189.39 335.65 188.77 334.82 188.1 334.53 188.08 334.4 187.26 333.57 184.8 331.67 183.99 330.71 176.21 323.83 175.77 323.22 173.83 321.41 173.14 320.61 170.41 316.08 169.89 314.73 169.13 312.22 167.36 308.12 167.76 305.36 167.96 304.59 167.82 303.96 167.94 303.23 167.55 302.94 167.63 302.42 167.67 302.13 167.72 301.81 168.17 301.82 169.28 301.88 169.74 301.88 171.12 302.04 172.87 302.17 172.87 302.5 173.14 303.46 Z M 169.3 304.36 169.53 304.34 169.82 304.32 170.39 304.46 170.87 304.28 171.2 304.23 171.28 304.21 171.39 304.19 171.53 304 171.74 303.69 171.91 303.71 172.2 303.75 172.39 303.48 172.22 303.4 171.89 303.25 171.6 303.32 171.03 303.5 170.7 303.44 169.93 303.3 169.32 303.28 168.99 303.48 169.09 304 169.3 304.36 Z M 298.31 392.44 298.65 392.23 299.32 392.19 299.46 391.32 299.42 391.04 299.09 390.98 298.88 391.29 298.71 391.54 298.32 391.82 298.02 392.21 298.31 392.44 Z M 171.34 314.21 171.55 313.85 171.85 311.33 171.91 310.68 171.34 308.68 171.16 308.28 170.51 307.7 170.38 307.18 170.07 307.01 170.62 306.72 170.87 307.07 171.18 306.99 170.18 306.24 169.68 305.9 169.45 305.9 169.01 305.67 168.2 305.59 167.69 306.8 167.61 307.18 167.8 307.89 167.92 308.28 169.34 310.28 170.72 312.68 171.05 313.83 171.34 314.21 Z M 169.13 304.48 169.01 304.09 168.99 304.03 168.95 303.9 168.78 303.27 169.03 302.82 168.82 302.42 168.19 302.5 168.07 302.73 168.24 303.27 168.01 305.22 168.13 305.24 168.42 305.28 168.72 305.32 168.76 305.05 168.93 304.76 169.13 304.48 Z" fill-rule="evenodd"/>
<path d="M 163.85 200.92 166.92 203.15 167.71 203.7 168.45 204.22 168.82 204.62 169.03 204.84 169.34 205.28 169.74 206.24 170.26 207.75 170.87 209.02 171.01 209.35 171.1 209.56 171.49 210.44 172.49 212.11 174.16 214.32 174.97 215.32 175.25 215.71 175.46 216.05 176.52 217.53 177.12 218.55 177.19 218.99 177.33 219.12 177.85 219.82 178.08 220.28 179.94 223.04 181.07 224.91 181.26 225.42 182.88 227.71 183.05 227.65 185.76 226.08 186.3 225.39 186.74 224.68 187.05 224.31 187.99 223.7 188.52 222.56 187.64 222.06 188.87 222.5 187.85 224.6 187.41 224.98 186.47 226.08 186.14 226.33 185.87 226.54 185.22 227.42 184.13 228.55 183.99 228.71 183.63 229.07 183.74 229.73 185.2 232.36 185.3 232.51 185.95 233.57 186.87 235.33 188.76 235.26 188.56 234.7 188.27 234.14 187.93 232.72 188.43 233.7 189.91 236.43 189.5 236.74 189.35 236.06 189.16 235.8 188.87 235.43 188.27 237.64 188.52 238.41 188.87 238.98 189.5 238.75 190.04 238.89 190 238.93 189.66 239.04 189.33 238.94 189.02 239.18 189.66 240.6 190.52 240.39 191.27 240.48 189.77 240.88 190.33 242.38 190.66 242.29 191.92 242.33 190.73 242.57 190.35 242.71 190.91 244.25 191.58 244.07 191.96 243.98 191.56 244.27 191 244.4 191.19 244.98 192.33 249.82 192.5 251.62 192.73 256.38 192.42 258.57 192.29 262.18 192.63 264.8 191.92 266.91 191.37 268.41 192.08 271.81 192.4 271.44 192.92 271.23 193.63 268.39 196.42 270.83 194.31 273.19 192.54 273.13 189.75 277.74 189.41 278.53 188.47 278.59 180.65 285.92 178.19 289.51 176.35 292.66 177.04 293.72 177.39 293.7 177.98 293.37 177.54 293.95 177.1 294.08 174.54 295.79 174.6 297.02 174.62 297.27 174.49 298.54 174.29 299.92 174.06 300.33 173.85 301.52 173.66 301.9 173.22 301.86 169.68 301.52 166.82 301.29 167.51 296.72 163.9 295.54 160.58 297 160.25 297.52 160.14 297.98 160.52 298.06 159.81 297.98 159.95 297.14 162.62 293.82 162.75 293.3 161.6 292.84 161.92 292.78 162.44 291.47 163.19 291.36 163.75 291.84 164.02 292.78 164.13 293.89 166.57 294.43 167.65 295.33 168.47 295.1 169.45 293.24 170.07 290.09 171.41 288.76 171.55 288.05 174.2 284.9 175.35 285.5 179.67 281.24 179.9 281.01 180.21 279.47 180.98 279.85 181.46 279.47 180.13 277.74 180.88 277.68 181.73 277.13 182.38 276.4 182.88 275.51 182.92 275.11 183.47 274.28 183.53 273.92 185.24 270 186.01 264.55 186.95 264.68 187.64 260.24 186.97 260.01 185.72 259.8 185.55 259.5 185.82 259.67 187.64 260.07 187.64 259.23 187.49 258.88 187.97 256.25 188.03 256.06 188.01 254.71 187.79 253.58 187.89 252.91 187.76 251.76 187.55 250.01 187.14 247.36 186.51 245.84 186.32 245.17 186.05 243.71 186.1 243.15 185.84 242.75 185.66 242.48 185.37 241.69 185.13 240.79 184.7 239.79 184.57 239.46 184.51 239.29 184.47 239.23 183.26 236.99 182.86 236.31 182.65 235.53 182.23 235.18 181.69 234.07 181.48 233.84 181.19 233.18 180.48 232.3 180.42 232.18 180.19 231.74 179.71 231.26 179.52 230.94 179.42 230.78 179.52 230.44 179.21 229.92 178.38 228.21 177.96 227.77 177.23 226.56 176.58 225.69 175.39 223.35 174.95 223.02 174.33 221.62 173.81 220.99 173.7 220.68 173.37 219.8 173.04 219.64 172.1 218.01 171.55 217.03 171.2 217.28 171.01 217.42 170.78 217.59 170.3 217.36 170.03 217.22 169.84 217.13 169.05 217.18 168.99 216.3 169.4 216.15 169.4 216.45 169.38 216.88 169.8 216.94 169.84 216.94 170.62 217.05 171.24 216.63 170.72 215.76 169.8 213.79 169.47 212.83 169.26 212.61 167.8 210.79 167.42 210.52 166.86 209.75 166.55 209.29 166.28 208.89 165.98 208.66 165.88 208.45 165.23 207.75 164.5 206.83 164.04 206.56 163.48 205.91 163.13 205.66 162.1 205.22 161.52 204.91 160.81 204.39 160.16 203.86 159.52 203.59 158.74 203.11 158.37 202.84 158.08 202.63 157.68 202.2 157.43 201.99 156.28 200.78 155.26 200.05 154.45 199.57 154.07 199.28 153.88 199.15 153.51 199.13 153.03 199.11 152.76 199.09 152.28 198.92 152.49 198.54 152.21 197.96 151.75 197.56 151.42 197.71 151.02 198.19 150.79 198.36 150.77 198.82 150.04 201.36 149.81 201.94 149.88 202.63 149.98 202.84 150.06 203.01 149.81 204.64 148.19 204.3 148.23 203.72 148.27 203.82 148.6 203.97 149.29 203.93 149 202.57 148.69 201.44 148.69 201.05 148.9 200.51 149.04 200.28 150 199.8 150.15 199.55 150.23 198.79 151.05 197.31 150.98 197.08 149.79 196.19 147.96 195.25 143.68 192.97 142.28 192.45 138.47 191.72 133.85 192.75 127.93 197.1 127.09 198.38 124.07 203.38 123.19 204.84 116.91 214.07 111.74 218.93 105.77 225.23 102.54 229.02 101.21 230.78 99.29 233.05 92.51 239.21 88.29 242.17 82.87 244.69 77.5 245.88 69.16 245.44 64.63 243.69 62.28 242.08 62.11 241.85 59.31 237.62 57.75 232.74 57.2 229.15 56.6 220.72 55.35 210.87 52.62 201.36 50.34 197.38 45.94 192.49 39.24 188.2 33.09 186.72 32.5 186.67 31.79 186.61 31.56 186.59 30.42 186.69 27.37 187.34 22.11 189.47 16.65 192.93 14.9 194.25 10 197.41 10 194.4 12.23 192.77 14.71 190.91 20.42 187.05 21.57 186.47 22.74 185.9 27.89 183.81 33.44 183.98 38.74 185.48 44.88 188.57 47.96 190.7 52.36 195.21 56.5 203.88 58.92 213 60.21 221.43 60.98 230.9 62.21 235.83 63.73 239.18 65.99 241.54 70.97 243.42 78.46 243.25 81.53 240.96 80.74 240.37 78.11 238.83 79.42 235.99 77.59 232.86 77.13 232.18 78.78 234.14 79.82 234.8 80.61 236.97 79.03 238.46 81.43 240.33 81.59 240.5 84.08 241.46 87.71 239.37 90.02 237.64 95.24 232.78 96.99 230.86 99.99 227.33 100.52 226.63 100.98 225.98 102.41 224.02 105.27 220.45 108.34 217.82 115.45 209.5 115.7 209.21 119.65 204.26 125.47 195.29 123.01 192.93 122.63 191.85 122.15 191.79 121.36 192.06 120.86 192.35 120.92 191.72 121.75 191.47 122.17 191.33 122.96 191.49 123.17 191.83 123.34 192.43 123.88 192.81 124.42 193.29 125.11 193.85 125.49 194.35 130.98 189.85 136.55 188.11 141.74 188.95 147.44 191.12 159.98 198.36 160.12 197.98 160.75 192.08 162.71 189.93 170.07 189.64 173.99 189.05 175.89 187.11 175.6 187.17 176.46 184.8 175.56 183.29 174.7 182.61 169.13 180.89 167.67 179.62 167.36 177.33 167.67 177.41 168.88 180.41 172.2 181.17 175.96 182.88 177.42 185.59 176.92 188.09 173.51 190.51 170.26 191.1 165.36 191.03 162.27 192.58 162.75 196.86 160.73 198.92 162.67 200.17 163.85 200.92 Z M 189.98 273.25 190.33 273.53 190.58 273.44 190.68 273.42 190.73 273.38 190.87 273.34 191.37 273.48 191.66 273.23 191.9 273.02 191.19 272.4 190.98 272.27 190.69 272.08 190.35 272.04 189.98 273.25 Z" fill-rule="evenodd"/>
<path d="M 386.77 389.15 390.74 389.13 393.91 387.67 398.21 388.21 395.24 390.59 391.28 392.21 386.77 389.92 386.77 389.15 Z"/>
<path d="M 267.71 534.35 266.62 534.22 266.62 532.2 267.61 530.03 268.5 529.24 272.24 528.45 270.05 531.81 270.82 532.51 267.71 534.35 270.03 532.7 269.71 531.55 270.26 530.68 269.55 529.76 268.04 529.95 267.19 532.06 266.87 534.2 267.71 534.35 Z"/>
<path d="M 572.08 16.77 572.62 16.18 574.02 14.49 573.99 14.87 574.2 15.18 574.25 15.27 574.52 15.47 574.81 16.29 575.21 16.87 575.23 17.02 575.08 17.27 574.89 17.37 575.16 17.79 576 18.15 577.63 18.96 578.04 19.13 578.58 19.36 579.04 19.42 579.77 19.13 580.38 18.92 580.96 18.73 581.42 18.44 581.99 17.89 582.78 16.73 583.09 16.04 583.67 14.79 583.95 14.16 584.13 13.45 584.18 12.28 590.46 12.18 590.56 13.76 590.91 14.51 593.5 15.91 593.61 16.06 589 24.19 588.62 24.42 586.2 27.93 583.09 26.18 579.79 27.64 577.48 26.51 572.68 21.57 569.55 19.86 569.66 17.71 570.76 17.48 571.51 17.18 572.08 16.77 Z M 573.58 13.91 573.47 14.08 571.07 14.22 571.05 12.18 572.61 12.18 572.37 12.39 572.39 12.91 572.64 13.18 573.26 13.31 573.58 13.91 Z" fill-rule="evenodd"/>
<path d="M 307.1 882.8 305.28 880.61 302.11 879.25 303.24 874.66 303.26 871.07 307.12 875.64 307.83 880.07 307.1 882.8 Z"/>
<path d="M 641.96 523.88 644.18 523.46 644.59 527.03 642.2 527.3 641.96 523.88 Z"/>
<path d="M 537.8 430.98 539.28 431.43 541.43 432.31 542.16 433.92 541.99 434.88 541.57 435.42 541.47 435.88 540.66 438.32 540.41 438.72 538.65 439.67 538.19 439.7 537.49 440.16 537.15 440.53 536.65 441.03 536.48 441.14 535.75 441.12 535.23 440.99 534.94 441.03 534.5 441.07 534.02 441.47 534.11 443.76 534.25 444.41 534.79 445.31 534.58 445.52 534.36 445.75 534.98 447.79 534.86 448.21 532.25 451.13 532.42 451.3 532.69 451.59 532.98 451.73 533.75 451.46 534.84 450.29 535.11 450.04 536.32 454.78 535.88 455.51 535.52 455.68 535.15 455.86 535.54 456.49 535.34 456.7 535.15 456.89 534.75 456.87 534.83 457.16 533.71 457.05 533.52 456.91 532.83 456.99 532.25 457.01 531.1 457.05 529.66 457.49 528.83 457.55 528.08 457.58 527.41 457.47 525.93 456.97 525.68 456.84 524.24 456.24 522.44 455.01 520.42 454.65 519.84 454.49 519.52 454.34 518.9 453.4 519.23 452.97 519.88 452.38 520.36 452.23 520.9 452.28 521.71 452.51 523.24 453.07 523.8 453.4 523.84 453.76 524.42 454.01 524.53 454.11 524.76 453.92 524.67 453.42 524.43 453.13 524.67 452.92 524.97 452.61 524.99 452.25 524.84 451.92 524.72 451.65 524.32 451.76 524.15 452.07 524.2 452.55 523.55 452.44 523.47 452.38 521.48 451.98 521.23 452.01 520.29 451.84 519.73 451.46 519.77 450.73 519.73 450.5 521.63 445.56 521.73 444.93 522.96 442.99 523.09 442.62 524.65 441.89 524.88 441.91 525.93 442.35 525.84 442.62 526.28 442.99 526.6 442.97 527.14 442.68 528.37 442.09 528.74 442.03 528.89 442.01 529.16 441.97 529.41 441.84 529.79 441.74 530.23 441.62 530.41 441.59 531.27 441.43 532.48 441.41 533.4 440.86 533.86 440.51 534.42 440.24 534.88 439.95 535.23 439.65 537.65 438.8 538.65 439.13 539.17 438.95 539.7 438.22 540.15 437.28 540.45 435.8 541.32 434.44 540.89 433.77 540.34 432.92 539.95 432.54 539.7 432.29 537.8 430.98 Z M 539.9 432.23 540.09 432.62 540.53 433.02 540.8 433.29 541.11 433.71 541.78 433.88 540.64 432.37 539.9 432.23 Z" fill-rule="evenodd"/>
<g/>
<path d="M 160.7 662.89 162.75 663.72 163.77 665.68 162.5 669.02 160.64 669.77 159.77 664.97 160.7 662.89 Z"/>
<path d="M 274.34 80.94 272.34 84.45 266.56 81.28 266.88 80.36 274.34 80.94 Z"/>
<path d="M 786.06 444.41 788.3 442.43 790 444.85 786.67 447.08 786.06 444.41 Z"/>
<path d="M 307.87 648.01 310.44 644.05 312.56 644.98 309.12 652.95 308.12 651.49 307.87 648.01 Z"/>
<path d="M 417.53 370.39 418.05 369.66 424.43 368.51 429.35 368.1 435.07 368.18 437.62 370.16 431.84 374.02 428.98 373.58 425.81 374.33 418.19 373.02 417.53 370.39 Z"/>
<g/>
<path d="M 262.31 97.05 257.82 96.17 260.6 92.6 265.06 93.83 262.31 97.05 Z"/>
<g/>
<path d="M 269.69 523.15 268.54 519.35 271.07 518.64 269.69 523.15 Z"/>
<path d="M 515.47 320.61 515.31 320.4 511.43 320.55 507.98 319.97 507.34 317.25 507.98 316.96 510.34 313.08 508.3 311.98 507.74 309.28 504.48 308.87 503.17 309.05 501.41 308.62 500.2 307.99 501.89 307.09 503.63 306.38 505.5 304.61 504.84 302.44 501.39 297.64 500.66 294.78 497.57 295.01 500.52 291.22 499.37 287.98 493.86 286.65 492.03 285.37 493.86 284.96 494.67 285.06 495.05 284.92 495.34 285.15 495.68 284.75 496.7 284 496.93 283.39 498.24 283.56 499.76 284.25 500.18 283.56 500.56 283.56 501.41 283.98 501.62 284.25 501.14 284.89 501.31 285.04 504.36 286.65 507.28 294.53 510.01 296.64 513.72 297.91 513.06 299.73 515.2 305.72 516.6 307.05 519.21 307.01 519.54 307.09 519.65 307.78 519.36 308.05 519.21 308.55 518.9 309.47 519.25 309.62 520.86 309.85 521.36 310.06 521.67 309.97 522.15 310.24 522.23 310.45 522.26 310.56 522.53 310.87 522.9 311.04 523.28 311.41 523.86 311.72 524.43 311.79 524.8 311.89 525.09 311.97 525.55 312.08 525.51 311.87 525.78 311.58 525.91 311.62 526.12 311.66 526.28 311.7 526.45 311.74 526.66 311.93 526.72 312.27 526.76 312.54 526.7 312.62 526.68 312.66 526.62 312.77 526.8 313.12 526.97 313.33 527.47 313.81 527.58 313.91 533.94 311.83 530.41 309.05 526.37 303.3 522.98 295.99 519.46 295.22 517.37 295.6 518 293.47 519 292.11 521.13 290.11 521.92 284.75 520.8 283.37 522.53 280.72 521.77 278.28 519.46 276.03 519.58 272.9 515.56 271.61 513.06 272.31 508.74 279.89 506.32 282.98 506.61 282.39 510.26 276.28 512.57 271.42 513.03 269.1 511.61 266.77 507.94 265.76 510.09 263.41 513.14 263.64 514.04 262.2 512.89 258.46 512.97 255.39 517.02 257.38 519.11 263.74 521 265.49 523.9 266.43 527.49 261.55 528.47 256.81 534.29 250.6 534.19 253.83 532.35 258.25 532.42 262.45 533.37 266.2 537 266.31 535.29 269.48 531.48 270.1 530.16 271.42 532.67 279.82 534.73 280.83 534.15 284.29 535.73 288.25 538.03 290.97 540.34 295.6 542.56 294.85 544.74 292.64 546.81 287.09 549.69 289.84 554.4 289.55 549.52 294.39 550.8 297.43 553.36 298.35 550.52 300.79 550.15 304.46 550.94 305.63 552 306.28 547.48 309.03 543.79 311.37 538.55 316.34 535.96 315.98 536.42 316.21 536 318.05 533.98 318.13 531.68 318.92 524.9 326.58 518.5 325.31 516.71 324.37 515.95 321.2 515.58 320.74 515.47 320.61 Z"/>
<g/>
<g/>
<g/>
<g/>
<g/>
<g/>
<g/>
<g/>
<path d="M 189.68 608.79 188.37 608.08 188.62 605.2 191.66 606.05 189.68 608.79 Z"/>
<g/>
<g/>
<g/>
<path d="M 454.83 594.46 457.92 598 455.01 597.92 453.08 596.5 454.83 594.46 Z"/>
<path d="M 397.7 379.95 404.67 375.65 406.51 375.34 411.95 371.79 413.33 371.75 412.06 376.19 409.43 381.22 405.07 382.95 401.52 382.74 397.31 383.37 395.45 382.87 397.7 379.95 Z"/>
<path d="M 398.25 396.09 401.94 396.24 403.78 394.03 405.55 394.45 405.76 397.03 401.33 398.18 399.42 399.39 397.56 398.1 398.25 396.09 Z"/>
<path d="M 422.36 375.92 427.18 378.84 425.37 380.63 423.14 379.44 421.03 376.44 422.36 375.92 Z"/>
<g/>
<g/>
<g/>
<g/>
<path d="M 437.72 441.05 434.84 445.81 431.04 442.09 426.64 439.95 427.16 435.84 436.32 439.99 437.72 441.05 Z"/>
<path d="M 426.47 440.36 430.56 442.1 433.21 445.5 443.98 450.19 441.37 454.15 436.36 451.8 430.98 450.25 427.31 445.33 426.47 440.36 Z"/>
<path d="M 480.03 510.55 482.2 509.84 484.74 511.07 484.06 512.74 480.95 515.95 478.55 514.84 478.38 513.11 480.03 510.55 Z"/>
<path d="M 438.39 441.01 447.4 445.27 444.15 449.84 435.03 446.06 438.39 441.01 Z"/>
<path d="M 468.53 505.16 471.16 505.14 471.62 506.69 467.41 509.4 468.53 505.16 Z"/>
<g/>
<path d="M 644.28 235.55 647.03 237.98 643.24 239.66 640.76 238.83 644.28 235.55 Z"/>
<path d="M 771.11 364.99 773.71 367.66 768.06 367.01 771.11 364.99 Z"/>
<path d="M 497.24 217.32 502.04 219.89 499.74 221.31 497.24 217.32 Z"/>
<path d="M 503.94 220.53 505.15 220.24 510.7 221.47 508.86 223.79 507.42 222.56 503.92 221.66 503.94 220.53 Z"/>
<g/>
<path d="M 140.32 746.11 139.68 744.1 136.92 741.06 139.86 740.77 139.66 738.12 137.57 736.7 138.84 734.99 143.35 738.28 143.87 740.51 146.58 742.35 146.06 744.4 140.32 746.11 Z"/>
<path d="M 582.23 555.57 585.51 557.55 585.03 560.16 588.39 560.82 586.57 566.58 584.57 565.27 581.05 560.64 580.48 556.78 582.23 555.57 Z"/>
<g/>
<path d="M 661.66 73.85 662.52 72.07 665.44 73.58 663.39 75.22 661.66 73.85 Z"/>
<g/>
<path d="M 38.45 765.36 41.58 765.86 41.02 767.87 38.41 767.41 38.45 765.36 Z"/>
<path d="M 576.98 739.33 576.21 737.3 576.42 733.23 579.73 732.19 578.81 735.99 579.65 738.16 576.98 739.33 Z"/>
<path d="M 414.23 590.7 414.44 591.99 410.76 592.29 412.31 589.99 414.23 590.7 Z"/>
<path d="M 419.09 597.1 411.66 595.81 414.69 593.77 419.59 595.42 419.09 597.1 Z"/>
<g/>
<path d="M 652.4 435.04 654.42 437.07 653.98 438.78 650.58 436.84 652.4 435.04 Z"/>
<path d="M 675.55 420.65 677.16 424.03 674.55 427.16 672.4 427.51 673.8 422.51 675.55 420.65 Z"/>
<path d="M 677.29 421.32 680.35 421.15 682 422.94 678.95 423.92 677.29 421.32 Z"/>
<g/>
<path d="M 655.5 432.54 657.72 431.18 659.86 432.73 657.4 436.71 655.48 435.82 655.5 432.54 Z"/>
<g/>
<path d="M 668.54 435.65 672.36 441.99 669.92 442.76 666.87 445.18 664.27 444.68 666.92 440.66 660.05 438.36 658.99 435.82 661.99 435.09 663.06 433.17 665.66 431.75 668.86 433.79 668.54 435.65 Z"/>
<g/>
<path d="M 149.34 656.92 150.59 659.51 147.17 659.53 149.34 656.92 Z"/>
<path d="M 457.89 563.62 459.35 562.35 463.3 562.77 462.59 565.77 457.89 563.62 Z"/>
<g/>
<path d="M 347.41 308.12 353.04 308.53 352.45 309.66 347.41 308.12 Z"/>
<path d="M 405.45 86.16 401.77 85.84 402.17 83.44 406.28 83.49 405.45 86.16 Z"/>
<path d="M 526.78 395.91 521.86 393.67 521.09 390.33 522.4 386.48 521.19 383.83 522.26 382.18 526.09 384.33 526.62 386.06 526.18 390.34 527.47 392.73 526.78 395.91 Z"/>
<path d="M 34.32 896.09 32.23 898.3 28.87 898.7 31.67 894.73 34.32 896.09 Z"/>
<g/>
<path d="M 420.09 435.69 421.78 436.57 423.82 434.44 425.01 440.01 421.38 440.91 420.2 438.46 420.09 435.69 Z"/>
<path d="M 154.24 563.18 152.9 568.44 151.13 565.83 154.24 563.18 Z"/>
<path d="M 384.96 416.54 387.06 418.19 383.48 422.05 382.85 419.15 384.96 416.54 Z"/>
<path d="M 790 649.25 787.4 649.93 784.75 644.15 790 644.07 790 649.25 Z"/>
<path d="M 482.26 171.9 483.8 168.61 485.43 170.05 482.26 171.9 Z"/>
<path d="M 435.61 433.73 448.11 439.74 445.59 443.7 433.19 437.69 435.61 433.73 Z"/>
<path d="M 691.97 105.56 689.07 104.73 689.59 102.62 692.49 103.56 691.97 105.56 Z"/>
<path d="M 322.93 856.91 327.63 860.66 328.92 863.27 328.48 867.55 322.45 868.63 319.99 868.13 319.22 865.69 322.31 862.94 325.62 864.46 325.62 861.91 323.52 860.06 322.93 856.91 Z"/>
<path d="M 255.88 859.1 253.98 855.51 256.49 852.42 256.92 848.77 261.07 852.26 260.95 855.15 262.62 856.45 262.43 858.43 255.88 859.1 Z"/>
<path d="M 439.74 393.32 440.12 389.75 444.35 385.06 450.51 379.55 451.97 381.72 449.11 384.2 439.74 393.32 Z"/>
<path d="M 438.32 389.5 436.99 387.73 441.2 383.07 443.31 384.97 438.32 389.5 Z"/>
<path d="M 445.13 383.24 442.94 381.16 446.38 378.13 448.55 380.3 445.13 383.24 Z"/>
<path d="M 439.49 376.88 438.01 375.25 440.91 372.73 442.96 372.98 442.94 375.96 439.49 376.88 Z"/>
<g/>
<path d="M 453.3 380.17 451.97 378.44 454.12 376.48 456.27 377.94 453.3 380.17 Z"/>
<path d="M 90.48 376.77 92.75 376.73 92.28 379.57 89.86 379.15 90.48 376.77 Z"/>
<path d="M 33.3 906.67 35.74 908.4 34.09 910.48 30.96 910.17 33.3 906.67 Z"/>
<path d="M 389.63 540.38 390.03 540.59 390.99 541.69 396.33 541.92 404.9 541.24 407.99 542.82 411.24 542.07 411.49 542.28 407.93 543.17 404.71 541.48 398.62 542.13 390.86 541.99 389.63 540.38 Z"/>
<g/>
<path d="M 98.05 859.39 100.22 857.14 99.6 852.26 102.37 851.11 103.87 848.38 106.05 850.5 103.62 853.26 104.44 854.49 103.67 860.5 102.48 863.31 98.05 859.39 Z"/>
<g/>
<path d="M 426.98 86.09 427.31 87.33 422.8 87.68 423.87 85.68 426.98 86.09 Z"/>
<path d="M 329.05 82.17 334.35 83.2 331.92 85.07 329.05 82.17 Z"/>
<g/>
<g/>
<g/>
<path d="M 145.6 704.97 149.69 702.8 150.29 704.69 147.62 705.53 145.6 704.97 Z"/>
<path d="M 125.01 697.33 130.48 697.23 130.87 699.42 125.26 699.6 125.01 697.33 Z"/>
<path d="M 49.21 371.33 50.43 368.93 52.53 369.16 52.76 371.73 49.21 371.33 Z"/>
<g/>
<g/>
<g/>
<g/>
<g/>
<g/>
<g/>
<path d="M 198.76 795.88 191.6 800.58 190.29 799.24 181.59 797.28 180.04 795.28 187.56 795.15 186.62 791.4 188.51 785.18 192.52 788.64 191.81 791.5 198.01 792.82 198.76 795.88 Z"/>
<path d="M 196.4 776.61 188.7 776.96 188.89 773.85 187.83 771.7 189.31 770.12 191.12 771.6 198.07 772.29 196.67 774.21 196.4 776.61 Z"/>
<g/>
<g/>
<g/>
<g/>
<path d="M 289.16 575.37 288.22 578.62 285.84 578.02 287.63 575.03 289.16 575.37 Z"/>
<g/>
<path d="M 488.98 259.55 487.56 258.82 489.6 255.85 491.04 256.58 488.98 259.55 Z"/>
<g/>
<path d="M 772.19 144.24 775.61 143.42 775.86 144.91 772.54 145.72 772.19 144.24 Z"/>
<g/>
<g/>
<path d="M 673.13 90.35 680.71 89.73 679.23 91.75 674.91 91.27 673.13 90.35 Z"/>
<g/>
<g/>
<g/>
<g/>
<g/>
<g/>
<g/>
<path d="M 778.84 496.44 780.33 493.84 783.81 494.65 782.62 497.82 778.26 498.44 778.84 496.44 Z"/>
<path d="M 772.94 499.03 777.39 494.5 777.95 496.98 774.69 503.35 773.07 502.45 772.94 499.03 Z"/>
<path d="M 775.4 505.87 776.53 504.16 779.55 505.83 778.82 507.08 775.4 505.87 Z"/>
<path d="M 772.52 512.09 773.27 510.42 776.4 508.84 782.06 510.53 783.14 512.15 780.16 514.11 776.2 513.93 772.52 512.09 Z"/>
<g/>
<g/>
<path d="M 492.69 396.34 494.68 396.97 502.73 384.24 502.92 387.23 499.04 391.82 498.12 394.42 495.57 397.39 492.69 396.34 Z"/>
<path d="M 498.76 398.81 499.03 396.2 502.85 392.32 503.33 389.65 505.08 389.61 499.66 398.18 498.76 398.81 Z"/>
<path d="M 483.16 392.61 483.53 390.36 485.47 389.52 487.33 390.82 486.2 392.55 483.16 392.61 Z"/>
<g/>
<path d="M 423.05 365.38 434.11 364.63 433.9 367.28 423.97 368.16 423.05 365.38 Z"/>
<g/>
<path d="M 250.37 524.44 250.5 524.55 249.58 527.38 252.86 530.43 254.52 533.01 257.01 534.83 256.09 537.61 251.81 543.09 247.85 545.8 245.34 546.85 243.3 548.39 239.3 550.46 238.06 550.12 238.13 549.89 240.42 549.87 245.8 546.2 248.01 545.28 252.08 542.3 255.69 537.6 256.59 534.68 254.75 533.56 253.31 531.55 249.98 528.38 248.91 526.49 250.37 524.44 Z"/>
<g/>
<path d="M 250.5 524.55 250.37 524.44 253.25 522.08 256.86 520.06 259.87 520.35 264.29 524.61 265.73 526.92 264.37 536.65 264.12 536.64 264.21 533.22 265.16 530.32 265.08 526.25 262.49 524.23 259.45 520.58 257.11 520.35 250.5 524.55 Z"/>
<g/>
<g/>
<g/>
<path d="M 528.35 478.6 528.53 479 523.44 481.78 518.63 482.82 515.52 484.47 511.34 483.76 511.47 483.55 515.02 484.22 518.29 482.69 524.03 481.27 528.35 478.6 Z"/>
<path d="M 511.47 483.55 511.34 483.76 508.59 481.38 506.92 477.08 507.11 475.08 504.35 473.64 499.26 474.12 498.49 473.1 499.33 470.36 500.24 470.45 499.04 471.83 499.87 473.99 504.19 473.2 507.61 474.95 507.42 477.35 509.26 481.75 511.47 483.55 Z"/>
<path d="M 500.24 470.45 499.33 470.36 497.68 468.53 492.5 470.84 491.05 473.97 492.5 475.95 492.32 477.9 490.67 479.42 491.65 480.92 494.09 480.88 498.91 483.7 503.14 490.23 502.94 492.15 501.16 493.96 497.49 495.52 497.47 496.51 498.99 498.15 499.08 499.2 498.1 500.66 496.93 501.64 493.53 502.79 491.04 503.47 488.46 502.35 487.64 503.1 488.33 504.27 487.44 505.37 487.31 505.08 487.29 503.03 487.87 502.31 489.04 502.03 490.27 502.95 492.38 503.08 495.59 501.97 497.58 500.91 498.93 498.76 497.47 497.38 496.59 495.36 501 493.71 502.69 490.39 498.35 483.61 494.51 481.25 491.8 481.34 490.56 480.48 490.52 479 491.63 477.98 492.02 476.19 490.77 474.22 491.55 471.26 495.65 468.88 499.01 468.01 500.24 470.45 Z"/>
<path d="M 439.93 508.9 439.78 508.67 441.43 507.25 445 511.01 451.57 514.95 457.08 516.2 462.53 512.97 465.59 510.17 466.26 508.19 466.61 508.21 465.34 511.05 463.05 513.11 457.79 516.28 455.47 516.53 451.64 515.41 447.15 513.03 443.75 510.4 441.31 507.62 439.93 508.9 Z"/>
<path d="M 487.31 505.08 487.44 505.37 485.35 505.64 481.68 504.56 475.06 505.02 471.81 502.66 470.22 503.85 468.01 503.1 465.68 503.72 466.61 508.21 466.26 508.19 465.24 504.04 466.74 502.58 469.93 503.41 471.77 502.26 473.92 502.6 475.27 504.5 480.36 503.99 483.87 505.1 487.31 505.08 Z"/>
<path d="M 463.86 390.09 463.03 389.77 462.21 390.04 453.24 389.44 451.51 388.33 453.3 386.14 454.35 382.24 458.65 378.88 461.92 378.42 467.2 379.05 465.28 383.64 466.74 388.04 465.7 390 463.86 390.09 Z"/>
<path d="M 441.04 400.18 451.55 390.81 455.62 391.13 454.41 396.78 449.03 400.08 444.02 401.98 441.04 400.18 Z"/>
<path d="M 460.96 391.38 464.72 391.67 460.17 399.99 456.1 402.77 454.22 399.06 456.5 398.12 459.75 395.38 460.96 391.38 Z"/>
<path d="M 431.54 405.98 431.98 403.23 433.53 400.22 435.11 399.83 439.51 400.7 432.59 406.84 431.54 405.98 Z"/>
<path d="M 434.4 410.51 435.03 408.69 438.74 408.23 443.23 406.5 445.54 403.5 448.44 407.76 445.48 408.88 444 407.28 441.35 407.36 436.91 409.9 434.4 410.51 Z"/>
<path d="M 594.06 408.71 595.55 406.15 598.7 406.8 602.56 408.9 600.8 410.8 600.03 415.79 597.9 420.57 595.71 418.06 591.44 417.1 595.88 410.38 594.06 408.71 Z"/>
<path d="M 602.14 416.14 605.33 410.3 605.94 414.06 603.31 417.66 602.14 416.14 Z"/>
<path d="M 583.72 422.5 586.16 419.1 589.16 421.23 583.72 422.5 Z"/>
<path d="M 611.51 423.42 612.34 421.5 615.16 422.69 614.18 424.43 611.51 423.42 Z"/>
<g/>
<path d="M 207.73 656.42 208.86 653.96 211.25 654.6 209.42 656.88 207.73 656.42 Z"/>
<g/>
<g/>
<g/>
<g/>
<g/>
<g/>
<g/>
<g/>
<path d="M 590.33 296.52 590.45 296.47 593.04 298.77 595.02 303.76 598.34 303.84 601.53 304.01 602.58 304.51 602.66 307.3 599.24 312.06 597.21 314.02 597.07 313.94 599.15 311.95 601.53 307.93 602.41 304.67 600.26 303.96 597.13 304.61 595 303.94 592.98 298.91 590.33 296.52 Z"/>
<path d="M 597.07 313.94 597.21 314.02 595.57 315.6 597.15 316.9 599.55 317.17 600.01 321.2 598.63 324.68 600.8 326.41 598.63 327.62 597.92 330.12 603.27 332.23 605.71 337.09 605.52 337.07 603.31 332.36 597.67 330.1 598.49 324.8 599.86 321.09 599.4 317.21 598.67 317.3 596.38 316.79 595.5 315.77 596.05 314.27 597.07 313.94 Z"/>
<g/>
<g/>
<path d="M 530.45 64.08 534.59 64.96 538.59 58.87 539.34 59.54 535.21 65.75 530.45 64.08 Z"/>
<g/>
<g/>
<path d="M 530.89 101.99 530.98 102.03 533.75 102.3 535.27 102.76 535.82 103.24 535.46 104.24 533.94 105.48 535.48 106.18 536.55 106.35 537.19 105.98 536.94 105.71 537.01 105.35 537.67 105.14 539.22 105.14 539.88 104.16 540.87 104.35 542.08 106.62 544.16 107.85 546.1 110.82 545.68 114.7 549.15 115.41 549.54 118.81 548.69 121.67 546.71 122.48 547.27 123.71 549.02 124.79 551.15 124.73 552.11 124.94 552.11 125.05 549.63 125.02 548.69 124.79 548.08 124.38 547.12 123.73 546.6 122.17 548.61 121.62 547.77 119.91 549.02 115.41 544.2 114.74 545.62 112.19 544.33 108.15 542.18 106.87 540.63 104.33 539.2 105.29 538.21 105.64 537.78 105.23 537.07 105.71 537.34 105.91 537 106.37 536.27 106.48 533.85 105.56 535.36 104.2 535.21 102.87 533.31 102.72 531.54 102.93 530.89 101.99 Z"/>
<g/>
<g/>
<path d="M 431.36 247.47 431.63 247.47 429.69 249.41 430.13 251.43 429.42 253.52 429.52 256.9 431.63 257 433.15 260.61 436.47 260.28 437.66 263.24 437.2 265.1 436.8 266.18 435.65 266.24 435.07 267.87 435.47 270.19 434.28 271.98 430.48 272.32 430.29 272.32 434.01 271.86 435.43 270.06 434.82 267.81 435.38 266.12 436.7 266.04 437.36 263.16 436.38 260.38 434.03 261.51 432.92 260.55 431.54 257.21 430.1 257.59 429.38 257.02 429.06 255.67 429.19 253.7 429.96 251.52 429.56 249.24 431.36 247.47 Z"/>
<g/>
<g/>
<g/>
<g/>
<g/>
<g/>
<g/>
<path d="M 575.2 709.62 577.08 708.53 578.61 710.28 576.66 712.02 575.2 709.62 Z"/>
<path d="M 71.5 859.26 66.41 862.98 64.7 860.12 66.43 856.95 66.39 853.55 71.5 859.26 Z"/>
<g/>
<path d="M 150.86 924.44 154.91 926.07 155.61 928.65 152.28 929.03 151.96 925.36 150.86 924.44 Z"/>
<g/>
<g/>
<path d="M 481.86 200.94 486.7 202.78 494.2 206.62 493.69 207.26 481.86 200.94 Z"/>
<g/>
<path d="M 101.87 771.58 103.58 774.67 100.73 775.04 101.87 771.58 Z"/>
<path d="M 302.24 723.53 307.77 718.32 312.25 717.55 304.41 724.6 302.24 723.53 Z"/>
<g/>
<g/>
<g/>
<g/>
<path d="M 399.85 792.28 403.67 793.28 402.11 795.18 399.85 792.28 Z"/>
<path d="M 351.33 852.67 346.92 854.65 344.99 852.36 351.33 852.67 Z"/>
<path d="M 505.63 243.52 507.25 242.59 510.15 243.78 509.65 245.65 505.63 243.52 Z"/>
<g/>
<path d="M 755.62 728.14 757.77 728.92 757.11 731.73 754.5 730.4 755.62 728.14 Z"/>
<g/>
<g/>
<path d="M 247.56 517.31 247.39 517.68 247.1 516.91 243.76 516.76 242.57 516.3 239.34 515.45 238.02 515.64 236.1 514.78 235.81 514.38 236.46 512.21 231.03 506.79 225.53 502.76 218.72 494.84 218.77 492.77 224.44 486.6 223.25 482.46 220.52 480.59 217.28 478.88 213.51 477.54 213.61 477.37 216.97 478.54 220.62 480.5 223.1 482.07 223.88 482.94 224.61 486.82 220.35 491.14 218.83 494.75 226.03 502.99 231.03 506.46 236.64 512.13 236.08 513.59 236.42 514.76 238.13 515.53 238.92 515.36 240.11 515.45 243.43 516.33 247.16 516.78 247.56 517.31 Z"/>
<g/>
<path d="M 213.61 477.37 213.51 477.54 212.05 477.56 207.35 475.91 206.87 474.87 201.3 473.58 200.62 471.09 203.62 466.8 202.16 462.71 200.16 462.31 196.98 463.06 195.44 462.79 194.63 461.98 194.48 461.46 194.63 460.73 198.03 458.2 198.24 458.16 196.07 460.18 194.63 460.89 194.79 461.91 197.03 462.81 200.12 462.1 202.33 462.67 203.81 466.71 200.74 471.22 201.87 473.64 206.87 474.7 207.44 475.75 211.9 477.4 213.61 477.37 Z"/>
<g/>
</g>
</svg>