<?xml version="1.0"?>
<svg xmlns="http://www.w3.org/2000/svg" version="1.2" baseProfile="tiny" width="800" height="453" viewBox="0 0 800 453" stroke-linecap="round" stroke-linejoin="round">
<defs>
    <style>
        :root {
            --water-color: #9FC9EA;
            --bg-color: #F2E7D3;
        }
    
        svg {
            background: var(--bg-color, #ffffff);
        }
        path, polygon, rect, circle {
            fill: var(--water-color, #3b82f6);
            stroke: none;
        }
    </style>
</defs>
<g id="water">
<path d="M 739.06 10 730.39 15.08 725.91 16.59 722.02 22.44 718.3 24.22 714.85 22.96 710.67 23.9 711.31 27.99 705.34 30.9 703.7 26.28 714.14 20.36 709.11 15.31 666.77 39.05 668.75 41.25 659.73 45.61 658.24 47.03 662.45 52.86 660.57 54.8 655.7 54 654.93 57 651.55 56.61 648.83 53.56 627.98 65.31 626.79 64.79 624.99 65.5 627.37 68.86 624.79 70.59 616.62 72.9 618.46 74.93 614.57 76.6 610.45 75.16 600.26 80.6 598.21 83.62 589.25 87 586.8 83.25 577.84 86.24 577.98 90.18 571.35 92.87 565.53 93.51 551.41 90.72 536.27 88.65 534.47 86.68 529.58 85.6 524.05 86.54 512.9 83.2 509.61 83.23 504.56 80.1 498.94 78.87 484.45 79.66 481.43 79.28 478.23 75.89 472.45 75.87 469.96 77.9 465.27 79.27 461.29 79.03 440.39 80.58 425.07 84.71 404.71 88.97 402.04 87.39 400.71 88.24 394.08 90.97 384.21 93.95 379.69 96.39 368.37 99.43 356.33 101.88 342.89 102.06 331.38 101.15 309.94 97.6 301.87 96.98 296.75 95.25 290.91 95.93 282.13 93.49 269.42 92.21 259.67 90.01 241.68 89.31 235.79 87.84 224.7 87.12 214.69 85.35 200.06 80.63 190.56 76.19 187.79 72.56 183.68 69.88 172.39 64.79 167.04 61.2 151.39 56.36 138.18 51.88 136.12 49.75 125.82 48.27 123.07 45.55 114.48 46.59 105.36 44.84 100.38 44.97 91.63 43.56 77.23 47.39 70.54 48.1 62.74 50.12 55.61 52.86 45.31 55.37 42.27 55.58 35.27 58.34 30.36 59.53 19.03 61.08 13.88 62.76 13.88 10 739.06 10 Z"/>
<g/>
<g/>
<path d="M 377.15 318.15 378.55 316.3 377.66 311.23 381.63 310.94 379.64 314.73 384.23 318.31 377.15 318.15 Z"/>
<g/>
<path d="M 720.61 211.59 722.28 213.56 730.39 214.11 741.99 217.22 747.09 217.06 747.16 217.58 742.11 219.5 739.64 217.08 733.91 215.62 721.41 214.04 720.31 212.03 720.61 211.59 Z"/>
<g/>
<g/>
<path d="M 624.99 65.5 626.79 64.79 628.01 66.41 630.47 69.63 631.44 71 631.62 71 632.28 71.85 632.97 72.26 637.42 73.15 637.65 73.15 638.68 73.58 638.7 73.61 638.75 73.68 638.95 73.75 641.35 75.03 641.72 75.34 642.25 75.55 642.79 75.76 644.46 77.01 644.58 77.19 644.46 78.31 643.94 79.03 643.34 80.01 643.11 80.31 640.19 84.72 639.94 85.42 639.66 86.68 639.87 88.71 641.81 90.31 642.59 90.95 646.34 91.71 647.06 91.05 648.67 88.92 646.93 86.45 646.98 83.66 648.87 81.9 649.51 81.42 650.06 81.44 650.7 81.03 657.23 79.6 663.27 79.57 661.53 83.41 659.91 86.27 659 90.52 659.04 91.18 661.99 94.75 663.61 95.23 667.63 94.77 672.66 91.8 673.55 91.41 676.34 90.06 676.64 89.92 676.71 89.88 677.48 89.53 677.92 89.4 679.36 89.01 681.59 89.74 683.65 94.81 684.31 95.46 687.35 97.6 689.98 102.9 690.37 104.02 690.67 104.12 692.66 103.77 692.95 103.22 691.45 106.83 693.09 108.3 700.34 112.64 699.92 114.84 702.26 119.22 702.78 123.43 702.85 123.77 702.65 125.74 697.48 131.45 697.13 132.57 696.88 132.66 696.82 133.09 696.5 134.01 688.06 134.63 687.52 134.49 687.4 133.71 689.57 133.48 690.78 133.46 693.05 133.07 694.3 132.62 696.75 130.19 701.41 125.32 701.05 119.45 698.49 114.74 694.56 111.2 691.77 108.89 691.24 108.18 688.64 103.13 688.56 102.82 686.88 98.93 683.24 96.41 681.18 92.09 679.17 90.89 677.62 91.14 673.48 92.94 670.31 94.27 668.77 95.64 667.57 96.42 667.06 96.55 666.67 96.64 665.87 96.64 664.75 96.53 659.96 95.02 659.61 94.75 659.04 94.02 657.95 93.49 657.78 93.28 657.35 87.71 657.4 87.48 658.2 85.95 658.77 84.97 659.57 83.87 659.91 83.48 660.14 83.44 660.28 82.8 657.87 80.81 652.48 81.92 650.56 82.31 648.28 84.74 648.26 85.52 648.42 86.04 650.01 89.1 650.01 89.63 649.65 91.04 648.5 92.53 647.8 92.85 645.99 92.8 645.7 92.94 645.38 93.08 644.14 92.64 638.36 89.7 637.81 87.53 640.48 82.4 641.26 80.88 641.76 76.78 637.05 74.59 636.81 74.48 633.49 73.99 632.78 74.36 632.65 74.75 631.89 75.48 631.76 75.57 631.62 75.71 631.76 75.8 633.74 77.03 633.52 76.95 630.59 76.24 630.08 76.3 629.83 76.31 629.45 76.44 629.13 76.55 629.03 76.31 628.44 76.31 627.98 76.46 626.34 76.85 625.7 77.08 625.35 77.63 624.71 79.02 624.3 80.3 623.92 82.08 622.7 84.58 616.46 86.59 611.85 86.61 612.33 87.16 610.73 86.57 606.77 86.61 606.52 86.61 605.63 86.77 604.97 86.88 603.01 87.44 604.84 86.5 605.04 86.24 607.92 85.52 608.7 83.53 610.87 85.35 615.92 85.06 616.35 85.45 620.74 84.44 622.77 81.84 623.3 79.43 623.21 79.37 623.46 78.41 623.94 77.38 624.14 77.06 625.35 75.71 626.95 75.27 627.34 75.19 627.82 74.96 628.78 75.11 629.26 75.14 629.88 75.12 630.04 75.09 630.48 74.84 630.59 74.79 630.68 74.73 631.04 74.68 631.07 74.68 631.16 74.68 631.27 74.54 631.36 74.43 631.27 73.83 629.99 72.03 630.06 71.73 629.2 71.12 627.51 68.86 624.99 65.5 Z"/>
<path d="M 400.71 88.24 402.04 87.39 408.62 91.71 413.72 97.4 412.37 97.58 407.8 92.9 405.44 93.47 404.55 93.6 400.71 88.24 Z"/>
<path d="M 412.37 97.58 413.72 97.4 414.54 100.07 413.14 100.18 409.44 96.44 404.55 93.6 405.44 93.47 412.37 97.58 Z"/>
<path d="M 413.14 100.18 414.54 100.07 413.81 104.02 410.24 108.73 410.72 111.07 414.49 111.89 420.59 107.93 421.12 108.39 415.79 112.68 410.81 112.2 409.28 107.54 412.87 102.49 413.14 100.18 Z"/>
<g/>
<g/>
<g/>
<g/>
<g/>
<g/>
<path d="M 162.18 278.02 162.17 281.61 165.61 282.83 164.76 292.36 158.91 292.38 158.88 285.86 159.73 278.23 162.18 278.02 Z"/>
<path d="M 30.84 344.35 31.11 348.09 27.41 349.08 26.52 345.97 30.84 344.35 Z"/>
<g/>
<g/>
<g/>
<g/>
<g/>
<g/>
<path d="M 23.69 212.14 27.12 211.94 27.71 214.81 24.1 214.75 23.69 212.14 Z"/>
<g/>
<g/>
<g/>
<path d="M 130.64 289.34 131.69 292.6 126.57 292.35 130.64 289.34 Z"/>
<g/>
<g/>
<g/>
<path d="M 370.11 314.77 371 314.79 369.09 325.01 368.74 325.01 367.35 321.6 370.11 314.77 Z"/>
<g/>
<g/>
<path d="M 89.73 311.39 96.5 311.58 94.42 314.82 89.71 313.58 89.73 311.39 Z"/>
<g/>
<g/>
<g/>
<path d="M 683.15 134.97 683.65 134.65 687.4 133.71 687.52 134.49 687.1 134.56 685.94 135.06 684.27 135.52 677.73 141.64 675.56 151.61 676.22 152.31 677.89 157.34 680.07 160.75 680.66 161 680.75 161.62 680.68 161.93 679.77 162.58 679.08 162.57 678.37 162.37 676.89 163.14 675.11 166.76 675.11 167.92 679.31 170.87 680.75 170.44 683.59 169.7 687.74 170.89 687.93 172.31 686.83 173.7 688.84 176.76 691.13 178.3 692.56 179.26 693.32 179.57 695.22 180.58 696.17 180.69 696.93 180.17 697.8 179.44 697.89 178.48 698.26 178.25 700.63 178.45 700.91 179.28 702.28 180.7 703.24 180.86 703.85 180.95 704.66 180.99 708.08 181.01 708.77 181.41 709.3 181.56 710.28 182.14 710.69 182.5 711.19 182.91 711.6 183.09 711.94 183.58 711.97 183.65 712.04 183.76 712.13 184.03 712.06 184.37 711.97 184.74 712.1 184.93 712.06 185.2 711.99 185.88 712.08 186.8 712.04 186.93 711.26 188.58 711.03 188.85 708.22 190.14 702.58 195.23 702.1 197.77 704.24 199.96 706.34 200.47 708.31 201.4 709.07 201.7 710 202.38 711.74 204.07 711.81 206.57 712.1 207.39 712.01 207.82 711.12 207.98 711.26 204.32 710.92 203.82 710.55 203.5 710.19 203.25 708.65 202.04 707.92 201.77 706.99 201.2 702.28 199.78 701.55 197.63 702.28 194.71 704.33 192.83 705.18 192.17 707.86 189.75 709.87 188.53 711.19 187.9 711.56 187.26 711.3 183.6 710.18 182.85 705.73 182 704.34 181.97 703.79 181.95 702.94 181.93 701.69 181.61 701.09 181.2 700.09 179.74 699.28 178.73 698.73 178.68 698.32 179.8 697.3 180.99 694.24 180.61 691.72 179.41 691.54 179.3 691.01 179.01 690.23 178.46 689.44 177.91 688.13 177.16 687.59 176.67 687.04 176.15 686.15 175.49 687.49 171.69 686.21 170.76 684.91 170.46 683.15 170.43 678.12 171.24 676.94 170.76 675.42 169.82 675.02 169.43 674.38 166.6 673.9 165.36 675.93 162.69 677.96 161.7 679.52 161.57 679.7 160.9 678.46 160.29 677.57 158.9 675.38 154.57 674.94 150.14 675.5 148.2 675.91 144.32 676.54 141.34 680.23 137.64 683.15 134.97 Z"/>
<path d="M 720.61 211.59 720.31 212.03 715.55 210.11 711.99 209.97 711.12 207.98 712.01 207.82 712.51 209.42 717.41 210.04 720.61 211.59 Z"/>
<g/>
<g/>
<g/>
<g/>
<path d="M 421.12 108.39 420.59 107.93 425.12 106.4 429.33 107.22 431.08 110.04 428.78 112.18 426.45 119.49 427.95 126.19 423.41 128.48 419.93 128.66 412.39 126.19 413.65 125.32 415.31 126.97 421.49 128.25 427.33 125.73 425.62 120.89 428.18 111.5 429.87 108.27 426.08 107.07 421.12 108.39 Z"/>
<path d="M 413.65 125.32 412.39 126.19 408.99 125.07 405.95 126.44 406.43 130.81 411.39 133.76 427.4 132.96 433.87 129.76 436.64 129.44 440.54 130.54 441.6 131.79 440.78 133.28 436.68 134.87 428.87 135.43 427.18 137.32 430.88 142.99 430.37 143.45 426.56 138.3 427.31 135.61 429.41 134.69 436.48 134.33 440.89 132.16 440.29 130.92 435.97 129.89 427.29 133.44 411.48 134.39 406.04 131.74 404.98 126.67 407.75 124.53 413.65 125.32 Z"/>
<path d="M 430.37 143.45 430.88 142.99 434.46 145.32 436.2 148.08 429.76 151.97 423.79 159.08 415.82 160.29 413.62 163.01 413.55 166.19 417.47 172.15 414.04 177.04 407.86 178.34 403.75 175.87 404.28 175.42 407.54 177.68 413.03 176.97 416.59 172.93 412.69 165.73 412.73 163.62 414.75 160.27 421.81 159.15 424.66 157.8 427.66 153.05 435.27 147.52 430.37 143.45 Z"/>
<path d="M 404.28 175.42 403.75 175.87 393.77 173.4 390.75 174.76 389.11 181.17 393.31 188.69 392.12 188.78 388.44 182 389.81 174.91 393.26 172.86 399.93 173.7 404.28 175.42 Z"/>
<path d="M 392.12 188.78 393.31 188.69 392.62 191.83 384.35 195.64 378.36 196.21 375.8 198.7 374.57 202.06 373.45 202.11 375.66 197.58 378.61 195.46 385.7 194.41 391.98 191.42 392.12 188.78 Z"/>
<g/>
<path d="M 315.45 238.42 315.36 238.85 313.35 239.66 312.84 239.45 315.45 238.42 Z"/>
<path d="M 312.84 239.45 313.35 239.66 309.25 243.02 304.5 242.01 299.68 239.54 295.2 239.82 293.94 244.48 291.14 247.52 293.85 250.22 293.81 250.63 293.72 251.26 293.81 251.74 290.75 250.44 291.32 245.74 293.58 243.5 293.4 240.85 295.82 239.01 299.95 239.01 307.97 242.54 312.84 239.45 Z"/>
<path d="M 293.81 250.63 293.85 250.22 300.94 253.19 299.71 257.11 298.22 256.79 300.46 254.26 296.21 251.38 293.81 251.74 293.72 251.26 293.81 250.63 Z"/>
<g/>
<path d="M 315.36 238.85 315.45 238.42 321.62 239.02 325.76 241.51 325.28 243.65 320.14 246.08 320.45 248.98 319.98 249.1 320.13 245.51 324.91 243.31 325.18 241.57 321.05 239.15 315.36 238.85 Z"/>
<path d="M 319.98 249.1 320.45 248.98 321.07 251.18 327.11 251.24 327.04 253.83 324.25 256.11 318.67 256.98 317.16 259.15 320.02 261.27 324.7 260.56 329.73 263.17 333.5 268.06 337.82 268.4 342.35 266.37 344.08 268.41 343.05 272.04 346.19 274.64 354 272.41 355.15 273.3 354.59 275.74 355.44 278.18 357.66 280.58 354.98 281.8 353.41 290.84 356.88 293.79 358.89 297.57 358.25 297.57 356.56 294 352.88 291.01 354.3 282.05 357.04 280.34 355.19 278.73 354.11 275.88 354.44 272.89 346.12 274.92 342.62 272.38 343.7 268.45 342.55 266.64 336.84 268.81 333.12 268.34 329.96 263.68 324.31 260.86 319.04 261.55 316.86 259.56 318.83 256.57 324.06 255.81 326.85 253.48 320.82 251.31 319.98 249.1 Z"/>
<path d="M 371 314.79 370.11 314.77 368.15 309.52 368.79 308.78 372.19 309.29 373.82 307.12 371.97 303.44 369.84 301.82 362.64 301.93 358.25 297.57 358.89 297.57 363.07 301.77 369.22 301.36 372.86 304.05 374.13 306.87 373.27 308.9 371.74 309.56 368.63 309.66 371 314.79 Z"/>
<g/>
<path d="M 25.59 267.97 21.86 270.1 16.26 269.53 17.1 263.56 25.83 262.74 25.59 267.97 Z"/>
<path d="M 26.06 266.67 26.2 262.74 29.93 260.86 29.58 275.17 24.71 275.15 24.51 272.34 26.41 269.62 26.06 266.67 Z"/>
<path d="M 72.21 244.91 72.23 248.73 69.14 247.95 72.21 244.91 Z"/>
<g/>
<g/>
<g/>
<g/>
<g/>
<g/>
<g/>
<path d="M 774.93 263.36 774.45 263.65 772.09 262.4 771.68 254.12 767.96 245.35 764.03 232.78 761.92 229.55 751.27 217.99 747.16 217.58 747.09 217.06 752.83 218.1 765.21 233.39 769.78 248.07 772.73 255.15 772.51 261.8 774.93 263.36 Z"/>
<g/>
<g/>
<g/>
<g/>
<g/>
<g/>
<g/>
<g/>
<path d="M 785.09 289.29 786.12 292.83 780.2 292.63 780.27 289.52 785.09 289.29 Z"/>
<g/>
</g>
</svg>