<?xml version="1.0"?>
<svg xmlns="http://www.w3.org/2000/svg" version="1.2" baseProfile="tiny" width="800" height="787" viewBox="0 0 800 787" stroke-linecap="round" stroke-linejoin="round">
<defs>
    <style>
        :root {
            --water-color: #9FC9EA;
            --bg-color: #F2E7D3;
        }
    
        svg {
            background: var(--bg-color, #ffffff);
        }
        path, polygon, rect, circle {
            fill: var(--water-color, #3b82f6);
            stroke: none;
        }
    </style>
</defs>
<g id="water">
<g/>
<g/>
<path d="M 458.51 83.38 461.15 81.59 463.94 84.5 463.12 86.39 459.09 85.87 458.51 83.38 Z"/>
<path d="M 34.37 527.34 34.16 526.01 43.69 524.64 43.66 525.92 40.53 527.31 34.37 527.34 Z"/>
<path d="M 123.37 10 122.97 10.57 122.84 10.75 120.99 11.48 120.69 11.54 119.93 11.93 119.42 12.02 118.69 12.72 118.5 13.6 117.75 14.66 117.62 15.06 118.17 15.21 118.66 15.03 119.35 14.45 120.99 13.57 121.9 13.45 122.78 12.75 125.39 12.27 126.79 12.81 129.86 16.06 130.95 16.61 131.77 16.55 136.5 16.64 137.66 17.06 138.96 18.82 139.51 18.91 140.15 18.15 141.97 17.88 142.54 18.09 144.46 19.31 145.46 19.67 146.4 21.52 146.97 21.8 148.19 21.68 148.49 21.28 148.71 20.43 148.89 20.07 149.22 19.13 149.31 18.82 150.13 17.79 150.74 17.46 150.98 17.06 151.19 16.12 152.17 17 152.83 17.3 153.56 17 153.68 16.97 156.05 19.31 156.63 19.79 157.39 19.82 158.36 20.43 159.57 20.7 159.94 20.7 161.27 22.77 161.45 23.5 161.45 23.53 161.54 23.92 161.82 24.53 162.73 25.04 163.3 25.5 164.43 26.38 165.31 27.26 165.79 27.44 166.7 27.38 166.83 27.68 169.01 29.35 169.56 30.3 170.62 31.3 171.5 31.87 172.56 32.09 173.17 31.57 175.48 30.9 177.99 31.57 178.75 31.51 179.91 31.57 180.51 31.9 182.43 34.03 182.15 34.36 182.09 34.85 182.76 35.61 183.46 35.24 185.01 34.15 185.49 33.79 185.98 32.94 186.49 32.97 186.22 30.87 186.28 30.69 188.83 28.81 188.71 28.29 190.44 27.23 190.41 28.11 190.08 28.69 189.16 29.45 189.29 29.69 191.08 29.02 195.96 25.35 196.45 25.07 196.36 25.56 194.69 26.38 191.32 29.17 190.56 29.66 191.71 29.57 194.02 29.75 194.6 28.96 195.27 28.05 195.84 28.26 196.45 29.14 195.36 31.78 195.02 31.87 193.81 32.42 192.96 33.18 192.75 33.85 192.72 34.97 192.35 35.27 191.77 35.73 190.65 36.79 190.11 37.46 187.1 39.77 186.31 40.25 177.96 39.73 176.63 39.01 175.38 38.25 174.23 38.55 172.65 37.12 166.67 35.03 164.88 34.94 163.67 34.88 163.79 34.36 163.27 34.21 162.24 33.09 161.67 31.69 157.6 32.3 156.6 33.88 156.02 34.09 155.9 33.15 156.93 31.05 156.48 30.54 155.75 30.48 154.32 29.72 153.9 27.41 153.68 26.87 153.9 23.65 153.14 22.92 151.77 22.59 147.01 23.68 146.49 23.56 145.94 23.44 145.61 24.07 144.91 25.35 144.76 25.5 144.55 25.71 144.52 25.92 144.52 27.14 144.7 28.66 144.4 30.78 143.85 30.48 143.12 30.75 141.88 30.93 141.69 30.9 139.66 30.36 138.42 30.9 137.96 31.39 137.78 32.36 137.2 33.39 137.63 34.54 136.81 36.67 136.69 38.07 136.23 39.83 135.2 40.55 134.14 38.82 135.02 36.88 133.71 33.85 132.65 32.42 131.92 32.09 129.22 30.75 128.98 29.78 129.37 29.02 128.76 28.41 127.22 27.2 127.03 26.71 125.73 26.99 124.36 26.96 123.76 26.84 121.72 28.96 121.08 28.9 120.87 25.41 118.5 24.56 114.68 25.5 114.98 20.73 115.29 19.43 115.77 18 115.71 16.73 114.89 16.36 113.98 16.82 112.19 19.19 111.98 19.73 110.07 25.83 108.61 24.62 108.52 24.19 107.73 23.86 107 24.04 103.97 25.29 102.57 23.71 102.69 23.41 103.51 21.74 105.94 21.16 106.7 20.7 109.25 17 110.49 15.88 110.28 15.64 110.16 15.67 109.16 15.94 108.09 17.09 105.88 19.37 103.66 17.88 102.18 18.22 101.6 18.49 101.02 18.43 99.78 20.83 96.95 22.89 96.59 23.34 97.62 23.62 96.62 24.01 96.5 24.53 97.02 24.65 100.6 26.11 100.9 26.87 100.93 26.96 101.05 27.23 98.2 25.92 97.47 25.56 94.89 24.26 94.71 23.86 94.34 23.74 93.4 25.44 93.1 26.44 92.98 26.84 93.19 27.56 93.22 28.78 93.77 29.87 94.68 32.69 94.47 33.12 94.77 33.66 94.8 34.85 95.38 35.97 95.32 36.7 94.22 35.73 93.74 35.3 93.8 34.48 93.83 34.03 93.28 33.45 93.43 32.81 93.62 32.03 92.22 30.66 91.73 30.48 91.22 29.51 91.13 28.72 91.13 28.44 91.07 27.93 90.67 26.26 91.1 25.92 91.13 25.26 90.73 24.53 90.09 24.5 89.52 24.74 87.94 24.62 87.82 24.59 87.76 23.89 88.03 23.86 88.15 23.86 88.88 23.8 89.46 23.56 90.19 22.56 89.97 21.64 89.64 21.01 88.82 19.31 87.91 18.61 87.12 18.52 86.3 18.73 83.63 19.79 82.84 19.88 81.81 19.73 80.02 19 78.53 17.7 77.62 17.33 75.22 17.33 74.34 17.58 74.46 18.49 76.83 20.25 78.14 20.46 78.62 22.1 78.23 21.58 77.13 21.25 76.71 21.74 75.98 21.68 75.53 20.98 74.68 20.52 73.86 20.07 72.95 19.25 72.31 19.06 71.03 19.79 70.06 20.37 69.61 20.64 68.3 20.76 66.45 20.73 64.63 20.83 64.11 20.67 62.02 20.43 61.2 20.83 60.17 20.52 57.65 21.13 56.98 21.4 56.31 21.86 55.89 22.37 55.92 22.77 58.01 23.77 59.29 25.41 60.32 28.02 61.23 28.87 62.6 29.78 63.32 29.84 63.78 29.72 64.63 29.51 64.51 30.72 64.78 31.05 65.18 31.27 67.21 32.94 67.79 33.39 68.39 33.57 69.79 34.85 70.06 35.33 71.37 35.82 71.61 36 73.4 36.46 74.16 37.25 75.1 37.58 76.01 37.37 75.92 38.52 71.85 38.95 71.55 39.13 71.37 39.92 71.16 40.83 71.28 41.65 71.31 44.38 71.46 45.08 71.49 45.68 71.25 46.66 71.82 47.35 72.55 48.23 72.92 49.05 73.61 49.42 74.07 49.39 74.25 49.39 75.22 49.02 75.01 49.6 74.74 50.39 74.13 51.39 74.28 52.15 75.13 53.7 74.46 54.21 74.52 57.7 74.74 58.49 75.62 59.55 76.22 60.77 77.13 60.92 77.2 61.25 77.26 61.71 76.68 62.65 76.47 63.53 76.53 64.56 76.41 64.87 76.47 66.05 74.31 64.5 74.16 64.08 74.43 62.65 74.37 62.29 72.82 60.77 71.82 60.56 71.61 60.95 69.46 59.83 68.48 58.31 69.27 58.22 69.79 58.61 70.91 58.67 71.34 58.31 71 57.7 70.67 56.37 70.43 55.91 69.06 52.36 69.91 49.96 69.76 49.45 66.94 47.2 66.75 46.53 66.45 44.92 66.27 43.98 66.27 43.13 66.15 40.22 66.12 40.1 65.72 38.28 65.57 36.58 65.02 36 64.11 36 61.93 33.94 61.5 33.3 60.84 32.88 60.35 33.3 61.05 36.88 60.68 37.58 61.08 41.92 62.14 42.38 60.87 43.01 60.9 44.23 60.71 45.23 59.68 46.38 58.5 43.77 59.17 43.13 58.86 42.13 58.77 41.62 58.98 40.34 59.01 39.73 58.65 39.49 58.44 39.34 58.19 38.64 57.62 38.82 56.34 38.92 55.4 39.8 55.4 37.94 56.62 37.22 57.44 36.37 57.41 35.64 56.65 35.24 55.89 34.85 56.22 33.42 56.86 33.12 57.83 31.21 57.92 30.72 56.98 27.87 56.07 27.56 55.22 28.29 54.25 29.9 53.1 29.63 51.46 28.23 50.45 27.75 49.91 27.75 47.45 29.69 47.03 30.36 47.97 31.21 49.06 31.6 50.82 32.75 50.06 33.15 47.81 32.12 43.11 32.24 42.5 32.42 41.65 32.66 41.35 33.03 39.65 34.7 39.62 35.33 38.31 38.92 37.68 39.01 36.55 40.52 36.31 40.89 36.67 41.28 36.19 41.53 35.61 39.61 35.64 39.46 36.37 36.34 36.31 34.97 34.43 32.91 33.79 32.45 29.63 29.45 29.91 30.78 30.39 31.27 30.7 31.99 31.67 33.66 29.88 33.85 30.15 33.45 29.18 32.36 28.45 31.66 27.84 29.69 27.39 29.38 26.81 28.78 26.96 28.5 27.27 27.38 24.81 24.16 23.65 23.22 21.98 22.8 21.74 22.74 20.89 22.28 19.07 20.7 18.86 20.46 18.37 20.22 18.19 20.13 18.01 20.04 15.88 20.31 15.19 20.31 14.4 20.04 13.39 20.52 13.55 21.1 13.7 21.71 13.73 21.83 13.88 24.38 14.24 24.62 16.07 24.35 17.22 25.56 16.19 25.65 15.03 26.14 13.97 26.93 14.09 27.68 14.67 28.29 13.73 28.26 13.43 28.23 12.54 28.9 11.94 29.84 12.03 30.57 12.3 32.03 11.09 32.33 10.47 32.95 10.47 10 31.16 10 32 11.66 32.06 11.75 32.12 11.9 32.27 12.21 32.7 13.54 33.09 14.54 33.15 14.72 33.18 14.79 33.25 14.91 33.31 15.09 34.64 17.37 35.89 18.55 37.1 19.31 36.52 20.16 36.25 21.1 36.19 21.83 36.52 22.71 37.34 23.5 38.77 23.95 40.17 23.71 41.44 22.89 44.08 19.16 44.23 18.76 45.78 17.03 46.11 16.39 46.99 15.27 48.66 13.27 49.09 12.48 48.76 11.42 47.77 10 92.52 10.11 92.1 10.78 92.46 11.36 93.04 11.6 94.13 13.15 94.4 13.51 94.95 13.6 97.23 12.78 98.44 12.27 98.9 11.63 99.5 10.29 101.02 10.51 101.6 10.44 102.48 10.02 116.21 10 113.38 12.51 116.96 12.96 119.53 10 123.37 10 Z"/>
<path d="M 10.47 172.53 11.91 172.22 12.48 171.89 12.94 171.19 13.03 170.98 13.73 169.13 14.03 168.55 20.53 165.64 23.9 163.94 27.3 162.96 30.06 162.84 30.88 162.33 32.46 161.05 35.04 159.87 36.37 159.32 36.95 159.08 37.49 158.65 40.62 155.56 43.35 156.59 50.88 162.66 51.7 163.51 52.34 163.48 52.85 163.03 52.97 161.81 53.1 161.54 53.19 161.33 53.25 161.2 53.31 161.05 53.43 160.78 55.34 159.87 56.28 159.99 58.07 160.84 58.5 161.57 58.89 161.63 59.53 161.27 59.96 160.35 60.87 156.71 63.81 154.56 66.3 152.65 67.48 151.67 68.27 150.79 70.58 148.37 72.55 147.64 73.13 147.18 75.01 146.27 76.8 146 77.47 145.79 78.11 145.27 79.29 142.87 80.08 140.99 80.32 140.56 81.23 139.38 87.58 137.68 88.06 137.53 88.52 137.14 90.85 133.67 90.91 133.61 92.46 131.13 93.31 130.06 95.07 128.3 95.22 127.82 95.41 127.3 95.5 127.03 95.41 126.21 95.53 125.12 96.29 124.66 103.48 122.32 103.84 122.2 104.72 121.9 105.45 121.66 106.15 121.41 106.36 121.35 107.21 121.05 109.03 120.44 109.52 120.29 109.91 120.14 112.77 119.29 114.41 118.35 115.2 117.62 115.5 117.19 115.65 117.04 115.74 116.89 118.14 112.73 120.57 109.76 122.97 107.15 124.12 105.75 124.91 104.93 126.61 103.78 129.64 101.77 131.86 100.71 132.74 100.47 133.41 100.29 135.17 99.98 135.53 99.98 139.17 99.98 139.87 100.04 141.69 100.26 142.76 100.35 143.21 100.41 144.58 100.59 144.79 100.62 145.97 100.62 146.64 100.47 145.28 100.99 140.93 100.47 140.63 100.44 139.11 100.29 135.9 100.26 135.17 100.32 132.59 100.83 132.44 100.89 128.22 103.17 127.64 103.5 127.12 103.84 126.18 104.39 124.85 105.51 124.03 106.33 119.93 110.91 118.72 112.4 116.56 116.34 116.41 116.56 114.68 118.56 112.37 119.71 111.68 119.99 110.64 120.29 110.07 120.47 109.85 120.53 104.15 122.41 104 122.47 103.24 122.72 102.78 122.87 100.6 123.6 100.35 123.66 100.05 123.78 99.93 123.81 99.69 123.9 97.83 124.54 96.59 124.87 95.95 125.24 95.65 125.69 95.74 126.09 95.83 127.48 93.74 130 92.89 131.13 88.06 137.77 87 138.08 86.03 138.5 83.42 138.96 81.93 139.32 80.9 140.08 78.62 145 77.56 146 76.5 146.3 74.55 146.64 73.73 147 70.58 148.76 69.7 149.55 67.82 151.73 64.27 154.56 62.05 156.2 61.11 156.92 60.71 157.59 60.44 160.35 60.11 161.05 58.89 161.96 58.1 161.69 56.59 160.54 55.22 160.17 54.16 160.48 53.55 161.3 53.34 162.3 52.97 163.51 51.61 163.81 48.63 161.23 47.81 160.63 46.66 159.66 43.11 156.8 42.17 156.2 41.26 155.83 40.41 156.11 39.86 156.68 37.07 159.32 34.58 160.35 34.09 160.6 33.15 161.02 32.82 161.17 31.03 162.57 30.39 163.06 28.12 163.15 26.32 163.42 24.5 163.97 21.98 165.21 21.59 165.42 17.95 167.31 14.97 168.31 14.18 169 13.03 171.77 12.21 172.71 10.47 172.53 Z"/>
<path d="M 537.12 708.46 540.04 703.42 540.86 706.06 540.25 709.7 537.12 708.46 Z"/>
<path d="M 684.63 592.81 689.86 594.51 693.13 594.82 692.68 597.49 687.25 595.51 684.63 592.81 Z"/>
<path d="M 123.97 627.51 124.88 629.9 119.6 631.24 118.44 629.39 123.97 627.51 Z"/>
<path d="M 103.3 613.36 103.97 615.49 101.48 616.82 100.08 611.97 103.3 613.36 Z"/>
<path d="M 109.22 535.17 112.53 536.3 108.82 539.76 104.57 540.18 103.33 543.86 96.35 546.07 92.16 549.41 89.12 546.04 92.95 546.07 97.56 543.73 98.11 541.61 101.48 540.88 103.02 538.63 105.64 537.72 109.22 535.17 Z"/>
<path d="M 614.07 753.5 610.97 748.61 610.85 746.73 613.43 745.49 616.1 752.22 614.07 753.5 Z"/>
<path d="M 398.72 502.49 399.32 504.67 397.71 506.64 395.89 504.4 398.72 502.49 Z"/>
<path d="M 10.57 121.69 14.31 125.09 13.06 126.63 10.47 124.8 10.57 121.69 Z"/>
<path d="M 481.73 775.93 484.28 774.35 488.38 774.2 489.86 774.87 495.3 773.29 498.36 775.08 495.21 776.02 492.47 774.9 489.68 776.6 481.76 777 481.73 775.93 Z"/>
<g/>
<path d="M 699.29 413.64 696.5 413.1 697.56 408.76 699.69 408.15 702.79 411 699.29 413.64 Z"/>
<path d="M 221.25 711.82 221.46 711.43 223.46 711.52 228.74 713.95 226.04 717.29 228.14 719.11 228.56 721.02 226.86 722.36 221.98 722.27 219.73 727.12 216.18 728.52 216.6 730.22 221.49 730.67 225.25 732.07 227.04 735.5 231.84 740.93 231.23 743.76 230.75 743.88 231.05 740.72 226.44 735.83 225.53 733.16 223.98 731.86 220.67 731.13 216.88 731.25 216.03 728.09 219.18 726.91 220.43 723.6 222.28 721.48 226.74 721.96 228.02 719.84 225.53 717.71 227.92 713.83 221.25 711.82 Z"/>
<g/>
<path d="M 191.32 581.37 190.68 581.73 192.11 577.55 189.95 575.54 174.5 564.31 174.05 559.85 173.05 556.33 171.56 554.57 171.23 551.29 171.32 543.1 170.56 541.64 172.11 539.21 175.11 538.3 176.02 536.36 173.87 532.26 173.5 530.08 174.38 526.95 174.26 522.18 171.8 516.84 173.35 515.08 174.84 509.25 173.81 505.07 174.69 503.15 182.3 499.94 185.61 502.91 188.77 500.94 188.5 498.05 185.43 495.41 184.46 493.38 184.88 493.35 185.31 494.84 189.35 498.21 189.04 501.64 186.74 503.15 184.73 502.82 182.15 500.33 175.54 503.34 174.26 505.91 175.26 509.16 174.02 515.29 172.35 517.11 174.84 521.73 174.29 531.93 176.45 536.9 175.57 538.63 172.47 539.51 171.62 542.85 171.62 552.29 174.32 558.49 174.75 563.1 178.3 566.62 191.53 576.27 192.5 577.46 191.32 581.37 Z"/>
<path d="M 772.87 160.57 777.39 161.27 778.03 162.57 775.15 164.66 772.05 162.39 772.87 160.57 Z"/>
<path d="M 736.29 349.18 741.91 343.59 742.64 345.47 739.39 349.18 736.29 349.18 Z"/>
<path d="M 571.66 64.93 571.97 69.24 567.32 66.96 570.33 64.32 571.66 64.93 Z"/>
<path d="M 744.19 342.5 745.19 339.68 744.79 337.4 748.44 336.06 750.8 338.37 747.65 339.13 744.19 342.5 Z"/>
<path d="M 754.35 356.16 759.6 356.19 754.81 359.28 754.35 356.16 Z"/>
<path d="M 484.01 44.62 485.8 43.35 489.17 43.83 491.5 43.19 493.81 41.34 495.45 37.37 497 35.42 500.46 36.91 498.76 38.34 497.57 41.34 494.45 44.44 489.44 45.5 486.28 45.59 484.01 44.62 Z"/>
<path d="M 779 222.82 774.33 220.85 773.2 217.84 777.15 216.45 779 222.82 Z"/>
<path d="M 467.4 87.14 471.41 86.48 475.08 87.72 475.39 89 478.6 90.03 480.33 92.43 482 92.49 485.22 95.37 482.61 96.98 480.58 96.58 475.51 93.46 474.26 91.55 468.8 88.45 467.4 87.14 Z"/>
<path d="M 782.92 272.9 789.53 275.6 787.89 278.55 784.13 274.96 782.92 272.9 Z"/>
<path d="M 739.18 314.48 740.09 314.82 741.97 319.79 745.52 323.07 743.67 324.68 740.06 321.8 738.66 318.19 739.18 314.48 Z"/>
<path d="M 429.1 88.39 430.01 93.64 426.97 92.4 426 88.48 429.1 88.39 Z"/>
<path d="M 64.78 289.38 65.63 283.34 67.85 284.01 66.51 288.41 64.78 289.38 Z"/>
<path d="M 156.29 188.43 158.84 183.91 160.42 182.3 162.64 183.76 158.93 187.16 156.29 188.43 Z"/>
<path d="M 38.8 281.92 36.55 280.15 37.13 276.03 33.7 274.51 32.88 270.72 33.4 268.23 35.83 269.44 36.58 272.57 39.5 275.18 38.8 281.92 Z"/>
<g/>
<path d="M 14.43 126 15.49 124.72 18.71 125.81 21.89 125.9 20.89 128.06 14.94 127.94 14.43 126 Z"/>
<path d="M 119.53 10 116.96 12.96 113.38 12.51 116.21 10 119.53 10 Z"/>
<path d="M 779.09 457.23 776.33 458.26 773.96 455.68 776.88 450.73 779.55 452.89 779.09 457.23 Z"/>
<path d="M 555.46 670.67 558.58 673.16 557.49 674.52 554.27 671.55 555.46 670.67 Z"/>
<path d="M 397.35 205.79 405.94 205.25 401.33 207.28 399.38 210.38 396.99 207.19 397.35 205.79 Z"/>
<path d="M 610.12 310.87 612.37 312.36 618.28 310.72 618.8 312.51 614.76 313.82 611.15 313.06 610.12 310.87 Z"/>
<path d="M 341.44 186.21 340.53 184.33 343.48 180.33 344.99 181.15 344.39 183.3 341.44 186.21 Z"/>
<path d="M 266.38 624.44 273.79 624.38 268.29 627.51 266.38 624.44 Z"/>
<path d="M 67.06 536.57 70.7 537.54 72.55 540 70.88 541.85 68.09 539.61 67.06 536.57 Z"/>
<path d="M 151.16 525.25 155.84 526.58 154.17 529.16 149.59 526.19 151.16 525.25 Z"/>
<path d="M 493.81 192.77 492.81 191.53 496.91 189.4 496.97 188.1 499.76 185.76 502.76 186.03 499.43 189.86 496.88 190.68 493.81 192.77 Z"/>
<path d="M 702.12 412.43 705.09 413.25 708.64 416.04 706.58 417.77 702.97 416.25 700.69 413.37 702.12 412.43 Z"/>
<path d="M 305.2 753.23 306.78 754.68 302.68 756.99 302.62 753.83 305.2 753.23 Z"/>
<path d="M 307.9 704.57 305.78 704.48 305.84 701.75 308.05 702.2 307.9 704.57 Z"/>
<path d="M 347.72 722.78 349.15 719.53 352.46 722.17 349.76 723.84 347.72 722.78 Z"/>
<path d="M 273.6 638.16 268.72 638.58 268.23 636.82 271.42 635.67 273.51 636.85 276.88 635.91 277.73 637.58 273.6 638.16 Z"/>
<path d="M 83.24 576.57 85.75 579.43 89.03 581.43 85.94 582.34 82.14 578.82 83.24 576.57 Z"/>
<path d="M 241.89 223.64 245.19 219.66 249.54 217.39 252.48 218.69 253.15 221.67 252.75 225.1 248.72 231.01 245.1 231.68 241.01 228.59 241.89 223.64 Z"/>
<path d="M 418.05 725.15 421.3 728.73 422.39 732.01 423.06 736.62 421.09 740.14 418.23 739.51 418.02 736.32 419.42 734.16 419.33 728.58 418.05 725.15 Z"/>
<path d="M 221.46 711.43 221.25 711.82 219.94 708.55 216.54 708.94 213.05 708.24 209.83 710.46 207.5 710.79 204.31 709.55 201.09 706.91 203.34 702.48 197.66 699.14 194.23 700.11 192.23 699.2 191.29 696.38 188.62 696.22 186.71 697.44 182.58 697.13 176.36 691.09 170.53 690.97 166.04 687.85 164.37 684.36 165.13 679.92 168.74 679.56 170.53 680.47 173.5 679.89 175.11 676.95 177.81 677.04 180.12 671.82 179.82 670.21 183.12 668.57 182.27 666.57 185.07 660.47 189.71 657.71 196.27 657.49 196.9 657.8 195.66 659.71 193.23 657.98 189.47 658.22 185.7 660.8 182.64 666.99 183.43 669.36 180.3 670.33 180.88 672.12 179.03 676.31 177.72 677.71 175.02 677.44 172.47 682.08 168.71 679.99 165.79 680.26 166.1 682.78 165.03 684.14 167.98 689.03 171.89 690.82 175.05 690.49 178.72 691.91 181.76 695.71 186.49 697.04 188.22 695.89 191.68 696.04 193.14 699.32 198.36 698.38 200.06 699.96 203.73 701.66 203.79 703.11 201.85 707.09 205.1 709.24 207.86 710.19 211.9 708.12 218.61 707.88 221.16 709.09 221.46 711.43 Z"/>
<path d="M 190.68 581.73 191.32 581.37 192.23 584.86 192.14 587.59 193.29 593.15 192.87 594.79 193.75 601.86 193.05 611.21 187.71 615.76 187.25 616.94 187.89 623.99 189.1 627.02 192.32 627.23 192.32 629.78 193.93 632.36 190.62 638.16 192.62 643.23 191.38 648.84 195.93 653.09 196.9 657.8 196.27 657.49 195.99 654.46 190.89 649.18 190.86 646.66 191.99 643.32 189.95 638.52 193.17 633.15 191.74 629.87 192.17 627.75 188.38 627.08 187.34 624.11 186.92 618.37 187.19 615.58 190.35 612.3 192.59 610.9 193.05 606.11 192.23 596.76 192.5 592.3 191.38 588.11 190.68 581.73 Z"/>
<g/>
<path d="M 300.29 777 301.77 772.1 303.11 769.98 303.41 764.67 304.05 764.7 303.62 770.1 300.29 777 Z"/>
<path d="M 304.05 764.7 303.41 764.67 304.05 762.91 312.64 751.07 319.01 746.43 320.5 739.93 325.36 729.91 325.48 724.03 327.78 717.17 327.94 714.8 329.6 709.55 329.88 706.36 332.09 703.23 333.09 700.47 336.04 695.5 338.5 692.73 338.25 689.7 338.8 689.7 338.92 693.22 336.77 695.5 330.3 706.91 329.85 711.04 328.51 716.62 326.02 724.06 325.75 730.67 322.99 735.23 320.95 740.23 319.53 746.64 313.15 751.28 308.72 757.66 304.65 762.82 304.05 764.7 Z"/>
<path d="M 338.8 689.7 338.25 689.7 336.22 684.66 335.52 680.47 336.77 678.16 337.65 667.33 341.17 662.05 343.75 659.13 347.57 656.8 349.76 652.76 350.73 646.45 352.07 643.53 354.07 635.34 358.04 633.79 357.16 629.78 357.44 626.44 358.74 622.19 361.08 620.25 361.14 620.89 359.38 622.32 357.95 627.05 358.68 634.09 354.43 635.88 352.31 644.5 351.15 646.54 350.37 652.73 347.79 657.28 344.33 659.25 341.05 663.23 337.8 668.75 337.65 677.68 336.25 679.32 336.86 684.08 338.8 689.7 Z"/>
<path d="M 361.14 620.89 361.08 620.25 365.66 617.91 366.3 614.67 377.38 603.41 377.71 603.92 366.66 615 366.42 617.95 361.14 620.89 Z"/>
<path d="M 470.44 82.32 470.44 78.59 472.59 79.01 473.47 82.2 470.44 82.32 Z"/>
<path d="M 719.57 621.31 723.94 619.25 725.85 620.28 724.21 624.38 719.57 621.31 Z"/>
<path d="M 715.59 620.68 719.39 621.95 714.44 625.05 712.68 624.23 713.44 622.16 715.59 620.68 Z"/>
<path d="M 207.16 475.35 210.14 477.96 207.07 480.3 204.13 477.69 207.16 475.35 Z"/>
<path d="M 361.75 623.32 366 621.44 366.57 622.47 362.66 624.62 361.75 623.32 Z"/>
<path d="M 372.37 627.48 374.62 625.68 378.71 624.71 383.42 626.32 380.57 628.51 378.47 626.35 375.62 626.96 375.59 629.45 373.07 629.81 372.37 627.48 Z"/>
<g/>
<path d="M 706.91 627.14 705.55 628.84 697.93 630.51 691.89 629.15 685.48 628.6 677.87 629.84 673.98 631.6 665.36 636.85 652.83 644.08 651.07 647.11 630.21 663.78 629.88 663.53 644.24 652 650.22 647.39 652.7 643.59 664.12 637.19 674.16 630.94 678.62 629.18 685.82 628.2 691.34 628.63 698.17 630.15 702.69 628.72 704.45 628.9 706.91 627.14 Z"/>
<g/>
<g/>
<g/>
<g/>
<g/>
<g/>
<path d="M 685.15 144.06 684.63 143.69 685.06 137.59 684.57 132.49 682.24 131.98 684.06 128.7 687.61 130.21 686.43 134.19 687.49 136.29 685.85 137.35 686.91 140.87 685.15 144.06 Z"/>
<path d="M 232.78 422.02 237.82 425.18 239.94 427.36 239.37 429.15 234.15 428.52 234.42 424.63 232.78 422.02 Z"/>
<path d="M 253.85 215.53 254.85 214.78 261.46 212.92 263.53 213.53 268.54 221.03 267.72 223.09 263.07 224.85 256.12 222.61 255.09 221.54 253.85 215.53 Z"/>
<path d="M 636.07 377.49 639.05 379.47 638.68 384.41 635.28 379.65 636.07 377.49 Z"/>
<g/>
<path d="M 233.15 756.23 231.45 754.44 227.5 754.44 226.86 753.56 226.86 749.04 228.8 749.19 232.05 751.53 236.18 753.35 233.15 756.23 Z"/>
</g>
</svg>