<?xml version="1.0"?>
<svg xmlns="http://www.w3.org/2000/svg" version="1.2" baseProfile="tiny" width="800" height="541" viewBox="0 0 800 541" stroke-linecap="round" stroke-linejoin="round">
<defs>
    <style>
        :root {
            --water-color: #9FC9EA;
            --bg-color: #F2E7D3;
        }
    
        svg {
            background: var(--bg-color, #ffffff);
        }
        path, polygon, rect, circle {
            fill: var(--water-color, #3b82f6);
            stroke: none;
        }
    </style>
</defs>
<g id="water">
<g/>
<path d="M 784.89 50.48 784.86 50.46 784.89 50.46 784.89 50.48 Z M 784.89 57.4 784.85 57.09 784.89 57.35 784.89 57.4 Z M 784.89 118.62 784.66 118.07 784.89 118.57 784.89 118.62 Z" fill-rule="evenodd"/>
<g/>
<g/>
<path d="M 407.35 302.21 413.84 305.24 415.3 305.25 419.53 303.91 421.75 304.83 423.09 306.19 425.11 307.28 427.63 307.41 429.59 309.64 429.1 312.52 433.34 312.98 435.86 315.56 436.2 318.07 441.24 323.12 445.34 325.4 448.71 328.28 451.73 333.76 450.64 334.91 447.48 335.22 447.05 336.65 450.16 337.47 457.84 336.43 460.73 336.84 461.77 338.28 467.19 340.71 468.38 342.35 470.38 343.11 474.99 342.5 478.7 342.87 484.09 342.23 486.4 342.98 488.98 345.38 489.58 346.86 488.92 352.11 487.47 355.52 484.34 360.41 483.68 364.25 485.75 368.51 486.17 370.78 485.68 373.04 486.46 375.75 493.37 377.46 497.93 377.14 501.18 379.38 505 380.24 514.84 380.21 520.47 377.01 525.33 376.72 526.63 375.94 527.2 373.7 529.16 373.39 530.1 375.86 532.06 377.06 534.28 375.84 537.29 375.19 540.41 379.03 544.06 378.12 544.71 382.06 544.58 386.31 545.97 394.21 548.24 409.21 550.17 411.44 553.06 411.94 560.32 407.71 563.24 407.72 565.21 410.05 564.07 412.26 561.72 414.84 561.34 417.14 563.92 420.28 567.52 421.15 567.73 422.65 564.43 424.14 562.79 425.77 564.63 427.43 564.88 428.91 563.37 430.66 561.83 436.67 556.39 442.69 556.65 445.38 559.6 446.99 563.59 446.6 570.15 451.52 572.09 453.88 574.82 455.98 578.99 457.05 581.6 456.59 586.81 457.95 594.18 461.92 599.67 458.44 602.55 459.36 610.77 463.72 615.38 465.35 630.47 471.58 633.04 474.28 630.94 477.58 631.68 480.23 629.33 482 628.7 484.77 634.75 485.28 637.43 486.25 640.03 488.39 643.86 493.42 646.56 495.53 658.56 494.57 660.11 495.76 652.64 495.53 648.61 496.24 645.63 495.87 640.14 490.1 639.21 488.35 636.08 486.39 632.89 486.43 631.35 485.61 628.48 485.65 627.36 483.49 630.42 479.59 629.82 476.8 631.78 474.13 630.05 472 624.11 469.42 613.62 465.33 609.88 464.09 603.11 460.23 599.34 459.02 594.28 462.7 586.48 458.59 581.34 457.17 576.79 457.28 573.6 455.81 565.58 448.52 562.58 447.3 558.84 447.44 556.04 445.59 555.4 444.36 556.37 441.59 559.43 438.82 561.06 436.68 562.58 430.99 564.24 428.84 564.06 427.59 562.09 425.54 563.16 424.32 566.63 422.94 566.63 421.46 563.18 420.28 560.99 418 560.82 415.69 564.22 411.09 564.57 409.49 561.95 407.98 559.95 408.43 553.42 412.35 549.56 411.74 547.87 410.17 545.84 398.25 543.89 384.34 543.86 379.13 542.49 378.68 539.79 379.5 537.15 375.71 535.03 376.02 532.83 377.53 530.79 377.45 529.34 374.31 527.12 374.75 526.65 376.83 522.25 377.08 520.19 377.75 515.72 380.46 513.56 380.85 503.43 380.48 500.17 379.4 498.06 377.71 492.64 377.84 488.52 376.51 486.84 376.54 485.16 374.42 485.38 369 482.91 363.33 483.82 359.94 487.63 353.71 488.89 349.7 488.51 345.65 485.81 343.24 482.73 342.89 479.45 343.22 473.18 342.89 470.16 343.61 467.82 342.52 466.6 340.72 463.07 339.59 458.74 336.73 449.91 337.85 446.49 336.54 447.11 335.14 451.38 333.73 449.04 329.32 447.42 327.52 440.85 323.17 436.08 318.55 434.97 315.08 432.48 313.01 429.45 313.06 428.33 311.49 428.78 309 427.3 307.52 425.43 307.56 423.64 307.04 420.6 304.55 419.01 304.32 415.1 305.67 412.71 305.39 406.99 302.68 407.35 302.21 Z"/>
<path d="M 407.98 296.07 409.99 296.01 407.99 296.07 407.98 296.07 Z M 398.03 293.66 398.7 294.31 398.03 293.67 398.03 293.66 Z" fill-rule="evenodd"/>
<g/>
<path d="M 784.89 435.03 784.77 435.02 784.89 435.02 784.89 435.03 Z"/>
<g/>
<g/>
<g/>
<g/>
<g/>
<g/>
<g/>
<g/>
<g/>
<g/>
<g/>
<g/>
<g/>
<g/>
<path d="M 95.98 461.26 94.26 461.08 96.78 460.86 98.12 462.77 99.9 461.71 99.64 459.52 101.46 459.56 106.3 457.95 109.97 458.11 112.85 456.81 116.35 457.72 115.6 455.66 117.23 455.25 119.57 456.32 119.81 452.79 122.52 452.13 129.04 451.89 149.27 455.16 153.85 458.11 151.52 459.18 150.78 459.04 149.83 461.03 147.69 462.63 148.8 465.76 148.1 468.6 145.9 466.8 144.87 467.78 144.04 468.15 144.28 468.75 144.73 468.82 145.2 469.02 144.58 470.58 143.42 471.01 144.11 473.05 146.12 474.58 146.73 476.43 145.16 478.85 144.99 478.34 143.63 476.67 142.98 476.71 142.11 476.06 138.17 476.06 132.03 478.55 133.57 479.9 133.1 482.17 134.18 482.68 133.38 483.95 133.72 486.23 137.95 486.13 133.65 489.17 131.62 488.83 130.72 489.98 131.23 490.4 131.72 490.8 131.61 491.41 131.65 493.23 131.54 493.38 130.83 493.73 130.95 493.6 130.64 493.44 130.56 493.6 128.37 492.23 125.77 492.66 124.34 496.61 121.44 499.72 120.54 501.51 116.49 503.54 116.51 508.47 114.82 510.79 114.84 512 115.32 513.84 110.93 515.36 110.22 514.56 108.81 513 106.63 512.27 104.52 512.83 104.48 514.68 101.84 513.67 100.36 514.12 99.38 515.06 100.91 516.44 102.8 517.5 104.46 518.03 105.4 522.07 105.18 524.2 104.63 524.81 104.2 529.34 103.29 528.76 100.43 530.21 100.63 531 85.36 531 83.37 527.31 84.09 525.18 86.32 522.48 86.49 521.84 85.54 522.18 84.64 522.38 81.34 519.39 81.7 518.54 81.41 515.25 81.97 513.41 84.6 509.81 83.54 508.56 83.54 508.79 83.08 508.92 83.01 508.88 82.68 508.94 82.64 508.55 82.41 508.62 82.17 508.68 81.76 508.57 82.12 508.08 82.37 508.12 82.54 507.79 78.07 506.37 77.92 506.13 81.07 505.33 80.63 504.14 83.34 506.04 84.01 505.89 85.65 507.11 85.79 506.82 86.87 505.78 87.38 505.22 87.84 504.89 88.07 504.74 89.58 504.61 90.62 503.98 88.11 501.91 88.68 502.01 88.99 501.99 89.22 501.83 90.77 502.33 91.08 502.38 93.18 502.44 92.51 501.06 91.45 499.19 91.44 498.91 91.4 497.76 91.62 498.08 92.49 499.13 93.11 499.1 92.58 498.1 92.33 497.43 92.73 497.79 92.9 498.04 93.08 498.27 93.15 498.47 93.93 499.04 94.93 498.88 99.5 496.91 99.69 496.54 98.68 495.71 98.17 495.41 97.69 494.81 97.42 495.11 97.26 494.63 97.64 494.45 99.39 494.81 99.75 494.71 100.36 493.6 100.4 493.31 100.79 492.41 101.05 492.75 101.32 492.74 101.54 492.63 101.72 492.55 101.98 492.43 102.17 492.34 102.91 491.86 102.88 491.62 101.47 490.11 101.38 490.11 101.2 490.11 100.69 490.1 102.98 489.59 103.03 489.66 103.37 489.91 103.99 489.98 104.22 489.82 104.25 489.54 104.59 488.93 104.59 488.62 104.06 487.48 103.99 487.07 103.73 486.69 103.63 486.44 103.77 485.76 103.74 485.42 103.7 485.01 104.24 484.47 104.83 484.16 106.19 482.89 106.22 482.57 106.4 482.31 106.85 481.64 107.12 481.34 107.07 480.68 106.96 480.63 106.89 480.6 106.66 480.48 106.88 480.05 107.33 479.81 108.23 479.68 109.23 479.14 109.37 478.9 110.3 478.11 110.4 478.03 110.59 477.85 110.61 477.49 110.26 477.3 110.01 477.32 109.22 477.1 108.81 476.86 109.03 476.11 109.44 475.91 109.48 475.37 107.7 474.93 107.29 475.19 106.65 475.48 106.14 475.47 104.88 475.92 104.31 475.73 104 475.86 103.96 476.71 103.81 477.62 103.48 477.81 103.22 477.27 103.18 476.74 102.9 476.56 102.28 475.25 102.01 475.19 101.61 475.75 101.43 475.91 102.81 477.59 102.09 478.71 102.01 478.72 101.27 481.78 99.15 484.87 98.52 484.6 95.19 484.35 94.36 485.38 94.14 484.91 94.11 484.35 93.75 482.57 93.6 482.11 92.14 482.47 91.52 482.83 90.74 482.02 90.04 481.82 88.66 481.54 88.29 481.42 88.07 482.86 82.98 484.88 82.17 485.09 79.97 487.92 79.57 487.53 76.58 487.33 76.37 487.06 74.67 486.99 73.81 486.91 72.43 487.39 66.8 487.17 63.55 488.63 62.89 488.93 62.07 488.95 60.1 493.07 60.32 494.81 59.44 496.22 58.36 496.54 53.98 497.13 53.04 497.84 51.35 499.23 49.64 501.14 49.16 501.33 48.03 504 47.45 504.47 45.96 507.88 46.48 510.09 45.47 511.94 41.91 516.24 42.31 520.24 41.27 521.03 39.27 521.47 37.99 519.43 38.15 518.76 38.64 516.69 37.91 517.07 33.35 519.77 32.08 518.76 30.82 519.15 30.96 519.66 30.49 519.25 31.15 518.32 34.05 519.11 34.04 518.63 37.53 516.83 39.01 514.91 39.51 514.39 37.99 515.38 37.56 514.76 34.66 513.99 34 514.34 33.2 512.37 33.29 509.57 32.12 509.4 34.09 508.34 35.42 508.42 37.82 507.56 37.45 506.47 34.87 504.56 34.7 504.35 35.18 503.26 35.71 503.06 37.17 499.95 38.17 498.97 37.78 496.87 39.21 494.23 42.43 492.32 42.14 488.31 37.34 486.4 39.72 484.97 42.47 485.1 43.99 485.98 50.04 482.39 50.19 479.27 52.2 477.12 58.48 476.23 58.81 473.84 53.16 472.76 50.85 470.8 48.34 470.23 48.78 469.65 51.89 471.06 52.35 471.2 54.68 471.7 55.51 471.88 57.62 471.39 58.31 471.64 59.91 470.88 60.7 471.35 65.52 473.74 66.63 473.5 68.23 476.86 68.28 478.29 69.04 478.42 69.17 477.96 69.13 477.21 68.84 475.78 68.23 474.44 70.31 473.37 70.1 473.24 68.5 474 66.26 470.8 68.24 469.32 68.57 469.54 69.08 470.4 73.39 469.53 76.75 470.21 82.12 472.22 84.72 470.34 87.51 469.32 87.72 469.5 91.6 469.24 94.51 466.05 95.33 464.29 97.33 463.77 95.98 461.26 Z M 36.61 512.37 36.34 513.01 38.98 512.2 38.9 511.53 38.02 511.75 37.13 511.31 36.61 512.37 Z M 75.99 531 76.48 530.83 77.01 530.4 78.81 529.72 79.63 529.64 80.05 529.71 80.66 529.58 82.16 529.36 84.3 531 75.99 531 Z" fill-rule="evenodd"/>
<path d="M 700.02 132.24 702.06 132.8 708.41 135.89 709.04 139.01 709.7 139.51 708.72 142.67 708.83 143 709.6 143.02 711.5 136.58 712 136.93 714.13 136.44 718.67 138.4 721.62 138.33 723.3 136.46 723.46 136.32 724.9 134.88 725.2 134.85 725.01 127.87 726.04 127.67 725.85 128.19 726.23 129.58 730.01 133.68 730.53 133.46 731.81 135.06 731.96 135.52 733.55 135.95 733.63 135.51 735.51 135.72 740.63 134.38 740.98 133.5 738.25 130.62 738.37 128.13 738.15 127.76 739.49 125.56 739.46 121.99 739.5 121.58 739.5 121.04 739.61 120.48 739.19 118.9 739.05 118.5 738.7 115.95 738.49 115.6 740.12 113.2 750.52 113.34 750.7 113.13 750.58 112.97 739.7 112.93 741.46 110.23 741.5 110.01 742.87 108.96 743.62 108.84 745.95 106.63 746.92 103.7 746.68 103.17 750.3 105.89 753.6 109.18 753.93 109.15 754.05 108.85 746.47 101.99 746.46 101.87 745.87 100.06 743.94 98.68 743.87 97.13 744.14 96.85 743.24 96.26 743.46 95.89 743.58 92.07 742.76 89.29 740.37 87.31 742.15 83.15 741.59 78.41 742.54 77.52 742.73 77.17 743.93 76.66 744.4 76.51 744.94 76.89 745.13 76.84 747.01 74.03 746.85 69.21 745.32 65.57 745.64 64.66 745.32 64.22 746.05 61.4 746.33 61.13 749.4 59.93 750.51 62.21 748.85 62.58 748.73 63.11 748.2 63.99 749.59 72.42 749.26 72.58 751.73 73.18 752.55 73.2 753.18 72.87 753.22 73.13 753.27 73.47 752.89 73.57 752.67 73.76 752.82 74.21 752.32 75.15 752.44 75.52 752.07 76.03 751.88 76.34 752.01 77.17 751.78 77.52 751.93 77.66 752.11 77.7 752.42 79.3 752.27 79.49 752.79 80.93 751.51 82.3 751.17 82.46 751.84 85.05 752.18 85.45 753.31 87.32 753.37 87.55 753.4 87.68 753.48 88.07 753.71 92.03 754.45 94.53 754.25 94.67 753.94 95.07 754.37 95.25 754.77 94.79 755.08 94.45 756.71 94.21 758.49 96 758.93 96.5 759.35 97.46 758.97 97.6 758.01 101.09 757.97 101.27 758.76 104.28 757.43 107.13 755.89 112.37 755.85 112.97 751.29 113.01 751.33 113.27 755.89 113.59 755.53 113.71 753.16 115.83 750.07 117.39 751.11 119.85 750.29 122.77 751.04 125.38 751.47 125.81 753.16 128.27 757.42 127.41 759.32 128.38 763.65 128.71 765.67 130.26 767.77 128.78 770.15 130.79 772.45 131.87 773.19 133.38 774.35 135.03 774.98 136.04 772.75 137.54 760.88 142.67 761.33 143.39 774.2 137.71 776.55 138.96 776.9 139.33 779.2 144.52 778.76 145.82 779.17 146.57 783.22 146.34 784.89 143.89 784.89 232.89 770.05 229.69 768.44 229.17 768.22 229.15 767.53 228.74 767.32 228.44 767.33 227 767.95 226.68 767.96 226.47 767.56 226.21 767.3 225.84 767.06 225.68 766.63 225.23 766.37 224.94 766.11 224.55 764.67 222.95 764.4 222.72 763.44 221.8 763.22 221.6 763.03 221.43 762.84 221.04 763 220.72 762.76 220.52 762.68 220.45 762.53 220.33 760.36 216.99 758.45 216.6 751.22 213.43 749.18 210.01 749.35 207.99 751.08 204.85 754.74 199.63 752.19 199.52 748.88 197.58 747.68 195.21 749.29 192.2 747.09 189.44 747.24 186.62 748.22 183.99 756.46 167.62 756.71 167.41 756.59 167.17 756.23 167.21 748.09 183.54 747.74 183.56 746.92 185.15 743.87 182.4 742.49 179.5 744.38 178.12 742.75 175.93 745.02 174.19 744.65 172.57 741.57 168.4 741.13 167.37 741.23 165.83 743.43 163.03 743.19 162.88 741.69 160.01 741.37 159.9 741.57 159.74 741.39 159.52 741.59 159.38 741.8 159.23 743.34 159.89 748.07 159.46 751.03 159.65 751.78 159.49 752.59 158.68 753.18 157.77 753.77 157.14 753.68 153.1 751.99 151.48 754.66 150.83 755.5 150.05 755.63 149.66 755.63 148.99 755.56 147.16 755.31 146.9 754.68 145.27 753.71 145.71 752.08 145.65 750.96 145.78 748.07 145.78 747.05 145.42 742.31 145.91 741.33 149.4 738.72 151.18 737.52 151.77 735.25 153.04 734.91 153.32 731.06 153.54 730.6 153.32 728.77 153.23 728.25 153.06 724.71 151.58 719.3 152.56 716.96 152.29 714.68 150.89 711.23 147.69 707.55 147.49 704.8 148.6 702.03 147.94 701.39 148.1 699.21 146.94 696.84 146.79 694.89 145.17 694.64 145.37 693.68 143.13 689.82 141.71 688.52 139.36 688.41 139.04 689.67 138.62 689.63 138.29 685.43 135.14 682.83 133.87 680.97 131.25 680.79 127.97 678.75 124.45 679.09 124.44 678.83 123.47 679.07 123.03 677.41 120.2 674.56 118.16 674.32 114.98 674.1 114.72 673.96 114.52 674.15 114.63 676.26 113.35 677.04 117.28 681.13 120.47 681.3 120.55 682.21 122.02 684.69 122.93 685.65 124.95 693.49 124.71 694.2 127.63 696.45 131.56 700.02 132.24 Z M 784.89 137.88 783.67 136.72 784 136.13 784.89 137.88 Z M 784.89 129.67 783.33 129.68 782.82 127.29 784.89 124.2 784.89 129.67 Z M 784.89 118.57 784.66 118.07 784.37 117.76 784.2 117.58 783.81 117.16 783.25 116.92 783.58 116.32 784.23 116.14 784.89 118.57 Z M 784.89 57.35 784.85 57.09 784.72 56.55 784.85 55.97 784.89 57.35 Z M 784.89 50.46 784.86 50.46 784.38 49.56 782.4 48.29 782.1 48.51 780.84 46.93 782.64 46.15 782.81 45.58 782.49 41.9 783.26 40.79 783.53 39.67 783.94 38.3 783.58 38.23 783.53 37.09 783.07 36.12 782.27 34.15 782.33 30.74 784.89 31.08 784.89 50.46 Z" fill-rule="evenodd"/>
<path d="M 216.21 91.7 216.42 92.1 217.63 92.96 216.94 93.26 215.66 91.04 216.18 90.36 216.33 89.66 216.31 89.1 216.23 88.83 215.78 87.69 214.96 86.46 214.54 86.09 212.88 85.27 212.07 85.13 208.91 84.79 208.5 84.67 208.02 84.52 207.27 84.16 206.13 82.35 206.93 80.68 207.16 80.16 207.21 79.45 206.91 78.67 205.79 75.92 206.46 73.8 206.62 73.2 206.6 72.57 206.34 71.83 206.1 71.18 207.06 69.64 207.77 69.3 207.98 69.24 209.33 68.28 209.69 67.75 209.46 67.02 209.29 66.78 208.29 65.75 208.02 65.41 207.77 64.79 207.73 63.52 208.77 63.25 210.65 64.2 211.62 64.03 212.41 63.78 213.02 63.48 213.28 63.25 213.73 62.49 213.63 61.92 213.41 61.54 212.78 61.15 212.03 60.93 209.01 60.65 206.71 59.61 205.58 59.07 204.74 58.65 203.81 57.8 203.67 57.35 203.64 56.99 203.68 56.73 204.11 55.43 204.83 54.24 205.57 53.57 206.1 53.28 208.31 53.38 209.03 53.67 210.14 54.05 210.53 53.94 210.73 53.41 210.59 51.5 210.66 51.09 211.07 49.34 211.57 48.63 212.52 47.64 212.63 47.41 213.15 46.52 213.52 46.25 214.02 45.54 214.02 45.14 213.73 44.44 213.33 43.99 212.63 42.38 212.62 40.73 212.13 39.93 211.51 38.54 211.07 37.69 210.44 37.15 210.32 37.05 210.1 36.98 209.65 37.01 207.77 36.83 205.56 35.49 205.17 34.92 204.97 32.93 205.13 32.73 205.71 31.18 205.84 30.37 205.57 29.78 204.56 29.06 203.98 28.39 199.37 22.69 199.25 21.42 199.08 17.88 199.18 17.41 199.23 16.23 199.29 15.7 199.08 14.96 198.89 14.52 197.95 13.35 197.82 13.03 197.78 11.64 197.8 11.53 198.73 10.08 198.88 10 199.69 10.06 199.14 10.46 198.63 10.99 198.45 11.48 198.51 11.74 198.73 12.11 198.82 12.73 198.8 13.15 198.97 13.47 199.74 16.22 199.66 16.73 199.66 17.49 199.6 17.89 199.56 18.27 199.6 19.79 199.62 20.07 200.75 24.09 201.67 25.16 202.34 25.84 204.22 28 204.86 28.63 206.21 30.28 205.98 31.88 205.64 32.34 205.13 33.26 205.05 33.73 205.09 33.99 205.48 34.86 206.08 35.52 206.67 35.96 206.9 36.12 207.31 36.33 207.69 36.52 207.86 36.6 208.62 36.75 209.18 36.72 209.99 36.63 210.94 37.02 211.25 37.26 211.61 37.82 212.35 39.51 212.72 40.09 212.91 40.51 213 41.65 212.98 42.39 213.5 43.48 213.74 43.95 214.43 45.44 211.09 50.3 211 53.82 210.87 54.12 210.25 54.32 209.7 54.23 207.76 53.46 207.38 53.41 206.69 53.45 206.26 53.57 205.6 54.01 205.16 54.41 204.82 54.87 204.11 56.24 203.98 56.91 204.02 57.47 204.38 57.98 204.98 58.43 208.17 59.98 208.47 60.11 208.73 60.24 209.28 60.48 213.29 61.03 214.07 62.21 214.1 62.56 213.15 63.77 212.37 64.1 210.32 64.49 209.69 64.34 209.38 64.19 208.69 63.55 208.43 63.45 208.16 63.55 207.97 63.81 207.9 64.14 208.13 64.72 208.57 65.61 209.17 66.07 209.27 66.19 209.47 66.45 210.13 67.68 208.51 69.34 208.1 69.73 207.84 69.76 207.54 69.8 207.14 70.01 206.9 70.24 206.75 70.51 206.64 71.35 207.06 73.1 206.61 74.22 206.32 75.15 206.23 75.67 206.17 76.4 206.24 76.77 206.41 77.11 207.35 78.78 207.56 80.46 206.72 81.74 206.53 82.22 207.19 83.67 207.57 83.86 208.64 84.39 209.14 84.52 213.13 84.94 214.11 85.32 215.26 86.03 215.96 86.9 216.04 87.06 216.23 87.44 216.4 87.8 216.52 90.7 216.08 91.22 216.21 91.7 Z"/>
<path d="M 260.26 240.94 260.41 240.94 260.75 240.95 258.44 241.38 252.78 241.1 249.6 242.29 248.67 243 248.19 243.57 245.14 249.29 244.95 250.11 244.95 251.07 244.88 251.79 244.24 253.86 244.06 254.5 243.62 255.64 243.1 256.43 243.04 256.51 242.91 256.72 241.11 259.28 240.7 259.61 237.69 260.39 234.49 258.57 234.03 258.4 232.15 258.89 231.9 258.99 229.7 259.91 229.4 260.06 229.18 260.17 227.89 260.82 225.06 262.33 224.54 262.59 223.92 263 223.29 263.31 223.13 263.41 222.83 263.56 219.44 264.44 218.85 264.87 218.52 264.92 218.26 264.81 217.86 264.85 217.29 265.18 215.7 265.52 215.17 265.68 214.26 266.02 213.1 266.27 209.91 267.22 208.8 267.75 207.73 267.9 206.65 268.05 204.68 268.67 204.46 268.75 202.79 269.02 202.48 269.17 202.26 269.28 201.88 269.3 201.89 269.38 201.67 269.71 201.4 269.73 201.3 269.75 201.22 269.76 201.14 269.86 200.97 270.03 200.48 270.38 197.04 270.49 196.61 270.49 196.18 270.42 196.1 270.4 195.33 270.38 194.9 270.68 194.62 270.97 194.39 271.27 191.78 272.98 191.2 272.95 190.24 272.91 189.79 272.92 189.53 273.03 188.81 273.35 185.99 273.28 185.37 271.51 185.44 271.13 185.59 270.72 186.31 270.08 186.66 269.91 187.53 269.73 188.34 269.42 189.45 268.45 189.56 268.06 189.28 267.65 188.91 267.42 188.01 267.49 187.66 267.53 187.56 267.64 186.67 267.84 185.97 267.78 185.86 267.89 185.12 268 184.7 268.06 184.69 268.06 184.44 268.1 184.41 268.15 184.34 268.26 184.07 268.31 182.92 269.94 182.8 270.84 181.48 273.17 181.51 273.48 182.21 275.62 181.95 275.89 181.58 276.28 181.17 276.78 178.35 276.92 178.13 276.75 178.03 276.28 177.35 275.28 176.98 275.24 176.65 275.19 176.34 275.3 176.2 275.7 176.19 276.28 176.21 276.55 176.3 277.4 176.36 277.93 176.27 278.38 175.8 279.11 175.54 279.2 173.26 278.3 173.11 278.01 172.55 277.34 171.01 276.89 170.12 276.84 169.75 276.85 169.34 277.11 166.17 278.16 165.63 278.04 165.21 278.05 164.83 278.25 164.87 278.36 164.7 278.84 164.62 279.19 163.95 282.08 163.24 282.78 162.51 283.5 162.36 283.54 161.75 283.72 161.57 283.84 162.02 285.94 162.12 286.14 162.35 286.43 162.49 286.92 160.53 289.57 160.06 289.89 159.86 290.11 159.16 290.55 158.08 291.33 157.2 291.74 154.81 292.55 154.63 292.6 153.33 292.93 152.92 293.08 149.77 293.27 147.6 292.97 145.12 292.63 144.13 292.64 143.31 292.85 142.97 292.64 139.97 292.36 135.77 290.96 133.68 290.18 133.03 289.89 132.27 289.67 126.55 289.47 122.37 289.67 121.18 289.76 115.93 288.89 114.97 287.42 114.91 286.9 114.64 286.51 114.32 286.25 113.97 285.8 113.34 285.49 111.34 284.24 111.04 284.04 110.25 283.3 109.75 282.93 109.04 282.08 106.99 279.34 107.08 279.15 106.77 278.41 106.06 277.41 105.67 276.95 105.39 276.71 104.4 276.28 103.57 275.61 103.29 275.25 102.75 274.87 102.27 274.58 100.14 271.5 99.5 270.83 98.41 270.24 96.97 269.61 95.9 269.19 95.01 268.72 94.51 267.31 94.72 266.71 94.93 266.26 95.12 265.82 95.42 265.35 95.53 265.09 95.56 264.67 95.89 263.47 96.04 262.6 94.68 259.09 92.34 258.22 91.08 258.17 89.8 257.99 87.48 256.95 86.65 256.16 85.75 255.43 81.63 254.79 79.35 254.92 77.43 254.9 74.98 254.66 74.58 254.57 74.2 254.49 72.54 253.9 72.83 253.28 73.07 252.86 73.13 252.76 73.25 252.54 73.22 252.37 72.95 251.93 72.79 251.52 70.9 248.75 70.88 248.49 72.31 247.77 72.48 247.79 72.57 247.81 72.91 248.05 73.55 248.19 73.95 247.92 74.2 247.51 74 247.16 74.18 246.54 74.35 246.26 74.33 245.06 74 244.41 74.06 244.09 74.14 243.95 74.03 243.78 74 243.06 73.95 242.96 73.36 242.85 72.92 242.89 71.33 241.9 71.14 241.48 71.16 241.17 71.17 240.77 71.07 240.72 70.97 240.1 70.95 239.53 70.99 239.1 71.8 235.19 71.83 234.26 71.33 232.11 71.06 231.07 70.47 230.06 70.47 229.87 70.19 229.7 70.06 229.74 68.68 229.39 67.9 229.32 64.75 228.44 64.35 226.57 63.82 226.24 63.49 226.27 62.86 226.8 61.06 228.07 59.29 227.58 58.81 226.8 57.92 224.65 57.74 224.27 56.5 221.64 55.98 220.71 55.42 220.01 55.16 219.83 54.86 219.97 54.95 220.33 55.62 222.38 55.61 222.49 54.08 223.86 53.06 223.58 52.01 223.06 51 222.75 48.77 222.2 48.22 220.19 48.25 219.6 47.59 217.77 47.15 217.9 46.33 219 44.18 220.2 43.39 220 43.09 219.64 42.44 218.41 41.92 218.34 41.5 218.55 40.27 220.9 40.4 221.01 40.53 221.13 40.73 221.31 41.25 221.95 41.96 222.64 42.2 222.91 42.14 224.42 41.65 224.8 40.92 224.98 40.51 225.17 40.49 225.9 40.49 226.07 40.55 226.35 40.69 226.59 40.83 227.22 39.92 228.33 39.23 228.22 37.98 227.73 37.5 227.52 37.06 227.05 36.63 227.03 36.52 227.58 36.85 229.61 36.82 230.02 37.13 231.04 37.2 232.99 36.91 233.94 36.95 234.11 36.91 234.45 36.56 235.56 35.71 237.91 34.82 237.75 34.05 237.61 33.19 237.84 32.75 238.28 32.74 238.83 32.93 239.21 33.12 239.62 33.44 239.91 34.59 240.6 34.67 240.72 35.37 242.5 35.35 242.74 34.42 243.92 33.97 244.17 33.03 243.96 32.41 243.31 31.92 243.55 31.38 245.62 31.18 246.56 30.39 247.33 29.77 247.18 28.92 246.58 28.55 246.15 27.94 245.85 27.55 245.84 27.2 246.04 26.96 246.43 26.79 250.03 26.61 250.37 26.14 250.78 25.79 251 22.15 251.13 21.86 251.78 21.48 255.2 21.32 255.83 21.31 256.49 21.45 257.25 21.49 259.22 20.54 259.69 19.61 260.5 17.7 260.86 16.74 261.12 15.22 261.77 15.11 261.41 15.17 261.44 15.38 261.44 16.06 261.07 16.96 260.77 19.09 260.43 19.29 260.28 20.26 259.65 20.52 259.52 20.57 259.39 20.68 259.13 21.31 258.55 21.17 257.74 20.93 255.49 21.17 254.54 21.28 251.69 21.42 251.31 21.61 251 22.09 250.82 22.2 250.78 25.96 250.44 26.35 246.4 28.02 245.25 30.67 246.58 30.95 245.88 30.89 245.26 30.96 244.69 31.44 243.36 32.57 242.94 33.12 243.57 33.3 243.92 33.51 243.99 33.86 243.88 34.71 242.98 35.02 242.55 35.05 242.17 34.94 241.62 34.49 241.09 34.2 240.68 33.26 240.21 32.27 238.41 32.4 238.15 33.49 237.32 35.98 237.05 36.85 232.45 36.27 228.7 36.3 228.15 36.19 227.73 36.15 227.55 36.8 226.5 37.64 227.2 38.34 227.43 39.62 227.85 40.09 227.73 40.27 227.58 40.43 227.21 40.36 226.83 40.09 226.14 39.98 225.58 40.51 224.69 41.01 224.6 41.22 224.35 41.66 224.14 40.5 221.54 39.95 221.13 39.38 219.96 39.55 219.49 40.23 219.05 40.44 219.01 41.73 218.01 42.22 217.93 42.55 217.97 43.78 219.74 43.93 219.85 44.4 219.74 44.91 219.45 46.26 217.97 46.84 217.41 47.33 217.3 48.57 217.88 48.68 218.45 48.71 218.89 48.72 220.39 48.72 220.48 48.72 220.98 48.82 221.24 48.86 221.38 48.89 221.45 48.94 221.63 49.98 222.06 50.63 222.23 51.82 222.65 52.38 222.82 52.76 222.94 53.6 223.3 54.09 223.39 54.4 223.34 54.92 223.08 55.06 222.83 54.35 220.5 54.64 219.45 55.47 219.41 56.36 220.49 56.85 221.23 58.65 225.68 59.73 227.21 60.07 227.36 60.36 227.5 60.6 227.74 61.02 227.74 63.82 225.92 64.85 226.47 65.13 227.77 65.39 228.51 66.8 229 67.49 228.95 68.88 229.17 69.56 229.24 70.81 229.69 71.5 231.06 71.8 231.85 71.99 232.78 72.1 233.31 71.84 237.82 71.44 239.19 72.05 242.2 72.58 242.4 74.3 242.87 74.56 243.62 74.69 244.8 74.72 245.21 74.73 245.44 74.74 245.78 74.72 246.21 74.72 246.32 74.63 246.6 74.69 247.1 74.59 247.64 74.32 248 74.15 248.48 72.42 248.3 72.25 248.31 72.03 248.29 71.77 248.19 71.54 248.2 71.47 248.2 71.29 248.51 71.29 248.68 72.32 250.07 72.83 250.68 73.55 251.9 73.73 252.26 73.73 252.38 73.74 252.5 73.54 252.9 73.47 252.97 73.51 253.24 73.21 253.45 73.13 253.61 73.14 253.68 73.2 254.06 73.39 254.16 73.89 254.23 73.99 254.2 74.61 254.28 75.71 254.35 76.23 254.47 76.52 254.47 76.84 254.61 77.38 254.62 79.37 254.64 79.68 254.57 79.88 254.57 80.26 254.58 81.37 254.46 82.17 254.43 82.94 254.45 85.29 254.84 86.1 255.18 86.7 255.61 86.76 255.66 87.25 256.18 87.84 256.59 88.02 256.83 88.61 257.07 89.07 257.28 89.65 257.51 89.76 257.61 91.07 257.83 94.92 258.91 95.5 259.54 95.68 259.81 96.15 260.78 96.42 261.96 96.45 262.66 95 267.04 94.83 267.74 95.29 268.31 95.75 268.64 96.79 269.01 98.94 270.08 101.06 271.99 102.46 274.28 102.59 274.36 104.67 275.8 105.52 276.43 107.26 278.21 107.49 279.07 108.68 281.33 110.85 283.21 111.24 283.52 111.75 284.05 111.81 284.16 112.64 284.72 112.97 284.8 115.36 287.17 115.32 287.29 115.38 287.51 115.42 287.7 115.57 287.94 115.8 288.29 116.32 288.63 117.79 288.87 119.55 289.02 120.41 289.18 121.56 289.21 122.43 289.22 129.65 289.22 130.38 289.2 130.67 289.18 130.99 289.17 131.61 289.21 132.86 289.37 133.99 289.84 134.83 290.22 135.61 290.47 136.99 291.02 137.55 291.23 138.34 291.43 139.21 291.84 139.77 291.96 140.75 292.12 141.53 292.22 142.41 292.25 142.97 292.28 147.7 292.62 148.16 292.66 148.84 292.71 149.48 292.88 150.02 292.95 150.55 293 150.92 292.96 153.62 292.58 154.14 292.3 155.6 291.88 156.27 291.59 157.96 290.67 158.97 290.21 159.35 289.96 159.46 289.89 159.87 289.63 160.19 289.39 160.56 289.11 161.14 288.22 161.45 287.62 161.57 286.73 161.62 286.5 161.09 284.98 160.99 284.87 160.68 284.17 161.1 283.76 162.12 283.16 162.49 282.97 162.79 282.82 162.88 282.71 163.02 282.53 163.12 282.24 163.44 281.82 163.58 281.5 164.03 280.05 164.11 279.92 164.74 277.69 166.1 277.59 166.93 277.73 167.63 277.48 168.23 277.03 168.89 276.71 169.34 276.49 169.59 276.45 171.14 276.58 171.86 276.74 172.64 277.03 173.11 277.32 173.34 277.52 173.54 277.7 173.93 278.04 174.8 278.73 174.94 278.82 175.34 278.9 175.64 278.78 175.93 278.31 175.98 277.78 175.58 275.99 176.58 274.78 177.38 274.82 178.07 274.92 178.8 275.14 179.55 275.89 179.88 276.36 180.35 276.63 180.69 276.52 181.66 275.4 181.73 274.85 181.29 274.3 181.25 274.21 180.77 273.69 180.69 273.28 181.2 272.53 181.39 272.29 181.62 271.85 181.59 271.57 181.74 270.46 181.93 270.19 182.82 269.23 183.03 268.89 183.14 268.62 185.06 267.52 186.78 267.38 187.38 267.11 187.93 266.97 188.3 266.87 189.78 267.46 190.02 267.68 190.08 267.94 190.28 268.12 190.15 268.53 189.63 269.17 188.83 269.69 188 270.16 186.92 270.47 186.83 270.43 186.18 270.9 185.96 271.2 186.49 272.92 186.88 273.18 187.59 273.24 192.28 272.33 192.75 272.1 193.09 271.84 193.61 271.36 194.12 270.14 194.29 270.01 194.79 269.73 196.99 270.13 197.66 270.14 198.25 270.25 198.85 270.38 200.45 269.77 201.16 269.24 201.79 268.97 202.94 268.6 203.41 268.52 203.93 268.5 204.68 268.2 206.69 267.65 207.75 267.13 209.17 266.91 212.33 266.01 212.87 265.82 213.06 265.78 213.41 265.71 215.84 265 216.88 264.82 217.67 264.51 218.4 264.07 219.56 263.79 221 263.48 221.11 263.47 221.6 263.36 221.97 263.1 222.47 263.07 226.52 261.11 227.03 260.85 228.51 259.93 228.59 259.84 229.19 259.55 231.96 258.5 232.31 258.2 232.85 257.98 233.52 257.99 237.42 259.73 237.93 259.92 238.66 259.91 240.22 259.3 240.65 259.15 241.46 257.85 241.81 257.43 242.02 257.03 242.06 256.96 242.1 256.88 242.37 256.62 242.47 256.51 242.87 256.06 243.13 255.69 243.18 255.34 243.28 255.16 243.36 255.01 243.59 254.73 243.81 254.12 243.84 254.05 243.91 253.87 244.32 252.12 244.33 251.11 245.71 246.96 245.88 246.33 246.29 245.99 246.73 245.63 247.29 244.59 247.33 244.48 247.68 243.22 248.16 242.92 250.13 241.73 250.72 241.5 251.08 241.44 251.34 241.25 251.79 241.13 252.02 241.07 252.65 240.92 253.88 240.73 254.87 240.7 256.13 240.84 260.26 240.94 Z"/>
<path d="M 472.47 324.18 472.95 323.6 477.73 322.77 478.38 324.51 477.88 328.01 474.76 327.54 472.55 328.75 472.47 324.18 Z"/>
<path d="M 407.35 302.21 406.99 302.68 405.57 304.51 402.16 307.18 398.12 305.61 391.43 301.44 391.17 300.47 387.59 298.17 382.29 292.55 374.05 288.79 369.25 284.54 367.23 281 364.92 272.18 362.68 269.87 357.45 263.26 356.35 262.29 354.77 261.38 339.12 254.05 337.81 253.94 326.05 248.66 322.38 247.82 313.63 247.67 313.21 248.53 303.2 248.44 303.14 247.52 289.14 247.58 288.57 247.84 271.36 247.67 271.38 247.3 262.99 244.59 251.5 245.06 249.6 242.29 252.78 241.1 258.44 241.38 260.75 240.95 258.18 239.21 256.16 236.57 254.05 232.66 251.34 228.67 250.74 227.2 250.54 225.07 250.57 218.45 251 216.58 251.68 215.48 254.42 212.8 255.94 211.46 260.37 207.21 263.34 210.03 257.43 214.24 254.42 218.48 253.71 221.83 254.49 225.81 257.47 228.66 275.03 234.35 283.13 234.45 284.17 234.79 301.79 234.7 320.48 234.53 324.74 235.12 329.57 236.65 343.28 243.83 345.31 244.82 348.79 246.69 353.7 249.23 361.97 254.71 366.66 260.29 368.81 263.51 374.19 271.42 374.97 273.84 377.12 274.11 376.62 274.54 376.46 274.98 377.39 279.27 379.54 280.81 385.42 282.91 386.38 284.94 386.44 285.03 387.34 283.43 391.1 285.23 389.89 286.83 394.43 290.15 396.21 291.89 397.52 293.16 397.92 293.56 398.03 293.67 398.7 294.31 399.11 294.71 399.79 295.09 402 295.93 402.24 295.98 403.33 296.09 407.99 296.07 409.99 296.01 410.36 296.93 407.35 302.21 Z"/>
<path d="M 297.9 10.58 298.88 10.5 300.14 13.37 301.7 12.05 303.59 13.55 301.4 14.37 297.89 14.54 295.89 12.29 297.9 10.58 Z"/>
<path d="M 45.35 10 46.22 16.08 44.17 18.81 43.92 22.83 43.1 22.54 42.33 22.41 41.17 22.93 41.46 23.87 41.18 24.27 41.32 24.53 41.36 24.84 41.99 28.31 41.94 28.32 41.36 28.29 40.25 28.26 39.88 28.46 39.9 28.66 40.2 29.25 40.29 29.72 40.32 29.87 40.18 30.13 40.14 30.48 39.71 30.86 39.62 31.02 39.91 31.3 40.77 32.89 40.66 33.15 38.62 31.88 38.04 32.37 37.71 33.29 37.39 33.52 37.56 30.85 38.36 30.34 37.57 29.96 37.71 29 38.71 26.43 38.41 25.64 37.69 23.58 37.12 23 35.8 19.63 34.6 19.42 31 22.08 30.97 22.39 30.77 22.69 30.69 23.36 30.84 22.12 30.8 21.74 30.8 21.23 30.97 20.11 31.07 19.98 30.73 19.72 30.66 19.34 30.73 19.07 30.48 18.82 30.08 18.78 27.32 17.18 24.86 17.75 24.14 18.81 23.38 18.38 22.35 18.26 21.37 18.83 21.32 19.35 20.79 22.31 20.8 23.15 20.04 22.84 20.15 22.45 19.76 22 19.18 21.02 18.89 21.05 18.67 21.45 18.53 22.06 16.92 21.12 16.92 21.93 15.11 24.83 15.45 18.89 15.82 19 16.27 16.97 16.86 16.63 22.3 13.7 22.56 14.19 23.06 14.06 23.28 13.63 23.16 13.21 22.88 12.95 22.23 12.17 22.1 11.38 20.9 11.05 20.01 10.62 18.98 10.57 17.92 10 45.35 10 Z"/>
<g/>
<g/>
<path d="M 784.89 435.02 784.77 435.02 784.01 434.53 784.52 433.41 784.53 432.83 784.66 431.07 784.46 430.73 784.03 430.19 783.75 430.25 783.44 431.37 781.81 432.2 781.6 432.49 781.47 433.2 780.36 433.75 779.46 433.09 778.06 430.66 777.81 428.69 777.16 427.41 774.27 425.16 772.68 421.99 769.68 417.53 768.96 416.36 768.1 415.6 768.18 414.91 768.68 414.33 768.71 413.96 768.03 413.07 768.48 412.55 770.18 413.11 770.68 412.72 770.78 412.03 770.49 411.24 770.12 410.84 769.6 410.44 768.88 409.88 767.89 408.95 767.64 407.95 767.7 407.19 766.33 406.2 765.69 404.78 765.78 403.82 763.66 401.12 764.5 398.18 764.77 397.28 765.4 396.5 766.55 396.11 768.66 396.05 769.09 395.59 768.96 394.9 768.63 392.57 768.6 392.16 768.53 390.02 769.26 389.16 769.96 388.49 770.07 388.12 770.01 387.51 769.4 387.11 768.1 383.63 768.75 382.5 768.66 381.91 768.15 381.59 766.62 381.59 766.59 381.84 766.75 382.5 765.95 382.96 763.62 383.18 763.31 382.43 763.89 381.78 764.69 381.4 764.77 381.21 764.59 380.98 763.8 380.84 763.21 379.91 762.94 379.62 762.69 378.94 763.46 378.98 764.09 379.02 764.43 378.81 764.77 378.38 765.04 377.77 765.04 377.31 764.43 377.06 763.61 376.97 763.29 376.93 763.25 375.71 764.15 374.49 765.4 371.46 766.34 370.52 766.54 368.8 766.92 367.88 767.01 367.4 767.1 366.4 767.66 366.18 768.29 366.17 768.52 366.04 768.44 365.68 767.99 365.46 767.01 365 766.86 364.38 767.23 363.84 768.49 362.76 769.03 362.51 770.01 361.88 770.61 360.56 771.41 360.41 771.78 360.43 772.02 360.28 774.3 357.66 773.6 356.94 773.08 356.52 772.83 356.38 772.22 356.29 771.82 356.33 771.15 356.27 770.82 356.81 769.72 356.92 769.14 355.75 769.19 354.99 769.07 354.36 769.2 351.95 769.59 351.36 770.67 350.62 771.16 350.37 772.42 350.24 772.87 350.07 773.15 349.8 773.02 350.17 771.52 350.37 770.34 351.03 769.56 351.63 769.37 352.06 769.4 352.24 769.42 355.14 769.33 355.82 769.52 356.37 770.57 356.71 770.97 356.16 772.71 356.09 773.94 356.85 774.58 358 773.64 358.94 773.04 359.3 772.76 359.75 772.24 360.39 771.24 360.49 770.76 360.65 770.56 361.42 770.2 362.01 769.12 362.62 767.3 364.1 767.07 364.61 767.17 364.87 767.69 365.21 768.14 365.37 768.68 365.58 768.75 366.04 768.08 366.33 767.49 366.35 767.27 366.62 767.22 367.45 766.82 368.66 766.65 369.07 766.63 369.78 766.49 370.6 765.85 371.26 765.48 371.75 764.67 374.26 763.39 376.04 763.39 376.51 763.44 376.67 763.81 376.77 765.15 376.98 765.1 378.36 764.11 379.25 763.42 379.13 763.02 379.12 763.11 379.48 763.35 379.65 763.62 380.07 763.74 380.54 764.74 380.83 764.92 381.59 764.03 381.98 763.54 382.36 764.3 383.08 765.34 382.92 766.26 382.56 766.51 382.28 766.52 381.96 766.43 381.5 767.69 381.32 769 382.03 768.42 383.33 768.29 383.66 768.75 384.28 769.18 386.08 769.35 386.63 770.34 387.52 770.18 388.76 769.15 389.71 768.92 390.16 768.85 390.95 769.34 395.42 768.51 396.28 766.88 396.26 765.37 396.57 765.1 397.04 764.41 399.25 764.2 399.73 764.21 400.21 765.03 402.7 765.47 403.19 765.67 403.27 765.96 404.02 765.86 404.7 766.1 404.9 766.65 406.09 766.82 406.32 767.26 406.46 768 407.31 768.14 408.83 770.79 411.13 771 412.85 770.15 413.39 769.2 412.96 768.68 412.74 768.36 412.89 768.31 413.13 768.59 413.61 769 414.08 768.36 415.01 768.23 415.48 769.11 416.1 774.75 425.25 775.77 425.95 776.9 426.37 777.94 428.18 778.05 428.55 778.21 429.91 778.63 431.29 779.33 432.4 780.11 433.3 780.62 433.45 781.51 432.19 783.08 431.4 783.33 431.01 783.36 430.23 784.37 430.04 784.89 430.8 784.74 434.04 784.31 434.46 784.4 434.72 784.89 434.76 784.89 435.02 Z"/>
<path d="M 15.11 247.5 19.68 247.99 20.04 250.5 19.57 255.46 17.63 257.63 15.11 257.96 15.11 254.33 18.46 252.38 17.29 249.98 15.11 250.21 15.11 247.5 Z"/>
<g/>
<path d="M 23.67 235.64 27.21 237 22.42 245.86 20 246.21 19.61 241.27 21.93 239.1 22.82 235.82 23.67 235.64 Z"/>
<g/>
<path d="M 152.99 46.66 152.47 46.6 152.56 47.11 152.82 47.56 153.52 49.26 153.52 49.33 153.54 49.46 153.12 49.93 153.07 50.24 153.74 53.12 153.73 53.15 152.97 53.11 152.84 52.85 150.11 49.94 149.73 49.82 148.72 50.05 148.28 50.29 148.4 50.52 147.16 51.97 146.97 51.87 146.86 51.96 146.95 52.15 145.62 52.3 145.61 51.98 146.31 51.72 146.39 51.54 145.86 50.37 147.31 47.51 147.39 46.91 147.73 45.88 147.62 45.66 146.77 44.99 146.47 44.76 146.1 44.63 145.38 44.58 145.02 44.47 144.76 44.7 144.78 45.48 144.82 45.95 143.8 46.07 143.8 45.59 143.52 44.96 143.34 44.69 143.01 44.39 142.41 44.37 141.41 44.82 140.66 44.87 140.29 45.19 139.94 45.3 139.7 45.37 139.4 45.62 138.96 45.8 138.62 45.87 138.18 45.95 138.03 45.97 137.36 46.32 136.44 46.78 135.4 47.34 135.17 47.21 135.36 46.95 135.95 46.73 136.18 46.44 137.4 45.69 137.88 45.43 139.16 44.55 139.4 44.4 140.08 43.92 140.4 43.68 140.52 43.48 140.51 43.14 140.86 42.61 141.44 42.72 142.23 42.66 142.46 42.72 143.5 42.74 143.93 42.57 145.21 42.25 145.61 42.05 145.69 41.53 146.47 41.95 146.8 42.44 147.68 42.69 148.28 42.47 148.64 42.21 148.54 41.8 149.28 40.73 150.36 40.35 150.63 40.14 151.13 39.43 151.11 38.98 149.5 37.8 149.37 37.75 148.99 37.31 148.81 37.16 148.87 36.98 149.2 36.83 149.24 36.7 149.28 36.54 149.39 36.5 149.55 36.45 149.91 36.33 150.54 36.19 151.56 36.67 151.73 37.06 152.28 37.46 153.28 37.8 153.85 38.26 154.22 39.01 154.48 39.32 154.85 39.19 155.11 38.78 154.96 38.52 155.26 38.3 155.53 38.24 155.89 38.36 156.46 38.8 156.77 38.94 156.97 38.83 157.08 38.49 157.16 37.75 157.2 37.3 157.98 36.89 158.45 36.71 158.71 36.7 159 36.68 159.48 36.49 160.12 36.05 162.71 40.55 162.49 41.1 162.38 41.27 162.83 41.49 162.94 41.54 162.39 41.55 162.27 41.88 162.17 41.95 162.08 42.02 162.02 42.24 162.2 42.47 161.88 42.98 161.9 43.1 161.73 43.63 161.76 43.99 161.79 44.29 162.14 44.72 162.66 45.41 162.9 45.5 163.07 45.48 163.38 46.06 163.53 46.28 163.44 46.55 162.95 47.15 162.38 49.62 161.95 49.25 161.43 48.88 160.9 48.57 160.6 48.74 160.72 48.97 160.58 49.49 160.6 49.68 160.61 49.97 160.62 50.15 158.89 50.96 158.05 50.98 157.23 49.93 157.16 49.15 155.99 47.56 152.99 46.66 Z"/>
<path d="M 646.9 162.66 647.89 162.71 648.81 163.55 648.91 164.28 650.02 164.73 650.32 165.77 651.64 166.99 652.19 167.89 652.68 168.17 653.5 169.84 652.31 170.56 655.21 174.11 657.37 174.31 658.36 175.13 659.1 174.9 661.11 175.12 662.89 174.86 663.37 176.15 662.53 179.55 663.46 179.65 664.31 181.1 664.28 182.15 666.39 182.29 667.16 183.95 666.06 186.67 667.06 188.03 666.8 188.03 665.75 186.56 666.94 183.96 664.23 182.3 663.61 180.01 662.23 179.65 663.15 175.91 662.71 175.09 661.12 175.26 658.91 175.06 658.34 175.27 657.82 175.08 652.99 173.56 652.98 171.49 651.98 170.59 653.23 169.88 652.58 168.39 652.13 168.07 651.76 167.2 650.09 165.72 650 165.01 649.2 164.76 648.78 164.29 648.64 163.66 647.66 162.87 646.82 162.82 646.9 162.66 Z"/>
<path d="M 316.98 157.26 318.47 157.11 322.23 156.25 322.74 156.16 325.26 156.82 324.62 156.88 323.03 156.78 322.49 156.89 319.91 157.34 318.84 157.67 316.81 158.61 316.27 158.72 316.17 159.16 315.25 159.9 312.31 164.02 310.52 164.95 309.7 165.28 306.92 168.26 306.7 169.85 306.25 170.11 306.21 170.36 304.82 170.81 304.69 170.69 304.25 170.44 303.24 170.15 299.65 170.47 299.46 170.62 298.67 171.47 298.26 171.73 297.95 171.96 297.35 171.93 296.39 171.38 294.7 167.98 295.65 166.65 301.47 165.59 302.54 165.53 303.03 165.5 304 165.65 304.65 165.83 305.21 165.83 306.89 164.13 310.78 162.13 312.04 159.63 312.37 159.23 313.56 158.61 314.58 158.42 316.98 157.26 Z"/>
<path d="M 256.83 160.6 262.74 162.69 264.85 162.39 265.53 163.72 268.31 166.06 264.08 168.74 262.33 169.15 262.63 165.84 260.75 164.72 257.2 164.58 256.83 160.6 Z"/>
<path d="M 272.54 170.6 274.82 169.29 281.24 171.86 282.58 173.45 281 175.78 277.08 178.03 273.76 176.97 274.54 175.06 274.74 172.79 272.54 170.6 Z"/>
<path d="M 248.61 157.92 250.5 158.13 251.83 161.04 251.26 162.4 248.7 161.68 248.61 157.92 Z"/>
<path d="M 219.37 127.52 218.85 127.38 217.05 126.75 215.49 124.37 215.85 124.12 220.91 125.04 219.37 127.52 Z"/>
<path d="M 214.25 121.91 213.78 123.07 209.9 123.22 205.31 124.75 201 125.1 196.26 123.92 196.83 122.93 201.92 123.92 204 123.85 210.37 122.08 214.25 121.91 Z"/>
<path d="M 170.96 379.25 170.31 379.35 164.72 382.48 162.57 381.91 161.16 378.79 156.23 381.43 154.68 381.29 153.51 383.73 151.74 382.67 152.97 381.51 151.91 379.48 152.44 379.55 154.04 379.74 155.71 378.68 156.34 377.17 153.32 375.72 155.96 373.33 155.41 373.45 155.68 372.72 155.19 372.38 153.38 371.19 152.04 368.75 151.74 366.63 151.82 366.62 152.29 364.58 153.6 363.84 153.86 363.57 153.56 363.18 153.9 361.27 153.26 360.08 153.25 359.75 153.64 359.17 153.92 358 157.11 353.62 158.24 350.96 157.63 349.44 157.59 348.84 158.16 348.21 157.97 347.18 157.5 345.72 157.45 345.42 158.39 344.21 159.46 341.72 146.77 333.65 143.6 336.25 141.98 334.98 147.16 328.9 148.66 328.6 150.91 326.22 152.07 325.85 153.26 325.96 153.51 325.98 153.62 323 158.68 323.38 160.28 324.52 158.19 326.18 153.49 326.6 153.29 326.59 153.22 327.83 148.39 331.36 147.09 332.73 159.84 340.68 162.4 336.65 162.4 345.42 165.5 344.91 165.58 336.3 166.76 335.87 167.28 329.65 169.26 329.09 173.93 332.57 177.51 329.89 176.76 328.79 177.86 327.13 178.07 325.85 177.16 324.01 187.64 324.01 189.13 324.48 206.32 335.89 206.78 336.87 206.83 338.92 208.49 344.75 201.77 344.89 194.31 348.69 190.99 349.96 188.7 349.22 188.57 352.07 187.29 354.08 184.9 354.86 184.4 356.86 185.64 361.28 183.99 363.65 183.29 366.46 181.43 367.56 181.1 367.47 181.17 368.03 181.25 368.18 181.28 368.66 180.42 369.81 180.21 370.04 177.79 372.85 177.49 373.2 177.13 374.12 177.02 374.15 176.64 374.72 176.67 374.94 175.8 375.32 175.78 375.35 174.56 376.01 174.5 376.34 173.09 377.2 172.97 377.21 172.12 378.29 172.04 378.51 170.96 379.25 Z"/>
<path d="M 164.88 248.81 163.51 248.98 162.98 246.45 166.24 243.51 169.64 243.99 170.51 248.23 172.83 248.38 173.6 250.48 172.33 252.15 171.2 252.12 171.3 253.35 173.08 253.6 174.75 254.39 175.65 254.83 174.68 256.13 173.67 256.09 169.43 256.35 169.75 253.35 170.04 252.39 167.21 251.31 163.59 251.67 163.38 250.56 167.66 249.59 168.97 249.85 170.07 249.48 169.04 249.66 168.33 249.29 167.63 249.07 167.43 249.19 166.61 249.23 164.88 248.81 Z"/>
<g/>
<g/>
<path d="M 501.58 166.21 502.25 165.33 502.46 165.01 502.95 164.21 503.57 163.16 503.85 163.17 503.22 164.59 502.95 165.17 502.63 165.59 502.2 166.35 502.13 166.78 501.74 167.54 502.37 169.44 503.87 169.92 504.11 169.78 506.47 169.89 507.45 170.21 509.4 171.6 508.64 175.57 508.26 176.47 507.77 177.51 507.16 178.54 507.08 179.94 510.87 182.52 512.08 189.76 514.71 190.56 514.43 190.9 515.17 191.68 512.95 194.61 509.83 194.51 509.09 195.22 508.38 196.22 508.26 197.28 508.59 198.47 511.26 199.88 511.35 200.03 511.27 200.54 510.85 202.29 508.64 205.04 507.74 205.97 505.78 207.12 504.76 207.57 504.39 207.97 504.3 208.82 504.36 209.21 504.77 209.84 504.88 211.1 505.32 212.46 506.12 213.13 506.85 213.06 506.29 213.66 505.36 215.11 502.58 217.12 500.6 217.64 500.06 218.04 499.49 218.31 498.51 216.89 493.82 210.29 493.75 209.42 493.4 208.5 491.67 206.26 491.26 204.31 491.99 204.52 493.98 203.57 493.04 199.28 492.47 197.69 490.93 195.66 491.01 195.2 490.88 192.58 491.78 193.19 492.21 193.42 492.4 193.51 492.79 193.47 492.83 193.47 493.3 193.43 499.13 189.82 499.72 189.01 500.75 187.18 500.83 186.79 500.81 186.33 500.62 186.08 500.28 185.9 499.86 185.86 499.35 185.97 498.51 186.14 497.04 186.44 496.57 186.47 495.9 186.44 492.63 184.32 491.95 180.29 491.92 179.65 491.99 179.53 492.22 179.07 492.44 178.64 492.62 178.32 493.08 177.84 493.66 177.47 494.85 176.17 495.24 175.71 495.22 175.28 494.97 174.89 494.55 174.61 493.11 173.75 492.68 173.3 491.36 171.25 492.92 169.73 493.19 169.69 493.93 170.26 494.42 170.86 497.46 171.57 498.77 167.89 498.77 167.76 498.79 167.56 499.31 167.24 501.58 166.21 Z"/>
<path d="M 293.96 180.64 295.82 179.88 298.24 181.88 297.17 182.66 294.16 181.51 293.96 180.64 Z"/>
<path d="M 293.41 175.69 294.87 175.13 296.59 176.42 295.49 177.65 293.41 175.69 Z"/>
<path d="M 502.55 307.55 502.66 305 506.12 303.44 505.59 305.91 509 306.5 509.24 307.69 502.55 307.55 Z"/>
<g/>
<path d="M 516.16 307.62 516.42 304.18 518.63 305.39 518.73 307.06 516.16 307.62 Z"/>
<path d="M 488.22 273.2 488.84 281.86 485.13 279.66 486.58 274.82 488.22 273.2 Z"/>
<g/>
<path d="M 532.5 401.57 531.88 401.93 530.38 401.62 532.14 396.87 532.37 394.87 535.55 392.12 535.77 388.63 534.14 385.84 530.08 383.96 523.42 383.93 514.36 384.9 513.99 384.04 519.43 383.19 520.81 382.51 532.73 382.58 535.91 384.1 537.92 386.46 538.27 391.83 535.58 394.36 532.76 400.12 532.5 401.57 Z"/>
<path d="M 39.92 236.13 40.4 239.17 38.04 244.59 35.94 247.12 35.67 250.81 34.3 251.23 32.37 249.94 38.17 241.94 39.92 236.13 Z"/>
<g/>
<g/>
<path d="M 152.52 279.33 155.22 278.22 160.56 278.34 160.65 279.05 152.52 279.33 Z"/>
<g/>
<g/>
<g/>
<path d="M 498.51 216.89 499.49 218.31 497.08 220.16 498.76 223.12 497.24 227.66 498.2 231.93 496.91 232.07 496.13 228.62 497.68 224.43 497.68 223.04 495.71 219.76 496.87 217.82 498.51 216.89 Z"/>
<g/>
<path d="M 214.4 150.2 216.7 150.94 219.23 153.43 216.12 153.55 213.51 152.78 210.25 147.43 208.06 145.52 209.21 144.56 209.61 142.16 208.51 141 205.65 140.16 204.78 141.07 202.4 140.55 203.82 136.07 205.13 136.92 205.24 139.56 208.92 139.25 210.96 145.15 212.89 146.34 212.89 148.68 214.4 150.2 Z"/>
<g/>
<path d="M 205.2 272.2 208.42 271.14 209.14 274.17 206.84 275.03 205.23 274.51 205.2 272.2 Z"/>
<g/>
<path d="M 212.32 101.36 212.41 98.17 215.08 99.27 216.14 103.17 215.26 103.85 212.37 103.42 212.32 101.36 Z"/>
<g/>
<path d="M 212.11 121.02 208.83 121.32 209.09 117.75 212.07 120.95 212.11 121.02 Z"/>
<path d="M 221.57 124.67 224.23 125.22 224.14 128.6 221.57 124.67 Z"/>
<path d="M 224.94 127.42 231.34 127.52 231.12 129 225.32 128.85 224.94 127.42 Z"/>
<path d="M 203.49 128.6 207.39 127.35 209.64 129.8 203.49 128.6 Z"/>
<path d="M 33.72 228.03 34.85 231 34.6 233.25 31.71 235.74 31.92 230.55 33.72 228.03 Z"/>
<path d="M 27.58 239.71 28.82 237.2 30.45 237.34 29.91 242.35 28.85 244.07 26.43 244.37 25.47 246.58 23.31 247.26 26.39 241.31 27.58 239.71 Z"/>
<g/>
<g/>
<path d="M 117.62 268.61 117.57 264.81 118.92 262.59 120.84 261.21 123.04 261.62 123.97 263.11 124.03 267.8 123.4 268.68 117.62 268.61 Z"/>
<path d="M 117.87 255.99 119.55 257.98 115.32 260.96 113.84 258.93 116.73 258.92 117.72 257.98 117.87 255.99 Z"/>
<path d="M 115.57 255.08 117.36 255.28 117.47 257.44 116.31 258.76 113.41 258.21 113.5 255.83 115.57 255.08 Z"/>
<path d="M 109.71 260.33 112.39 263.6 110.85 265.2 109.15 263.42 104.81 262.73 102.25 263.07 101.73 261.51 103.68 260.51 106.15 260.29 106.74 258.39 109.71 260.33 Z"/>
<path d="M 208.34 82.72 212.5 79.75 214.18 81.83 211.18 82.96 210.17 84.23 208.34 82.72 Z"/>
<path d="M 217.85 93.79 217.31 93.59 216.94 93.26 217.63 92.96 221.09 94.45 222.15 95.74 222.72 96.75 225.22 100.35 227.63 100.67 227.93 100.73 230.47 96.03 232.15 94.77 232.36 95.04 230.88 96.83 230.73 97.42 230.7 98.68 230.52 102.72 228.71 104.84 226.54 105.46 223.94 105.35 221.97 105.26 221.12 105.63 220.56 106.37 220.43 107.39 220.08 107.37 220.57 102.42 221.65 99.2 222.31 98.45 222.28 98.05 221.46 97.44 220.31 96.81 218.75 95.62 217.85 93.79 Z"/>
<path d="M 209.99 35.49 212.87 36.45 215.45 36.23 215.82 37.54 212.93 37.71 209.99 35.49 Z"/>
<path d="M 216.59 20.27 220.72 24.9 223.34 24.38 223.95 28.83 221.71 29.4 221.35 27.53 219.49 27.35 218.67 23.95 216.48 22.41 216.59 20.27 Z"/>
<g/>
<path d="M 470.81 312.48 475.63 312.68 475.69 316.19 471.98 316.27 470.85 315.36 470.81 312.48 Z"/>
<path d="M 309.34 264.15 309.93 261.8 313.6 262.99 312.19 264.98 312.19 266.89 309.66 266.79 309.34 264.15 Z"/>
<path d="M 204.09 287.46 203.24 284.25 201.25 284.28 201.08 280.89 204.86 280.34 206.42 282.3 208.53 286.42 204.09 287.46 Z"/>
<path d="M 201.7 302.36 200.59 298.35 201.14 295.16 206.49 294.56 209.92 295.03 211.21 297.89 201.7 302.36 Z"/>
<path d="M 630.47 444.85 631.52 444.34 634.69 446.89 635.42 444.78 638.1 443.43 640.87 445.89 637.05 449.16 634.95 449.33 630.49 452.95 627.55 454.13 623.62 449.38 628.81 445.54 630.47 444.85 Z"/>
<path d="M 637.55 449.42 641 446.52 643.15 447.68 642.51 450.13 642.63 453.31 644.27 457.05 643.84 458.33 633.33 467.06 632.59 466.24 639.46 460.44 641.96 457.55 641.41 453.64 637.31 450.08 637.55 449.42 Z"/>
<path d="M 615.53 449.07 620.12 445.33 621.49 446.85 620.27 447.92 622.09 449.5 619.32 451.76 615.53 449.07 Z"/>
<path d="M 572.8 439.68 572.01 439.36 570.85 438.39 569.74 436.74 569.6 434.37 570.44 431.51 572.45 428.43 572.6 425.54 571.68 423.51 572.45 424.21 573.68 425.54 573.87 429.02 572.42 431.06 573.02 435.37 573.58 436.37 576.45 435.79 578.54 436.08 581.37 438.06 582.82 439.06 583.9 441.03 583.26 444.44 582.55 444.92 581.74 445.77 581.19 446.3 576.12 444.54 576.08 442.07 577.38 440.57 576.42 439.46 573.43 439.9 572.8 439.68 Z"/>
<path d="M 574.23 446.96 574.82 445.96 575.34 445.56 575.88 445.07 577.14 445.23 578.7 445.6 580.36 448.15 580.76 448.23 582.89 451.42 582.23 452.47 580.28 455.59 574.34 454.84 569.18 449.61 564.67 446.38 567.34 444.14 569.99 445.8 572.24 446.84 573.39 447.27 573.9 447.36 574.23 446.96 Z"/>
<path d="M 199.73 74.28 199.18 72.87 199.71 69.05 198.14 67.05 200.27 60.69 198.99 58.11 201.19 56.18 201.26 63.37 200.15 69.27 199.73 74.28 Z"/>
<path d="M 686.14 213.48 687.29 214.18 693.14 214.96 692.74 216.84 690.48 216.52 686.58 214.62 686.14 213.48 Z"/>
<path d="M 549.21 430.29 549.62 428.39 551.99 429.06 554.03 433.16 554.29 435.2 552.51 437.69 549.5 438.58 548.52 432.45 549.21 430.29 Z"/>
<path d="M 495.87 394.7 500.72 394.2 502.16 395.95 498.47 397.77 495.87 394.7 Z"/>
<g/>
<path d="M 650.78 463.88 652.94 461.92 654.51 463.98 651.3 466.68 650.78 463.88 Z"/>
<g/>
<g/>
<g/>
<g/>
<g/>
<g/>
<g/>
<g/>
<g/>
<g/>
<g/>
<g/>
<g/>
<path d="M 59.98 455.21 60.77 455.7 64.12 454.6 69.5 453.51 69.72 454.79 64.68 455.01 60.69 456.13 59.98 455.21 Z"/>
<path d="M 28.14 401.42 30.84 401.86 30.88 403.26 28.11 403.57 28.14 401.42 Z"/>
<g/>
<g/>
<g/>
<g/>
<g/>
<g/>
<path d="M 217.7 67.95 216.41 67.38 216.48 62.8 217.85 62.54 218.89 55.62 220.28 54.8 220.31 59.2 218.85 59.39 218.57 61.93 220.54 62.18 220.41 64.86 223.76 65.51 223.17 68.01 217.7 67.95 Z"/>
<path d="M 153.9 285.98 156.86 285.84 156.89 287.16 153.8 287.22 153.9 285.98 Z"/>
<g/>
<g/>
<g/>
<path d="M 367.06 297.87 370.42 295.53 371.01 297.42 367.06 297.87 Z"/>
<g/>
<path d="M 566.66 458.76 566.76 455.84 564.14 454.5 561.02 451.75 561.35 449.79 564.05 449.09 567.22 450.98 570.41 454.84 571.37 457.02 568.48 456.61 566.66 458.76 Z"/>
<path d="M 481.53 370.86 479.35 371.74 476.99 369.97 477 368.89 480.56 367.69 481.53 370.86 Z"/>
<path d="M 485.64 477.67 485.24 474.37 487.99 474.47 485.64 477.67 Z"/>
<g/>
<g/>
<path d="M 722.11 460.48 722.15 463.08 723.05 464.23 719.96 465.83 720.38 462.11 722.11 460.48 Z"/>
<g/>
<path d="M 554.3 433.82 554.29 433.7 553.58 431.6 553.14 430.56 553.07 430.4 552.85 430.02 552.56 429.55 551.65 428.66 550.85 428.36 551.17 428.24 551.14 428.03 550.47 427.81 550.22 427.51 550.24 427.2 550.24 427.11 550.26 426.55 550.48 426.35 550.65 426.18 550.45 425.64 550.21 425.09 550.18 424.81 550.37 424.39 550.52 423.62 550.56 423.42 551.32 420.57 551.41 420.19 552.19 419.07 555.93 418.05 556.07 418 556.81 418.15 556.93 418.48 557.08 418.56 557.33 419.07 557.46 419.35 557.54 419.97 557.76 421.65 557.87 422.32 559.47 422.83 559.97 423.24 560.28 425.07 560.3 425.73 560.39 426.72 560.49 427.03 560.36 427.98 560.47 428.84 560.8 430.1 560.87 430.51 560.88 431.23 560.79 433.19 560.77 433.31 559.56 435.56 559.38 435.68 558.89 435.89 558 435.76 556.98 436.01 556.35 436.49 556.04 436.8 555.79 437.35 555.01 438.06 554.4 438.14 552.67 437.68 553.06 437.35 554.08 435.78 554.4 434.9 554.38 434.38 554.3 433.82 Z"/>
<g/>
<path d="M 215.85 124.12 215.49 124.37 215.58 121.2 217.82 118.36 216.68 116.2 217.11 114.05 220.41 113.86 221.75 112.71 221.93 111.46 220.3 109.23 220.08 107.37 220.43 107.39 221.79 110.22 222.36 112.07 222.06 113.26 220.5 114.17 217.82 114.24 216.86 115.6 218.34 118.66 216.15 121.29 215.85 124.12 Z"/>
<path d="M 264.23 204.07 263.86 204.18 260.37 207.21 255.94 211.46 254.42 212.8 251.68 215.48 251 216.58 250.57 218.45 250.54 225.07 250.74 227.2 251.34 228.67 254.05 232.66 256.16 236.57 258.18 239.21 260.75 240.95 260.41 240.94 258.8 239.92 258.4 239.54 256.83 238.04 256.36 237.38 255.98 236.78 255.72 236.35 255.58 235.93 255.33 235.6 255.1 235.31 254.88 234.87 254.76 234.66 254.66 234.18 254.46 233.98 254.43 233.96 254.31 233.63 254.16 233.25 254.02 232.92 252.6 231.01 251.8 229.85 251.09 228.72 250.49 226.48 250.46 223.2 250.44 220.41 250.61 217.08 251.64 215.45 252.17 214.8 254.05 213.02 255.73 211.35 257.03 210.1 258.1 209.13 260.04 206.91 260.92 206.17 261.41 205.68 261.58 205.52 261.81 205.28 262.23 205 262.3 204.71 262.45 204.53 262.66 204.29 263.7 203.64 264.01 203.66 265.5 202.75 265.65 202.55 265.76 202.41 266.41 201.94 267.45 201.06 267.64 200.85 268.3 200.49 268.98 199.81 269.29 199.37 269.53 199.07 270.14 198.44 271.06 197.66 272.4 196.07 272.88 195.35 273.03 193.72 273.39 191.23 273.17 190.48 272.57 189.02 272.83 187.71 273.02 186.63 272.98 185.53 272.76 184.39 272.88 183.47 272.85 183.28 272.83 183.11 272.74 182.65 272.88 182.11 272.78 181.92 272.76 181.29 272.77 180.06 272.85 179.51 272.83 179.05 272.91 178.2 272.83 177.58 273.35 175.89 274 174.63 274.11 174.3 274.17 174.15 274.02 173.19 273.57 172.92 273.21 172.86 272.78 172.96 272.5 173.11 271.72 173.81 270.24 174.19 269.16 173.9 267.45 172.6 267.37 172.29 267.3 171.42 267.47 170.7 267.41 170.15 266.56 169.26 266.16 169.07 265.57 169.02 262.73 169.89 261.08 169.77 260.34 169.11 261.71 167.43 261.62 166.89 261.59 166.72 261.4 166.46 261.21 166.18 260.66 165.69 259.96 165.4 259.44 165.33 258.91 165.44 258.44 165.87 258.11 166.59 258.02 166.73 257.84 166.99 256.47 167.43 255.94 167.32 255.76 167.15 255.66 167.14 254.21 166.39 254.14 166.29 253.9 165.72 254.03 165.17 253.98 164.83 253.75 164.68 253.51 164.62 253.43 164.61 253.1 164.54 252.79 164.77 252.45 164.88 251.95 164.94 251.27 165.11 248.94 163.05 248.75 162.5 248.33 162.17 247.81 162.01 247.31 162.01 246.73 162.17 246.32 162.28 246.08 162.34 245.75 162.68 243.04 162.6 242.21 160.83 242.13 160.09 242 159.74 241.47 159.23 241.01 159.09 240.55 159.26 240.31 159.56 240.28 159.82 240.07 160.11 240.07 161.17 237.62 162.17 237.19 162.14 235.83 161.45 235.94 159.79 236.04 159.22 235.86 158.72 235.68 158.65 235.11 158.74 234.83 159.01 233.94 159.72 233.76 159.98 230.73 159.94 230.21 159.86 227.3 159.11 227.04 159.02 224.44 158.3 224.28 157.19 224.36 157.09 224.98 156.62 224.95 156.52 224.84 156.11 224.7 155.99 224.66 155.96 224.62 155.92 224.54 155.85 224.28 155.79 224.17 155.78 223.95 155.52 223.88 155.25 223.91 155.22 224.92 155.4 225.1 155.56 225.42 155.94 225.44 156.14 227.57 155.67 228.1 155.45 228.36 155.18 228.59 154.74 228.56 153.92 228.19 153.43 227.63 153.11 226.62 152.89 226 152.89 224.75 152.5 224.51 151.07 225.8 149.17 225.74 148.88 225.35 148.62 224.77 148.77 224.55 148.87 224.29 148.99 223.94 149.14 222.69 149.21 222.28 149.02 221.76 147.43 222.25 146.61 224.29 145.32 224.91 145.13 225.85 144.46 225.88 144.39 226.21 144.37 226.29 144.33 226.7 143.9 226.7 143.26 226.59 142.7 226.29 141.98 226.03 141.75 225.59 141.62 225.12 141.66 223.76 142.26 223.5 142.49 222.2 143.85 221.02 143.96 218.56 142.97 218.05 142.72 217.72 142.64 217.34 142.57 215.7 141.12 215.99 138.51 216.63 137.3 217.09 136.78 217.64 136.17 218.01 135.57 218.64 133.59 218.49 130.16 218.3 129.32 218.7 127.76 218.85 127.38 219.37 127.52 219 128.5 218.85 129 218.96 129.95 219.26 131.83 219.2 132.9 217.45 136.84 217.18 137.22 216.01 139.73 216.01 140.68 216.22 141.22 216.67 141.85 220.8 143.61 221.31 143.64 222.17 143.44 222.88 142.72 222.98 142.68 223.12 142.63 225.25 141.27 226.48 141.64 227.18 143.76 226.84 144.35 226.76 144.57 224.47 145.67 223.46 146.1 222.51 146.8 222.32 147.45 222.27 147.73 222.41 148.27 222.91 148.91 223.53 148.96 223.84 148.9 224.65 148.49 225.54 148.34 226.16 149.25 225.32 150.51 224.83 151.15 224.69 151.58 224.69 151.93 225.13 152.43 225.8 152.63 228.02 153.08 228.92 154.02 228.84 155.12 228.48 155.58 228.17 155.75 227.36 156.05 224.92 157.01 224.72 157.26 224.65 157.57 224.66 157.9 224.8 158.11 229.29 159.27 230.93 159.6 232.12 159.85 232.56 159.85 233.5 159.61 233.96 159.41 234.59 158.67 235.85 158.37 236.35 159.04 236.02 160.71 236.15 161.3 236.6 161.71 238.16 161.86 239.31 161.42 239.77 160.82 239.76 159.94 240.25 159.16 240.31 159.05 241.79 158.9 242.66 161.1 242.88 161.83 243.29 162.23 244.95 162.57 246.18 161.94 247.18 161.68 248.09 161.76 249.2 162.73 249.33 163.28 251.22 164.77 254.02 164.36 254.34 165.83 254.61 166.31 255.92 166.95 256.79 167.06 257.29 166.98 257.95 166.2 258.09 165.73 258.55 165.16 260.11 165.09 261.82 166.37 262.15 167.46 261.15 168.48 260.84 168.86 260.91 169.18 261.27 169.48 263.16 169.58 266.11 168.66 266.58 168.92 267.86 170.71 267.58 171.4 267.58 171.48 267.58 171.79 267.58 172.12 267.83 172.48 268.56 173.04 268.68 173.13 269.01 173.39 269.8 173.82 270.43 173.9 271.05 173.81 271.22 173.78 272.26 172.92 272.84 172.56 274.32 172.98 274.48 174.11 273.17 176.71 273.14 177.16 273.47 178.03 274.03 178.49 275.92 179.81 276.66 179.92 277.22 179.75 277.74 179.21 277.82 178.62 278.46 177.91 279.03 177.95 280.03 178.99 280.61 179.38 281.05 179.43 281.5 179.28 283.36 176.73 286.55 176.02 287.68 175.84 288.11 176.3 287.58 176.28 287.28 176.28 286.91 176.36 286.46 176.46 285.53 176.41 283.79 177.04 283.3 177.32 281.64 179.62 280.13 179.46 279.63 179.17 278.68 178.23 278.36 178.31 278.07 178.73 277.74 179.62 276.8 180.07 275.03 179.65 273.58 178.42 273.3 178.36 273.24 179.91 273.18 180.69 273.25 180.92 273.51 181.76 273.37 182.07 273.44 182.36 273.21 183.96 273.3 184.6 273.04 189.05 273 189.44 273.1 189.78 273.43 190.23 273.24 195.35 271.38 197.77 271.09 198.14 269.17 200.23 264.23 204.07 Z"/>
<path d="M 713.56 15.69 715.05 15.33 717.54 12.83 719.84 16.3 721.64 17.41 719.74 20.29 717.58 19.89 716.46 17.7 715.09 17.75 713.56 15.69 Z"/>
<g/>
<g/>
<g/>
<path d="M 398.03 293.66 398.03 293.67 397.92 293.56 398.03 293.66 Z"/>
<path d="M 337.49 255.23 340.55 255.29 340.42 257.81 338.75 257.72 337.49 255.23 Z"/>
<g/>
<g/>
<g/>
<g/>
<g/>
<g/>
<g/>
<path d="M 231.81 19.48 229.56 19.46 230.04 15.37 232.16 15.93 230.78 18 231.81 19.48 Z"/>
<path d="M 226.03 19.53 225.7 15.44 227.8 16.02 226.03 19.53 Z"/>
<path d="M 226.94 20.2 230.1 21.48 230.73 24.01 226.72 23.98 226.94 20.2 Z"/>
<g/>
<g/>
<g/>
<g/>
<g/>
<g/>
<path d="M 481.67 376.72 482.64 375.86 485.31 377.49 491.11 380.28 495.18 381.54 499.51 381.69 499.69 384.62 490.37 381.98 484.4 378.88 481.67 376.72 Z"/>
<path d="M 728.99 228.85 730.64 230.7 728.53 231.55 726.6 231.14 728.99 228.85 Z"/>
<path d="M 745.25 235.59 746.55 237.68 745.58 238.39 743.02 237.02 745.25 235.59 Z"/>
<g/>
<g/>
<path d="M 503.46 420.04 501.2 416.96 506.34 418.26 503.46 420.04 Z"/>
<path d="M 531.09 408.34 530.66 406.65 533.35 405.24 534.48 407.24 531.09 408.34 Z"/>
<g/>
<g/>
<g/>
<g/>
<path d="M 207.5 15.77 208.61 17.32 208.73 20.23 205.09 18.89 202.68 17.41 204.3 15.52 207.5 15.77 Z"/>
<g/>
<g/>
<path d="M 236.8 85.93 235.09 85.58 235.42 83.56 234.56 81.23 239.31 80.74 241.83 85.01 236.8 85.93 Z"/>
<g/>
<path d="M 260.8 88.95 261.17 93.29 259.77 93.43 259.66 89.8 260.8 88.95 Z"/>
<g/>
<path d="M 230.45 151.81 228.37 151.32 228.74 147.57 231.11 147.49 234.41 149.48 233.67 152.03 230.45 151.81 Z"/>
<g/>
<g/>
<g/>
<path d="M 672.06 449.65 672.11 449.37 669.8 448.96 667.87 445.86 665.24 443.87 669.38 440.59 671.68 439.51 674.69 440.02 675.47 443.74 670.31 441.95 667.16 445.04 669.32 446.95 671.52 447.89 673.66 446.25 679.05 450.72 677.48 451.49 674.03 454.51 672.74 454.6 672.36 454.32 672.06 449.65 Z"/>
<g/>
<path d="M 681.5 456.31 682.5 454.99 686.16 456.39 683.77 458.28 681.5 456.31 Z"/>
<path d="M 709.97 466.24 712.42 464.55 713.97 467.98 713.42 469.17 710.57 468.46 709.97 466.24 Z"/>
<path d="M 714.12 466.56 715.8 466.46 716.81 468.46 714.68 468.71 714.12 466.56 Z"/>
<path d="M 660.26 456.47 659.81 454.88 653.46 453.67 651.73 452.19 652.88 448.9 658.67 449.12 663.65 453.64 660.26 456.47 Z"/>
<path d="M 655.4 444.89 656.69 444.51 656.66 442.05 660.15 439.05 662.07 439.06 661.62 443.04 663.13 444.24 660.03 447.08 658.7 447.53 655.4 444.89 Z"/>
<path d="M 679.59 83.56 680.48 80.35 682.31 81.97 681.09 84.26 679.59 83.56 Z"/>
<g/>
<path d="M 721.92 401.3 727 401.92 727.15 403.49 724.19 402.77 721.92 401.3 Z"/>
<g/>
<g/>
<g/>
<g/>
<g/>
<g/>
<g/>
<g/>
<path d="M 238.34 94.62 243.17 95.38 245.52 93.82 243.96 101.65 242.69 101.38 242.72 97.12 241.7 96.46 237.52 96.4 238.34 94.62 Z"/>
<path d="M 425.01 311.66 427.77 314.65 432.4 316.24 433.96 318.58 437.82 321.76 436.68 322.37 432.74 321.18 430.08 318.46 429.1 318.35 424.06 313.68 425.01 311.66 Z"/>
<path d="M 416.25 309.38 417.23 308.64 420.28 308.86 424.03 311.87 422.86 313.05 416.25 309.38 Z"/>
<g/>
<path d="M 731.43 63.77 730.02 65.66 728.6 64.64 728.1 62.06 728.88 60.97 731.43 63.77 Z"/>
<g/>
<path d="M 111.15 275.37 110.82 275.84 111.18 276.26 111.38 275.99 112.57 275.59 113.74 275.37 115.1 276.19 114.6 276.52 113.84 277.36 113.31 278.88 112.79 279.2 112.64 279.68 112.98 279.78 113.54 279.62 115.87 281.23 115.67 281.65 115.51 282 115.79 282.45 116.5 282.24 116.9 282.02 117.73 282.45 118.31 282.56 118.55 282.43 118.92 282.17 120.52 281.16 121.69 280.86 128.41 280.92 128.32 281.82 121.39 281.74 120.78 281.86 120.15 282.12 119.72 282.28 119.36 282.43 119.1 282.79 118.96 282.97 118.72 283.3 118.62 283.54 118.63 284.04 118.92 284.47 118.39 284.77 118.8 285.27 119.35 285.06 121.52 286.76 121.82 286.92 122.59 287.22 123.11 287.24 119.76 287.99 117.31 287.33 114.76 283.95 114.94 283.73 114.9 283.49 114.62 283.35 113.2 283.08 112.85 282.9 109.9 280.61 109.3 279.81 108.94 279.05 108.34 277.36 108.15 277 109.15 274.59 111.15 275.37 Z"/>
<g/>
<g/>
<g/>
<path d="M 724.52 36.08 729.71 36.01 728.73 38.6 727.19 37.69 725.3 38.09 724.52 36.08 Z"/>
<g/>
<g/>
<g/>
<g/>
<g/>
<g/>
<path d="M 781.43 329.6 780.81 330.1 776.23 326.41 776.76 325.79 781.43 329.6 Z"/>
<path d="M 781.58 329.39 776.87 325.75 777.38 325.07 782.01 328.72 781.58 329.39 Z"/>
<path d="M 220.05 12.47 223.1 12.39 223.08 14.09 220.27 14.07 220.05 12.47 Z"/>
<path d="M 219.9 14.58 222.9 14.3 222.49 16.19 220.43 16.19 219.9 14.58 Z"/>
<path d="M 215.78 14.58 222.93 17.55 220.98 21.17 219.48 18.97 218.7 16.32 215.78 14.58 Z"/>
<path d="M 220.22 10.46 223.08 10.47 223.01 12.14 220.31 12.13 220.22 10.46 Z"/>
<g/>
<g/>
<g/>
<g/>
<path d="M 227.4 284.39 225.55 282.24 226 280.52 232.33 283.21 231.78 284.21 227.4 284.39 Z"/>
<g/>
<path d="M 25.46 235.42 24.21 233.05 26.11 228.48 31.41 227.62 30.41 235.41 29.92 236.05 25.46 235.42 Z"/>
<g/>
<g/>
<g/>
<path d="M 202.75 71.47 205.01 72.85 205.19 75.24 202.74 75.54 202.75 71.47 Z"/>
<g/>
<g/>
<g/>
<g/>
<path d="M 170.38 438.76 171.27 441.01 169.15 441.22 168.47 439.94 170.38 438.76 Z"/>
<g/>
<g/>
<g/>
<path d="M 447.82 338.3 452.05 338.36 451.16 339.93 447.82 338.3 Z"/>
<path d="M 453.91 338.74 456.72 337.97 457.14 340.38 454.06 340.15 453.91 338.74 Z"/>
<g/>
<g/>
<g/>
<path d="M 494.34 347.61 495.04 344.98 496.5 344.2 498.54 346.23 496.64 347.77 494.34 347.61 Z"/>
<g/>
<g/>
<g/>
<path d="M 145.72 97.48 145.65 97.01 152.3 96.96 155.78 95.6 158.72 95.83 165.16 99.58 164.66 100.02 157.74 96.15 156.12 96.14 152.1 97.59 147.81 97.13 145.72 97.48 Z"/>
<path d="M 59.03 165.11 60.69 161.79 59.84 157.94 61.63 158.59 63.77 162.31 62.06 165.48 59.03 165.11 Z"/>
<g/>
<path d="M 634.93 404.33 637.97 406.93 637.2 408.84 633.75 411.81 630.04 411.78 627.17 409.32 631.75 409.2 633.28 407.41 631.38 406.32 634.93 404.33 Z"/>
<g/>
<path d="M 702.54 445.23 703.71 445.64 702.03 450.49 700.91 447.31 702.54 445.23 Z"/>
<path d="M 627.18 425.4 627.69 426.69 631.31 428.58 629.93 430.63 627.02 429.22 626.03 426.16 627.18 425.4 Z"/>
<path d="M 618.42 428.02 618.71 427.85 622.79 429.49 625.26 426.77 626.26 430.58 628.48 431.4 627.41 432.75 623.98 429.95 619.56 429.69 618.42 428.02 Z"/>
<path d="M 618.71 427.85 618.42 428.02 617.03 428.47 602.72 440.33 601.76 440.61 601.61 440.44 603.68 439.08 604.31 437.57 610.35 433.63 611.63 431.48 613.49 430.9 615.47 428.19 618.71 427.85 Z"/>
<g/>
<path d="M 595.69 443.09 593.12 445.3 590.71 443.24 593.5 441.28 595.69 443.09 Z"/>
<path d="M 589.17 441.81 589.57 439.42 592.44 441.31 589.17 441.81 Z"/>
<path d="M 675.93 28.36 681.53 29.15 680.64 30.11 678.18 30.04 675.93 28.36 Z"/>
<g/>
<g/>
<path d="M 231.49 136.84 229.03 136.17 230.07 133.98 231.78 134.81 231.49 136.84 Z"/>
<g/>
<path d="M 478.15 352.99 481.26 354.23 482.67 356.61 482.86 360.08 482.04 363.2 478.29 356.79 477.18 353.78 478.15 352.99 Z"/>
<path d="M 70.43 36.68 72.47 35.86 73.24 37.24 71.23 38.06 70.43 36.68 Z"/>
<g/>
<g/>
<path d="M 76.55 31.63 74.96 31.6 73.99 29.98 76.63 29.73 76.55 31.63 Z"/>
<g/>
<path d="M 214.67 112.67 214.59 112.56 214.92 112.94 214.41 114.58 214.54 115.9 215.41 116.92 214.74 119.81 212.11 121.02 212.07 120.95 214.54 119.8 215.23 116.82 214.4 116.02 214.25 114.42 214.67 112.67 Z"/>
<g/>
<g/>
<path d="M 712.86 329.27 714.57 329.15 717.02 332.16 714.62 332.62 714.32 330.39 712.86 329.27 Z"/>
<g/>
<path d="M 709.7 139.51 709.04 139.01 709.9 137.63 709.26 135.62 703.54 132.61 699.23 131.38 696.71 129.52 696.58 122.55 695.41 121.15 694.81 120.76 692.48 119.51 689.58 119.28 688.41 118.28 685.48 118.47 684.83 118.36 682.09 116.8 679.9 110.34 679.57 94.05 678.49 90.54 678.79 87.96 679.07 87.99 678.87 90.24 679.85 92.95 680.01 106.48 680.56 110.86 682.41 116.34 685.17 118.03 688.71 118.13 689.85 119.09 692.78 119.37 696.2 121.36 697.1 122.91 696.99 129.15 698.2 130.32 708.46 133.75 710.87 135.69 709.7 139.51 Z"/>
<path d="M 694.81 120.76 695.41 121.15 694.05 120.91 691.1 122.59 688.51 122.43 685.9 121.13 684.83 118.36 685.48 118.47 687.06 121.59 690.22 122.47 694 120.76 694.81 120.76 Z"/>
<path d="M 679.07 87.99 678.79 87.96 679.05 79.27 678.83 73.29 679.76 61.74 682.49 45.44 681.57 38.64 681.84 37.31 678.83 33.53 679.28 33.4 681.75 36.35 682.43 42.16 682.64 46.45 682.34 50.94 681.58 52.07 680.42 58.81 679.18 71.17 679.35 79.63 679.07 87.99 Z"/>
<path d="M 679.28 33.4 678.83 33.53 677.41 32.22 669.61 28.58 658.84 23.91 657.7 23.88 656.09 21.41 654.44 21.31 653.73 19.74 651.42 20.49 648.75 19.6 648.91 19.35 651.83 20.34 653.77 19.25 655.02 21.24 656.36 21.15 657.54 23.3 668.2 27.51 678.6 32.47 679.28 33.4 Z"/>
<path d="M 648.91 19.35 648.75 19.6 648.48 19.57 648.13 19.49 648.91 19.35 Z"/>
<path d="M 648.13 19.49 648.48 19.57 643.69 24.58 639.16 25.68 635.75 27.07 634.13 27.43 631.68 27.47 630.97 26.88 628.67 28.02 628.19 27.48 627.84 26.54 624.62 29.33 621.42 29.8 618.96 28.25 613.92 27.13 612.89 26.35 610.88 26.54 610.81 25.4 610.99 25.17 611.02 26.39 614.42 26.18 616.4 27.37 622.03 28.96 624.39 29.18 627.54 26.18 628.07 26.42 628.48 27.69 629.1 27.68 631.09 26.7 634.23 27.32 639.01 25.54 642.19 23.67 645.14 22.89 645.94 20.04 648.13 19.49 Z"/>
<path d="M 610.99 25.17 610.81 25.4 607.17 25.94 603.38 23.97 602.52 21.42 601.07 20.23 601.2 20.07 602.82 21.53 603.52 23.72 607.47 25.83 610.99 25.17 Z"/>
<path d="M 592.73 10 592.18 13 593.74 16.58 596.04 17.23 596.8 18.88 598.82 18.75 601.2 20.07 601.07 20.23 599.14 20.19 596.69 19.03 595.87 17.33 593.31 16.43 592.07 13.06 592.73 10 Z"/>
<path d="M 683.12 42.43 685.91 40.79 689.41 43.99 689.17 45.67 687.13 48.94 682.31 52.95 682.62 49.08 683.61 47.74 683.12 42.43 Z"/>
<path d="M 646.9 162.66 646.82 162.82 644.81 161.75 643.14 159.85 643.54 157.4 641.36 157.67 641.03 156.67 639.01 155.26 637.76 153.14 635.39 152.36 635.69 150.81 633.33 150.54 631.83 148.73 631.08 146.77 629.77 146.3 626.87 142.57 622.79 139.84 621.99 137.93 618.22 133.79 617.98 130.6 618.45 130.6 618.37 133.17 620.56 136.2 622.51 137.63 622.5 138.97 626.81 142.26 630.05 146.23 631.37 146.71 633.08 150.2 636.02 150.73 635.58 152.32 637.6 152.88 639.98 155.18 641.03 156.37 641.58 157.57 643.7 157.23 643.44 159.85 646.9 162.66 Z"/>
<path d="M 784.89 243.99 779.84 243.89 779.06 244.41 775.31 244.73 771.28 244.71 766.36 243.07 759.86 240.38 755.67 236.63 752.08 234.14 752.16 233.96 755.74 236.43 759.91 240.14 766.52 242.99 771.65 244.55 775.31 244.61 778.94 244.25 779.61 243.77 784.89 243.99 Z"/>
<path d="M 752.16 233.96 752.08 234.14 751.03 233.88 747.61 230.07 746.9 225.79 743.86 223.95 742.46 223.79 741.33 222.28 738.48 220.68 734.07 218.78 733.06 217.36 730.27 215.54 729.23 213.85 729.36 213.73 730.44 215.54 732.89 216.96 734 218.46 738.94 220.63 741.64 222.27 743.3 223.8 744.53 223.93 746.07 224.8 748.62 226.61 749.55 228.39 747.84 230.29 750.81 233.49 752.16 233.96 Z"/>
<path d="M 729.36 213.73 729.23 213.85 728.12 213.32 726.98 213.95 726.97 211.91 726.04 211.01 724.81 211.28 723.16 210.18 721.99 208.02 719.7 205.52 718.67 203.59 713.77 196.96 713.99 196.91 719.33 204.46 723.63 210.14 724.89 210.96 726.13 210.88 727.1 211.69 727.31 212.96 729.36 213.73 Z"/>
<path d="M 666.8 188.03 667.06 188.03 667.76 189.18 674.06 191.5 676.03 193.16 681.43 193.02 693.87 195.16 695.48 194.79 696.94 193.49 698.51 192.83 699.16 192.69 700.1 192.93 701.33 194.01 702.83 193.58 704.52 193.82 707.31 193.45 707.9 193.02 708.63 193.79 711.37 194.31 711.38 195.65 713.99 196.91 713.77 196.96 711.17 195.88 711.32 194.51 708.94 194.13 707.66 193.39 705.12 193.8 703.63 194.58 702.8 193.86 701.65 194.1 700.72 194.02 700.07 193.1 698.88 192.79 697.93 193.73 697.15 193.58 695.41 194.96 694.12 195.25 692.71 194.96 691.15 195.22 689.52 194.57 687.06 195.35 683.91 193.68 681.05 193.1 676.36 193.39 673.84 191.61 667.71 189.44 666.8 188.03 Z"/>
<path d="M 595.1 427.32 600.46 428.71 598.06 431.34 592.86 429.63 595.1 427.32 Z"/>
<path d="M 602.08 428.81 604.99 426.7 606.86 427.81 605.36 430.08 601.92 432.52 600.1 430.89 602.08 428.81 Z"/>
<g/>
<path d="M 132.88 284.91 140.15 286.49 146.46 286.96 145.39 288.29 139.78 287.96 138.07 286.47 132.88 284.91 Z"/>
<g/>
<g/>
<g/>
<g/>
<path d="M 407.98 296.07 407.99 296.07 403.33 296.09 407.98 296.07 Z"/>
<path d="M 750.25 361.8 752.19 356.74 753.85 357.63 755.18 360.46 752.49 362.73 750.25 361.8 Z"/>
<g/>
<path d="M 50.89 230.4 51.59 227.89 51.5 224.4 53.79 225.64 53.72 229.02 50.89 230.4 Z"/>
<path d="M 60.24 230.29 62.07 229.08 66.12 230.66 64.45 233.49 60.24 230.29 Z"/>
<g/>
<g/>
</g>
</svg>