<?xml version="1.0"?>
<svg xmlns="http://www.w3.org/2000/svg" version="1.2" baseProfile="tiny" width="800" height="998" viewBox="0 0 800 998" stroke-linecap="round" stroke-linejoin="round">
<defs>
    <style>
        :root {
            --water-color: #9FC9EA;
            --bg-color: #F2E7D3;
        }
    
        svg {
            background: var(--bg-color, #ffffff);
        }
        path, polygon, rect, circle {
            fill: var(--water-color, #3b82f6);
            stroke: none;
        }
    </style>
</defs>
<g id="water">
<g/>
<g/>
<g/>
<g/>
<g/>
<g/>
<g/>
<g/>
<g/>
<g/>
<g/>
<g/>
<g/>
<g/>
<g/>
<g/>
<g/>
<g/>
<g/>
<g/>
<g/>
<path d="M 441.78 593.63 437.8 594.08 437.44 588.05 441.37 589.49 441.78 593.63 Z"/>
<path d="M 229.38 273.3 235.26 274.11 237.8 272.98 242.1 274.26 244.71 277.06 244.15 279.93 240.84 279.88 228.41 276.87 226.81 274.05 229.38 273.3 Z"/>
<g/>
<path d="M 351.49 690.28 347.96 697.38 347.34 706.49 345.73 715.59 341.74 719.89 341.01 723.33 346.48 726.14 348.45 728.4 348 732.34 346.55 735.54 344.15 738.11 340.43 739.61 338.78 743.01 341.8 746.49 343.34 749.93 341.31 754 334.96 763 328.78 765.5 325.21 769.48 325.36 771.72 327.56 773.65 329.33 775.93 329.14 779.95 327.05 785.75 326.68 792.12 327.13 797.4 325.64 801.61 323.8 803.26 319.67 804.11 316.78 809.46 317.94 811.73 320.35 813.07 319.52 814.55 315.93 814.59 313.94 817.31 314.15 819.06 311.74 825.75 314.07 828.87 314.62 832.55 310.09 837.7 307.74 839.16 307.48 842 301.26 844.95 298.5 847.13 298.63 846.9 300.4 845.34 307.16 841.9 307.42 839.09 314.2 832.83 313.64 828.83 311.44 825.82 313.85 819.19 313.62 816.88 314.88 814.85 317.17 814.14 318.96 814.33 319.76 812.94 317.13 811.36 316.44 808.5 318.64 804.33 323.18 802.96 326.11 799.73 326.58 789.77 326.21 786.52 328.86 778.67 328.31 775.66 325.57 772.7 324.8 771.08 324.84 769.13 326.21 766.82 335.17 762.04 342.93 749.66 338.16 742.71 339.17 740.1 346.25 735.18 347.87 728.66 346.08 726.65 340.65 723.91 340.35 720.53 345.48 715.55 347.38 700.22 347.27 694.6 350.72 690.51 351.49 690.28 Z"/>
<path d="M 343.19 509.8 343.15 511.74 343.3 518.33 343.13 519.08 343.4 519.27 343.47 519.33 343.81 519.89 343.94 520.55 344.73 521.47 344.94 521.71 345.31 522.13 345.97 523.44 345.84 524.14 346.12 524.79 345.65 527.29 345.63 528.78 345.71 529.36 345.63 530.13 345.99 530.77 346.18 530.88 346.48 531.03 348.04 532.03 350.18 533.25 351.57 534.07 351.96 534.47 353.17 534.94 354.69 535.33 354.99 535.24 356.15 535.41 356.94 535.71 357.54 535.75 361.11 538.64 361.81 539.3 364.74 542.23 365.6 543.17 370.26 546 371.01 546.51 375.13 550.17 375.67 550.96 376.2 551.75 376.5 552.86 377.23 554.14 378.13 556.22 378.26 556.54 379.26 558.4 379.71 559.45 382.79 566.35 383.62 567.91 384.05 569.13 384.22 569.64 384.24 569.99 384.71 570.31 384.9 570.71 384.84 571.03 385.63 572.45 386.7 573.69 388.26 574.99 389.1 575.78 390.29 577.06 390.4 577.17 390.51 577.26 390.78 577.56 391.45 578.56 391.68 578.84 392.54 579.67 393.03 580.34 395.81 584.35 395.94 584.93 396.07 585.4 396.13 585.64 396.26 588.03 396.13 588.8 396.39 589.12 396.24 589.4 396.04 589.72 395.57 590.32 395.4 590.92 395.08 591.95 394.85 592.05 394.72 592.99 394.61 593.83 394.38 594.21 394.31 594.66 394.14 594.79 393.99 595.58 393.48 595.92 393.05 596.76 393.14 597.18 393.16 597.29 392.84 597.7 392.2 598.47 392 598.7 391.17 599.56 390.72 599.84 389.65 600.52 386.79 601.8 385.18 602.38 384.48 602.76 383.41 603.19 383.02 603.43 381.7 604.2 380.82 604.54 380.22 605.33 380.07 605.86 379.79 606.76 379.62 607.32 379.3 608.05 379.37 608.24 379 609.01 378.75 609.95 378.88 610.5 378.79 610.87 377.64 614.97 377.38 616.23 377.12 617.03 376.54 618.48 376.59 619.21 376.44 619.91 376.74 621.3 377.1 622.03 377.57 622.5 379.39 623.25 380.46 623.65 381.87 624.55 382.3 625 383.9 629.13 384.05 629.85 384.07 630 384.18 630.5 384.22 630.73 384.35 632.23 384.33 633.08 384.26 633.3 384.22 633.49 384.39 633.81 384.33 634.2 385.14 637.83 385.35 639.46 385.31 640.27 385.29 640.63 385.1 641.85 383.51 646.38 383.22 647.15 382.66 648.24 379.94 650.94 377.55 651.64 376.93 651.81 374.09 652.65 373.47 652.84 371.76 653.4 371.16 653.67 370.17 654.57 369.94 655.32 370.17 657.82 370.22 659.3 370.22 659.77 370.17 661.31 370.17 661.48 370.17 661.69 370.17 661.91 370.41 663.12 370 663.94 370.04 664.88 370.41 665.71 370.66 666.14 370.88 666.5 372.03 667.68 372.97 668.47 373.14 668.73 374.28 668.81 373.68 669.18 373.83 669.99 373.44 672.17 372.55 673.22 371.71 673.77 370.81 674.52 370.24 674.93 369.19 675.65 368.87 675.89 368.14 676.64 367.76 676.83 367.35 677.21 367.18 677.39 367.2 677.83 366.92 678.8 366.84 679.5 366.86 680.17 366.77 680.74 366.52 681.36 366.3 682.75 365.85 683.61 365.66 683.97 364.93 684.46 364.68 684.76 364.04 685.21 362.07 687.41 361.58 687.61 360.44 687.88 358.69 688.16 357.9 688.57 357.56 688.57 357.09 688.59 356.47 688.48 355.38 688.48 354.12 688.29 353.62 688.23 352.68 688.27 352.34 688.74 351.98 689.45 351.96 689.49 351.49 690.28 350.72 690.51 350.61 690.45 349.73 689.96 349.56 689.96 350.25 689.92 350.8 689.94 350.99 689.96 351.29 689.47 352.43 688.03 353.05 687.88 353.41 687.88 357.26 687.99 357.58 688.01 358.26 687.93 358.93 687.73 359.4 687.5 359.67 687.37 360.59 687.16 362.26 686.49 363.65 684.89 364.16 684.21 365.17 683.27 365.36 682.9 365.58 681.58 365.81 680.94 366.15 680.04 366.13 679.72 366.32 678.73 367.31 676.72 367.67 676.23 368.29 675.78 369.34 674.76 370.41 674.22 371.26 673.34 372.52 672.34 373.34 671.25 373.44 670.54 373.19 669.77 372.59 669.35 372.1 668.66 371.54 668.15 371.16 667.81 370.77 667.19 369.4 663.66 370.07 662.68 370 662.18 369.72 662.31 369.6 662.38 369.38 661.95 369.45 661.44 369.53 660.77 369.27 659.47 369.89 654.17 370.39 653.61 370.79 653.27 371.58 652.88 371.84 652.58 372.46 652.48 374.86 651.64 375.24 651.6 375.8 651.49 376.1 651.45 377.4 651.09 378.32 650.85 378.94 650.47 380.44 649.83 381.06 649.35 381.8 648.41 382.66 645.85 383.07 644.54 383.71 642.85 384.01 642.34 384.31 641.46 384.52 640.25 384.5 639.13 384.37 637.85 384.2 637.19 384.22 636.55 384.01 635.46 383.86 634.92 383.62 633.45 383.58 632.72 383.66 630.69 383.45 629.83 383.22 629.53 383.13 629.13 383.02 627.99 382.81 627.44 382.6 627.31 382.51 627.03 382.21 626.13 381.14 624.81 380.24 624.27 378.68 623.68 377.78 623.29 376.84 622.52 376.54 622.22 375.84 621.09 375.75 620.77 375.75 619.48 376.5 616.06 377.27 613.65 377.38 613.07 377.74 612.36 378.02 611.42 378.26 609.84 378.49 609.03 378.77 608.6 379.15 607.08 379.26 606.53 379.67 605.95 380.18 604.5 380.54 604.2 382.23 603.3 383.17 602.87 384.35 602.38 384.39 602.06 384.41 601.87 384.84 601.72 386.66 601.14 388.26 600.58 389.52 599.9 390.25 599.49 391.51 598.4 392.17 597.46 393.8 593.93 394.03 592.72 394.51 591.45 394.87 590.51 395.13 589.66 395.06 589.02 395.42 587.48 395.51 586.58 395.34 585.66 393.91 582.35 393.26 581.6 393.05 581.06 392.17 580.44 391.02 579.07 390.83 578.82 390.57 578.52 389.78 577.49 389.33 576.91 388.58 576.32 384.8 572.53 384.76 572.06 384.07 570.84 383.84 570.65 383.66 570.5 381.72 566.14 381.61 565.6 381.21 564.77 380.99 564.32 380.91 564.04 380.33 562.89 380.35 562.5 380.01 562.27 379.75 561.71 379.52 561.2 378.83 559.42 377.83 557.88 376.48 554.78 376.18 554.01 375.65 552.82 375.48 552.52 375.18 551.64 374.73 550.76 374.11 550.04 372.76 548.43 372.2 548.03 370.07 546.79 368.76 545.95 367.65 545.33 365.6 543.86 364.74 543.11 363.99 542.4 363.46 541.89 362.6 541.08 361.9 540.37 361.09 539.56 360.02 538.71 358.14 537.06 357.28 536.63 355.93 536.25 355.4 536.01 355.31 535.8 355.23 535.61 354.65 535.73 353.79 535.58 352.28 535.16 351.74 534.86 351.12 534.54 350.29 534.09 349.58 533.68 348.66 533.17 345.31 530.41 344.96 529.13 345.05 528.27 345.24 527.42 345.35 526.13 345.5 525.71 345.56 525.49 345.39 525.13 345.35 524.76 345.24 523.76 345.5 523.46 345.39 523.31 345.01 522.78 345.07 522.43 344.58 522.18 344.32 521.86 342.61 518.86 342.59 517.82 342.85 516.53 342.65 516.06 342.53 514.5 342.31 513.82 342.36 512.92 342.4 509.31 342.42 507.81 342.38 507.34 341.84 505.97 341.8 505.2 341.5 505.07 341.2 504 340.43 502.25 340.3 501.46 340.32 501.18 340.39 500.37 340.43 499.77 341.07 498.47 341.97 495.73 342.23 495.22 342.89 495.39 342.23 496.71 342.21 496.84 342.06 497.46 341.16 499.49 341.03 499.96 340.97 500.26 340.92 500.41 341.16 500.75 341.33 502.36 341.52 502.83 342.14 503.79 342.31 504.2 342.51 505.12 342.8 505.59 342.95 505.82 343.02 506.83 343.23 507.96 343.13 508.96 343.19 509.8 Z"/>
<path d="M 342.89 495.39 342.23 495.22 345.43 486.6 345.67 478.43 346.31 476.53 351.61 473.26 354.76 470.14 363.33 463.64 367.07 458.57 372.67 453.12 377.01 452.05 389.01 447.77 395.94 442.55 402.2 441.46 411.12 438.58 425.55 420.83 425.87 414.59 431.52 402.51 431.43 399.47 433.03 396.84 437.87 394.02 439.24 392.35 441.67 391.04 447.02 386.88 447.74 385.83 448.96 386.36 446.72 388.65 439.96 392.35 437.57 394.83 434.23 396.71 432.22 399.28 432.31 403.75 426.53 414.29 427.11 419.33 425.91 422.09 415.39 434.45 412.42 438.77 401.43 441.98 395.57 443.15 389.63 447.96 380.05 451.49 373.53 453.35 367.39 458.59 367.07 460.09 361.94 466.12 361.64 466.24 351.34 474.01 347.08 476.57 345.88 483.09 346.12 487.09 342.89 495.39 Z"/>
<path d="M 448.96 386.36 447.74 385.83 451.25 379.88 460.96 372.02 464.57 366.69 470.56 360.7 465.83 352.26 465.83 345.33 469.62 341.68 476.37 341.1 481.27 339.88 484.05 336.16 483.45 333.12 484.61 328.61 486.3 326.32 485.12 323.93 487.79 318.11 487.71 314.31 489.87 305.37 489.63 294.7 487.13 289.65 487.39 286.92 493.14 284.95 496.64 280.22 502.27 274.54 505.56 272.44 506.82 273.23 500.98 276.7 495.66 283.32 492.26 285.72 487.77 287.11 487.49 288.33 491.06 296.77 490.83 307.25 488.78 314.2 488.9 320.14 487.11 321.83 487.45 328.55 485.61 328.91 485.06 336.16 480.93 340.65 476.4 341.74 470.2 342.15 467.22 344.48 466.22 350.76 470.32 357.67 471.09 361.24 465.73 366.65 464.36 369.79 460.72 373.73 452.66 379.35 448.96 386.36 Z"/>
<path d="M 506.82 273.23 505.56 272.44 510.01 270 511.21 267.44 510.54 263.89 511.33 255.89 511.29 248.52 511.89 246.08 516.25 244.45 522.11 243.79 528.35 245.35 531.52 243.04 533.12 239.51 530.68 235.56 531.09 232.71 533.7 229.76 544.99 228.18 550.06 219.5 553.03 217 557.15 215.99 563.16 210.33 577 209.79 581.68 206.44 583.75 203.08 584.69 203.12 583.92 205.82 580.25 208.96 576.1 210.73 565.21 210.39 563.31 210.91 558.24 215.89 550.68 219.44 547.45 226.66 545.16 228.91 533.98 230.58 531.67 233.83 533.76 238.57 531.75 243.94 529.23 245.82 523.09 244.2 514.16 246.16 511.93 250.74 512.85 257.24 511.97 260.7 513.11 263.55 510.63 270 506.82 273.23 Z"/>
<g/>
<path d="M 661.2 108.15 664.36 101.54 664.21 97.18 666.26 89.25 670.13 87.17 673.77 86.04 678.47 86.74 680.1 84.56 678.17 81.5 675.59 80.63 673.06 77.42 673.81 75.86 678.05 74.17 678.37 71.61 675.89 65.7 675.82 61.13 676.76 58.52 680.16 55.65 679.78 52.43 682.04 51.08 678.94 47.66 678.75 45.58 681.53 43.89 684.95 42.76 686.47 35.17 689.63 33.5 690.51 28.82 693.2 23.56 692.31 21.57 695.02 19.97 698.46 20.5 692.37 26.47 690.81 32.9 687.47 35.32 684.87 43.98 679.73 45.11 682.54 49.63 682.51 51.87 680.55 52.4 681.02 54.86 676.42 59.93 676.95 66 678.67 69.08 678.96 74.43 674.15 76.16 675.52 79.75 679.03 80.93 681.25 84.65 678.67 87.19 673.19 86.38 670.18 87.47 667.48 90.08 665.71 93.67 665.62 101.26 662.76 106.95 661.2 108.15 Z"/>
<g/>
<path d="M 489.05 481.55 494.51 485.19 488.33 486.68 482.49 484.95 484.46 481.42 489.05 481.55 Z"/>
<path d="M 121.72 207.44 123.07 209.02 122.55 209.28 122.64 209.54 122.72 209.77 123.54 209.62 126.12 209.3 127.45 209.32 131.43 210.46 135.15 214.78 143.17 226.04 150.07 237.83 145.97 244.71 145 248.64 139.96 252.56 137.11 253.33 132.45 254.44 128.99 254.37 126.36 253.65 120.46 252.13 108.87 249.54 91.57 248.11 84.99 246.14 82.53 244.67 84.52 241.57 84.84 237.8 85.95 236.67 83.6 235.05 79.6 236.73 76.6 234.72 68.72 230.96 68.61 230.64 73.1 230.04 74.1 228.52 76.16 228.31 79.81 225.66 74.85 221.87 77.12 219.76 79.71 219.71 85.73 221.77 94.03 222.11 94.82 220.34 95.85 220.4 90.03 217.17 92.88 215.46 96.75 216.29 100.3 213.98 103.63 213.96 103.95 213.92 108.16 212.23 111.86 212 114.92 211.16 115.78 211.1 116.08 211.08 120.93 207.59 121.21 207.7 121.72 207.44 Z M 90.63 237.16 91.49 239.15 95.63 240.69 100.3 238.49 94.95 236.26 90.63 237.16 Z" fill-rule="evenodd"/>
<path d="M 167.11 928.25 168.48 926.97 172.42 927.74 173.66 929.43 169.08 932.15 167.11 928.25 Z"/>
<path d="M 383 780.83 385.4 783.27 382.15 785.45 377.36 783.42 378.85 781.51 383 780.83 Z"/>
<path d="M 322.66 534.17 320.01 529.96 323.39 530.47 322.66 534.17 Z"/>
<path d="M 189.33 574.54 189.65 572.06 194.33 570.29 196.6 574.46 194.84 575.89 189.33 574.54 Z"/>
<path d="M 299.34 488.57 297.48 488.46 286.98 486.79 281.12 483.54 278.51 485.64 273.04 487.26 271.73 487.09 270.54 486.34 269.17 485.02 268.61 484.33 268.2 484.4 265.94 484.95 266.6 484.65 267.56 483.86 267.63 483.63 267.52 483.33 266.49 479.31 266.34 478.15 266.81 472.72 269.17 471.33 269.57 471.35 269.68 471.42 270.09 471.63 273.59 472.17 273.66 472.21 280.18 472.72 280.35 472.42 279.79 472.21 277.8 471.72 277.66 471.52 280.91 470.54 281.63 471.01 283.26 471.8 286.89 477.45 285.84 479.8 285.89 480.21 286.27 480.42 288.05 480.48 289.07 480.8 291.25 481.15 296.41 483.01 299.76 485.19 300.36 487.67 299.61 488.33 299.34 488.57 Z M 282.98 482.32 283.86 482 284.88 481.17 284.95 480.53 284.45 480.18 283.9 480.27 282.47 482.02 282.98 482.32 Z" fill-rule="evenodd"/>
<path d="M 558.65 202.48 562.93 209.13 557.11 213.92 550.85 216.91 548.07 216.19 548.69 211.78 553.11 210.78 554.99 202.61 558.65 202.48 Z"/>
<path d="M 672.55 128.46 673.98 127.05 681.57 127.33 677.72 131.35 671.16 132.18 672.55 128.46 Z"/>
<path d="M 97.97 424.1 88.81 423.72 89.01 420.66 91.66 418.35 96.43 417.94 99.03 420.77 97.97 424.1 Z"/>
<path d="M 487.15 102.31 480.16 100.45 478.15 97.52 479.54 95.25 485.55 94.46 487.49 97.86 485.53 100.43 487.15 102.31 Z"/>
<path d="M 292.81 374.3 297.82 371.78 301.15 373.21 292.81 374.3 Z"/>
<path d="M 338.29 724.36 339.7 727.95 333.25 728.51 329.87 722.63 333.91 722.12 335.28 724.06 338.29 724.36 Z"/>
<g/>
<g/>
<path d="M 75 70.26 72.93 71.13 68.57 68.55 74.81 66.32 75 70.26 Z"/>
<path d="M 315.14 359.31 305.71 358.72 305.94 351.34 319.35 350.78 319.73 353.01 314.67 353.41 315.14 359.31 Z"/>
<path d="M 310.95 347.9 321.15 347.28 320.08 349.14 310.86 349.42 310.95 347.9 Z"/>
<path d="M 437.03 573.07 441.72 569.86 445.22 571.48 443.38 575.14 439.15 574.61 437.03 573.07 Z"/>
<path d="M 74.27 90.53 75.84 87.19 79.13 87.28 79.79 90.51 74.27 90.53 Z"/>
<path d="M 154.43 457.24 163.56 455.08 167.05 455.77 168.89 459.68 159.37 463.59 155.61 463.98 150.69 461.15 154.43 457.24 Z"/>
<g/>
<path d="M 683.8 862.93 685.83 860.82 689.57 860.84 689.33 868.17 685.87 866.57 683.8 862.93 Z"/>
<path d="M 250.46 407.23 257.43 406.23 261.88 408.56 260.72 412.45 256.47 413.32 250.71 411.76 246.61 411.42 246.1 409.35 250.5 409.5 250.46 407.23 Z"/>
<path d="M 269.08 406.97 269.29 403.77 272.78 402.01 277.83 402.16 282.51 404.92 281.25 406.4 274.45 408.11 269.08 406.97 Z"/>
<path d="M 75.32 682.39 75.75 682.13 78.36 681.64 84.05 688.61 83.17 688.97 81.59 689.72 80.6 689.92 78.04 691.45 70.51 695.24 68.59 695.22 66.09 695.54 66.15 692.48 65.91 692.42 68.27 690.19 68.46 689.85 65.42 688.65 62.32 688.48 62.19 686.2 61.42 686 60.06 685.02 60.21 684.42 60.8 683.76 61.49 683.74 62.58 683.8 62.92 683.91 69.38 683.54 70.34 683.39 71.86 683.22 72.41 683.27 73.33 683.01 74.06 682.99 75.32 682.39 Z"/>
<path d="M 199.55 786.73 201.05 788.91 198.29 790.41 194.8 789.96 192.32 783.25 189.11 782.24 188.45 779.42 191.59 777.99 198.8 777.3 201.73 779.93 202.41 783.03 199.55 786.73 Z"/>
<path d="M 231.66 885.96 231.66 885.56 232.39 884.29 237.16 883.48 242.38 886.18 269.34 893.27 272.99 894.92 274.98 897.51 276.63 904.61 281.1 914.59 286.89 926.5 284.3 929.22 279.69 931.93 274.64 929.41 274.6 929.84 276.67 932.06 272.65 934.35 271.37 932.23 267.05 928.66 262.79 926.48 262.54 926.16 261.55 927.19 260.34 925.45 257.26 925 256.38 924.36 254.09 921.5 256.85 915.51 256.72 914.61 256.57 914.19 256.25 914.25 256.42 916.09 252.15 918.57 251.21 917.99 248.64 917.59 245.03 914.49 247.25 911.83 247.34 911.41 246.99 911.51 245.78 911.96 245.09 912.67 241.91 915.21 240.15 912.92 239.62 913.1 234.1 918.48 231.45 919.75 228.69 922.74 227.49 927.21 223.37 930.95 222.43 936.94 217.42 942.26 217.21 947.18 218.79 948.97 214.64 953.42 213.47 956.69 212.42 959.73 210.47 965.61 210.3 965.61 209.53 965.65 206.07 966.63 200.3 966.29 199.63 966.87 197.24 967.87 193.71 966.25 191.17 959.92 191.38 954.96 193.31 951.35 192.69 947.69 195.96 945.66 195.14 941.4 193.11 941.32 193.03 940.27 195.29 939.84 195.21 939.12 192.86 938.54 192.66 937.79 193.26 932.94 192.79 929 195.17 926.18 198.5 924.77 198.18 924.26 199.29 921.18 200.6 920.28 201.71 919.19 203.14 915.55 200.4 915.53 199.63 916.13 197.07 914.98 198.42 912.5 200.25 911.71 204.02 911.09 207.52 904.39 214.17 897.49 215.8 896.7 216.5 896.08 216.89 895.2 220.8 892.06 222.64 891.97 223.03 891.86 224.03 892.01 224.8 891.69 235.62 890.56 236.15 890.5 236.86 889.96 237.31 887.37 236.77 886.9 235 887.42 234.76 887.33 234.34 887.25 231.66 885.96 Z"/>
<path d="M 10 698.62 10.92 699.24 12.2 699.56 13.12 699.9 13.66 700.11 14.9 700.46 16.05 700.69 18.45 700.22 19.6 699.75 23.9 701.12 23.79 702.06 24.09 702.64 23.79 703.86 23.64 705.31 23.39 706.7 23.69 707.98 22.92 711.02 21.08 712.02 20.29 711.64 18.11 711.36 10 705.27 10 698.62 Z"/>
<path d="M 177.48 709.95 175.43 707.28 184.94 707.17 187.17 710.63 185.95 713.61 177.48 709.95 Z"/>
<path d="M 207.37 731.48 206.5 729.04 205.21 724.92 209.64 723.93 212.61 720.58 221.06 720.58 231.54 718.4 232.03 718.4 235 718.37 235.58 718.67 235.68 718.59 250.12 722.99 255.1 729.19 259.55 731.82 261.49 733.13 263.33 734.09 263.35 737.47 259.48 738.3 258.18 740.5 259.14 744.07 253.22 745.72 248.36 745.64 247.49 745.38 242.68 746.11 238.78 750.9 236.52 750.3 234.72 749.83 230.96 749.08 219.43 744.1 215.5 741.49 208.14 733.47 207.37 731.48 Z"/>
<path d="M 204.64 748.42 205.11 748.46 198.44 745.79 198.44 745.21 198.27 744.91 197.65 744.59 196.83 743.95 196.6 743.75 196.53 743.48 195.94 743.71 196.02 743.01 196.58 742.6 196.94 742.47 197.65 742.19 198.5 742 202.37 741.77 211.27 743.18 216.29 745.21 218.3 746.88 223.97 748.09 235.94 752.01 234.68 754.32 232.54 754.1 228.01 753.95 223.3 755.62 222.88 755.73 214 753.5 209.7 750.62 203.68 749.63 203.27 749.31 202.33 749.23 201.6 748.8 200.13 748.74 200.08 748.52 204.64 748.42 Z"/>
<path d="M 200.08 748.52 200.13 748.74 199.7 750.49 196.58 752.52 194.31 750.96 194.52 747.6 197.67 747.11 200.08 748.52 Z"/>
<path d="M 215.82 763.49 210.99 762.38 210.24 759 213.96 758.7 217.66 763 215.82 763.49 Z"/>
<path d="M 202.91 761.78 206.6 762.4 211.16 765.73 209.06 767.98 204.59 767.32 200.02 763.53 202.91 761.78 Z"/>
<g/>
<path d="M 274.53 697.93 279.11 693.91 280.95 695.97 274.53 697.93 Z"/>
<g/>
<path d="M 116.08 714.82 120.05 713.76 125.27 713.88 133.46 716.17 136.41 715.85 138.25 719.17 134.72 719.27 128.67 721.86 123.26 720.45 118.23 717.82 116.08 714.82 Z"/>
<path d="M 131.77 626.41 129.99 623.29 133.42 623.29 131.77 626.41 Z"/>
<path d="M 222.3 632.51 235.6 631.71 238.06 635.97 234.27 641.59 222.7 637.72 221.08 634.77 222.3 632.51 Z"/>
<path d="M 127.28 609.16 135.81 608.11 136.86 610.53 134.78 615.53 137.71 620.23 133.46 620.75 129.33 617.56 126.55 612.79 127.28 609.16 Z"/>
<path d="M 142.16 617.26 144.45 615.64 145.28 613.05 149.02 613.56 155.57 616.17 151.68 619.55 146.84 619.38 142.16 617.26 Z"/>
<path d="M 277.72 756.8 278.96 758.29 279.19 758.87 279.6 759.43 279.69 763.34 278.19 763.15 276.86 763.06 275.99 763.08 275.58 762.83 272.84 762.14 265.15 760.2 262.28 757.48 261.73 756.65 261.06 756.03 260.42 755.24 259.35 754.57 258.09 752.58 258.35 751.96 262.09 751.77 263.89 752.03 265.4 751.71 267.05 751.6 268.57 751.13 271.05 750.43 273.46 750.38 275.32 750.92 276.22 750.96 276.86 751.73 278.06 753.14 279.04 752.86 277.29 755.21 277.53 755.73 277.72 756.8 Z"/>
<path d="M 275.94 763.4 278.77 765.5 278.08 767.19 273.7 767.7 265.85 765.03 265.9 762.68 271.71 763.6 275.94 763.4 Z"/>
<path d="M 279.41 766.85 284.16 765.5 287.79 767.42 287.47 769.54 281.8 769.07 279.41 766.85 Z"/>
<g/>
<g/>
<path d="M 488.8 281.29 492.28 277.59 493.2 274.22 498.01 274 499.51 274.94 496.22 278.92 490.74 283.8 488.8 281.29 Z"/>
<path d="M 500.71 274.41 497.37 272.31 500.28 268.17 499.72 266.41 501.67 263.91 503.12 259.74 505.58 257.54 508.36 257.43 509 265.94 506.33 270.65 500.71 274.41 Z"/>
<path d="M 410.67 215.2 407.27 216.02 407.57 211.59 409.81 211.4 410.67 215.2 Z"/>
<g/>
<path d="M 410.24 131.92 413.41 130.73 413.43 134.45 409.24 134.17 410.24 131.92 Z"/>
<path d="M 146.99 191.98 147.91 196.82 145.73 197.48 141.52 195.58 139.02 190.87 146.99 191.98 Z"/>
<path d="M 151.06 203.1 149.13 206.03 141.37 208.6 141.54 207.1 151.06 203.1 Z"/>
<path d="M 493.57 309.45 491.75 307.34 492 304.13 495.36 305.52 495.73 307.4 493.57 309.45 Z"/>
<path d="M 466.11 83.22 463.82 86.12 460.32 85.82 459.93 83.15 464.87 81.74 466.11 83.22 Z"/>
<path d="M 462.9 59.27 465.66 59.1 465.71 62.73 463.03 62.86 462.9 59.27 Z"/>
<path d="M 432.78 86.29 437.55 86.59 440.62 88.41 440.92 90.27 436.67 91.98 431.62 90.55 432.78 86.29 Z"/>
<g/>
<g/>
<g/>
<path d="M 245.2 108.3 244.36 114.99 241.35 114.2 241.39 109.88 245.2 108.3 Z"/>
<g/>
<path d="M 551.96 224.5 552.3 223.8 553.22 219.86 556.28 218.11 564.34 218.07 565.98 218.97 566.03 220.57 565.81 223.88 562.22 225.19 560.79 229.42 554.22 230.88 548.79 230.17 549.67 226.98 550.68 224.8 551.96 224.5 Z"/>
<g/>
<path d="M 543.47 249.54 542.21 254.16 539.26 256.02 537.93 260.51 532.48 263.16 532.24 265.94 527.9 270.45 526.43 266.09 529.04 265.04 528.99 258.59 531.54 256.7 531.47 251.62 535.43 251.23 537.59 249.39 543.47 249.54 Z"/>
<path d="M 523.11 250.08 523.16 256.08 524.57 258.63 524.59 263.87 521.45 269.9 524.93 271.93 524.97 274.49 522.54 275.22 516.83 273.81 516.02 271.46 512.94 270.97 514.97 264.68 515.27 259.87 514.75 251.64 516.4 249.93 523.11 250.08 Z"/>
<g/>
<path d="M 539.71 244.95 533.66 243.79 536.24 240.11 534.75 235.09 535.11 232.31 540.48 231.37 551.1 231.73 549.58 236.14 550.61 241.25 549.91 244.39 539.71 244.95 Z"/>
<path d="M 552.69 237.14 556.98 237.31 555.68 239.94 551.89 239.71 552.69 237.14 Z"/>
<path d="M 514.86 273.47 518.88 278.64 515.46 284.57 511.5 285.16 511.44 287.75 514.84 288.24 514.95 291.9 507.48 297.97 501.93 301.46 498.25 301.37 492.92 289.53 493.14 288.14 499.21 280.95 506.05 275.54 508.83 274.71 511.14 271.86 514.86 273.47 Z"/>
<path d="M 490.47 319.22 500.11 319.14 498.93 322.35 495.28 327.73 495.04 329.89 492.39 335.58 487.98 334.34 489.05 330.51 488.58 324.33 490.47 319.22 Z"/>
<g/>
<path d="M 52.25 153.48 52.85 152.79 53.53 154.22 60.21 158.46 61.79 160.19 61.23 169.6 59.33 169.92 49.98 166.82 44.13 168.01 43.78 166.48 45.45 165.34 45.17 163.91 39.04 160.04 40.34 157.77 40.64 157.52 47.36 158.18 48.85 155.7 52.25 153.48 Z"/>
<path d="M 494.57 116.06 494.4 119.18 492.41 121.3 489.52 120.42 493.37 116.1 494.57 116.06 Z"/>
<path d="M 352.43 162.05 347.96 163.37 346.97 160.53 351.49 159.93 352.43 162.05 Z"/>
<g/>
<path d="M 659.49 78.88 653.8 82.79 652.62 80.09 659.49 78.88 Z"/>
<path d="M 664.53 89.48 662.97 93.01 662.27 102.39 648.15 100.17 647.49 96.81 654.18 94.21 660.13 96.96 658.69 88.45 660.36 86.85 665.56 86.91 664.53 89.48 Z"/>
<path d="M 667.48 76.18 667.48 71.84 670.33 69.4 675.63 70.43 675.71 73.74 672.34 75.56 667.48 76.18 Z"/>
<path d="M 360 35.24 362.95 38.4 359.74 42.29 353.73 46.65 351.74 47.19 346.12 44.6 344.07 42.33 345.46 39.11 347.7 37.25 360 35.24 Z"/>
<g/>
<g/>
<path d="M 390.34 601.05 392.45 604.77 386.7 605.12 387.53 602.23 390.34 601.05 Z"/>
<path d="M 270.62 647.88 273.7 647.69 277.14 649.03 277.61 650.74 270.86 649.83 270.62 647.88 Z"/>
<g/>
<path d="M 134.74 594 132.73 598.1 128.07 600.18 123.43 598.23 122.87 595.02 124.33 593.1 127.54 592.22 128.86 588.95 131.49 590.38 134.74 594 Z"/>
<path d="M 55.48 435.73 59.86 435.52 61.98 438.17 62.04 441.63 56.21 441.91 55.48 435.73 Z"/>
<path d="M 44.04 435.05 37.22 435.24 37.11 432.55 44.08 432.7 44.04 435.05 Z"/>
<path d="M 35.62 431.86 36 429.42 44.25 429.17 43.63 432.27 35.62 431.86 Z"/>
<path d="M 25.93 447.64 25.93 430.22 34.16 429.25 34.27 438.34 33.91 448.03 27.26 448.65 25.93 447.64 Z"/>
<path d="M 25.35 448.39 18.75 448.03 10 445.78 10 436.35 12.78 436.27 21.5 431.84 25.44 431.73 25.35 448.39 Z"/>
<path d="M 53.9 436.89 45.15 436.87 45.37 428.89 50.41 428.83 53.88 430.09 53.9 436.89 Z"/>
<path d="M 237.86 80.01 234.55 80.84 232.2 79.62 232.6 76.99 237.2 77.51 237.86 80.01 Z"/>
<path d="M 246.76 76.52 247.83 81.1 239.94 81.7 239.79 77.29 246.76 76.52 Z"/>
<path d="M 148.64 55.57 148.83 52.92 152.55 50.93 157.32 50.67 158.77 55.93 153.75 57.04 148.64 55.57 Z"/>
<g/>
<path d="M 161.17 259.68 160.91 262.8 154.88 264.57 148.81 264.04 147.33 262.03 151.08 260.72 152.98 258.74 161.17 259.68 Z"/>
<path d="M 10 406.34 16.42 406.57 18.87 408.92 17.12 411.34 10 413.86 10 406.34 Z"/>
<path d="M 182.66 277.04 175.22 276.06 178.79 273.81 182.06 274.07 182.66 277.04 Z"/>
<path d="M 75.32 350.4 71.26 349.84 73.8 347.15 75.32 350.4 Z"/>
<path d="M 13.47 282.38 16.63 278.71 21.61 281.04 18.3 285.36 13.47 282.38 Z"/>
<g/>
<path d="M 352.64 345.78 348.58 347.08 346.14 341.97 350.42 342.34 352.64 345.78 Z"/>
<g/>
<path d="M 306.8 360.6 315.67 361.41 313.96 364.02 310.18 363.93 306.97 362.69 306.8 360.6 Z"/>
<path d="M 422.41 356.79 417.47 356.9 416.81 353.07 422.81 353.2 422.41 356.79 Z"/>
<path d="M 367.2 342.62 370.17 342.36 371.11 344.67 367.84 345.82 367.2 342.62 Z"/>
<path d="M 303.74 358.16 300.43 358.61 290.1 358.01 287.26 355.68 293.16 351.75 302.52 349.69 304.21 350.27 303.74 358.16 Z"/>
<path d="M 702.87 79.05 706.23 82.47 704.81 86.83 701.39 92.77 697.84 80.41 699.13 78.55 702.87 79.05 Z"/>
<path d="M 525.62 238.96 529.91 241.5 527.41 243.62 524.01 241.22 525.62 238.96 Z"/>
<path d="M 493.54 272.83 493.65 265.45 498.7 265.96 496.17 272.89 493.54 272.83 Z"/>
<path d="M 211.46 170.62 213.72 170.6 215.69 173.23 214.75 175.31 211.24 178.02 208.51 177.68 207.2 174.75 211.46 170.62 Z"/>
<g/>
<path d="M 30.87 207.08 33.99 206.93 39.47 209.64 39.59 213.11 37.03 214.56 33.54 214.52 29.42 210.71 30.87 207.08 Z"/>
<path d="M 79.38 425.64 83.36 424.29 88.56 424.76 89.9 427.46 83.21 429.53 78.32 428.44 79.38 425.64 Z"/>
<g/>
<path d="M 110.64 422.05 105.11 422.45 105.28 418.76 111.09 418.28 110.64 422.05 Z"/>
<path d="M 46.84 401.61 49.09 399.75 54.82 400.52 55.84 402.48 51.8 403.4 46.84 401.61 Z"/>
<path d="M 48.25 417.64 48.12 413.52 49.94 413.15 53.21 417.37 48.25 417.64 Z"/>
<path d="M 14.19 368.74 10.64 366.71 14.09 365.15 14.19 368.74 Z"/>
<path d="M 20.2 362.14 17.42 358.91 19.13 356.34 31.49 355.08 31.49 352.92 37.07 353.41 37.03 358.44 35.06 360.51 26.87 362.2 20.2 362.14 Z"/>
<path d="M 300.08 365.81 293.07 365.07 293.61 363.23 300.36 364.13 300.08 365.81 Z"/>
<path d="M 295.29 365.79 295.57 368.36 290.87 369.68 290.93 365.75 295.29 365.79 Z"/>
<path d="M 286.14 326.64 287.06 326.62 295.87 327.05 300.58 328.55 301.62 328.74 301.75 329.83 301.6 330.49 297.63 331.9 297.05 332.03 296.53 332.14 295.68 332.07 294.95 331.93 286.51 331.86 286.1 331.9 285.2 331.69 284.78 331.58 283.83 331.95 283.26 331.97 282.66 332.01 281.91 331.93 280.14 331.24 278.36 331.03 274.92 329.79 274.19 329.77 272.07 328.23 271.39 328.12 271.11 328.5 270.83 328.89 270.68 328.53 270.41 327.84 270.15 327.48 269.47 327.41 269.74 325.55 270.15 325.75 270.47 325.47 270.58 324.33 270.56 324.12 270.56 324.04 270.54 323.82 270.94 323.76 271.24 323.69 277.46 323.12 280.76 323.86 281.91 324.23 285.42 325.94 285.48 326.17 286.14 326.64 Z"/>
<g/>
<path d="M 579.01 185.76 577.45 182.15 580.46 181.98 584.27 185.16 579.01 185.76 Z"/>
<path d="M 576.03 182.1 569.98 185.7 569.94 182.72 573.55 179.07 576.03 182.1 Z"/>
<path d="M 484.63 25.04 487.54 27.5 486.21 30.19 480.01 29.72 484.63 25.04 Z"/>
<path d="M 366.07 732.53 365.83 729.09 370.51 729.26 372.08 733.15 366.07 732.53 Z"/>
<path d="M 285.14 907.58 289.31 910 286.4 910.96 285.14 907.58 Z"/>
<path d="M 339.04 866.98 339.13 867.19 335.6 868.02 330 865.89 328.78 865.2 324.93 864.35 325.38 863.53 325.64 863.75 326.49 863.73 326.6 863.51 331.96 854.96 337.44 855.64 339.08 856.37 339.9 856.52 341.76 856.58 343.49 857.25 343.85 858.27 344.28 858.89 344.79 859.64 345.18 859.9 345.61 859.88 345.99 859.41 346.27 859.3 346.61 859.15 347.66 858.83 348.62 858.62 348.81 858.36 350.91 857.78 352.13 857.52 352.38 858.08 351.89 858.21 351.16 858.79 350.89 859.02 350.22 859.24 349.84 859.83 349.65 860.01 349.07 860.48 348.6 860.71 348.43 861.12 348.81 861.89 350.29 862.83 350.89 862.83 351.96 863.13 352.23 863.34 353.32 863.43 353.79 863.55 354.16 863.68 354.99 863.98 355.76 864.07 356.25 864.56 356.72 864.84 357.32 864.86 357.52 864.77 358.11 864.73 358.54 864.79 359.38 864.9 359.44 865.56 359.72 865.76 359.87 865.86 360.14 866.29 361.3 867.06 362.65 867.64 363.18 867.85 363.61 868.15 364.34 868.28 365.32 868.49 365.73 868.62 366.17 868.77 366.86 869.5 367.05 869.78 367.35 870.12 367.69 870.48 367.56 870.8 366.82 870.59 365.73 870.7 364.38 870.67 362.9 870.78 361.6 871.04 360.89 871.1 360.34 871.04 358.67 870.61 357.9 870.33 357.04 870.16 356.04 869.73 355.85 869.8 353.52 869.61 353.43 868.88 352.98 868.39 352.88 867.64 353.11 867.3 351.87 867.06 351.68 866.98 351.42 866.87 350.57 866.98 350.5 867.21 349.01 868.02 348.17 867.81 346.52 867.53 345.22 867.57 343.72 867.57 343.02 867.83 342.18 867.32 341.69 867.06 340.97 866.91 340.32 866.93 339.04 866.98 Z"/>
<path d="M 503.89 680.44 498.12 678.37 500.58 673.86 502.44 674.97 503.89 680.44 Z"/>
<path d="M 117.06 762.14 119.69 764.43 117.25 765.91 114.45 765.54 114.45 762.89 117.06 762.14 Z"/>
<path d="M 545.82 258.29 546.29 252.81 548.45 249.65 555.19 249.26 555.32 252.39 549.26 259.61 545.82 258.29 Z"/>
<path d="M 573.34 206.89 571.07 208.19 563.74 207.85 561.17 203.17 562.24 202.4 577.68 202.37 578.28 203.51 573.34 206.89 Z"/>
<path d="M 285.78 20.46 286.14 25.44 280.8 26.34 277.23 24.52 277.83 21.96 285.78 20.46 Z"/>
<g/>
<path d="M 701.82 922.91 702.72 925.97 704.88 927.78 704.73 931.27 700.11 931.53 697.82 930.35 697.46 927.51 700.67 926.14 701.82 922.91 Z"/>
<g/>
<path d="M 86.65 464 84.52 465.5 84.37 469.09 90.87 477.51 85.69 479.46 79.43 472.47 78.21 467.51 79.47 464.19 86.65 464 Z"/>
<path d="M 80.37 782.43 83.51 783.48 83.21 786.35 80.6 787.86 78.81 791.58 72.24 785.88 73.95 783.46 80.37 782.43 Z"/>
<g/>
<path d="M 384.76 175.56 385.67 179.77 384.11 180.72 379.39 178.81 378.7 176.48 384.76 175.56 Z"/>
<path d="M 685.06 69.15 684.59 72.55 680.7 74.98 679.56 69.1 677.64 63.52 685.51 63.25 685.06 69.15 Z"/>
<path d="M 686.06 47.23 686.55 46.78 685.21 45.05 687.79 38.46 689.33 37.5 700.97 42.95 699.3 49.01 698.79 49.09 697.69 51.14 693.97 51.36 692.84 55.06 691.9 54.63 685.91 54.33 683.33 51.55 684.33 46.87 686.06 47.23 Z"/>
<path d="M 692.37 65.85 692.31 69.81 688.78 70.43 685.29 69.27 688.18 63.74 690.87 63.18 692.37 65.85 Z"/>
<path d="M 674.97 111.7 678.6 109.75 681.38 109.75 677.13 116.55 668.19 116.55 669.04 114.65 674.97 111.7 Z"/>
<path d="M 681.92 112.02 683.71 110.95 690.6 110.37 691.17 111.85 688.42 116.55 680.35 116.74 679.84 114.95 681.92 112.02 Z"/>
<path d="M 600.54 189.72 603.21 189.91 606.22 193.18 598.91 196.56 595.3 195.92 599.4 192.33 600.54 189.72 Z"/>
<path d="M 437.08 299.53 445.97 299.3 445.91 302.78 437.03 302.72 437.08 299.53 Z"/>
<g/>
<path d="M 306.78 405.86 310.13 406.12 315.99 404.56 319.93 404.75 321.1 406.12 317.27 408.98 311.74 409.33 306.78 405.86 Z"/>
<path d="M 165.23 443.32 170.81 443.62 170.13 446.38 165.23 443.32 Z"/>
<g/>
<path d="M 694.47 17.94 700.47 12.37 701.46 14 698.74 18.52 694.47 17.94 Z"/>
<path d="M 692.14 31.88 705.99 31.69 706.53 35.02 702.63 37.29 692.16 32.93 692.14 31.88 Z"/>
<path d="M 680.18 33.1 678.37 32.01 683.41 22.06 685.36 19.63 691.32 18.9 690.79 23.3 689.53 24.67 688.97 29.12 686.13 33.95 680.18 33.1 Z"/>
<g/>
<path d="M 275.71 628.85 281.85 628.4 288.62 630.71 282.7 632.04 278.13 631.95 275.71 628.85 Z"/>
<path d="M 434.47 379.03 438.91 379.05 440.41 380.55 438.14 382.81 434.47 379.03 Z"/>
<path d="M 298.78 838.54 298.2 838.45 297.8 838.56 296.34 838.56 294.4 838.47 293.9 838.45 293.03 838.15 292.64 835.89 292.71 835.4 293.29 834.35 293.41 833.58 293.69 833.26 294.57 832.96 294.25 831.95 295 830.95 295.12 830.78 295 830.33 294.95 830.16 294.4 829.81 294.12 830.09 294.63 830.39 294.2 830.76 293.93 830.97 293.73 831.67 293.35 830.28 293.05 829.79 292.81 829.41 293.01 828.66 292.6 827.76 292.28 827.51 292.15 826.18 292.11 825.86 291.47 825.09 291.38 824.98 291.32 824.23 291.51 823.72 292.19 822.84 293.71 822.97 299.19 822.91 299.72 822.72 299.96 822.33 299.85 821.48 299.74 820.58 299.83 819.23 299.98 818.46 299.83 815.9 299.81 815.47 301.5 815.06 303.06 815.13 304.96 815.06 305.66 815.19 308.15 814.98 310.09 815.02 312.29 815.08 312.57 815.06 313.04 816.49 313.04 817.46 312.53 819.21 312.55 819.59 312.49 820.41 312.23 820.81 312.12 821.35 311.69 821.73 311.22 822.44 311.01 822.52 310.6 822.69 310.65 823.29 310.05 823.44 310.33 823.21 310.45 823.1 310.18 822.52 310.3 822.03 310.03 821.82 309.53 822.07 309.3 822.46 308.64 822.69 308.29 822.61 308.21 822.59 307.59 822.8 307.31 822.89 307.1 822.95 306.46 823.06 305.96 823.25 305.32 823.51 304.98 823.91 304.72 823.98 304.36 824.04 303.8 824.36 304.06 827.29 305 828.3 305.9 829.3 306.46 830.14 305.92 830.5 305.73 830.52 305.47 830.69 305.17 830.88 304.7 830.91 304.34 830.91 304.13 831.16 304.04 831.74 302.84 834.78 302.63 835.63 302.78 836.36 303.31 836.81 298.78 838.54 Z"/>
<path d="M 210.3 965.61 213.64 967.66 212.93 973.65 208.51 976.64 205.75 981.71 204.62 968 209.53 965.65 210.3 965.61 Z"/>
<path d="M 198 985.64 197.37 982.24 197.6 976.88 196.56 974.18 197.88 970.74 202.99 969.07 204.89 971.77 203.63 979.21 202.61 979.83 202.27 985.64 198 985.64 Z"/>
<g/>
<g/>
<path d="M 297.43 868.52 300.75 865.24 303.61 867.02 300.7 868.96 297.43 868.52 Z"/>
<path d="M 287.13 864.07 290.1 861.42 293.01 865.61 291.85 866.68 287.13 864.07 Z"/>
<path d="M 285.74 861.67 286.12 859.36 283.66 852.56 284.52 846.45 291.85 846.02 293.26 846.98 290.53 850.49 288.75 858.34 289.44 859.98 285.74 861.67 Z"/>
<path d="M 731.69 332.29 726.6 338.17 722.52 337.93 718.14 341.05 711.44 339.96 707.83 333.46 710.18 332.4 715.87 334.77 719.03 332.97 731.69 332.29 Z"/>
<g/>
<path d="M 674.03 328.12 669.81 331.48 667.35 329.27 671.93 327.14 674.03 328.12 Z"/>
<path d="M 676.83 327.73 680.57 323.33 682.75 323.01 685.83 324.98 684.42 327.18 685.31 331.56 688.42 333.57 688.61 338.25 686.62 338.77 685.89 334.34 682.06 335.03 680.67 332.78 676.78 330.56 676.83 327.73 Z"/>
<path d="M 341.54 578.28 346.61 577.13 348.68 577.58 346.91 581.4 344.09 581.51 341.54 578.28 Z"/>
<g/>
<path d="M 39.98 748.61 42.35 748.31 44.79 752.67 46.48 760.67 42.99 761.03 40.38 757.87 38.91 751.07 39.98 748.61 Z"/>
<path d="M 47.14 749.16 53.13 752.86 53.28 756.09 50.99 762.74 48.45 762.48 46.26 756.69 45.24 751.62 47.14 749.16 Z"/>
<path d="M 683.07 108.36 679.86 108.47 674.88 107.25 674.45 104.73 681.06 102.05 683.82 104.85 683.07 108.36 Z"/>
<path d="M 575.97 187.62 577.68 187.45 585.16 187.49 585.81 192.54 585.08 194.12 580.33 194.16 579.05 194.14 566.75 194.78 565.11 194.78 561.99 193.74 562.09 190.04 564.81 189.8 566.09 189.52 568.32 187.56 575.97 187.62 Z"/>
<path d="M 492.28 158.31 495.13 158.54 493.35 163.18 489.65 160.79 492.28 158.31 Z"/>
<g/>
<path d="M 717.32 713.93 717.58 713.91 718.82 717.78 718.61 718.1 718.14 718.37 718.2 718.65 717.71 719.1 716.83 719.08 716.81 719.42 717.41 721.45 717.13 721.8 716.96 722.01 716.81 722.44 716.45 722.91 715.06 723.44 714.78 723.57 714.56 723.85 714.39 724.06 713.67 724.55 713.35 724.7 713.15 724.79 712.17 725.34 711.61 725.52 711.36 725.54 710.5 725.6 709.69 725.92 709.73 726.03 709.82 726.31 709.9 726.58 710.14 726.86 709.63 727.18 709.28 727.59 708.94 728 708.04 728.92 707.81 729.09 707.47 729.32 706.82 729.41 706.14 729.32 705.11 729.19 704.92 729.17 704.09 729.26 703.79 729.3 703.49 729.32 703 729.36 702.38 729.39 702.18 729.36 700.99 729.34 700.77 729.34 700.6 729.39 700.58 729.39 699.7 729.6 699.47 730.13 698.85 730.24 698.83 730.05 698.38 729.75 698.14 729.26 698.04 729.19 697.72 729.02 696.8 728.85 696.18 728.64 695.6 728.44 695.17 728.42 695.04 728.87 695.28 729.17 695.3 729.21 694.06 729.47 693.93 729.69 694.06 730.24 694.36 730.43 694.72 731.25 694.36 730.69 693.65 730.09 693.03 729.88 691.96 729.6 691.77 729.54 690.38 729.39 689.68 729.26 688.76 728.94 688.44 728.81 687.84 728.34 687.07 727.97 686.58 727.82 686.13 727.7 685.55 727.61 682.26 724.83 682.24 724.51 682.28 724.28 682.32 723.89 682.34 723.74 682.13 722.82 682 722.56 681.96 722.48 681.42 721.47 681.36 721.35 681.19 721.03 680.01 719.96 679.84 719.87 678.92 719.59 678.15 719.51 678.07 719.79 678 720 677.92 720.28 677.83 720.53 674.22 721.32 673.92 721.3 673.81 721.35 671.25 721.97 670.69 722.14 666.93 723.44 665.79 723.08 664.17 721.77 663.85 721.47 663.25 721.18 659.34 720.06 658.59 719.76 654.65 715.77 655 715.25 654.53 715 654.55 713.11 654.87 712.71 654.93 712.64 655.12 712.39 655.51 712.22 655.66 712.15 655.77 712.11 655.92 712.05 656.83 711.98 657.75 711.92 657.75 711.64 656.62 711.66 655.38 710.85 655.38 709.93 655.92 708.47 656.28 707.41 656.45 706.94 656.32 706.53 656.19 706.12 658.93 704.67 666.95 700.52 680.25 693.74 683.22 692.67 691.49 688.08 692.91 688.29 693.03 688.31 695.32 688.74 695.43 688.72 695.54 688.72 696.28 688.61 696.33 688.61 696.48 688.59 697.31 688.27 697.95 687.82 698.55 687.65 698.83 687.56 699.28 687.44 699.98 687.35 702.8 689.45 702.61 689.4 702.63 689.68 703.1 689.74 704.79 690 705.16 690.09 706.48 690.88 706.85 691.16 707.66 693.85 707.4 694.6 707.08 695.3 706.91 695.65 706.7 695.92 706.33 696.37 705.76 697.1 705.39 697.48 704.92 697.93 704.88 698 704.64 698.23 704.43 698.57 703.94 699.41 703.68 699.54 703.42 699.64 703.19 699.75 703.04 699.82 702.98 699.96 703.19 700.35 703.79 701.44 705.58 704.63 705.71 705.48 705.88 705.89 706.23 706.68 706.42 706.85 706.57 707 706.87 707.38 706.91 707.47 707.36 708.07 707.79 708.52 708.56 709.14 708.77 709.27 709.2 709.52 709.8 709.78 712.55 711 712.9 711.23 713.11 711.38 713.3 711.4 714.18 711.77 714.5 712.11 714.54 712.15 714.63 712.24 715.06 712.32 715.38 712.71 715.59 712.82 715.87 712.96 715.95 713.16 716.04 713.31 716.23 713.46 716.55 713.71 716.64 713.78 717.32 713.93 Z"/>
<path d="M 90.63 237.16 94.95 236.26 100.3 238.49 95.63 240.69 91.49 239.15 90.63 237.16 Z"/>
<g/>
<g/>
<path d="M 16.18 348.26 20.93 350.46 17.85 352.07 16.18 348.26 Z"/>
<path d="M 728.72 347.26 724.93 349.01 722.75 347.68 727.69 345.78 728.72 347.26 Z"/>
<path d="M 683.24 357.09 681.44 360.85 677.06 358.84 678.84 357.11 683.24 357.09 Z"/>
<path d="M 736.42 325.6 739.43 326.15 737.64 329.27 733.17 332.65 731.05 329.36 733 326.92 736.42 325.6 Z"/>
<path d="M 590.08 232.14 598.25 231.69 597.93 234.9 592.2 234.55 590.08 232.14 Z"/>
<g/>
<path d="M 674.86 256.19 674.82 253.93 679.09 251.42 683.3 251.92 687.67 254.46 687.92 255.04 691 256.62 691.22 257.26 691.62 257.6 693.29 259.19 697.07 266.18 696.86 266.03 694.17 265.49 690.83 265.45 689.29 266.01 680.29 265.45 675.18 257.73 674.86 256.19 Z"/>
<path d="M 674.94 289.46 677.62 290.36 676.53 292.6 673.62 291.75 674.94 289.46 Z"/>
<path d="M 675.09 289.01 676.21 286.87 679.11 287.75 678 290 675.09 289.01 Z"/>
<path d="M 651.72 122.17 648.39 121.47 654.48 115.46 658.29 110.13 660.6 114.05 657.11 118.75 651.72 122.17 Z"/>
<path d="M 667.25 117.3 676.01 117.25 676.87 120.33 674.62 122.84 670.16 121.79 667.27 122.88 667.25 117.3 Z"/>
<g/>
<path d="M 584.18 196.3 583.18 198.76 579.88 201.69 562.37 201.93 559.98 201.63 558.37 198.55 563.87 198.29 565.6 196.58 571.82 195.92 583.47 195.77 584.18 196.3 Z"/>
<path d="M 640.76 37.01 634.3 36.52 635 33.65 639.96 34.64 640.76 37.01 Z"/>
<path d="M 642.44 102.5 644.56 103.06 643.3 106.29 638.04 110.61 634.9 111.29 627.71 114.41 631.71 108.23 631.45 102.5 642.44 102.5 Z"/>
<path d="M 611.66 515.42 615.95 513.97 615.65 517.67 612.25 517.73 611.66 515.42 Z"/>
<g/>
<path d="M 676.91 33.01 679.93 34.23 680.48 36.11 684.48 36.8 683.26 42.06 680.46 42.42 677.62 45.71 677.96 47.85 670.07 44.86 671.52 41.14 675.42 40.05 676.91 33.01 Z"/>
<path d="M 702.06 21 703.62 19.39 709.9 18.73 715.1 18.81 714.09 22.53 713.58 23.01 713.45 23.6 713.56 27.56 711.64 31.71 706.74 31 696.09 31.07 694.66 30.13 697.46 24.5 702.06 21 Z"/>
<g/>
<path d="M 632.44 546.34 631.95 549.95 633.17 554.89 629.92 557.99 618.54 557.82 617.81 552.11 623.8 547.77 629.77 547.36 632.44 546.34 Z"/>
<g/>
<g/>
<g/>
<g/>
<path d="M 266.9 84.99 271.52 84.28 272.27 88.28 266.9 84.99 Z"/>
<g/>
<g/>
<path d="M 639.52 111.72 646.36 106.22 647.17 102.95 651.21 103.36 657.99 105.39 652.86 106.91 649.42 109.75 645.93 110.01 639.52 111.72 Z"/>
<path d="M 621.56 123.03 625.9 116.85 634.73 113.11 635.5 118.05 639.47 118.75 639.62 121.66 631.05 122.77 621.56 123.03 Z"/>
<g/>
<path d="M 642.02 147.98 642.21 147.04 646.61 145.41 648.24 145.35 649.42 145.01 651.02 144.35 653.03 143.36 654.03 142.74 655.19 142.04 655.85 141.5 656.73 140.11 661.3 139.04 663.66 138.81 666.5 137.99 667.61 137.33 668.68 136.13 673.3 135.43 668.96 141.31 667.55 143.1 664.36 147.36 653.67 147.51 649.39 149.43 646.93 150.01 642.85 150.31 642.02 147.98 Z"/>
<path d="M 654.12 129.96 659.31 129.83 660.13 132.09 654.93 131.75 654.12 129.96 Z"/>
<path d="M 652.73 129.51 654.74 131.86 660.66 133.8 654.78 137.46 653.2 133.5 651.04 132.48 652.73 129.51 Z"/>
<path d="M 667.87 126.17 671.16 127.3 670.56 129.91 667.67 132.39 661.94 132.24 667.87 126.17 Z"/>
<g/>
<path d="M 91.14 404.88 94.09 408.09 91.1 408.96 85.41 408.36 86.18 406.48 91.14 404.88 Z"/>
<path d="M 144 598.77 148.32 600.11 149.75 602.17 143.49 601.95 139.02 599.26 140.34 597.74 144 598.77 Z"/>
<g/>
<path d="M 263.5 859.34 264.06 859.11 264.23 852.69 274.34 847.67 280.76 848.57 280.43 853.95 281.7 861.01 280.01 862.74 258.43 865.78 257.32 865.2 257.24 864.52 257.28 862.06 259.89 858.17 263.5 859.34 Z"/>
<path d="M 298.63 846.9 298.5 847.13 297.67 849.34 293.39 853.27 291.72 852.48 294.03 847.67 298.63 846.9 Z"/>
<g/>
<path d="M 18.58 68.03 20.31 64.61 24.54 64.74 25.74 67.09 20.05 70.32 18.58 68.03 Z"/>
<g/>
<g/>
<path d="M 514.18 726.84 520.14 728.06 517.75 729.79 513.81 729.19 514.18 726.84 Z"/>
<g/>
<g/>
<path d="M 456.98 297.35 458.26 295.77 461.9 295.83 462.03 298.01 456.98 297.35 Z"/>
<g/>
<path d="M 219.37 388.89 221.49 388.86 221.66 393.25 218.68 393.14 219.37 388.89 Z"/>
<g/>
<g/>
<g/>
<g/>
<path d="M 687.67 97.28 688.52 93.65 695.39 92.58 696.01 101.52 693.25 105.28 687.88 105.84 687.67 97.28 Z"/>
<path d="M 691 75.97 695.13 69.45 695.9 77.66 690.42 77.74 691 75.97 Z"/>
<path d="M 688.52 81.68 689.98 78.6 695.17 78.53 695.62 79.77 695.62 89.35 694.79 91.28 687.94 92.82 682.26 92.56 685.34 88.03 688.52 81.68 Z"/>
<path d="M 70.36 426.37 56.96 429.36 56.46 428.14 63.26 427.63 70.36 426.37 Z"/>
<path d="M 481.04 332.8 477.79 333.02 473.49 329.7 475.39 326.11 477.25 319.8 479.05 316.38 483.58 315.59 484.48 317.88 481.04 332.8 Z"/>
<g/>
<path d="M 631.6 585.77 630.54 583.61 624.29 583.82 617.83 579.84 619.42 577.47 623.46 577.11 632.14 579.22 635.35 583.31 634.64 585.87 631.6 585.77 Z"/>
<path d="M 475.48 112.89 477.27 117.34 474.02 118.43 468.76 117.96 467.07 114.6 473.57 112.47 475.48 112.89 Z"/>
<g/>
<path d="M 207.76 50.14 207.91 51.74 200.36 52.98 200.7 49.5 204.36 48.92 207.76 50.14 Z"/>
<path d="M 82.4 645.98 87.02 646.15 91.29 649.12 88.15 650.98 84.79 649.25 82.4 645.98 Z"/>
<g/>
<path d="M 107.54 811.85 110.2 815.42 108.14 816.45 105.06 814.89 107.54 811.85 Z"/>
<g/>
<path d="M 245.43 454.1 250.01 454.08 250.03 457.5 245.43 456.9 245.43 454.1 Z"/>
<path d="M 16.63 278.71 13.47 282.38 10 281.16 10 277.99 16.63 278.71 Z"/>
<g/>
<g/>
<path d="M 241.54 873.37 243.62 873.24 244.81 876.32 240.26 876.85 239.43 874.65 241.54 873.37 Z"/>
<path d="M 667.93 272.87 669.73 269.13 672.08 272.72 667.93 272.87 Z"/>
<g/>
<g/>
<g/>
<path d="M 712.9 90.98 714.27 89.25 718.37 91.28 713.97 92.92 712.9 90.98 Z"/>
<path d="M 142.72 544.01 140.66 539.03 143.68 538.66 142.72 544.01 Z"/>
<g/>
<g/>
<path d="M 693.57 819.94 701.76 819.4 701.52 821.48 695.11 821.45 693.57 819.94 Z"/>
<path d="M 775.78 370.88 769.54 371.22 771.05 368.87 775.78 370.88 Z"/>
<path d="M 642.4 352.07 633.81 348.45 628.29 347.9 628.7 342.89 636.37 343.71 635.2 346.19 638.47 348.05 642.4 352.07 Z"/>
<g/>
<g/>
<g/>
<g/>
<g/>
<path d="M 631.71 162.05 634.73 157.92 638.9 156.38 645.14 160.36 638.32 165.34 631.71 162.05 Z"/>
<path d="M 786.49 903 785.12 915.15 781.64 915.7 781.42 905.65 783.07 902.23 786.49 903 Z"/>
<path d="M 275.9 44.34 281.63 44.6 279.94 46.95 277.4 46.8 275.9 44.34 Z"/>
<path d="M 317.87 56.55 315.52 56.23 314.82 52.75 318.09 51.1 322.73 52.85 321.77 56.42 317.87 56.55 Z"/>
<path d="M 233.69 947.28 233.91 951.28 228.86 950.64 229.87 948.14 233.69 947.28 Z"/>
<g/>
<path d="M 608.77 176.95 605.41 178.45 605.11 182.06 600.75 185.48 590.4 183.67 589.31 178.92 591.79 174.26 594.4 171.95 607.46 172.06 612.7 172.55 612.36 174.9 608.77 176.95 Z"/>
<path d="M 611.04 147.17 610.46 145.35 612.57 142.55 617.68 139.02 618.6 135.81 616.47 132.76 624.36 133.5 628.72 132.86 634.43 130.45 641.74 129.85 647.79 130.58 644.69 134.87 639.41 137.42 637.68 140.2 634.6 142.38 635.37 144.2 632.03 147.34 613.75 147.42 611.04 147.17 Z"/>
<path d="M 605.18 160.04 605.41 157.88 603.64 155.01 603.19 149.54 612 149.8 631.11 149.33 628.57 153.22 624.95 155.42 623.86 158.09 619.05 156.73 615.27 158.01 613.24 162.52 605.18 160.04 Z"/>
<path d="M 602.65 162.65 614.05 167.95 612.08 170.2 601.07 169.49 602.65 162.65 Z"/>
</g>
</svg>