<?xml version="1.0"?>
<svg xmlns="http://www.w3.org/2000/svg" version="1.2" baseProfile="tiny" width="800" height="435" viewBox="0 0 800 435" stroke-linecap="round" stroke-linejoin="round">
<defs>
    <style>
        :root {
            --water-color: #9FC9EA;
            --bg-color: #F2E7D3;
        }
    
        svg {
            background: var(--bg-color, #ffffff);
        }
        path, polygon, rect, circle {
            fill: var(--water-color, #3b82f6);
            stroke: none;
        }
    </style>
</defs>
<g id="water">
<path d="M 286.53 24.06 287.22 24.3 286.53 24.08 286.53 24.06 Z"/>
<path d="M 274.63 233.32 275.91 232.51 277.03 233.79 280.47 234.83 284.14 237.5 288.56 239.23 290.72 240.83 291.27 243.43 289.85 244.68 286.23 244.8 283.04 245.6 282.17 246.29 283.98 247.67 286.65 247.91 294.64 251.46 294.59 255.06 293.48 257.51 291.17 258.45 291.79 259.5 289.79 260.38 288.31 264.37 286.89 266.8 287.38 267.76 289.55 268.57 294.22 267.64 296.06 268.29 301.66 268.5 303.51 270.56 302.52 271.69 300.53 271.98 299.01 273.23 295.54 274.98 294.23 276.66 295.27 277.74 301.08 278.91 301.85 279.85 301.49 281.5 298.66 282.62 298.69 285.25 300.67 287.38 302.71 287.99 304.32 287.52 305.66 289.23 307.93 289.04 309.37 291.24 309.38 294.6 310.44 297 312.01 298.08 314.9 298.74 316.43 299.77 314.93 301.93 317.42 302.41 319.3 306.36 321.1 308.4 323.19 306.74 325.35 306.12 326.78 303.68 329.46 302.73 330.95 302.99 331.7 303.87 330.72 305.4 330.99 307.86 330.28 309.15 327.35 310.37 326.4 312.91 327.23 313.9 330.86 313.13 334.07 313.65 335.64 312.43 337.7 311.91 338.52 310.18 341.01 309.63 342.25 310.31 343.46 312.79 345.45 314.47 345.65 316.32 343.18 317.83 352.07 322.85 352.6 323.99 351.85 327.37 356.06 328.8 358.51 331.25 360 330.76 361.4 331.39 361.73 333.46 362.56 333.56 364.57 332.61 367.12 333.24 368.73 331.23 369.91 331.41 370.74 333.13 372.14 333.63 372.2 335.17 369.62 335.65 368.69 336.89 366.17 337.08 366.43 338.56 368.2 341.01 370.46 341.92 371.2 344.48 374.39 343.66 375.87 344.01 376.45 345.12 380.75 342.96 382.75 343.53 383.88 346.19 384.19 348.4 383.38 352.06 384.45 353.92 387.38 355.52 389.35 354.95 390.58 352.58 392.81 352.65 394.9 354.42 395.37 356.2 394.79 359.91 391.01 360.72 388.39 361.81 387.84 363.26 389.06 365.06 391.12 366.3 395.02 366.84 398.97 365.74 402.03 365.62 406.15 363.25 409.33 362.93 411.66 364.63 411.87 367.01 410.89 369.22 414.27 372.01 417.93 373.23 421.33 372.09 423.45 371.81 425.82 370.13 431.15 369.33 432.87 370.04 433.39 371.77 431.77 373.43 433.09 374.09 434.84 372.84 437.68 373.34 437.26 371.1 434.93 371.15 434.66 368.15 433.46 365.87 431.89 364.18 428.81 365.03 428.02 364.28 431.75 362.93 434.19 363.53 436.39 365.66 437.19 369.24 439.18 370.08 440.29 373.23 443.36 374.86 449.45 374.61 451.84 376.56 453.15 375.97 456.41 376.08 459.62 377.19 461.31 378.29 461.38 380.53 464.5 382.69 467.71 383.4 470.96 385.51 472.08 387.05 470.45 390.55 471.38 394.37 473.26 395.83 476.94 396.26 478 397.14 478.51 399.19 482.49 400.45 485.68 399.18 487.38 400.52 487.98 402.3 487.78 404.16 490.86 404.87 490.37 406.52 492.95 408.44 494.27 408.49 494.53 410.35 491.43 410.3 490.56 410.92 491.75 412.68 494.4 413.45 497.72 411.99 497.52 413.72 495.91 414.47 495 416.77 495.54 417.88 500.4 419.29 503.16 417.39 505.67 418.69 506.38 421.78 505.4 424.27 504.13 423.62 505.84 421.03 505.45 419.05 503.64 417.71 500.78 419.54 498.53 419.52 493.93 417.43 494.21 415.83 495.79 413.82 491.81 413.18 490.05 411.16 490.34 410.1 493.8 410.14 491.32 407.57 488.51 408.41 487.59 406.53 485.93 404.77 487.22 403.88 487.47 401.74 485.96 399.61 482.8 400.84 478.02 399.14 478.06 397.56 476.09 396.41 473.27 396.34 471.57 395.21 470.54 393.62 468.4 392.27 466.8 386.06 465.65 384.96 460.93 384.08 454.58 379.99 448.9 377.39 445.77 376.74 443.26 377.53 438.79 375.64 436.2 376.48 432.5 377.03 430.68 374.69 432.75 371.92 431.71 369.87 426.22 370.55 423.76 372.3 418.99 373.52 416.37 373.48 413.56 372.16 410.47 369.46 411.46 365.93 410.29 363.73 406.77 363.45 402.76 365.81 398.84 366.25 394.78 367.23 392.58 367.12 389.28 365.83 387.41 363.85 387.48 362.51 388.67 361.1 391.56 360.11 394.44 359.76 394.59 354.83 391.47 352.69 389.15 355.49 387.25 355.85 385.01 354.98 382.75 352.06 383.76 348.89 382.77 344.28 380.68 343.41 376.97 345.66 376.17 345.58 375.47 344.12 370.81 344.69 370.27 342.25 366.88 340.57 365.74 336.96 368.25 336.68 369.72 335.3 371.49 335.23 372.14 334.05 370.09 333.16 368.75 331.66 367.19 333.59 364.66 333.08 361.87 333.95 361.27 333.24 361.4 332.14 360.08 331.2 358.48 331.62 355.64 328.88 352.79 328.17 351.29 327.01 351.99 324.15 351.61 322.95 349.2 322.25 345.22 319.53 343.26 319.01 342.85 317.13 345.18 316.1 345.15 314.88 342.82 312.9 341.84 310.49 338.61 310.46 338.61 313.6 333.58 313.94 331.51 313.53 327.35 314.28 325.97 312.59 326.69 310.46 329.73 309.16 330.54 307.89 330.31 305.17 331.31 304.18 330.84 303.33 328.71 303.16 327.19 303.84 325.77 306.05 321.84 308.59 320.27 308.34 318.8 306.32 317.33 302.97 315.71 302.76 314.34 301.61 315.91 300.52 315.77 299.53 311.58 298.82 310.02 297.21 308.64 293.38 309.1 292.56 307.95 289.83 304.88 289.31 300.51 287.85 297.98 285.25 297.63 283.44 298.99 281.95 301.08 281.2 301.42 279.82 299.92 279 295.45 278.21 293.71 277.14 295.05 274.78 298.45 273.07 299.57 271.97 303.02 271.06 301.01 268.7 296.19 268.71 294.56 268.18 289.23 268.9 286.87 267.8 286.35 266.32 288.16 263.62 288.32 261.76 291.24 257.49 292.47 257.49 294.05 255.57 293.44 253.55 294.24 251.97 287.16 248.44 283.99 248.04 282.08 247.05 281.66 246.01 282.47 245.28 284.92 244.51 290.06 244.2 290.85 242.68 290.16 240.85 285.65 238.36 282.64 237.27 280.46 235.48 274.63 233.32 Z M 447.83 375.6 447.08 376.75 451.46 377.25 450.04 375.29 447.83 375.6 Z M 439.22 372.71 437.13 374.07 434.76 373.19 431.59 375.43 432.3 376.51 434.19 376.18 436.71 374.76 438.73 375.06 439.22 372.71 Z M 470.42 388.43 469.05 386.56 467.59 387.19 468.78 392.04 470.42 388.43 Z" fill-rule="evenodd"/>
<g/>
<g/>
<path d="M 607.55 425 607.34 422.83 609.55 422.69 609.32 421.45 609.71 420.59 609.82 419.62 638.53 425 607.55 425 Z"/>
<g/>
<path d="M 687.4 425 687.44 423.08 688.46 417.37 688.26 415.27 689.43 410.34 687.7 425 687.4 425 Z M 673.08 239.98 673.47 239.07 673.48 239.07 673.08 239.98 Z M 625.52 358.75 625.62 358.54 625.64 358.56 625.52 358.75 Z" fill-rule="evenodd"/>
<g/>
<g/>
<path d="M 286.53 24.06 286.53 24.08 286.07 24 286.53 24.06 Z"/>
<path d="M 564.71 107.21 566.97 107.9 566.88 109.06 564.38 108.94 564.71 107.21 Z"/>
<path d="M 314.91 28.48 316.12 28.36 318.05 29.14 318.85 29.73 320.1 29.46 321.88 30.7 325.45 31.53 326.33 32.3 327.16 33.63 326.8 34.51 329 35.93 330.51 38.26 331.57 38.13 331.94 38.35 332.95 38.1 333.4 38.36 332.77 39.06 334.33 39.07 335.83 39.95 336.22 41.36 341.55 40.8 343.34 39.67 348.68 39.58 349.27 39.81 349.67 40.38 350.71 40.22 351.44 39.74 354.34 39.74 356.65 40.64 359.17 40.57 364 43.18 364.36 43.97 361.31 42.71 360.01 41.2 358.22 41.28 353.67 39.75 349.92 40.52 349.43 40.39 349.09 39.85 344.38 39.67 343.75 39.71 341.58 40.92 336.07 41.43 335.72 40.07 334.34 39.19 332.8 39.15 332.61 38.76 332.89 38.55 332.75 38.25 332.32 38.44 331.88 38.43 331.65 38.25 330.25 38.32 328.37 35.67 326.64 34.51 326.11 32.29 325.42 31.65 324.02 31.7 321.17 30.53 320.14 29.57 319.38 29.86 318.8 29.86 318.41 29.56 316.13 28.47 314.93 28.7 314.91 28.48 Z"/>
<path d="M 286.81 26.06 285.6 25.11 285.64 24.71 285.71 24.13 286.02 24.02 286.07 24 286.53 24.08 287.22 24.3 289.49 25.52 290 25.98 290.2 26.01 290.54 25.71 291.99 25.58 292.42 25.42 295.84 26.31 296.25 26.6 296.43 26.41 296.88 26.27 297.04 26.23 297.7 26.25 297.74 26.68 297.52 26.76 297.2 27 296.94 27.64 296.51 28.38 296.65 28.54 297.03 28.48 297.34 28.2 298.5 26.69 298.68 26.86 298.77 26.96 298.99 27.31 298.6 28.38 298.42 28.71 298.5 28.82 299.16 28.87 299.8 29.32 300.2 29.53 300.75 29.23 301.65 29.07 303.25 29.48 303.85 29.77 304.53 29.88 305.76 30.61 306.42 30.56 308.06 29.8 308.62 29.65 309.35 29.62 310.09 30.15 310.72 30.36 311.38 30.2 312.78 30.23 312.73 30.09 312.61 28.39 313.15 28.63 314.73 28.44 314.78 28.46 314.79 28.46 314.91 28.48 314.93 28.7 314.82 29.05 315.02 30.08 314.75 31.27 313.95 31.54 311.82 31.82 310.77 31.9 308.62 33.13 305.94 32.49 304.32 31.35 303.49 31.35 301.29 30.76 299.04 31.35 298.26 31.86 296.63 31.46 295.98 31.24 295.13 31.2 293.43 29.21 291.92 28.87 286.81 26.06 Z M 287.22 25.75 287.73 25.94 288.31 26.02 288.52 25.91 288.31 25.66 287.07 25.2 286.93 24.99 286.85 24.87 287.07 24.73 287.02 24.45 286.5 24.38 286.27 25.15 286.58 25.34 286.98 25.59 287.22 25.75 Z" fill-rule="evenodd"/>
<path d="M 141.75 239.32 136.43 239.91 132.88 238.78 135.2 238.77 138.54 238.56 140.99 237.91 141.75 239.32 Z"/>
<path d="M 275.91 232.51 274.63 233.32 274.41 233.47 274.37 234.81 273.89 234.93 273.17 234.93 272.57 234.81 271.01 234.04 270.89 233.95 270.66 233.48 269.75 232.54 269.59 232.29 267.73 230.05 267.45 230 267.45 230.77 267.09 231.51 265.38 233.2 264.54 233.68 261.41 235.06 261.22 235.02 260.75 235.34 258.75 235.89 256.6 235.19 255.98 234.08 255.82 233.91 255.16 233.61 254.41 233.44 254.16 233.67 253.61 234.16 253.3 234.54 252.87 234.79 252.51 234.86 252.36 235.03 251.91 235.53 251.36 236.15 250.94 236.44 250.41 236.47 248.32 236.33 248.03 236.27 246 236.37 245.85 236.43 245.23 236.65 244.23 236.76 244.6 236.51 245.37 236.31 245.17 235.98 243.36 235.05 239.94 235.17 238.63 234.79 234.72 234.14 234.14 233.65 234.1 233.61 233.97 233.51 233.83 233.51 233.03 233.48 232.39 233.33 232.29 233.36 231.98 233.45 231.72 233.52 231.18 233.56 230.74 233.49 230.47 233.44 230.36 233.43 230.34 233.43 230.12 233.43 229.61 233.41 229.33 233.4 228.68 233.52 228.62 233.79 228.51 233.97 228.19 234.54 227.98 234.73 227.72 234.89 226.44 235.19 225.37 235.17 225.14 235.46 225.18 235.56 225.49 237 225.35 237.3 225.33 237.34 225.26 237.49 225.25 237.54 225.15 237.73 225.04 237.95 224.95 238.03 224.94 238.05 224.56 238.34 224.03 239.12 223.92 239.49 223.77 239.64 223.5 239.66 223.36 239.79 223.12 240.02 222.61 240.23 219.39 242.11 219.27 242.15 219.19 242.2 218.96 242.35 218.77 242.47 218.63 242.56 218.52 242.63 218.36 242.74 218.05 242.94 217.72 243.15 217.06 243.38 216.14 243.37 215.85 243.49 215.65 243.19 215.48 243.03 215.37 242.92 215.18 242.76 214.98 242.67 214.49 242.35 214.37 242.24 214.22 241.95 214.21 241.85 214.15 241.44 214.14 241.34 214.14 241.3 213.99 241.2 213.84 240.87 213.8 240.78 213.46 240.74 213.44 240.74 212.88 240.67 212.67 240.55 212.3 240.3 212.01 239.94 211.46 239.79 211.33 239.71 209.88 238.48 209.73 238.36 208.38 237.78 207.87 237.59 207.23 237.47 206.18 237.03 206.14 236.8 205.75 236.71 205.66 236.68 205.47 236.73 205.46 236.78 203.33 237.81 203.09 237.79 203.13 238.05 203.41 238.06 205.14 238.81 205.18 238.88 205.2 238.89 205.35 239.09 205.82 239.51 205.89 239.56 205.93 239.66 205.95 239.72 205.83 240.41 205.79 240.46 205.66 240.63 205.62 240.69 205.56 240.82 205.39 241.3 205.31 241.69 205.27 241.87 205.27 241.95 204.85 243.37 204.81 243.42 204.53 243.73 204.33 244.04 204.31 244.09 203.9 244.55 203.45 245.04 203.33 245.72 202 247.55 199.86 248.7 198.73 248.38 196.27 246.93 195.64 246.81 194.55 246.13 193.2 245.46 192.5 245.28 188.48 246.13 188.2 246.38 187.36 246.5 185.83 247.08 185.04 247.05 184.52 247.16 181.84 246.81 181.22 246.13 179.85 245.03 180.19 243.18 180.82 242.42 180.9 242.24 180.15 242.25 178.88 241.87 178.69 241.92 176.68 241.87 176.1 242.04 172.47 241.95 171.92 241.67 170.1 241.72 168.17 240.49 167.53 238.22 165.68 238.46 165.06 238.85 163.64 240.06 159.08 241.08 157.4 240.63 157.25 238.62 155.39 236.32 155.14 235.14 153.41 238.8 154.04 240.33 152.15 243.22 152.26 243.49 154 243.81 154.04 244.33 154.17 244.59 155.18 245.38 155.04 246.5 153.49 247.96 150.51 248.39 149.82 247.69 148.28 246.58 144.69 246.19 143.49 245.04 145.37 242.33 144.75 241.61 143.31 241.24 142.69 241.4 141.04 244.61 140.68 243.7 142.34 240.47 143.57 239.62 144.06 239.62 143.45 238.77 143.39 238.76 143.15 238.8 142.93 238.84 141.91 239.29 141.75 239.32 140.99 237.91 141.27 237.82 141.73 237.83 140.06 236.28 139.38 236.09 139.39 234.86 139.9 234.46 142.06 232.88 143.23 232.98 144.49 232.29 146.17 233.69 146.79 234.3 147.19 234.43 148.24 234.39 148.61 234.3 148.75 233.79 152.4 231.95 154.13 231.39 155.87 230.34 157.61 231.46 157.95 232.31 158.28 232.64 159.34 233.08 160 232.92 161.73 233.57 161.46 235.26 161.73 235.54 162 235.4 162.21 235.26 162.56 235.07 162.68 234.89 163.47 233.73 163.38 233.63 163.59 231.94 163.84 231.79 164.13 231.4 164.1 231.15 164.42 230.68 165.04 230.61 168.29 230.63 170.45 231.51 175.27 233.57 175.26 235.15 173.41 236.25 172.06 235.86 171.66 236.33 171.98 236.99 173.04 237.02 175.3 236.86 176.91 236.33 177.09 235.65 179.36 234.66 180.87 235.42 182 237.53 182.28 237.78 182.59 237.85 183.31 238.32 183.83 238.36 184.01 238.32 186.46 238.58 186.89 238.7 187.38 240.42 185.55 241.41 185.82 242.38 185.8 242.66 185.41 243.35 186.02 244.06 186.53 243.81 188.26 242.6 189.17 242.33 190.2 241.38 191.23 241.05 195.53 239.04 197.63 239.45 199.44 241.06 200.23 241.34 201.36 242.17 201.48 242.13 201.56 241.49 201.13 240.89 200.67 238.03 202.34 237.95 202.28 237.74 199.23 237.54 199 237.34 197.77 235.68 195.02 235.11 194.81 235.06 194.65 235.01 194.43 234.95 193.87 234.62 194.51 234.6 194.67 234.63 194.81 234.66 195.18 234.73 195.76 235.11 196.19 235.26 196.83 235.15 197 234.93 196.84 234.66 196.6 234.52 195.65 234 195.41 233.76 194.73 233.37 194.24 232.85 193.86 230.44 194.48 229.69 195.93 228.56 199.74 228.75 200.27 229.04 201.92 230.59 202.75 230.97 203.65 231.31 206.02 232.76 206.72 233.85 206.11 235.5 205.78 236.02 206.42 236.23 207.73 234.6 209.34 234.6 210.05 234.42 210.28 234.31 210.75 234.46 210.88 234.71 211.83 234.79 212.13 234.73 212.37 234.79 212.79 234.9 212.99 235.05 213.32 235.48 214.77 236.94 215.08 237.19 218.43 237.5 220.44 236.49 220.99 235.81 221.2 233.43 221.08 233.18 221.99 232.39 222.62 232.14 224.88 232.06 228.23 230.71 232.27 230.24 233.66 230.28 233.89 230.17 233.53 229.25 233.36 228.76 233.02 228.63 232.73 228.25 232.55 227.73 232.25 227.53 232.64 227.6 232.9 227.83 233.04 228.11 233.12 228.27 233.66 228.63 234.01 229.1 234.06 229.34 234.42 229.86 234.84 230.02 235.04 230.16 235.35 230.34 235.84 230.4 237.84 229.97 238.04 229.9 238.37 229.88 238.5 229.86 238.88 229.84 239.33 229.81 240.73 229.86 241.05 229.54 241.56 229.27 242.13 229.17 242.78 229.38 244.04 230.38 245.9 230.63 247.03 231.26 248.52 231.71 249.84 230.73 250.66 230.13 250.9 229.77 250.3 229.45 250.54 229.34 250.66 229.29 251.73 229.42 252.16 227.54 252.84 227.21 252.76 226.93 253.29 227.24 252.68 228.32 252.58 228.79 253.49 229.1 255.08 229.22 255.63 229.33 256.22 229.3 257.68 228.9 257.99 228.94 258.44 229.35 259.23 230.26 259.69 230.3 260.45 228.86 259.3 229.02 261.19 228.25 262.01 227.66 263.8 226.67 263.87 225.49 264.07 225.01 267.31 224.73 268.22 225.83 268.97 226.54 269.42 227.01 269.64 227.28 271.06 229.78 272.04 230.28 272.71 230.71 273.76 231.09 274.52 231.34 274.96 229.97 275.49 229.81 276.25 230.92 276.2 231.66 276.37 232.1 275.91 232.51 Z M 149.67 244.29 148.88 243.9 148.59 243.84 148.28 244.33 147.55 244.96 148.09 246.34 150.31 245.82 149.67 244.29 Z" fill-rule="evenodd"/>
<path d="M 117.45 241.89 118.04 242.55 118.8 243.51 118.8 244.13 118.71 244.84 118.7 245.43 117.05 245.36 116.06 245.52 114.97 245.46 114.33 245.48 109.81 246.33 109.08 246.5 108.47 247.25 108.39 246.98 108.34 246.77 108.62 246.29 108.73 246.1 108.63 245.87 107.86 245.56 106.32 245.14 106.02 245.27 103.62 246.57 101.95 246.25 100.23 244.84 99.98 242.21 100.01 241.67 100.31 239.24 100.17 238.89 98.59 237 98.29 236.51 97.1 235.15 96.76 235.18 95.64 236.09 93.59 236.33 93.11 236.45 93.09 236.17 92.8 236.04 92.22 236.2 91.51 236.33 89.03 235.98 85.94 233.04 84.83 233.06 80.77 233.6 78.46 232.22 76.91 230.16 74.39 230.89 73.84 231.82 73.37 232.45 69.07 234.47 67.29 234.3 66.45 233.92 64.27 231.6 63.74 230.73 60.93 230.26 57.27 232.14 53.85 232.49 53.3 232.19 52.78 232.41 52.26 232.61 51.19 232.85 50.89 232.74 51.15 232.1 51 230.96 50.97 230.44 51.28 228.64 50.81 228.16 48.81 227.22 48.64 226.77 46.93 223.91 47.13 223.47 48.67 223 49.64 222.72 49.81 222.53 49.95 222.17 50.3 222.32 50.46 222.49 53.42 221.77 53.65 221.61 54.23 221.39 54.84 221.42 55.27 221.33 55.45 221.17 55.61 221.06 56 220.93 56.04 220.71 55.91 220.56 56.22 220.15 56.71 219.3 56.84 219.09 57.2 218.88 57.46 218.29 54.21 217.67 53.3 217.31 50.77 216.5 49.1 215.34 49.15 213.95 50.05 213.66 50.7 212.71 50.7 212.26 51.15 211.76 51.52 211.72 52.14 211.84 52.28 211.61 52.38 211.17 52.4 210.93 52.42 210.8 53.06 210.69 54.27 210.62 55.75 210.46 60.27 211.44 61.09 211.21 61.39 210.85 63.15 211.21 65.05 213.03 65.55 214.95 66.23 215.98 67.33 218.69 65.79 220.6 60.22 221.7 60.52 222.4 61.53 222.63 65.28 221.56 69.89 222.4 71.13 223.08 73.21 222.44 80.37 222.9 81.25 222.95 83.31 224.6 83.33 225.96 83.27 226.31 83 226.74 83.31 227.02 83.78 227.02 84.77 226.79 85.28 226.75 89.29 227.48 91.51 226.97 93.63 227.79 94.37 227.96 95.44 224.66 97.55 223.78 100.42 224.95 99.76 226.31 99.38 226.85 100.66 229.31 99.98 231.23 102.32 232.58 102.71 233.01 103.07 233.6 103.33 234.51 104.03 235.15 106.81 235.89 107.52 237.55 107.44 238.15 106.96 239.67 104.86 241.92 105 242.38 105.69 242.38 107.27 240.94 110.2 239.83 112.16 239.59 113.79 239.56 116 240.06 117.45 241.89 Z"/>
<path d="M 281.66 197.33 282.49 196.86 285.99 197.21 289.03 196.81 289.67 200.39 288.37 201.43 284.76 201.41 281.47 199.33 281.66 197.33 Z"/>
<path d="M 675.92 292.56 676.5 292.6 672.12 295.97 668.74 299.64 665.49 305.89 664.74 309.68 662.81 313.86 661.11 319.45 658.69 324.21 657.78 327.21 658.33 332.22 656.95 335.25 653.9 338.13 647.55 343.39 642.87 345.95 636.43 348.95 635.15 349.09 635.22 348.86 636.48 348.62 641.09 346.42 647.39 343.03 655.37 336.52 656.7 335.11 658.05 332.15 657.51 327.22 658.87 322.87 660.82 319.38 662.47 313.84 664.41 309.64 665.16 305.87 668.39 299.5 669.88 297.63 674.53 293.39 675.92 292.56 Z"/>
<path d="M 269.44 390.75 269.86 390.69 271.77 391.36 271.91 391.68 271.94 391.72 271.96 391.78 271.99 392.08 272.12 392.36 272.46 392.72 272.65 392.92 273.18 393.82 273.48 393.73 273.82 393.47 274.21 393.02 274.88 392.92 274.91 393.99 274.83 397.09 274.45 397.65 274.36 398.24 274.19 398.79 273.96 398.82 273.76 398.75 273.5 398.67 273.1 398.7 272.48 398.67 271.71 398.28 271.83 398.09 271.47 397.97 271.1 397.93 271.13 398.47 270.8 398.52 270.34 398.71 269.14 399.06 268.92 399.15 269.11 398.31 269.12 398.29 269.54 398.05 269.63 398.03 269.95 398.11 270.41 398.15 270.69 397.84 270.68 397.57 270.41 397.34 270.03 397.24 269.23 396.66 268.87 396.59 268.25 396.93 268.12 397.16 268.37 397.33 267.42 397.3 267.02 397.28 266.87 397.48 266.92 397.67 267.23 397.83 267.57 397.87 267.46 398.05 267.38 398.21 267.5 398.67 267.66 398.83 267.94 398.76 268.12 399.13 267.55 399.29 267.38 399.1 266.86 399 266.68 399.18 266.54 399.31 266.66 399.11 266.55 398.66 266.27 398.42 265.63 398.23 265.24 398.31 265.02 398.74 264.86 399.03 265.1 399.31 265.42 399.26 264.77 399.57 264.26 399.3 263.52 399.34 263.13 399.33 263 398.28 263.12 398.17 263.28 398.04 263.67 397.89 264.06 397.29 264.54 397.25 265 397.01 265.05 396.71 264.88 396.51 265.17 396.34 265 396.12 265.25 396.06 265.5 395.99 266.13 395.79 266.35 395.49 266.72 395.12 266.64 394.72 266.19 394.17 265.89 393.77 265.48 393.54 265 392.99 264.63 392.68 263.68 392.41 263.13 392.35 263.08 392.08 263.56 391.85 263.63 391.5 263.75 391.36 264.03 391.26 264.17 391.22 264.37 391.17 264.19 390.66 263.9 389.64 263.83 388.41 263.9 386.99 263.83 386.67 264.06 386.64 265.26 386.63 266.19 386.6 267.03 386.49 267.21 386.55 267.33 387.09 267.34 387.55 267.57 387.91 267.97 388.07 268.33 388.3 268.91 389.22 268.93 389.57 268.91 390.34 269.19 390.7 269.44 390.75 Z M 266.94 388.64 266.86 388.25 266.62 388.21 266.38 388.47 266.03 388.62 266.28 388.84 266.03 389.89 266.09 390.2 265.38 390.06 265.32 389.77 265.02 389.56 264.74 389.75 264.83 390.14 264.88 390.27 264.73 390.43 264.97 391.01 265.25 390.99 265.5 390.81 266.12 390.9 266.66 390.83 266.98 390.86 267.37 391.06 267.62 391.01 267.92 390.55 267.74 390.44 267.5 390.07 267.05 390.04 266.91 389.79 267.05 389.48 267.29 389.28 267.31 388.96 266.94 388.64 Z M 270.9 393.5 271.16 393.26 271.24 393.19 271.43 393 271.53 392.91 271.41 392.68 270.82 392.57 270.33 392.63 269.94 392.67 269.4 392.91 269.2 393.15 269.07 393.3 269.03 393.54 269.12 393.69 269.23 393.86 269.28 393.94 269.7 394.13 270.1 394.62 270.53 395.25 270.88 395.88 271.21 395.83 271.15 395.37 271.27 395.12 271.36 394.92 271.31 394.72 270.76 394.48 270.81 394.01 270.65 393.85 270.9 393.5 Z" fill-rule="evenodd"/>
<path d="M 96.38 245.42 95.41 247.36 93.23 247.72 93.33 243.81 94.19 241.57 97.65 243.69 99.14 245.23 96.38 245.42 Z"/>
<path d="M 638.53 425 609.82 419.62 608.68 416.27 608.37 415.94 608.13 415.27 607.86 414.63 604.3 411.06 603.92 410.81 601.47 410.61 601.27 410.74 601.08 410.86 600.8 411.05 601.06 411.61 601.35 414.67 600.84 414.81 599.84 413.72 599.73 413.81 599.49 413.54 599.56 413.46 599.12 412.97 598.26 412.03 596.48 410.67 594.35 408.08 593.85 407.85 593.07 407.67 592.63 407.42 592.59 407.18 593.62 407.46 594.94 408.12 594.68 408.12 595.06 408.62 595.73 409.44 596.74 410.57 597.43 411 597.76 411.21 600.12 413.65 600.79 414.45 601.04 414.44 600.75 411.73 600.62 411.42 600.24 411.33 599.25 410.55 599.17 410.35 598.95 410.1 598.41 409.88 597.64 409.24 597.49 409.09 597.47 408.8 597.6 408.42 597.6 407.82 597.28 407.34 596.01 407.58 594.79 407.54 593.68 407.24 590.49 405.74 590.43 405.38 589.86 404.78 589.67 404.5 589.62 404.42 589.46 404.16 589.11 404.02 588.21 403.73 587.49 403.33 587.27 403.13 587.04 402.65 587.06 402.22 587.14 401.85 586.98 401.26 586.75 400.93 586.83 400.09 586.71 399.57 586.6 399.53 586.48 399.5 586.32 399.45 586.25 399.26 586.15 399.21 585.89 399.07 585.4 398.82 584.89 398.71 583.94 398.42 583.01 398.01 583.39 397.17 583.63 397.02 583.69 396.74 583.92 396.77 584.07 396.79 584.32 396.5 584.31 395.84 584.74 395.6 584.62 396.06 584.53 396.71 584.47 396.85 584.5 397.16 584.3 397.37 583.64 397.65 583.44 397.84 583.57 398.07 584.19 398.2 585.36 398.44 585.6 398.5 587.19 399.41 587.27 399.77 587.63 400.26 587.82 401.24 587.79 401.43 588 401.56 588.12 401.85 588.14 402.05 587.9 402.92 587.87 403.12 588.05 403.31 588.87 403.64 589.16 403.72 589.36 403.08 589.47 402.85 590.1 401.94 590.06 401.75 590.35 401.7 590.41 401.79 590.21 402.22 589.87 402.65 589.66 402.93 589.55 403.6 589.71 403.96 590.88 405.53 591.36 406.05 592.22 406.52 592.78 406.72 593.07 406.79 594.48 407.12 595.16 407.28 595.71 407.31 596.89 407.08 596.66 406.8 596.23 406.75 595.95 407.02 594.48 406.9 593.26 406.61 592.89 406.24 594.1 406.61 595.2 406.86 595.36 406.76 595.59 406.32 595.58 406.11 595.39 405.82 595.75 405.72 596.41 405.73 596.49 406.03 597.4 406.43 597.71 406.16 599.92 405.65 597.71 403.01 598.02 402.77 598.43 403.18 598.58 403.1 597.55 402.17 597.27 402.11 594.75 398.91 594.18 398.08 596.15 398.92 596.3 399.66 597.59 401.47 598.06 402.06 599.24 403.51 601.88 405.06 602.69 405.54 603.4 405.21 603.74 405.03 605.37 401.95 606 400.52 607.05 398.8 607.05 398.52 607.22 398.13 608.09 396.9 608.71 396.37 609.38 396.1 609.79 395.13 610.57 392.88 610.68 391.82 610.69 391.65 610.25 388.93 610.02 388.85 611.03 387.87 611.04 388.3 611.41 388.11 611.7 387.52 611.66 387.15 611.86 387.09 611.91 386.56 611.95 386.22 612 385.67 611.79 385.25 611.44 384.59 611.43 384.55 611.32 384.35 611.33 383.1 611.56 382.95 612.63 382.85 612.57 382.71 611.71 382.34 611.49 381.84 611.83 376.42 612.03 376.06 611.92 375.88 612.04 375.17 612.03 375.1 611.9 373.95 611.95 373.62 611.91 372.95 612.03 372.29 611.78 371.86 611.86 371.55 612.3 371.1 612.58 370.03 612.73 370.52 612.95 370.58 613.32 370.11 613.38 369.95 613.45 369.8 613.84 369.24 613.92 368.93 614.04 368.69 614.31 368.18 614.48 367.86 615.04 366.96 615.89 366.56 617.15 366.49 617.56 366.46 617.76 366.23 618.49 366.23 619.12 366.38 619.79 366.44 620.18 366.34 620.98 364.36 621.17 364.01 624.33 363.5 625.27 360.27 625.48 358.95 625.21 358.83 624.97 358.81 624.93 358.63 625.16 358.73 625.35 358.73 625.52 358.75 625.64 358.56 625.87 358.01 626.65 354.61 626.83 354.14 628.16 350.83 628.16 349.73 628.08 349.51 627.81 349.17 627.87 349.01 627.36 348.55 627.32 348.5 627.57 348.2 627.68 348.04 628.95 347.28 629.7 345.2 630.38 343.23 630.49 342.84 629.94 337.83 630.32 336.93 630.08 336.8 629.38 336.93 629.21 336.71 630.71 333.99 630.77 331.31 631.01 330.44 631.74 330.53 631.55 330.26 631.67 329.7 631.9 329.18 634 322.96 633.69 322.8 633.25 321.77 633.33 321.47 634.14 321.06 635.34 316.89 635.11 316.25 635.23 315.77 635.27 315.42 636.21 314.79 636.57 315.26 637.12 315.06 637.57 314.72 637.78 314.57 638.21 314.25 638.57 313.84 638.79 313.72 639.23 313.14 640.29 312.19 641.53 310.55 641.65 310.23 642.19 309.43 644.2 302.45 644.32 300.19 644.39 296.88 644.68 290.04 645.24 289.04 645.89 288.26 645.7 287.2 643.25 286.64 645.19 286.95 645.22 286.85 646.1 287.02 646.41 286.84 646.19 286.69 645.78 286.29 646.57 286.39 646.66 286.14 647.72 285.02 647.86 284.79 648.11 284.56 648.63 284.5 648.47 284.27 649.11 283.89 649.41 283.51 650.08 281.6 652.09 279.41 652.48 279.23 654.39 277.32 656.62 274.74 660.44 269.76 660.53 269.6 662.85 265.91 664.92 260.77 665.16 259.46 665.29 259.18 665.26 258.95 665.9 257.02 666 256.59 665.89 256.27 666.06 255.81 666.33 255.73 666.46 254.29 666.77 253.2 667.36 251.78 667.4 251.36 667.67 250.79 668.18 249.66 668.66 248.26 672.44 241.52 673.08 239.98 673.48 239.07 673.67 238.6 676.47 232.68 677.21 229.03 676.99 227.49 676.85 226.47 675.33 224.03 670.15 217.39 670.08 217.15 669.73 217.28 668.51 217.35 666.75 217.4 666.69 217.32 666.6 217.17 666.83 217.07 670.03 216.97 670.01 216.81 669.99 216.61 670.03 216.32 668.98 215.9 668.97 215.74 669.6 215.69 669.59 215.59 667.8 215.65 667.5 215.55 667.32 215.11 667.27 214.28 667.07 214.24 666.81 214.19 668.09 213.13 668.33 211.23 668.29 210.84 668.27 210.73 668.26 210.64 668.25 210.46 667.99 210.26 668.19 209.55 668.22 209.52 668.26 209.47 668.31 209.42 668.5 209.44 668.5 209.24 668.19 209.02 668.25 208.71 668.46 208.44 668.53 207.82 668.43 207.64 668.31 207.42 668.33 207.25 668.21 206.87 668.26 206.8 668.66 206.72 668.7 206.46 668.53 206.39 668.37 206.32 668.51 205.91 668.59 205.28 667.86 205.25 667.9 204.94 668.01 204.81 668.15 204.22 668.17 204.15 668.22 203.95 669.18 203.99 669.04 203.58 669.33 203.44 669.29 203.2 669.34 202.92 669.56 202.42 670.22 201.58 670.48 201.18 670.64 200.94 670.75 200.76 671.37 199.91 672.35 198.19 673.23 197.41 673.39 197.29 673.86 196.85 673.98 196.62 675.19 195.99 676.26 195.7 676.83 195.54 677.77 195.23 682.53 194 683.47 193.78 690.08 190.42 693.92 187.87 702.44 180.01 703.75 178.19 703.63 177.75 699.01 175.07 699.44 174.42 704.59 177.14 704.82 177.12 706.09 175.72 699.1 172.12 698.22 171.66 697.95 169.73 706.67 174.37 707.77 172.95 707.63 172.11 706.13 171.29 708.43 171.76 709.1 170.91 710.18 168.81 709.97 168.47 710.18 168.13 710.5 168.03 712.15 165.76 712.28 165.45 712.74 165.19 712.9 164.76 715.73 160.05 715.97 159.78 716.29 158.65 716.32 158.6 715.99 158.29 716.48 158.4 717.35 156.81 717.31 156.48 717.29 156.38 717.28 156.24 717.29 156.16 717.32 155.97 717.68 155.39 717.79 154.94 717.72 154.62 718.23 153.75 718.47 153.36 718.35 152.64 719.41 150.01 719.8 149.5 721.61 146.65 727.64 134.73 727.69 134.62 728.16 133.69 728.17 133.68 728.19 133.67 728.35 133.51 729.66 131.94 732.11 129.07 732.3 128.68 732.51 128.58 734.36 127 732.92 126.17 732.62 125.99 732.67 125.78 732.96 125.7 733.38 125.98 734.83 126.82 735.06 126.5 737.9 123.67 738.97 122.63 739.39 122.23 739.43 122.19 739.44 122.16 739.52 122.09 740.04 121.58 740.82 120.83 740.86 120.78 741.57 120.12 741.85 119.94 741.13 119.09 741.17 119.06 742.29 119.45 743.63 117.98 744.65 116.83 745.36 116.05 747.17 114.15 749.34 111.75 750.85 110.08 753.88 106.86 761.76 100.25 761.87 99.69 762.1 100.08 762.3 99.95 762.46 99.84 762.66 100.03 764.45 99.08 764.95 98.66 765.12 98.51 765.2 98.45 770.21 95.55 770.76 95.62 778.4 91.01 781.41 89.84 781.39 99.22 781.31 99.44 776.85 101.47 775.36 101.9 774.68 102.26 772.08 104.01 770.62 104.76 769.17 105.33 766.07 107.1 765.71 107.29 765.62 107.64 765.97 108.2 765.83 108.48 765.75 108.64 763.25 109.19 760.88 111.84 760.8 112.12 758.83 114.16 758.92 114.3 759.13 114.76 758.52 114.63 758.24 114.98 758.22 115.22 758.55 115.39 760.43 116.04 758.84 116.51 758.73 116.47 758.2 116.39 758.12 116 757.89 116.09 757.71 116.16 757.21 116.01 757.03 116.24 755.92 117.35 759.26 118.88 758.41 118.58 754.98 118.21 754.79 118.46 753.88 118.9 753.33 119.73 751.48 122.09 750.94 122.62 751.11 123.33 750.79 123.27 750.24 123.19 750.17 123.46 750.57 123.54 748.93 124.8 747.47 125.88 746.8 126.61 746.15 127.01 745.4 127.95 744.85 128.75 745.34 128.85 744.29 130.01 744.28 130.36 744.05 130.79 743.65 130.89 743.46 130.83 743.26 131.62 742.8 132.37 742.8 132.69 742.63 132.8 742.48 132.89 742.2 133.07 742.07 133.49 742.17 133.8 741.97 134.23 741.41 134.9 741.48 135.02 741.25 135.29 741.03 135.68 739.28 138.57 738.94 139.17 738.53 139.7 738.31 140.27 738.54 142.14 737.87 143.27 737.73 143.65 737.51 143.96 737.48 144.17 737.7 144.2 737.22 144.52 737.18 144.67 736.76 145.07 736.29 146.4 736.18 146.76 735.5 147.03 734.63 150.05 734.54 150.33 732.93 154.05 731.28 155.44 731 155.77 730.73 155.84 728.86 159.97 728.57 162.12 728.29 162.59 728.41 164.67 728 165.47 727.21 166.4 726.67 166.47 725.99 167.64 725.73 168.15 725.55 168.51 724.29 170.38 723.47 172.01 723.28 172.61 722.92 173.59 722.76 173.89 722.68 174.05 722.52 174.34 722.88 174.6 722.13 175.37 723.31 176.75 723.52 177.32 723.77 177.93 723.89 178.43 723.89 179.22 723.73 179.88 724.85 185.5 723.98 187.95 723.78 188.06 726.99 188.99 726.15 190.57 726.48 190.7 729.15 191.33 728.99 191.8 728.49 192.19 728.12 192.09 726.42 191.1 723.52 192.82 723.08 193.25 723.06 193.54 724.03 195.04 724.15 195.27 724.46 195.58 724.11 195.67 723.42 196.6 723.81 196.84 723 196.97 722.72 197.13 722.75 198.75 722.71 199.2 723.44 199.38 723.9 199.53 723.4 200.04 723.18 200.27 723.2 201.02 722.95 201.51 725.16 202.22 725.23 202.32 724.74 203.2 725.01 203.71 724.89 203.9 724.76 204.1 725.16 204.74 725.33 204.98 724.72 206.05 724.58 206.35 724.96 206.58 725.44 206.94 725.59 207.31 725.11 209.51 724.78 209.77 722.02 209.94 721.49 209.7 721.33 209.62 721.06 209.81 721.01 209.95 720.8 210.57 725.76 211.84 721.42 211.27 721.65 211.45 723.03 212.04 722.91 212.27 723.66 212.49 724.7 212.78 724.86 213.09 726.47 214.11 725.48 213.87 725.68 216.97 725.82 217.27 725.65 220.05 724.65 220.11 725.09 220.38 727.68 220.97 729.35 220.6 729.66 220.72 727.62 221.22 725.36 220.68 724.23 220.44 725.53 221.61 725.04 221.43 724.97 221.46 724.82 221.54 723.83 222.45 723.73 222.81 723.66 223.14 723.48 223.71 726.66 224.54 726.38 225.27 723.15 224.64 723.54 224.9 724.76 225.53 725.15 225.66 725.73 226.5 726.07 226.71 723.31 226.46 722.96 226.53 722.93 226.73 723.44 226.78 729.42 228.58 726.06 227.77 727.85 228.43 725.87 227.95 725.75 228.03 726.89 228.44 726.91 228.72 726.78 231.09 726.35 231.36 726.24 233.75 729.43 234.67 730.34 234.79 730.79 235.19 729.75 234.91 728.87 234.69 728.29 234.51 725.99 233.91 725.64 234.06 725.56 234.28 725.33 234.89 725.6 234.93 726.04 234.99 726.5 235.14 726.77 235.23 727.17 235.37 731.43 236.79 730.66 236.59 727.1 235.57 726.67 235.85 726.57 236.98 726.43 237.24 726.89 237.62 726.54 237.57 726.19 237.53 725.29 237.39 725.23 237.59 728.45 238.42 728.59 238.57 725.48 238.02 725.88 238.24 726.53 238.8 726.38 239.01 727.91 239.32 730.48 240.15 730.99 240.14 732.43 240.43 732.45 240.78 729.43 240.07 728.62 239.82 728 239.62 727.4 239.55 726.81 239.41 726.47 239.35 726.58 239.6 726.94 241.65 726.48 241.54 726.39 242.04 726.24 241.85 725.35 243.74 725.57 243.57 726.28 243.73 730.93 244.89 730.6 245.55 725.51 244.33 725.16 244.1 726 245.03 729.11 245.95 729.33 246.09 729.61 246.02 729.71 246.61 726.06 245.6 725.53 245.48 725.33 245.67 728.32 247.67 727.72 247.51 727.26 247.75 727.45 247.95 727.29 248.18 727.38 248.38 727.54 248.77 727.49 249.1 728.04 251.36 727.97 251.53 727.95 251.58 727.86 251.74 727.74 252.02 727.81 252.3 729.19 252.62 729.43 252.84 730.52 252.88 730.29 253.11 730.2 253.12 729.1 253.23 728.8 253.23 728.9 253.63 729.26 253.68 728.75 254.47 728.59 254.61 729.19 255.28 728.71 255.26 728.68 255.46 729.03 256.24 728.53 256.09 727.95 255.92 727.62 256.04 727.66 256.2 728.09 256.31 736.06 258.34 730.65 258 730.02 258.09 730.37 258.24 730.22 258.67 730.21 258.85 730.34 260.49 730.2 260.65 730.42 261.25 731.09 261.59 731.76 261.71 731.88 261.96 730.69 261.56 728.63 261.86 727.96 261.51 726.79 261.39 726.47 261.28 726.59 262.28 727.33 262.86 727.46 263.11 727.58 263.36 727.86 262.26 728.43 262.07 729.74 262.51 730.68 262.66 731.23 263.21 729.06 262.5 728.6 262.46 728.15 262.32 728.09 263.29 731.67 264.12 731.42 264.33 731.51 264.13 727.99 263.5 727.82 264.45 731.48 265.06 731.33 264.87 731.54 264.71 731.55 265.55 730.45 265.27 731.29 265.31 727.84 264.68 727.64 265.28 731.19 266.02 727.48 265.42 726.99 268.39 727.21 268.47 727.8 265.69 730.49 266.42 730.4 267.11 729.45 267.79 729.23 267.82 728.83 269.05 726.86 268.75 726.54 268.93 726.82 269.57 727.05 269.71 727.86 269.34 729.67 269.24 729.73 269.48 729.53 269.57 729.19 269.42 728.13 269.46 727.4 269.71 727.36 270.19 728.99 270.36 729.16 270.09 728.35 271.69 728.17 271.74 726.99 271.68 726.69 269.65 726.42 269.61 726.35 271.97 728.67 272.73 729.82 275.45 725.71 275.29 723.56 274.01 723.4 273.52 722.33 274.65 721.53 277.77 717.08 281.04 714.92 281.54 712.95 281.35 708.64 282.51 707.8 283.08 709.42 282.5 712.59 281.67 715.71 281.71 716.13 281.59 719.24 279.96 720.97 278.74 722.24 276.77 723.07 274.14 724.31 275.11 721.96 278.19 717.32 281.9 716.81 282.14 716.14 289.23 715.43 291.58 715.08 292.25 713.54 294.09 713.11 294.69 712.62 295.25 712.47 295.64 712.24 295.95 710.3 298.32 712.83 299.62 713.46 299.96 716.09 300.04 717.33 300.67 717.87 300.65 720.28 301.02 719.88 301.71 719.2 303.07 719.73 306.33 719.99 306.44 719.48 302.9 720.98 300.69 721.13 300.41 721.45 299.38 726.66 297.43 729.9 296.82 734.58 294.32 734.66 293.98 735.39 294.79 735.77 295.19 735.66 295.63 735.47 295.82 735.3 296.42 735.17 296.58 734.35 297.56 734.43 297.72 734.51 297.89 735.26 297.99 733.68 300.37 733.32 300.44 731.5 300.37 731.54 300.2 730.88 300.69 730.48 300.59 729.98 300.29 729.46 300.05 730.32 301.67 723.06 301.43 723.4 301.69 723.7 302.06 723.32 302.26 727.52 302.53 728.88 302.69 723.44 302.74 723.22 302.6 722.99 302.68 723.02 304.53 722.13 306.16 724.11 307.17 724.69 307.19 723.03 307.46 723.1 307.69 724.35 308.12 724.23 308.42 722.65 308.81 722.67 308.96 722.95 309.32 722.8 309.66 719.84 313.26 717.17 314.43 717.35 314.59 717.52 315.02 717.23 315.16 715.53 315.63 715.53 315.75 716.34 315.87 715.54 316.13 715.19 316.25 715.35 316.53 715.51 316.58 714.9 316.95 714.8 317.07 714.51 318.02 714.35 318.66 714.8 319.64 714.92 319.89 714.24 322.53 714.03 322.64 713.68 323.4 713.28 323.97 712.62 328.39 711.39 331.99 710.37 333.63 710.35 334.05 710.49 336.45 710.6 336.97 710.84 338.88 710.84 341.11 709.91 341.15 709.91 341.69 710.07 341.68 710.22 341.29 711.12 341.37 710.85 342.05 710.88 342.57 711 342.75 710.82 343.06 711.04 344.28 711.05 344.37 711.08 344.52 711.48 344.85 711.28 345.5 711.29 345.88 711.14 346.63 711.27 346.74 711.33 346.81 711.29 347.13 711.31 347.4 711.31 347.53 711.32 348.08 711.59 348.07 711.63 348.26 711.67 348.44 711.75 348.83 712.1 351.3 713.61 353.28 713.33 354.85 713.38 354.95 713.78 355.7 713.84 356.01 714.96 357.11 714.95 358.57 714.9 359.25 714.94 360.51 715 361.43 715.19 361.52 715.22 359.86 715.38 359.83 715.9 360.43 716.18 362.07 716.44 362.28 716.44 365.27 714.79 369.48 714.48 370.04 714.11 370.28 714.2 370.37 713.8 372.24 713.76 372.53 713.76 372.61 713.72 372.89 712.34 378.69 712.4 379.11 712.59 379.35 712.67 379.46 712.99 380.76 712.93 381.03 712.77 381.13 712.66 381.2 712.85 382.15 713.53 383.46 713.68 383.83 713.81 384.39 714.03 384.7 714.01 385.04 714.95 385.39 715.04 385.82 714.98 386.04 714.35 386 714.4 386.67 714.04 390.83 714.35 394.69 714.35 395.6 714.6 396.85 714.6 397.24 714.88 397.83 714.98 398.03 715.57 399.41 715.94 399.77 716.34 400.91 716.7 402.02 715.77 404.78 715.1 404.99 713.06 407.08 711.52 409.8 711.31 410.23 710.89 411.91 710.65 412.56 710.17 414.28 709.86 418.9 710.18 419.33 710.17 419.97 710.09 420.12 710.41 423.11 709.86 425 700.81 425 702.57 419.68 704.67 414.17 706.7 408.02 708.91 402.65 707.42 396.91 707.07 393.43 708.88 386.18 708.04 383.85 706.11 380.54 705.5 378.37 702.89 379.03 700.01 380.78 698.51 382.63 699.1 385.57 700.29 388.82 701.15 393.91 701.85 399.88 703.63 402.37 707.62 404.19 706.28 407.81 704.49 410.39 701.91 417.39 701.85 418.66 700.14 425 691.23 425 691.28 424.67 691.4 421.66 692.23 416.34 692.47 415.79 692.48 414.12 694.04 404.69 693.9 404.3 693.92 403.87 695.31 394.4 695.84 388.97 696.68 383.71 696.9 381.9 696.21 383.26 695.08 390.85 694.55 395.9 693.37 403.8 692.4 412.43 691.85 415.01 690.78 424.31 690.57 425 687.7 425 689.43 410.34 688.26 415.27 688.46 417.37 687.44 423.08 687.4 425 638.53 425 Z M 633.84 391.7 633.51 392.19 635.26 394.87 636.12 397.76 637.31 398.9 637.46 399.02 637.47 398.86 637.19 398.68 636.05 397.06 637.63 396.31 637.93 398.88 637.87 399.54 638.57 399.7 638.92 399.92 639.23 398.96 639.6 397.6 640.9 393.42 641.04 393.06 642.08 391.89 643.41 391.3 643.14 389.31 640.37 382.77 633.29 382.63 632.92 382.65 634.23 384.86 634 385 634.35 385.43 634.5 385.62 634.36 385.78 634.71 386.68 634.98 388.88 635.01 389.06 635.01 389.13 634.99 389.32 634.98 389.39 634.94 389.81 634.75 390.95 634.46 391.34 634.2 391.48 634.18 391.58 634.16 391.66 634.02 391.68 633.84 391.7 Z M 633.43 353.98 633.24 355.97 632.98 358.83 632.9 360.65 633.02 366.53 632.65 367.25 632.74 368.57 632.65 369.05 632.1 370.52 632.05 370.99 632.21 371.3 632.19 371.74 632.27 372.04 632.25 372.25 632.25 372.68 632.06 372.97 631.81 373.88 631.87 376.39 632.06 376.94 632.54 377.98 632.69 381.59 632.81 382.27 633.14 382.45 639.96 382.46 640.18 382.26 639.01 378.77 639.23 378.69 639.56 379.02 639.12 379.03 639.76 380.41 644.83 392.43 645.11 395.48 645.26 395.91 645.64 396.08 646.18 396.07 648.66 395.83 649.48 395.32 649.82 395.37 649.99 395.56 651.94 396.31 652.33 396 652.66 395.86 652.93 395.9 652.89 395.78 652.83 395.59 653.4 394.89 653.74 393.5 654.41 392.9 657.66 389.63 658.37 389.81 658.65 390.12 658.89 390.55 659.67 390.93 660.26 390.71 661.99 389.59 662.87 389.95 664.36 390.77 664.28 390.34 663.7 389.92 663.2 389.61 662.77 389.36 662.43 389.14 662.54 388.93 663.13 389.29 664.07 389.8 664.47 390.02 664.79 389.39 663.7 389.14 665.22 385.89 664.92 385.93 663.4 388.38 662.98 388.35 663.61 387.51 663.6 386.69 663.44 384.78 663.46 384.43 663.48 384.13 663.29 383.8 663.52 383.32 663.68 383.08 664.25 381.96 664.36 381.67 664.67 380.78 664.87 380.03 665.39 378.37 665.97 376.86 666.4 376.38 667.21 376.16 668.17 375.76 668.45 375.48 668.5 375.41 668.85 375.05 668.37 375.02 669.22 374.38 669.57 374.02 670.91 372.18 671.19 368.82 671.93 367.56 672.39 367.33 672.77 367.25 672.87 366.96 672.95 366.15 673.26 365.36 674.57 363.62 675.87 360.73 676.11 360.26 676.79 356.45 676.94 356.35 676.87 355.29 676.93 354.77 677.25 351.95 677.41 351.18 677.56 350.52 677.64 349.85 678.28 348.44 678.67 348.05 680.97 343.26 680.97 343.02 681.3 336.08 680.85 331.37 681.24 331.09 681.2 329.5 681.27 329.26 680.99 328.92 681.07 328.75 680.59 328.28 680.68 328.05 680.61 327.92 681.16 327.48 681.16 327.18 681.16 327.06 681.16 326.83 680.59 326.75 680.24 326.48 680.09 326.24 680.09 324.58 680.22 324.33 680.05 323.85 680.08 322.88 680.09 322.05 680.22 321.5 680.55 319.54 680.67 318.65 680.83 317.83 680.72 317.31 681.05 314.02 682.22 309.3 682.1 307.57 682.18 307.31 681.97 305.64 682.27 305.52 682.05 305.22 682.07 305.05 682.13 304.77 681.32 303.83 681.2 303.2 681.39 301.75 681.27 301.67 679.29 297.41 679.18 297 679 296.34 678.87 295.87 676.5 292.6 675.92 292.56 675.52 292.05 674.28 288.52 673.15 286.6 672.9 286.04 672.79 282.26 673.19 281.19 674.09 275.45 674.89 273.14 673.9 273.2 671.81 273.74 669.04 275.43 662.98 280.83 657.15 287.14 655.77 288.9 655.63 289.31 653.13 293.85 652.57 295.13 652.05 296.09 650.95 296.09 650.68 296.26 650.63 296.5 650.75 296.88 650.68 297.04 650.88 297.32 650.87 297.47 650.48 297.59 650.55 297.84 650.83 298.03 650.07 302.03 650.15 302.5 649.65 302.69 649.29 302.95 650 304.35 649.66 305.97 648.69 308.01 648.44 308.24 648.16 309.23 647.36 311.01 646.44 311.08 646.15 311.36 646.84 312.04 646.22 312.98 645.5 314.07 644.87 315.08 644.44 315.44 644.4 315.81 643.07 318.66 642.26 320.48 641.63 322.05 641.3 322.56 640.65 322.65 640.41 322.81 640.65 322.89 641.22 323.09 640.81 323.99 640.57 324.23 639.51 325.59 639.44 326.02 639.08 326.86 638.84 327.6 639.24 328.44 638.32 331.87 637.98 332.89 637.95 336.65 637.73 338.21 637.18 342.55 637.22 343.16 636.71 344.99 636.19 346.14 635.22 348.86 635.15 349.09 634.34 349.1 634.18 349.45 633.43 353.98 Z M 697.56 373.51 697.71 373.86 698.35 368.91 698.52 368.15 698.82 367.48 699.14 367.37 699.44 366.02 699.22 365.26 699.38 363.97 699.42 363.35 699.44 361.67 700.43 360.42 700.65 359.25 701.46 357.02 701.74 357.11 701.79 357 702.99 349.7 705.64 353.39 705.73 353.61 706.29 355.05 706.36 355.48 708.2 358.24 707.77 363.38 707.03 368.53 707.55 368.51 708.6 368.15 709.27 358.22 708.73 354.2 702.45 339.06 702.18 339.08 699.18 359.4 697.56 373.51 Z M 603.05 410.27 602.77 410.04 602.18 409.52 602.44 409.35 602.14 409.23 600.88 407.51 600.59 406.78 599.74 406.35 599.29 406.74 597.56 407.28 598.06 409.35 598.3 409.6 598.67 409.72 599.4 410.17 599.53 410.49 599.65 410.75 599.93 411.04 600.44 411.18 600.58 410.89 601.14 410.53 601.31 410.45 601.46 410.37 601.55 410.33 602.59 410.34 603.05 410.27 Z M 722.85 190.18 722.63 190.41 721.97 191.1 721.74 191.04 721.42 191.4 722.99 191.83 723.48 191.71 723.64 191.57 723.68 191.25 724.22 190.77 724.23 190.58 723.3 190.31 722.85 190.18 Z M 639.88 421.34 639.7 421.15 638.01 419.7 637.89 419.33 637.69 418.14 637.7 417.67 636.79 417 636.74 416.69 637.75 414.36 635.34 409.67 634.97 409.37 633.83 408.79 633.4 408.73 633.56 409.08 634.89 409.87 635.32 410.79 635.99 412.51 635.7 413.01 635.5 413.47 634.77 413.45 634.31 413.55 634.12 413.59 633.68 413.69 633.23 414.32 634.15 418.82 635.25 420.19 635.69 420.37 636.15 420.16 637.86 421.03 638.06 421.16 638.85 421.34 639.24 421.47 639.32 421.23 639.54 421.27 639.71 421.31 639.88 421.34 Z M 633.31 412.44 632.92 412.32 632.6 409.47 632.13 408.36 630.83 406.32 632.45 405.49 632.62 405.46 632.37 404.98 630.59 404.07 630.28 404.83 628.03 407.93 627.61 408.38 627.65 408.65 628.15 409.01 628.38 410.04 628.56 410.92 630.05 412.38 631.3 412.52 633.09 412.92 633.31 412.44 Z M 683.67 262.77 683.81 262.87 684.2 261.39 684.01 261.36 683.6 261.87 683.04 261.86 682.88 262.36 682.7 262.61 683.67 262.77 Z M 695.84 348.11 696.03 347.73 696.15 346.45 695.58 345.63 693.37 343.02 689.35 343.11 687.08 344.81 686.83 345.27 687.12 345.5 688.77 344.66 691.02 344.08 693.26 344.5 695.75 346.42 695.84 346.8 695.86 347.14 695.68 347.61 695.74 347.99 695.84 348.11 Z M 685.37 352.68 684.38 352.07 684.39 353.04 684.34 353.39 685.37 352.68 Z M 692.54 347.55 692.86 347.33 692.99 345.37 692.4 345.95 692.08 347.49 692.54 347.55 Z M 664.83 389.92 664.78 390.19 665.34 389.37 665.12 389.43 664.83 389.92 Z M 725.75 190.3 726.3 190.23 726.24 189.46 725.79 189.41 725.61 189.58 725.47 190.21 725.75 190.3 Z M 727.34 274.37 727.84 274.58 728.08 274.58 728.48 274.37 728.76 274.33 728.75 274.11 727.45 273.83 727.2 273.89 727.34 274.37 Z M 729.29 261.02 729.79 261.16 728.19 260.41 727.88 260.49 729.29 261.02 Z M 655.3 289.19 654.04 288.98 654.3 289.31 654.29 289.7 655.3 289.19 Z M 712.94 271.01 713.53 273.19 715.37 273.56 715.46 271.31 714.43 269.24 712.93 269.51 712.94 271.01 Z M 684.54 219.22 684.36 222.84 682.39 225.17 682.31 226.79 686.75 227.09 687.65 225.74 688.19 220.5 688.05 214.99 687.61 214.5 682.64 214.32 681.55 215.71 681.88 217.23 684.03 218.23 684.54 219.22 Z M 697.18 351.9 696.35 350.8 694.59 351.08 694.14 349.45 692.54 348.08 689.53 347.63 684.99 348.67 684.24 351.58 692.27 354.58 694.3 366.92 694.84 367.68 694.79 372.05 696.8 357.82 695.46 360.1 695.22 366.42 694.47 366.61 692.51 354.49 691.24 352.41 692.21 351.63 695 351.46 697.18 351.9 Z M 666 276.22 666.45 277.41 670.03 274.34 672.87 273.14 675.2 272.75 676.08 271.66 675.05 267.23 675.7 264.79 675.23 260.27 677.1 251.74 675.13 249.66 671.09 253.48 668.85 262.02 666.25 268.82 664.86 270.58 666 276.22 Z M 618.37 368.63 616.63 372.67 617.07 376.95 618.86 375.59 619.22 370.12 618.37 368.63 Z M 613.84 388.07 612.91 387.87 612.22 390.66 611.09 391.86 610.32 396.39 610.54 397.46 608.6 401.68 610.03 407.18 609.51 408.4 609.79 410.66 611.07 412.92 612.91 412.42 614.62 409.15 615.49 405.03 617.6 399.53 617.39 398.11 615.08 393.78 613.84 388.07 Z M 720.58 193.03 722.73 193.25 723.12 192.11 718.21 190.93 717.96 192.09 720.58 193.03 Z M 617.04 403.71 616.34 403.96 616.87 409.17 615.9 413.92 618.07 412.51 618.82 409.83 617.04 403.71 Z M 673.58 199.13 673.27 200.31 678.86 201.33 681.2 199.69 675.33 197.94 673.58 199.13 Z M 715.57 209.35 715.26 207.89 717.13 200.56 713.09 193.64 710.38 192.79 708.96 193.18 703.16 193.59 702.32 196.53 700.83 198.24 698.44 199.69 697.22 201.93 697.08 204.76 697.89 208.79 698.48 218.84 700.05 227.08 698.83 228.17 698.79 229.65 700.95 233.08 702.29 236.67 703.11 242.42 702.36 244.08 702.54 260.85 707.23 261.37 709.01 262.9 713.03 264.53 715.47 260.49 715.73 254.23 713.15 246.53 713.15 236.92 712.74 230.73 712.23 227.6 712.44 224.89 712.42 218.42 712.71 215.98 715.57 209.35 Z M 659.5 394.34 656.59 396.78 655.88 397.99 657.17 398.83 660.14 398.51 662.82 399 665.77 397.33 666.57 393.82 666.38 392.76 663.96 392.37 659.5 394.34 Z M 606.83 410.3 607.29 408.24 604.46 405.14 602.56 406.68 603 407.86 606.83 410.3 Z M 670.31 400.29 672.67 400.36 675.63 398.36 675.94 396.15 673.78 394.45 670.9 396.78 670.31 400.29 Z M 662.31 399.98 658.92 398.94 656.34 399.09 655.01 399.89 653.7 403.06 653.5 405.25 658.8 404.58 660.37 403.9 662.31 399.98 Z M 669.53 386.22 671.03 382.07 670.56 375.67 668.39 375.95 668.1 378.44 666.68 381.7 666.18 386.96 665.57 389.08 666.69 389.65 669.53 386.22 Z M 634.36 389.2 634.4 387.32 632.39 382.85 630.99 384.99 631.72 388.47 633.02 391.57 634.23 390.73 634.36 389.2 Z M 644.63 399.02 645.78 396.96 644.3 396.57 643.23 392.23 641.57 392.78 639.68 400.13 642.97 400.68 644.63 399.02 Z M 607.29 407.22 608.86 407.3 609.03 405.6 607.53 402.31 609.91 397.54 608.57 396.87 605.08 403.79 607.29 407.22 Z M 722.71 238.73 723.16 236.8 723.03 233.71 721.05 228.62 720.76 225.28 722.28 220.28 721.77 217.9 719.64 216.34 718.74 217.32 720.26 218.81 721.62 219.08 721.55 221.02 720.35 224.69 720.16 227.28 722.39 233.12 722.71 238.73 Z" fill-rule="evenodd"/>
<path d="M 103.11 253.04 103.14 252.95 104.74 251.97 104.65 252.25 104.13 253.08 104.69 255.69 104.8 255.83 103.17 256.16 103.11 253.04 Z"/>
<path d="M 110.31 260.41 108.5 261.09 106.26 260.58 100.65 261.53 100.61 259.38 101.69 258.09 103.57 258 106.66 258.8 107.94 258.01 111.96 257.94 112.25 259.85 110.31 260.41 Z"/>
<path d="M 100.09 255.38 100.11 255.53 99.55 257.76 95.14 257.69 95.16 257.01 98.71 253.78 100.09 255.38 Z"/>
<path d="M 103.14 252.95 103.11 253.04 102.62 256.3 100.11 255.53 100.09 255.38 100.46 250.37 103.17 250.72 103.18 250.76 103.14 252.95 Z"/>
<path d="M 104.65 252.25 104.74 251.97 103.18 250.76 103.17 250.72 106.07 250.59 106.25 255.33 104.8 255.83 104.69 255.69 104.65 252.25 Z"/>
<path d="M 727.44 133.48 727.44 133.6 728.16 133.69 727.69 134.62 727.6 134.5 721.51 132.98 720.64 132.97 720.31 132.8 720.16 132.81 712.89 131.6 709.3 131.6 709.08 131.62 708.72 131.69 708.37 131.9 708.28 131.91 707.9 131.98 707.81 132.09 707.34 132.21 705.79 135.1 707.57 141.29 708.55 142.82 708.99 144.01 709.23 145.26 711.43 147.04 711.71 147.01 714.78 148.41 717.28 149.64 719.41 150.01 718.35 152.64 717.47 152.12 716.02 151.43 714.49 150.39 710.73 147.7 710.38 147.64 709.63 147.51 708.4 146.81 700.09 145.5 698.74 145.32 693.45 144.24 692.86 144.13 688.07 142.91 686.84 142.54 684.3 141.36 684.16 141.21 683.79 141.45 683.53 141.51 683.33 141.48 683.16 141.47 681.84 140.96 680.46 139.62 679.33 137.07 679 136.75 676.97 138.6 677.29 138.22 678.86 136.43 678.63 136.09 678.4 135.28 678 134.94 677.41 134.31 676.74 133.56 676.62 133.37 675.13 130.96 674.88 130.71 674.32 129.81 673.3 128.15 673.08 127.92 671.49 126.89 669.79 127.2 670.23 126.92 668.58 125.7 667.08 124.91 666.8 124.88 666.58 124.85 666.25 124.83 667 126.65 668.25 127.49 669.21 127.56 667.42 127.65 666.83 127.02 665.82 125.21 665.82 124.92 665.61 124.32 665.37 124.06 664.54 123.66 664.11 123.53 663.87 123.45 663.78 123.31 663.33 123.11 662.74 123.08 660.88 124.02 660.1 124.21 659.31 124.26 658.65 124.09 658.6 124.02 658.25 124 657.58 123.95 657.09 124.22 656.54 124.5 655.57 124.58 654.58 124.14 654.63 123.91 654.94 123.81 655.45 123.63 655.87 123.78 656.08 123.71 656.22 123.33 657.35 122.87 657.6 122.68 657.82 122.2 657.73 121.7 654.51 117.27 654.31 116.76 653.98 116.32 651.2 112.21 652.04 111.87 658.04 120.23 658.22 120.38 660.72 121.26 661.63 121.58 665.65 122.96 665.93 123.07 668.33 124.02 669.05 124.41 671.14 125.31 673.3 126.3 675.37 128.8 676.03 129.78 680.34 135.48 680.55 135.87 681.38 136.86 681.68 137.58 681.64 137.82 681.84 138.76 684.11 140.19 684.18 140.41 684.31 140.5 684.79 140.58 685.05 140.63 685.37 140.69 687.32 141.22 687.94 141.47 688.64 141.63 688.86 141.76 689.53 141.93 689.76 142.08 689.95 142.19 690.12 142.3 690.3 142.31 690.65 142.35 690.9 142.43 693.97 143.14 694.28 143.19 695.2 143.38 697.32 143.74 705.77 144.98 707.35 144.41 707.41 143.23 707.14 142.32 706.11 140.81 705.65 138.65 705.02 134.35 705.01 133.99 705.34 133.24 705.49 133.03 705.83 132.53 706.13 132.3 706.6 131.95 706.86 131.77 708.4 131.04 708.59 131 708.85 130.96 709.36 130.85 709.59 130.85 710.17 130.87 711.91 130.8 716.12 131.52 716.77 131.62 717.08 131.69 718.27 131.93 719.08 132.07 719.68 132.17 720.56 132.27 720.72 132.29 721.72 132.44 721.97 132.48 722.93 132.49 723.63 132.7 723.78 132.69 724.14 132.66 724.82 133.09 726.14 133.28 726.85 133.39 727.11 133.43 727.44 133.48 Z"/>
<path d="M 364.36 43.97 364 43.18 366.21 43.85 367.29 45.74 366.51 48.89 365.33 48.25 365.37 45.28 364.36 43.97 Z"/>
<path d="M 92.89 252.02 92.95 254.22 88.18 254.14 88 252.07 92.89 252.02 Z"/>
<path d="M 99.42 249.97 99.66 253.09 93.64 253.19 93.52 248.79 95.38 249.68 99.42 249.97 Z"/>
<g/>
<g/>
<g/>
<path d="M 53.06 210.69 52.42 210.8 51.36 207.29 52.06 205.34 52.46 205.4 52.06 207.14 53.06 210.69 Z"/>
<g/>
<path d="M 18.59 170.92 20.88 171.31 25.25 174.17 25.54 175.32 29.88 176.43 29.87 177.3 26.72 177.16 23.18 175.11 19.62 172.43 18.59 170.92 Z"/>
<path d="M 625.64 358.56 625.62 358.54 621.07 357.86 620.1 353.43 620.27 353.43 621.57 357.58 625.87 358.01 625.64 358.56 Z"/>
<path d="M 567.18 104.58 566.88 104.81 564.03 103.31 558.33 104.19 556.4 103.5 554.98 101.46 551.47 99.37 551.78 99.38 554.15 99.97 554.41 99.77 556.94 103.4 559.75 103.76 563.32 102.85 565.89 103.4 567.18 104.58 Z"/>
<path d="M 654.27 127.24 654.75 126.55 655.57 124.58 656.54 124.5 655.87 126.19 654.94 127.63 652.93 128.75 651 129.23 643.96 130.95 643.19 130.96 641.95 130.87 641.18 130.68 640.25 130.33 639.79 130.09 633.59 125.91 632.64 125.27 631.86 124.89 631.22 124.71 630.08 124.58 629.31 124.66 626 125.43 623.75 125.55 619.83 124.73 619.56 124.73 618.88 124.56 618.15 124.49 617.44 124.49 614.55 124.68 612.75 124.44 612.42 124.28 611.57 123.78 599.13 116.84 595.38 114.74 593.42 113.64 590.89 112.22 585.52 109.2 583.95 108.35 583.29 108.08 582.17 107.8 581.1 107.7 580.33 107.74 573.38 109.34 573.28 109.58 573.22 109.77 573.14 109.99 572.41 111.36 571.33 111.58 570.2 111.31 568.35 109.82 567.79 108.23 567.86 107.62 568.27 107.44 568.72 107.11 566.88 104.81 567.18 104.58 570.58 107.28 571.85 107.85 572.32 108 573.39 108.23 574.49 108.31 575.67 108.25 576.42 108.13 579.98 107.4 584.23 108.01 589.44 110.38 590.26 110.54 590.22 110.6 590 110.84 590.43 111.43 592.51 112.58 613.02 123.97 613.89 124.17 618.25 124 619.05 124.06 619.79 124.2 623.5 124.97 623.93 125.05 624.92 125.09 625.58 125.01 630.73 124.1 633.08 124.84 640.03 129.49 641.73 130.24 642.5 130.37 643.96 130.4 645.11 130.16 649.22 129.1 651.83 128.47 653.75 127.67 654.27 127.24 Z M 572.45 110.61 572.53 110.3 573.31 108.55 568.77 107.3 568.33 107.56 568.22 107.76 568.15 107.89 568.06 108.29 568.22 108.68 568.17 108.82 568.61 109.58 570.26 111.11 571.24 111.33 572.45 110.61 Z" fill-rule="evenodd"/>
<path d="M 35.48 101.47 33.37 100.35 34.87 99.1 35.48 101.47 Z"/>
<path d="M 618.37 368.63 619.22 370.12 618.86 375.59 617.07 376.95 616.63 372.67 618.37 368.63 Z"/>
<g/>
<path d="M 662.31 399.98 660.37 403.9 658.8 404.58 653.5 405.25 653.7 403.06 655.01 399.89 656.34 399.09 658.92 398.94 662.31 399.98 Z"/>
<g/>
<path d="M 99.83 38.91 100.88 40.01 98.37 41.91 94.93 42.83 95.46 40.21 98.45 39.95 99.83 38.91 Z"/>
<g/>
<path d="M 364.42 347.34 365.62 345.44 367.42 344.06 368.37 345.03 367.46 346.19 368.45 347.92 367.57 349.19 364.31 348.56 364.42 347.34 Z"/>
<path d="M 439.22 372.71 438.73 375.06 436.71 374.76 434.19 376.18 432.3 376.51 431.59 375.43 434.76 373.19 437.13 374.07 439.22 372.71 Z"/>
<g/>
<path d="M 447.83 375.6 450.04 375.29 451.46 377.25 447.08 376.75 447.83 375.6 Z"/>
<path d="M 606.83 410.3 603 407.86 602.56 406.68 604.46 405.14 607.29 408.24 606.83 410.3 Z"/>
<path d="M 607.29 407.22 605.08 403.79 608.57 396.87 609.91 397.54 607.53 402.31 609.03 405.6 608.86 407.3 607.29 407.22 Z"/>
<path d="M 617.04 403.71 618.82 409.83 618.07 412.51 615.9 413.92 616.87 409.17 616.34 403.96 617.04 403.71 Z"/>
<path d="M 618.02 362.16 618.82 360.51 620.63 360.73 620.42 362.54 618.02 362.16 Z"/>
<path d="M 620.85 362.28 621.29 360.78 624.65 361.28 624.24 362.62 620.85 362.28 Z"/>
<path d="M 673.48 239.07 673.47 239.07 670.58 239.11 670.63 237.66 672.6 237.61 673.67 238.6 673.48 239.07 Z"/>
<path d="M 670.31 400.29 670.9 396.78 673.78 394.45 675.94 396.15 675.63 398.36 672.67 400.36 670.31 400.29 Z"/>
<path d="M 701.74 357.11 701.46 357.02 700.56 356.07 701.58 346.33 703.03 347.29 701.74 357.11 Z"/>
<g/>
<path d="M 697.18 351.9 695 351.46 692.21 351.63 691.24 352.41 692.51 354.49 694.47 366.61 695.22 366.42 695.46 360.1 696.8 357.82 694.79 372.05 694.84 367.68 694.3 366.92 692.27 354.58 684.24 351.58 684.99 348.67 689.53 347.63 692.54 348.08 694.14 349.45 694.59 351.08 696.35 350.8 697.18 351.9 Z"/>
<path d="M 684.54 219.22 684.03 218.23 681.88 217.23 681.55 215.71 682.64 214.32 687.61 214.5 688.05 214.99 688.19 220.5 687.65 225.74 686.75 227.09 682.31 226.79 682.39 225.17 684.36 222.84 684.54 219.22 Z"/>
<path d="M 673.58 199.13 675.33 197.94 681.2 199.69 678.86 201.33 673.27 200.31 673.58 199.13 Z"/>
<g/>
<g/>
<path d="M 70.79 49.49 70.65 45.87 73.22 45.65 73.3 46.79 70.79 49.49 Z"/>
<path d="M 659.5 394.34 663.96 392.37 666.38 392.76 666.57 393.82 665.77 397.33 662.82 399 660.14 398.51 657.17 398.83 655.88 397.99 656.59 396.78 659.5 394.34 Z"/>
<path d="M 634.36 389.2 634.23 390.73 633.02 391.57 631.72 388.47 630.99 384.99 632.39 382.85 634.4 387.32 634.36 389.2 Z"/>
<path d="M 669.53 386.22 666.69 389.65 665.57 389.08 666.18 386.96 666.68 381.7 668.1 378.44 668.39 375.95 670.56 375.67 671.03 382.07 669.53 386.22 Z"/>
<path d="M 644.63 399.02 642.97 400.68 639.68 400.13 641.57 392.78 643.23 392.23 644.3 396.57 645.78 396.96 644.63 399.02 Z"/>
<path d="M 655.04 391.57 652.58 394.18 650.56 393.67 653.96 390.56 655.04 391.57 Z"/>
<path d="M 588.67 374.66 587.31 377.01 585.77 376.5 587.67 371.53 588.67 374.66 Z"/>
<g/>
<path d="M 373.03 194.45 372.81 195.68 371.2 196.7 370.67 198.28 367.5 198.89 363.01 198.91 363.07 196.77 365.09 195.89 364.77 194.49 366.36 192.56 370.42 193.78 372.52 193.21 373.03 194.45 Z"/>
<path d="M 356.25 198.16 358.99 199.42 361.5 199.32 361.19 200.88 356.5 200.53 356.25 198.16 Z"/>
<g/>
<g/>
<path d="M 667.9 204.94 667.86 205.25 665.15 205.75 662.73 205.52 658.21 206.07 651.61 205.84 648.1 207.97 647.16 210.56 645.3 212.54 645.39 214.86 643.58 217.78 640.73 220.39 637.63 221.33 627.05 221.5 625.28 220.24 621.58 219.77 621.69 219.6 625.6 220.08 627.49 221.35 637.58 221.17 640.23 220.38 643.98 216.96 645.03 215.14 644.91 212.93 645.62 211.23 647.2 210.19 647.35 208.56 649.89 206.27 651.22 205.67 654.09 205.44 658.02 205.72 662.35 205.17 667.9 204.94 Z"/>
<g/>
<g/>
<path d="M 470.42 388.43 468.78 392.04 467.59 387.19 469.05 386.56 470.42 388.43 Z"/>
<g/>
<path d="M 135.2 238.77 132.88 238.78 128.22 237.83 124.51 238.13 123.4 239.67 127.6 241.04 127.87 242.32 125.42 243.11 118.8 244.13 118.8 243.51 120.72 242.9 126.67 242.31 126.75 241.28 122.98 240.55 122.59 239.25 124.68 237.38 126.72 237.11 131.03 237.3 135.2 238.77 Z"/>
<path d="M 113.14 257.54 113.03 255.85 116.3 254.57 115.47 252.62 115.86 250.49 117.38 250.27 117.68 253.72 117.54 257.27 113.14 257.54 Z"/>
<path d="M 106.16 257.59 103.41 257.76 103.49 256.36 105.91 256.19 106.16 257.59 Z"/>
<path d="M 90.92 247.67 88.48 247.48 88.18 245.9 89.34 245.08 89.66 241.6 91.1 241.42 93.04 242.55 91.85 244.64 92.92 245.51 92.7 247.28 90.92 247.67 Z"/>
<g/>
<path d="M 115.4 195.42 115.73 197.37 113.11 197.39 115.4 195.42 Z"/>
<path d="M 58.18 82.06 56.3 81.9 52.16 78.85 54.25 78.2 58.25 80.36 58.18 82.06 Z"/>
<path d="M 45.06 80.95 41.07 80.48 40.86 78.98 46.62 78.43 48 79.86 45.06 80.95 Z"/>
<g/>
<g/>
<path d="M 62.43 59 61.8 54.84 64.13 54.76 65.48 56.57 65.27 57.92 62.43 59 Z"/>
<g/>
<path d="M 304.4 225.09 306.69 226.1 308.43 224.58 310.35 224.85 311.32 226 306.41 227.54 304.04 226.67 304.4 225.09 Z"/>
<g/>
<path d="M 712.94 271.01 712.93 269.51 714.43 269.24 715.46 271.31 715.37 273.56 713.53 273.19 712.94 271.01 Z"/>
<path d="M 720.58 193.03 717.96 192.09 718.21 190.93 723.12 192.11 722.73 193.25 720.58 193.03 Z"/>
<path d="M 722.71 238.73 722.39 233.12 720.16 227.28 720.35 224.69 721.55 221.02 721.62 219.08 720.26 218.81 718.74 217.32 719.64 216.34 721.77 217.9 722.28 220.28 720.76 225.28 721.05 228.62 723.03 233.71 723.16 236.8 722.71 238.73 Z"/>
<path d="M 495.55 243.25 494.13 245.42 491.71 245.18 495.55 243.25 Z"/>
<path d="M 494.21 239.49 490.58 238.87 490.93 237.98 493.3 237.89 494.21 239.49 Z"/>
<g/>
<path d="M 154.64 142.35 154.61 141.18 152.14 140.93 150.06 139.34 154.65 139.21 155.35 139.62 155.52 142.19 154.64 142.35 Z"/>
<path d="M 114.33 265.24 117.99 264.96 117.84 266.38 114.57 266.33 114.33 265.24 Z"/>
<path d="M 609.71 420.59 609.32 421.45 609.26 420.48 609.34 420.49 609.71 420.59 Z"/>
<path d="M 583.79 143.46 586.66 145.42 585.87 146.19 583.79 143.46 Z"/>
<g/>
<g/>
<path d="M 51.95 51.45 50.81 52.95 48.55 52.87 50.92 50.66 51.95 51.45 Z"/>
<path d="M 113.7 288.56 113.81 287.58 118.86 287.62 119.08 290.5 119.75 290.89 125.26 290.86 125.27 292.31 122.78 293 119.91 292.96 119.04 292.01 113.95 292.16 113.7 288.56 Z"/>
<g/>
<path d="M 70.84 41.73 72.26 41.08 74.7 41.96 75.61 43.4 73.85 44.09 70.84 41.73 Z"/>
<g/>
<path d="M 371.77 414.8 374.55 415.07 374.56 421.02 370.76 415.99 371.77 414.8 Z"/>
<g/>
<g/>
<g/>
<path d="M 136.92 20.2 139.96 19.64 140.09 21.5 137.57 21.68 136.92 20.2 Z"/>
<g/>
<path d="M 325.22 76.29 327.54 76.22 327.58 78.04 325.71 78.07 325.22 76.29 Z"/>
<path d="M 274.53 399.63 274.43 401.47 271.6 400.83 272.61 399.88 274.53 399.63 Z"/>
<g/>
<path d="M 90.41 21.68 92.68 21.42 92.61 22.78 90.53 22.79 90.41 21.68 Z"/>
<path d="M 365.54 404.95 367.47 405.44 367.73 408.26 366.19 409.71 363.63 406.41 365.54 404.95 Z"/>
<g/>
<path d="M 57.44 138.13 56.62 140.29 53.76 139.48 55.74 138.06 57.44 138.13 Z"/>
<path d="M 114.92 420.56 116.42 420.74 116.46 422.22 114.21 422.29 114.92 420.56 Z"/>
<path d="M 110.03 415.62 110.25 418.47 109.08 418.27 108.83 415.48 110.03 415.62 Z"/>
<path d="M 110.23 418.98 110.4 421.81 108.55 422.22 102.87 422.17 101.96 421.73 102.22 419.01 108.59 418.4 110.23 418.98 Z"/>
<path d="M 174.34 100.63 175.82 100.66 176.12 102.75 174.51 102.95 174.34 100.63 Z"/>
<g/>
<path d="M 121.99 287.7 124.62 287.74 124.68 290.28 122.81 290.47 121.99 287.7 Z"/>
<path d="M 119.7 288.18 121.28 288.68 122.21 290.51 119.74 290.53 119.7 288.18 Z"/>
<path d="M 107.54 77.35 108.59 77.53 113.77 75.34 114.52 74.49 117.95 76.27 112.75 77.68 111.03 77.49 109.16 78.4 107.44 80.33 105.95 79.3 107.54 77.35 Z"/>
<g/>
<path d="M 240.99 321.29 243 321.3 243.16 322.96 241.04 323.04 240.99 321.29 Z"/>
<path d="M 561.08 348.15 560.89 346.23 562.96 346.11 562.9 348.01 561.08 348.15 Z"/>
<path d="M 560.58 348.07 558.43 347.28 560.36 346.29 560.58 348.07 Z"/>
<path d="M 295.3 383.26 295.1 383.8 289.94 383.76 289.9 383.05 295.3 383.26 Z"/>
<g/>
<g/>
<path d="M 100.88 355.7 97.49 356.52 96.88 355.16 100.94 353.69 100.88 355.7 Z"/>
<path d="M 324.32 173.36 322.63 173.38 322.52 171.73 324.25 171.73 324.32 173.36 Z"/>
<path d="M 590.26 110.54 589.44 110.38 589.32 108.05 590.72 107.72 590.26 110.54 Z"/>
<g/>
<path d="M 90.09 303.08 91.11 303.29 91.94 306.28 89.44 304.69 90.09 303.08 Z"/>
<path d="M 89.5 312.1 92.21 311.96 92.4 313.49 89.5 313.94 89.5 312.1 Z"/>
<path d="M 542.34 80.61 543.53 78.56 541.28 77.76 539.19 78.4 538.33 77.44 538.48 77.18 539.62 78.11 540.89 77.52 542.7 77.48 543.98 78.4 542.79 80.69 542.34 80.61 Z"/>
<g/>
<path d="M 533.56 49.99 533.33 50 532.6 49.08 529.48 48.82 525.46 46.38 522.56 45.27 520.65 42.06 519.05 41.25 519.44 41.17 520.86 41.92 521.1 42.73 522.96 45.26 524.81 45.79 531.04 48.85 532.4 48.78 533.56 49.99 Z"/>
<path d="M 519.44 41.17 519.05 41.25 517.26 39.98 520.16 36.21 522.71 34.42 526.51 34.06 528.94 34.86 530.72 33.11 524.54 31.91 524.68 30.75 527.4 29.18 525.39 25.91 525.79 25.85 528.44 28.36 527.53 29.41 524.91 30.84 525.05 31.98 529.89 32.64 531.43 33.16 532.17 34.55 528.31 35.79 526.39 34.22 522.7 34.62 520.54 36.13 517.67 40.1 519.44 41.17 Z"/>
<path d="M 551.78 99.38 551.47 99.37 547 99.61 544.33 99.29 543.17 98.43 542.98 93.54 538.88 90.18 538.29 88.97 539.07 86.2 542.58 84.37 541.06 84.19 540.64 83.41 542.34 80.61 542.79 80.69 541.09 83.91 543.03 84.2 543.06 84.62 538.89 86.92 538.85 89.58 543.34 93.13 543.45 97.78 544.16 98.9 547.36 99.37 550.34 98.93 553.67 99.21 554.41 99.77 554.15 99.97 551.78 99.38 Z"/>
<path d="M 525.79 25.85 525.39 25.91 524.04 24.18 523.7 22.12 524.01 21.09 525.6 19.41 527.61 18.85 532.72 19.2 534.19 18.36 534.39 17.26 533.39 16.24 529.89 17.66 526.92 17.11 524.84 16.07 522.41 13.99 523.16 11.99 523.63 12.01 522.78 14.11 525.52 16.25 529.97 17.5 533.91 16 534.47 16.72 534.59 18.09 534.03 18.88 532.26 19.4 528.32 19.04 525.32 19.76 524.01 22.28 524.28 23.94 525.79 25.85 Z"/>
<g/>
<path d="M 538.48 77.18 538.33 77.44 537.74 76.58 535.18 76.53 532.26 77.21 527.09 77.33 526.15 75.78 524.77 75.13 523.47 75.44 522.88 75.44 520.98 74.49 521.16 74.38 522.25 75.12 523.3 75.38 524.45 74.92 525.92 75.46 527.41 77.25 532.36 77.01 534.57 76.37 537.94 76.46 538.48 77.18 Z"/>
<g/>
<path d="M 169.7 355.11 165.71 355.49 165.91 351.86 168.57 352.6 169.7 355.11 Z"/>
<path d="M 589.25 107.96 588.58 109.54 584.11 107.1 587.57 106.66 589.25 107.96 Z"/>
<path d="M 139.19 16.32 139.77 15.57 137.77 14.2 139.66 13.29 141.31 14.93 139.19 16.32 Z"/>
<path d="M 666 276.22 664.86 270.58 666.25 268.82 668.85 262.02 671.09 253.48 675.13 249.66 677.1 251.74 675.23 260.27 675.7 264.79 675.05 267.23 676.08 271.66 675.2 272.75 672.87 273.14 670.03 274.34 666.45 277.41 666 276.22 Z"/>
<g/>
<g/>
<g/>
<g/>
<g/>
<g/>
<g/>
<g/>
<g/>
<path d="M 460.68 312.46 458.19 312.1 459.54 310.61 460.68 312.46 Z"/>
<g/>
<path d="M 255 174.73 258.43 174.72 256.19 177.56 255 174.73 Z"/>
<g/>
<path d="M 50.85 307.13 52.75 307.17 53.13 308.79 50.84 308.92 50.85 307.13 Z"/>
<path d="M 58.06 302.32 55.82 301.16 57.19 299.68 58.55 299.86 58.06 302.32 Z"/>
<g/>
<path d="M 130.66 358.3 132.9 358.24 132.33 360.5 130.44 359.7 130.66 358.3 Z"/>
<g/>
<g/>
<g/>
</g>
</svg>