<?xml version="1.0"?>
<svg xmlns="http://www.w3.org/2000/svg" version="1.2" baseProfile="tiny" width="800" height="495" viewBox="0 0 800 495" stroke-linecap="round" stroke-linejoin="round">
<defs>
    <style>
        :root {
            --water-color: #9FC9EA;
            --bg-color: #F2E7D3;
        }
    
        svg {
            background: var(--bg-color, #ffffff);
        }
        path, polygon, rect, circle {
            fill: var(--water-color, #3b82f6);
            stroke: none;
        }
    </style>
</defs>
<g id="water">
<path d="M 783.81 172.32 761.45 170.04 750.72 168.65 741.87 166.99 725.84 163.11 711.01 161.69 699.91 159.35 682.49 152.74 676.75 151.18 669.18 147.99 657.31 141.67 629.65 125.22 622.98 122.06 612.47 116.28 598.42 110.34 564.43 97.29 557.66 94.98 522.64 90.24 490.57 90.13 476.44 90.36 472.36 89.91 464.26 90.19 443.65 89.77 436.86 88.98 410.58 84.86 399.49 81.83 387.97 79.08 380.94 75.81 361.78 70.43 352.67 67.54 344.24 63.52 323.89 55.31 313.95 50.46 306.37 45.84 291.61 38.28 284.78 32.9 278.01 28.54 265.5 19.61 262.76 15.99 254.58 10 264.46 10 275.35 18.03 280.1 22.15 288.64 27.59 291.76 30.48 298.49 34.12 312.69 42.48 321.54 46.66 333.95 53.03 335.99 52.55 349.84 57.15 361.8 63.42 374.88 68.93 386.19 73.18 392.15 74.47 401.29 72.9 407.33 78.82 413.35 81.34 419.66 83.02 427.68 84.19 436.59 84.82 456.92 83.79 448.9 79.63 447.42 82.29 439.32 82.23 434.39 79.93 431.2 79.42 428.65 80.74 424.53 80.27 424.77 75.91 422.06 74.94 411.05 76.82 408.16 75.68 407.19 73.5 416.59 72.21 417.11 70.61 408.2 67.56 397.81 62.37 388.17 58.89 384.17 55.74 374.94 50.79 369.24 53.46 367.58 51.03 368.69 48.97 360.83 44.85 353.41 38.42 342.24 33.04 323.63 25.41 317.68 23.36 304.47 20.31 301.29 20.05 281.01 14.03 274.68 11.8 271.65 10 322.52 10 347.55 21.38 347.96 22.64 360.77 29.47 366.04 31.77 383.91 41.43 391.85 44.6 404.12 48.48 407.61 49.11 416.16 52.16 428.17 54.34 434.37 55.9 443.56 60.06 444.27 61.24 466.54 67.84 470.14 68.07 483.82 67.58 497.54 66.25 500.74 63.64 503.34 66.49 506.35 65.46 515 67.44 523.35 67.62 530.32 66.17 532.2 67.56 540.95 70.11 552.03 72.23 570.6 77.58 590.02 80.15 596.73 81.97 602.22 82.68 627.08 88.5 638.05 90.74 647.65 93.71 664.67 97.41 674.11 99.94 681.62 101.23 697.51 106.95 705.35 107.11 715.78 108.65 727.62 112.97 731.7 113.56 747.53 118.55 751.53 118.08 770.85 120.69 783.81 123.4 783.81 136.1 756.7 131.24 735.04 128.47 732.75 127.54 720.22 125.46 706.1 121.84 683.63 117.48 674.53 116.18 666.89 116.37 669.32 120.99 672.57 120.95 673.16 123.3 665.82 122.19 648.48 115.54 636.48 109.84 632.9 111.05 626.7 108.58 614.57 102.8 609.9 100.04 602.37 96.78 599.15 96.24 617.04 108.32 629.91 115.42 636.66 118.16 650.28 122.19 661.31 127.2 678.19 137.48 689.61 143.28 699.33 146.58 709.33 148.9 716.26 149.95 725.66 150.58 737.62 153.1 742.84 154.74 759.35 156.9 776.1 159.37 783.81 159.52 783.81 172.32 Z M 648.18 106.62 649.39 104.72 637.14 100.99 632.03 101.73 648.18 106.62 Z" fill-rule="evenodd"/>
<path d="M 203.47 10 194.88 15 188.97 19.5 184.73 23.55 180.73 28.86 177.68 34.26 175.31 45.45 176.34 56.1 178.36 60.51 182.26 66.61 184.2 68.23 200.55 68.59 198.47 70.03 185.76 70.03 185.38 71.42 192.81 82.5 204.43 83.22 205.22 84.72 194.75 85.18 199.75 87.85 199.73 89.45 205.69 89.97 205.08 92.24 199.48 92.2 200.82 95.87 205.87 100.76 216.62 113.19 220.66 114.49 222.1 117.05 226.14 119.01 229.15 122.02 232.65 123.84 246 129.3 255.48 130.9 261.69 131.1 261.6 136.25 267.83 137.06 274.19 139.97 273.57 142.21 282.16 145.75 281.43 147.1 289.9 151.67 298.12 153.31 308.43 151 311.04 151.83 320.51 157.37 332.38 163.05 339.59 167.8 336.88 170.61 311.28 156.62 309.05 156.08 307.38 160.08 303.98 159.33 302.69 162.52 317.46 170.73 329.77 177.19 336.01 179.4 348.36 184.83 355.09 186.35 360.55 188.61 366.63 195.18 368.85 198.55 381.52 208.96 386.74 213.75 400.44 220.6 406.52 226.93 410.16 231.6 415.6 236.34 421.44 239.76 422.08 245.36 418.32 257.91 416.32 265.79 416.22 268.42 419.62 277.45 422.93 280.8 425.54 286.34 430.11 290.99 434.03 305.92 436.47 310.61 439.6 312.98 445.67 316.01 447.67 320.9 446.8 325.83 442.61 332.62 438.98 339.71 433.76 343.69 427.32 346.3 424.16 350.97 423.8 358.71 425.22 365.32 429.4 369.28 432.63 374.07 433.08 376.61 443.56 394.62 445.81 397.73 450.56 401.85 458.64 405.55 466.26 406.52 467.53 412.28 463.67 422.67 459.35 421.13 454.34 421.74 453.85 424.17 458.36 426.87 460.16 430.51 459.27 435.62 454.7 440.05 449.04 443.87 443.87 449.04 444.84 452.34 445.16 460.54 444.27 463.09 440.76 467.45 439.44 473.86 443.06 478 449.47 480.67 450.48 482.02 455.93 484.31 450.14 485 445.61 481.48 434.23 476.95 434.17 471.37 437.66 463.01 441.08 458.06 440.65 454.44 437.4 449.65 442.23 444.35 443.12 440.35 450.25 434.67 453.61 434.61 452.21 430.31 448.56 423.8 449.59 420.89 454.44 418.04 457.59 412.97 456.38 409.09 449.06 407.55 445.4 404.95 441.52 400.34 439.42 399.07 435.78 391.33 428.73 382.98 426.45 379.5 421.23 373.99 417.45 368.73 418 365.58 414.59 356.89 414.36 349.49 416.55 344.28 413.64 340.7 410.64 333.77 408.06 325.45 409.29 323.73 408.4 320.74 410.81 314.65 415.54 307.86 417.33 303.5 418.59 296.65 417.96 291.9 412.38 281.86 410.12 279.51 408.58 275.51 405.86 272.03 405.94 268.23 407.63 263.3 413.21 252.98 414.75 247.3 413.39 241.8 409.39 236.93 404.2 232.59 380.19 217.23 370.87 210.56 359.56 200.72 348.16 193.91 345.75 193.1 342.3 195.97 340.88 192.11 324.21 185.42 319.22 183.86 312.39 180.67 310.51 181.01 304.79 178.67 301.36 178.1 296.77 175.96 293.29 173.19 293.9 171.21 280.8 162.08 275.97 163.03 270.36 158.28 269.65 156.4 271.28 153.85 265.65 149.55 255.06 143.87 250.75 139.34 239.52 134.65 228.5 130.53 221.87 129.06 221.89 127.7 218.05 125.16 216.7 122.71 209.77 118.18 200.09 109.88 190.73 100.99 186.51 96.38 186.43 94.82 182.26 90.92 180.04 86.27 174.06 78.76 172.61 74.59 167.45 67.08 167.25 65.84 162.32 54.75 159.99 47.94 160.84 34.32 161.91 29.41 166.78 20.33 172 15.16 175.01 13.16 182.58 10 203.47 10 Z M 439.68 332.3 434.77 334.98 435.87 337.71 439.68 332.3 Z M 430.67 331.2 427.36 330.64 423.03 325.3 419.64 323.14 423.58 318.03 420 315.1 421.05 310.77 428.39 305.07 426.21 298.28 424.14 295.84 422.85 302.71 418.16 316.07 417.58 319.79 418.77 325.49 421.58 329.93 423.19 330.34 426.87 334.46 426.61 337.49 430.17 338.04 431.99 335.04 438.23 331.02 441.99 327.14 443.87 322.68 444.01 319.46 442.15 316.82 437.72 314.55 434.69 321.69 435.42 323.22 434.75 328.34 430.67 331.2 Z" fill-rule="evenodd"/>
<g/>
<g/>
<g/>
<g/>
<g/>
<path d="M 106.95 10 111.25 24.56 114.36 29.89 123.11 38.56 135.78 46.2 143.04 49.11 148.84 49.53 154.54 48.56 157.59 46.69 159.99 47.94 162.32 54.75 167.25 65.84 157.91 56.93 153.22 54.99 141.77 54.45 135.68 51.45 126.83 45.49 120.99 42.32 114.69 36.94 109.63 30.4 105.92 22.5 101.17 10 106.95 10 Z"/>
<g/>
<g/>
<g/>
<path d="M 18.42 485 18.59 483.05 18.39 482.37 16.8 480.63 16.19 480.43 18.27 480.59 19.26 482.87 18.42 485 Z"/>
<path d="M 735.06 485 728.71 478.41 724.85 477.5 724.65 476.59 729.26 477.36 730.93 478.16 737.75 485 735.06 485 Z"/>
<path d="M 719.57 485 719.74 484.49 719.72 483.84 719.39 483.76 719.23 483.05 720.41 479.17 724.65 476.59 724.85 477.5 723.72 477.64 722.51 478.49 721.05 485 719.57 485 Z"/>
<path d="M 139.34 420.95 136.39 419.3 131.88 420.06 131.36 418.16 139.08 419.03 139.44 420.73 139.34 420.95 Z"/>
<path d="M 460.22 122 459.59 122.69 459.81 120.37 461.45 119.34 461.91 119.11 462.5 118.85 462.9 118.65 469.65 113.68 472.16 109.53 472.2 106.85 471.76 104.81 471.27 103.19 470.89 101.47 471.27 99.49 471.53 99.92 473.27 106.4 473.39 108.3 473.21 109.6 473.15 109.72 472.89 110.99 471.9 112.69 471.35 113.09 469.05 115.74 468.14 116.55 466.28 118 465.51 118.51 463.71 119.52 462.52 120.12 461.21 121.03 460.76 121.46 460.22 122 Z M 223.55 10 223.59 10.03 223.92 10.37 224.76 10.69 224.8 11 224.54 11.3 224.93 11.95 225.35 12.84 226.76 15.73 228.12 17.02 229.11 18.31 229.37 17.97 228.44 16.61 227.69 15.66 228.62 16.17 230.32 19.24 229.78 18.55 229.33 18.64 232.79 25.65 233.62 25.69 233.11 27.79 232.52 30.7 231.49 33.21 230.32 35.33 230.18 38.12 230.22 38.9 231.23 42.02 232.52 45.31 233.9 49.25 233.37 49.43 231.43 49.43 230.28 52.69 232.02 54.22 232.36 56.75 227.35 59.3 226.3 60.14 226.02 60.77 236.16 66.93 237.6 67.76 245.74 71.72 246.49 71.8 254.07 73.52 258.57 75.79 258.31 75.24 251.66 70.81 254.13 72.33 257.36 74.21 259.89 75.56 262.62 76.53 270.94 77.79 272.05 78.35 276.38 82.15 282.02 84.05 291.9 85.22 300.3 88.8 309.28 89.53 315.38 91.73 316.03 91.91 317.93 93.12 318.27 93.43 321.3 94.76 324.82 96.36 327.1 97.27 328.41 97.47 333.93 99.19 343.25 99.57 343.94 101.21 344.66 102.18 349.92 102.89 355.51 104.7 359.29 105.96 362.37 107.17 371.04 109.96 376.35 109.29 377.87 112.14 379.26 112.3 386.25 114.79 387.75 115.15 396.28 115.84 402.24 118.61 407.19 117.68 410.14 118.39 418.14 121.92 419.13 121.82 422.35 119.72 423.07 119.19 428.65 120.06 439.85 123.44 442.43 124.47 448.41 126.27 454.64 126.11 454.9 125.98 456.15 125.16 456.92 124.21 458.07 125.58 457.49 126.31 451.65 127.64 445.97 126.81 428.71 121.3 426.47 120.1 425.52 119.74 425.32 119.66 424.73 119.82 423.46 120.29 422.08 121.8 418.73 123.05 411.51 120.39 409.43 119.42 406.62 119.13 403.47 119.86 392.19 116.47 385.2 115.8 377.85 113.27 376.75 112.99 375.02 112.71 374.57 112.55 371.7 111.66 371.24 111.58 371.02 111.54 370.55 111.25 369.54 110.89 368.79 110.5 366.53 109.94 366.17 109.74 363.03 108.81 362.49 108.58 361.94 108.65 361.48 108.38 361.09 108.34 360.77 108.06 359.78 107.72 359.17 107.41 355.76 106.1 353.41 105.23 351.55 104.56 350.73 104.44 348.87 103.9 347.47 103.55 346.12 103.41 343.13 103.45 341.75 103.35 340.96 103.37 338.58 102.95 337.61 102.62 333.14 101.09 332.3 101.01 330.92 100.78 330.52 100.64 329.81 100.4 329.18 100.18 328.03 100 326.13 99.69 322.21 97.85 319.08 95.63 312.55 91.57 310.07 90.68 308.19 90.32 305.32 90.15 296.99 88.96 290.2 85.69 283.09 85.16 276.44 83.14 272.38 79.67 270.98 78.8 260.78 77.06 259.7 77.08 259.85 77.3 260.59 77.36 262.78 78.33 268.9 80.25 271.71 82.72 267.04 80.09 262.23 79.2 259.04 77.32 257.22 76.53 254.45 74.63 252.89 73.79 250.77 73.22 249.05 73.18 242.35 71 241.46 70.88 226.04 61.98 224.64 60.31 230.95 55.13 228.79 51.86 227.47 50.85 228.26 49.92 227.92 47.78 228.32 49.7 228.56 50.54 228.42 50.89 228.79 50.99 229.76 49.25 231.49 48.65 232.71 47.21 229.03 42.6 228.93 43.47 229.23 43.71 229.94 45.55 230.08 46.04 227.88 46.16 227.73 45.65 228.32 44.36 228.12 43.67 228.36 43.37 227.51 42.66 228.5 42.16 229.17 42.42 229.55 41.59 228.24 38.02 228 36.6 228.14 35.91 227.88 34.32 228.91 33.61 229.11 32.94 231.13 32.09 232.1 28.46 231.25 28.4 231.53 28.09 232.1 28.11 232 25.85 229.07 20.15 225.67 16.15 224.4 13.32 224.2 12.84 224.1 12.61 223.67 12.11 223.23 11.44 222.76 11 223.55 10 Z M 229.8 33.87 229.23 33.77 228.24 34.32 228.56 35.47 228.6 35.97 228.32 36.92 228.46 37.47 229.01 37.71 229.8 33.87 Z" fill-rule="evenodd"/>
<path d="M 405.67 464.08 406.14 464.04 408.95 464.28 409.27 464.16 410.42 464.24 410.5 464.32 410.62 464.46 412.42 464.58 414.61 463.75 414.73 463.43 424.41 461.13 425.56 460.62 425.32 461.75 425.05 462.95 424.73 463.29 424.51 463.51 424.63 463.84 423.03 464.93 422.99 465.03 421.74 465.45 418.43 467.33 415.01 467.8 413.35 467.88 410.52 466.42 408.12 467.88 407.45 468.24 406.66 468.46 406.24 468.42 405.21 467.29 404.6 466.62 404.16 466.85 400.72 468.85 400.56 469.11 400.14 469.05 400.03 469.62 400.36 470.12 400.3 470.65 400.7 470.97 401.17 470.99 401.51 470.73 401.65 470.63 401.65 470.3 401.89 470.26 403.39 470.5 403.89 470.67 404.3 470.79 404.58 470.87 404.68 470.81 404.86 470.71 406.28 471.19 406.62 471.49 407.39 471.92 407.53 471.94 408.02 471.98 408.52 472.18 408.87 472.16 409.41 472.14 410.6 472.38 410.71 472.53 410.77 472.59 410.99 472.65 411.59 472.79 412.73 472.91 412.83 472.91 412.97 472.93 412.99 472.93 413.31 472.95 413.41 472.97 413.62 473.03 413.8 473.09 413.98 473.07 414.54 473.01 415.03 473.03 415.43 473.05 415.51 473.05 416.75 473.05 417.11 473.13 417.37 473.09 417.5 473.07 417.78 473.03 418.2 472.71 422.26 472.89 421.66 473.84 421.62 473.78 421.46 473.6 419.8 473.9 419.82 474.12 419.84 474.2 418.06 474.67 418.12 474.91 417.84 475.07 417.21 475.48 416.83 475.44 416.08 475.35 415.47 474.79 414.95 474.71 413.51 474.53 410.22 475.27 403.96 474 399.41 473.94 397.63 473.45 397.25 473.52 396.7 473.82 396.05 473.96 395.43 474.18 395.33 474.22 394.62 474.47 394.32 474.08 394.21 473.76 394.19 473.74 394.13 473.52 393.71 473.19 393.39 472.95 392.86 472.57 391.59 471.64 390.58 471.53 389.83 471.74 389.14 472.38 388.09 472.26 387.34 472.34 386.74 472.69 385.91 472.63 384.17 472.2 382.27 472.38 381.42 472.75 380.8 473.33 380.07 473.68 378.41 474.49 372.61 476.81 372.19 476.91 372.03 477.52 371.22 477.52 369.7 477.5 364.87 478.45 363.46 478.73 363.25 479.03 361.68 481.26 357.8 482.51 356.61 482.91 355.78 482.53 355.23 481.7 350 482.75 348.66 483.56 344.97 484.19 344.34 484.41 344.36 484.71 343.96 484.89 343.17 484.99 343.15 485 318.49 485 318.55 484.49 319.28 484.19 319.44 484.15 320.35 483.88 320.96 483.5 321.52 482.69 321.71 482.43 322.57 482.16 322.98 482.18 323.1 482.21 324.21 481.82 324.78 481.54 325 481.44 325.02 481.42 325.14 481.36 325.79 481.24 325.99 481.15 326.52 480.93 326.68 480.71 327.1 480.41 327.38 480.31 327.59 480.22 327.79 480.16 327.93 480.14 328.19 480.12 329.24 479.8 329.36 479.76 329.45 479.74 329.69 479.66 330.05 479.36 330.52 479.38 330.96 479.34 332.13 479.07 333.47 478.93 333.89 478.87 334.42 478.59 337.93 478.2 338.32 478.1 338.78 478.14 338.94 478.16 339.17 478.18 339.61 478.22 339.83 478.24 340.76 478.18 341.05 478.04 341.77 477.7 341.95 477.62 341.91 477.54 343.03 476.95 343.29 476.81 343.25 476.3 343.98 476.28 344.18 476.53 344.28 476.65 344.68 476.55 344.97 476.49 345.73 476.59 346.66 476.57 346.64 476.53 346.58 476.41 346.93 475.96 347.01 475.84 347.55 475.7 348 475.6 348.38 475.07 348.64 474.85 348.99 474.55 349.27 474.42 351.37 474.12 351.53 474 351.98 473.98 352.28 473.96 353.27 474.16 353.92 474.18 355.49 474.49 356.61 474.26 356.91 474.24 356.99 474.22 357.54 474.18 358.34 474.24 358.95 474.18 359.01 474.18 359.29 474.14 359.62 474.12 360.04 474.18 360.71 474 360.83 473.96 361.15 474.16 361.19 474.42 361.6 474.45 361.88 474.47 362.65 474.4 362.93 474.38 362.95 474.32 363.15 473.78 363.4 473.64 363.52 473.58 363.6 473.54 364.2 473.8 364.27 473.84 364.29 473.86 364.39 473.92 364.67 474.14 365.19 474.1 365.48 473.74 365.3 473.54 365.07 473.27 364.83 472.99 364.02 472.65 364.49 472.12 365.19 471.94 365.5 471.72 365.58 471.66 365.84 471.47 366 471.33 366.65 471.17 367.05 471.11 367.28 470.99 367.84 470.69 367.98 470.61 368.59 470.4 369.5 470.22 369.78 469.94 370.09 469.59 370.51 468.44 370.65 466.56 371.06 466.48 372.05 466.64 372.13 466.81 372.17 466.87 372.31 467.15 372.33 467.17 372.43 467.37 372.75 467.72 372.96 467.92 373.24 467.98 373.58 467.9 373.76 467.84 373.95 467.8 374.13 467.76 374.63 467.17 375.14 466.91 375.85 466.1 376.01 465.71 376.45 465.29 377.28 464.99 377.72 465.09 377.99 465.15 378.13 465.19 378.15 465.19 379.22 465.45 379.48 465.59 380.35 466.08 380.65 466.14 381.22 466.24 381.36 466.22 381.67 466.2 381.79 466.18 382.19 466 382.33 465.92 382.68 465.76 383 465.82 383.34 466.32 383.67 466.4 383.71 466.4 383.91 466.46 384.25 466.34 385.18 466.28 385.32 466.12 385.36 466.06 385.38 466.04 386.03 465.31 386.05 465.27 386.45 465.19 387.04 465.09 387.44 464.81 388.07 464.66 388.68 464.66 389.2 464.87 390.35 465.09 390.46 465.11 390.64 465.23 391.06 465.43 391.89 465.43 391.95 465.39 392.56 465.01 392.6 464.89 393.2 464.38 393.49 464.52 393.69 464.83 393.73 464.89 393.83 465.03 394.09 466.26 394.32 466.34 394.96 466.6 396.88 466.68 397.12 466.77 398.5 465.94 398.7 465.82 398.96 465.76 399.23 465.69 400.32 465.45 401.03 465.25 401.43 465.13 401.53 465.07 401.55 465.05 401.81 464.89 401.98 464.3 402.04 464.24 402.44 464.93 402.4 465.25 403.25 465.29 404.36 465.33 404.66 465.63 405.69 466.87 405.69 466.99 405.96 467.17 406.12 467.27 406.5 467.19 408.2 466.75 408.62 466.91 408.93 466.66 409.8 465.67 409.92 465.19 405.67 464.08 Z"/>
<path d="M 224.1 37.39 222.97 31.33 223.89 27.87 228.18 25.63 229.51 27.81 226.36 29.93 225.77 34.6 224.1 37.39 Z"/>
<path d="M 462.4 129.34 463.09 128.75 475.76 133.68 483.46 135.85 494.33 137.16 503.83 137.69 512.5 135.42 513.75 137.6 513.14 137.32 511.89 136.23 507.55 137.81 502.45 138.33 494.03 137.79 483.64 136.43 477.54 135.02 462.4 129.34 Z"/>
<g/>
<path d="M 622.29 160.64 625.44 159.85 631.06 160.8 632.7 163.84 624.33 162.12 622.29 160.64 Z"/>
<path d="M 558.13 147.57 564.55 147.97 570.98 149.73 571.87 151.12 560.84 149 558.13 147.57 Z"/>
<g/>
<g/>
<g/>
<g/>
<path d="M 439.68 332.3 435.87 337.71 434.77 334.98 439.68 332.3 Z"/>
<path d="M 556.73 269.08 556.84 273.53 551.94 273.63 551.84 269.12 556.73 269.08 Z"/>
<g/>
<path d="M 165.11 382.11 168.3 379.73 171.27 379.63 171.17 382.43 167.07 385.36 160.3 387.37 161.98 384.01 165.11 382.11 Z"/>
<g/>
<path d="M 87.73 277.83 93.22 276.08 93.47 278.12 87.73 277.83 Z"/>
<path d="M 434.94 352.44 432.03 351.31 435.85 345.51 439.75 343.07 444.19 342.2 447.38 345.59 445.24 350.65 442.19 352.42 436.73 353.25 434.94 352.44 Z"/>
<g/>
<g/>
<g/>
<path d="M 139.34 420.95 139.44 420.73 147.14 425.12 149.73 425.4 149.73 425.58 145.91 425.42 142.05 423.94 139.34 420.95 Z"/>
<g/>
<path d="M 360.97 80.21 365.07 82.17 362.45 84.58 359.07 81.95 360.97 80.21 Z"/>
<path d="M 246.73 147.59 244.69 151.27 241.98 150.26 246.73 147.59 Z"/>
<path d="M 79.4 434.35 84.19 434.86 84.84 437.54 80.68 438.19 79.4 434.35 Z"/>
<path d="M 503.12 140.84 510.92 142.05 510.19 143.99 505.12 142.52 488.33 140.27 488.06 139.44 503.12 140.84 Z"/>
<path d="M 292.65 66.17 293.25 65.94 282.38 63.34 279.15 63.34 277.67 61.76 278.12 61.58 280.24 62.65 286.08 63.38 288.7 63.82 292.2 63.68 293.09 64.77 293.68 64.63 293.17 63.18 288.91 63.52 284.42 62.95 282.7 62.06 283.53 59.7 286.66 58.61 291.01 58.63 289.35 59.15 291.17 62.25 301.6 60.33 310.11 59.74 315.06 61.62 320.67 65.74 322.13 65.58 324.27 67.94 323.95 68.69 324.03 76.35 322.82 77.32 321.48 78.39 316.82 78.84 314.49 73.91 312.55 72.75 304.29 70.85 298.83 73.6 299.05 74.07 301.11 74.43 302.83 76.15 310 78.47 314.53 80.88 312.33 84.94 307.03 84.52 308.51 87.37 302.18 87.61 290.64 83.79 280.92 82.33 276.15 80.27 274.07 77.75 277.06 73.42 275.73 71.87 274.66 71.99 272.74 73.18 272.36 73.91 272.44 75.46 270.46 75.3 269.83 75.22 265.85 75.79 257.79 72.39 263.24 67.62 266.35 63.36 268.48 62.87 273.77 64.57 277.27 66.53 284.36 65.86 287.03 64.81 292.65 66.17 Z"/>
<path d="M 269.1 59.68 269.16 60.63 276.56 59.86 278.12 61.58 277.67 61.76 276.26 60.43 275.21 60.31 272.9 60.29 270.05 61.62 265.87 61.5 266.11 62.14 260.82 58.73 257.83 58.61 251.7 56.28 234.93 47.53 236 47.49 235.62 47.11 235.07 43.9 235.74 43.67 232.67 41.96 231.23 41.03 232.14 38.36 232.12 40.26 237.96 43.69 240.65 41.51 238.49 37.23 239.94 34.44 240.41 34.36 241.05 34.03 241.23 34.4 241.6 41.41 238.65 44.56 242.55 45.53 242.95 43.27 241.86 35 244.87 34.86 246.47 35.99 248.81 35.21 251.1 39.65 255.34 40.48 257.18 40.08 262.59 40.14 262.98 43.23 261.34 43.25 258.51 43.45 255.74 43.82 252.71 48.91 259.56 49.09 264.15 49.68 270.27 47.57 266.78 46.32 266.6 45.35 268.84 44.81 269.18 45.8 270.9 45.19 274.11 44.89 279.33 45.21 289.65 51.37 292.91 56.59 280.98 58.85 276.62 58.04 276.84 55.13 276.7 53.88 273.91 53.29 273.16 53.76 272.98 54.34 270.8 54.89 266.88 55.62 264.92 55.56 262.25 57.7 264.58 58.31 269.1 59.68 Z"/>
<path d="M 445.2 464.79 446.78 465.35 448.25 471.64 445.57 471.98 444.29 468.6 445.2 464.79 Z"/>
<g/>
<g/>
<g/>
<path d="M 482.12 333.79 479.72 334.42 482.14 338.26 479.88 339.09 477.13 337.17 478.2 334.66 482.12 333.79 Z"/>
<path d="M 648.18 106.62 632.03 101.73 637.14 100.99 649.39 104.72 648.18 106.62 Z"/>
<g/>
<g/>
<path d="M 100.66 21.71 95.77 20.01 94.78 17.32 97.69 16.88 100.66 21.71 Z"/>
<path d="M 98.16 14.21 95.87 15.42 90.5 15.99 91.53 13.14 83.97 10 98.18 10 100.06 12.94 98.16 14.21 Z"/>
<path d="M 321.02 92.2 317.48 90.42 319.99 88.27 323.32 89.89 321.02 92.2 Z"/>
<path d="M 295.58 52.12 300.28 53.27 296.97 55.11 295.58 52.12 Z"/>
<path d="M 323.63 89.95 326.66 91.35 324.56 94.14 321.26 92.18 323.63 89.95 Z"/>
<g/>
<path d="M 326.54 91.08 320.37 87.85 326.72 83.67 326.54 91.08 Z"/>
<g/>
<g/>
<g/>
<g/>
<g/>
<g/>
<g/>
<path d="M 239.98 476.81 242.61 474.79 242.51 473.96 243.28 473.29 242.02 471.62 242.49 471.15 241.64 470 241.72 469.49 242.59 467.55 242.49 464.58 239.4 462.68 234.5 458.08 227.41 457.73 224.84 455.77 225.47 452.7 223.75 451.31 223.89 450.3 224.54 450.32 224.34 449.81 224.34 449.39 223.45 449.55 223.27 449.12 222.3 448.9 222.16 448.7 219.79 448.68 219.04 447.89 216.52 448.36 211.73 446.62 210.76 445.99 210.27 446.4 209.3 446.8 207.61 446.7 208.07 445.81 207.99 444.94 207.1 443.69 207.95 443.08 208.01 443.2 207.49 443.63 208.01 444.66 208.25 445.93 208.03 446.72 209.22 446.7 210.15 446.35 210.5 445.73 211.55 446.48 212.15 446.27 216.42 448.23 217.39 447.51 219.09 447.75 219.95 448.62 221.77 448.44 222.36 448.78 223.35 448.96 223.47 449.26 224 449.33 224.34 449.2 224.58 449.43 224.78 450.11 223.87 451.2 226.6 453.55 225.65 455.53 227.55 457.55 236.18 457.47 237.03 460.12 239.21 460.8 240.08 462.66 242.24 464.08 242.95 465.23 242.77 467.47 244.35 468.71 243.28 469.49 242.45 469.29 241.74 469.96 242.69 471.05 242.24 471.53 243.23 472.79 244.1 472.85 244.41 473.33 243.21 473.45 242.63 474.1 242.79 474.81 240.16 476.81 239.98 476.81 Z"/>
<path d="M 208.01 443.2 207.95 443.08 206.21 439.71 197.12 432.33 193.8 433.3 191.86 432.69 190.87 431.78 188.75 433.02 184.81 431.78 183.8 430.39 181.78 430.47 178.95 428.57 178.89 428.49 178.04 427.28 179.84 426.49 181.88 423.8 182.2 421.92 182.43 421.94 182.22 423.6 178.79 427.94 180.51 428.37 181.92 430.37 183.21 430.13 183.86 430.27 184.69 430.94 184.89 431.6 189.6 431.2 191.06 431.7 193.36 433.04 197.08 432.17 201.83 434.35 201.95 435.81 207.49 440.09 208.01 443.2 Z"/>
<path d="M 149.73 425.58 149.73 425.4 157.85 425.8 159.81 427.92 164.18 430.33 165.92 430.98 166.99 430.13 170.02 429.4 171.61 430.77 172.71 429.99 174.89 429.22 178.89 428.49 178.95 428.57 172.73 431.02 171.55 430.85 170.93 430.59 170.02 429.52 166.85 430.39 165.75 431.28 164.58 431.42 164.08 430.41 159.69 428.03 157.97 426.55 150.88 426.39 149.73 425.58 Z"/>
<g/>
<path d="M 242.51 485 242.73 483.8 244.25 482.65 243.64 481.98 243.74 481.58 244.45 481.13 244.69 480.61 242.28 477.52 239.98 476.81 240.16 476.81 242.31 477.33 244.67 479.56 244.89 480.65 244.55 481.38 243.82 481.74 244.49 482.41 242.51 485 Z"/>
<g/>
<path d="M 747.73 178.49 748.39 176.28 755.43 177.9 753.81 179.36 747.73 178.49 Z"/>
</g>
</svg>