<?xml version="1.0"?>
<svg xmlns="http://www.w3.org/2000/svg" version="1.2" baseProfile="tiny" width="800" height="570" viewBox="0 0 800 570" stroke-linecap="round" stroke-linejoin="round">
<defs>
    <style>
        :root {
            --water-color: #9FC9EA;
            --bg-color: #F2E7D3;
        }
    
        svg {
            background: var(--bg-color, #ffffff);
        }
        path, polygon, rect, circle {
            fill: var(--water-color, #3b82f6);
            stroke: none;
        }
    </style>
</defs>
<g id="water">
<g/>
<g/>
<path d="M 765.27 450.76 764.58 447.57 765.27 450.74 765.27 450.76 Z M 748.85 548.03 748.76 548.07 748.76 548.05 748.85 548.03 Z" fill-rule="evenodd"/>
<g/>
<path d="M 83.79 261.65 75.3 266.73 63.8 265.75 55.79 266.59 48.23 270.14 37.24 269.73 34.73 267.16 46.41 267.55 49.51 265.79 57.43 264.86 63.71 262.65 75.03 262.97 77.16 257.12 81.17 254.73 83.79 261.65 Z"/>
<path d="M 117.69 96.97 121.35 96.4 125.99 91.62 126.45 88.94 133.39 92.65 140.38 92.79 144.8 90.44 143.68 86.64 137.63 80.31 131.12 76.14 125.58 69.25 121.44 66.49 120.37 60.03 116.25 58.82 117.8 56.5 124.49 59.82 125.31 64.58 133.42 72.78 141.5 79.24 144.46 80.77 149.76 86.21 150.9 88.8 159.53 91.37 162.01 91.47 160.87 84.43 161.19 79.9 163.24 80.11 163.33 83.86 165.95 90.99 168.27 91.58 170.18 96.2 172.75 98.64 175.67 103.42 174.62 104.99 169.22 104.94 161.19 101.98 156.54 102.89 157.09 100.14 154.86 98.34 150.06 97.75 147.67 96.36 142.59 99.25 132.85 99.32 128.59 97.77 118.55 101.85 113.82 104.26 109.56 107.9 107.33 110.91 102.46 114.64 94.47 117.69 81.33 116.53 76.21 117.89 69.54 117.37 78.39 113.68 82.9 113.41 89.18 114.5 94.76 114.18 99.72 112.5 103.78 110.13 107.56 103.17 117.69 96.97 Z"/>
<path d="M 756.02 272.08 755.88 271.92 758.86 266.45 759.25 266.41 759.91 266.73 760.32 266.7 760.55 266.39 762.01 266.7 765.27 267.01 765.27 273.85 756.02 272.08 Z M 765.27 291.63 758.71 288.24 734.78 279.18 724.95 276.04 726.77 272.12 727.38 272.24 728.57 272.94 731.18 273.85 747.73 280.25 757.45 283.73 765.27 287.63 765.27 291.63 Z" fill-rule="evenodd"/>
<path d="M 758.59 266.27 758.86 266.45 755.88 271.92 755.38 271.87 744 268.18 742.06 266.34 732.75 262.11 730 261.26 715.43 255.76 710.06 253.84 697.58 250.38 694.31 249.84 688.75 249.31 677.53 247.45 665.92 244.74 651.92 243.1 650.21 242.92 645.45 241.57 644.43 241.07 641.4 239.57 635.21 237.13 624.99 233.56 623.26 232.97 616.5 230.83 607.55 229.03 603.68 228.78 603.29 229.23 615.24 236.95 618.04 238.32 620.18 239.52 622.78 240.75 624.87 241.44 625.37 241.55 635.46 244.03 637.78 244.51 640.26 245.06 642.06 245.56 644.04 246.08 644.61 246.22 647.09 247.38 647.23 247.63 647.62 247.83 651.74 250.16 652.92 250.88 653.65 251.54 660.48 255.66 676.82 261.26 677.8 261.36 679.21 261.76 679.78 261.63 680.76 260.76 682.9 260.85 683.22 260.99 683.45 261.06 682.88 261.45 682.26 261.63 681.65 262.02 681.38 262.17 681.63 262.86 682.29 262.9 683.06 263.18 684.11 263.27 684.54 263.24 687.73 263.75 688.45 263.93 688.75 263.95 690.14 264.16 691.98 264.36 696.33 265.11 698.7 265.29 704.66 266.64 705.44 266.89 726.47 271.67 726.77 272.12 724.95 276.04 713.52 272.71 701.09 269.57 681.85 265.98 672.77 263.77 655.42 257.64 653.53 256.73 644.27 251.73 631.13 246.44 622.89 244.33 619.68 242.85 619.27 242.92 616.41 241.71 612.15 239.68 594.17 228.03 588.95 225.39 584.44 223.61 578.57 220.77 578.12 220.65 577.52 220.42 576.89 220.11 575.84 219.83 574.54 219.15 572.24 218.35 568.74 217.1 567.76 216.81 565.91 216.37 564.71 216.03 563.93 215.89 563.57 215.78 562.77 215.51 562.73 215.17 561.27 214.69 561.04 214.73 559.93 214.39 558.36 213.94 548.68 210.27 548.61 202.28 554.28 203.81 558.31 204.92 559.31 205.26 560.95 205.65 563.57 207.31 568.9 208.91 569.76 209.36 570.74 209.66 574.82 209.82 587.15 214.07 588.16 214.55 589.52 215.19 590.14 215.44 590.41 215.55 592.43 216.4 593.53 216.94 594.12 217.37 594.92 217.58 595.9 218.1 603.5 219.95 604.18 219.97 605.07 220.4 605.75 220.72 606.82 220.79 607.57 221.09 607.76 221.15 609.6 221.72 609.71 221.79 610.17 222.02 611.15 222.29 613.29 223.02 614.22 223.25 614.38 223.45 614.72 223.89 615.4 223.82 616.43 224 616.93 224.09 618.89 224.68 620.21 225.11 621.1 225.25 622.01 225.46 633.27 228.3 636.51 230.35 639.65 231.56 654.76 238.16 655.47 238.32 655.79 238.41 657.56 238.84 658.09 239.05 659.2 238.98 660.8 239.39 661.07 239.62 661.59 239.55 661.78 239.14 661.96 238.75 665.87 239.25 666.99 239.39 671.38 240.25 672.47 240.43 672.91 240.5 673.84 240.75 677.53 241.46 679.05 241.94 680.21 242.1 681.24 242.46 681.97 242.6 688.86 244.3 689.78 244.65 690.82 244.83 691 244.44 691.3 244.24 691.46 244.15 698.11 244.35 702.14 245.6 704.55 245.88 710.31 247.2 711.95 247.97 712.72 248.54 718.39 249.79 744.14 259.81 745.02 259.92 746.57 260.47 747.12 260.65 752.65 262.61 753.86 263.02 757.41 264.41 757.02 265.07 757.27 265.34 757 265.63 756.88 265.75 758.59 266.27 Z"/>
<path d="M 765.27 439.31 764.65 440.81 764.85 442.42 765.27 450.74 764.58 447.57 764.62 446.91 764.28 445.11 764.08 443.79 764.51 439.21 764.74 439.1 764.76 439.08 765.12 438.92 765.01 438.51 765.27 439.31 Z M 765.27 479.23 762.89 480.42 762.58 480.37 761.62 480.78 760.82 481.14 760.46 481.44 760.19 481.65 759.93 482.26 760.03 483.79 760.89 488.16 763.51 495.12 763.21 497.44 758.91 499.4 755.84 500.61 738.04 503.79 733.71 508.64 733.3 510.44 732.62 513.99 733.6 517.13 735.92 517.5 736.74 517.5 747.71 515.25 753.2 514.61 759.68 514.93 762.26 515.97 764.37 518.66 764.44 518.77 765.27 525.1 763.24 529.72 759.71 532.64 756.88 533.07 756.25 533.27 755.59 533.48 755.27 533.46 755.02 533.46 754.38 533.57 751.44 536.42 749.92 541.58 749.26 543.36 748.94 545.02 748.99 547.23 748.85 548.03 748.76 548.05 748.44 548.28 744.75 549.21 743.73 549.1 738.51 548.66 737.17 549.21 736.58 549.62 732.98 553.15 732 553.79 730.98 554.1 725.24 555.79 717.71 560 718.05 559.7 719.87 558.66 720.12 558.59 720.21 558.38 720.32 558.13 723.47 555.95 729.95 553.94 731.39 553.53 732.64 552.81 734.69 550.85 736.37 549.16 739.67 548.05 742.54 548.5 743.07 548.48 744.75 548.64 747.37 548.16 748.37 547.48 748.58 546.73 748.28 544.63 751.19 535.23 754.2 533.25 755.34 532.93 761.37 531 761.73 530.25 763.78 527.7 764.69 520.89 762.67 517.2 757.73 515.06 756.52 515.15 755.09 515.22 752.9 515.15 745.43 516.34 740.47 517.48 733.6 517.91 731.87 515.22 732.87 509.01 733.14 508.33 733.21 508.23 735.76 504.71 737.28 503.45 740.04 502.7 744.16 502.13 749.3 500.9 754.84 500.33 759.12 498.7 761.94 497.74 762.44 497.35 762.6 496.97 762.78 496.58 762.8 496.53 762.83 496.49 762.85 496.4 762.92 496.28 762.96 496.17 763.03 495.42 762.94 495.21 762.89 495.14 762.78 494.85 760.05 487.77 759.62 485.9 759.59 485.72 759.55 485.24 759.23 482.76 759.32 482.53 759.87 481.49 760.21 481.19 760.59 480.89 761.32 480.55 762.58 479.98 763.05 479.78 765.27 479.23 Z" fill-rule="evenodd"/>
<path d="M 624.08 507.71 624.21 507.87 623.3 508.55 622.21 508.71 619.66 508.17 618.84 507.62 618.59 506.87 618.68 504.41 615.11 500.04 610.92 493.48 614.93 486.33 611.58 482.9 606.87 480.89 602.13 482.9 597.12 483.19 594.92 484.15 593.23 482.53 593.3 480.12 593.41 479.87 594.83 483.92 597.03 483.03 602.11 482.72 607.03 480.64 611.65 482.65 615.22 485.97 611.37 494.07 618.93 504.34 618.98 507.53 620.44 508.12 623.12 508.35 624.08 507.71 Z"/>
<g/>
<path d="M 536.43 198.3 537.35 198.73 548.61 202.28 548.68 210.27 540.85 207.79 536.69 206.56 534.32 204.72 530.24 203.65 522.94 197.87 519.68 194.22 515.95 188.85 511.46 181.61 505.59 175.85 496.05 168.43 477.86 156.37 467.71 146.92 467.32 146.58 465.57 144.51 456.05 135.88 444.74 122.9 429.28 101.85 424.16 91.83 424.75 89.37 423.57 85.18 421.11 80.97 418.11 68.29 418.31 60.19 418.06 47.96 422.29 26.13 421.92 10 431.67 10 431.4 12.47 432.24 24.61 432.22 28.36 429.15 36.47 427.05 48.92 426.94 58.34 427.44 66.99 428.03 70.66 428.65 75.78 432.42 85.16 433.27 89.05 436.07 95.49 439.6 101.53 444.44 107.17 445.15 107.97 449.13 112.89 452.28 117.23 460.33 128.87 466.02 134.33 477.91 146.9 486.01 151.77 489.24 152.02 493.21 153.5 501.61 157 509.69 167.11 514.81 174.03 519.61 179.97 522.53 184.66 526.96 190.92 530.95 194.95 536.43 198.3 Z"/>
<g/>
<g/>
<g/>
<path d="M 238.15 160.44 244.51 159.67 252.36 160.76 252.09 164.01 250.06 164.93 244.1 163.29 242.75 159.99 238.15 160.44 Z"/>
<g/>
<g/>
<g/>
<path d="M 624.21 507.87 624.08 507.71 626.06 505.91 626.56 505.82 629.06 506.89 629.91 507.82 630.29 509.33 628.22 513.95 629.31 514.99 629.61 517.18 632.52 518.05 641.65 517.79 645.13 518.66 649 520.3 652.87 520 657.24 515.29 657.43 515.18 652.69 520.5 649.48 520.59 646.71 520.09 644.52 518.66 639.85 517.91 632.32 518.25 629.61 517.43 629.06 516.95 627.88 513.88 628.72 512.58 629.91 508.55 628.45 506.71 626.15 506.07 624.21 507.87 Z"/>
<g/>
<g/>
<path d="M 290.4 471.4 294.43 473.15 291.6 475.16 288.58 473.56 290.4 471.4 Z"/>
<path d="M 593.41 479.87 593.3 480.12 585.08 481.39 583.78 484.47 585.51 485.92 585.72 486.74 584.85 487.91 581.64 490.77 582.26 492.05 576.23 500.97 575.04 506.78 573.54 508.83 570.29 508.69 569.06 507.87 568.35 501.81 561.61 502 554.44 506.16 547.29 508.99 540.76 510.01 540.58 509.69 540.92 509.65 544.7 509.35 555.22 505.62 561.63 501.77 566.44 500.86 568.6 501.75 569.33 507.64 572.86 508.78 575.04 505.91 575.66 501.43 581.85 492.07 581.44 490.73 585.54 486.49 583.63 484.65 585.1 481.14 593.41 479.87 Z"/>
<g/>
<g/>
<g/>
<path d="M 613.15 304.72 612.83 304.81 612.79 297.69 613.86 297.25 616.16 297.3 617.23 296.55 621.21 295.91 620.05 291.38 616.2 289.08 615.36 287.49 612.58 286.65 609.6 287.22 607.57 284.19 607.5 282.89 607.98 281.68 610.87 279.57 611.6 279.82 607.8 282.23 608.17 284.96 609.69 287.08 612.35 286.44 616.2 287.69 616.5 288.95 619.18 290.27 621.55 292.88 622.03 295.84 617.13 296.91 616.84 297.37 613.51 297.53 612.85 300.28 613.15 304.72 Z"/>
<path d="M 748.76 548.05 748.76 548.07 748.44 548.28 748.76 548.05 Z"/>
</g>
</svg>