<?xml version="1.0"?>
<svg xmlns="http://www.w3.org/2000/svg" version="1.2" baseProfile="tiny" width="800" height="848" viewBox="0 0 800 848" stroke-linecap="round" stroke-linejoin="round">
<defs>
    <style>
        :root {
            --water-color: #9FC9EA;
            --bg-color: #F2E7D3;
        }
    
        svg {
            background: var(--bg-color, #ffffff);
        }
        path, polygon, rect, circle {
            fill: var(--water-color, #3b82f6);
            stroke: none;
        }
    </style>
</defs>
<g id="water">
<path d="M 200.94 10.46 203.16 21.89 209.41 37.54 212.41 55.85 212.33 62.89 213.61 81.89 216.23 87.62 216.45 97.99 214.58 106.05 210.44 116.68 206.79 130.34 198.18 144.15 188.68 153.5 184.18 153.56 175.94 149.71 170.98 148.96 161.3 157.58 160.53 162.11 156.57 164.59 154.38 171.02 155.88 177.72 154.38 186.3 156.02 188.66 159.13 198.99 156.82 207.66 165.24 213.91 169.73 214.52 172.99 218.29 171.86 220.97 179.55 229.6 181.74 234.35 188.22 235.85 194.1 241.17 202 254.1 207.18 266.22 212.03 290.98 213.37 323.58 212.05 334.99 227.27 333.36 222.97 331.03 220.29 325.18 224.1 312.86 228.39 317.13 233.64 315.26 225.63 307.71 221.14 307.73 216.88 296.67 218.16 287.69 223.37 289.07 223.03 283.15 218.36 286.39 214.69 278.03 214.75 274.85 221.61 269.65 231.55 270.42 237.42 274.16 240.3 286.09 242.78 291.43 248.66 293.74 252.54 291.69 257.23 280.39 257.15 273.91 265.72 267.21 269.23 263.15 279.6 261.81 285.61 267.6 296.87 265.28 296.14 262.59 290.19 263.01 288.02 259.58 296.39 258.26 301.3 260.54 302.37 265.93 299.15 272.06 303.88 277.2 301.38 280.06 302.76 284.3 300.95 288.61 296.08 290.98 296.75 295.53 300.67 303.61 301.3 309.29 292.61 307.14 285.73 302.76 281.93 297.84 292.53 299.39 292.47 295 287.98 289.74 287.21 285.32 295.68 280.06 294.4 274.18 287.64 273.49 284.63 276.47 276.51 289.89 269.37 304.93 261.41 311.26 263.58 312.99 271.85 313.39 278.24 317.39 280.07 313.59 275.38 309.31 280.78 308.42 287.43 318.45 298.38 320.52 285 325.25 284.92 322.34 265.88 317.55 258.45 319.72 251.73 313.9 245.48 317.27 238.7 318.89 237.07 324.72 243.35 323.7 251.38 329.43 251.91 333.08 240.61 334.52 236.65 332.74 234.21 336.25 229.75 338.28 281.41 332.15 288.45 335.84 237.2 341.93 237.28 340 214.38 340.59 214.52 349.42 213.14 358.07 209.47 360.5 209.57 377.9 205.53 388.54 205.59 392.43 208.15 399.37 203.14 403.13 205.15 408.35 204.96 414.96 208.21 422.19 206.44 424.36 207.44 433.5 208.92 436.46 208.15 444.94 209.27 449.96 208.49 456.15 210.26 457.98 213.67 467.33 213.51 470.5 219.35 477.18 220.23 489.48 229.89 513.73 230.76 523.27 234.56 526.5 241.8 524.03 246.07 519.13 247.69 513.23 246.61 505.94 243.1 493.66 244.54 490.49 252.52 484.55 244.83 481.16 241.34 475.35 240.44 467.27 241.76 456.55 247.37 447.89 246.15 439.08 246.41 432.26 248.12 425.9 252.32 419.23 258.43 416.77 262.12 418.92 265.47 414.6 270.73 417.4 271.18 422.29 261.05 430.51 263.26 431.4 275.56 422.96 280.11 418.21 274.91 417.76 265.23 412.12 265.59 406.4 273.45 405.02 285.34 410.9 290.3 398.44 292.59 389.51 303.57 379.12 301.07 376.23 304.1 372.09 307.89 376.6 307 379.64 295.35 391.4 294.17 398.3 311.1 396.86 321.39 396.92 322.73 402.44 330.69 404.67 344.96 406.34 345.08 404.47 331.56 402.54 331.2 399.15 344.92 400.08 349.32 397.32 351.78 400.75 360.26 403.21 362.07 399.94 371.14 400.73 375.24 406.36 375.14 425.13 368.63 425.13 370.82 432.18 375.43 430.41 377.96 436.5 387.63 438.02 406.73 451.15 399.89 453.63 413.06 462.72 419.17 461.87 437.11 472.77 439.67 475.68 446.21 475.61 447.95 480.2 453.88 479.71 462.4 487.69 465.43 486.68 485.89 511.05 477.69 518.65 484.51 517.98 487.68 541.83 478.58 542.78 481.28 553.84 484.25 560.58 489.3 560.52 504.22 557.17 503.28 553.13 510 550.07 505.88 546.74 504.3 541.38 508.22 540.87 511.59 546.94 513.47 554.7 514.02 556.4 503.85 559.18 501.23 561.35 490.48 564.66 490.88 570.73 494.31 571.62 494.66 579.68 506.31 584.17 512.64 593.04 506.82 596.92 512.68 607.23 520.5 606.23 524.27 615.81 529.06 616.81 529.41 622.43 527.56 627.53 528.74 630.53 526.79 639.22 528.33 644.19 526.69 646.83 522.65 647.64 521.49 649.1 512.54 647.68 504.77 652.98 492.43 659.39 491.74 654.14 489.44 652.67 480.35 653.79 476.39 648.45 469.53 644.37 460.27 640.7 457.55 636.48 459.44 626.15 466.69 619.79 461.75 617.07 463.62 613.42 462.02 608.42 456.36 603.51 450.71 595.29 459.32 594.42 456.7 591.07 448.76 595.98 445.58 592.06 444.2 586.42 441.25 582.65 446.27 580.62 440.97 568.7 433.34 555.41 429.68 553.58 424.37 554.13 421.75 551.08 427.31 546.7 420.79 539.49 414.97 538.6 411.7 533.83 408.94 525.95 402.16 523.54 401.69 514.28 403.72 510.2 414.12 503.02 414.87 501.11 407.05 494.86 394.43 505.13 392.11 506.22 384.74 504.99 370.9 495.91 373.94 491.18 378.41 491.69 381.52 495.95 386.67 498.06 390.49 495.47 392.23 488.22 394.95 484.79 395.5 478.15 393.43 474.8 394.53 470.36 388.97 459.25 376.08 454.22 360.87 449.86 361.12 443.71 352.02 432.79 342.12 425.64 337.85 423.69 312.34 423.79 290.82 429.9 284.11 434.39 276.07 442.04 268.7 451.7 264.19 460.78 264.19 468.49 266.22 481.11 272.05 489.58 294.3 483.21 305.15 482.94 326 484.46 326.31 482.13 334.36 483.51 344.96 486.94 361.79 496.81 374.19 505.84 389.21 518.59 402.3 531.23 411.23 543.78 421.95 560.79 437.48 590.08 442.11 600.45 449.9 624.89 454.14 643.95 456.05 656.84 457.09 668.81 457.47 689.94 457 702.99 458.22 707.05 457.05 726.01 461.11 743.53 468.27 754.94 468.05 755.79 469.93 758.65 474.38 777.35 475.6 794.72 475.09 810.84 475.5 822.37 474.34 837.54 10 837.54 10 10.46 200.94 10.46 Z M 239.65 309.41 251.83 309.29 254.59 305.48 255.24 294.68 243.16 298.35 239.55 297.72 235 302.33 240.61 306.19 239.65 309.41 Z" fill-rule="evenodd"/>
<path d="M 651.24 776.33 657.49 779.62 725.08 822.67 731.84 825.19 781.04 829.02 780.68 830.38 733.2 826.83 726.48 825.39 706.41 812.85 677.34 793.91 652.56 778.38 651.24 776.33 Z"/>
<path d="M 712.62 474.05 714.97 468.08 718.1 467.33 721.14 460.55 727.03 461.47 732.63 460.41 741.18 455.7 746.72 453.92 750.07 457 757.42 452.66 758.74 444.72 766.35 442 766.96 431.87 770.96 431.3 774.29 434.71 786.65 437.53 790 441.35 784.29 445.07 774.73 445.27 766.92 454.18 765.41 463.11 766.13 468.37 752.28 472.16 743.57 476.75 739.74 475.07 730.01 479.33 729.65 486.47 724.01 480.51 718.32 479.57 714.83 474.03 712.62 474.05 Z"/>
<path d="M 632.56 280.37 629.9 276.21 636.12 276.43 644.78 269.81 644.74 283.15 639.02 289.38 634.53 285.4 632.56 280.37 Z"/>
<path d="M 509.52 17.99 511.89 18.32 522.16 13.61 527.99 15.31 542.42 11.98 542.2 13.95 532.15 19.03 514.23 23.78 509.52 17.99 Z"/>
<g/>
<g/>
<g/>
<g/>
<g/>
<path d="M 514.02 556.4 513.47 554.7 538.5 547.73 537.49 549.78 514.02 556.4 Z"/>
<g/>
<g/>
<g/>
<g/>
<g/>
<g/>
<g/>
<g/>
<path d="M 713.82 153.83 717.39 153.36 718.4 158.7 715.32 159.75 713.82 153.83 Z"/>
<g/>
<g/>
<g/>
<g/>
<g/>
<g/>
<g/>
<path d="M 463.26 43.37 468.33 43.2 466.99 47.71 461.84 48.42 463.26 43.37 Z"/>
<g/>
<g/>
<g/>
<g/>
<g/>
<path d="M 530.3 634.37 536.57 646.14 533.71 647.15 530.3 634.37 Z"/>
<g/>
<path d="M 497.6 668.08 506.13 666.27 508.83 664.18 511.1 654.05 513.68 654.95 513.74 659.76 512.93 662.95 512.22 664.31 509.54 666.58 508.26 668.95 498.03 670.98 497.6 668.08 Z"/>
<path d="M 532.35 653.51 535.05 654.18 534.4 659.9 530.34 659.49 532.35 653.51 Z"/>
<path d="M 514.45 667.53 515.46 671.23 519.1 676.71 512.66 681.25 509.19 680.93 509.13 673.48 514.45 667.53 Z"/>
<path d="M 515.93 671.41 526.38 667.68 528.21 671.59 519.77 675.71 515.93 671.41 Z"/>
<g/>
<g/>
<path d="M 496.08 671.86 510 669.1 508.6 674.5 504.56 678.21 498.74 678.13 495.43 674.86 496.08 671.86 Z"/>
<g/>
<g/>
<g/>
<path d="M 479.45 663.13 493.89 668.85 492.89 676.65 483.41 675 479.29 671.43 479.45 663.13 Z"/>
<path d="M 528.29 633.59 533.22 647.28 529.31 646.65 527.24 637.43 528.29 633.59 Z"/>
<g/>
<g/>
<path d="M 509.8 666.6 512.5 664.31 513.58 663.01 513.98 655.13 518.81 650.95 525.13 652.59 520.5 655.9 520.54 657.59 513.88 663.41 511.75 666.17 509.8 666.6 Z"/>
<g/>
<path d="M 488 666.25 479.37 662.72 476.35 654.87 489.44 652.9 491.15 654.64 493.38 667.8 488 666.25 Z"/>
<path d="M 530.87 659.96 536.35 660.45 535.5 664.45 530.48 663.9 530.87 659.96 Z"/>
<g/>
<path d="M 523.7 648.03 527.52 647.7 530.38 648.68 529.92 653.87 523.46 650.18 523.7 648.03 Z"/>
<path d="M 521.43 657.14 526.47 659.41 526.2 663.27 521.78 665.28 521.43 657.14 Z"/>
<path d="M 517.13 680.75 524.56 676.18 529.29 677.54 529.31 684.48 527.87 687.34 520.9 687.38 516.5 690.31 513.9 683.99 517.13 680.75 Z"/>
<path d="M 494.37 658.78 502.88 654.36 508.79 660.19 505.48 665.99 497.28 667.86 494.37 658.78 Z"/>
<path d="M 520.76 657.83 520.6 656.25 524.92 652.9 528.13 654.83 526.85 659.21 520.98 656.86 521.25 665.52 515.02 666.74 514.18 663.47 520.76 657.83 Z"/>
<path d="M 503.39 654.2 512.13 648.01 516.99 649.61 510.65 653.99 509.19 659.56 503.39 654.2 Z"/>
<path d="M 479.45 674.41 485.97 675.92 485.46 682.23 481.5 684.16 479.45 674.41 Z"/>
<g/>
<g/>
<g/>
<g/>
<g/>
<g/>
<g/>
<g/>
<g/>
</g>
</svg>