<?xml version="1.0"?>
<svg xmlns="http://www.w3.org/2000/svg" version="1.2" baseProfile="tiny" width="800" height="1024" viewBox="0 0 800 1024" stroke-linecap="round" stroke-linejoin="round">
<defs>
    <style>
        :root {
            --water-color: #9FC9EA;
            --bg-color: #F2E7D3;
        }
    
        svg {
            background: var(--bg-color, #ffffff);
        }
        path, polygon, rect, circle {
            fill: var(--water-color, #3b82f6);
            stroke: none;
        }
    </style>
</defs>
<g id="water">
<path d="M 398.43 12.58 402.6 17.08 404.11 20.27 405.19 28.51 404.08 32.26 401.9 35.57 397.02 39.61 394.5 45.65 392.76 47.71 395.41 52.07 395.5 55.45 393.93 61.14 390.82 66.2 384.57 73.24 374.89 79.68 366.85 81.11 362.51 82.81 352.42 91.62 343.42 100.27 333.53 108.21 333.25 108.9 322.61 118.43 312.22 130.24 306.88 134.16 304.18 134.91 298.53 138.36 293.39 142.9 287.32 147.34 283.59 146.92 285.76 150.67 285.21 153.61 288.74 160.54 290.59 165.79 291.8 173.38 291.23 174.66 292.84 180.37 290.88 184.12 280.75 190.39 281.15 194.74 287.61 200.23 288.52 205.18 286.95 207.5 287.92 210.41 291.23 213.76 299.31 219.65 299.51 223.41 308.42 228.63 313.14 234.11 312.81 237.79 310.08 242.43 307.82 252.36 309.99 256.68 314.98 263.21 317.76 267.87 324.18 283.38 324.75 286.61 323.62 293.53 320.05 298.43 319.1 302.51 319.98 305.83 318.15 311.65 313.85 316.9 311.6 318.07 312.35 322.27 311.16 325.14 302.81 331.62 296.61 334.85 275.87 342.35 270.04 346.01 268.15 349.5 264.68 352.43 269.67 358.99 268.77 366.34 269.29 370.86 262.45 381.32 257.82 384.72 260.45 386.15 261.97 389.95 268.26 397.83 276.29 401.46 283.38 403.39 287.21 400.08 292.11 399.59 295.62 400.16 303.7 405.84 305.15 405.08 311.82 411.24 316.26 412.37 326.56 412.48 336.16 419.76 350.15 427.35 356.33 430.39 370.23 436.51 374.07 434.59 385.41 436.66 390.33 440.63 393.18 442.03 398.32 440.79 399.07 437.5 401.72 435.27 400.97 433.44 404.86 429.49 406.47 429.49 409.89 426.02 424.61 424.95 429.08 428.67 432.88 429.4 436.52 432.71 442.54 435.98 446.19 436.46 458.24 436.44 460.26 434.04 462.71 428.58 459.87 426.11 465.72 425.06 475.71 424.31 476.17 422.71 480.15 421.88 488.71 423.24 493.57 425.83 493.26 428.25 496.9 430.59 498.6 434.68 501.99 435.4 504.03 433.44 501.75 427.83 510.64 420.86 513.76 419.29 516.38 416.6 517.97 412.15 518.3 406.08 520.53 404.53 528.7 402.7 532.98 400.82 543.77 393.03 548.86 387.61 552.11 381.01 557.49 375.34 558.02 371.68 552.59 366.55 540.53 362.83 526.42 362.93 523.4 360.35 520.05 358.96 517.88 355.63 510.86 351.51 508.73 346.43 508.97 341.6 507.51 336.01 504.64 330.9 504.69 327.78 501.89 320.66 501.71 317.87 497.38 305.45 494.38 303.77 493.48 300.57 495.04 292.87 491.43 285.99 492.88 283.4 488.01 279.81 485.97 274.45 484.01 272.06 487.72 266.88 487.91 260.65 489.09 255.54 492.82 251.67 497.89 250.31 501.97 246.99 507.11 241.52 515.66 235.79 521.55 235.21 525.91 237.04 531.01 237.48 533.49 236.23 536.58 238.06 536.66 241.92 546.37 239.67 543.33 242.87 536.68 244.99 536.55 248.16 534.32 250.57 528.12 254.69 526.29 259.53 523.56 263.24 522.08 269.55 518.33 269.72 522.61 275.48 522.8 278.82 525.54 283.1 526 286.69 528.9 291 528.52 292.96 530.84 295.23 528.85 298.76 530.81 303.27 533.22 304.66 534.01 310.7 535.89 314.12 546.15 322.26 548.27 325.42 551.47 326.31 552.46 328.27 557.19 331.53 559.92 335.81 559.74 337.71 562.63 339.65 567.09 341.16 573.58 342.28 581.52 344.66 587.22 345.42 591.61 344.29 594.3 342.02 594.92 338.16 601.74 334.18 606.7 332.57 610.45 333.61 614.08 333.32 618.97 334.93 622.57 337.45 622.59 339.68 620.59 343.41 613.65 344.69 610.08 352.36 609.31 359.89 610.08 364.48 614.56 375.43 618.53 380.86 624.62 385.86 627.96 386.64 630.82 389.44 630.76 392.84 627.31 398.22 628.18 400.85 626.57 408.22 628.33 411.07 628.64 415.81 627 420.04 630.27 423.22 632.59 432.09 628.39 434.52 621.78 435.07 619.31 434.43 617.39 432.14 616.92 427.7 614.63 426.49 610.39 426.91 607.32 429.22 602.86 434.72 600.81 440.66 600.13 447.61 596.53 449.82 591.83 448.42 591.04 438.34 589.78 431.1 587.53 428.23 583.34 432.34 582.14 440.35 582.1 444.8 583.89 448.98 582.72 452.53 574.37 444.81 570.78 440.32 565.64 444.7 564.31 449.99 565.9 461.02 564.03 471.37 562.63 473.52 562.52 476.58 564.27 480.29 563.21 483.34 565.39 490.62 570.14 496 576.4 498.23 581.88 497.19 585.48 497.83 588.63 500.22 590.42 503.04 596.26 508.23 599.07 507.87 600.53 502.07 600.5 498.14 602.58 495.3 605.29 495.19 609.49 497.97 624.67 505.12 629.19 510.28 625.53 510.79 620.8 508.12 614.62 507.21 612.44 511.36 614.51 518.99 619.06 522.68 621.4 523.41 623.05 529.39 621.56 532.17 623.69 536.94 628.64 541.41 629.87 546.03 635.55 556.55 640.29 556.77 646.27 561.98 653.62 563.55 663.92 561.69 664.74 559.42 667.99 555.45 668.74 552.19 666.9 545.57 662.31 538.11 662.11 534.79 657.1 534.69 652.65 533.82 653.15 530.71 655.25 527.75 659.03 525.75 659.51 523.54 663.55 521.36 666.44 521.77 662.62 534.73 663.33 539.34 667.21 545.12 669.18 551.7 668.62 555.65 664.59 560.48 664.36 564.01 660.53 571.82 657.9 572.6 656.42 575.25 652.16 575.31 651.21 577.49 657.17 586.5 660 588.29 661.65 590.94 660.61 594.04 658.81 595.08 656.73 599.39 654.15 601.79 653.51 606.23 649.25 609.34 646.93 609.34 647.31 614.72 646.91 619.55 647.9 622.4 647.09 627.88 648.92 634.71 647.26 636.83 637.14 644.25 635.33 647.2 632.15 649.28 633.4 655.83 628.33 660.89 626.26 666.05 620.3 672.1 632.46 681.63 635.33 686.2 637.86 695.77 637.13 697.37 624.89 701.96 620.74 704.82 613.13 705.75 621.11 727.33 620.1 727.4 611.74 705.22 606.62 705.33 604.83 703.08 598.87 701.2 591.39 697.37 579.87 690.85 571.68 686.62 564.09 684.99 560.63 684.98 551.25 682.85 543.15 676.69 541.6 673.82 535.93 669.8 526.07 666.16 527.86 662.32 531.35 662.28 531.72 656.94 530.88 654.4 526.05 651.46 526.18 647.93 524.42 643.15 528.03 637.89 528.26 632.82 535.18 626.53 536.75 622.64 535.49 620.68 536.64 617.57 538.89 616.95 546.2 616.97 550.9 615.6 556.15 610.62 556.68 608.23 554.12 602.32 553.94 598.99 549.37 592.94 547.5 592.19 541.54 593.03 540 596.39 541.5 601.86 541.03 606.12 542.38 608.35 536.99 610.99 532.49 611.94 528.28 600.34 525.63 598.11 523.77 594.55 519.19 592.88 516.73 589.98 518.94 586.48 513.62 581.97 509.68 581.93 504.51 578.03 501.42 576.97 496.48 577.41 494.32 574.29 494.45 571.85 491.56 567.52 487.94 559.44 486.22 556.97 482.09 554.21 481.8 551.04 484.74 548.57 485.42 542.47 482 536.38 483.86 526.14 489.48 515.09 490.15 508.23 491.65 502.66 493.37 499.66 492.92 496.82 494.38 495.4 495.44 491.54 494.73 489.43 495.6 485.34 490.72 481.79 490.54 478.43 492.18 475.9 497.3 471.77 497.45 470.18 500.74 467.18 502.55 460.91 501.51 453.08 501.89 447.87 498.95 445.14 484.47 445.16 481.14 444.56 475.2 446.62 471.1 447.08 465.47 443.94 461.61 443.04 459.65 439.27 457.13 437.39 442.08 437.3 440.87 440.04 445.5 444.03 440.91 444.56 437.25 446.88 432.33 445.98 428.45 441.74 429 437.08 420.96 428.19 416.28 428.1 415.05 431.34 411.96 436.07 407.52 439.71 408.61 442.71 405.45 444.5 404.26 451.18 404.85 456.81 409.05 459.99 408.74 465.88 404.06 467.05 400.29 469.68 399.4 472.26 393.49 474.8 392.58 472.21 389.1 472.34 386.12 471.24 386.87 468.2 384.6 466.79 385.63 460.07 385.44 454.6 380.05 445.62 377.91 442.99 369.61 439 368.6 437.61 353.39 430.61 346.8 427.31 340.44 426.87 331.44 421.64 332.52 420.05 328.53 417.82 324.04 417.66 320.78 418.86 319.1 421.17 308.04 421.17 308.04 414.62 305.37 412.46 294.28 407.65 284.87 407.65 280.4 404.93 271.94 402.22 263.95 401.78 260.67 399.57 261.51 397.05 259.63 392.5 254.42 392.62 245.57 394.85 241.47 397.14 234.21 399.94 230.19 403.85 220.26 408.04 210.11 410.11 227.44 416.69 233.22 422.21 238.16 425.67 243.96 434.43 243.34 441.14 244.01 444.38 247.65 449.15 253.19 452.79 264.95 459.63 278.01 464.56 283.62 465.81 284.98 467.62 292.8 468.29 297.39 466.06 302.48 465.44 302.48 463.14 305.64 462.53 305.68 475.1 308.42 475.1 308.38 465.66 315.94 465.84 316.28 474.42 323.47 475.5 332.47 478.88 340.82 485.25 342.78 485.83 348.71 490.79 351.96 492.07 362.05 498.52 361.41 500.3 369.46 504.19 371.98 504.14 381.8 510.06 381.97 513.72 384.57 513.79 386.61 517.85 386.89 520.47 390.75 520.87 391.31 522.55 386.3 522.57 379.99 539.3 383.54 541.55 380.27 543.51 380.87 546.56 380.03 549.89 380.03 559.14 381.62 561.91 380.09 563.59 380.05 571.63 377.36 574.54 375.73 579.83 374.2 588.04 377.32 593.01 376.89 593.87 380.12 600.8 385.55 601.62 383.1 603.78 385.44 610.95 390.62 620.62 392.12 621.1 393.44 626.09 398.65 628.01 403.38 627.39 403.91 628.74 399.07 629.62 415.12 640.81 420.02 642.61 421.83 645.15 426.19 647.18 436.48 653.27 442.33 657.33 447.16 667.66 449.92 671.57 451.19 676.8 450.4 677.66 453.32 682.05 462.12 683.79 471.14 687.33 473.66 690.75 472.22 694.85 465.16 699.79 464.26 702.02 465.23 704.41 471.21 705.46 480.52 704.65 480.96 705.48 468.8 706.3 464.9 705.6 462.74 702.75 463.04 698.69 469.87 695.18 472.12 691.91 471.85 689.64 469.07 687.66 457.49 684.45 452.3 685.71 447.71 682.49 448.7 681.23 443.69 668.92 441.77 661.77 438.77 657.16 436.92 656.63 408.49 639.9 397.88 632.38 394.4 631.61 394.31 629.66 389.69 626.29 385.3 617.97 381.31 617.57 383.4 614.61 378.55 605.23 371.36 605.01 366.44 600.31 366.85 593.45 370.03 590.67 366.54 583.45 366.64 581.84 352.56 571.49 346.35 571.54 346.4 556.97 345.16 556 345.07 552.34 334.02 550.62 330.07 554.26 326.96 553.73 319.48 548.01 312.24 543.65 309.59 541.26 308.78 535.92 303.61 532.21 298.42 532.04 292.8 535.21 288.93 539.96 274.52 552.47 267.37 556.02 255.9 560.95 242.18 564.68 237.74 566.64 245.49 571.62 254.6 576.24 257.98 579.79 257.38 582.55 259.17 585.35 262.23 587.58 264 591.58 267.66 594.29 268.88 596.56 275.69 604.82 278.98 613.97 278.96 616.11 276.76 622.05 280.92 628.73 280.15 633.66 281.78 634.83 283.13 641.67 280.07 645.26 273.75 649.57 274 652.15 280.95 655.81 285.49 659.03 286.57 660.78 286.16 666.91 284.87 668.97 277.83 674.11 277.55 675.17 281.87 677.88 285.63 685.32 298.38 699.31 300.06 701.98 310.78 706.79 318.64 711.46 321.13 713.74 331.46 718.53 337.61 723.01 338.3 725.13 342.71 728.81 346.84 735.3 345.72 741.48 344.54 743.86 337.5 751.94 332.36 759.33 331.11 764.47 332.94 768.71 332.78 772.53 334.73 777.95 334.86 780.45 330.67 784.18 324.05 788.59 317.29 791.99 307.18 796.23 309.64 797.04 320.38 798.37 340.22 802.93 348.39 807.66 358.07 812.22 358.56 821.38 360.06 824.93 362.18 826.88 364.87 834.05 366.28 842.54 365.18 845.79 365.49 848.53 370.52 860.37 373.61 862.96 383.21 867.72 389.41 870.33 394.68 873.68 398.41 876.86 398.24 878.82 403.82 885.33 406.27 889.37 407.5 895.48 411.52 900.56 411.5 906.8 409.25 912.21 410.31 920 413.84 932.2 412.76 937.92 415.71 943.94 414.1 947.08 412.73 953.78 415.14 964.86 414.63 971.7 415.58 977.91 414.48 982.52 407.37 988.17 398.83 992.4 394.51 995.05 385.06 997.63 369.15 999.88 357.39 1003.09 345.63 1005.38 337.39 1006.42 333.64 1007.41 323.38 1011.42 109.02 1011.42 107.28 1002.35 108.29 996.47 107.72 994.19 108.85 988.63 108.87 983.93 109.95 979.56 109.53 977.37 113.43 967.55 114.38 960.69 113.94 954.63 114.98 946.68 118.11 938.52 119.73 931.81 120.43 925.8 129.48 917.77 134.44 914.68 143.69 911.72 150.6 911 155.61 911.09 166.66 913.27 178.95 918.32 183.1 916.38 187.74 912.26 191.58 907.87 188.57 905.77 185.88 901.13 182.84 899.08 179.13 898.35 173.02 898.88 172.9 900.12 167.39 901.27 162.64 906.06 157.22 907.36 154.97 905.55 154.46 901.38 156.53 898.4 156.14 894.89 158.96 887.81 165.05 885.36 181.42 882.53 186.87 884.16 189.74 882.91 193.08 879.29 205.03 877.17 206.01 881.12 204.95 888.75 206.41 899.1 210.13 903.45 215.91 903.91 219.76 908.57 217.77 911.77 214.04 914.11 207.64 915.54 200.71 919.45 194.78 923.47 191.6 927.88 189.21 929.25 185.28 934.34 182.84 936.15 181.18 939.58 176.7 943.13 170.9 941.89 161.78 936.24 158.21 937.7 155.12 947.98 149.98 951.64 143.49 958.27 141.08 963.76 141.5 966.1 138.7 971.15 136.05 973.21 136.23 976.01 138.55 981.55 143.12 986.12 146.34 988.08 153.57 990.33 161.78 992.31 172.51 993.06 177.43 990.75 177.25 986.53 179.64 983.07 181.54 982.14 187.6 969.7 191.18 967.82 192.88 965.66 194.84 960.8 201.42 955.93 206.63 950.94 213.24 949.61 217.61 945.6 222.58 944.14 231.67 943.81 236.13 941.49 238.58 938.58 246.37 933.64 259.85 929.65 265.21 929.07 269.74 927.31 277.73 921.79 292.73 920.53 300.79 916.98 310.25 916.93 315.04 915.96 321.11 913.45 323.91 910.09 315.24 905.37 307.94 902.15 303.37 898.91 294.39 895.48 284.55 890.81 273.51 889.73 270.47 889.02 261.35 889.08 245.07 888.25 232.05 886.66 221.39 884.03 208.63 877.01 205.39 873.81 207.51 869.36 207.07 865.16 202.54 857.28 203.87 855.04 208.19 853.76 214.1 850.05 220.92 849.72 221.06 845.81 215.01 841.05 211.06 836.68 208.37 830.65 203.87 825.69 201.75 819.66 203.1 813.86 201.2 801.68 202.63 798.98 195.5 793.6 195.06 791.2 197.89 787.49 205.85 779.08 209.93 772.73 214.37 768 209.45 764.63 198.02 759.59 193.69 755.71 192.24 751.41 187.32 745.49 175.58 739.32 169.04 734.17 165.47 730.49 164.96 727.97 167.12 721.22 165.56 715.57 167.1 711.29 173.02 706.32 181.49 701.27 178.23 698.11 151.79 688.12 146.73 686.59 140.36 685.76 136.43 687.57 137.47 693.13 137.13 696.61 134.77 699.99 134.84 704.67 131.27 718.35 131.9 721.59 130.41 723.78 129.52 728.08 129.46 735.59 125.95 738.76 124.87 742.54 114.08 744.01 107.32 745.85 97.21 751.19 99.13 754.21 98.14 755.73 97.46 761.51 92.23 766.48 89.2 766.59 87.79 768.86 88.45 771.95 82.54 775.61 77.46 776.74 79.01 779.92 75.99 783.05 75.97 789.28 71.29 790.09 70.8 796.23 67.95 801.23 69.96 804.39 69.37 807.37 70.14 812.55 67.49 815.56 69.15 821.6 71.91 828.67 73.1 830.17 71.02 834.97 70.6 843.43 70.8 849.01 66.47 855.7 67.98 858.19 68.82 862.82 61.07 868.23 55.64 873.64 52.75 878.41 55.07 880.1 56.66 883.26 45.49 890.36 44.45 894.32 42.88 894.78 43.72 901.91 46.5 906.92 49.35 909.76 51.51 913.32 55.18 917.24 62.2 922.18 64.44 925.94 65.93 930.82 62.68 937.66 64.11 944.39 60.3 947.5 51.14 950.74 50.37 954.32 47.12 958.75 46 964.97 42.44 975.24 41.67 988.19 46.29 997.17 53.21 1005.75 57.5 1009.59 60.45 1010.56 69.08 1011.09 73.32 1010.32 79.23 1011.42 10 1011.42 10 947.78 14.4 944.49 18.13 937.3 21.1 934.41 21.94 931.12 16.56 925.98 10 922.27 10 867.46 15.26 861.33 18.37 856.56 18.11 852.79 10 849.5 11.97 847.6 15.79 849.67 21.9 848.39 25.54 846.16 32.32 838.42 34.19 835.06 28.36 828.86 26.36 821.78 31.67 817.85 30.35 815.42 29.51 809.42 27.46 803.44 28.17 796.42 32.65 789.39 37.24 786.5 34.9 783.18 33.48 777.89 31.01 774.51 34.81 770.91 33.48 765.58 33.99 761.29 36.84 757.41 44.9 753.19 47.74 752.34 52.18 748.56 53.55 745.52 59.08 737.11 58.68 730.13 60.23 726.19 62.99 725.37 72.01 719.14 74.47 715.46 79.91 711.16 85.47 704.23 86.05 699.77 89.27 696.24 95.67 691.74 101.25 686.62 95.34 682.18 88.45 673.6 85.26 672.52 78.9 672.83 69.76 670.95 66.54 671.32 60.49 674.02 56.66 664.79 49.88 662.12 43.62 662.87 40.99 664.59 35.12 665.65 30.82 665.74 28.06 664.09 24.42 663.51 21.59 664.7 14.7 662.65 10 662.52 10 648.04 14.33 638.44 18.06 633.41 19.94 627.01 20 621.56 18.57 615.83 14.11 607.9 13.84 604 14.84 600.65 17.09 597.51 22.06 592.32 28.81 589.48 34.13 588.31 33.7 586.39 28.52 586.19 27.46 584 17.42 580.85 12.85 580.23 10 581 10 567.24 12.19 564.76 10 563.4 10 527.97 13.49 529.35 20.46 530.36 28.87 535.86 31.5 540.27 33.53 541.84 38.58 549.58 41.1 554.55 43.66 556.67 48.31 563 50.06 567.94 51.87 569.6 55.53 570.28 68.81 570.68 83.38 569.07 87.04 568.18 95.96 563.83 99.67 560.08 107.1 557.79 115.93 556.2 119.94 556.46 122.92 554.86 129.52 553.13 129.57 551.83 122.17 547.4 117.71 547.26 108.87 544.92 102.27 543.73 91.79 540.45 82.27 535.32 71.79 534.82 64.86 533.25 62.88 531.86 59 531.46 58.93 528.44 62.26 527.76 64.89 529.23 69.94 529.43 80.42 528.02 85.45 528.97 96.27 528.86 96.11 525.5 94.37 521.64 94.94 514.03 94.41 512.71 97.37 504.87 94.94 500.17 92.56 491.06 90.26 490.81 84.48 494.23 78.32 493.27 71.31 495.23 70.2 493.86 62.66 493.59 47.83 490.31 44.56 490.71 41.52 488.89 37.48 484.48 36.22 481.53 31.17 483.29 24.95 481.68 21.75 476.83 21.99 473.18 25.34 474.26 26.34 477.84 33.35 478.46 34.96 477.15 39.8 477.89 42.73 479.85 46.79 486.23 53.21 483.27 61.07 482.78 64.55 484.31 68.11 483.82 74.02 481.2 76.82 479.23 84.86 475.33 88.52 474.88 97.83 479.67 100.19 482.72 103.11 484.41 107.19 484.09 102.44 479.94 103.26 472.7 104.79 470.2 111.05 464.05 110.46 461.18 98.6 457.25 93.38 454.82 88.01 451.51 80.78 445.4 78.42 439.77 72.81 434.74 68.37 431.48 59.3 428.68 61.07 425.27 69.03 422.94 73.07 420.77 79.76 418.92 90.11 414.68 93.04 412.57 93.77 410.12 92.05 408.17 82.5 403.32 79.89 400.83 77 393.99 77.99 388.11 77.6 377.08 78.75 373.46 83.33 369.16 83.82 365.54 81.37 363.33 83.8 356.01 85.74 351.88 86.05 348.92 83.86 344.97 84.37 342.54 80.18 332.79 71.37 329.95 64.23 329.46 59.75 331.03 55.55 330.26 50.72 325.84 46.5 327.54 46.15 331.98 44.48 337.07 44.32 340.16 46.11 342.88 43.13 344.62 34.02 345.68 32.09 347.49 25.85 349.58 21.1 347.64 16.1 347.45 13.82 351.95 14.05 356.2 10 355.98 10 349.95 11.07 347.09 15.35 343.5 23.86 342.68 26.64 339.13 30.24 337.09 36.2 339.43 38.18 337.23 38.8 333.78 37.68 332.33 31.96 330.41 29.4 328.6 21.3 325.99 17.9 324.32 13.98 320.59 12.3 308.87 10 305.44 10 255.36 22.1 253.15 28.45 254.63 40.68 253.99 43.77 255.05 56.11 254.94 59.17 255.58 66.08 260.21 78.08 260.79 84.79 260.63 98.36 258.01 102.2 257.94 105.12 259.6 113.21 260.37 119.19 259.59 131.57 257.15 136.49 255.82 141.19 253.2 143.86 249.14 140.8 244.15 147.04 236.53 144.64 231.02 145.41 224.86 143.07 219.1 135.83 216.7 132.33 214.38 129.96 208.4 123.7 201.98 123.5 198.69 124.67 195.97 123.23 191.94 120.25 190.44 114.07 188.72 102.64 183.51 97.06 182.43 93.13 180.39 87.35 175.32 85.36 170.46 79.91 166.49 82.91 163.71 89.89 161.62 94.32 162.46 93.8 164.31 100.61 165.34 102.12 162.46 113.79 154.27 119.42 149.41 122.7 143.63 124.01 137.78 122.2 134.72 125.2 131.36 123.45 127.66 121.44 125.87 108.34 119.53 92.45 112.52 86.78 108.24 83.58 102.04 80.55 98.9 80.03 94.64 81.13 90.32 79.92 87.85 79.08 81.01 81.46 77.03 81.35 68.71 76.91 62.43 77.66 58.87 77.07 56.18 72.61 52.67 71 46.56 68.15 43.73 68.11 41.81 65.39 37.44 67.54 28.37 66.48 22.77 67.84 16.17 67.47 12.58 398.43 12.58 Z M 369.72 598.81 369.19 600.8 371.03 603.14 373.67 601.75 371.87 598.46 369.72 598.81 Z M 655.85 533.56 662.03 534.4 664.37 528.29 664.25 525.92 666.15 522.22 663.75 521.95 660.35 523.58 659.42 526.19 655.89 527.67 653.64 530.69 653.49 533.18 655.85 533.56 Z M 128.29 631.52 122.55 628.1 110.99 624.41 101.23 623.31 88.83 624.68 82.1 624.83 89.32 632.84 91.92 637.5 94.92 640.52 95.72 645.17 101.5 648.8 113.24 652.04 119.97 651.04 121.27 648.58 117.8 641.86 119.46 637.58 122.84 634.45 128.29 631.52 Z M 353.04 553.57 352.75 566.62 352.14 568.18 357.1 571.49 363.87 576.85 369.04 579.31 373.47 579.52 375.64 571.93 374.53 571.49 374.53 540.75 367.23 543.54 367.21 545.59 358.67 547.24 352.86 547.39 353.04 553.57 Z M 10 249.79 12.99 253.5 10 253.73 10 249.79 Z" fill-rule="evenodd"/>
<path d="M 403.93 182.29 407.31 182.51 410.48 185.8 413.66 193.17 409.33 196.39 402.07 197.47 398.77 194.98 399.51 182.93 403.93 182.29 Z"/>
<path d="M 381.71 392.37 374.71 385.73 377.34 376.82 378.44 375.56 383.1 376.31 386.65 373.62 386.61 371.01 388.46 368.3 392.89 368.8 395.85 372.49 405.45 374.61 404.54 378.87 401.46 379.15 397.97 383.7 392.3 388.6 388.08 391 381.71 392.37 Z"/>
<g/>
<path d="M 790 772.88 786 772.99 781.25 771.42 779.2 769.7 775.41 769.9 770.47 771.71 767.26 770.67 762.76 767.96 755.75 765.42 751.29 764.93 745.95 761.47 742.75 760.24 738.87 760.68 737.65 762.93 728.58 760.65 726.53 758.32 722.36 758.51 718.17 760.08 716.16 762.07 712.71 768.13 709.38 769.06 702.17 766.08 700.71 764.36 700.33 759.53 698.84 757.12 696.83 755.89 690.05 754.9 683.5 751.87 679.61 749.27 673.92 748.45 668.89 750.5 665.87 750.59 659.86 748.58 657.02 744.46 647.62 743.48 640.58 741.21 629.35 734.88 629.79 734.52 640.95 740.97 648.94 743.4 656.69 743.86 658.36 744.72 661.12 748.91 665.98 750.17 668.84 750.06 674.05 747.99 680.61 749.27 683.68 751.65 690.32 754.78 695.57 755.09 699.92 757.67 700.82 760.46 701.09 763.88 702.63 765.62 708.61 768.55 712.38 767.82 714.21 763.9 717.81 759.84 721.01 758.36 726.31 757.81 730.21 760.96 736.64 761.87 739.15 759.84 743.74 759.92 751.36 764.52 756.19 764.96 761.95 766.97 770.22 771.33 777.61 769.26 780.4 769.81 783.09 771.56 790 772.88 Z"/>
<path d="M 569.37 52.85 565.15 62.51 561.4 65.49 557.91 65.78 554.36 62.43 555.05 59.42 562.28 57.17 565.61 52.74 569.37 52.85 Z"/>
<path d="M 475.36 837.25 482.07 835.5 488.82 836.32 488.95 833.08 490.39 829.48 495.4 829.64 495 838.4 493.48 840.69 487.52 840.43 482.73 841.99 470.88 843.36 470.09 842.04 472.58 837.96 475.36 837.25 Z"/>
<path d="M 712.74 949.44 710.37 945.8 713.93 946.11 720.64 949.99 727.65 952.33 733.48 955.51 737.05 956.37 744.93 961.02 742.37 962.15 740.21 965.53 736.83 965.52 731.23 961.97 725.53 962.28 719.8 957.63 712.74 949.44 Z"/>
<path d="M 768.87 829.15 777.2 829.59 779.31 830.25 780.93 835.18 787.12 839.32 790 842.39 790 867.66 788.16 868.91 781.94 869.18 782.29 874.67 780.06 879.22 780.64 883.72 776.42 882.77 772.49 868.94 770.15 864.99 767.84 865.16 764.82 867.35 762.41 867.3 758.19 865.19 757.03 861.79 762.65 858.76 769.08 859.91 774.95 863.71 776.53 860.51 771.19 852.17 764.46 847.36 764.64 842.3 764 833.14 766.41 829.95 768.87 829.15 Z"/>
<path d="M 770.88 536.71 774.64 533.58 781.5 531.6 782.58 529.94 787.87 532.72 784.77 537.22 780.75 539.41 774.81 540.77 770.88 536.71 Z"/>
<path d="M 559.06 750.75 565.7 749.89 565.15 751.63 559.06 750.75 Z"/>
<g/>
<g/>
<g/>
<g/>
<path d="M 526.12 904.66 525.67 901.05 528.65 901.58 526.12 904.66 Z"/>
<g/>
<g/>
<g/>
<g/>
<g/>
<g/>
<g/>
<g/>
<g/>
<g/>
<g/>
<g/>
<g/>
<path d="M 535.03 793.27 534.23 789.16 540.43 789.23 540.3 791.53 535.03 793.27 Z"/>
<path d="M 363.7 294.31 358.42 290.13 364.47 289.98 368.14 293.91 363.7 294.31 Z"/>
<g/>
<path d="M 535.18 20.61 533.66 18.36 537.13 17.27 543.63 19.17 545.16 21.64 542.91 22.57 537.61 21.91 535.18 20.61 Z"/>
<path d="M 436.32 372.43 436.7 375.12 432.04 375.16 432.55 372.4 436.32 372.43 Z"/>
<path d="M 476.42 972.81 473.77 970.87 481.07 969.81 483.11 968.66 488.07 968.46 485.49 971.93 484.58 975.35 481.27 973.8 476.42 972.81 Z"/>
<path d="M 509.21 947.56 511.97 946.72 513.78 954.65 507.58 950.01 509.21 947.56 Z"/>
<path d="M 352.51 769.55 357.72 768.16 362.53 768.8 366.72 768.53 368.03 773.03 360.26 773.72 352.42 771.2 352.51 769.55 Z"/>
<g/>
<g/>
<g/>
<g/>
<path d="M 665.65 854.92 660.26 849.69 657.46 845.83 661.47 845.11 663.75 847.16 669.04 854.7 665.65 854.92 Z"/>
<path d="M 687.03 918.34 690.71 919.47 690.18 921.68 682.7 920.13 687.03 918.34 Z"/>
<path d="M 382.59 208.55 380.01 212.75 377.23 212 379.46 207.61 382.59 208.55 Z"/>
<path d="M 395.5 302.85 398.94 302.43 401.04 304.86 398.04 306.56 392.34 303.68 395.5 302.85 Z"/>
<path d="M 780.7 231.59 783.06 229.67 788.14 230.44 785.85 232.25 780.7 231.59 Z"/>
<g/>
<path d="M 536.44 847.03 535.74 849.92 533.04 851.02 530.22 850.02 532.36 847.95 536.44 847.03 Z"/>
<path d="M 396.91 238.39 400.38 240.15 395.7 241.17 396.91 238.39 Z"/>
<g/>
<path d="M 480.35 30.94 476.71 29.34 476.79 26.76 489.66 28.2 493.45 33.61 491.2 33.96 480.35 30.94 Z"/>
<path d="M 671.85 31.4 675.42 32.1 674.56 34.02 669.59 33.1 671.85 31.4 Z"/>
<g/>
<path d="M 469.2 815.53 471.5 816.04 473.4 820.13 470.09 821.62 468.37 820.1 469.69 818.14 469.2 815.53 Z"/>
<g/>
<path d="M 702.9 643.3 706.65 644.93 707.9 647.36 707.02 650.14 701.46 645.37 702.9 643.3 Z"/>
<g/>
<g/>
<path d="M 494.73 208.44 498.42 208.78 498.38 211.42 494.42 211.71 494.73 208.44 Z"/>
<g/>
<path d="M 672.33 487.73 673.92 485.01 676.96 485.37 677.89 487.72 675.44 488.72 672.33 487.73 Z"/>
<path d="M 747.29 513.74 751.31 512.42 753.83 513.74 751.75 515.68 747.29 513.74 Z"/>
<g/>
<g/>
<g/>
<g/>
<g/>
<g/>
<g/>
<g/>
<path d="M 507.67 851.64 514.26 851.39 514.62 852.65 507.97 852.72 507.67 851.64 Z"/>
<path d="M 434.96 827.72 438.02 828.64 437.98 833.01 434.36 832.86 434.96 827.72 Z"/>
<path d="M 109.7 798.78 117.85 800.46 118.44 802.23 113.39 802.05 109.7 798.78 Z"/>
<g/>
<path d="M 532.47 883.21 532.85 879.11 539.51 879.51 539.22 883.39 535.8 884.07 532.47 883.21 Z"/>
<path d="M 524.17 878.32 527.3 875.78 531.79 875.07 531.85 884.5 528.1 885.71 526.2 884.43 526.71 881.07 524.17 878.32 Z"/>
<path d="M 659.11 226.01 658.65 220.23 662.12 219.65 659.11 226.01 Z"/>
<path d="M 498.44 867.52 495.59 869.75 494.01 867.35 498.44 867.52 Z"/>
<g/>
</g>
</svg>