<?xml version="1.0"?>
<svg xmlns="http://www.w3.org/2000/svg" version="1.2" baseProfile="tiny" width="800" height="1226" viewBox="0 0 800 1226" stroke-linecap="round" stroke-linejoin="round">
<defs>
    <style>
        :root {
            --water-color: #9FC9EA;
            --bg-color: #F2E7D3;
        }
    
        svg {
            background: var(--bg-color, #ffffff);
        }
        path, polygon, rect, circle {
            fill: var(--water-color, #3b82f6);
            stroke: none;
        }
    </style>
</defs>
<g id="water">
<g/>
<g/>
<g/>
<g/>
<g/>
<path d="M 187.72 488.42 188.58 489.42 187.69 488.42 187.72 488.42 Z M 180.83 480.47 180.77 480.9 180.8 480.58 180.83 480.47 Z M 181.25 477.56 181.17 478.25 181.14 478.25 181.25 477.56 Z" fill-rule="evenodd"/>
<g/>
<g/>
<g/>
<path d="M 329.34 297.19 330.53 300.35 337.91 306.51 319.79 319.82 291.43 326.12 268.43 327.97 240.53 336.4 226.6 333.16 209.04 332.56 200.49 337.37 204.45 344.24 195.42 349.26 182.93 347.26 174.13 347.21 170.48 351.05 171.68 361.65 163.55 368.61 153.52 374.74 142.01 379.15 122.2 389.7 111.91 388.93 108.12 391.15 104.33 398.7 61.98 426.55 33.6 442.65 17.47 449.35 10 458.71 10 358.45 69.19 325.95 167.97 318.68 293.83 301.35 329.34 297.19 Z M 469.95 14.64 477.87 17.78 492.98 18.64 496.88 23.05 500.62 36.13 503.44 55.17 523.36 67.54 532.79 84.9 536.5 96.18 550.21 124.26 566.74 142.12 541.68 175.35 515.49 209.27 510.76 209.98 515.44 202.91 543.57 169.28 528.66 157.14 495.89 127.68 453.85 82.96 433.24 68.48 393.74 44.88 330.54 14.64 469.95 14.64 Z" fill-rule="evenodd"/>
<g/>
<g/>
<g/>
<g/>
<g/>
<g/>
<g/>
<g/>
<g/>
<g/>
<g/>
<g/>
<g/>
<g/>
<g/>
<g/>
<g/>
<g/>
<path d="M 503.15 837.97 506.4 835.06 522.13 836.63 519.74 840.44 513.81 837.74 503.67 843.41 503.15 837.97 Z"/>
<path d="M 576.6 852.84 576.08 853.35 576.82 858.03 574.52 860.08 572.52 860.51 572.32 860.74 581.95 864.9 583.35 867.03 584.43 872.51 585.97 872.85 588.11 873.19 590.45 878.72 589.48 881.74 588 883.11 587.65 884.05 587.63 884.65 591.27 893.23 590.36 893.54 585.69 893.43 585.03 894.14 588.68 897.81 587.77 900.18 585.4 899.67 583.86 899.95 583.24 900.55 582.95 901.29 586 903.34 588.74 904.08 591.79 906.45 592.58 907.53 593.13 908.27 593.67 908.7 595.46 909.5 603.27 909.81 605.21 911.27 603.87 914.91 606.61 915.97 609.88 917.48 611.68 916.99 614.53 916.34 618.06 919.59 617.55 922.12 617.64 923.41 619.83 926.46 619.74 933.44 622.08 934.24 624.96 936.72 625.3 937.49 626.53 938.23 629.41 939.05 630.52 941.13 630.18 942.47 629.01 946.38 629.06 946.72 629.12 946.95 629.18 947.29 629.26 947.83 629.29 949.43 630.83 953.64 628.64 961.28 628.66 962.76 629.09 965.22 630.06 965.61 630.37 966.01 630.43 966.53 628.47 968.66 627.33 969.75 625.07 972.2 619.63 971.8 618.15 972.28 613.42 976.61 611.02 977.3 608.86 977.58 607.06 977.38 592.16 987.82 591.07 990.04 586.14 1004.54 579.65 1010.24 579.19 1017.23 580.05 1018.45 582.07 1019.59 584.23 1020.76 586.31 1022.53 587.71 1023.58 590.53 1028.63 590.68 1031.28 590.33 1033.87 590.25 1035.32 589.73 1036.61 589.93 1037.69 589.99 1038.91 589.62 1040.05 590.5 1041.17 591.42 1047.35 587.34 1056.47 583.55 1061.63 585 1064.82 585.15 1065.05 586.2 1066.13 586.63 1066.84 589.16 1069.86 591.44 1071.46 593.58 1082.75 593.64 1085.48 593.72 1086.22 593.75 1086.37 593.84 1086.74 593.98 1087.39 594.01 1088.65 594.07 1088.99 594.52 1093.46 594.72 1095.2 594.67 1096.4 594.24 1097.65 595.09 1100.1 595.21 1100.96 595.41 1102.24 595.49 1102.84 594.98 1106.89 594.64 1107.43 593.87 1108.48 593.13 1109.19 593.18 1110.11 594.58 1111.07 594.49 1111.96 594.04 1112.53 594.01 1112.56 593.9 1112.7 593.9 1113.3 593.87 1114.3 594.86 1115.75 594.92 1116.03 595.01 1116.52 594.38 1118.06 594.32 1118.09 593.53 1118.29 592.73 1119.05 592.67 1119.85 592.58 1121.14 592.53 1121.82 592.47 1123.3 592.33 1125.95 592.21 1126.18 592.3 1126.66 592.36 1127.01 592.41 1127.46 592.19 1127.89 592.19 1128.86 592.33 1129.03 592.7 1129.51 593.07 1130 593.1 1130.08 593.98 1130.97 594.1 1131.05 594.18 1131.14 594.49 1132.14 594.52 1132.48 594.64 1134.07 594.67 1134.5 594.21 1137.75 594.15 1138.49 594.18 1138.95 594.21 1139.32 594.21 1139.37 594.24 1140.03 594.27 1140.37 594.49 1141.83 594.69 1142.85 594.75 1143.28 594.89 1145.36 594.89 1145.53 594.92 1145.79 594.95 1146.41 594.98 1146.87 595.35 1148.78 595.41 1149.12 595.43 1149.32 595.52 1150.01 595.55 1150.32 595.78 1151.34 595.89 1151.57 595.95 1151.69 596.18 1152.17 596.38 1152.57 596.46 1152.74 596.52 1152.88 597.46 1155.08 597.74 1155.93 599.31 1158.1 599.6 1158.67 599.65 1159.18 599.68 1159.38 599.6 1159.87 599.45 1160.52 599.65 1161.52 599.85 1161.83 600.48 1162.37 601.22 1162.8 601.42 1162.83 605.12 1163.43 605.18 1163.68 605.61 1163.77 605.92 1163.83 606.92 1164.31 607.6 1164.4 609.4 1163.94 609.68 1163.74 610.05 1163.51 610.28 1163.34 611.28 1162.52 611.65 1162.32 612.36 1161.95 614.64 1162.29 616.04 1163.29 617.01 1164.25 617.21 1164.54 618.8 1169.41 619 1169.78 619.52 1172.18 619.49 1172.29 618.83 1175.23 618.86 1176.05 618.86 1176.68 618.09 1177.36 617.86 1177.85 617.09 1179.19 616.78 1179.44 615.95 1180.27 615.87 1180.56 615.78 1180.84 615.67 1181.13 615.56 1181.47 615.64 1182.55 615.67 1183.04 615.58 1184.77 616.13 1185.94 616.61 1186.97 616.84 1187.48 616.87 1187.85 616.95 1188.62 616.84 1189.11 616.84 1189.16 616.78 1189.36 615.84 1190.84 615.38 1191.59 615.1 1192.18 614.24 1193.75 613.62 1194.35 613.25 1194.69 612.48 1195.15 611.39 1195.83 610.08 1196.89 608.52 1198.14 606.89 1198.85 605.78 1199.54 605.75 1199.59 605.72 1199.59 605.69 1199.62 605.64 1199.65 605.58 1199.68 605.35 1199.82 604.3 1200.59 604.16 1200.82 603.98 1201.05 603.76 1201.36 603.36 1201.82 603.16 1202.04 602.9 1202.33 602.84 1202.42 601.85 1203.58 601.48 1204.18 601.39 1204.44 601.33 1204.61 601.25 1204.84 601.19 1205.07 600.39 1206.43 600.14 1206.75 600.11 1206.78 599.77 1207.2 597.86 1210.42 596.29 1211.36 596.18 1211.22 597.6 1210.2 597.34 1209.94 596.38 1210.4 596.15 1210.17 597.97 1209.48 598.2 1209 598.2 1208.97 598.68 1208 598.77 1207.8 599.17 1207.26 599.2 1207.23 599.51 1206.83 599.62 1206.66 600.79 1205.12 601.16 1204.07 601.85 1202.9 603.84 1200.53 604.84 1199.62 605.89 1198.97 606.44 1198.62 606.83 1198.45 608.29 1197.8 609.14 1197.11 612.71 1194.55 613.16 1194.26 613.76 1193.55 614.33 1192.5 614.9 1191.59 615.07 1191.33 615.21 1191.07 615.9 1189.99 616.01 1189.62 616.41 1188.39 616.5 1188.11 616.3 1187.71 615.84 1186.77 615.7 1186.43 614.99 1184.46 615.04 1182.75 614.99 1182.18 614.96 1181.87 614.99 1181.7 615.1 1181.15 615.95 1179.5 616.84 1178.65 616.98 1178.5 617.21 1178.3 617.44 1177.36 617.72 1177.14 618.18 1176.77 618.52 1176.2 618.55 1174.74 618.83 1173.49 618.98 1172.66 619.03 1171.98 619.06 1171.55 619 1171.04 618.98 1170.84 618.49 1169.81 617.52 1167.13 617.49 1167.02 617.38 1166.56 617.32 1166.45 617.01 1165.25 616.3 1164.23 614.96 1163.06 614.39 1162.63 613.73 1162.37 612.76 1162.2 612.36 1162.29 611.96 1162.37 611.34 1163.29 610.23 1163.86 608.91 1164.54 607.4 1164.77 606.69 1164.63 604.73 1163.74 604.47 1163.54 604.13 1163.43 602.93 1163.46 600.08 1162.57 599.28 1161.69 599.08 1161.01 598.88 1160.38 598.97 1159.1 599.03 1158.5 598.83 1158.13 597.91 1157.16 595.49 1152.14 595.24 1151.49 594.98 1150.77 594.55 1147.67 594.27 1147.04 594.47 1144.85 594.24 1143.17 593.92 1136.7 594.29 1134.59 594.04 1132.39 593.55 1131.28 592.87 1130.51 592.7 1130.08 591.99 1129.43 591.79 1128.74 592.01 1127.32 592.1 1127.23 591.87 1126.41 591.87 1125.55 591.82 1122.22 591.87 1121.02 591.9 1120.85 591.93 1120.25 592.07 1119.4 592.44 1118.71 592.47 1118.63 594.27 1117.77 594.61 1117.4 594.67 1116.6 594.21 1116.12 593.98 1115.58 593.5 1114.32 593.35 1113.67 593.41 1113.21 593.47 1112.78 593.98 1111.96 594.32 1111.39 594.18 1110.96 594.15 1110.88 593.92 1110.76 592.93 1110.31 592.78 1109.17 593.7 1108.22 594.29 1107.46 594.27 1107.03 594.52 1105.75 595.04 1104.81 595.18 1103.55 595.06 1103.04 594.86 1102.04 594.55 1099.42 593.98 1096.94 594.21 1096.14 594.18 1095.37 594.12 1093.83 593.33 1086.62 593.18 1085.88 593.04 1085.54 592.96 1083.69 592.93 1083.4 592.93 1083.29 592.87 1082.75 591.67 1073.6 591.59 1072.54 588.77 1070.24 587.31 1069.24 585.97 1066.96 585.17 1065.93 583.46 1063.31 583.01 1061.91 584.12 1059.52 586.83 1056.36 590.39 1048.55 590.19 1041.65 589.48 1040.82 589.08 1036.63 589.65 1035.67 590.08 1029.57 589.65 1028.4 588.25 1025.49 587.74 1024.38 586.71 1023.5 585.86 1022.73 584.69 1021.5 582.01 1020.19 578.59 1017.28 578.71 1010.5 585.03 1005.37 585.6 1004.32 586.8 998.93 586.86 998.73 587.97 995.62 590.87 989.01 592.78 985.96 597.89 983.26 604.58 977.67 611.37 976.73 618.66 971.51 623.71 972.03 624.93 971.8 629.15 966.9 628.61 965.41 628.07 961.99 630.18 953.44 629.52 951.79 628.89 950.59 628.64 948.77 628.64 948.14 628.61 947.32 628.61 947.09 628.44 943.95 629.83 939.99 627.27 939.17 625.33 938.48 624.59 937.71 624.22 936.6 618.75 933.27 619.2 928.48 619.29 927.17 616.81 923.29 617.75 920.61 617.44 919.9 614.24 917.14 614.04 916.91 612.45 917.36 609.91 917.88 603.1 915.37 604.3 910.95 594.18 909.64 592.33 907.9 591.76 907.56 584.38 903.29 582.38 901.78 582.5 900.29 588.28 898.44 586.88 896.56 584.6 894.68 584.89 893.31 586.51 892.74 589.62 892.94 590.42 892.46 587.03 884.48 589.71 880.09 588 874.13 587.43 873.53 583.24 872.51 582.18 871.02 582.44 866.35 577.68 863.56 577.48 863.73 576.94 863.47 576.37 863.22 571.41 860.45 576.14 858.06 575.4 852.53 586.03 852.64 587.23 852.39 588.2 849.42 587.34 848.11 584.41 845.4 583.66 826.17 591.64 820.92 592.39 819.7 593.55 812.91 594.72 810.58 594.35 808.95 578.25 795.5 577.57 794.48 576.11 793.02 576.8 792.65 577.14 792.85 577.59 793.14 578.68 794.13 579.28 795.02 579.59 795.5 579.85 795.64 595.55 808.72 593.75 815.48 593.61 819.07 591.47 822.38 586.31 824.51 585.09 825.82 585.8 840.13 585.94 841.07 586.17 841.96 585.37 844.15 589.02 850.76 588.28 852.36 582.32 853.78 576.6 852.84 Z"/>
<path d="M 585.8 698.38 585.09 696.78 582.72 689.6 579.3 689.51 577.74 687.86 577.71 683.38 577.51 681.62 577.96 677.74 577.51 676.72 577.51 675.78 577.51 675.32 577.68 673.24 578.45 671.07 579.16 667.91 578.85 667.31 578.62 666.83 578.51 666.63 578.36 666.34 578.28 666.17 578.28 666 577.77 662.15 577.39 660.84 574.06 658.56 569.93 655.97 564.85 653.15 562.89 652.95 558.47 650.84 558.19 650.67 550.41 646.62 549.29 646.11 548.3 646.45 543.85 648.1 543.57 647.28 543.65 646.39 542.94 644.54 543.65 642.74 544.19 642.03 544.34 640.69 543.39 638.1 545.67 638.16 547.64 638.3 549.41 637.04 548.67 621.43 548.44 616.64 550.46 613.99 552.54 613.25 549.18 605.89 547.19 594.41 547.13 592.39 546.96 591.3 546.76 590.22 548.55 587.8 549.44 586.74 549.78 585.2 549.61 582.61 550.32 581.96 551.37 581.64 554.45 578.51 554.65 576.2 555.91 571.3 555.31 569.9 554.85 569.16 553.97 568.13 552.74 565.57 551.89 564.4 549.55 563.17 547.98 562.58 547.07 562.35 544.05 562.26 542.65 561.83 541.37 560.69 541.03 560.47 540.92 560.38 539.12 558.27 538.64 557.62 534.62 552.43 532.71 547.73 533.53 546.05 534.19 544.14 530.46 531.43 533.9 527.21 535.22 525.67 535.41 523.67 534.67 522.22 535.19 519.88 535.7 518.15 537.61 517.46 539.97 518 541.83 518.15 543.11 517.69 543.94 516.46 544.42 514.75 544.39 513.3 542.43 504.24 542.11 502.7 540.86 502.16 538.72 501.02 538.89 499.42 539.01 498.14 538.46 496.8 537.27 495.72 536.24 495.35 534.33 494.95 531.17 494.75 529.09 494.6 525.78 492.61 525.44 487.65 526.1 484.74 524.93 483.66 523.3 482.44 519.57 477.76 518.83 475.62 514.58 474.06 513.61 472.43 513.67 470.78 507.06 465.56 507.49 463.28 509.74 462.71 511.53 459.44 510.22 458.24 507.71 457.53 501.39 456.67 499.99 455.28 499.82 453.11 499.53 451.66 496.09 448.86 496.46 446.7 499.31 445.7 498.42 444.9 497.05 444.25 494.03 444.05 492.52 444.87 490.73 445.67 488.36 446.55 485 447.12 483.46 448.24 481.21 450.15 474.83 448.66 474.03 443.73 473.91 442.71 470.15 437.78 467.44 437.63 465.16 434.93 466.62 432.53 462.88 428.46 463.8 423.78 464.05 422.22 463.48 421.08 461.66 418.77 462.91 417.06 464.42 416.03 466.62 411.87 465.51 410.82 466.05 404.35 468.53 403.18 470.12 402.49 470.46 401.87 469.38 400.84 466.39 397.88 466.08 394.63 466.25 392.63 465.79 391.09 465.9 390.5 467.02 388.9 468.56 387.67 468.78 386.96 467.39 384.88 469.18 384.06 470.46 383.91 470.46 383.6 469.67 382.92 467.16 381.03 468.1 380.07 469.5 379.81 469.55 379.32 467.9 378.9 466.73 378.24 465.85 378.01 462.34 378.27 458.5 378.84 456.56 379.89 454.88 380.32 451.85 377.22 452.45 374.51 453.59 372.31 452.45 370.75 450.06 370.66 448.35 369.98 447.95 369.21 447.86 365.45 449.32 363.02 451.34 362.05 453.96 358.98 454.7 358.41 455.5 357.12 456.76 355.84 457.7 355.13 458.18 354.44 458.27 353.5 457.16 352.31 456.81 351.08 457.95 348.83 458.01 348.09 456.53 347.29 453.76 345.58 456.87 341.71 457.16 340.88 453.31 339.68 452.42 339.31 457.75 340.54 456.3 342.99 454.88 344.67 456.56 346.32 458.04 347.32 458.81 348.77 458.72 349.06 457.84 350.4 457.81 351.45 458.35 352.56 458.64 355.44 457.04 356.61 453.42 360.74 453.11 361.11 451.2 362.97 449.29 364.36 448.89 364.9 448.55 366.47 449.2 368.95 450.12 369.98 452.71 370.12 454.13 371.26 452.99 377.39 453.94 378.95 455.7 379.44 457.81 378.44 466.05 377.64 468.36 378.73 468.93 378.9 470.24 379.27 469.78 380.35 467.99 380.58 468.01 381.09 469.1 381.89 470.75 382.77 471.35 384.63 468.73 384.51 467.96 384.63 469.24 386.14 468.73 388.67 466.76 390.38 467.1 392.72 466.99 394.29 468.36 399.25 470.46 400.73 471.29 401.87 470.18 403.15 468.16 404.03 465.85 409.85 467.3 411.24 467.61 412.47 466.3 414.15 464.96 416.69 463.74 417.54 462.77 418.2 464.65 423.84 463.88 426.78 463.57 427.92 464.48 429.28 465.9 430.71 467.3 431.91 466.67 436.44 468.27 437.15 470.64 437.18 472.86 440.71 474.34 442.08 474.74 442.74 474.51 444.33 476.85 448.64 480.01 449.03 481.15 449.49 482.66 448.41 485.34 446.44 490.47 445.16 492.95 444.19 495.52 443.28 499.9 445.39 496.83 447.01 499.28 450.15 499.82 450.92 500.53 453.99 500.56 455.1 501.16 455.9 507.66 457.01 511.53 458.72 511.82 458.89 511.56 462.14 507.4 463.88 507.23 464.74 511.7 467.44 512.27 467.76 514.58 470.64 515.15 473.6 519.77 475.71 520.54 477.96 522.39 480.27 523.53 481.64 527.66 486.62 526.24 488.02 525.92 488.76 526.01 490.76 529.34 493.92 531.17 494.21 538.21 495.55 539.8 499.11 539.29 500.16 539.78 501.44 542.97 502.44 543.39 503.92 545.22 510.71 545.1 512.33 544.96 515.38 543.2 518.26 541.86 518.66 540.12 518.34 535.7 522.88 535.96 523.45 536.13 525.33 535.02 527.26 531.28 531.37 531.57 534.36 533.39 539.06 534.7 541.57 534.62 545.28 533.39 547.98 534.05 550.06 535.41 552.2 539.63 558.22 540.37 559.27 541 559.9 542.23 560.61 543 561.55 547.07 561.92 548.72 562.21 549.98 562.83 551.18 563.43 552.06 563.89 553.57 565.74 553.77 566.79 554.4 567.96 556.5 571.78 555.17 574.4 555.08 575.46 555.22 577.94 552.17 581.93 550.61 582.44 550.01 583.01 549.95 586.97 547.53 589.68 548.15 596.4 549.18 598.43 549.81 606.15 551.37 608.69 552.23 610.48 552.86 611.85 553.37 613.45 549.07 616.01 549.24 621.68 549.55 625.45 549.64 628.1 549.81 631.09 549.92 635.56 549.78 637.3 547.61 638.61 544.85 638.24 543.82 638.41 544.36 639.7 544.82 640.81 544.02 642.97 543.25 643.88 543.68 645.45 544.19 646.59 548.67 645.82 552.77 647.65 554.03 648.22 556.05 648.73 558.19 650.24 560.72 651.78 562.69 652.55 564.66 652.61 567.25 653.57 569.44 655 574.74 658.16 576.14 659.1 579.19 661.55 578.65 662.1 578.79 664.8 578.68 666.03 579.79 668.45 578.96 671.33 578.68 671.93 578.68 673.12 578.59 673.35 578.45 673.72 578.16 675.46 578.22 675.83 578.53 679.57 578.11 680.56 578.08 681.85 578.08 682.53 578.28 683.5 578.45 684.35 578.48 685.95 578.45 687.29 578.36 688.37 583.75 689.51 584.21 691.91 585.63 695.13 585.66 696.47 586.6 698.52 586.83 700.26 588.37 707.69 588.4 708.78 588.05 714.31 587.8 715.08 587.63 718.3 588.54 718.32 590.25 718.35 591.33 719.27 592.58 722.17 591.64 726.85 592.36 727.1 593.3 726.56 597.03 726.56 597.23 726.76 597.57 727.13 597.8 727.36 597.86 727.84 589.11 734.31 589.91 735.57 591.33 736.39 593.01 736.93 593.5 741.3 592.7 742.24 592.01 743.29 592.61 743.63 597.09 743.72 598.2 743.43 600.96 743.38 601.42 744.26 600.37 746.48 602.05 750.96 596.75 750.79 595.38 750.81 588.79 753.35 587.4 754.89 587.83 755.6 588.42 755.94 590.11 756.57 587.11 763.21 583.38 764.47 586.74 766.6 588.22 767.86 586.94 770.05 586.57 771.16 586.51 772.99 586.63 774.01 586.8 776.29 583.98 779.26 581.44 787.89 586.2 790.23 585.52 792.08 583.21 791.94 580.67 790.17 579.53 790.71 577.59 792.37 577.94 791.54 580.73 789.74 583.64 791.71 584.8 791.91 585.72 791.23 585.83 790.71 585.17 789.92 580.9 788.18 582.92 780.17 583.04 779.74 585.83 776.63 585.55 776.15 585.92 771.05 587.54 768.23 587.74 767.49 586.91 767.03 580.16 768.11 579.82 767.46 580.99 765.09 586.8 762.73 587.54 760.65 589.25 756.77 587.48 755.94 587.06 754.21 590.28 751.67 596.8 750.44 601.33 750.73 600.85 749.85 600.11 747.71 600.22 745.46 600.82 744.52 600.62 743.86 600.02 743.52 599.05 743.58 597.66 744.09 591.53 743.97 592.98 740.16 592.73 739.41 592.7 737.11 590.9 736.48 589.73 735.91 588.57 734.08 591.96 731.09 594.12 729.78 595.35 729.35 596 726.68 594.52 726.7 591.99 727.56 591.1 727.05 591.13 726.7 591.16 726.3 591.27 724.88 592.19 722.6 590.82 719.15 590.11 718.58 588.79 718.61 587.26 718.47 586.71 716.04 587.31 714.53 587.85 713.45 587.97 711.97 588.08 709.06 587.97 708.01 586.34 705.56 586 704.5 586.14 701.62 585.8 698.38 Z"/>
<path d="M 421.25 487.59 419.79 488.93 419.22 488.62 420.02 487.08 414.32 485.63 409.36 486.74 406.2 493.49 410.73 495.29 398.62 495.49 388.39 498.74 383.23 503.15 374.14 505.38 373.28 506.86 372.28 506.92 371.91 504.49 365.07 500.65 361.71 495.69 368.86 489.39 356.81 487.14 352.99 489.02 347.89 484.69 348.4 480.41 352.11 477.11 348.43 471.38 336.43 466.05 334.44 461.55 341.19 460.32 330.08 453.94 329.25 447.52 334.01 445.64 349.14 446.55 351.79 452.54 360.88 459.95 375.25 465.54 381.46 460.83 388.3 463.06 397.56 463.17 399.59 458.35 405.49 464.22 414.46 465.11 431.22 464.97 434.44 471.55 428.91 476.94 416.06 479.13 422.44 486.11 421.25 487.59 Z M 368.44 498.88 368.27 498.2 366.44 497.94 366.33 498.65 368.44 498.88 Z M 379.47 493.49 377.87 492.41 377.27 492.21 375.5 492.13 373.94 492.7 373.54 493.44 373.77 494.32 374.91 494.92 376.7 494.98 379.47 493.49 Z M 380.26 468.3 380.15 469.53 383.14 472.06 383.09 470.44 385.74 466.99 384.8 466.28 383.91 467.36 382.72 467.76 381.26 467.5 380.26 468.3 Z M 391.84 477.05 391.78 475.8 389.53 473.97 388.42 473.74 387.96 474.48 387.67 476.17 387.76 476.85 391.07 478.05 391.84 477.05 Z M 381.52 482.89 381.89 481.98 381.4 480.07 379.98 479.7 381.52 482.89 Z M 402.81 488.42 401.84 487.31 401.1 487.05 399.27 486.8 398.3 487.17 396.82 488.05 396.77 489.36 402.81 488.42 Z M 429.45 471.75 429.48 470.67 430.42 470.29 430.77 469.72 429.91 469.33 428.31 469.61 427.77 470.41 427.77 471.41 428.4 472.09 428.88 472.12 429.45 471.75 Z M 409.79 478.59 410.56 479.61 413.58 479.5 413.67 478.59 413.95 477.53 412.7 476.85 413.41 476.39 413.3 476.02 413.21 475.77 414.61 475.82 417.91 473.74 417.2 472.89 413.95 471.83 412.13 473.57 410.87 474.68 410.1 475.8 410.45 477.28 409.9 477.76 409.79 478.59 Z M 428.83 464.4 424.75 462.69 411.61 461.97 406.4 459.86 406.43 451.57 417.43 454.73 419.88 458.98 425.86 461.26 434.3 458.04 433.24 463.91 428.83 464.4 Z M 416.8 459.12 416.97 459.95 418 457.5 417.57 457.27 414.81 455.39 414.55 456.13 413.84 458.18 413.87 458.78 416.8 459.12 Z" fill-rule="evenodd"/>
<path d="M 238.82 478.39 238.19 477.9 235.09 474.23 236.31 473.77 233.95 471.35 234.63 470.29 236.31 470.07 238.71 471.49 240.82 477.53 238.82 478.39 Z M 239.93 480.07 238.88 478.64 243.58 477.42 243.27 471.92 243.44 470.78 241.5 469.53 240.33 467.84 240.22 466.65 242.13 465.51 243.87 465.34 254.53 465.25 261.85 461.17 269.69 466.53 268.09 466.56 268.72 467.62 265.55 472.35 264.76 474.48 269.34 476.05 268.69 476.59 272.22 477.5 271.65 476.71 271.25 476.11 272.65 476.17 273.08 476.65 274.9 476.48 274.9 479.1 274.33 479.39 279.46 484.54 267.72 483.92 264.13 487.22 266.01 490.73 264.21 489.47 260.88 494.35 259.34 493.49 258.26 487.42 250.76 490.39 250.56 494.72 249 493.58 246.4 491.36 243.27 490.39 241.33 483.12 241.39 481.98 239.93 480.07 Z M 255.41 479.16 256.15 479.56 256.98 478.82 257.52 478.47 257.18 477.65 257.55 476.74 258.17 476.25 258 475.62 257.32 475.17 256.66 475.54 256.23 476.31 256.41 476.99 256.18 477.79 255.41 479.16 Z M 248.51 470.41 248 470.04 248.2 469.58 248.28 469.41 247.83 469.15 247.09 469.01 246.57 468.93 245.58 467.99 244.84 467.93 244.46 468.61 244.46 469.67 245.15 470.12 246.12 471.38 247.12 471.38 247.77 471.21 248.51 470.98 248.51 470.41 Z M 260.99 472.29 261.88 472.72 261.48 471.69 260.99 472.29 Z M 261.34 491.18 260.54 491.61 260.08 491.64 260.25 492.7 262.33 491.87 261.99 491.16 262.19 490.3 261.62 490.04 261.34 491.18 Z M 251.19 474.37 249.48 474.6 251.93 474.68 251.19 474.37 Z M 247.66 480.38 247.66 481.27 248.57 487.14 249.68 487.45 249.31 482.21 251.25 481.84 247.66 480.38 Z" fill-rule="evenodd"/>
<path d="M 257.35 510.34 258.94 509.42 268.4 502.95 271.54 499.28 273.05 498.88 282.34 497.4 283.88 496.77 284.28 501.07 289.75 504.52 290.01 507.57 289.49 509.28 285.59 511.42 284.88 511.99 282.97 511.73 281.2 511.7 280.77 511.5 280.6 510.39 279.29 510.65 277.89 510.17 277.35 510.91 281.68 515.41 282.43 515.87 283.96 515.98 285.33 516.24 286.73 516.32 286.56 517.38 288.27 517.66 289.15 518.52 289.98 522.19 290.26 523.47 288.87 524.24 287.67 525.16 285.85 525.84 285.16 525.04 282.94 524.47 281.34 527.58 279.8 527.92 279.89 528.21 281.54 528.4 277.27 528.35 275.87 528.21 274.96 528.52 273.62 528.63 272.99 527.89 271.48 527.55 266.69 529.29 264.98 529.26 259.68 528.43 260.34 527.44 262.19 527.01 262.79 527.44 263.02 526.78 263.76 525.78 258.4 523.28 258.71 520.03 260.17 519.23 265.73 516.58 265.95 515.95 264.98 515.49 263.42 515.69 262.59 516.66 260.99 517.6 256.01 516.35 254.7 515.41 254.67 514.24 253.93 513.76 254.3 510.34 256.43 510.54 257.35 510.34 Z M 268.92 506.15 268.58 507.63 268.58 508.77 269.89 508.65 268.92 506.15 Z M 273.39 503.47 274.82 503.01 274.9 502.7 274.36 501.99 272.71 502.53 273.39 503.47 Z" fill-rule="evenodd"/>
<path d="M 138.7 449.32 137.48 447.12 132.43 445.61 131.44 443.45 129.5 438.4 140.19 439.4 147.28 437.43 145.29 433.33 140.67 431.56 128.84 431.73 126.62 430.99 126.96 430.34 128.44 428.86 127.47 427.66 117.1 424.04 120.83 423.9 137.99 426.75 152.18 423.44 155.97 421.39 159.31 426.29 165.49 431.19 173.33 434.7 179.69 433.59 180.65 429.34 176.72 424.1 175.41 417.4 175.47 412.16 180.26 410.96 178.94 420.19 183.68 425.75 205.02 418.11 216.25 410.08 215.02 405.52 214.14 404.63 212.72 402.98 213.43 402.84 214.88 402.38 216.16 401.16 217.73 396.54 226.97 397.62 227.74 395.28 227.14 394.03 227.02 390.04 222.46 386.93 222.66 385.59 226.08 386.82 226.25 385.82 230.7 385.2 241.87 388.87 253.39 385.54 253.39 387.02 255.21 390.35 266.87 393.32 269.4 396.25 271.05 407.51 264.39 408.99 261.36 400.87 251.48 398.16 248.8 403.21 232.58 402.27 233.26 405.97 234.49 407.23 235.46 407.6 236.68 407.62 236.94 408.31 236.37 409.36 234.86 412.44 234.89 413.12 234.09 413.81 229.36 417.51 228.45 418.08 226.85 418.25 225.85 418.4 220.61 418.91 227.31 428.63 214.28 426.09 208.67 430.37 209.61 432.99 213.2 435.01 220.58 442.42 225.94 441.68 226.88 440.63 228.9 441.62 228.85 442.82 229.99 445.81 231.16 446.33 233.46 445.84 234.12 444.93 238.22 439.83 238.51 439.74 249.88 437.46 251.05 438.92 257.6 442.42 256.8 442.48 256.52 443.88 255.92 442.79 253.84 444.22 252.27 444.9 257.8 449.15 256.15 450.15 246.69 453.57 245.55 454.56 236.83 458.15 235.37 458.64 233.98 460.09 232.41 459.55 232.01 460.69 232.38 461.63 231.04 462.49 229.45 462.37 226.88 460.46 225.63 460.52 221.35 458.55 220.21 459.32 221.21 467.44 223.75 467.5 226.03 469.1 225.51 470.84 217.33 472.75 215.77 473.34 214.26 472.29 213.97 471.72 207.67 473.12 192.51 472 188.63 470.72 182.74 473.57 181.94 475.23 181.25 477.56 181.14 478.25 180.8 480.58 180.77 480.9 180.77 481.64 181 484.69 181.65 485.94 187.69 488.42 188.58 489.42 197.41 492.18 195.08 495.35 184.39 495.6 180.26 494.23 178.63 492.98 174.9 490.9 159.54 495.77 154.66 490.87 154.83 486.94 157.46 483.63 165.09 480.53 162.64 476.45 156.12 476.31 151.96 474.06 156.77 465.99 160.22 469.04 163.64 462.77 172.13 460.09 174.9 453.51 180.77 450.17 179.63 444.65 173.44 440.14 160.65 440.09 155.46 452.23 152.33 455.56 150.53 457.9 151.39 466.76 139.93 466.02 140.3 460.8 145.49 459.55 151.56 448.04 149.85 445.13 143.78 446.04 138.7 449.32 Z M 211.21 457.61 211.38 458.27 212.94 458.98 214.2 458.98 214.31 458.35 214.08 457.24 213.6 456.04 212.86 455.73 211.49 457.36 211.21 457.61 Z M 174.84 475.25 172.82 473.8 166.12 471.98 168 473.37 174.84 475.25 Z M 199.24 451.29 198.38 456.1 208.33 455.16 206.59 450.54 213.54 449.06 217.02 441.17 209.47 436.12 197.78 433.79 182.36 434.16 179.2 437.86 186.07 450.17 187.04 454.48 196.27 455.28 199.24 451.29 Z" fill-rule="evenodd"/>
<path d="M 229.45 513.02 229.05 511.36 226.48 502.3 222.43 500.3 222.52 496.23 220.47 489.67 216.54 485.51 217.19 484.86 218.76 484.97 227.68 482.06 228.62 482.75 228.48 484 230.79 485.34 234.35 487.65 235.94 488.76 237.37 489.36 238.82 488.73 239.96 487.42 241.76 486.62 241.87 491.67 240.65 491.33 242.53 495.94 247.17 496.51 245.8 497.63 245.41 498.14 244.78 498.34 242.36 502.24 242.7 503.5 242.27 504.38 243.87 512.82 242.64 514.24 240.3 515.89 240.1 516.86 239.85 518.37 239.56 518.66 238.31 519.11 236.94 518.2 235.37 517.32 233.92 516.95 229.45 513.02 Z M 241.56 514.24 241.59 513.84 241.61 513.5 241.67 512.9 240.28 513.19 240.02 513.53 240.19 514.1 241.56 514.24 Z M 236.74 514.35 236.51 515.52 237.57 512.19 237.94 511.39 236.34 512.25 237.05 512.99 236.74 514.35 Z M 230.13 489.73 228.51 489.33 228.51 490.93 230.22 491.18 230.13 489.73 Z" fill-rule="evenodd"/>
<path d="M 222.78 523.1 213.29 519.88 210.84 515.75 217.39 509.77 226.97 512.62 229.99 520.8 222.78 523.1 Z"/>
<path d="M 302.4 533.48 302.66 533.91 305.85 537.58 302.2 542.4 303.2 554.94 300.18 562.06 306.85 561.35 312.92 569.33 311.84 569.96 303.43 577.54 295.71 574.09 287.3 577.08 285.22 572.72 286.79 569.39 286.07 568.28 274.56 565.77 277.38 559.75 278.92 559.73 282.03 557.16 284.36 556.16 285.79 548.53 277.35 545.99 285.08 540.97 289.86 534.96 289.92 534.59 289.75 533.42 290.86 532.62 301.46 532.48 301.72 533.22 302.4 533.48 Z M 310.24 569.19 310.24 568.39 308.47 568.39 308.73 569.19 309.7 569.7 310.24 569.19 Z M 284.68 564.17 284.11 564.63 283.54 565.08 282.71 565.28 282.82 565.97 284.79 565.77 286.07 564.77 285.96 564.2 284.68 564.17 Z M 281.63 564.46 281.63 563.86 281.29 563.52 280.86 563.12 279.58 563.35 278.92 563.46 279.03 564.31 279.8 564.71 281.63 564.46 Z M 285.05 563.12 285.08 562.58 284.16 562.12 284.25 561.55 282.06 562.29 283.28 562.86 285.05 563.12 Z M 292.94 563.52 292.49 563 290.35 561.78 289.24 561.81 288.75 562.03 288.7 562.63 289.47 563.17 291.46 563.26 292.94 563.52 Z M 295.62 569.5 296.05 570.56 297.7 569.96 297.67 569.02 296.68 567.93 295.76 567.39 294.74 566.74 294.17 567.42 294.97 568.02 295.17 569.02 295.62 569.5 Z M 291.83 558.87 292.71 560.01 293.88 562.06 294.42 561.78 294.2 561.41 293.83 559.53 294.88 559.1 295.96 558.16 296.22 557.5 296.48 555.42 297.45 554.51 300.61 554.99 301.01 554.34 302.32 553.85 302.46 553.28 300.84 552.54 298.9 552.52 298.1 552.86 297.05 553.48 295.88 553.23 295.08 553.85 294.42 554.82 295.14 555.48 294.31 556.19 293.11 556.82 292.77 558.07 291.83 558.87 Z M 300.75 551.12 301.66 551.03 301.86 550.69 301.69 550.12 299.7 550.06 299.95 550.75 300.75 551.12 Z M 301.83 556.31 301.29 555.82 300.69 555.74 299.64 555.99 298.39 555.65 297.64 556.25 299.67 557.08 300.78 557.45 301.81 556.99 301.83 556.31 Z M 293.31 546.36 294.97 544.93 296.68 544.25 297.87 543.51 298.36 542.46 297.33 541.89 290.12 543.25 290.78 543.77 291.86 543.65 291.66 544.25 291.43 544.93 291.8 545.73 291.86 546.64 293.31 546.36 Z M 281.37 545.65 281.43 546.96 283.88 543.45 281.71 545.11 281.37 545.65 Z" fill-rule="evenodd"/>
<path d="M 281.29 532.82 281.23 533.53 273.93 535.84 272.62 540.06 259.51 543.25 252.3 540.69 258.97 533.99 270.09 532.51 272.85 530.14 281.29 532.82 Z"/>
<path d="M 281.23 533.53 281.29 532.82 286.7 533.79 285.42 538.35 278.18 540.32 281.23 533.53 Z"/>
<path d="M 187.72 488.42 187.69 488.42 181.65 485.94 180.83 480.47 180.8 480.58 181.14 478.25 181.17 478.25 198.27 485.11 195.08 488.53 187.72 488.42 Z"/>
<path d="M 216.54 485.51 220.47 489.67 222.52 496.23 215.74 495.2 210.18 487.59 216.54 485.51 Z"/>
<path d="M 319.65 458.24 322.98 465.02 321.78 468.44 312.61 466.65 313.95 461.12 317.17 458.3 319.65 458.24 Z"/>
<g/>
<path d="M 296.93 415.18 297.45 415.09 302.97 411.02 306.74 404.2 304 399.5 299.21 400.5 298.21 395.46 302.77 393.29 298.61 387.85 300.87 385.65 307.22 389.7 308.39 388.27 317.94 385.14 321.93 384.6 327 381.72 333.75 382.35 335.32 379.67 338.14 380.24 340.74 390.38 333.78 389.21 325.83 399.73 323.49 403.06 324.89 409.99 324.75 410.99 325.97 413.58 326.71 414.35 327 415.63 326.17 415.75 320.67 414.09 314 407.54 309.61 410.39 307.13 411.1 305.71 413.32 303 417.63 304.06 420.45 304.43 420.48 296.65 420.16 296.93 415.18 Z"/>
<path d="M 154.83 486.94 154.66 490.87 141.41 487.37 141.58 478.99 146.06 480.55 154.21 478.59 154.83 486.94 Z"/>
<path d="M 569.3 278.64 579.59 278.55 593.78 280.37 590.22 287.47 586.49 286.07 575.86 286.87 569.3 278.64 Z"/>
<path d="M 265.61 567.14 264.76 569.93 255.95 563.63 259 558.53 250.68 556.31 244.69 556.39 229.42 548.9 232.58 543.08 240.16 545.85 244.95 550.12 258.14 549.1 260.97 550.21 264.02 558.44 265.61 567.14 Z M 233.58 534.05 233.98 535.87 231.53 541.97 226.28 545.53 218.76 540.12 216.22 537.87 214.63 537.1 209.87 535.93 208.21 535.05 207.39 534.13 205.62 534.19 200.49 533.34 199.44 532.74 193.76 529.97 194.9 529.72 194.88 529 194.28 527.86 194.16 521.11 194.73 519.43 200.12 517.23 203 518.54 205.25 519.86 207.84 520.23 215.11 523.08 224.52 528.66 229.02 529.46 233.58 534.05 Z" fill-rule="evenodd"/>
<path d="M 291.09 434.67 289.84 441.88 283.88 440.54 278.32 433.47 291.09 434.67 Z"/>
<path d="M 326.71 414.35 325.97 413.58 332.67 414.38 333.61 410.96 334.21 411.04 332.96 418.03 324.61 420.68 326.17 415.75 327 415.63 326.71 414.35 Z"/>
<g/>
<path d="M 336.72 342.33 337.71 343.07 334.86 347.06 332.36 347.66 330.76 347.58 328.25 347.43 327.54 352.99 310.24 357.1 308.42 355.53 295.39 354.56 295.93 339.2 328.34 340.57 335.92 341.28 336.72 342.33 Z"/>
<path d="M 447.12 340.48 452.77 347.89 447.58 351.82 438.8 352.59 443.16 342.76 447.12 340.48 Z"/>
<g/>
<path d="M 318.48 557.16 310.27 554.03 305.14 548.18 306.14 544.22 314.69 546.25 324.35 545.42 325.57 553.66 317.14 553.83 318.48 557.16 Z"/>
<path d="M 295.85 518.29 295.48 515.69 294.99 514.58 293.88 513.47 289.72 509.97 290.32 507.4 290.21 504.81 304.28 502.01 310.04 509.31 310.27 514.04 303.32 513.76 295.85 518.29 Z"/>
<path d="M 451.83 490.53 440.43 492.41 433.47 487.48 431.91 481.47 435.64 479.27 452.57 486 451.83 490.53 Z"/>
<path d="M 438.26 479.21 451.09 477.08 455.16 481.69 453.39 485.11 438.26 479.21 Z"/>
<path d="M 10 571.54 10.71 570.84 10 570.55 10.63 563.86 10 563.72 10 544.98 16.33 541.06 22.03 535.1 26.73 536.01 28.84 539.98 37.53 543 36.79 548.38 25.76 555.45 18.07 567.51 12.62 573.09 10 571.54 Z"/>
<path d="M 369.95 443.88 371.66 441.8 377.3 441.97 379.38 437.06 388.81 436.72 399.44 447.5 395.48 451.03 394.06 451.4 386.22 447.61 376.64 450.49 370.15 446.1 370.29 445.41 369.35 445.02 369.95 443.88 Z"/>
<g/>
<path d="M 285.65 494.66 286.05 489.79 292.49 490.93 290.41 494.95 285.65 494.66 Z"/>
<path d="M 300.35 478.76 300.84 480.1 293.14 481.55 287.01 469.3 290.12 466.08 303.2 463.48 306.94 463.54 311.52 466.99 312.12 469.1 303.4 472.6 301.83 473.86 300.35 478.76 Z"/>
<g/>
<path d="M 350.85 497.74 341.53 492.18 345.69 486.03 350.94 490.73 350.85 497.74 Z"/>
<path d="M 324.52 480.27 324.43 475.62 333.24 472.4 341.25 475.8 342.9 481.12 335.86 481.49 324.52 480.27 Z"/>
<g/>
<g/>
<path d="M 318.16 355.81 324.83 366.93 315.14 371.43 310.13 370.97 301.75 369.06 299.53 362.31 318.16 355.81 Z"/>
<path d="M 612.56 216.28 644.91 176.21 646.71 180.97 645.37 188.89 638.9 198.52 636.07 201.2 629.18 206.5 625.22 211.92 623.59 225.23 618.49 234.75 611.94 237.43 601.45 234.15 602.62 228.96 612.56 216.28 Z"/>
<path d="M 289.44 402.84 287.5 400.56 277.44 389.41 268.52 388.73 264.67 383.83 272.34 380.52 277.67 380.95 292.43 374.11 294.6 381.06 298.67 382.43 298.61 387.85 289.69 382.97 277.15 384.97 276.87 387.73 283.34 390.52 286.27 394.03 289.44 402.84 Z"/>
<path d="M 253.96 356.1 251.79 350.88 259.88 348.94 274.87 352.73 278.21 357.12 265.5 361.2 257.12 359.46 253.96 356.1 Z"/>
<g/>
<g/>
<g/>
<path d="M 255.18 781.48 259.88 778.54 264.19 769.42 267.04 770.28 263.53 779.51 255.18 781.48 Z"/>
<g/>
<path d="M 205.59 790.06 201.74 786.47 204.96 778.17 208.93 780.17 205.59 790.06 Z"/>
<g/>
<g/>
<path d="M 266.15 764.98 259.14 764.92 248.8 761.9 251.16 757.74 268.52 755.69 268.49 762.01 266.15 764.98 Z"/>
<path d="M 216.31 762.07 215.88 754.78 243.44 754.78 242.84 758.34 225.74 759.11 216.31 762.07 Z"/>
<path d="M 58.28 629.92 52.41 621.11 55.6 620.09 65.94 624.88 68.14 630.4 58.28 629.92 Z"/>
<path d="M 48.33 629.81 35.28 630.6 33.94 622.11 44.09 617.58 46.25 623.91 52.15 623.08 54.8 629.58 48.33 629.81 Z"/>
<path d="M 16.41 624.31 11.91 625.02 11.34 619.43 14.13 612.16 10.31 608.23 17.92 600.79 23.34 606.61 20.29 614.47 14.5 616.75 18.07 619.77 16.41 624.31 Z"/>
<g/>
<path d="M 19.52 597.63 10 589.36 23.91 589.59 24.08 594.67 19.52 597.63 Z"/>
<path d="M 119.35 764.64 119.47 761.27 126.51 754.69 130.1 754.78 129.93 764.86 119.35 764.64 Z"/>
<path d="M 340.74 824.88 346.29 825.08 351.42 828.59 356.55 824.51 366.93 823.52 373.08 826.22 376.67 822.8 381.49 822.09 391.24 826.91 388.56 830.56 380.21 830.58 379.75 824.97 376.47 823.46 373.48 826.34 371.49 826.68 366.61 824.23 357.92 828.13 351.57 828.79 340.74 824.88 Z"/>
<g/>
<g/>
<path d="M 540.15 297.05 542.34 293.94 552.94 287.24 557.3 290.58 547.38 297.08 540.15 297.05 Z"/>
<g/>
<g/>
<path d="M 667.37 196.81 661.35 195.3 663.38 189.23 670.16 194.76 667.37 196.81 Z"/>
<path d="M 616.13 147.77 607.69 144.69 614.56 142.41 616.13 147.77 Z"/>
<g/>
<g/>
<path d="M 564.17 123.03 559.64 107.84 566.22 107.04 568.02 115.42 573.35 117.04 570.07 123.09 564.17 123.03 Z"/>
<path d="M 546.79 76.97 544.56 81.99 538.83 81.08 539.03 64.95 542.85 65.6 542.85 75.49 546.79 76.97 Z"/>
<g/>
<g/>
<g/>
<g/>
<g/>
<path d="M 76.06 526.87 73.75 519.94 79.91 518.17 83.16 521.99 91.34 522.99 84.98 527.72 76.06 526.87 Z"/>
<path d="M 115.05 514.87 108.89 505.18 101.43 500.82 110.86 488.65 117.64 484.77 122.66 485.77 122.54 491.95 119.47 495.37 110.32 497.77 111.34 505.72 115.05 514.87 Z"/>
<g/>
<g/>
<path d="M 540.63 276.95 534.9 269.32 547.67 269.43 548.33 274.02 540.63 276.95 Z"/>
<g/>
<g/>
<g/>
<g/>
<g/>
<path d="M 635.16 168 625.76 164.04 619.4 159 610.85 154.58 615.78 151.33 622.37 155.66 630.46 158.25 636.22 164.58 635.16 168 Z"/>
<g/>
<path d="M 496.23 306.51 491.55 301.81 489.96 293.11 498.11 291.97 500.05 299.84 496.23 306.51 Z"/>
<g/>
<path d="M 347.6 1059.72 347.49 1052.79 352.14 1047.58 352.05 1059.03 347.6 1059.72 Z"/>
<g/>
<g/>
<g/>
<path d="M 486.68 337.32 483.09 336.26 484.6 331.27 491.53 332.9 486.68 337.32 Z"/>
<g/>
<g/>
<g/>
<g/>
<g/>
<g/>
<g/>
<g/>
<path d="M 459.72 372.97 460.32 364.82 464.85 364.62 459.72 372.97 Z"/>
<path d="M 510.76 273.31 511.05 273.88 511.25 285.19 505.6 289.01 496.17 286.56 494.18 288.9 485.48 288.18 477.42 292.52 468.9 294.05 467.7 296.31 454.79 303.43 447.21 299.78 451.06 294.94 461.15 275.53 467.44 272.99 483.69 271.31 502.24 270.86 510.76 273.31 Z"/>
<g/>
<path d="M 453.14 315.17 452.51 315.8 449.72 312.41 454.16 307.22 461.32 310.41 452.71 312.78 453.14 315.17 Z"/>
<path d="M 447.69 310.47 445.33 301.41 454.13 306.17 447.69 310.47 Z"/>
<g/>
<path d="M 422.61 329.91 418.88 325.69 421.59 317.25 427.52 326.14 422.61 329.91 Z"/>
<g/>
<path d="M 431.96 318.16 433.9 314.69 429.23 311.58 437.38 308.5 441.57 310.67 441.11 316.83 431.96 318.16 Z"/>
<path d="M 416.63 314.46 413.47 312.52 411.93 307.56 418.91 302.52 425.92 305.17 424.24 310.1 416.63 314.46 Z"/>
<path d="M 420.31 285.93 422.9 284.56 428.46 287.78 435.33 294.71 435.55 295.88 432.99 293.8 432.85 294.91 425.66 300.1 416.4 302.75 413.92 304.11 412.18 305.82 410.84 311.47 409.59 313.46 408.51 313.29 407.28 312.92 400.67 315.12 399.22 314.12 393.29 317.79 383.6 315.69 378.53 315.86 370 317.48 364.5 316.54 364.19 314.89 364.48 312.32 400.58 295.45 416.54 287.64 419.17 287.36 420.31 285.93 Z"/>
<path d="M 445.78 295.62 440.31 290.21 449.89 290.92 445.78 295.62 Z"/>
<path d="M 491.04 268.58 491.81 264.04 498.02 264.13 498.34 267.46 491.04 268.58 Z"/>
<path d="M 447.92 287.13 447.89 285.42 437.18 288.1 432.73 287.78 426.46 282.74 447.92 269.69 456.07 265.1 458.69 260.14 472.35 254.7 489.16 251.36 501.22 251.53 504.69 257.01 489.87 262.73 482.66 263.99 481.44 263.87 482.98 267.86 476.42 268.12 472.15 270.51 465.36 269.6 461.69 273.68 454.48 273.62 457.75 278.89 453.51 287.47 447.92 287.13 Z"/>
<path d="M 403.15 344.27 402.72 343.81 398.13 341.56 399.02 340.96 392.46 332.73 393.57 330.13 393.92 329.74 392.8 328.77 392.15 328.2 390.72 328.28 390.21 326.83 390.38 326.4 400.36 321.24 412.78 318.36 417.03 319.36 417.46 320.44 417.37 329.05 414.89 335.64 414.29 336.63 411.98 336.75 410.9 335.92 409.76 335.64 407.94 336.4 403.18 338.51 401.84 338.29 401.35 338.91 401.18 339.65 401.61 340.91 402.24 341.73 402.86 341.85 404.15 342.67 405.63 342.85 403.15 344.27 Z"/>
<path d="M 509.4 270.83 505.23 251.76 512.73 261.62 512.81 270.86 509.4 270.83 Z"/>
<path d="M 566.14 260.88 564.91 261.39 560.15 261.68 546.56 255.1 546.64 254.18 551.92 252.22 562.77 244.58 573.35 245.01 573.66 245.8 569.93 250.56 568.76 251.96 567.25 254.7 568.76 254.47 567.62 260.82 566.14 260.88 Z"/>
<g/>
<path d="M 514.95 272.45 519.8 268.8 527.95 269.49 521.96 275.81 514.95 272.45 Z"/>
<g/>
<g/>
<g/>
<path d="M 419.85 361.43 412.61 354.47 409.19 349.06 415.06 345.52 421.39 346.72 429.31 353.48 425.61 359.72 419.85 361.43 Z"/>
<path d="M 364.28 347.58 363.54 347.8 366.27 345.61 371.69 346.46 378.75 344.81 379.98 336.35 392.35 345.78 393.26 347.03 393.94 347.46 396.31 347.69 400.67 354.25 403.41 354.62 405.32 355.61 405.91 357.01 406.57 359.43 396.14 369.61 388.19 372.09 387.33 369.72 382.52 366.67 379.75 363.54 373.05 360.34 368.81 363.62 370.52 370.89 359.57 367.16 355.84 367.61 352.65 356.5 360.17 355.9 364.28 347.58 Z"/>
<g/>
<g/>
<path d="M 476.14 365.22 468.9 363.62 474.31 359.57 476.14 365.22 Z"/>
<g/>
<g/>
<g/>
<g/>
<g/>
<g/>
<g/>
<path d="M 364.7 323.04 355.67 317.51 361.91 313.52 364.7 323.04 Z"/>
<path d="M 213.8 510.48 212.06 507.54 214.43 502.7 222.06 501.47 219.64 508.26 213.8 510.48 Z"/>
<path d="M 254.7 515.41 256.01 516.35 253.87 518.15 252.82 528.97 258.74 533.05 249.82 534.48 238.39 527.72 239.36 524.64 247.2 518.72 254.7 515.41 Z"/>
<path d="M 240.99 540.69 241.76 533.79 250.31 536.24 246.29 541.8 240.99 540.69 Z"/>
<path d="M 301.15 440.77 304.94 439.63 315.83 443.99 313.86 449.26 312.75 450.26 305.2 443.68 300.41 442.02 301.15 440.77 Z"/>
<path d="M 278.09 432.93 270.51 429.4 274.25 426.89 279.38 429.34 278.09 432.93 Z"/>
<g/>
<path d="M 251.99 430.05 250.82 435.55 242.07 432.45 246.26 427.49 251.99 430.05 Z"/>
<path d="M 274.59 441.54 268.29 440.48 265.95 437.15 273.25 434.9 283.74 440.8 274.59 441.54 Z"/>
<g/>
<g/>
<path d="M 361.11 420.02 360.8 413.81 366.7 415.69 361.11 420.02 Z"/>
<path d="M 52.98 488.22 52.69 486.17 45.54 485.03 39.84 485.54 39.81 480.41 50.16 483.4 54.72 486.11 52.98 488.22 Z"/>
<g/>
<path d="M 51.27 490.3 60.3 494.86 70.53 493.72 75.66 495.63 84.33 495.57 86.69 489.67 90.43 486.65 95.36 490.13 83.56 500.19 75.49 499.45 72.56 496.43 65.75 495.49 57.2 496.31 51.27 490.3 Z"/>
<path d="M 36.56 529.26 25.5 528.63 30.38 523.36 36.79 524.87 36.56 529.26 Z"/>
<path d="M 29.04 535.19 32.06 531.48 57.22 534.5 57.39 538.75 52.92 540.2 44.6 539.49 41.66 537.01 29.04 535.19 Z"/>
<path d="M 50.44 552.03 56.85 547.56 66.89 547.47 65.83 550.81 58.99 552.34 50.44 552.03 Z"/>
<g/>
<path d="M 71.99 594.75 71.87 590.19 77.12 590.19 76.83 599.71 71.99 594.75 Z"/>
<g/>
<path d="M 123.77 695.53 118.13 687.35 124.2 688.26 126.56 692.13 123.77 695.53 Z"/>
<g/>
<g/>
<path d="M 515.07 307.14 514.01 302.15 515.89 297.87 525.75 291.12 529 296.82 525.92 301.04 526.87 304.51 522.19 307.93 515.07 307.14 Z"/>
<g/>
<path d="M 474.31 495.29 474.23 485.6 477.11 480.33 486.23 476.68 486.94 483.26 480.64 498.88 474.31 495.29 Z"/>
<path d="M 436.64 501.05 436.81 500.42 444.9 498.79 445.27 498.51 450.43 502.84 447.29 505.98 439.4 504.52 436.64 501.05 Z"/>
<g/>
<path d="M 436.81 500.42 436.64 501.05 430.94 501.1 424.55 504.24 412.24 502.56 406.43 499.34 418.71 496.88 423.33 494.52 421.87 490.7 433.5 491.3 433.27 497.08 436.81 500.42 Z"/>
<path d="M 319.65 458.24 317.17 458.3 312.75 450.26 313.86 449.26 326.97 445.36 326.6 454.51 333.55 460.38 325.26 461.17 319.65 458.24 Z"/>
<path d="M 324.75 410.99 324.89 409.99 331.42 406.74 336.55 399.45 341.53 404.09 338.2 409.53 334.21 411.04 333.61 410.96 324.75 410.99 Z"/>
<g/>
<g/>
<g/>
<g/>
<g/>
<g/>
<g/>
<path d="M 427.17 662.72 433.73 663.24 438.26 665.52 444.27 671.27 458.27 676.46 466.7 685.21 473.4 687.86 482.49 694.81 489.67 704.9 500.53 723.14 503.98 726.33 502.73 726.65 498.99 722.77 487.56 703.73 481.1 694.93 465.42 685.35 457.3 676.86 444.07 672.18 437.43 665.52 433.53 663.78 421.56 662.32 409.31 662.27 391.04 662.35 385.48 666.14 378.5 666.74 371.2 664.09 366.98 658.11 364.3 638.67 365.64 638.53 367.95 657.62 370.29 661.81 378.04 665.83 385.37 665.09 390.61 661.5 409.45 661.73 423.98 661.55 427.17 662.72 Z"/>
<path d="M 257.06 613.25 257.55 620.17 249.4 618.04 257.06 613.25 Z"/>
<g/>
<path d="M 155.72 520.85 146.34 517.58 135.48 516.86 154.69 510.14 157.03 510.34 155.72 520.85 Z"/>
<path d="M 178.63 492.98 180.26 494.23 179.43 497.94 184.79 499.62 189.12 497.68 195.59 502.01 185.7 504.35 179.2 504.27 170 496.26 178.63 492.98 Z"/>
<path d="M 193.28 480.35 199.69 475.77 209.24 476.34 205.28 481.15 193.28 480.35 Z"/>
<g/>
<g/>
<g/>
<path d="M 216.51 579.5 210.18 576.94 212.69 574.23 220.15 576.51 216.51 579.5 Z"/>
<path d="M 202.91 559.75 195.45 559.21 192.51 555.62 197.3 552.77 202.91 559.75 Z"/>
<path d="M 189.12 378.27 209.92 371.91 214 366.27 223.66 370.46 222.35 374.71 209.15 376.96 200.63 381.35 189.12 378.27 Z"/>
<g/>
<g/>
<path d="M 576.8 792.65 576.11 793.02 546.87 762.47 543.14 755.23 536.24 749.53 524.21 743.09 511.62 734.8 502.73 726.65 503.98 726.33 512.56 734.26 523.73 741.52 538.49 749.93 544.71 756.37 547.53 761.93 576.8 792.65 Z"/>
<path d="M 364.33 344.58 356.92 341.02 362.14 336.83 364.33 344.58 Z"/>
<g/>
<g/>
<path d="M 373.37 386.31 371.03 382.89 381.92 377.61 384.05 373.48 389.24 375.45 380.72 379.67 373.37 386.31 Z"/>
<path d="M 369.21 391.01 365.19 388.84 367.75 382.63 372.37 386.79 369.21 391.01 Z"/>
<g/>
<g/>
<g/>
<path d="M 263.5 613.13 269.2 616.33 267.32 623.08 260.28 614.84 263.5 613.13 Z"/>
<g/>
<g/>
<g/>
<path d="M 287.33 512.39 294.65 514.5 295.19 515.95 291.72 519.6 287.33 512.39 Z"/>
<g/>
<g/>
<path d="M 513.3 250.99 501.67 249.45 488.79 249.05 468.73 253.44 457.87 257.95 456.64 256.29 497.82 244.18 514.24 245.26 513.3 250.99 Z"/>
<path d="M 591.93 248.06 597.8 235.89 599.71 234.95 610.11 238.14 598.37 243.15 591.93 248.06 Z"/>
<path d="M 641.58 219.39 632.65 229.36 625.44 233.07 626.67 237.8 619.57 244.27 618.83 247.4 609.29 250.99 601.48 256.26 589.96 256.55 594.72 247.86 600.31 243.53 622.34 235.69 623.88 229.28 631.63 207.7 633.57 205.93 641.95 217.45 641.58 219.39 Z"/>
<g/>
<path d="M 365.64 638.53 364.3 638.67 362.48 622.31 364.16 615.96 365.64 616.07 363.91 622.05 365.64 638.53 Z"/>
<path d="M 331.16 603.56 313.58 608.26 293.57 605.52 283.28 599.14 269.37 596.86 258.32 591.25 240.28 585.66 214.11 568.42 208.24 563.6 197.67 552.14 196.93 544.22 184.9 531.63 179.66 530.86 165.04 532.65 151.81 522.9 147.88 518.86 137.82 519.74 92.42 536.44 78.37 536.44 10 528.6 10 528.13 78.37 535.93 90.94 536.1 139.02 518.94 148.88 518.8 152.55 522.76 165.92 532.37 178.69 530.49 184.3 530.86 185.98 531.85 197.55 544.22 198.52 552.37 210.09 564.86 239.76 584.78 256.83 590.16 269.4 596.35 284.85 599.37 294.74 605.47 313.18 607.8 330.85 603.1 331.16 603.56 Z"/>
<path d="M 365.64 616.07 364.16 615.96 362.11 609.46 355.04 606.98 349.14 607.21 331.16 603.56 330.85 603.1 349.51 606.29 354.81 605.92 363.02 608.57 365.64 616.07 Z"/>
<path d="M 291.43 423.21 291.86 424.41 292.09 425.55 292.74 425.81 294.51 425.89 294.82 426.35 295.93 426.18 298.07 422.47 299.27 423.47 301.04 423.44 300.78 423.93 299.7 424.24 299.75 425.07 300.12 425.47 301.21 425.69 301.61 426.21 301.38 426.78 300.1 426.15 296.42 427.75 294.14 426.18 293.65 426.12 292.34 426.35 291.8 426.29 283.79 425.07 283.17 425.86 280.35 424.5 278.75 424.07 275.67 424.75 274.33 424.98 273.22 424.61 273.96 423.21 267.92 423.61 266.87 424.01 267.83 427.72 260.6 428.29 259.63 428.23 261.39 426.18 261.34 424.64 267.83 418.8 263.05 414.52 262.79 413.95 263.7 411.27 265.16 410.53 264.76 410.33 264.47 409.68 271.25 407.71 273.19 410.59 274.33 411.36 275.9 411.81 276.84 419.28 281.14 420.68 283.02 421.99 291.43 423.21 Z"/>
<g/>
<path d="M 301.15 440.77 300.41 442.02 296.85 445.1 305.99 454.82 294.05 455.73 283.39 447.98 288.95 442.42 298.47 436.92 301.15 440.77 Z"/>
<path d="M 560.69 126.51 553 118.04 556.73 116.79 559.87 122.46 572.26 129.1 567.02 132.98 560.69 126.51 Z"/>
<path d="M 348.46 302.46 346.86 302.8 354.02 307.48 343.44 307.73 331.3 300.24 329.88 297.13 341.02 295.85 403.52 279.35 427.83 267.64 430.48 274.65 421.82 276.78 416.91 273.82 413.72 278.81 416.54 284.65 406.77 286.76 402.47 290.92 389.16 296.02 383.03 300.15 370.8 304.8 359.15 305.2 356.84 303.23 355.67 301.69 353.82 301.32 348.46 302.46 Z M 445.64 259.03 445.9 265.33 439.71 261.91 445.64 259.03 Z M 510.19 210.86 514.01 210.64 513.78 226.31 506.35 216.68 510.19 210.86 Z" fill-rule="evenodd"/>
<path d="M 327.74 368.49 324.83 366.93 318.16 355.81 331.53 352.68 344.04 348.72 347.92 355.07 351.91 356.27 355.18 367.35 351.79 368.61 345.24 376.33 338.14 380.24 335.32 379.67 336.18 375.42 327.74 368.49 Z"/>
<path d="M 572.46 143.55 573.58 143.72 579.56 149.9 589.85 149.36 595.35 154.01 606.98 154.18 616.27 158.43 622.74 164.24 622.99 168.66 619.09 173.56 620.29 177.26 616.5 181.05 608.2 185.22 605.98 193.34 603.67 194.73 601.48 197.78 593.38 198.24 590.59 201.74 583.86 203.14 580.87 207.7 574.92 208.58 565.62 213.57 562.69 217.28 557.39 216.85 556.08 220.78 519 210.32 517.18 208.73 542.65 176.04 549.41 166.12 549.55 165.95 566.31 145.09 572.46 143.55 Z"/>
<path d="M 528.35 246.86 522.62 249.34 516.8 249.88 516.8 244.44 516.41 213.03 522.85 212.12 562.77 224.03 561.24 230.67 553.4 231.95 550.72 239.73 541.4 244.27 528.35 246.86 Z"/>
<path d="M 199.24 451.29 196.27 455.28 187.04 454.48 186.07 450.17 179.2 437.86 182.36 434.16 197.78 433.79 209.47 436.12 217.02 441.17 213.54 449.06 206.59 450.54 208.33 455.16 198.38 456.1 199.24 451.29 Z"/>
<g/>
<g/>
<path d="M 427.74 679.45 427.2 676.94 419.74 671.13 427.74 671.44 427.74 679.45 Z"/>
<g/>
<path d="M 409.31 662.27 421.56 662.32 433.53 663.78 437.43 665.52 433.53 663.86 409.31 662.27 Z M 438.26 665.52 433.73 663.24 427.17 662.72 434.24 663.12 438.26 665.52 Z" fill-rule="evenodd"/>
<g/>
<g/>
<g/>
<g/>
<g/>
<g/>
<path d="M 10 675.53 29.09 676.97 60.59 676.15 75.69 676.26 92.53 678.82 97.46 686.21 97.92 690.54 104.45 696.98 117.24 701.94 125.74 715.87 129.47 719.64 128.1 744.86 120.46 742.72 119.3 731.32 115.08 729.01 91.77 726.65 10 722.96 10 675.53 Z"/>
<path d="M 10 736.04 15.84 735.77 63.66 737.9 83.16 739.24 100.26 739.1 105.42 740.01 110.77 744.4 110.95 749.19 98.09 760.19 97.04 765.75 97.41 781.42 95.41 785.04 83.39 788.35 51.5 794.02 37.13 798.52 16.47 806.02 10 809.72 10 736.04 Z"/>
<g/>
<path d="M 371.66 441.11 365.07 441.6 356.89 437.89 356.27 434.56 369.63 439.06 371.66 441.11 Z"/>
<g/>
<path d="M 329.34 297.19 293.83 301.35 167.97 318.68 69.19 325.95 10 358.45 10 14.64 330.54 14.64 393.74 44.88 433.24 68.48 453.85 82.96 495.89 127.68 528.66 157.14 543.57 169.28 515.44 202.91 510.76 209.98 510.19 210.86 506.35 216.68 502.04 223.2 483.63 246.75 452.82 255.58 445.64 259.03 439.71 261.91 437.21 263.1 435.33 264.02 427.83 267.64 403.52 279.35 341.02 295.85 329.88 297.13 329.34 297.19 Z"/>
<g/>
<g/>
<g/>
</g>
</svg>