<?xml version="1.0"?>
<svg xmlns="http://www.w3.org/2000/svg" version="1.2" baseProfile="tiny" width="800" height="734" viewBox="0 0 800 734" stroke-linecap="round" stroke-linejoin="round">
<defs>
    <style>
        :root {
            --water-color: #9FC9EA;
            --bg-color: #F2E7D3;
        }
    
        svg {
            background: var(--bg-color, #ffffff);
        }
        path, polygon, rect, circle {
            fill: var(--water-color, #3b82f6);
            stroke: none;
        }
    </style>
</defs>
<g id="water">
<path d="M 444.47 241.11 443.47 241.25 443.45 241.23 444.47 241.11 Z"/>
<path d="M 276.74 225.9 275.19 227.89 271.51 229.21 268.73 228.48 266.83 226.78 263.12 225.15 257.78 223.76 251.7 224.45 249.12 225.7 243.1 230.67 241.44 232.41 235.13 237.82 230.89 242.97 226.3 246.35 222.9 248.33 219.05 249.53 216.4 249.83 211.9 251.43 209.96 252.84 203.86 258.55 199.67 263.46 194.55 268.54 192.8 272.31 189.56 276.06 185.38 278.84 181.9 281.72 179.53 284.52 176.09 286.84 164.43 293.55 160.22 295.69 150.79 299.62 141.32 305.14 136.92 308.61 132.11 315.91 129.92 319.86 127.98 324.17 124.92 328.26 121.63 330.46 111.84 334.9 101.84 341.54 96.13 344.86 93.15 346.93 86.48 352.36 84.54 353.64 78.84 358.54 70.56 366.16 63.58 372.19 58.57 375.79 55.94 378.97 51.77 382.41 47.58 384.73 44.84 388.73 42.83 393.1 40.76 400 39.06 402.41 36.19 403.96 33.09 404.18 28.43 403.05 24.71 403.21 21.48 404.42 13.38 409.21 12.61 408.53 21.22 403.45 23.97 402.33 27.47 401.93 33.16 403.52 35.48 403.41 37.57 402.5 39.59 399.54 41.97 392.06 44.55 387.13 47.33 383.73 50.51 378.28 51.91 376.91 54.78 375.5 57.31 375.26 61.84 372.47 66.45 368.28 69.34 366.14 74.02 361.63 82.37 354.11 92.02 346.51 96.08 343.67 101.42 340.49 110.63 334.32 122.04 329.05 125.82 325.52 129.62 317.83 132.91 312.34 136.61 307.5 139.38 305.14 150.22 298.78 160.81 294.15 165.8 291.6 174.99 286.37 177.59 284.58 183.79 278.74 189.27 274.96 191.39 272.58 193.49 268.36 194.95 266.41 198.37 263.24 202.34 258.76 207.51 253.72 211.72 250.5 215.21 249.09 220.55 248.36 225.34 245.77 231.19 241.2 234.7 236.66 249.23 224.34 254.97 222.7 258.7 222.66 261.8 223.17 267.2 225.92 269.46 227.63 272.64 228.15 274.25 227.23 275.13 224.95 276.74 225.9 Z M 50.23 382.65 54.49 378.74 53.03 376.85 50.8 378.63 48.39 383.27 50.23 382.65 Z" fill-rule="evenodd"/>
<path d="M 789.15 549.04 786.22 549.69 783.57 551.72 782.01 551.61 779.89 550.15 778.32 547.68 778.28 545.16 773.7 544.2 771.34 541.33 769.16 541.99 765.74 542.34 764.57 543.84 763.71 547.09 762.33 548.1 759.2 546.2 757.7 544.3 757.79 542.36 760.77 539.56 760.33 537.17 759.24 537.02 752.67 538.36 747.28 538.78 741.94 540.64 739.58 543.75 738.16 544.84 735.91 544.41 735 541.41 737.72 537.7 738.4 534.24 737.46 532.76 732.97 531.5 729.22 529.16 726.72 529.6 726.13 531.99 724.45 532.91 721.54 532.1 719.55 530.5 719.15 528.45 720.48 525.05 719.22 523.31 715.93 522.91 713.52 523.73 711.32 525.25 707.16 525.29 703.61 523.91 704.2 518.27 702.4 517.66 700.37 518.72 698.02 521.52 696.88 521.78 686.72 519.12 683.1 519.75 680.45 522.78 676.32 522.8 676.52 520.72 675.29 519.31 674.51 516.58 672.24 515.23 668.84 510.81 665.86 511.03 663.85 510.39 663.21 508.85 664.45 507.66 668.38 507.86 669.79 506.9 670.74 504.74 669.46 503.44 666.1 502.69 664.51 505.01 663.18 504.83 661.75 503.51 662.63 501.85 665.09 498.65 667.6 497.96 667.51 496.06 664.53 494.12 661.99 493.62 658.88 494.39 657.03 494.25 653.21 492.51 653.01 489.31 649.9 490.3 647.78 489.77 644.53 487.45 641.64 483.22 638.72 480.43 635.12 480.97 630.13 483.35 625.24 483.39 622.61 485.62 622.26 487.43 619.25 487.21 606.65 483.81 602.21 483.33 591.72 485.34 587.77 486.53 577.04 487.23 566.62 488.18 561.17 487.85 558.25 488.45 556.88 487.65 554.59 488.82 552.34 488.62 546.64 493.9 542.8 495.11 537.06 493.35 522.05 490.11 521.78 489.75 541.23 493.92 543.13 494.78 546.79 493.33 552.11 488.32 554.57 488.52 555.91 487.52 557.21 487.45 558.47 488.18 559.62 487.68 566.71 487.92 577.59 486.84 588.36 486.07 592.27 484.81 602.18 482.93 608.43 483.83 619.89 487.14 621.68 487.28 622.39 484.87 623.76 483.46 625.9 483 629.27 483.21 635.04 480.57 638.84 479.93 641.18 481.87 644.99 487.37 647.91 489.44 649.79 489.97 653.32 487.96 653.63 492.58 657.18 493.86 662.22 493.22 665.66 494.32 668.59 496.51 667.78 498.21 664.95 499.16 662.02 503.06 663.98 504.9 665.39 502.36 670.25 503.33 671.2 504.5 670.65 506.4 669.06 508.1 665.35 507.92 663.74 508.54 663.81 510.04 666.14 510.73 669.34 510.73 673.03 514.99 675.2 516.66 675.73 519.07 676.9 520.04 676.46 522.01 678.86 522.76 680.52 522.12 681.55 520.26 683.76 518.83 687.98 518.94 693.7 520.66 697.36 521.3 700.32 518.38 702.09 517.33 704.01 517.52 704.69 518.69 704.34 522.95 705.42 524.32 709.92 525.03 715.91 522.51 718.56 522.78 720.77 523.86 720.9 525.08 719.73 528.06 720.39 530.66 724.45 532.45 727.43 528.21 727.89 528.16 733.79 531.28 737.72 532.25 738.93 534.02 738.18 537.7 735.36 541.55 736.09 544.08 738.74 543.93 740.9 540.59 747.48 538.17 751.8 537.97 760 536.66 761.14 537.66 760.92 540.59 758.25 542.63 758.12 544.02 761.43 547.26 763.37 546.8 764.72 542.49 766.53 540.84 769.31 541.61 771.26 540.97 772.4 541.35 774.48 544.06 778.5 544.39 778.76 547.4 780.35 549.84 783.07 551.19 785.54 549.54 789.15 549.04 Z"/>
<g/>
<path d="M 277.45 224.95 277.16 225.09 276.74 225.9 275.13 224.95 275.08 223.96 275.2 223.27 275.81 221.62 275.73 220.98 275.73 220.18 275.77 219.35 275.37 218.42 274.78 217.58 271.13 212.13 269.9 209.68 267.32 204 266.56 199.67 266.96 196.74 267.98 193.82 268.37 193.1 269.08 192.13 269.65 191.18 269.99 190.36 270.25 189.12 270.23 184.84 270.05 184.04 269.59 183.12 269.21 182.56 267.32 179.85 266.61 178.57 266.94 177.47 267.12 176.82 268.17 175.24 271.69 172.05 274.07 169.25 274.45 168.92 276.19 167.68 277.16 167.13 277.65 166.6 278.18 165.56 278.31 164.88 278.37 164.22 278.27 163.42 278 162.45 277.54 161.53 276.78 160.36 275.99 159.62 274.84 156.85 275.79 153.24 277.12 151.57 281.6 147.24 282.2 146.42 282.33 145.94 282.44 144.19 282.37 143.36 283.69 139.96 288.11 136.45 289.66 134.28 290.21 133.66 290.12 133.31 289.79 132.91 288.55 131.68 284.31 127.22 284.31 126.58 284.84 124.74 284.89 124.41 284.69 124.13 284.2 123.33 284.45 122.78 284.98 121.81 285.13 121.19 285.06 120.86 284.51 120.08 283.74 119.33 280.76 115.87 280.39 115.29 279.94 114.98 279.21 114.76 277.98 113.92 277.73 112.64 277.42 111.87 276.98 111.32 275.93 110.11 275.46 109.82 273.7 109.36 274.69 108.1 275.09 107.68 275.15 107.19 274.97 106.55 274.02 105.2 273.76 104.83 272.26 102.75 271.88 100.79 271.86 100.42 271.8 100.06 271.15 98.87 268.95 96.17 268.49 95.8 267.29 94.3 266.61 93.68 265.83 93.17 265.09 92.58 264.09 92.33 263.69 91.83 263.16 91.18 263.07 90.74 263.28 89.93 262.94 89.51 263.61 90.01 263.54 90.99 267.31 93.86 268.44 95.42 268.66 95.6 269.35 96.2 270.47 97.52 271.88 99.51 272.19 101.49 272.39 102.4 272.99 103.24 275.11 106.24 275.5 107.68 274.14 108.82 273.96 109.18 274.25 109.4 274.8 109.56 275.99 109.86 276.39 110.24 277.98 112.53 278.24 113.81 278.91 114.41 279.41 114.61 280.34 114.87 284.71 119.97 285.42 121.32 284.45 123.6 284.62 123.9 285.13 124.3 284.62 127.1 284.78 127.57 285.2 127.99 288.22 130.75 289.32 131.92 290.34 133.04 290.89 133.22 291.07 133.11 294.93 131.01 295.46 130.53 295.62 130.17 295.82 129.69 296.28 129.16 296.79 128.74 297.6 128.16 298.25 127.77 298.33 127.35 298.25 126.99 298.13 126.78 297.61 123.71 297.91 122.49 298.13 121.17 298.02 120.53 297.85 120.06 297.14 119.22 296.85 118.54 296.66 118.14 296.01 117.61 295.68 117.35 295.49 117.21 294.78 114.98 296.01 113.66 297.43 112.62 298.78 111.78 299.39 111.36 300.05 110.73 300.47 110 300.43 108.96 300.8 108.36 300.78 107.08 297.41 103.66 297.07 102.29 297.05 101.12 296.96 100.22 296.74 99.36 297.65 97.23 297.91 96.6 297.94 96.28 299.08 94.36 300.41 93.09 300.83 92.35 300.92 91.87 300.47 90.79 299.86 89.84 297.83 86.82 297.89 86.66 294.25 81.58 292.22 79.59 291.38 79.11 290.32 78.21 289.83 77.61 289.59 77.21 289.61 76.83 289.13 74.17 289.46 73.37 289.79 72.07 290.27 70.99 290.85 69.88 291.44 69.02 294.78 66.41 296.65 64.94 299.79 62.53 303.85 60.01 304.94 59.06 305.73 58.11 306.1 57.52 306.66 56.3 307.16 55.38 307.5 54.45 307.65 53.52 309.84 49.57 312.22 48.13 314.54 47.25 318.78 46.24 319.92 45.93 321.16 45.46 321.85 45.11 322.42 42.42 321.96 41.31 321.14 39.44 320.92 38.95 320.5 37.83 320.72 37.27 320.72 36.39 321.6 34.89 321.36 34.09 321.09 33.63 320.79 33.28 320.5 32.94 320.08 31.93 318.09 29.63 317.28 28.48 316.28 27.1 315.69 25.4 314.91 24.18 314.51 23.32 313.76 22.39 310.3 18.06 309.37 16.47 309 15.57 308 13.69 307.92 13.28 305.69 11.42 304.49 10 307.01 12.28 308.02 12.96 308.16 13.14 308.53 13.96 309.77 16.28 310.06 16.85 314.94 23.65 315.91 25.22 316.46 27.27 320.04 31.44 320.45 32.2 321.6 33.92 321.67 34.16 321.84 35.06 321.41 35.73 320.83 37.83 321.03 38.66 321.41 39.42 321.47 39.53 321.82 40.25 322.04 40.69 322.57 41.78 322.84 42.77 322.95 43.78 323.13 44.23 323.94 43.85 324.39 43.5 329.66 40.06 329.88 39.96 330.12 39.85 330.34 39.75 336.57 36.54 340.52 34.36 343.08 33.21 344.37 32.44 345.91 31.42 347.56 30.14 351.12 26.74 354.74 22.55 356.35 20.83 358.25 18.95 360.84 16.78 365.18 13.32 368.59 10 370.04 10.58 369.78 10.93 368.87 11.88 367.57 12.74 363.04 16.61 361.1 18.26 360.53 18.84 359.88 19.41 358.6 20.43 356.4 22.5 355.67 23.45 354.67 24.67 353.17 26.41 351.92 27.98 346.26 32.62 345.65 32.9 336.84 37.98 333.68 39.63 328.42 41.93 327.28 42.57 326.64 43.15 323.37 45.68 321.84 46.63 318.91 47.69 315.27 48.33 313.94 48.62 313.21 48.88 311.87 49.57 311.25 49.99 310.78 50.5 310.45 51.11 309.28 55.04 307.34 59.5 302.97 63.02 302.18 63.52 300.37 64.52 295.06 68.34 294.43 68.76 293.68 69.51 293.28 70.08 293.01 70.54 292.68 71.43 292.59 71.82 292.46 75.45 292.59 76.09 293.03 76.64 293.57 77.1 294.32 77.56 295.13 78.54 295.55 78.87 297.47 80.01 302.17 87.06 302.17 88.87 302.28 89.69 302.71 91.6 302.77 92.25 301.78 94.1 301.51 94.39 301.38 94.74 300.87 95.62 300.78 95.87 300.72 96.06 300.27 96.79 300.17 96.95 299.66 97.35 299.52 97.98 299.15 98.98 299.06 99.38 299.24 99.91 299.72 102.64 300.16 103.37 301.84 105.01 303.52 106.66 304.23 107.37 304.73 108.91 304.43 109.24 304.32 109.36 303.99 109.73 301.56 111.19 300.94 111.47 300.08 111.96 298.95 112.76 298.69 113.02 298.42 113.62 298.42 114.28 298.58 116.44 298.77 117.06 299.31 118.12 299.41 118.45 299.92 119.56 300.17 122.31 299.7 122.93 299.53 123.4 299.42 124.06 299.41 125.05 299.55 126.27 299.72 126.84 300.05 130.06 299.17 132.4 295.97 135.01 294.58 135.63 293.79 136.14 293.39 136.73 291.03 138.48 290.72 138.9 287.21 141.83 286.24 142.27 285.04 144.5 284.67 145.59 281.84 148.68 281.18 149.23 280.29 149.98 279.55 150.55 279.02 151.04 278.75 151.35 277.23 153.05 276.98 153.49 276.37 154.88 276.17 155.52 276.1 156.18 276.15 156.84 276.34 157.81 276.48 158.12 276.92 158.66 278.18 159.91 278.48 160.4 279.59 163.4 279.54 165.08 279.3 165.9 278.53 167.42 277.95 167.88 276.28 168.77 275.84 169.1 275.44 169.69 273.74 171.72 273.19 172.39 269.1 176.69 268.88 177.15 268.75 177.79 269.08 178.72 269.68 179.23 269.9 179.17 271.35 178.99 272.39 179.65 272.44 181.39 272.37 181.57 272.44 182.03 272.35 182.67 272.13 183.62 271.35 184.16 271.24 184.9 271.18 185.65 271.25 189.61 269.06 194 268.6 194.99 268.35 195.81 268.04 197.11 267.84 198.24 267.71 199.39 267.75 200.71 267.84 201.7 267.98 202.52 268.31 203.47 271.53 210.45 272.41 212.01 275.35 216.15 276.32 217.62 278.09 222.46 277.82 223.52 277.56 224.14 277.78 224.49 283.08 223.76 285.6 224.14 288.31 225.5 289.39 225.61 289.94 225.44 290.38 224.89 290.5 224.42 290.61 223.32 290.49 222.42 291.11 219.74 294.36 215.62 294.8 215.08 294.89 214.75 294.84 213.6 295.68 212.39 296.77 212.06 297.45 211.73 297.65 211.46 298.64 208.99 299.08 208.68 300.25 208.81 300.83 208.79 301.16 208.62 301.38 208.26 303.35 205.86 305.29 204.71 305.86 204.25 306.11 203.82 306.88 202.15 307.12 201.53 306.92 200.78 306.5 200.29 305.53 198.72 305.77 197.23 306.57 196.28 308.4 195.44 308.97 195.1 309.24 194.66 309.46 194.02 309.37 193.38 308.77 192.28 309.28 191.6 311.31 191.06 311.6 190.86 311.6 190.29 311.6 189.48 311.76 188.94 312.64 188.59 313.77 189.1 316.28 190.05 317.91 190.67 319.33 191.39 320.57 192.15 321.09 192.46 321.65 192.61 322.04 192.56 322.27 192.3 322.35 191.86 322.13 190.89 321.96 190.58 319.75 187.88 318.97 186.3 317.25 183.32 316.97 182.21 316.79 181.75 316.33 181.2 315.95 180.89 315.29 180.13 315.78 179.3 316.33 179.03 316.5 178.79 318.22 177.55 318.51 177.33 318.71 177 318.84 176.52 318.97 176.05 320.52 175.83 321.36 175.68 321.89 175.46 322.48 175.08 323.26 174.57 323.57 174.39 324.1 174.06 324.41 173.73 326.02 172.61 326.64 172.05 326.77 171.31 327.06 168.54 327.74 168.28 329.09 168.81 329.51 169.07 330.1 169.08 331.69 168.48 332.69 167.95 333.74 167.33 333.83 167.07 333.72 166.93 333.33 166.4 332.8 165.68 332.46 164.99 332.68 164.4 333.06 164.37 333.32 164.42 333.83 164.55 335.42 164.62 336.33 164.31 337.57 163.51 339.07 162.59 339.53 162.28 339.9 161.61 340.59 160.77 342.31 159.98 345.05 159.43 346.84 159.87 347.52 160.55 347.85 160.88 349.29 162.06 349.44 162.7 349.77 162.89 350.55 163.34 351.19 164.61 351.5 164.72 352.03 164.18 352.95 164.22 353.28 165.57 353.48 166.05 354.04 166.31 354.56 166.73 354.72 166.95 355.42 167.26 356 167.35 357.33 167.75 357.61 168.33 358.08 168.61 358.87 168.63 359.66 168.52 360.92 168.06 361.59 167.73 362.12 167.24 362.71 165.85 363.33 164.84 363.99 163.86 364.32 163.16 365.09 161.52 365.76 161.19 366.69 160.93 366.99 160.71 367.11 160.4 367.17 159.65 367.21 158.9 368.38 158.21 369.03 157.97 371.08 157.48 371.45 157.37 372.62 156.75 372.87 156.49 372.8 155.89 373.86 154.51 374.48 154.2 375.38 153.47 375.52 153.25 376.46 152.3 377.9 151.46 378.61 151.17 380 150.79 380.59 150.73 381.77 150.71 382.76 150.6 385.12 150.62 385.71 150.55 387.86 149.96 388.28 149.94 390.04 150.02 391.01 149.93 392.49 149.54 392.78 149.47 393.31 149.25 396.8 147.59 398.17 147.48 398.39 147.51 399.52 147.84 400.16 148.56 400.18 149.58 400.33 149.89 400.9 150.35 404.3 152.98 404.77 153.38 406.65 154.84 407.68 155.36 408.85 155.54 409.63 155.52 410.38 155.34 410.99 154.92 411.33 154.51 413.45 152.16 414.93 150.42 415.37 149.67 415.89 147.97 418.83 146.33 419.38 145.87 422.43 142.87 422.78 142.49 422.94 141.83 423.6 140.49 423.82 140.17 424.35 137.97 424.51 137.35 424.31 136.95 424.24 136.11 424.77 135.81 424.68 135.65 424.7 134.81 425.35 134.52 428.32 134.5 428.72 134.46 429.14 134.13 429.19 133.93 428.86 133.35 428.77 132.73 429.23 132.43 430.55 132.1 431.26 131.81 431.55 131.65 432.43 131.15 433.05 130.9 433.67 130.66 434.71 129.76 435.39 129.4 436.63 129.05 437.42 129.01 437.77 128.92 437.91 128.78 438.2 128.45 438.79 128.21 440.71 126.31 441.22 125.71 443.65 123.4 444.79 123.09 445.43 123.31 446.17 123.29 446.89 123.68 447.14 123.95 447.55 123.86 447.91 123.51 448.61 123.44 449.03 123.24 449.25 122.84 449.96 122.42 450.85 123 451.29 122.74 451.53 122.16 452.24 121.74 452.41 121.45 452.48 120.95 452.88 120.81 453.03 120.75 453.07 120.61 452.96 120.5 452.54 119.55 452.99 118.3 453.01 117.97 452.77 117.53 452.04 116.91 452.13 116.4 452.88 116.26 453.1 116.04 453.38 115.43 453.94 115.07 454.22 114.9 454.77 114.43 455.22 113.7 455.52 112.75 455.75 112.36 456.45 112.43 456.56 112.51 457.16 112.36 457.82 112.38 458.39 112.53 459.65 112.54 460.52 112.78 461.04 112.69 461.55 112.29 461.99 112.31 461.79 112.47 461.38 112.8 460.01 112.91 459.3 112.65 458.64 112.67 457.62 112.45 457.2 112.47 456.41 112.65 455.9 112.51 455.75 112.8 455.52 113.62 454.42 115.03 453.52 115.58 453.16 116.27 452.43 116.47 452.21 116.8 452.41 117.11 453.12 117.59 452.87 119.33 452.79 119.55 452.9 120.19 453.23 120.44 453.25 120.86 452.83 120.97 452.68 121.01 452.63 121.37 452.23 121.9 451.84 122.14 451.35 123.02 450.69 123.07 450.31 122.67 449.89 122.58 449.54 122.73 449.04 123.48 448.26 123.62 448 123.68 447.82 123.86 447.56 124.1 446.76 123.88 446.52 123.57 446.21 123.48 444.64 123.27 444.07 123.38 443.82 123.57 441.75 125.54 441.44 125.94 440.16 127.08 439.47 127.64 438.48 128.48 438.3 128.54 438.11 128.78 437.46 129.16 436.61 129.22 435.48 129.49 434.82 129.89 434.51 130.18 433.87 130.71 431.37 131.96 429.38 132.54 428.97 132.87 429.41 133.86 428.66 134.64 427.71 134.55 425.1 134.79 424.77 135.21 425.06 135.7 424.62 136.22 424.39 136.53 424.81 137.17 424.39 138.52 424.22 139.2 423.53 141.04 423.23 141.83 422.3 143.24 421.94 143.55 418.81 146.65 416.65 147.64 416.25 148.01 414.4 151.52 413.89 152.05 413.25 152.72 413.07 152.92 412.49 153.45 412.21 153.69 412.01 153.97 411.86 154.28 410.49 155.61 409.91 155.72 407.95 155.67 406.09 154.84 404.02 153.14 403.58 152.63 401.74 151.11 400.99 150.73 399.78 149.38 399.8 148.52 399.38 148.08 398.85 147.86 397.88 147.71 397.28 147.73 396.53 147.92 392.91 149.69 390.24 150.26 388.54 150.16 387.81 150.16 386.67 150.4 386.02 150.75 384.46 150.86 381.63 150.93 380.73 150.95 379.76 151.1 378.81 151.33 378.28 151.55 377.81 151.81 376.64 152.45 376.22 152.8 375.93 153.2 373.73 154.88 373.26 155.39 373.11 155.87 373.2 156.51 372.67 156.98 370.68 157.79 369.75 157.97 368.65 158.34 368.1 158.5 367.5 158.9 367.37 159.21 367.39 160.36 366.71 161.11 365.6 161.46 365.14 161.77 364.7 162.5 364.13 164.17 362.98 165.94 362.56 166.85 361.98 167.71 360.28 168.55 357.88 168.75 357.39 168.46 356.79 167.82 356.46 167.64 355.8 167.53 354.46 167.05 354.03 166.52 353.19 166.23 353.04 164.95 353.06 164.7 352.82 164.44 352.2 164.29 351.89 164.66 351.47 164.97 350.9 164.61 350.46 163.69 350.1 163.31 349.55 163.11 349 162.1 348.74 161.66 348.29 161.33 346.82 160.2 346.22 159.78 345.45 159.6 344.87 159.62 344.5 159.74 343.61 159.94 342.91 160.09 341.27 160.64 340.5 161.13 340.01 162.01 338.93 163 338.43 163.18 337.87 163.58 336.46 164.46 335.95 164.68 333 164.53 332.69 164.7 334.06 166.91 334.1 167.38 332.55 168.3 331.52 168.85 329.62 169.36 328.67 168.81 328 168.5 327.59 168.5 327.21 168.94 326.97 172.1 325.98 173.05 324.91 173.65 321.62 175.87 319.71 176.1 319.2 176.3 319.08 177.04 318.31 177.77 317.36 178.21 317.08 178.44 315.82 179.61 315.55 180.05 315.69 180.34 316.59 181.04 317.65 183.63 318.03 184.38 319.02 185.9 320.03 187.84 320.39 188.42 322.24 190.54 322.55 191.55 322.6 191.81 322.49 192.46 321.16 192.79 317.91 190.93 315.49 190.01 313.52 189.21 313.28 188.95 312.7 188.86 311.98 189.1 311.87 189.41 311.89 190.49 311.47 191.26 310.81 191.35 309.64 191.7 309.15 191.95 309.08 192.43 309.53 193.09 309.64 194.37 308.95 195.35 307.21 196.12 306.61 196.54 306.02 197.2 305.88 197.51 305.77 198.17 305.8 198.48 306.17 199.43 306.57 200 307.39 201.09 307.1 202.35 306.72 202.94 306.52 203.54 306.02 204.46 303.3 206.17 302.42 207.14 301.54 208.44 300.74 209.06 299.19 208.9 298.67 209.35 297.91 211.47 296.57 212.32 295.8 212.55 295.53 212.79 295.15 213.36 295.07 213.69 295.24 214.89 299.39 217.01 300.25 217.84 300.59 218.91 298.11 222.86 297.89 223.48 298.07 223.94 298.38 224.16 298.58 224.23 299.64 224.97 300.12 225.81 302.02 227.52 302.55 227.74 303.12 227.89 306.13 228.79 306.96 228.99 308.29 228.77 309.02 228.53 310.19 227.84 312.64 226.39 313.04 226.04 313.41 225.46 314.67 225.13 316.35 226.68 317.25 229.86 317.59 230.23 318.36 230.3 320.24 230.27 322.88 232.15 323.57 232.5 324.63 232.72 325.22 232.66 325.69 232.39 327.25 230.87 329.28 229.9 330.35 229.5 331.01 229.15 332.89 228.07 334.83 227.93 337.04 229.54 339.29 232.26 340.48 233.36 340.85 233.48 341.43 233.5 345.84 233.7 346.59 233.58 347.04 233.25 347.46 232.7 347.57 232.04 347.48 231.38 347.04 230.28 347.13 229.15 349 228.44 351.19 228.93 352.47 229.08 354.37 229.02 355.53 229.77 355.12 234.98 355.38 235.6 355.65 235.84 356.38 236.13 357.35 236.34 358.07 236.61 358.82 236.81 359.99 236.9 361.12 236.63 363.86 236.39 365.18 236.45 370.39 236.98 372.45 238.82 372.96 240.23 373.18 240.69 374.9 243.43 375.49 244.18 376.13 244.56 376.86 244.8 377.44 244.87 378.32 244.91 378.91 244.87 380.04 244.58 383.24 244.51 384.33 244.32 384.94 243.92 387.51 240.34 389.23 239.24 391.45 239.57 392.4 239.74 396.11 240.45 398.88 241.73 399.29 242.28 398.98 243.37 398.04 244.32 396.93 245.24 396.14 246.19 396.09 246.76 396.73 247.21 397.37 247.5 398.3 247.94 399.62 248.56 400.73 250.65 401.41 250.92 402.39 250.87 402.74 250.72 405.7 249.68 407.02 249.37 409.78 249.08 410.29 249.04 413.11 248.13 413.55 247.96 421.95 244.82 425.76 244.85 427.09 244.91 428.06 244.95 429.32 244.89 431.68 244.78 432.04 244.85 432.54 244.74 432.9 244.42 434.37 243.3 436.38 242.68 438.9 242.02 439.5 241.73 444.47 240.8 445.81 240.5 446.36 240.47 447.8 240.03 450.29 239.3 450.85 239.11 451.09 239.06 452.26 238.75 453.18 238.05 453.6 237.51 453.65 237.18 453.91 235.49 454.18 235.18 455.97 234.22 456.65 233.89 457.29 233.26 458.06 232.9 458.84 232.79 459.39 232.62 459.81 232.3 460.67 231.8 461.26 231.35 463.8 229.68 464.38 229.41 466.47 228.02 468.17 227.91 468.71 227.76 469.17 227.45 469.3 226.98 469.13 226.68 468.48 226.37 468.04 226.04 467.6 225.51 468.02 224.6 468.71 224.65 469.52 224.55 470.07 224.56 470.45 224.49 471.13 224.14 470.98 223.52 469.96 222.74 469.81 221.6 470.71 221.33 473.36 221.62 474.25 221.25 474.4 220.87 474.27 220.25 474.86 219.43 477.52 219.12 478.66 218.88 479.28 217.78 481.31 215.41 482.99 216.26 483.37 217.25 483.74 217.58 484.96 217.21 486.28 216.39 486.46 216.17 487.58 215.09 488.04 214.53 491.11 211.71 491.82 211.46 493.28 210.87 493.92 210.8 494.47 210.47 495.06 209.7 497.38 207.31 497.6 206.98 499.92 204.51 501.05 204.35 501.56 204.35 503.04 203.98 505.2 204.53 505.79 204.36 507.07 203.29 507.12 203.25 507.39 202.97 507.61 202.81 507.8 202.66 507.91 202.59 510.76 200.32 511.89 200.36 513.96 201.9 514.23 202.06 514.93 202.1 516.06 201.99 516.59 201.77 517.34 200.85 517.61 200.29 517.74 199.87 518.29 198.92 521.38 196.94 521.69 196.54 521.78 196.28 521.89 195.94 521.85 195.21 522.35 194.05 523.32 194.02 523.9 194.37 524.14 194.99 524.65 195.48 525.03 195.5 525.53 195.22 525.8 194.8 526.99 193.83 527.78 193.74 529.4 193.8 529.66 193.78 530.06 193.74 530.76 193.85 531.3 194.53 531.36 195.35 531.52 196.03 531.96 196.94 532.25 197.11 532.8 197.09 533.74 196.87 534.39 196.67 534.94 196.34 535.44 195.88 535.64 195.43 535.67 194.97 536.18 193.91 537.65 193.3 541.16 193.01 542.71 192.85 543.59 192.79 544.65 192.32 545.67 190.56 546.9 185.33 546.73 186.47 546.49 188.1 546.29 189.41 545.67 191.53 545.2 192.1 543.79 192.98 540.46 193.25 539.05 193.49 537.9 193.49 537.04 193.74 536.42 194.05 536.06 194.51 535.89 195.41 534.81 196.7 532.51 197.38 531.54 196.81 531.19 196.05 531.12 195.43 531.01 194.46 530.7 194.11 530.32 193.98 529.57 194 526.77 194.11 526.42 194.44 525.82 195.53 524.5 195.99 523.81 195.02 523.7 194.42 523.39 194.22 522.62 194.22 522.29 194.4 522.33 194.71 521.51 197.25 519.51 198.24 518.95 198.72 518.49 199.08 518 199.81 517.25 201.59 516.33 202.3 514.58 202.46 511.87 200.69 511.14 200.49 510.76 200.6 510.48 200.82 507.19 203.71 506.99 203.83 506.52 204.36 504.49 204.75 503.3 204.29 502.92 204.27 501.93 204.55 501 204.55 500.39 204.51 499.9 204.84 498.99 205.64 498.47 206.19 497.78 207.33 496.32 208.82 495.35 209.83 494.84 210.45 494.03 210.96 493.06 211.11 492.53 211.18 491.75 211.71 490.91 212.02 490.63 212.24 490.12 213.01 489.64 213.54 488.84 214.07 488.15 214.78 487.38 215.62 487.19 215.83 486.74 216.32 484.71 217.65 483.34 217.65 482.77 216.43 482.5 216.06 481.69 215.68 481.35 215.75 481.29 215.84 481.03 216.21 480.25 216.65 479.79 217.2 479.35 218.35 478.6 219.19 475.95 219.39 475.04 219.66 474.64 220.27 474.55 221.38 472.94 221.97 472.28 221.97 471.07 221.68 470.27 221.68 470.03 221.91 470.16 222.39 470.49 222.75 470.8 222.95 471.42 224.36 468.6 224.89 468.02 224.95 467.8 225.2 468.53 226.04 469.77 226.68 469.21 227.8 467.4 228.27 466.76 228.31 466.23 228.49 465.97 228.75 464.45 229.75 463.38 230.21 462.74 230.58 460.8 232.08 460.05 232.55 458.33 233.25 457.89 233.28 457.4 233.72 456.25 234.51 455.86 234.53 455.19 234.85 454.35 235.55 454.05 236.04 454 237.36 453.85 237.72 453.49 238.16 453.3 238.29 453.05 238.51 450.73 239.46 450.34 239.55 444.47 241.11 443.45 241.23 443.07 241.31 442.1 241.33 440.95 241.56 440.58 241.69 436.52 242.93 435.24 243.25 434.73 243.48 433.96 244.01 432.36 245.18 431 245.06 430.22 245.07 425.12 245.15 424.26 245.07 422.83 245.06 422.25 245.13 420.78 245.6 414.26 248.05 413.38 248.42 411.86 248.78 411.13 249.02 410.55 249.86 410.99 250.14 411.44 250.06 411.99 249.94 412.41 250.16 412.23 251.22 411.72 251.73 410.53 252.24 409.82 253.04 409.69 254.03 407.82 255.44 406.54 256.57 403.78 259.04 403.45 259.39 403.33 259.72 403.38 260.61 403.05 262.15 403.11 262.73 403.44 263.87 403.69 264.49 404.39 265.49 405.48 266.35 406.11 266.61 407.31 266.97 408.39 267.14 408.79 267.1 409.23 266.92 409.94 266.26 410.8 265.35 412.38 264.08 411.52 265.11 411.11 265.36 408.99 267.27 406.65 267.03 405.19 266.48 403.53 264.74 402.78 262.53 402.92 261.2 403.11 260.76 403.16 259.51 403.55 258.98 404.86 258 405.63 257.28 408.28 254.96 409.12 254.45 409.51 253.98 409.56 253.21 410.4 252.13 411.48 251.65 411.85 251.43 412.21 250.85 412.23 250.17 411.94 250.08 410.99 250.3 410.53 250.16 409.98 249.41 409.14 249.3 408.55 249.28 406.75 249.86 404.57 250.21 403.75 250.47 402.56 251.16 400.48 250.92 400.15 250.21 399.98 249.77 399.43 249.09 398.68 248.56 396.44 247.5 395.56 246.33 398.72 243.01 399.01 242.5 398.92 242.19 398.46 241.87 395.65 240.69 394.53 240.36 392.94 240.17 390.48 239.61 389.89 239.55 389.32 239.66 388.47 240.06 387.68 240.8 384.35 244.71 381.35 244.93 380.7 244.89 379.38 245.2 375.94 244.93 373.8 242.44 372.93 241.2 372.47 240.01 372.09 239.08 371.21 238.2 370.17 237.36 369.44 237.12 368.14 236.98 367.43 236.94 365.67 236.85 363.73 236.81 362.2 236.9 361.61 236.98 360.42 237.21 357.33 236.81 356.84 236.66 355.21 236.1 354.61 234.76 355.01 232.57 355.1 230.6 354.99 229.99 354.72 229.57 354.36 229.44 352.78 229.48 348.96 228.86 348.36 228.86 347.83 229.04 347.5 229.63 347.5 230.12 347.68 230.54 347.7 233.23 346.44 233.96 343.86 233.85 342.67 233.79 340.26 233.67 338.73 232.28 338.12 231.64 337.25 230.47 335.76 228.93 335.18 228.6 334.41 228.44 333.42 228.38 333.04 228.46 332.33 228.73 328.49 230.71 327.28 231.27 326.61 231.88 324.98 233.17 323.04 232.81 320.57 230.98 320.08 230.71 319.51 230.58 318.91 230.58 317.61 230.71 316.72 229.94 316.55 228.46 316.37 227.82 316.1 227.2 315.6 226.5 314.89 225.93 314.52 225.81 313.96 225.82 313.5 226.35 313.19 226.56 311.93 227.21 307.39 229.37 301.6 228 299.17 225.15 298.91 224.89 298.31 224.64 297.38 223.74 297.78 222.26 298.67 220.49 299.15 219.87 299.83 219.17 300.01 218.53 299.77 218.07 299.24 217.54 298.53 216.98 296.52 215.75 295.8 215.44 295.42 215.44 295.07 215.59 294.16 216.56 293.45 217.54 292 219.19 291.62 219.77 291.2 220.87 291.07 221.53 291.03 222.35 291.2 223.56 289.72 226.12 287.96 225.99 287.09 225.37 286.57 225.28 285.9 224.95 284.78 224.58 283.79 224.4 282.63 224.29 281.13 224.42 280.25 224.58 279.39 224.71 278.6 224.71 277.45 224.95 Z M 298.97 130.6 298.64 130.7 298.27 131.04 298.18 131.12 297.85 131.92 297.83 132.2 297.82 132.52 297.72 132.82 297.58 133.22 298.02 133.2 298.38 132.85 298.47 132.62 298.58 132.38 299.06 132.01 299.28 131.63 299.26 130.97 298.97 130.6 Z M 275.97 224.4 276.03 224.31 276.94 223.43 277.25 223.21 277.52 222.24 277.38 221.78 276.92 221.25 276.59 221.38 276.36 221.82 276.1 222.64 275.93 222.83 275.73 223.5 275.81 224.27 275.97 224.4 Z M 270.05 181.55 270.72 183.34 271.05 183.89 271.36 183.93 272.02 183.21 272.04 182.81 272.04 182.46 272.06 181.9 272.22 180.97 272.24 180.31 272.17 179.81 271.93 179.56 271.42 179.3 271.04 179.25 269.87 179.38 269.34 179.58 269.48 180.45 269.59 180.66 270.05 181.55 Z M 301.75 87.92 301.36 85.98 297.07 79.9 295.51 80.06 297.94 84.01 300.56 87.32 301.75 87.92 Z M 286.08 139.49 286.56 140.64 292.64 135.96 297.19 133.33 295.35 132.1 291.4 134.7 286.08 139.49 Z" fill-rule="evenodd"/>
<g/>
<path d="M 739.27 672.86 736.04 676.28 732.14 673.79 731.4 673.94 728.96 670.88 727.52 671.47 724.5 671.09 722.24 672.31 719.5 672.31 718.8 670.99 721.54 670.5 724.52 668.54 727.96 668.58 726.86 664.21 728.98 663.41 729.07 665.53 731.08 668.51 732.95 670.32 737.68 665.62 738.69 663.13 738.6 659.86 740.81 659.37 740.44 662.48 740.96 665.75 738.34 668.53 739.55 671.12 739.27 672.86 Z"/>
<path d="M 427.73 300.17 426.73 301.03 426.51 303.5 420.71 303.44 420.2 302.45 425.26 301.92 426.25 299.24 427.73 300.17 Z"/>
<g/>
<path d="M 163.79 382.56 162.01 383.43 157.85 378.97 160.13 377.93 162.2 381.82 163.79 382.56 Z"/>
<path d="M 610.42 538.23 609.05 544.92 609.87 546.62 608.94 548.77 607.31 548.21 606.71 543.29 607.9 542.63 608.94 539.1 610.42 538.23 Z"/>
<path d="M 443.45 241.23 443.47 241.25 443.07 241.31 443.45 241.23 Z"/>
<path d="M 73.45 145.23 72.21 147.06 70.05 147.06 67.56 145.83 66.3 147.44 64 148.7 62.35 147.06 64.22 145.5 65.28 143.27 68.11 143.91 68.79 144.81 72.68 143.8 73.45 145.23 Z"/>
<path d="M 514.14 67.17 516.22 67.19 519.57 71.74 519.15 73.81 514.78 73.7 514.14 67.17 Z"/>
<path d="M 684.42 259.33 683.45 258.86 683.45 255.9 684.93 255.62 684.42 259.33 Z"/>
<path d="M 460.12 45.71 461.8 47.87 459.19 47.96 460.12 45.71 Z"/>
<g/>
<g/>
<path d="M 669.66 157.62 670.83 156.75 674.16 158.92 673.87 159.83 669.66 157.62 Z"/>
<g/>
<path d="M 51.53 262.33 49.15 265.38 48.06 264.49 51.53 262.33 Z"/>
<path d="M 286.08 139.49 291.4 134.7 295.35 132.1 297.19 133.33 292.64 135.96 286.56 140.64 286.08 139.49 Z"/>
<path d="M 301.75 87.92 300.56 87.32 297.94 84.01 295.51 80.06 297.07 79.9 301.36 85.98 301.75 87.92 Z"/>
<g/>
<path d="M 72.72 633.08 72.52 635.71 70.36 634.32 72.72 633.08 Z"/>
<g/>
<path d="M 135.05 499.25 133.57 497.34 136.4 497.1 135.05 499.25 Z"/>
<g/>
<path d="M 50.51 509.07 49.32 508.43 48.24 505.34 50.49 505.4 51.44 507.54 50.51 509.07 Z"/>
<path d="M 251.44 135.78 254.04 134.85 255.81 136.8 259.21 137.22 259.81 138.48 257.03 139.85 254.86 136.58 251.44 135.78 Z"/>
<path d="M 45.33 41.84 48.68 42.24 48.84 45.04 45.17 42.79 45.33 41.84 Z"/>
<g/>
<path d="M 135.55 298.14 138.14 300.39 136.81 300.99 135.55 298.14 Z"/>
<path d="M 139.48 153.18 141.38 156.89 139.48 156.89 138.96 154.5 139.48 153.18 Z"/>
<g/>
<path d="M 143.08 437.07 140.3 436.28 139.73 432.35 140.96 430.23 140.33 427.73 137.81 425.06 138.43 423.92 142.55 426.61 142.89 429.5 140.96 431.03 141.21 433.15 143.08 437.07 Z"/>
<path d="M 119.64 622.72 118.22 622.33 114.87 618.6 111.03 616.23 110.87 614.71 108.95 612.79 111.03 610.89 115.27 610.71 113.1 613.81 114.18 615.13 117.85 617.93 119.2 619.79 119.64 622.72 Z"/>
<g/>
<path d="M 35.54 555.57 34.88 554.09 36.12 550.4 38.15 551.06 36.4 552.58 35.54 555.57 Z"/>
<g/>
<path d="M 691 227.73 690.83 226.5 693.89 226.65 693.74 228.16 691 227.73 Z"/>
<path d="M 84.4 551.52 83.59 550.13 86.99 548.85 85.4 551.64 84.4 551.52 Z"/>
<g/>
<g/>
<path d="M 231.88 720.59 230.27 719.55 232.21 717.13 234.4 717.48 231.88 720.59 Z"/>
<path d="M 222.9 485.09 220.58 485.03 217 483.83 218.17 482.46 220.05 483.92 222.9 485.09 Z"/>
<g/>
<path d="M 100.72 241.11 102.71 237.34 103.96 236.24 105.84 237.56 100.72 241.11 Z"/>
<path d="M 14.11 374.97 19.63 374.28 20.44 376.43 14.11 374.97 Z"/>
<path d="M 26.14 313.92 23.54 316.13 20.33 316 20.62 314.26 24.2 314.45 26.14 313.92 Z"/>
<path d="M 217.69 438.15 215.08 434.22 216.8 433.61 218.21 437.05 217.69 438.15 Z"/>
<path d="M 692.08 154.46 689.32 153.09 689.52 150.84 692.61 153.88 692.08 154.46 Z"/>
<path d="M 76.59 146.65 79.35 146.75 82.17 148.28 84.93 151.11 84.45 151.81 79.94 152.43 77.09 149.65 76.59 146.65 Z"/>
<path d="M 175.71 530.13 175.67 531.54 172 533.16 168.12 535.78 167.02 534.46 173.38 530.31 175.71 530.13 Z"/>
<path d="M 432.76 636.3 432.17 635.4 434.73 633.3 435.66 634.05 434.06 636.41 432.76 636.3 Z"/>
<g/>
<path d="M 600.53 18.66 601.37 20.16 600.4 23.03 597.99 25.39 595.8 25.99 593.13 24.82 591.76 20.19 594.35 19.24 600.53 18.66 Z"/>
<path d="M 174.99 653.68 169.93 652.6 168.83 650.36 173.29 650.54 174.99 653.68 Z"/>
<g/>
<g/>
<path d="M 85.33 663.21 83.72 662.46 82.81 660.03 85.86 660.61 85.33 663.21 Z"/>
<path d="M 266.12 205.28 263.52 203.8 263.67 200.12 265.57 200.38 266.89 204.77 266.12 205.28 Z"/>
<path d="M 81.49 656.75 81.31 657.43 77.76 658.29 74.53 657.74 74.07 655.36 77.03 656.52 79.48 655.15 81.49 656.75 Z"/>
<path d="M 126.75 502.12 125.2 499.66 126.5 498.07 128.85 501.61 126.75 502.12 Z"/>
<path d="M 120.35 465.18 118.27 464.8 116.02 462.27 119.28 461.62 122.11 462.4 125.31 464.47 124.5 465.97 120.35 465.18 Z"/>
<path d="M 11.13 693.06 10.85 688.4 12.43 688.36 12.17 691.71 11.13 693.06 Z"/>
<path d="M 29.27 199.1 29.92 201.17 27.9 202.77 26.45 204.93 25.12 203.74 29.01 199.94 29.27 199.1 Z"/>
<path d="M 30.82 90.41 33.73 94.14 31.81 95.45 30.49 93.53 30.82 90.41 Z"/>
<path d="M 610.02 20.23 608.19 22.9 601.57 22.59 602.16 18.22 608.46 17.56 610.02 20.23 Z"/>
<path d="M 464.2 150.55 467.49 151.72 472.19 151.88 472.99 153.33 475.29 152.43 475.51 154.95 472.3 154.5 471 153.14 468.33 154.02 464.6 152.87 464.2 150.55 Z"/>
<g/>
<path d="M 602.18 151.08 604.19 154 602.83 154.44 600.75 152.1 602.18 151.08 Z"/>
<path d="M 359.95 290.24 358.23 290.54 354.41 288.2 353.33 286.64 354.7 284.5 357.12 284.45 357.63 286.71 359.33 287.63 359.95 290.24 Z"/>
<path d="M 109.37 427.98 107.69 425.22 107.45 422.3 106.26 420.43 109.13 420.12 109.95 426.56 109.37 427.98 Z"/>
<path d="M 81.4 308.76 84.33 309.55 84.45 311.21 82.94 311.87 81.4 308.76 Z"/>
<path d="M 254.29 168.86 252.41 171 251.55 168.79 254.29 168.86 Z"/>
<path d="M 38.75 635.91 37.64 634.98 36.29 631.25 38.57 631.33 38.06 634.18 38.75 635.91 Z"/>
<path d="M 171.79 183.84 174.08 183.95 176.44 186.74 174.12 190.53 171.34 189.92 172.96 187.6 171.79 183.84 Z"/>
<g/>
<path d="M 113.87 435.95 111.4 434.18 110.01 431.93 108.27 431.13 108.53 429.21 111.23 428.66 112.91 430.67 111.89 432.24 113.92 434.11 113.87 435.95 Z"/>
<path d="M 150.64 556.36 151.21 552.49 152.82 552.56 150.64 556.36 Z"/>
<g/>
<path d="M 655.1 137.3 658.66 134.06 660.27 135.27 656.91 137.99 655.1 137.3 Z"/>
<path d="M 649.65 177.53 647.13 176.94 647.78 173.29 646.21 171.15 648.84 168.66 650.38 169.85 648.79 176.83 649.65 177.53 Z"/>
<path d="M 228.37 724 224.39 723.49 223.95 721.54 229.91 720.75 230.49 722.93 228.37 724 Z"/>
<g/>
<g/>
<g/>
<path d="M 491.23 112.03 491.13 110.88 497.08 110.57 496.52 113.4 499.92 114.83 502.81 114.12 500.17 117.19 497.71 115.96 496.41 116.91 494.42 114.34 491.23 112.03 Z"/>
<path d="M 186.89 280.74 186.82 278.87 189.56 276.81 190.51 277.3 186.89 280.74 Z"/>
<path d="M 119.28 428.71 119 429.55 113.66 429.9 114.21 427.6 119.28 428.71 Z"/>
<path d="M 388.54 85.27 386.78 83.81 389.05 82.33 389.98 84.06 388.54 85.27 Z"/>
<path d="M 66.01 285.89 69.94 283.26 70.69 284.69 66.01 285.89 Z"/>
<path d="M 169.09 698.96 169.22 697.3 171.96 693.64 174.01 695.07 172.2 695.84 171.68 698.16 169.09 698.96 Z"/>
<path d="M 37.8 76.31 40.34 77.98 41.28 80.23 39.06 81.14 36.29 79.26 37.8 76.31 Z"/>
<path d="M 83.72 637.05 83.61 638.91 81.95 639.3 81.93 636.74 78.44 634.96 78.13 633.61 81.84 633.19 82.15 635 84.42 635.11 83.72 637.05 Z"/>
<path d="M 276.3 207.16 278.09 208.81 278.68 211.35 276.46 211.97 275.28 210.03 272.26 209.63 271.35 207.87 272.9 206.56 276.3 207.16 Z"/>
<path d="M 590.4 183.89 587.24 182.52 584.48 181.88 584.41 178.41 587.08 179.5 588.34 181.57 590.15 182.45 590.4 183.89 Z"/>
<path d="M 534.65 272.35 534.69 273.64 538.43 275.16 539.4 276.9 532.6 276.88 531.05 275.84 533.88 274.28 534.65 272.35 Z"/>
<path d="M 177.22 616.63 176.62 615.11 179.91 612.81 179.58 616.45 177.22 616.63 Z"/>
<path d="M 88.86 492.03 88.75 493.72 83.92 497.94 81.05 497.28 80.14 495.47 82.95 492.69 88.38 491.36 88.86 492.03 Z"/>
<g/>
<path d="M 222.34 554.59 220.22 553.8 217.38 550.42 220.62 551.39 220.47 553.71 222.34 554.59 Z"/>
<path d="M 155.54 481.03 153.44 482.93 151.17 483.28 150.9 481.08 153.44 478.01 154.81 477.89 155.54 481.03 Z"/>
<path d="M 650.89 65.89 652.97 62.95 654.89 62.77 653.98 65.38 650.89 65.89 Z"/>
<g/>
<path d="M 347.06 291.56 347.7 288.38 351.36 286.86 353.26 288.43 351.52 289.91 355.6 292.53 354.85 295.03 348.91 293.57 347.06 291.56 Z"/>
<path d="M 332.57 619.01 334.72 618.81 334.69 620.96 332.42 620.87 332.57 619.01 Z"/>
<path d="M 178.43 617.12 179.47 617.23 179.65 621.89 176.88 620.83 177.13 617.29 178.43 617.12 Z"/>
<path d="M 201.7 258.55 199.76 260.74 198.68 260.26 203.99 254.25 204.57 255.16 201.7 258.55 Z"/>
<g/>
<path d="M 749.16 325.4 751.16 329.33 749 329.8 748.1 327.61 749.16 325.4 Z"/>
<path d="M 522 668.31 522.46 665.93 526.46 666.15 525.58 667.8 522.84 669.26 522 668.31 Z"/>
<g/>
<g/>
<g/>
<g/>
<path d="M 743.84 114.19 745.89 117.59 744.56 118.32 743.2 117.04 742.64 114.61 743.84 114.19 Z"/>
<path d="M 760.41 608.7 759.31 607.58 761.41 604.99 762.69 602.17 764.79 603.05 763.22 606.3 760.41 608.7 Z"/>
<path d="M 554.89 381.62 554.46 378.5 556.77 378.64 558.72 377.35 559.07 383.16 556.33 383.27 554.89 381.62 Z"/>
<g/>
<path d="M 760.39 450.19 758.78 447.21 760.35 445.44 762.09 445.18 761.79 448.91 760.39 450.19 Z"/>
<path d="M 642.74 575.52 642.57 577.73 640.14 577.42 642.74 575.52 Z"/>
<path d="M 395.39 452.64 397.73 452.93 397.81 454.23 395.01 455.57 395.39 452.64 Z"/>
<path d="M 726.3 498.61 724.78 498.89 723.81 496.15 725.36 495 726.3 498.61 Z"/>
<path d="M 690.61 610.01 694.16 610.63 693.08 611.95 690.61 610.01 Z"/>
<path d="M 624.99 332.05 626.73 332.6 627.99 336.18 626.25 336.18 624.99 332.05 Z"/>
<path d="M 721.36 145.47 721.82 139.96 724.08 140.38 722.68 144.86 721.36 145.47 Z"/>
<path d="M 774.23 350.07 772.82 348.08 776.07 348.14 774.23 350.07 Z"/>
<path d="M 568.89 397.98 567.74 396.52 568.01 394.22 570.48 394 570 396.94 568.89 397.98 Z"/>
<path d="M 700.32 500.66 699.63 502.16 695.4 503.68 696.99 505.52 695.24 506.22 692.97 504.59 694.14 502.51 697.16 501.83 699.19 500.28 700.32 500.66 Z"/>
<path d="M 640.91 687.41 638.39 686.71 638.52 685.03 641.11 684.06 642.24 686.04 640.91 687.41 Z"/>
<path d="M 752.58 46.12 752.75 47.52 750.48 48.24 749.71 46.72 752.58 46.12 Z"/>
<path d="M 767.17 292.16 766.29 291.81 765.25 288.87 766.88 288.18 768.01 291.47 767.17 292.16 Z"/>
<path d="M 765.19 600.93 764.54 598.77 764.94 596.06 766.2 593.96 769.07 591.51 770.95 592.35 770.5 593.8 765.71 598.08 765.19 600.93 Z"/>
<g/>
<path d="M 631.7 659.44 629.39 658.03 631.75 656.74 634.55 657.5 631.7 659.44 Z"/>
<path d="M 674.93 476.75 678.68 475.29 678.75 476.99 674.93 476.75 Z"/>
<g/>
<g/>
<path d="M 759.36 233.72 761.23 233.87 762.8 235.33 762.53 236.55 759.56 235.02 759.36 233.72 Z"/>
<path d="M 609.25 493.59 610.2 491.18 612.69 491.49 609.25 493.59 Z"/>
<path d="M 628.64 615.39 630.14 612.63 630.58 616.87 628.64 615.39 Z"/>
<path d="M 561.12 683.19 560.92 685.71 559.22 685.33 558.3 683.2 561.12 683.19 Z"/>
<path d="M 499.28 705.49 499.2 707.06 496.32 706.97 496.76 703.84 499.41 704.08 499.28 705.49 Z"/>
<path d="M 763.39 284.58 762.33 284.45 760.79 278.36 762.11 277.41 763.39 280.88 765.58 283.13 763.39 284.58 Z"/>
<path d="M 599.21 470.94 597.2 468.65 598.08 467.41 600.07 468.38 599.21 470.94 Z"/>
<path d="M 775.16 332.65 774.5 333.73 771.96 333.93 771.32 332.69 775.16 332.65 Z"/>
<path d="M 713.72 684.58 714.67 682.62 716.31 684.12 713.72 684.58 Z"/>
<path d="M 789.15 308.6 786.45 310.37 785.28 309.42 788.78 307.1 789.15 308.6 Z"/>
<path d="M 475.66 565.14 474.93 565.72 470.71 564.42 473.69 563.71 475.66 565.14 Z"/>
<path d="M 525.31 611.07 526.44 611.13 528.95 613.63 532.75 614.42 531.41 617.09 529.11 616.3 525.95 613.28 525.31 611.07 Z"/>
<path d="M 789.15 539.4 787.55 538.87 785.94 532.54 787.5 532.51 789.15 535.93 789.15 539.4 Z"/>
<path d="M 512.17 654.91 509.35 655.35 508.51 651.89 511.07 651.56 512.95 653.19 512.17 654.91 Z"/>
<path d="M 500.36 428.46 502.62 432.19 498.78 431.27 499.2 429.02 500.36 428.46 Z"/>
<g/>
<path d="M 536.28 526.93 540.04 529.76 540.52 533.05 536.28 526.93 Z"/>
<path d="M 733.66 289.42 729.11 289.13 730.02 286.97 733.64 287.15 735.18 288.03 733.66 289.42 Z"/>
<g/>
<path d="M 780.28 318.56 779.8 317.94 781.63 315.51 783.02 316.29 780.28 318.56 Z"/>
<path d="M 418.13 586.72 420.25 587.56 418.33 590.42 417.31 590.43 418.13 586.72 Z"/>
<g/>
<g/>
<path d="M 50.23 382.65 48.39 383.27 50.8 378.63 53.03 376.85 54.49 378.74 50.23 382.65 Z"/>
<path d="M 317.48 308.14 319.46 308.39 319.73 310.09 316.63 310.7 316.41 312.8 313.57 312.93 310.92 312 308.89 310.61 306.94 310.52 307.16 308.5 312.62 307.66 313.35 308.29 317.48 308.14 Z"/>
<path d="M 117.25 506 117.41 506.27 117.56 506.51 117.81 507.1 118.09 507.24 118.14 507.48 118.18 507.68 118.38 507.9 119 508.58 119 508.69 119.39 508.8 120.68 508.96 120.88 508.83 121.01 508.74 121.41 508.47 121.63 506.8 121.62 506.71 122.09 506.91 122.44 507.04 122.82 506.88 123.3 506.57 123.48 507.17 124.32 507.19 124.98 507.01 125.55 506.68 125.64 506.62 125.71 506.58 126.7 506.33 127.12 506.49 127.61 507.02 127.37 507.19 127.19 507.32 127.21 507.61 127.21 507.72 127.21 507.88 127.45 507.99 127.52 507.97 128.18 508.19 128.62 508.18 128.69 507.46 128.65 505.58 128.78 505.45 128.91 505.32 129 505.23 128.65 505.07 128.67 503.5 128.78 503.7 129.09 504.25 129.13 504.32 129.66 504.79 129.86 505.21 130.1 505.69 130.04 505.98 129.97 506.27 130.59 507.24 130.7 507.46 131.21 507.61 131.47 507.52 131.67 509.35 131.69 509.69 132.25 509.71 132.46 510.31 132.46 510.42 132.64 510.52 132.99 511.08 133.02 511.23 133.95 512.18 134.32 512.58 134.76 512.69 134.89 513 134.91 513.06 134.92 513.28 134.94 513.42 135.33 513.4 135.95 514.65 136.19 514.99 136.64 514.81 137.65 513.33 137.7 512.82 139.84 511.56 139.75 511.1 139.68 510.73 140.26 510.28 139.9 509.91 136.5 507.24 136.92 505.47 137.23 505.25 137.3 504.9 137.43 504.37 138.47 503.42 139.04 503.48 139.48 503.2 139.88 503.64 140.54 505.4 140.77 505.78 141.38 506.73 141.91 507.54 143.75 508.21 143.81 508.34 143.95 509.93 144.37 510.13 144.74 510.3 144.85 510.35 146.31 510.33 146.79 510.37 145.6 511.56 144.9 511.63 144.26 513.09 144.25 513.29 145.62 515.16 145.89 515.78 144.14 515.3 143.95 515.16 142.66 514.04 142.27 513.92 141.67 514.34 141.1 514.65 140.83 515.23 140.81 515.43 140.79 515.72 140.26 516.24 137.46 517.44 137.36 517.41 136.22 517.04 134.92 517.41 129.9 516.29 129.28 515.19 127.41 513.44 126.99 511.87 125.69 510.62 125.31 510.41 124.34 509.66 123.01 510.26 123.3 510.61 123.54 511.14 122.71 510.84 122.26 510.48 121.16 512.23 121.01 513.17 119.75 511.69 119.17 510.83 117.94 510.08 116.22 505.96 117.25 506 Z"/>
<path d="M 732.29 131.12 730.19 130.97 728.14 133.47 725.07 134.66 724.98 132.41 726 131.37 727.89 131.72 728.82 129.86 731.63 129.09 732.29 131.12 Z"/>
<path d="M 347.04 620.43 351.43 621.27 351.49 623.61 347.13 623.23 347.04 620.43 Z"/>
<path d="M 214.26 629.74 215.98 627.07 216.96 627.89 216.45 630.89 214.26 629.74 Z"/>
<path d="M 780.64 386.74 781.77 385.28 783.49 388.22 781.01 388.53 780.64 386.74 Z"/>
<path d="M 759.29 336.2 761.85 337.37 763.2 339.54 761.89 340.8 760.24 339.6 759.29 336.2 Z"/>
<path d="M 618.68 17.95 621.17 16.79 624.9 16.39 629.87 16.78 628.99 19.1 620.82 22.81 618.99 20.29 618.68 17.95 Z"/>
<path d="M 621.08 473.52 622.25 471.27 623.86 471.23 624.9 472.9 621.08 473.52 Z"/>
</g>
</svg>