<?xml version="1.0"?>
<svg xmlns="http://www.w3.org/2000/svg" version="1.2" baseProfile="tiny" width="800" height="458" viewBox="0 0 800 458" stroke-linecap="round" stroke-linejoin="round">
<defs>
    <style>
        :root {
            --water-color: #9FC9EA;
            --bg-color: #F2E7D3;
        }
    
        svg {
            background: var(--bg-color, #ffffff);
        }
        path, polygon, rect, circle {
            fill: var(--water-color, #3b82f6);
            stroke: none;
        }
    </style>
</defs>
<g id="water">
<path d="M 661.31 448 662.39 441.79 658.93 436.71 653.09 433.28 648.75 432.13 639.81 424.33 633.85 416.32 635.61 413.69 630.86 411.38 628.91 411.9 624.49 409.1 636.57 410.31 641.12 416.62 638.71 420.96 643.1 423.02 649.99 429.33 656.27 428.89 659.54 429.85 659.54 433.14 661.54 437.26 667.2 439.43 667.47 445.27 665.61 448 661.31 448 Z M 670.83 293.16 667.28 294.69 670.27 299.1 668.02 302.42 659.81 302.23 657.86 306.65 655.09 308.98 648.84 307.89 646.5 314.31 639.53 311.7 634.95 313.35 632.97 311.89 626.03 312.36 623.28 316.97 625.62 320.54 623.17 321.55 613.18 321.61 603.8 324.3 605.36 327.21 602.4 331.3 601.33 325.01 598.34 325.97 593.31 329.65 590.79 327.4 595.54 324.35 597.43 320.65 601.44 320.59 607.91 316.78 614.17 318.32 615.05 314.5 609.95 312.28 608.9 310 601.22 307.45 607.53 306.32 612.2 308.11 615.87 311.54 619.03 312.61 620.54 308.19 625.75 306.57 629.29 307.15 642 306.16 643.57 303.19 649.08 301.96 644.44 295.15 647.85 292.79 650.78 296.03 654.08 297.59 659.15 296.55 660.11 293.15 659.24 288.76 665.19 288.73 668.62 284.67 663.79 279.54 654.46 281.32 648.48 280.36 640.19 275.28 635.88 275.09 630.25 277.72 626.99 276.63 619.69 277.37 617.33 274.29 614.01 273.47 613.46 271.06 618.32 270.78 621.09 272.95 626.55 270.81 630.04 271.52 631.74 268.59 634.65 269.74 643.1 270.31 645.57 269.13 650.95 270.31 657.78 273.91 661.16 270.45 656.85 263.04 656.27 259.8 660.2 258.57 664.2 261.29 665.99 268.15 664.42 272.02 670.83 273.7 670.83 293.16 Z M 670.83 252.83 667.85 247.7 663.16 250.36 659.48 247.97 663.79 244.87 666.1 241.69 669.64 242.51 670.83 247.02 670.83 252.83 Z M 670.83 210.06 667.91 208.23 661.24 200.96 659.9 195.66 660.72 191.93 670.83 189.59 670.83 210.06 Z M 670.83 175.16 668.4 170.96 664.86 167.45 656.38 164.32 656.66 159.74 659.48 153.4 663.68 147.2 660.83 144.26 662.06 142.75 657.92 138.11 652.38 142.45 646.04 144.81 639.78 145.69 637.61 143.46 637.42 139.13 626.69 146.18 617.49 144.4 613.82 140.23 617.6 135.48 616.2 126.92 612.53 125.24 606.93 126.92 599.98 127.49 597.98 130.9 592.33 131.88 587.06 131.17 579.18 133.75 576.41 131.91 570.07 132.93 566.09 132.05 561.56 127.9 553.33 123.21 554.56 128.26 552.72 133.42 552.39 138.22 556.15 143.11 551.41 149.23 545.18 152.05 537.44 150.68 534.91 154.44 540.29 157.93 541.86 162.46 547.29 165.53 547.78 171.05 552.56 177.47 562.91 181.39 567.13 174.7 570.92 173.63 575.04 174.83 565.49 181.89 560.38 197.53 550.75 204.72 551.24 208.01 555.96 213.28 552.97 215.1 549.16 212.79 542.98 217.15 538.67 219.16 546.88 220.75 543.36 226.21 547.45 233.4 553.96 235.76 550.94 237.41 545.73 236.01 545.23 232.74 541.61 232 536.45 228.87 531.76 230.35 533.02 234.17 529.34 236.86 525.66 237.46 525.47 247.86 519.63 253.22 522.04 255.8 521.82 260.52 513.37 266.23 511.47 269.52 515.67 270.7 516.06 272.67 513.61 276.76 511.34 274.4 507.47 273.64 507.44 276.87 502.75 280.72 494.35 280.96 496.24 285.3 493.17 285.19 485.9 288.95 485.57 292.22 481.89 293.89 482.14 299.43 479.45 303.71 477.47 299.79 480.6 298.39 478.84 292.74 482.79 290.49 482.33 287.58 485.59 281.32 490.23 278.99 499.76 276.35 503.6 272.51 502.77 269.11 511.47 263.59 511.28 259.91 509.42 257.2 510.38 254.23 518.01 249.21 514.66 244.38 519.9 241.09 519.41 235.32 524.32 228.08 523.8 225.41 526.82 219.73 529.72 219.95 529.51 215.89 531.98 212.85 530.47 211.42 525.86 213.59 520.34 212.05 516.25 214.16 515.23 217.9 510.71 219.08 505.99 225.33 502.12 225.06 497.34 226.6 494.68 229.31 489.98 231.37 482.9 229.34 479.69 227.17 472.37 229.26 470.2 224.81 463.36 222.09 455.87 224.56 450.46 223.77 449.06 220.31 455.38 220.04 469.35 221.55 472.69 222.7 478.49 222.86 482.38 224.12 484.96 226.73 487.87 222.29 493.36 223.71 494.76 218.03 501.13 218.72 504.94 215.32 508.29 214.63 511.03 211.5 507.8 208.4 506.48 201.65 511.39 203.79 510.6 206.97 512.82 208.76 524.35 208.67 529.53 207.58 532.99 204.86 533.65 202.39 539.66 199.45 543.94 199.34 544.6 195.97 543.17 190.92 537.93 176.89 539.08 172.14 531.54 168.66 527.94 161.44 521.63 155.68 524.35 152.91 523.25 147.94 526.32 146.15 530 138.88 529.4 134.27 523.91 133.91 519.19 135.84 510.65 136.03 514 132.32 519.41 131.66 528.46 128.07 536.78 129.17 533.27 121.54 536.28 121.37 536.2 116.62 534.17 114.84 532.14 104.19 528.33 100.21 531.81 95.49 529.07 92.97 529.83 89.34 532.3 88.05 534.75 91.4 536.01 97.55 535.35 99.64 541.66 103.34 553.24 98.98 557.77 98.21 565.98 100.46 571.63 104.52 575.56 106.06 581.54 97.93 579.37 90.74 587.36 88.11 590.46 85.09 590.87 79.74 587.25 75.98 581.87 76.99 577.45 71.12 574.71 63.3 568.75 57.37 562.74 59.48 559.89 53.69 555.06 49.27 546.08 43.87 532.74 38.32 526.76 38.43 532.77 31.13 519.27 25.73 500.22 25.42 496.54 27.92 496.21 34.04 497.39 39.67 500.41 42.74 498.9 46.01 501.57 49.49 496.08 49.22 490.04 51.77 481.94 50.81 484.55 46.04 478.98 43.37 473.68 50.87 472.94 53.72 468.82 53.23 463.01 54.02 461.63 52.46 456.01 54.49 452.82 48.15 448.08 45.19 445.41 47.55 445.09 52.4 442.48 59.13 440.06 59.48 435.23 66.1 429.85 70.43 425.05 75.57 411.99 88.25 406.77 94.06 409.54 95.02 408.8 99.96 406.36 105.51 402.96 108.91 397.19 110.94 389.54 114.68 379.77 116.84 375.4 112.12 375.13 109.38 368.05 107.46 360.12 100.05 355.34 96.64 350.98 95.11 339.23 93.57 331.11 91.35 314.12 88.52 309.32 88.47 299.24 90.14 293.64 92.99 289.25 93.95 286.45 96.51 278.85 101.2 270.21 107.98 266.97 113.22 257.83 118.74 257.14 118.11 266.69 112.31 269.91 107.24 278.36 100.68 275.97 99.06 269.69 102.35 267.6 105.23 262.44 107.92 258.54 112.23 254.67 114.78 251.6 109.9 259.26 103.83 271.66 97.22 277.51 99 278.63 100.51 285.58 96.04 288.27 93.43 292.85 92.39 299.24 89.01 310.3 87.34 317.91 87.78 335.91 90.88 344.47 92.94 351.11 93.79 360.45 98.37 365.19 103.42 371.04 106.96 378.2 108.25 384.21 108.14 392.06 106.66 395.46 103.94 397.11 99.75 402.6 94.01 407.51 90.74 413.17 84.02 435.1 62.01 437.4 54.63 441.74 44.25 445.61 41.97 445.58 35.91 440.31 27.13 436.55 24.08 435.7 21.36 430.76 19.17 423.38 20.9 411.36 21.8 403.56 17.19 402.74 14.97 393.11 10 441.68 10 443.08 13.76 446.76 14.04 449.2 16.4 449.75 19.94 456.31 17.22 460.37 10.58 462.14 10 573.96 10 577.51 12.39 585 13.16 587.03 16.45 590.73 17.36 590.26 10 607.18 10 607.5 15.11 641.04 35.03 651.63 17.71 652.49 11.98 655.85 10 657.43 19.11 654.65 20.87 645.68 48.51 661.76 65.77 670.83 62.8 670.83 175.16 Z" fill-rule="evenodd"/>
<path d="M 515.76 47.13 513.72 46.34 514.52 35.61 512.43 34.7 499.15 36.1 498.44 27.76 500 26.44 518.2 26.5 528.71 30.61 525.09 36.9 521.08 37.17 518.03 35.17 517.05 47.68 515.76 47.13 Z"/>
<g/>
<path d="M 328.25 96.75 327.62 94.31 337.31 96.64 337.09 101.67 335.22 102.6 328.25 96.75 Z"/>
<g/>
<g/>
<path d="M 245.23 114.24 246.44 111.33 251.57 111.57 253.77 114.87 249.95 116.65 245.23 114.24 Z"/>
<g/>
<path d="M 201.43 325.29 204.01 325.09 205.96 328.06 202.72 329.84 200.61 328 201.43 325.29 Z"/>
<g/>
<path d="M 638.43 187.76 646.17 189 650.84 190.94 644.28 192.76 637.64 189.93 638.43 187.76 Z"/>
<path d="M 623.64 192.26 633.14 190.48 631.74 193 625.92 193.91 623.64 192.26 Z"/>
<g/>
<path d="M 662.12 210.18 653.56 213.61 653.14 212.43 661.05 209.25 662.12 210.18 Z"/>
<path d="M 662.91 211.39 654.96 214.93 653.94 213.97 662.28 210.46 662.91 211.39 Z"/>
<g/>
<path d="M 655.48 159.77 652.6 160.59 647.05 158.31 647.55 154.83 655.81 156.72 655.48 159.77 Z"/>
<g/>
</g>
</svg>