<?xml version="1.0"?>
<svg xmlns="http://www.w3.org/2000/svg" version="1.2" baseProfile="tiny" width="800" height="747" viewBox="0 0 800 747" stroke-linecap="round" stroke-linejoin="round">
<defs>
    <style>
        :root {
            --water-color: #9FC9EA;
            --bg-color: #F2E7D3;
        }
    
        svg {
            background: var(--bg-color, #ffffff);
        }
        path, polygon, rect, circle {
            fill: var(--water-color, #3b82f6);
            stroke: none;
        }
    </style>
</defs>
<g id="water">
<path d="M 10.63 538.56 19.62 532.31 25.96 529.08 29.91 526.54 31.48 524.54 29.33 517.58 30.87 516.07 32.4 507.41 31.89 503.32 32.14 499.74 34.61 496.55 33.55 494.16 29.01 490.95 29.09 488.84 34.76 493.44 35.53 496.9 32.81 500.6 33.41 506.94 32.85 513.1 31.61 517.56 31.67 521.1 33.41 523.9 31.85 526.21 24.18 531.57 20.62 533.43 10.63 540.33 10.63 538.56 Z"/>
<path d="M 636.63 737 631.66 730.99 635.28 728.74 622.31 717.18 616.89 720.62 616.03 718.37 613.19 716.59 610.44 717.22 607.97 715.32 611.39 712.72 608.6 710.21 607.01 705.54 609.85 703.31 615.48 702.23 613.37 699.26 613.45 695.27 615.5 693.02 615.11 674.08 613.94 673.3 605.92 672.14 605.25 671.6 606.21 668.88 604.45 654.77 584.55 654.99 584.69 653.91 602.75 653.7 604.1 652.33 602.4 639.87 601.65 639.2 582.5 631.63 578.53 631.59 576.81 630.79 575.13 626.33 575.75 624.9 582.56 620.6 580.29 619.5 578.41 616.68 574.99 613.77 570.39 617.08 564.87 617.21 558.65 614.81 544.88 607.45 541.63 603.21 544.18 601.58 544.02 596.18 542.14 597.51 537.84 595.87 536.35 593.91 535.96 590.33 534.55 590.39 530.19 587.73 525.89 582.25 518.67 577.09 517.26 574.51 516.28 574.37 515.97 573.65 521.48 571.87 516.05 569.85 509.84 566.74 507.91 562.36 507.5 557.39 509.3 556.65 505.83 554.2 503.31 548.29 503.92 545.18 506.66 543.54 511.16 542.62 510.47 539.49 505.76 539.47 502.8 537.53 500.79 531.31 500.94 527.22 501.86 525.72 499.36 524.52 491.3 518.48 487.84 512.88 486.62 508.97 483.83 507.88 480.97 503.73 477.04 499.15 475.92 495.67 472.17 493.26 472.3 490.02 467.26 487.3 465.93 484.6 465.81 479.86 461.02 476.11 455.91 470.37 454.99 466.31 456.38 465.15 457.1 465.64 459.14 461.98 459.14 459.38 457.65 455.6 455.95 453.88 452.68 452.16 450.8 453.67 446.38 451.42 444.6 448.56 444.47 446.7 442.2 442.77 443.7 439.23 441.51 434.97 442.06 430.17 441.65 428.28 439.38 425.4 437.99 420.88 441.08 420.49 440.83 423.58 444.8 424.34 447.42 424.01 446.46 410.83 448.81 410.32 448.67 406.37 446.85 405.39 446.03 401.92 449.4 397.86 447.01 395.72 445.09 396.49 434.96 396.72 435.55 394.37 433.3 393.12 430.77 393.49 430.58 392.38 432.94 389.64 437.29 384.69 439.75 381.83 439.89 381.52 440.08 375.98 440.3 375.67 440.61 355.21 441.51 353.21 450.45 352.53 450.06 352.06 445.52 351.94 445.03 350.3 441.49 350.26 441.39 347.07 456.36 346.82 463.95 346.19 463.89 344.49 459.06 344.31 440.87 344.59 440.81 342.71 456.09 342.47 456.22 336.29 439.97 336.43 436.86 341.34 432.2 341.83 430.34 339.44 421.89 326.82 420.25 325.53 416.63 324.67 415.36 322.44 412.7 320.33 410.19 313.27 409.59 307.73 410.47 305.4 414.2 302.7 417.2 302.19 419.39 300.88 413.85 300 409.82 297.6 406.61 295.03 404.5 292.28 405.46 291.59 402.11 286.02 400.82 282.67 401.84 282.04 399.57 279.38 401.35 278.19 401.49 274.98 398.12 269.95 397.63 266.12 398.12 262.15 399.22 260.7 393.25 250.37 390.69 243.04 391.92 242.25 393.33 241.47 387.05 235.35 384.27 231.81 379.36 222.03 376.97 215.73 375.7 209.11 377.01 207.39 378.95 206.59 385.19 207.1 387.87 205.75 390.79 203.17 396.4 201.05 397.44 198.96 395.66 195.6 395.87 192.11 393.86 192.68 389.69 192.29 371.48 186.91 367.39 181.53 366.33 178.52 366.1 171.4 364.55 169.73 361.97 169.48 358.21 165.61 357.26 163.63 357.12 160.03 357.74 156.57 359.15 153.4 354.83 151.29 351.76 149 350 146.81 349.86 140.74 350.49 138.34 349.31 133.05 350.04 132.35 349.51 128.01 347.24 125.01 344.29 113.22 344.11 111.26 347.53 110.58 343.07 105.43 336.44 99.07 334 93.5 333.62 91.37 331.82 88.61 330.34 84.85 329.63 80.63 323.9 68.81 320.54 64.86 319.48 54.9 318.87 52.81 319.77 50.99 318.85 49.01 318.89 44.04 319.71 43.14 319.15 39.58 317.84 38.94 314.16 34.6 313.32 31.13 313.75 29.41 312.36 26.61 314.32 24.6 313.36 22.27 315.23 20.41 315.59 16.99 314.41 13.82 310.52 13.39 309.74 12.22 312.64 10 315.82 12.67 317.31 17.79 319.28 17.44 317.43 10 789.37 10 789.37 737 636.63 737 Z"/>
<path d="M 367.55 329.91 368.39 331.4 367.94 330.66 367.55 329.91 Z M 361.87 323.18 361.93 323.38 361.79 323.22 361.87 323.18 Z" fill-rule="evenodd"/>
<g/>
<g/>
<g/>
<g/>
<path d="M 494.78 559.05 495.52 564.37 495.62 570.07 497.21 569.93 497.38 570.22 494.96 570.83 493.29 567.86 493.39 564.67 492.39 559.78 494.7 558.6 494.78 559.05 Z"/>
<path d="M 236.06 602.79 236.91 595.71 240.76 595.5 243.42 593.97 251.54 593.68 253.73 594.79 262.28 593.87 263.82 595.65 263.65 603.05 254.88 602.93 249.05 603.64 241.99 602.4 236.06 602.79 Z M 244.12 601.78 249.37 603.19 253.34 602.44 254 598.37 251.6 594.03 248.47 594.89 243.44 594.89 238.59 596.73 239.1 601.95 244.12 601.78 Z M 262.67 600.92 260.75 598.35 263.32 596.93 262.45 595.81 253.91 595.85 255.02 599.16 255.2 602.64 258.11 602.07 261.79 602.54 262.67 600.92 Z" fill-rule="evenodd"/>
<path d="M 223.23 361.8 225.05 360.94 230.53 363.39 229.69 365.24 225.56 364.66 224.93 361.41 222.16 362.62 221.86 364.44 217.5 365.28 218.63 361.47 220.49 362.99 223.23 361.8 Z"/>
<g/>
<path d="M 251.13 316.89 251.73 315.11 254.14 315.69 256.23 312.82 260.22 313.19 258.99 316.14 255.76 317.22 252.71 315.73 251.13 316.89 Z"/>
<path d="M 340.2 539.47 339.96 538.08 342.72 537.2 346.2 537.38 347.28 542.72 346.59 543.95 342.92 544.36 340 542.99 340.2 539.47 Z M 340.94 538.14 341.64 540.53 340.74 542.25 344.89 543.62 346.26 541.97 346.16 538.16 340.94 538.14 Z" fill-rule="evenodd"/>
<path d="M 439.87 361.27 439.09 361.27 434.86 361.16 434.86 354.97 440.26 354.92 439.87 361.27 Z"/>
<path d="M 393.31 291.24 396.83 294.56 393.9 295.15 393.31 291.24 Z"/>
<path d="M 154.1 157.25 154.12 157.45 150.13 158.9 146.31 157.76 144.49 159.78 142.52 160.46 140.99 159.44 140.91 157.76 138.84 155.45 140.32 154.22 138.17 152.73 137.23 150.31 134.22 148.24 131.19 149.41 130.05 149.49 128.68 148.22 130.15 146.59 129 144.21 125.59 146.04 122.05 144.52 119.04 144.97 117.34 147.28 111.88 146.69 109.53 144.69 109.87 142.86 111.14 141.78 107.38 141.13 105.72 139.24 105.72 137.14 107.93 136.46 110.28 134.48 110.3 131.78 108.14 130.59 104.56 130.3 101.57 131.1 100.61 130.77 99.36 129.85 98.62 130.39 96.23 130.08 93.47 130.9 92.53 130.22 91.93 120.81 91.05 118.68 89.05 118.54 87.23 122.35 86.94 123.78 82.01 124.78 76.96 125.07 72.05 123.25 71.05 121.83 73.48 117.54 71.15 116.45 67.45 116.05 67.79 112.4 69.68 110.3 67.61 108.64 66.1 106.43 62.05 105.63 59.3 105.73 58.16 104.79 58.45 104.65 59.8 105.55 64.83 105.63 67.81 107.13 68.1 108.78 70.31 110.01 68.24 112.28 67.63 115.74 74.16 116.78 71.33 121.86 71.91 122.82 76.53 124.7 86.39 123.86 88.33 118.79 89.42 117.89 90.69 118.05 91.91 119.46 92.98 125.64 93 129.75 96.48 129.75 98.26 130.22 99.16 129.63 99.83 129.73 100.81 130.63 106.79 130.06 110.28 131.27 111.1 133.37 109.45 135.87 106.07 137.32 107.6 140.92 111.02 141.35 111.59 142.5 110.26 143.03 109.92 144.64 112.62 146.44 117.1 146.94 117.87 145.24 120.88 143.97 124.11 144.99 129.39 144.13 130.62 146.73 129.1 148.22 131.09 149.21 134.26 147.9 137.33 149.88 138.49 152.5 140.15 153.69 140.5 154.79 139.31 155.77 141.54 158.13 142.16 160.15 144.53 159.33 145.45 157.8 147.78 157.59 150.95 158.41 154.1 157.25 Z"/>
<path d="M 376.25 346.46 376.04 346.13 375.84 345.8 374.59 344.53 374.29 344.04 373.65 343.61 371.69 342.49 370.81 341.91 370.64 341.61 369.91 340.75 369.87 336.17 369.93 336.15 369.81 335.61 367.51 333.69 365.16 333.4 362.83 333.26 359.84 332.71 357.06 330.6 355.79 329.74 355.24 329.35 354.2 328.9 352.66 328.68 350.84 328.56 350.13 328.49 349.29 328.17 348.18 327.86 347.83 327.68 346.67 327 346.63 326.98 346.44 326.78 346.12 326.43 345.62 325.92 345.44 325.61 345.5 325.12 345.4 324.81 345.38 324.77 345.03 323.85 344.87 323.69 344.77 323.56 343.5 322.25 343.11 321.89 342.99 321.76 342.97 321.35 341.7 320.66 341.31 317.26 341.7 314.66 341.9 313.46 341.96 313.03 342.23 311.27 342.74 310.25 342.62 310.02 340.92 308.51 341.41 307.03 342.76 307.08 343.33 307.03 343.76 306.99 344.03 306.97 344.09 306.4 343.76 306.32 342.29 302.45 342.13 301.74 342.02 301.33 341.78 300.67 341.23 299.85 339.2 298.03 335.78 296.31 335.4 296.27 335.11 296.42 332.04 297.34 331.35 297.34 330.55 297.09 330.18 296.97 329.05 294.31 328.91 293.8 328.87 293.39 328.65 293.18 328.42 292.45 326.13 290.03 324.8 288.34 323.26 287.25 322.55 286.86 321.98 285.64 321.69 285.15 321.36 284.33 321.22 284.22 320.77 284.06 320.3 284 319.32 283.55 317.29 283.26 316.84 283.26 314.02 282.98 313.24 282.71 312.22 281.95 309.27 279.68 307.94 278.68 308.04 277.19 307.86 275.39 306.18 273.75 305.65 273.36 303.44 272.3 302.26 272.05 301.5 271.75 301.4 271.52 299.13 271.38 297.51 270.8 296.79 269.97 296.57 269.52 296.22 268.74 295.07 266.37 292.39 264.87 291.86 264.26 290.94 263.4 290.9 263.05 290.68 262.58 290.55 262.34 290.43 262.13 290.12 261.62 290.1 261.58 289.98 261.39 289.63 260.82 289.37 260.66 288.63 260.49 288.14 260.39 284.85 259.55 284.48 259.39 283.82 258.67 282.92 257.67 282.6 256.98 281.61 255.75 280.59 255.24 280.57 255.24 280.45 255.22 278.83 254.73 277.28 254.56 275.13 253.21 274.97 252.95 274.72 252.52 274.68 251.92 274.66 251.47 274.66 251.35 274.19 250.45 273.59 249.82 273.31 249.51 272.67 249.08 271.3 248.42 271.14 248.34 271.12 247.85 268.5 245.7 267.87 244.76 267.44 244.13 267.29 244.01 267.13 243.88 266.48 242.78 266.07 242.37 265.94 242.33 265.13 239.79 264.98 239.14 264.76 238.22 264.27 236.13 263.71 233.78 263.59 233.14 263.28 231.2 262.85 229.42 262.67 228.25 262.4 227.15 262.34 226.23 262.49 225.51 263.02 224.47 263.26 224.2 263.45 224.02 265.74 220.19 266.29 219.52 266.66 219.19 266.84 219.03 267.05 218.58 267.36 218.52 267.31 217.94 267.36 217.23 267.36 217.15 267.38 216.88 267.48 216.18 267.52 215.9 267.44 215.43 267.44 214.1 267.46 213.11 267.48 212.77 267.52 211.34 267.5 211.03 267.46 210.54 267.42 209.96 267.31 209.13 267.19 208.55 267.07 207.94 266.86 206.63 266.84 206.4 266.78 206.06 266.74 204.99 266.76 203.52 266.6 203.13 266.29 202.44 266.09 201.99 265.86 201.56 265.39 200.39 264.9 199.47 264.04 198.57 263.14 197.77 262.24 196.83 261.3 195.99 260.83 195.34 259.46 194.09 258.72 193.13 257.97 192.56 257 191.63 256.19 190.86 255.26 189.88 254.14 188.85 252.85 187.79 252.83 187.56 250.15 184.15 248.06 179.77 247.88 179.28 247.74 178.95 246.96 178.11 246.63 177.74 246.43 177.54 244.77 177.13 244.36 177.01 243.85 176.84 243.73 176.8 241.09 176.17 239.41 176.05 238.94 176.11 237.41 176.31 235.52 176.86 234.6 177.19 234.21 177.31 233.99 177.48 233.68 177.72 233.48 177.89 232.97 178.75 231.72 180.26 228.28 181.53 227.5 181.65 226.38 181.67 225.6 181.67 224.25 181.65 220.9 179.99 220.63 179.85 218.99 179.09 218.34 178.89 216.58 177.99 214.82 177.34 213.02 177.17 211.77 176.99 209.03 175.9 206.62 173.88 205.57 173.47 205.19 173.39 204.37 173.2 203.14 173.08 202.4 173.24 201.65 173.53 200.73 174.14 199.05 175.7 198.05 175.88 197.47 175.8 197.21 175.66 195.55 174.9 194.63 174.7 193.48 174.45 192.62 174.04 192.5 174 191.42 173.57 191.05 173.49 189.86 173.63 187.78 173.14 186.67 172.73 185.48 172.49 182.66 171.73 181.76 171.57 181.05 171.59 179.8 171.38 178.43 170.89 178.14 170.79 176.77 170.22 174.68 169.6 172.45 168.64 171.98 167.78 172.23 166.6 172.82 165.16 172.76 164.34 172.17 163.65 171.04 162.93 170.2 162.4 169.2 161.75 168.59 161.44 167.36 161.11 165.78 160.54 164.66 160.42 164.37 160.46 162.94 160.97 161.08 161.24 160.53 160.95 159.91 158.86 159.28 158.21 158.26 157.76 154.9 157.55 154.12 157.45 154.1 157.25 154.68 157.29 156.15 157.29 157.95 157.27 159.93 158.29 160.55 159.91 160.79 160.58 161.16 160.93 161.51 160.97 162.37 160.85 163.98 160.23 164.68 160.17 165.07 160.13 167.24 160.62 167.67 160.76 169.67 161.5 171.53 162.69 172.68 163.51 173.27 165.06 172.33 168.03 172.66 168.33 173.99 168.95 175.07 169.4 176.91 169.85 178.35 170.5 180.13 171.14 181.21 171.26 182.15 171.28 182.87 171.42 183.38 171.59 184.36 171.91 185.3 172.14 188.14 173.06 188.61 173.24 189.72 173.43 190.46 173.35 190.78 173.31 192.48 173.71 193.12 173.92 193.5 173.98 197.55 175.45 198.33 175.51 199.15 175.33 199.78 174.68 200.97 173.51 202.98 172.86 203.3 172.88 203.96 172.92 205.43 173.18 205.98 173.35 206.47 173.51 207.66 174.35 208.25 175.04 209.3 175.74 209.99 176.11 211.22 176.58 214.82 177.07 215.56 177.25 215.9 177.4 216.66 177.72 217.11 177.91 217.5 178.26 217.85 178.38 218.22 178.5 218.91 178.75 219.59 179.05 220.59 179.65 222.59 180.71 223.62 181.28 224.21 181.45 226.56 181.39 227.55 181.34 228.49 181.16 228.71 181.12 230.12 180.83 230.47 180.67 231.04 180.42 231.33 180.22 231.41 180.16 231.76 179.91 232.07 179.54 232.48 179.05 232.64 178.77 233.03 178.07 233.54 177.54 233.68 177.42 234.05 177.13 234.75 176.89 235.18 176.72 236.55 176.23 238.39 175.82 239.98 175.8 240.43 175.86 241.21 175.94 242.64 176.25 246.3 177.15 246.84 177.44 246.9 177.46 247.08 177.36 248.35 178.15 249.03 179.59 249.33 181.02 250.03 182.47 251.09 184.25 252.56 186.05 253.89 187.28 253.89 187.52 254.2 187.83 255 188.69 255.33 188.95 256.61 190.2 257.11 190.57 257.37 190.78 257.56 190.96 257.8 191.23 257.88 191.31 258.82 192.31 259.77 193.27 260.65 194.03 261.12 194.52 261.63 195.05 262.22 195.69 262.71 195.99 263.1 196.38 263.53 196.89 263.71 197.14 264.98 198.43 265.43 198.88 265.94 199.57 266.35 200.41 266.66 201.31 266.88 201.6 267.6 203.56 267.64 203.95 267.64 204.6 267.83 207.37 268.07 208.33 268.21 209.62 268.34 210.31 268.34 211.79 268.52 211.89 268.5 212.54 268.48 213.07 268.34 213.2 268.48 213.87 268.28 215.41 268.28 216.59 268.21 217.64 267.87 218.82 266.31 220.89 264.9 223.26 264.35 224.39 263.45 225.96 263.51 227.78 264.33 231.16 264.55 231.89 264.51 232.32 264.63 232.92 264.57 233.35 264.8 233.94 264.86 234.12 265.06 234.7 265.23 235.58 265.64 236.97 265.88 237.81 265.96 238.18 266.07 238.75 266.41 240.1 266.41 240.34 266.43 240.51 266.43 240.92 266.62 241.33 268.56 244.21 268.85 244.58 269.03 245.05 269.89 245.81 269.99 245.89 270.94 246.75 273.33 248.34 274.52 249.28 275.23 250.18 276.01 251.55 276.23 251.96 276.4 252.72 277.15 253.33 277.54 253.48 278.69 253.6 279.59 253.68 283.19 256.36 283.5 256.71 283.5 256.73 283.93 257.2 284.13 257.43 284.23 257.55 285.44 258.73 285.62 258.82 286.01 258.98 286.69 259.29 290.41 259.63 290.59 259.47 290.94 259.72 291.19 259.9 291.33 260.17 292.07 262.13 293.91 263.24 294.13 263.28 295.87 263.64 298.41 270.13 299.41 270.35 300.66 270.66 303.2 271.25 308.17 273.83 308.92 274.81 309.05 275.65 309.15 277 309.15 277.62 309.48 278.29 309.6 278.58 310.03 278.93 311.34 279.81 312.63 280.91 314.35 281.83 315.55 282.24 316.8 282.38 316.82 282.36 316.9 282.3 318.95 282.2 320.63 282.47 320.58 282.75 320.89 282.89 321.24 282.94 322.16 283.3 322.67 284.1 322.75 284.24 322.71 284.72 322.77 284.72 322.96 284.76 323.02 284.76 323.31 285.15 325.43 287.4 326.56 289.05 328.46 291.32 329.01 291.57 329.38 292.08 329.71 292.86 329.87 293.66 330.61 295.93 331.51 296.56 332.98 296.21 334.07 295.6 336.34 295.13 336.5 295.17 340.16 297.36 343.07 300.06 343.15 300.37 343.6 301.55 343.97 302.53 344.42 303.72 344.64 304.33 345.65 307.01 345.91 307.24 347.14 307.34 347.38 307.36 348.92 307.53 349.33 308.04 349.94 308.81 350.19 309.12 350.39 309.37 350.43 309.43 350.47 309.47 350.76 309.84 351.37 310.55 351.5 310.7 353.28 312.78 354.16 313.81 354.85 314.69 355.26 315.22 356.2 316.32 356.57 316.73 356.77 316.98 357.02 317.26 357.71 317.57 358.14 318.08 358.19 318.14 360.6 321.01 360.23 321.13 360.46 321.46 361.87 323.18 361.79 323.22 361.93 323.38 364.49 325.79 364.67 325.96 364.9 326.18 366.16 327.39 366.92 328.66 367.41 329.66 367.94 330.66 368.39 331.4 368.45 331.48 369.38 332.67 371.03 334.43 371.32 335.69 371.3 336.12 371.34 337.99 371.36 339.28 371.52 340.48 371.81 340.71 372.14 340.97 372.26 341.46 372.63 341.71 372.83 341.85 373.49 342.14 373.88 342.32 374.18 342.59 374.55 342.94 374.74 343.1 375.61 344.02 376.31 344.41 377.5 345.96 377.48 346.41 381.04 350.79 381.04 351.14 381.49 352.08 381.65 352.41 381.83 352.94 381.9 353.1 382 353.39 382.69 354.82 380.89 355.66 380.5 354.21 380.36 353.53 380.12 352.29 380.07 352.08 380.01 351.73 379.71 351.24 379.69 350.87 379.42 350.59 376.25 346.46 Z M 356.22 328.9 361.38 332.3 368.03 332.3 365.32 327.47 358.98 321.62 355.14 316.61 348.39 308.57 346.95 310.31 343.93 310.35 343.17 311.88 342.7 319.64 345.83 323.13 347.02 325.98 350 327.39 356.22 328.9 Z" fill-rule="evenodd"/>
<path d="M 444.8 424.34 443.55 418.65 445.89 415.68 446.19 420.24 444.8 424.34 Z"/>
<path d="M 606.21 668.88 605.25 671.6 593.73 676.45 586.86 679.36 586.61 679.56 586 679.56 581.78 681.83 581.58 682.02 580.11 683.53 580.25 683.73 584.12 685.74 583.73 688.4 578.39 688.89 578.04 690.81 578.88 691.77 579.57 696.25 578.76 696.79 578.65 696.97 578.29 697.99 578.29 698.03 578.51 698.5 578.43 698.85 578.29 700.78 580.72 702.96 580.21 703.37 580.7 704.76 580.82 705.44 580.76 706.67 580.27 708.67 579.59 709.31 579.39 709.29 579.33 715.14 580.25 714.67 579.31 716.2 579.53 716.59 578.9 717.16 578.47 717.31 578.41 717.51 578.2 718.21 578 718.55 576.28 719.82 575.97 720.17 574.46 721.19 574.32 721.23 572.99 723.2 573.83 731.89 572.7 731.89 572.48 731.99 572.45 732.4 572.31 732.65 572.19 732.83 568.94 736.27 567.06 737 561.71 737 567.16 734.82 567.55 734.69 568.1 734.22 568.51 733.9 570.76 732.32 570.74 730.52 570.68 730.17 570.76 729.19 570.76 728.76 570.76 728.62 570.74 727.78 570.94 727.49 569.49 726.82 557.03 726.8 557.03 726.04 570.18 725.86 570.25 722.69 560.39 722.75 560.49 722.11 570.35 722.05 571.51 720.99 571.51 720.82 572.76 719.78 572.66 719.39 571.82 719.15 566.81 719.06 566.38 719 565.95 718.94 565.15 718.98 574.91 718.18 576.26 715.91 576.49 715.55 577.67 709.8 577.94 709.86 577.77 709.31 577.28 705.01 576.67 703.91 575.5 700.39 576.75 697.48 576.85 697.42 577.14 696.62 576.79 696.36 577 696.19 577.3 695.93 576.81 694.27 576.53 691.34 576.51 691.06 576.4 689.03 576.22 689.07 575.95 688.24 576.87 688.15 578.94 681.34 579.43 681.38 584.01 678.33 584.38 678.11 586.61 677.11 587.04 676.92 587.61 676.7 587.9 676.57 587.1 674.92 589.66 675.51 594.67 673.65 599.79 671.46 603.43 670.09 606.21 668.88 Z"/>
<g/>
<path d="M 389.06 416.89 387.66 416.26 389.63 411.76 389.14 395.14 387.75 386.16 386.48 380.74 383.02 374.91 381.83 367.83 383.02 357.58 384.58 357.58 383.49 364.48 383.65 371.27 385.17 376.51 387.42 379.41 389.2 386.04 390.65 395.14 391.35 412.63 389.06 416.89 Z"/>
<path d="M 380.89 355.66 382.69 354.82 384.35 355.21 387.19 353.57 404.03 353.55 408.31 351.06 413.05 350.61 416.71 351.24 424.84 351.9 428.52 351.28 431.69 351.79 435.31 351.02 434.96 348.66 425.49 348.79 425.47 348.11 437.46 347.85 437.85 350.63 444.84 350.67 445.17 352.61 440.57 353.08 439.77 354.47 435.86 354.76 434.88 353.37 424.28 353.17 414.48 352.16 409.55 352.12 405.44 354.5 403.07 354.97 392.02 354.99 387.56 355.23 384.58 357.58 383.02 357.58 383 357.58 382.98 357.58 380.89 355.66 Z"/>
<path d="M 301.07 450.66 301.74 450.17 302.46 451.65 300.54 452.24 293.4 454.59 292.33 455.1 287.98 456.43 286.65 456.74 285.68 456.95 284.15 457.37 283.9 457.85 281.31 458.75 279.98 458.7 275.89 460.01 271.28 461.47 266.97 462.84 264.31 463.68 257.15 465.97 253.69 467.15 253.18 467.36 250.87 468.09 247.31 468.99 246.14 469.59 227.22 475.68 226.77 475.56 226.48 476.05 221.94 477.3 204.82 482.68 201.83 483.79 196.39 485.5 191.74 487.2 177.75 491.19 177.22 491.17 176.77 491.64 169.06 493.99 167.87 494.1 158.03 497.02 138.51 503.51 137.84 503.87 134.34 504.92 128.74 506.55 128.25 506.55 127.75 506.66 127.26 506.76 114.74 511.01 112.98 511.59 108.83 513.2 107.87 513.43 105.58 514 104.29 514.51 103.33 514.9 102.8 514.84 97.38 516.64 94.37 517.42 90.22 518.71 88.31 519.5 85.67 520.53 82.34 521.55 78.68 522.49 77.96 522.39 72.62 524.52 51.02 531.31 48.83 531.61 40.89 534.56 31.22 539.24 29.5 540.15 28.37 541.17 21.95 545.44 20.74 546.38 16.96 549.35 10.63 555.98 10.63 553.24 14.83 548.74 19.54 544.67 23.14 542.11 24.73 541.25 27.23 539.61 33.1 536.4 42.47 532.21 47.56 530.63 47.62 530.41 48.38 530.39 48.46 530.33 48.85 529.98 58.06 527.05 62.58 525.64 65.03 524.88 71.29 522.82 74.22 521.86 74.63 521.71 75.45 521.45 76.26 521.32 92.92 516.11 93 515.82 93.3 515.72 93.39 515.7 96.88 514.78 97.29 514.53 98.15 514.31 98.48 514.23 100.89 513.61 101.36 513.33 104.97 512.14 110.32 510.65 117.51 508.37 137.06 502.28 142.55 500.46 166.56 492.91 168.12 492.4 169.98 491.66 170.9 491.48 171.31 491.33 172.49 490.9 172.72 490.78 174.42 490.25 176.69 489.6 179.12 489 180.02 488.61 181.58 488.16 187.33 486.4 206.25 480.35 206.54 480.31 206.68 480.29 207.33 480.18 207.89 478.67 207.72 477.93 208.95 479.55 226.48 473.84 227.83 473.52 234.75 471.55 247.12 467.54 249.19 466.93 249.48 466.72 249.74 466.54 252.01 465.56 252.91 463.18 252.77 464.96 252.87 465.17 253.53 465.41 263.1 462.53 266.43 461.49 266.93 461.36 280.77 456.86 281.23 456.68 282.55 456.31 287.14 454.86 301.07 450.66 Z"/>
<g/>
<path d="M 304.57 480 301.66 482.07 299.53 480.29 304.57 480 Z"/>
<path d="M 306.33 448.82 306.39 450.32 302.46 451.65 301.74 450.17 302.05 447.86 301.58 447.49 303.46 447.08 303.71 447.04 304.46 447.29 305.22 447.49 305.79 447.47 306.08 447.35 306.55 447.11 308.23 446.33 308.62 446.04 309.31 445.86 313.24 444.2 323.41 440.76 325.8 440.8 326.87 440.74 329.4 439.29 329.46 440.89 329.65 441.15 330.36 441.36 331.26 441.44 333.33 440.6 333 428.59 333.86 428.82 334.15 439.82 334.29 440.07 336.21 439.05 338.42 437.47 343.58 434.26 343.68 434.24 343.82 434.16 344.03 434.03 344.27 433.89 351.97 434.63 353.95 434.32 353.32 430.43 353.46 429.82 354.61 430.74 354.71 431.27 354.83 433.4 357.26 433.83 359.54 433.64 360.5 433.46 362.11 432.99 366.23 431.89 366.39 431.72 367.45 431.46 369.15 431.6 369.93 431.52 373.36 430.43 374.22 429.53 375.66 427.67 377.13 425.79 377.42 425.56 377.48 425.15 379.69 422.02 385.13 418.79 385.48 418.53 386.31 417.85 387.34 416.91 387.66 416.26 389.06 416.89 388.01 417.99 386.27 419.51 385.52 420.16 385.5 420.18 385.15 420.37 384.84 420.53 382.28 421.7 381.87 421.88 381.63 421.98 381.55 422.19 380.81 422.78 379.46 424.68 378.97 425.05 378.79 425.48 374.84 430.86 374.76 431.07 372.16 432.44 371.81 432.4 369.85 432.52 369.81 432.6 366.23 432.81 365.41 433.15 363.79 433.66 359.7 434.95 355.96 435.16 352.54 435.69 351.9 435.73 347.65 435.18 342.72 436.06 339.41 438.29 337.24 439.86 337.16 439.92 336.13 440.54 331.2 442.99 331.06 443.4 331.06 443.46 330.94 443.83 330.57 444.51 329.97 445.9 329.01 447.41 328.56 448.37 329.32 451.79 329.87 452.85 330.26 453.61 330.42 453.92 332.06 457.13 332.37 458.01 334.86 460.59 336.19 461.86 339.08 463.47 342.49 467.42 343.31 468.36 344.17 469.42 344.11 471.06 343.74 474.5 344.19 479.53 342.99 479.41 342.41 474.76 342.94 470.84 343.07 469.51 333.98 460.65 332.53 459.32 329.73 454.53 329.26 454.14 328.32 451.59 328.42 450.21 327.87 449.11 327.23 448.37 328.79 445.76 328.65 445.65 328.56 445.59 326.84 445.02 326.82 443.61 326.82 442.93 326.82 442.3 326.82 442.05 323.67 441.97 318.78 443.48 315.02 444.86 315.1 449.36 314.84 449.95 314.2 449.89 314.14 447.27 314.14 446.86 314.12 445.84 312.16 446.06 308.15 449.34 307.74 448.93 306.33 448.82 Z"/>
<path d="M 394.35 275.39 395.19 275.26 399.2 284.51 400.23 288.73 402.41 294.35 401.33 294.8 398.04 286.56 396.89 282.3 394.35 275.39 Z"/>
<path d="M 395.19 275.26 394.35 275.39 392.31 273.1 389.26 265.96 389.36 262.48 391.33 261.37 398.12 262.15 394.66 262.31 393.84 264.52 394.72 273.91 395.19 275.26 Z"/>
<path d="M 391.92 242.25 390.69 243.04 389.85 245.34 387.83 247.3 385.15 247.24 382.41 244.03 381.51 240.51 379.97 239.5 378.17 236.33 379.09 233.8 384.55 235 387.01 240.36 389.75 240.28 391.92 242.25 Z"/>
<path d="M 377.01 207.39 374.59 203.95 374.61 202.4 376.6 201.15 385.27 200.08 388.56 200.94 387.5 203.28 382.92 205.32 377.72 204.3 377.01 207.39 Z"/>
<path d="M 432.94 389.64 430.58 392.38 430.77 393.49 429.52 393.53 429.01 392.98 428.95 392.93 428.23 392.48 427.74 392.32 427.7 390.36 427.64 386.82 427.62 386.43 427.68 381.97 427.82 379.64 427.74 376.73 427.25 370.04 427.23 369.51 428.72 366.71 427.17 366.73 427.15 366.05 429.72 365.91 429.83 365.89 430.75 364.46 432.22 364.21 433.47 363.66 434.43 362.86 434.82 362.11 434.86 361.31 438.48 361.29 439.09 361.27 439.87 361.27 440.24 361.27 440.26 361.61 440.28 361.88 440.3 362.15 440.26 363.46 440.24 364.68 440.22 365.85 440.22 366.69 440.18 369.35 440.18 369.47 440.14 372.85 440.08 375.98 439.89 381.52 439.75 381.83 437.29 384.69 432.94 389.64 Z"/>
<path d="M 441.08 420.49 437.99 420.88 434.78 418.3 434.2 415.5 436.03 413.21 435.6 409.69 439.09 409.69 440.63 413.06 440.61 415.34 441.84 417.07 441.08 420.49 Z"/>
<path d="M 439.09 409.69 435.6 409.69 433.41 403.61 434.98 398.56 439.4 398.58 440.91 401.98 440.46 406.58 439.09 409.69 Z"/>
<path d="M 457.1 465.64 456.38 465.15 454.6 466.13 452.19 465.44 450.78 463.59 451.57 461.67 448.77 458.19 448.32 454.39 453.97 453.2 456.07 454.55 458.41 458.75 458.65 461.53 457.1 465.64 Z"/>
<path d="M 516.28 574.37 517.26 574.51 515.4 577.64 518.73 581.06 517.92 582.8 514.99 583.29 512.37 582.76 512.72 582.35 511.41 579.1 513.03 575.56 516.28 574.37 Z"/>
<path d="M 512.72 582.35 512.37 582.76 506.71 581.88 505.21 580.02 503.68 576.07 505.19 574.25 508.75 573.88 507.58 577.5 511.02 582.41 512.72 582.35 Z"/>
<path d="M 248.35 178.15 247.08 177.36 247.35 177.03 239.59 151.09 237.16 143.58 234.6 133.23 234.07 126.81 234.58 99.74 235.05 85.18 235.73 85.15 235.22 112.38 234.83 123.72 234.99 130.53 236.26 137.46 243.67 162.3 246.86 172.4 248.35 178.15 Z"/>
<path d="M 496.35 556.78 496.03 556.78 492.63 555.49 493.39 553.91 498.4 553.85 496.35 556.78 Z"/>
<path d="M 497.38 570.22 497.21 569.93 499.59 567.43 497.85 565.43 496.95 561.03 494.78 559.05 494.7 558.6 496.03 556.78 496.35 556.78 498.07 559.11 500.53 559.85 500.34 563.83 501.2 567.56 499.3 570.24 497.38 570.22 Z"/>
<path d="M 386.15 271.4 382.08 270.68 382.94 268.23 385.93 269.7 386.15 271.4 Z"/>
<g/>
<path d="M 244.12 601.78 239.1 601.95 238.59 596.73 243.44 594.89 248.47 594.89 251.6 594.03 254 598.37 253.34 602.44 249.37 603.19 244.12 601.78 Z"/>
<path d="M 262.67 600.92 261.79 602.54 258.11 602.07 255.2 602.64 255.02 599.16 253.91 595.85 262.45 595.81 263.32 596.93 260.75 598.35 262.67 600.92 Z"/>
<path d="M 120.37 379.8 115.85 377.22 118.98 376.36 121.02 377.49 120.37 379.8 Z"/>
<g/>
<g/>
<path d="M 235.73 85.15 235.05 85.18 235.46 69.83 236.01 40.15 237.14 25.69 236.18 69.83 235.81 72.59 236.12 78.75 235.73 85.15 Z"/>
<path d="M 112.51 496 120.94 495.88 121.07 500.93 112.64 501.05 112.51 496 Z"/>
<path d="M 101.26 496.14 109.69 496.02 109.81 501.07 101.39 501.19 101.26 496.14 Z"/>
<path d="M 135.22 494.67 139.44 494.63 139.5 497.43 135.28 497.49 135.22 494.67 Z"/>
<path d="M 135.12 490.19 139.31 490.15 139.37 492.97 135.18 493.01 135.12 490.19 Z"/>
<path d="M 89.89 510.22 93.63 509.87 95.47 512.43 88.17 514.76 87.99 511.59 89.89 510.22 Z"/>
<g/>
<path d="M 435.78 552.52 439.03 553.16 438.5 554.57 434.84 557.68 438.48 557.49 438.71 559.07 435.7 559.5 433.14 558.15 435.78 552.52 Z"/>
<path d="M 367.55 329.91 367.94 330.66 367.41 329.66 366.92 328.66 367.55 329.91 Z"/>
<g/>
<path d="M 88.27 630.85 83.32 630.91 82.56 629.87 82.32 624.29 86.8 624.24 88.17 625.15 88.27 630.85 Z"/>
<g/>
<g/>
<g/>
<path d="M 92.1 606.59 97.29 606.51 96.97 608.31 91.95 608.41 92.1 606.59 Z"/>
<path d="M 79.99 665.71 84.3 664.75 87.66 665.18 87.17 668.04 81.5 668.19 79.99 665.71 Z"/>
</g>
</svg>