<?xml version="1.0"?>
<svg xmlns="http://www.w3.org/2000/svg" version="1.2" baseProfile="tiny" width="800" height="699" viewBox="0 0 800 699" stroke-linecap="round" stroke-linejoin="round">
<defs>
    <style>
        :root {
            --water-color: #9FC9EA;
            --bg-color: #F2E7D3;
        }
    
        svg {
            background: var(--bg-color, #ffffff);
        }
        path, polygon, rect, circle {
            fill: var(--water-color, #3b82f6);
            stroke: none;
        }
    </style>
</defs>
<g id="water">
<path d="M 33.8 689 30.74 687.08 29.3 684.69 26.21 683.17 21.31 683.45 19.18 684.69 17.63 687.95 15.99 688.29 14.41 686.46 14.02 683.25 17.04 682.92 17.76 682.23 11.65 679.08 11.7 674.25 13.44 672.83 13 676.04 16.3 676.73 17.51 677.45 18.84 677.1 19.87 678.42 21.54 678.37 24.03 679.9 26.44 682.19 29.4 683.49 31.56 685.74 33.62 686.72 35.85 688.74 33.8 689 Z M 265.91 689 264.98 684.55 264.29 682.56 262.77 680.17 261.67 676.98 259.23 675.88 258.34 674.16 257.86 671.59 254.01 669.15 253.35 667.88 254.24 663.91 255.31 664.85 259.84 665.94 263.79 665.13 265.79 667.1 268.39 668.48 269.18 669.34 269.69 672.17 272.49 673.14 273.49 674.08 279.18 675.66 285.68 677.01 288.4 677.2 293.19 678.24 297.71 676.54 299.89 676.68 304.71 674.77 309.21 671.2 311.75 669.47 315.33 668.06 317.99 666.16 323.51 663.58 326.08 663.03 330.04 661.31 332.67 659.54 331.31 656.29 332.76 654.82 332.86 653.9 335.81 652.66 340.24 654.01 342.18 652.83 342.42 650.2 338.77 648.29 336.69 645.84 335.14 645.51 333.73 644.12 333.78 642.66 333 641.61 331.42 641.57 330.54 640.28 330.93 637.67 329.68 635.99 329.43 634.18 329.98 633.08 328.26 629.08 330.1 624.63 333.53 624.9 329.63 628.34 330.81 630.41 333.48 632.65 332.59 634.57 332.93 637.31 334.14 638.14 335.86 641.21 338.96 643.8 339.38 644.96 341.45 645.82 343.78 648.9 345.91 649.69 345.58 652.03 343.98 653.1 341.74 653.69 341.81 654.88 343.26 656.81 345.81 658.09 351.09 658.11 360.94 658.37 369.31 657.73 372.49 658.28 374.78 658.18 376.53 656.37 382.26 653.47 385.45 651.14 386.64 649.04 389.42 645.67 390.97 640.7 391.6 636.59 392.85 633.27 392.52 631.28 392.4 622.93 392.63 621.05 392.27 616.75 392.66 616.11 389.8 611.98 391.6 609.32 391.5 607.44 390.49 605.79 388.98 604.7 386.12 601.01 382.93 595.87 383.3 594.11 385.26 592.67 385.84 590.51 384.13 589.66 382.96 588.08 382.8 586.83 384.77 585.19 384.05 582.17 381.85 581.74 381.35 579.94 381.82 578.9 379.97 576.3 379.78 574.42 378.25 572.68 381.1 572.81 381.46 574.39 380.46 575.41 382.37 576.03 383.52 573.67 382.91 571.71 383.82 569.66 383.26 567.63 380.86 566.27 381.35 564.88 385.45 565.2 385.21 563.86 382.6 563.95 381.07 561.53 379.33 560.67 379.53 556.38 381.13 553.98 381.38 552.06 379.27 549.15 376.39 547.46 372.98 543.2 373.43 540.28 374.4 538.49 376.92 535.22 376.47 533.27 374.18 534.27 374.45 532.09 370.75 530.48 363.93 526.95 357.59 524.86 350.6 521.77 340.71 519.45 335.19 519.73 332.7 518.76 330.77 518.7 327.43 517.42 325.34 514.3 323.58 513.72 321.7 513.82 315.74 513.3 302.06 511.69 293.67 511.19 291.53 510.64 288.85 509.25 289.67 508.72 292.64 510.5 308.46 511.56 314.89 512.57 323.03 513.1 325.5 513.96 327.54 517.02 330.95 518.34 332.01 518.23 336.58 519.31 340.02 518.9 346.78 520.04 351.46 521.25 355.62 523.03 366.01 526.73 368.5 527.84 370.1 529.14 372.82 529.95 377.28 531.95 377.28 532.64 379.75 533.03 381.82 531.2 385.23 530 385.34 529.39 389.58 529.39 390.96 530.56 391.91 532.72 395.84 532.22 396.21 527.96 395.88 522.24 394.4 520.37 394.38 518.23 395.92 517.82 395.87 516.35 396.79 511.53 395.87 510.16 397.42 508.97 397.17 506.49 398.26 501.85 395.93 501.22 396.71 498.95 398.87 498.28 399.12 493.83 397.65 492.07 396.75 487.86 396.79 486.76 395.23 485.6 395.71 483.21 393.9 482.52 394.02 480.41 396.51 479.45 397.23 478.22 397.61 475.39 398.65 470.97 397.83 468.49 395.78 466.53 392.19 464.48 391.08 465.15 392.16 467.89 390.1 468.06 389.11 465.32 387.62 462.9 386.59 456.72 384.21 453.64 373.1 454.15 371.3 453.93 364.59 451.18 360.82 448.96 359.52 447.22 365.39 450.4 371.08 452.74 374.95 453.09 383.3 452.6 385.64 452.82 387.72 454.26 389.89 453.98 390.36 454.92 394.99 455.78 398.8 455.75 403.51 454.59 404.66 450.21 405.95 447.44 407.21 441.9 407.21 440.54 409.22 439.4 407.29 437.14 406.29 430.77 402.38 423.8 399.05 421.5 398.25 418.3 395.9 418.19 394.54 419.62 390.44 417.32 389.61 417.49 386.25 420.84 384.15 419.66 384.13 417.15 386.28 414.08 387.87 414.06 389.38 412.7 388.8 411.4 391.22 408.63 393.19 407.65 394.32 409.46 394.6 411.37 394.12 413 392.6 414.72 391.17 415.58 391.25 417.58 394.38 417.58 397.81 417.07 398.7 415.97 398.44 413.58 397.54 411.15 395.37 407.07 393.96 405.33 389.81 401.54 386.54 399.17 385.13 399.09 384.01 400.25 385.12 401.47 385.35 404.03 384.37 404.89 380.99 405.66 378.55 404.55 376.84 401.59 377.12 398.21 376.4 396.77 374.15 394.21 370.63 391.56 366.45 391.56 365.2 390.79 360.9 383.94 360.04 383.06 357.31 378.9 356.66 375.19 355.53 370.69 354.53 369.33 352.68 365.43 351.63 361.45 349.91 360.08 347.38 358.95 343.51 359.12 340.23 358.58 337.25 357.53 333.67 356.96 328.47 357.2 324.55 356.68 320.84 355.82 311.68 351.72 307.01 349.11 304 346.86 303.02 345.73 298.85 342.71 295.94 340.13 295.44 337.42 294.63 335.57 292.55 333.16 291.56 331.07 287.66 326.98 281.45 322.24 278.96 319.27 275.51 315.97 274.8 312.63 273.22 309.77 271.92 308.22 269.64 306.55 267.43 304.34 264.47 302.2 262.86 300.54 259.01 297.83 257.26 296.94 255.77 294.84 255.12 292.79 253.4 290.26 251.83 286.97 249.44 283.29 246.57 277.86 244.68 275.52 241.39 272.92 239.58 271.06 237.15 269.32 234.17 265.39 230.28 261.73 227.22 259.87 221.18 257.98 217.42 258.04 212.04 257.35 209.8 257.82 205.67 257.01 200.57 254.88 198.05 254.78 194.34 255.82 192.76 257.02 189.99 256.69 188.1 255.32 184.26 254.31 178.47 254.28 172.73 253.2 171.17 253.39 169.74 254.47 165.21 254.77 163.3 254.63 161.37 255.13 158.98 254.36 153.72 253.91 152.94 255 148.87 256.33 141.62 254.96 136.48 253.02 134.74 251.65 132.72 250.95 128.87 251.11 126.04 252.06 122.74 251.34 121.86 250.59 115.35 248.9 111.11 249.1 107.45 247.96 104.38 245.97 102.61 244.19 101.36 240.47 99.48 237.48 97.98 236.16 94.02 237.01 91 241.33 89.77 241.61 88.03 240.47 85.56 237.7 82.3 234.61 79.39 232.97 76.03 232.38 74.34 231.38 73.67 229.15 69.49 219.47 68.66 216.13 67.69 214.52 65.86 212.71 61.82 211.33 60.71 207.93 59.24 205.93 58.71 203.33 57.58 202.13 57.6 197.37 60.9 191.1 61.46 189.67 65.11 185.25 69.36 182.76 71.38 180.8 72.29 178.36 73.42 177.09 74.37 174.32 74.46 170.79 73.98 168.94 71.94 165.25 70.25 163.7 68.02 162.34 66.62 162.15 64.48 160.74 59.22 157.88 52.48 156.59 51.43 155.86 44.89 154.72 42.59 154.53 37.08 153.54 30.46 151.34 29.37 151.34 26.44 150.12 23.62 148.44 16.55 143.17 13.36 141.6 11.65 139.77 11.65 134.42 17.4 138.35 22.03 139.29 23.69 139.96 27.51 142.9 30.73 144.62 34.81 146 40.76 148.91 43.73 149.65 52.46 151.23 57.53 152.65 59.21 152.57 64.92 155.53 67.11 155.19 65.45 153.67 61.4 150.84 57.55 149.02 52.01 148.18 46.67 145.53 42.87 144.47 41.31 143.42 35.89 142.15 32.17 140.46 28.58 140.2 25.31 138.68 22.31 137.96 17.08 133.47 11.65 130.2 11.65 124.3 15.96 126.69 18.23 128.99 20.51 132.32 22.09 133.17 30.17 134.33 32.64 135.28 36.86 137.74 42.29 140.07 47.99 141.6 55.7 144.48 58.72 145.09 62.09 147.46 66.56 148.46 67.78 149.15 70.35 152.68 76 156.36 77.66 156.88 79.89 161.19 81.41 163.12 84.68 165.92 85.61 167.74 85.34 171.07 81.62 175.92 78.96 180.3 77.2 184.26 75.07 187.55 73.74 190.38 72.37 194.79 70.08 197.67 68.91 200.02 68.3 204.37 68.69 207.39 67.99 209.06 68.06 211.1 72.26 212.96 72.07 214.27 70.52 217.07 70.87 219.61 72.29 222.82 73.21 226.05 74.84 228.68 75.48 230.78 78.02 231.59 85.48 234.8 86.22 236.01 87.97 236.59 90.19 235.02 92.02 231.52 93.96 230.81 97.86 232.97 98.5 234.16 100.25 234.63 102.19 236.45 102.22 237.56 106.12 241.31 106.71 242.2 113.18 242.83 116.7 242.83 118.15 243.63 118.79 245.46 120.97 245.3 123.71 241.59 126.95 239.32 129.61 238.43 131.69 238.96 132.25 241.51 135.15 244.16 137.71 246.04 139.43 248.53 141.48 249.87 145.05 250.68 145.96 251.45 148.87 251.55 154.24 250.5 156.51 250.97 160.59 250.81 163.63 252.66 169.09 251.47 174.28 251.64 177.27 251.15 178.4 249.64 179.46 249.46 184.73 251.34 186.91 251.72 188.88 251.37 192.48 249.14 197.24 248.73 201.34 249.14 205.37 250.48 211.87 250.61 216.64 251.19 222.49 251.31 223.87 251.03 226.94 252.59 227.73 253.72 229.44 253.09 229.77 252.64 230.71 252.16 231.46 252.39 234.68 256.22 236.73 257.63 239.88 261.79 243.44 263.64 247.12 267.15 248.98 267.8 252.07 272.42 253.26 275.19 256.7 279.63 257.79 282.59 259.89 284.77 260.41 286.55 262.52 288.55 262.63 290.49 263.6 294.29 262.93 296.5 266.54 299.46 268.72 300.91 268.56 301.93 266.1 302.35 270.12 305.11 271.06 306.48 273.16 308.22 273.57 309.21 275.48 310.55 277.21 315.9 280.78 319.69 284.16 322.51 285.66 323.07 288.17 325.89 290 327.26 292.75 328.56 295.32 331.97 296.55 331.18 297.37 333.4 299.2 336.72 299.1 338.36 301.15 340.88 306.9 344.96 310.21 347.87 313.92 348.81 316.89 350.05 319.21 350.3 324.09 351.75 328.54 353.32 333.58 353.11 339.43 353.33 345.42 353.91 349.99 354.87 355.67 356.79 360.25 357.76 365.28 359.53 369.08 362.96 369.05 368.59 370.41 372.05 372.79 374.96 375.31 376.45 375.06 377.99 376.75 380.36 381.63 384.22 387.92 388.96 392.96 392.17 394.52 391.39 393.22 387.63 392.44 386.85 389.05 385.41 388.14 383.46 389.41 382.36 393.6 381.77 393.35 380.5 394.93 379.72 397.12 379.73 398.5 380.31 398.15 381.48 399.72 382.52 400.92 384.25 403.61 384.61 404.98 385.68 406.01 387.46 411.25 388.48 413.05 389.26 423.47 397.52 427.4 404.81 428.51 407.44 428.53 420.65 430.15 421.56 433.75 420.06 433.75 416.94 436.04 417.77 438.84 417.66 440.61 416.66 447.54 406.5 450.48 404.17 457.19 403.19 459.81 403.45 469.05 405.77 477.36 400.81 481.57 398.62 487.92 396.41 497.33 394.05 499.27 392.75 503.26 386.76 504.56 385.51 504.57 384.24 506.42 382.03 508.53 377.6 508.74 376.51 507.02 373.8 506.89 371.08 509.22 368.34 510.65 365.16 510.44 359.7 512.21 355.21 514.49 353.9 515.03 352.21 517.05 349.66 520.1 348.28 522.29 348.3 523.54 349.14 528.44 343.02 529.13 341.6 529.89 337.98 532.29 336.78 539.58 336.79 542.96 335.82 545.81 333.43 549.11 330 550.59 329.25 552.44 326.56 552.27 325.17 553.35 324.29 552.93 319.11 551.83 311.77 551.8 308.85 550.8 305.36 549.47 303.15 547.92 301.49 544.82 298.93 544.12 296.63 544.68 293.03 545.56 293.01 545.13 296.42 545.71 299.04 549.33 301.4 551.38 303.9 553.02 304.86 554.29 308.35 553.14 309.69 553.54 314.82 554.55 322.76 554.46 325.39 553.25 328.2 551.2 330.89 549.17 332.27 546.96 334.46 542.29 337.56 534.7 338 537.95 339.16 540.22 339 541.75 338.31 543.52 338.3 544.33 339.5 542.18 340.1 541.78 341.75 537.83 342.05 538.95 343.99 535.07 342.57 533.82 339.77 534.16 338.01 531.75 338.17 530.63 339.28 530.72 341.03 529.81 343.71 526.06 348.3 523.96 352.07 522.93 355.02 521.27 357.37 522.76 358.87 519.55 358.86 517.59 361.85 517.5 363.86 518.48 364.15 518.58 366.88 517.58 367.79 516.5 371.13 515.76 375.32 516.58 376.41 515.01 380.51 512.34 383.83 505.89 389.01 501.98 394.72 499.35 396.54 488.97 399.71 485.34 401.01 482.04 402.51 473.58 406.93 470.9 409.04 468.37 409.98 465 410.2 457.11 408.15 455.14 408.15 452.83 409.52 447.24 417.94 445.6 419.98 443.92 421.18 437.45 424.33 435.02 426 433.6 427.6 424.52 445.05 421.97 452.78 419.59 463.07 420.95 463.57 420.15 465.75 419.11 465.54 417.56 468.24 417.95 468.66 416.59 470.82 416.48 472.4 415.52 475.98 414.36 489.17 414.77 490.88 412.67 493.22 415.29 495.04 417.09 499.94 417.81 501.13 421.92 502.5 421.89 505.38 423.14 505.38 423.17 501.78 425.87 502.25 433.56 502.82 436.71 504.54 436.71 505.54 434.13 507.93 433.1 509.56 431.14 510.72 427.38 510.72 425.99 508.2 421.77 507.84 419.83 510.56 419.56 512.57 417.53 514.87 419.39 516.68 419.45 517.84 423.05 518.97 426.3 521.48 425.94 522.81 427.04 524.57 425.16 525.01 422.58 526.55 420.91 526.49 419.25 524.3 416.68 523.21 416.81 526.32 417.59 528.04 418.95 529.43 422.42 531.26 423.36 529.86 421.8 528.75 426.46 528.03 428.43 528.21 431.73 530.03 432.95 532.33 435.05 534.27 435.29 536.22 431.81 538.65 430.48 540.68 430.09 542.72 429.01 544.36 426.46 546.08 425.04 547.51 423.52 548.16 419.17 548.01 417.32 552.09 414 555.91 410.39 558.85 409.98 561.15 411.02 562.22 410.59 567.24 410.97 569.82 413.52 572.48 414.9 574.95 414.91 577.28 413.91 579.05 414.08 580.82 415.4 583.97 416.59 589.76 418.37 591.16 420.04 591.77 422.81 590.9 424.29 591.23 426.66 593.29 430.06 594.56 432.72 593.28 433.2 594.67 435.32 596.16 438.6 596.84 439.81 595.91 443.78 596.08 447.38 594.81 447.24 596.48 447.66 600.08 448.88 601.49 448.23 604.39 447.15 605.29 443.66 605.92 439.57 606 437.6 606.53 435.38 605.84 433.63 606.31 431.97 604.64 429.31 604.15 425.15 604.68 422.91 605.61 420.03 607.59 417.23 608.6 412.8 611.91 412.02 613.57 411.94 617.01 411.14 621.07 411.53 621.93 410.73 625.43 410.97 626.73 409.97 629.91 409.42 634.66 409.69 635.48 408.9 639.05 408.72 641.52 409.61 642.3 412.91 642 415.07 641.24 416.34 642.19 418.39 642.47 421.75 640.55 421.48 639.33 423.1 639.16 424.96 638.12 424.49 633.91 426.08 635.26 426.1 637.56 428.06 635.82 430.06 636.56 433.42 636.62 434.14 637.43 436.49 638.33 437.38 639.55 436.69 641.47 434.74 639.34 432.52 637.78 430.22 638.25 427.77 637.83 426.18 639.39 424.94 639.34 420.26 643.27 418.53 643.57 417.46 644.44 413.47 645.04 407.67 648.22 404.62 650.92 403.02 652.99 399.86 654.11 400.59 655.37 400.61 657.12 399.83 658.82 401.82 662.03 404.79 661.17 408.29 663 410.37 666.02 410.84 668.29 413.71 669.34 418.97 669.5 422.44 669.92 422.39 669.26 424.9 668.62 429.86 668.62 431.92 669.59 435.65 670.37 441.9 673.94 442.91 675.02 445.57 676.19 449.78 675.05 451.51 676.79 451.23 679.75 453.27 678.89 457.96 679.61 459.98 680.18 458.8 682.59 457.27 683.72 454.09 684.24 452.7 683.67 451.25 684.27 449.02 683.52 448.81 682.42 445.85 683.36 443.91 685.82 441.86 686.99 439.53 686.83 438.12 684.28 436.38 682.23 433.81 681.98 431.14 680.95 426.29 681.56 424.49 681.28 423.42 682.3 423.49 683.75 421.64 684.41 418.54 682.89 418.68 682.09 416.99 680.78 416.24 682.69 414.63 683.44 412.8 682.47 412.13 683.42 409.97 682.61 409.28 683.92 406.68 683.09 404.65 681.37 404.27 679.95 400.36 681.42 397.79 680.17 397.32 679.43 391.72 679.04 388.41 677.85 387.54 676.6 387.18 674.18 388.48 671.78 387.72 670.44 384.88 671.48 381.07 674.13 378.84 676.41 374.68 681.53 372.18 683.22 370.72 683.02 367.97 681.55 367.3 680.54 363.71 680.06 360.02 681.17 357.08 680.98 353.81 680.18 350.9 680.67 346.14 683.56 342.76 685.32 339.88 687.69 337.69 689 265.91 689 Z M 234.2 258.35 233.81 258.73 236.61 261 238.78 261.25 236.87 258.02 234.26 256.19 231.32 252.52 230.8 252.31 230.03 252.62 229.72 253.86 229.27 254.27 229.5 255.05 231.21 256.88 234.2 258.35 Z M 68.63 212.24 67.91 213.58 68.55 215.01 69.74 215.32 69.9 213.18 68.63 212.24 Z M 70.41 215.81 71.84 214.05 71.87 212.99 70.32 212.49 70.02 214.68 70.41 215.81 Z M 65.75 211.53 66.86 211.88 67.53 210.2 67.99 206.1 66.09 206.92 66.23 207.86 65.04 211.19 65.75 211.53 Z M 38.62 152.2 43.33 153.03 41.79 151.76 38.62 152.2 Z M 396.54 394.17 398.92 395.58 403.85 399.35 406.07 401.47 410.44 406.74 413.02 410.95 422.33 428.18 423.66 427.94 423.11 410.04 422.94 408.84 420.61 402.51 417.74 398.41 415.9 396.68 408.2 390.97 406.87 388.49 405.68 387.93 402.74 389.07 400.64 388.6 398.64 389.21 398.17 391.01 395.16 391.86 394.63 393.09 396.54 394.17 Z M 505.31 384.91 505.83 385.18 508.97 382.86 510.41 382.85 511.51 381.56 511.85 379.7 513.05 377.63 515.54 369.86 516.5 364.71 516.01 362.5 516.2 360.72 520.99 354.54 523.29 350 521.1 350.17 519.71 352.82 517.08 354.9 516.14 357.54 512.76 359.28 511.63 360.63 512.07 365.45 513.31 372.39 512.99 375.16 511.96 377.18 510.86 378.03 507.25 383.31 505.31 384.91 Z M 540.91 339.16 537.89 339.81 538.53 340.75 540.78 340.99 540.91 339.16 Z" fill-rule="evenodd"/>
<path d="M 645.62 10 646.44 11.4 648.19 12.32 650.6 14.64 651.73 11.59 654.15 11.18 652.49 13.5 652.32 14.75 653.85 18.5 655.14 19.49 654.64 20.44 651.54 22.01 650.83 21.21 648.13 21.44 648.53 23.26 647.2 23.37 646.67 21.4 642.93 21.85 642.74 20.91 648.06 19.68 649.3 18.44 646.86 15.17 644.73 13.62 641.51 15.31 640.94 14.61 643.53 12.06 641.27 10.18 645.62 10 Z M 606.24 10 607.24 12.46 603.34 14.04 599.77 17.06 599.35 15.33 601.1 14.98 604.84 11.54 604.23 10.41 606.24 10 Z" fill-rule="evenodd"/>
<path d="M 193.21 444.81 196.38 443.65 197.63 444.25 200.15 444.39 201.23 443.62 204.53 444.47 206.48 446.14 207.78 446.03 208.83 444.95 213.29 444.84 214.43 445.86 216.34 445.61 216.69 448.53 218.31 448.49 220.35 446.31 223.01 445.66 220.32 442.75 218.64 442.75 218.39 441.1 216.36 440.96 216.31 439.96 218.63 436.27 215.73 434.76 216.45 433.78 214.78 433.06 212.87 433.09 210.82 431.23 218.42 433.87 218.6 434.78 220.77 437.42 218.25 440.12 221.74 442.13 223.68 442.93 225.07 444.14 229.35 443.93 230.77 445.01 231.15 446.72 232.57 447.36 232.57 449.63 230.74 449.32 229.92 448.14 225.15 445.92 223.31 448.96 219.85 449.9 219.57 450.96 217.86 451.34 215.47 448.89 215.25 447.36 213.43 447.41 209.93 446.83 207.28 447.8 204.9 447.72 202.62 445.75 200.91 445.33 198.1 446.28 195.86 444.65 193.21 444.81 Z"/>
<path d="M 255.57 10 256.28 12.49 258.56 14.47 258.03 16.56 258.28 20.15 255.92 21.98 255.92 24.93 254.63 25 252.13 20.71 253.85 20.15 253.27 17.5 253.88 16.05 252.24 10 255.57 10 Z"/>
<path d="M 389.19 374.05 393.3 374.24 392.49 375.69 390.33 375.26 389.19 374.05 Z"/>
<path d="M 309.21 336.86 311.37 337.26 314.19 340.35 313.39 340.91 310.78 337.98 309.21 336.86 Z"/>
<path d="M 314.39 340.57 316.99 342.83 317.1 344.12 314.8 345.65 312.83 344.62 310.93 342.88 314.39 340.57 Z"/>
<path d="M 309.13 336.9 310.65 338 313.34 340.97 310.85 342.66 308.52 341.1 306.88 338.48 309.13 336.9 Z"/>
<path d="M 745.8 115.13 747.69 114.56 750.07 115.52 749.09 116.85 745.8 115.13 Z"/>
<path d="M 85.36 228.64 86.94 227.89 88.34 228.57 92.01 228.64 96.09 231.23 100.82 233.32 104.21 234.08 106.82 236.07 108.2 238.32 110.38 239.62 116.67 238.78 120.41 239.29 124.05 239.21 127.93 238.03 129.42 237.88 133.78 239.12 138.87 241.31 149.32 247.73 152.48 248.85 156.8 249.51 159.13 249.59 174.38 247.88 174.39 248.1 161.83 249.54 158.82 249.79 152.34 249.07 149.12 247.87 137.59 240.9 133.28 239.17 129.94 238.12 127.26 238.4 124.21 239.61 120.63 239.62 116.73 238.95 113.11 239.64 109.11 239.72 107.97 238.84 106.32 235.87 103.94 234.29 98.78 232.78 93.73 230.03 90.41 230.4 86.36 230.05 85.36 228.64 Z"/>
<path d="M 678.3 202.24 679.99 203.13 677.84 205.74 677.17 204.15 678.3 202.24 Z"/>
<path d="M 216.31 594.04 218.31 594.14 220.43 593.51 220.97 594.61 218.17 595.39 216.31 594.04 Z"/>
<path d="M 38.1 634.24 36.46 634.21 35.3 633.23 33.34 633.48 34.66 631.43 37.63 632.24 39.43 633.27 38.1 634.24 Z"/>
<path d="M 777.78 312.57 778.61 314.21 781.82 314.67 778.97 316.33 778.21 319.97 776.7 319.97 777.6 316.95 777.49 313.79 776.14 310.18 777.06 307.44 778.58 305.75 779.9 305.44 782.73 302.78 784.92 301.3 785.86 302.98 783.43 303.23 779.99 306.58 780.43 307.31 778.25 308.24 777.17 309.6 777.78 312.57 Z"/>
<path d="M 256.43 511 257.92 511.49 276.3 506.6 281.59 505.45 283.06 504.43 287.2 507.4 285.6 507.46 283.53 505.81 281.28 505.73 276.29 506.96 257.93 511.85 256.43 511 Z"/>
<path d="M 771.87 25.67 773.29 25.94 775.44 29.64 773.5 29.8 771.87 25.67 Z"/>
<path d="M 766.78 385.74 768.71 384.58 770.51 387.18 767.6 388.29 766.39 387.38 766.78 385.74 Z"/>
<g/>
<g/>
<path d="M 591.94 618.48 589.92 618.86 589.32 617.94 591.18 613.29 592.09 613.4 591.94 618.48 Z"/>
<g/>
<g/>
<g/>
<path d="M 138.23 638.09 140.18 639.5 141.87 637.93 144.49 638.76 144.83 638.08 146.3 637.81 147.16 638.22 147.55 639.94 149.32 641.58 151.86 641.69 153.41 641.05 156.36 641.55 155.54 642.68 152.06 642.61 150.89 641.82 149.34 642 146.73 639.72 146.21 638.14 144.07 639.25 142.09 638.97 140.67 639.75 139.09 639.41 138.23 638.09 Z"/>
<path d="M 14.71 202.35 15.91 201.68 18.37 202.05 18.55 203.58 16.9 203.38 14.71 202.35 Z"/>
<path d="M 83.51 26.19 84.02 25.25 86.47 27.61 88.02 28.06 88.06 29.36 89.08 30.77 87.48 31.58 86.34 30.9 86.73 29.47 83.51 26.19 Z"/>
<path d="M 273.41 41.52 275.52 40.36 275.38 39.05 278.21 37.08 279.2 35.73 279.59 33.99 281.14 33.59 281.89 32.23 283.41 33.62 284.57 33.68 285.13 35.31 283.3 35.59 283.21 37.59 279.43 40.02 276.63 44.12 273.85 42.82 273.41 41.52 Z"/>
<path d="M 276.32 504.16 277.24 503.15 280.17 502.83 279.89 505.13 276.32 504.16 Z"/>
<path d="M 436.01 375.12 437.51 375.54 437.07 377.45 435.57 376.26 436.01 375.12 Z"/>
<path d="M 428.54 322.45 426.54 320.04 426.21 317.84 428.81 317.53 429.62 318.88 430.86 319.39 433.1 319.3 433.38 322.23 434.8 323.88 437.15 324.28 436.1 325.93 432.44 325.53 429.61 324.03 428.54 322.45 Z"/>
<path d="M 582.91 228.72 581.36 230.33 579.43 229.56 578.2 228.09 575.96 228.48 576.26 226.54 578.54 226.1 579.65 227.21 581.23 226.43 579.32 224.29 577.63 223.99 578.07 221.7 577.71 220.81 578.45 219.15 580.58 219.5 580.86 221.91 581.91 223.54 582.05 225.91 582.81 226.67 582.91 228.72 Z"/>
<path d="M 31.51 514.87 32.31 512 35.63 510.75 34.84 512.42 33.37 512.6 33 514.52 34.81 517.6 32.42 518.29 31.01 516.67 31.51 514.87 Z"/>
<path d="M 46.52 587.83 46.35 586.33 47.47 584.97 52.04 585.89 54.01 587.05 56.36 587.82 57.36 589.15 54.92 589.21 51.07 588.25 46.52 587.83 Z"/>
<path d="M 47.38 608.81 50.32 611.69 52.65 611.65 55.75 610.9 59.08 612.27 59.16 613.2 57 614.34 51.46 614.26 49.24 615.07 48.04 611.62 46.72 609.88 44.66 608.14 45.88 607.59 47.38 608.81 Z"/>
<path d="M 112.16 521.05 113.9 520.26 115.65 521.59 116.18 522.77 118.25 523.36 118.29 525.38 120.03 526.4 119.76 527.57 116.73 527.31 113.85 527.6 113.02 525.85 110.44 524.41 108.19 523.86 103.9 523.89 100.03 525.29 98.78 523.97 99.39 523.11 102.3 523.55 101.24 521.86 103.9 522.3 106.17 521.64 106.9 519.98 108.73 519.62 110.83 519.95 112.16 521.05 Z"/>
<g/>
<path d="M 95.13 487.69 97.29 489.19 95.79 490.02 94.51 488.89 95.13 487.69 Z"/>
<path d="M 187.88 519.51 188.77 520.72 186.96 521.27 182.5 519.59 182.76 518.65 185.25 519.01 186.72 518.68 187.88 519.51 Z"/>
<path d="M 194.86 513.02 196.58 512.47 197.06 513.68 196.03 514.47 194.86 513.02 Z"/>
<g/>
<path d="M 287.68 295.95 288.31 297.89 286.18 297.3 284.33 297.35 285.36 299.97 282.97 300.4 283.24 298.85 282.24 296.59 283.11 295.19 284.91 294.2 283.28 292.62 281.06 291.53 282.25 290.43 285.1 291.02 286.76 290.38 287.46 291.46 287.01 293.07 287.68 295.95 Z"/>
<path d="M 30.13 243.19 32.54 243.8 33.26 244.93 32.29 246.15 30.38 245.47 30.13 243.19 Z"/>
<path d="M 728.87 92.8 731.09 92.64 733.63 95.87 730.48 95.98 728.87 92.8 Z"/>
<path d="M 147.87 20.99 150.01 20.57 151.17 21.87 150.18 23.17 147.87 20.99 Z"/>
<g/>
<path d="M 142 145.77 145.05 145.92 145.54 147.6 142.48 146.97 142 145.77 Z"/>
<path d="M 68.85 644.13 69.9 646.21 68.35 646.96 67.38 646.35 68.85 644.13 Z"/>
<path d="M 101.6 15.26 103.12 16.58 102.43 17.72 101.08 17.45 99.5 15.19 101.6 15.26 Z"/>
<path d="M 80.83 22.2 79.57 20.69 81.36 20.24 83.02 20.76 83.32 22.12 81.87 22.74 80.83 22.2 Z"/>
<path d="M 82.1 23.59 85.42 21.59 81.83 26.83 82.1 23.59 Z"/>
<g/>
<path d="M 566.9 161.66 567.63 163.76 567.1 165.19 565.22 164.65 566.9 161.66 Z"/>
<g/>
<g/>
<path d="M 653.56 539.35 655.34 538.7 655.97 537.41 658.22 536.52 659.88 538.09 659.78 539.98 657.22 540.65 653.56 539.35 Z"/>
<path d="M 648.74 220.14 650.38 218.68 652.66 219.15 651.77 220.67 648.74 220.14 Z"/>
<path d="M 396.48 118.09 398.8 118.74 398.01 120.18 396.06 119.78 396.48 118.09 Z"/>
<path d="M 211.07 11.16 211.71 11.87 209.58 14.2 208.8 12.28 211.07 11.16 Z"/>
<path d="M 624.55 122.17 624.39 120.5 626.86 119.12 628.47 121.03 628.18 121.64 624.55 122.17 Z"/>
<path d="M 750.4 210.86 751.23 214.08 752.7 213.27 755.45 213.22 757.29 212.27 757.3 214.1 754.41 214.24 754.11 214.85 751.03 214.73 750.32 212.68 750.4 210.86 Z"/>
<path d="M 781.34 217.59 782.38 217.28 786.37 219.28 785.8 220.69 783.14 219.61 781.34 217.59 Z"/>
<path d="M 729.18 65.63 730.73 66.13 729.42 67.34 727.87 66.42 729.18 65.63 Z"/>
<path d="M 164.69 657.89 165.71 657.71 167.72 656.12 170.17 657.23 167.62 658.34 164.69 657.89 Z"/>
<path d="M 717.57 43.13 721.45 43.56 719.36 44.68 717.59 44.09 717.57 43.13 Z"/>
<path d="M 746.96 22.76 747.71 20.44 749.46 19.83 752.65 19.94 751.98 21.79 748.9 20.21 746.96 22.76 Z"/>
<path d="M 757.38 24.07 758.83 24.29 759.13 27.34 755.64 28.83 753.67 31.9 751.32 31.22 749.76 29.07 748.65 29.33 746.91 28.24 746.24 25.36 751.03 24.56 753.34 22.6 755.17 24.42 757.38 24.07 Z"/>
<path d="M 220.16 165.65 218.55 166.26 216.58 165.23 218.09 163.9 220.16 165.65 Z"/>
<path d="M 278.92 304.78 278.32 302.84 281.41 302.34 282.03 304.34 278.92 304.78 Z"/>
<path d="M 20.43 527.87 19.63 530.36 17.98 531.41 18.73 528.42 20.43 527.87 Z"/>
<path d="M 291.26 588.77 293.36 590.19 291.03 590.74 291.45 592.35 289.84 592.99 288.07 591.74 287.96 590.23 290.64 590.21 291.26 588.77 Z"/>
<path d="M 263.68 575.16 264.6 576.52 263.57 578.49 262.47 578.93 261.16 577.96 262.27 576.88 263.69 577.13 263.68 575.16 Z"/>
<path d="M 667.87 63.26 669.7 62.82 671.24 61.49 673.18 61.78 675.15 60.71 677.9 60.96 676.1 62.77 672.72 62.57 671.35 63.27 668.37 63.74 667.87 63.26 Z"/>
<g/>
<path d="M 690.86 182.65 695.71 183.51 698.5 184.76 702.63 187.33 706.3 188.91 705.93 190.24 702.78 188.41 696.02 185.26 691.96 184.65 690.95 184.06 690.86 182.65 Z"/>
<path d="M 606.68 120.78 605.41 121.03 605.16 118.59 606.53 118.87 606.68 120.78 Z"/>
<path d="M 700.44 145.63 703.96 143.11 704.32 144.83 705.79 146.39 700.44 145.63 Z"/>
<path d="M 658.45 123.11 660.02 120.78 661.46 122.78 659.31 124.06 658.45 123.11 Z"/>
<path d="M 636.94 168.36 633.12 167.81 632.89 165.65 636.52 165.12 637.3 167.5 636.94 168.36 Z"/>
<path d="M 618.08 110.54 616.39 110.79 616.49 109.32 618.19 106.79 619.1 107.35 618.08 110.54 Z"/>
<path d="M 119.72 403.53 121.77 404.52 123.54 403.99 122.99 405.97 124.33 407.52 122.52 407.85 118.39 407.55 119.89 406.57 119.39 405.39 119.72 403.53 Z"/>
<path d="M 628.69 198.8 631.01 198.89 635.89 197.06 638.75 196.4 639.18 197.25 636.2 198.77 635.2 198.81 633.84 200.35 630.99 201.44 628.47 201.02 628.69 198.8 Z"/>
<path d="M 542.29 293.54 540.44 292.17 541.27 291.45 542.83 292.59 542.29 293.54 Z"/>
<g/>
<g/>
<g/>
<path d="M 711.12 364.12 708.32 366.35 706.92 365.29 709.45 363.74 711.12 364.12 Z"/>
<g/>
<path d="M 739.84 220.95 740.42 220.41 743.2 220.17 742.84 221.55 739.84 220.95 Z"/>
<g/>
<g/>
<path d="M 593.2 646.92 596.94 645.98 598.3 647.2 595.13 648.98 592.8 647.56 593.2 646.92 Z"/>
<g/>
<path d="M 754.01 364.26 753.84 362.66 752.29 361.77 750.93 362.14 748.91 361.42 746.27 361.49 746.68 360.22 752.37 360.7 753.81 360.36 754.95 361.2 758.3 359.76 758.52 361.28 757.33 362.32 756 362.05 754.01 364.26 Z"/>
<path d="M 240.1 558.18 240.16 556.9 241.64 555.72 242.13 552.8 243.87 554.34 245.31 554.67 245.07 556.24 240.46 557.19 240.1 558.18 Z"/>
<path d="M 50.16 677.54 52.17 677.41 52.39 679.62 50.4 679.75 50.16 677.54 Z"/>
<path d="M 750.84 122.59 747.76 122.15 749.23 121.01 750.84 122.59 Z"/>
<path d="M 87.78 185.82 89.03 184.89 91.77 186.14 90.93 187.97 89.2 186.29 87.78 185.82 Z"/>
<g/>
<path d="M 771.6 164.07 774.87 163.86 776.03 162.46 778.14 162.78 778.17 165.44 774.89 166.89 773.31 166.44 769.9 166.5 768.71 167.17 768.5 169.08 767.07 169.46 764.73 168.69 767.64 166.3 768.25 164.95 770.44 164.75 771.6 164.07 Z"/>
<path d="M 777.36 159.65 778.07 158.38 778.88 155.26 780.98 154.26 782.53 154.45 784.72 152.92 788.35 153.62 788.35 158.73 787.09 159.86 784.12 160.48 783.18 158.38 787 157.1 786.58 156.23 784.43 156.28 780.57 158.97 777.44 162.4 776.64 160.91 777.36 159.65 Z"/>
<path d="M 232.4 529.4 236.23 528.31 235.92 529.48 232.12 530.72 232.4 529.4 Z"/>
<g/>
<g/>
<path d="M 717.6 88.78 719.51 88.26 722.97 86.48 723.66 87.92 720.69 89.23 717.6 88.78 Z"/>
<g/>
<path d="M 725.29 643.68 720.37 643 720.42 641.47 721.58 640.8 723.09 641.67 725.36 641.97 725.29 643.68 Z"/>
<g/>
<path d="M 718.64 473.54 722.33 474.95 721.66 476.43 718.7 474.29 718.64 473.54 Z"/>
<g/>
<path d="M 734.86 325.45 736.15 326.5 734.25 327.56 733.55 326.01 734.86 325.45 Z"/>
<g/>
<path d="M 567.01 167.05 569.32 168.08 567.24 169.39 566.15 168.66 567.01 167.05 Z"/>
<path d="M 382.27 377.17 393.37 376.98 393.43 377.71 382.27 377.85 382.27 377.17 Z"/>
<g/>
<path d="M 741.36 286.82 740.73 284.81 739.21 281.75 738.04 277.83 736.55 276.27 738.04 275.47 739.18 276.64 741.01 283.61 741.72 284.2 741.36 286.82 Z"/>
<path d="M 729.87 254.17 731.89 251.5 733.56 250.59 734.42 251.91 737.05 252.03 737.32 253.14 739.4 253.09 738.16 255.24 736.11 255.11 734.97 253.7 732.89 255.38 730.45 255.43 730.92 256.99 729.03 257.04 729.87 254.17 Z"/>
<path d="M 739.84 255.21 739.87 253.74 743.62 254.13 743.14 255.86 740.71 255.88 739.84 255.21 Z"/>
<path d="M 251.55 643.76 251.02 641.75 252.55 641.46 253.57 642.19 253.26 643.49 251.55 643.76 Z"/>
<path d="M 711 44.1 714.13 47.06 715.27 48.73 714.1 49.49 712.75 48.44 711.92 45.96 709.98 44.84 711 44.1 Z"/>
<g/>
<path d="M 761.49 671.73 762.36 674.44 760.51 675.18 759.99 674.35 761.49 671.73 Z"/>
<g/>
</g>
</svg>