<?xml version="1.0"?>
<svg xmlns="http://www.w3.org/2000/svg" version="1.2" baseProfile="tiny" width="800" height="519" viewBox="0 0 800 519" stroke-linecap="round" stroke-linejoin="round">
<defs>
    <style>
        :root {
            --water-color: #9FC9EA;
            --bg-color: #F2E7D3;
        }
    
        svg {
            background: var(--bg-color, #ffffff);
        }
        path, polygon, rect, circle {
            fill: var(--water-color, #3b82f6);
            stroke: none;
        }
    </style>
</defs>
<g id="water">
<path d="M 784.43 305.52 778.3 301.42 775.75 304.71 771.08 304.72 770.93 295.15 768.5 294.69 768.48 298.97 764.95 298.7 763.24 289.84 756.3 285.91 748.89 285.17 748.16 288.13 749.44 293.69 747.98 294.08 745.96 285.18 740.2 285.98 737.2 290.25 731.89 287.26 726.54 287.49 705.41 294.53 700.22 297.85 696.37 302.41 703.13 306.46 702.6 307.88 694.82 303.68 691.22 308.24 691.45 309.77 685.37 319.24 681.14 321.69 673.49 324.78 668.09 325.29 658.39 322.66 652.14 322.88 643.29 325.98 637.71 329.25 635.94 334.94 630.63 337.34 627.68 333.98 624.23 337.32 618.99 340.09 615.46 344.08 605.28 343.96 602.35 351.76 596.22 356.64 588.44 359.7 586.29 361.35 586.72 364.51 591.27 369.18 594.8 376.71 588.5 382.9 585.16 392.15 584.34 391.71 588.55 381.42 591.85 379.15 592.99 376.98 590.43 370 585.67 364.99 585.08 361.81 586.7 359.5 594.68 356.23 599.56 353.3 602.37 349.84 603.77 342.95 614.46 343.09 623.47 334.67 612.88 329.75 609.44 325.47 603.15 321.46 595.07 320.76 589.45 322.65 578.12 324.97 574.25 326.27 570.27 330 567.82 329.93 565.05 326.89 565.3 318.47 563.61 308.33 559.19 299.07 553.5 291.65 550.07 288.19 546.88 281.63 542.54 280.53 535.42 283.85 531.09 283.35 529.29 281.81 531.97 277.01 531.73 275.27 527.66 270.74 522.49 273.71 518.42 272.08 515.72 268.24 514.14 268.04 509.47 270.55 500.7 268.84 496.98 269.89 491.71 269.57 486.52 266.57 482.08 264.85 478.07 260.9 471.39 261.03 465.93 263.57 464 261.92 463.13 257.79 456.66 256.82 451.42 258.4 446.48 256.73 443.87 257.17 440.8 255.95 440.82 249.75 439.27 249.13 434.42 251.42 429.27 250.39 428.72 251.61 429.41 256.44 427.44 256.96 420.96 254.21 418.37 251.33 411.51 252.79 408.81 252.06 407.26 252.29 405.63 254.31 404.23 254.63 400.87 254.21 394.09 258.43 388.42 258.56 383.77 256.25 380.14 256.98 377.67 254.08 375.03 254.22 374.03 256.8 368.6 257.71 363.25 256.09 354.14 255.2 348.15 257.21 343.84 256.87 340.89 258.47 332.08 259.68 325.66 256.84 322.91 256.69 322.89 260.02 321.37 260.76 317.92 260.12 316.3 262.57 314.21 264.44 313.11 264.53 309.7 261.92 307.67 264.62 305.27 263.53 303.16 263.71 301.81 266.11 298.52 263.39 291.49 262.95 287.71 261.05 286.76 264.51 283.9 264.3 278.38 261.12 276.84 262.34 278.91 265.29 275.93 265.57 272.43 271.17 271.06 271.65 268.72 270.81 264.47 271.12 260.76 267.35 257.56 267.03 253.21 265.15 250.01 261.19 246.55 260.6 244.37 261.51 242.98 260.69 243.25 257.69 241.84 256.92 238.86 256.46 239.05 254.76 243.07 254.01 242.52 251.77 236.59 249.54 235.08 246.48 231.67 247.92 230.81 245.24 227.15 244.47 224.79 241.58 218.57 241.95 216.25 238.56 213.21 238.13 210.46 240.53 209.16 237.87 216.28 238.26 218.75 241.65 225.34 241.49 228.86 244.72 230.76 244.69 231.74 247.37 233.64 246.23 235.66 246.57 237.24 249.59 242.73 251.4 243.55 253.43 242.38 254.97 239.37 256.21 243.1 257.05 243.73 257.95 243.16 259.77 244.1 261.21 246.57 260.1 248.68 260.28 252.96 262.73 253.74 264.94 262.13 267.56 265.08 270.69 266.89 270.37 271.29 271.24 276.05 265.18 276.43 262.32 278.45 260.8 284.31 264.01 286.87 264.05 287.19 260.76 289.13 260 291.92 262.73 294.72 262.95 297.14 259.38 298.91 263.21 301.92 265.61 302.86 263.14 304.05 262.43 307.35 264.15 310.35 261.13 313.76 264.22 315.79 262.5 317.55 259.91 321.85 260.21 322.59 256.41 324.24 255.89 331.63 259.25 340.09 258.26 343.36 256.57 348.49 256.76 355.4 254.62 361.44 255.38 368.84 257.26 373.32 256.91 374.72 253.92 377.69 253.48 379.88 256.25 383.82 255.86 388.53 258.17 394.35 257.94 399.41 253.78 404.42 254.4 405.93 252.93 408.35 251.49 411.67 252.38 415.28 251.06 419.75 251.1 422.75 254.81 428.1 256.25 427.83 251.84 428.37 250.03 430.21 249.59 434.1 250.74 438.46 248.24 440.98 248.45 441.76 250.42 441.71 255.29 443.5 256.34 447.99 255.97 452.86 257.21 457.21 255.91 463.87 256.98 465.03 261.47 467.39 262.24 469.81 260.32 477.59 259.7 479.63 260.49 483.7 264.6 491.17 268.17 495.3 268.74 499.27 267.6 509.86 268.97 513.5 267.21 516.88 267.53 520.29 271.61 522.31 272.61 526.31 269.82 529.06 269.89 533.84 275.45 531.07 280.73 531.44 282.18 536.18 281.95 539.95 279.54 541.58 273.92 546.08 276.14 552.44 286.89 560.64 295.88 565.67 306.07 568.62 315.03 573.11 319.36 576.13 320.67 582.72 321.21 595.12 316.87 600.68 316.36 607.18 318.83 612.58 325.06 613.03 320.69 615.96 323.02 616.6 328.31 621.36 330.71 628.39 330.53 644.48 321.72 655.92 318.68 657.43 314.58 660.72 314.4 660.49 320.28 672.67 320.73 679.49 318.68 683.03 314.69 685.42 309.43 689.72 302.5 690.9 299.32 687.65 297.12 682.3 296.59 677.79 298.06 677.34 295.47 683.19 295.88 689.69 293.59 692.1 291.47 696.99 292.43 702.58 291.95 708.76 290.28 715.57 286.84 717.52 285.11 726.56 283.62 739.44 282.82 747.86 281.9 751.84 279.75 757.22 280.1 762.64 276.32 760.81 274.85 750.88 274.15 744.2 272.56 739.62 268.61 738.34 265.43 732.03 259.5 729.56 258.88 724.04 259.87 718.5 263.99 715.8 263.25 715.6 260.64 717.11 257.39 721.98 252.38 721.39 247.9 717.56 243.03 707.75 242.73 706.3 240.6 707.02 237.53 709.67 233.98 707.18 230.97 704.04 230.92 698.92 233.9 687.4 232.2 686.38 227.15 682.67 226.96 678.76 224.03 674.82 213.99 675.82 213.42 679.19 223.9 682.26 226.11 686.31 225.82 688.55 229.06 688.76 232.25 698.57 233.18 703.65 230.26 707.38 230.1 709.78 232.23 710.42 235.38 707.2 239.34 710.17 242.52 715.41 241.65 719.3 243.14 721.98 246.32 723.35 252.31 721.41 255.77 717.79 258.54 718.37 262.87 724.63 258.24 727.65 257.71 732.64 258.49 739.51 264.35 744.82 270.28 748.8 271.88 758.45 272.8 763.15 272.27 766.46 276.36 761.32 280.3 762.46 282.66 771.31 287.21 776.74 287.49 779.21 290 779.03 294.17 781.7 294.78 784.43 297.77 784.43 305.52 Z"/>
<path d="M 15.57 105.69 27.73 116.39 30.9 120.1 33.26 126.21 32.96 169.85 31.27 177.77 16.62 201.27 15.57 202.62 15.57 105.69 Z"/>
<path d="M 724.98 41.34 727.59 46.44 737.52 48.41 740.63 50.15 745.16 56.12 748.45 59.37 753.08 59.12 759.48 60.76 765.23 59.26 768.07 61.98 761.55 92.05 748.43 97.74 746.85 92.3 746.58 78.11 746.19 77.29 720.77 48.11 720.7 40.54 725.41 36.62 724.98 41.34 Z"/>
<g/>
<path d="M 465.65 81.56 468.23 78.22 469.36 71.13 479.81 71.02 479.9 76.72 474.82 81.27 469.31 81.98 465.65 81.56 Z"/>
<path d="M 610.48 264.85 611.02 261.06 617.02 261.1 617.48 265.22 620.2 269.52 626.68 275.89 628.74 278.79 629.31 283.3 607.79 283.59 606.33 282.72 605.69 265.11 610.48 264.85 Z"/>
<path d="M 626.22 262.47 640.27 262.41 641.04 263.8 641.64 282.54 635.09 283.23 634.75 279.64 630.31 279.36 628.66 276.25 620.73 268.31 618.74 265.04 618.25 261.24 624.04 261.17 626.22 262.47 Z"/>
<path d="M 52.73 372.86 52.69 368.47 56.67 368.21 58.18 371.58 62.26 374.97 62.58 379.15 59.83 382.26 56.14 380.52 50.93 380.39 49.39 377.41 49.94 372.77 52.73 372.86 Z"/>
<path d="M 358.36 336.07 362.84 334.56 363.27 337.09 358.36 336.07 Z"/>
<g/>
<g/>
<g/>
<g/>
<path d="M 310.5 464.46 311.37 463.5 316.77 465.38 312.63 466.93 310.5 464.46 Z"/>
<path d="M 555.39 23.12 548.58 22.94 549.2 20.42 555.47 20.31 555.39 23.12 Z"/>
<path d="M 218.49 459.56 223.69 458.23 223.81 459.98 214.7 464.16 211.88 463.87 211.95 461.12 217.63 461.28 218.49 459.56 Z"/>
<path d="M 233.73 447.23 237.51 448.15 244.19 450.94 235.4 452.28 233.73 447.23 Z"/>
<g/>
<g/>
<path d="M 220.44 447.59 224.92 448.44 230.08 446.84 230.87 449.79 229.14 452.1 223.65 448.65 220.44 447.59 Z"/>
<path d="M 618.92 507.29 618.42 503.63 623.27 502.51 625.32 504.73 625.25 508.25 618.92 507.29 Z"/>
<path d="M 741.73 264.78 744.66 264.06 748.23 266.2 743.51 267.85 741.73 264.78 Z"/>
<g/>
<path d="M 671.27 298.45 672.17 299.13 672.51 307.97 671.5 308.03 671.27 298.45 Z"/>
<g/>
<g/>
<g/>
<path d="M 734.36 499.22 738.02 497.61 738.23 501.44 734.82 503.96 734.36 499.22 Z"/>
<path d="M 699.74 488.67 703.01 487.37 702.37 485.24 705.18 483.24 709.55 487.09 708.09 488.19 711.84 491.89 708.36 497.3 699.74 488.67 Z"/>
<g/>
<g/>
<g/>
<g/>
<path d="M 770.54 501.19 777.7 500.96 779.12 503.38 770.24 503.43 770.54 501.19 Z"/>
<path d="M 775.46 498.6 777.52 496.98 782.16 497.3 782.09 505.92 779.89 504 779.73 500.43 775.46 498.6 Z"/>
<path d="M 715.82 326.34 716.58 324.3 720.9 325.54 725.51 323.48 725.92 327.3 720.84 326 715.82 326.34 Z"/>
<g/>
<g/>
<g/>
<g/>
<path d="M 51.91 211.36 55.16 211.38 53.95 215.15 51.7 215.06 51.91 211.36 Z"/>
<path d="M 588.32 283.57 588.05 282.95 587.09 250.41 599.38 250.37 599.63 258.59 598.8 259.55 599.37 283.18 588.32 283.57 Z"/>
<path d="M 144.86 167.97 145.16 164.56 148.15 164.49 148.08 168.2 144.86 167.97 Z"/>
<path d="M 251.4 402.58 245.86 401.07 252.73 398.28 251.4 402.58 Z"/>
<g/>
<path d="M 312.75 411.65 317.4 411.8 316.84 413.86 312.75 411.65 Z"/>
<path d="M 53.29 360.76 60.84 361.05 61.54 363.64 64.41 364.14 65.64 368.08 58.57 367.28 57.86 364.96 53.29 360.76 Z"/>
<path d="M 387.26 482.93 390.2 482.4 396.52 484.21 400.07 483.75 401.76 487.25 399.96 492.38 397.64 490.64 398.28 488.39 396.71 486.15 393.59 488.65 389.36 488.17 386.84 486.43 387.26 482.93 Z"/>
<path d="M 66.05 26.65 71.22 28.78 67.98 31.45 64.72 28.91 66.05 26.65 Z"/>
<g/>
<g/>
<path d="M 759.48 474.69 763.97 475.6 759.1 479.77 756.83 479.52 759.48 474.69 Z"/>
<path d="M 712.03 77.15 711.98 72.55 715.18 72.5 715.59 79.82 712.05 79.85 712.03 77.15 Z"/>
<g/>
<g/>
<g/>
<g/>
<g/>
<g/>
<path d="M 573.86 28.91 582.14 28.62 582.26 33.03 573.97 33.14 573.86 28.91 Z"/>
<path d="M 552.85 34.25 558.16 33.99 558.26 36.99 552.92 36.79 552.85 34.25 Z"/>
<path d="M 780.31 32.55 782.28 36.4 779.65 36.74 780.31 32.55 Z"/>
<path d="M 192.11 504.68 192.62 502.76 199.39 502.83 201.77 507.14 198.61 508.09 192.11 504.68 Z"/>
<g/>
<path d="M 579.01 42.57 584.98 42.43 584.32 48.45 578.83 48.38 579.01 42.57 Z"/>
<g/>
<g/>
<g/>
<g/>
<path d="M 712.05 95.23 713.9 98.38 714.08 103.76 712.3 103.78 712.05 95.23 Z"/>
<g/>
<g/>
<g/>
<g/>
<path d="M 453.41 81.7 451.14 79.02 447.83 78.91 447.87 74.77 449.66 73.15 454.76 75.39 456.24 77.29 461.83 78.68 459.98 81.15 453.41 81.7 Z"/>
<path d="M 748.14 482.9 749.55 479.59 752.35 479.35 752.3 482.76 748.14 482.9 Z"/>
<g/>
<path d="M 651.42 10 656.4 12.66 656.7 16.39 654.75 17.17 651.69 15.55 647.09 15.91 647.13 10 651.42 10 Z"/>
<g/>
<path d="M 650.26 357.78 650.86 381.76 650.52 382.86 640.89 382.97 634.41 373.91 636.05 371.47 650.26 357.78 Z"/>
<path d="M 200.19 488.55 196.92 488.56 196.83 483.48 199.85 483.45 200.19 488.55 Z"/>
<path d="M 673.56 482.08 670.82 479.24 672.87 477.45 676.49 480.11 673.56 482.08 Z"/>
<path d="M 643.63 420.09 643.56 416.59 646.76 416.11 646.83 420.04 643.63 420.09 Z"/>
<g/>
<g/>
<g/>
<g/>
<g/>
<g/>
<g/>
<g/>
<g/>
<g/>
<g/>
<g/>
<g/>
<g/>
<g/>
<g/>
<path d="M 339.25 56.74 341.51 56.76 341.65 61.84 339.36 61.8 339.25 56.74 Z"/>
<path d="M 685.94 477.16 689.9 477.3 690.95 480.86 687.61 480.93 685.94 477.16 Z"/>
<path d="M 322.41 463.29 328.63 463.25 328.7 466.57 323.85 467.62 322.41 463.29 Z"/>
<path d="M 322.34 456.93 324.94 456.7 324.97 461.8 322.95 461.76 322.34 456.93 Z"/>
<path d="M 83.42 492.92 85.52 491.53 88.34 493.41 88.84 497.53 83.42 492.92 Z"/>
<g/>
<g/>
<g/>
<g/>
<path d="M 714.84 60.06 714.87 54.29 718.27 58.02 714.84 60.06 Z"/>
<g/>
<path d="M 591.59 483.91 591.78 486.84 587.13 487.53 587.43 483.95 591.59 483.91 Z"/>
<path d="M 333.14 507.02 337.26 506.97 337.31 509 333.22 509 333.14 507.02 Z"/>
<g/>
<g/>
<g/>
<g/>
<g/>
<path d="M 609.81 156.66 596.77 156.8 593.45 156.37 593.11 153.14 597.84 151.93 607.61 153.1 609.81 156.66 Z"/>
<g/>
<g/>
<path d="M 82.53 91.89 85.98 91.84 85.94 94.65 82.8 94.98 82.53 91.89 Z"/>
<path d="M 716.81 156.69 717.36 155.5 727.29 155.32 727.31 157.19 716.81 156.69 Z"/>
<g/>
<g/>
<g/>
<g/>
<g/>
<path d="M 586.54 505.51 586.88 508.57 584.04 508.55 583.97 505.87 586.54 505.51 Z"/>
<g/>
<path d="M 592.12 42.35 597.78 42.18 593.56 46.94 591.8 46.07 592.12 42.35 Z"/>
<g/>
<g/>
<path d="M 568.09 65.61 569.84 67.56 568.99 71.06 564.76 69.69 565.81 66.46 568.09 65.61 Z"/>
<g/>
</g>
</svg>