<?xml version="1.0"?>
<svg xmlns="http://www.w3.org/2000/svg" version="1.2" baseProfile="tiny" width="800" height="686" viewBox="0 0 800 686" stroke-linecap="round" stroke-linejoin="round">
<defs>
    <style>
        :root {
            --water-color: #9FC9EA;
            --bg-color: #F2E7D3;
        }
    
        svg {
            background: var(--bg-color, #ffffff);
        }
        path, polygon, rect, circle {
            fill: var(--water-color, #3b82f6);
            stroke: none;
        }
    </style>
</defs>
<g id="water">
<path d="M 11.57 369.7 17.31 371.71 21.87 374.49 29.81 379.89 44.31 391 52.89 398.83 62.28 406.55 68.63 412.87 75.22 419.91 84.39 430.87 87.81 433.79 94.45 440.41 99.64 446.29 106.29 455.36 107.57 458.59 107.29 462.75 106.38 463.39 108.39 466.29 116.58 462.79 121.72 460.04 141.94 448.62 150.07 443.75 156.7 439.13 172.72 427.34 155.66 440.87 149.82 445.05 139.44 451.21 119.22 462.59 112.54 466.05 116.02 468.71 120.77 475.24 129.87 490.82 131.14 493.7 133.95 497.74 142.44 515.89 145.4 520.77 150.72 531.65 151.57 534.07 154.53 536.58 157.3 542.04 163.67 556.29 166.26 561.59 173.52 574.99 181.47 591.28 183.12 595.4 186.25 605.17 188.94 612.75 189.43 615.52 192.06 614.85 194.29 618.23 196.31 624.43 199.5 628.42 201.39 634.32 200.54 641.62 201.02 656.12 200.1 662.89 198.31 672 197.19 676 11.57 676 11.57 369.7 Z M 450.79 676 451.02 674.11 450.98 650.16 453.02 633.73 454.45 615.17 454.9 612.78 456.73 608.52 470.4 586.68 471.53 583.68 473.56 574.49 477.38 550.34 478.52 547.42 484.4 541.46 485.76 539.19 488.41 529.95 490.95 507.51 493.33 491.66 493.55 488.47 497.44 462.74 499.86 445.97 499.72 438.74 498.06 433.89 495.31 429.98 490.59 425.62 456.42 405.46 451.69 404.48 442.67 404.57 438.79 403.91 435.69 402.67 430.18 397.71 427.5 392.26 417.8 348.97 419.49 342.62 422.33 338.93 422.92 336.93 422.12 330.63 425.25 322.89 425.53 319.7 422.95 306.15 421.54 303.42 419.74 293.83 417.06 289.63 413.62 287.62 409.42 286.98 405.87 285.39 404.45 284.05 401.24 279.16 401.12 273.26 400.03 271.02 398.03 269.24 394.18 267.71 391.43 267.33 383.7 267.57 378.28 266.03 374.58 264.1 368.73 258.72 365.79 254.52 360.4 242.13 352.6 214.89 351.28 206.16 349.7 203.6 347.27 202.96 341.08 203.23 333.51 203.16 320.95 201.57 317.3 201.74 293.27 206.08 288.96 207.2 286.5 208.62 281.92 213.44 279.87 214.5 269.54 217.52 263.37 220.92 257.97 221.45 251.08 220.29 227.39 219.53 227.92 219.08 251.56 219.83 259.39 221.17 263.48 220.34 269 217.08 279.79 214.02 282.33 212.42 286.31 208.18 291.1 206.03 317.07 201.38 326.05 201.19 333.56 202.08 341.16 202.16 348.04 201.88 350.91 203.16 353.27 205.95 353.64 213.41 356.13 222.64 361.71 241.98 364.17 248.19 367.92 255.49 369.94 258.21 374.84 262.93 378.17 264.82 385.23 266.56 393.3 266.21 397.38 267.41 399.66 268.75 402.05 271.45 402.54 278.13 405.73 283.36 409.45 285.74 414.31 286.48 416.41 287.35 419.03 289.73 421.22 293.2 422.19 298.59 422.35 303.55 423.93 306.36 426.41 318.65 426.37 322.74 423.14 330.94 423.92 336.3 423.64 338.57 420.8 341.93 418.99 349.3 428.57 391.56 430.58 396.45 434.49 400.15 439.3 402.87 443.79 403.52 452.83 403.25 457.69 404.65 490.43 423.95 495.43 427.99 497.74 430.82 500.17 435.25 501.24 438.75 501.6 443.64 499.98 456.09 495.06 488.57 494.44 491.31 492.43 504.69 492.82 504.78 514.28 479.09 515.31 478.5 493.31 504.86 492.18 507.68 489.74 530 487.14 539.1 484.45 543.26 480.82 546.5 478.7 550.49 474.8 575.18 472.72 584.33 471.3 587.75 457.57 609.64 455.79 615.32 454.63 630.92 452.3 650.58 452.37 674.07 450.79 676 Z" fill-rule="evenodd"/>
<path d="M 40.55 221.54 37.04 219.41 34.32 220.41 30.97 224.06 26.82 221.99 30.06 220.07 29.14 217.11 32.08 213.08 38.21 213.75 41.1 214.83 39.6 217.53 41.6 218.73 40.55 221.54 Z"/>
<path d="M 119.83 270.44 118.3 271.22 114.41 269.01 112.69 267.34 112.46 265.59 110.26 264.79 110.8 261.51 112.67 258.95 111.88 255.24 114.37 255.57 114.98 257.71 117.3 258.98 118.15 260.8 121.63 264.52 120.29 265.79 121.31 267.98 117.83 269.21 119.83 270.44 Z"/>
<path d="M 108.39 466.29 106.38 463.39 117.42 458.14 120.87 455.14 121.4 451.85 114.42 451.85 112.91 449.62 121.56 449.62 121.54 448.29 112.37 448.31 110.77 446.06 121.53 446.06 121.53 444.75 110.83 444.75 110.83 442.52 121.52 442.52 121.52 441.2 111.12 441.21 110.27 439.82 111.64 437.93 113.67 438.99 121.54 438.98 121.53 437.67 114.19 437.68 112.87 435.75 121.56 435.44 128.77 436.82 130.9 437.71 125.99 440.09 126.02 441.59 131.69 438.86 133.03 440.78 125.99 444.17 126.03 446.06 132.1 443.14 133.11 444.59 126 448.01 126.02 453.89 125.57 457.08 124 458.25 114.15 463.67 108.39 466.29 Z"/>
<path d="M 702.84 282.16 702.07 279.93 706.44 277.37 708.54 275.55 709.88 272.62 714.96 270.16 716.43 272.13 713.92 276.79 710 275.68 708.69 278.85 710.61 280.59 707.5 282.17 702.84 282.16 Z"/>
<path d="M 750.69 87.69 752.22 88.79 755.52 88.24 761.94 89.6 763.41 87.69 765.96 87.74 765.9 85.09 772.32 83.64 775.59 81.64 776.33 84.64 769.67 87.33 766.95 89.13 764.31 89.29 760.88 91.42 757.12 89.79 752.41 89.83 747 88.98 748.48 87.52 750.69 87.69 Z"/>
<path d="M 83.01 10.22 84.12 12.27 83.16 13.62 76.91 16.24 73.65 15.15 69.73 11.72 69.1 10 83.01 10.22 Z"/>
<path d="M 421.13 676 418.93 666.03 417.38 663.97 412.81 662.7 406.81 662.51 405.49 661.51 403.15 656.74 402.51 652.82 399.96 650.54 393.76 647.81 390 645.76 385.63 641.42 364.82 619.98 353.33 610.77 345.01 600.18 341.59 598.32 337.94 589.14 338.45 588.86 342.04 598.02 345.41 599.91 353.69 610.48 365.27 619.62 390.43 645.43 396.12 647.94 401.43 650.81 403.3 653.35 403.61 656.15 406.03 661.18 407.35 662.11 413.66 662.28 417.3 663.36 419.35 665.57 421.81 676 421.13 676 Z"/>
<path d="M 732.93 266.48 733.83 265.36 736.51 266.62 735.06 271.08 733.11 272.49 737.35 274.18 739.87 272.1 742.12 273.24 748.39 272.55 747.95 275.32 744.64 279.97 739.34 283.37 735.27 281.91 736.72 279.39 731.18 277.51 730.03 275.86 726.12 275.87 725.89 272.72 728.16 271.37 728.42 266.22 732.93 266.48 Z"/>
<path d="M 56.65 122.45 57.24 125.36 57.27 137.35 58.53 141.87 59 147.02 57.44 153.42 56.8 160.51 56.78 171.85 72.66 177.92 83.32 183.23 69.46 177.65 62.32 175.08 51.71 170.72 46.04 168.8 35.93 164.55 31.31 163.67 20.16 163.62 20.36 163.04 31.98 163.03 39.38 164.84 46.01 167.38 51.65 169.97 56.42 171.69 56.19 163.76 56.93 154.92 58.66 147.44 58.26 141.89 57.03 138 56.96 125.36 56.65 122.45 Z"/>
<path d="M 377.39 521.14 377.59 522.89 375.25 523.88 374.48 522.06 377.39 521.14 Z"/>
<g/>
<g/>
<path d="M 91.5 180.01 91.37 177.78 89.89 177.22 89.42 174.2 91.16 174.2 92.7 179.07 91.5 180.01 Z"/>
<g/>
<g/>
<path d="M 106.53 446.14 102.85 441.25 99.97 439.13 96.79 435.49 96.29 434.52 100.41 432.02 102.72 434.67 98.56 437.21 103.04 441.22 106.53 446.14 Z M 97.83 436.4 98.43 437.06 102.43 434.64 101.84 433.93 97.83 436.4 Z M 97.08 435.53 97.72 436.22 101.72 433.8 101.1 433.09 97.08 435.53 Z M 96.42 434.66 96.99 435.39 101 432.98 100.37 432.25 96.42 434.66 Z" fill-rule="evenodd"/>
<path d="M 276.14 573.38 277.31 570.94 278.9 571.76 279.02 573.8 276.14 573.38 Z"/>
<path d="M 651.25 360.18 652.78 362.54 644.71 362.85 645.78 360.62 649.4 362.1 651.25 360.18 Z"/>
<path d="M 645.94 366.26 649.35 367.61 652.01 366.99 651.6 370.99 649.14 369.84 644.8 371.3 642.33 368.54 643.02 364.6 645.94 366.26 Z"/>
<path d="M 369.47 286.98 370.74 284.98 369.46 283.35 370.5 275.58 372.9 275.91 375.25 280.79 375.02 284.18 372.02 287.93 369.47 286.98 Z"/>
<path d="M 62.3 171.85 57.44 169.47 57.59 167.21 59.93 166.63 62.43 168.73 62.3 171.85 Z"/>
<g/>
<g/>
<g/>
<g/>
<g/>
<g/>
<path d="M 125.67 70.04 122.13 68.04 123.42 66.75 128.86 68.21 125.67 70.04 Z"/>
<g/>
<g/>
<g/>
<g/>
<g/>
<g/>
<g/>
<g/>
<g/>
<g/>
<g/>
<g/>
<g/>
<g/>
<g/>
<g/>
<g/>
<g/>
<path d="M 280.48 254.06 277.99 252.02 276.87 245.4 281.06 248.22 281.33 250.57 285.83 248.41 286.25 250.11 280.48 254.06 Z"/>
<g/>
<path d="M 170.51 273.76 172.59 275.1 173.17 276.79 171.14 277.49 170.51 273.76 Z"/>
<path d="M 113.76 247.1 115.31 251.45 113.02 251.34 113.76 247.1 Z"/>
<g/>
<g/>
<path d="M 614.41 658.5 614.25 653.3 616.86 655.82 616.96 657.88 614.41 658.5 Z"/>
<g/>
<g/>
<path d="M 601.71 185.28 599.42 182.05 600.87 178.7 604.02 182.23 606.26 181.97 608.46 183.55 605.79 185.18 601.71 185.28 Z"/>
<g/>
<path d="M 205.67 45.65 206.67 47.04 204.9 48.3 203.25 46.1 205.67 45.65 Z"/>
<g/>
<g/>
<path d="M 187.83 79.72 189.18 78.88 192.83 80.95 191.13 82.49 187.83 79.72 Z"/>
<path d="M 191.94 77.02 195.31 78.88 193.19 80.68 189.63 78.68 191.94 77.02 Z"/>
<path d="M 192.9 72.5 195.52 74.5 193 76.99 190.13 74.54 192.9 72.5 Z"/>
<path d="M 193.55 77.18 195.86 74.86 197.85 76.36 195.79 78.6 193.55 77.18 Z"/>
<path d="M 196.32 74.36 198.59 72.06 200.82 73.1 198.24 75.86 196.32 74.36 Z"/>
<g/>
<path d="M 177.04 100.24 179.33 100.55 179.66 102.36 176.54 102.26 177.04 100.24 Z"/>
<path d="M 173.94 100.52 174.55 103.24 172.18 103.75 171.6 102.11 173.94 100.52 Z"/>
<g/>
<g/>
<g/>
<path d="M 667.44 314.47 674.58 307.78 676.59 305.02 682.25 294.4 685 290.47 689.67 286.01 700.36 280.86 701.21 282.66 695.35 283.7 689.63 286.44 683.5 292.9 676.23 306.39 674.51 308.44 667.33 315.15 665.55 316.25 658.85 318.73 650.43 320.97 645.2 323.19 635.34 330.51 633.74 333.28 632.17 342.32 631.55 342.2 633.09 333.19 634.03 331.12 636.56 328.57 643.37 323.77 646.83 321.82 659.71 318.12 664.13 316.35 667.44 314.47 Z"/>
<path d="M 578.52 425.28 575.62 430.01 574.42 429.4 578.52 425.28 Z"/>
<g/>
<g/>
<g/>
<g/>
<path d="M 582.62 419.49 586.42 414.48 587.41 415.4 583.85 420.07 582.62 419.49 Z"/>
<g/>
<g/>
<g/>
<path d="M 574.56 438.72 575.2 434.75 578.27 436.62 576.8 439.28 574.56 438.72 Z"/>
<path d="M 573.77 440.14 575.96 440.64 573.78 445.62 570.41 445.56 573.77 440.14 Z"/>
<g/>
<path d="M 575.24 434.28 576.26 430.87 579.79 426.52 581.57 426.83 585 429.45 583.19 430.18 581.53 432.33 579.76 432.71 576.41 435.14 575.24 434.28 Z"/>
<path d="M 581.73 426.01 581.88 425.64 590.16 424.02 592.53 424.56 585.34 428.66 581.73 426.01 Z"/>
<path d="M 589.65 414.44 590.33 414.52 588.14 421.2 584.99 424.72 581.35 424.76 589.65 414.44 Z"/>
<g/>
<path d="M 586.23 424.67 588.41 423.29 590.57 422.82 591.6 421.78 593.19 418.51 596.39 419.48 593.02 423.6 591.14 423.66 586.23 424.67 Z"/>
<path d="M 587.64 423.14 591.03 414.02 593.35 413.55 594.06 415.36 591.06 422.11 587.64 423.14 Z"/>
<path d="M 594.02 413.2 598.37 411.84 599.1 415.2 596.48 418.93 593.81 417.99 594.71 414.88 594.02 413.2 Z"/>
<path d="M 614.4 444.44 615.88 442.33 618 443.66 616.59 445.58 614.4 444.44 Z"/>
<path d="M 623.42 431.76 625.02 432.82 622.94 436.71 618.21 443.4 615.88 442.08 619.33 435.67 621.29 434.86 623.42 431.76 Z"/>
<path d="M 626.22 422.13 628.26 422.94 628.01 424.7 624.98 431.98 623.57 428.1 624.63 424.1 626.22 422.13 Z"/>
<g/>
<g/>
<g/>
<g/>
<path d="M 780.25 244.59 779.94 242.37 782.18 240.28 783.94 242.52 780.25 244.59 Z"/>
<path d="M 782.88 240.88 787.14 238.91 787.05 240.52 784.13 242.46 782.88 240.88 Z"/>
<path d="M 786.42 235.1 787.6 237.65 785.14 238.92 782.48 239.23 786.42 235.1 Z"/>
<path d="M 72.62 16.85 73.97 17.2 73.62 19.84 71.76 20.15 70.47 18.45 72.62 16.85 Z"/>
<path d="M 479.97 17.97 478.36 16.55 479.63 15.22 477.49 13.22 479.41 12.53 481.83 15.43 479.97 17.97 Z"/>
<g/>
<g/>
<g/>
<path d="M 195.85 74.18 193.33 72.27 198.08 69.69 199.39 70.77 195.85 74.18 Z"/>
<g/>
<g/>
<g/>
<path d="M 569.45 344.27 575.45 346.09 574.84 348.73 570.96 348.73 568.32 346.18 569.45 344.27 Z"/>
<path d="M 212.28 54.35 213.3 52.21 209.05 51.76 206.86 50.25 209.92 48.65 214.28 49.43 215.86 54.22 212.28 54.35 Z"/>
<path d="M 443.92 613.33 442.84 609.89 445.99 611.6 443.92 613.33 Z"/>
<g/>
<g/>
<path d="M 292.59 91.52 288.4 93.78 286.44 92.79 292.59 91.52 Z"/>
<path d="M 779.61 235.77 778.56 238.55 775.46 236.22 779.61 235.77 Z"/>
<path d="M 779.94 239.59 779.05 238.75 780.21 235.83 782.61 235.79 779.94 239.59 Z"/>
<path d="M 779.45 240.05 778.09 241.23 773.84 237.37 775.1 236.38 779.45 240.05 Z"/>
<g/>
<g/>
<g/>
<path d="M 733.92 256.13 736.77 255.68 742.62 255.76 743.53 256.71 740.72 259.24 738.08 259.61 735.16 258.56 733.92 256.13 Z"/>
<g/>
<path d="M 165.62 106.47 166.71 106.34 169.6 108.94 168.2 112.3 163.25 108.44 165.62 106.47 Z"/>
<path d="M 168.94 107.22 171.13 103.63 172.44 105.75 170.26 108.17 168.94 107.22 Z"/>
<path d="M 737.77 301.44 735.85 300.98 737.8 296.75 740.97 292.54 743.7 290.91 751.68 290.98 751.43 295.75 747 294.94 741.84 294.55 738.99 298.01 737.77 301.44 Z"/>
<path d="M 492.13 163.16 490.48 159.36 492.18 157.63 495.26 158.82 494.76 161.12 492.13 163.16 Z"/>
<g/>
<g/>
<path d="M 732.42 294.14 736.61 288.77 740.49 285.37 759.23 270.79 768.14 262.95 769.02 263.66 760.14 271.49 739.04 288.05 733.53 294.6 730.41 302.55 729.19 311.42 722.24 332.22 724.03 332.99 721.86 334.9 719.03 342.24 717.05 341.78 726.37 315.04 727.84 309.73 728.27 304.96 729.64 299.36 732.42 294.14 Z"/>
<path d="M 755.89 252.44 771.98 239.22 775.64 242.28 759.45 255.67 755.89 252.44 Z"/>
<path d="M 599.83 420.87 593.19 425.09 592.73 424.71 597.85 418.99 599.83 420.87 Z"/>
<path d="M 600.33 412.86 605.18 414.67 604.44 416.38 600.12 420.02 598.02 418.83 599.98 415.06 600.33 412.86 Z"/>
<g/>
<g/>
<g/>
<g/>
<path d="M 125.36 64.84 126.6 62.13 128.63 65.07 125.36 64.84 Z"/>
<path d="M 122.92 61.04 126.37 61.42 125.07 63.63 122.92 61.04 Z"/>
<path d="M 296.82 605.85 298.4 605.97 298.87 608.25 296.11 608.14 296.82 605.85 Z"/>
<g/>
<g/>
<g/>
<g/>
<g/>
<g/>
<g/>
<g/>
<path d="M 623.02 181.05 624.91 180.01 627.48 180.35 626.05 182.65 623.02 181.05 Z"/>
<path d="M 697.23 181.92 700.11 180.05 700.65 182.8 697.23 181.92 Z"/>
<path d="M 745.87 175.09 749.38 173.4 750.39 174.92 746.95 176.77 745.87 175.09 Z"/>
<g/>
<g/>
<g/>
<path d="M 193.75 208.73 189.74 206.85 183.35 201.6 177.28 199.46 174.41 198.03 173.06 196.7 171.72 193.34 169.53 177.09 169.43 170.08 168.37 166.54 154.24 145.61 152.78 142.79 151.87 138.48 152.07 134.79 157.97 114.16 159.32 110.49 165.51 104.4 165.21 101.05 136.6 74 135.64 72.53 163.98 99.45 165.47 101.06 166.05 103.51 164.71 105.95 160.75 109.25 158.84 112.17 152.41 134.66 152.07 136.78 152.64 141.42 153.88 144.6 168.39 166.11 169.6 169.07 169.78 176.77 172.05 193.49 172.63 195.47 175.86 198.64 180.5 199.95 183.86 201.65 190 206.72 193.75 208.73 Z"/>
<g/>
<g/>
<path d="M 751.79 244.11 756.83 245.48 756.76 248.06 752.39 248.38 749.26 247.83 749.29 245.74 751.79 244.11 Z"/>
<g/>
<path d="M 117.75 68.19 122.61 72.37 120.72 74 117.02 69.79 117.75 68.19 Z"/>
<path d="M 118.56 68.02 117.6 66.33 121.34 66.07 120.72 68.99 118.56 68.02 Z"/>
<g/>
<path d="M 252.84 671.12 250.87 670.92 250.81 665.62 252.95 665.8 252.84 671.12 Z"/>
<path d="M 248.46 643.67 249.31 646.28 247.5 647 246.65 644.42 248.46 643.67 Z"/>
<g/>
<g/>
</g>
</svg>