<?xml version="1.0"?>
<svg xmlns="http://www.w3.org/2000/svg" version="1.2" baseProfile="tiny" width="800" height="654" viewBox="0 0 800 654" stroke-linecap="round" stroke-linejoin="round">
<defs>
    <style>
        :root {
            --water-color: #9FC9EA;
            --bg-color: #F2E7D3;
        }
    
        svg {
            background: var(--bg-color, #ffffff);
        }
        path, polygon, rect, circle {
            fill: var(--water-color, #3b82f6);
            stroke: none;
        }
    </style>
</defs>
<g id="water">
<path d="M 55.71 10 54.99 19.58 55.52 25.32 59.4 37.31 60.53 44.05 68.99 56.8 70.46 58.37 79.32 64.04 85.4 66.9 90.03 68.19 98.05 67.99 112.26 65 128.98 59.21 133.23 58.21 137.29 58.17 141.57 59.23 150.28 65.84 157.55 75.5 158.94 77.99 173.93 90.87 177.12 94.46 181.64 101.48 191.48 111.1 200.06 117.46 203.43 119.24 217.46 129.68 221.21 133.25 220.83 134.78 223.71 138.74 231.29 143.33 236.88 148.72 241.03 150.89 252.57 159.18 264.45 164.81 270.97 166.41 273.88 168.71 278.4 170.91 281.12 173.5 285.76 176.23 295.11 185.82 314.15 197.31 319.03 199.15 328.36 201.65 337.16 204.73 341.84 208.37 344.05 216.88 341.95 229.49 339.82 233.1 332.44 239.18 326.41 245.65 315.44 255.69 316.23 259.66 320.27 263.36 332.68 270.21 338.36 274.29 343.28 281.6 344.67 287.77 347 289.54 353.12 290.32 356.84 292.44 357.22 295.44 358.93 296.08 360.3 300.16 366.88 307.21 369.79 313.43 369.61 318.18 364.67 329.22 361.9 333.38 352.65 340.7 348.8 343.09 341.17 349.88 336.23 352.05 329.18 350.58 321.49 347.33 315.59 348.61 313.38 350.39 312.73 354 313.06 360.96 311.98 365.86 309.01 368.72 305.33 373.73 301.45 381.22 299.5 381 297.57 386.23 297.48 390.53 301.23 394.67 305.86 395.85 312.58 395.14 315.81 395.56 319.89 398.02 320.73 400.06 319.89 403.63 316.28 409.9 314.39 414.64 310.47 419.54 306.19 421.69 296.15 421.54 292.92 422.07 290.83 423.62 290.43 425.9 291.41 434.11 293.51 440.53 296.88 445.46 302.98 450.31 310.03 453.68 322.29 455.08 327.14 450.42 326.21 456.14 327.94 456.58 329.36 450.66 330.73 450.82 329.4 457.11 332.5 459.11 342.59 457.23 343.21 456.14 368.72 451.11 375.97 452.26 375.06 456.56 368.37 456.65 369.06 462.26 354.14 463.41 353.45 459.04 342.59 459.75 339.77 460.97 337.2 464.52 336.52 467.91 337.65 474.76 340.09 477.2 339.07 469.11 340.28 469.02 341.35 477.11 343.54 476.93 342.55 468.84 343.74 468.73 344.78 476.84 349.99 476.44 350.35 474.09 354.8 474.07 363.38 472.61 376.7 471.59 388.72 472.21 432.76 469.11 442.07 468.29 449.01 467.2 451.25 465.98 455.53 459.82 454.86 457.67 449.7 457.47 451 454.41 458.74 455.3 458.96 454.28 451.14 453.35 453.86 449.13 456.94 448.31 463.46 449.02 471.91 431.85 468.71 429.14 472.04 428.56 473.19 423.71 470 421.36 461.11 420.21 461.38 418.94 473.01 420.43 473.35 418.72 461.78 417.19 462.09 415.73 472.35 417.08 472.62 415.33 469.31 413.98 469.18 411.81 465.35 410.72 465.17 408.9 470.86 409.63 469.85 407.4 463.39 406.55 462.49 404.74 469.2 405.62 468.18 403.61 459.67 402.52 459.12 400.79 467.56 401.88 466.7 399.88 458.9 398.77 459.16 397.22 465.48 398.02 464.92 396.4 457.92 395.49 459.94 393.45 456.79 385.87 455.3 385.45 453.58 381.91 454.09 378.69 453.2 374.97 451.25 371.8 451.85 368.89 451.47 352.36 453.11 351.49 453 346.22 453.82 342.65 455.97 342.87 458.05 333.58 459.14 331.48 455.39 330.92 458.78 319.51 461.49 314.19 465.61 314.92 465.21 312.17 468.98 308.16 471.29 307.78 472.59 305.28 478.56 301.02 480.4 298.3 484.03 297.25 495.11 292.53 503.91 290.25 511.72 285.9 511.01 282.56 520.05 279.01 524.46 280.72 530.82 278.41 535.17 277.99 532.26 274.69 538.49 272.87 541.55 276.4 542.99 275.66 539.78 272.03 545.1 271.47 549.84 269.68 554.19 273.4 559.77 272.49 557.8 268.88 562.34 268.3 564.67 271.54 588.81 267.35 587.01 264.45 600.71 258.29 604.53 255.56 608.74 255.43 591.85 241.88 582.56 231.49 583.25 231.02 591.12 239.89 605.81 251.66 610.47 254.07 613.92 249.66 613.46 247.53 620.97 241.51 619.78 239.49 621.42 234.39 623.28 235.79 624.99 232.46 628 224.44 630.17 220.03 634.47 217.77 635.38 214.53 637.46 212.51 638.28 209.81 642.3 205.38 645.2 200.92 653.4 195.33 654.33 195.8 659.7 193.32 666.26 188.24 678.6 183.79 685.76 180.44 693.39 178.02 702.01 172.44 704.92 176.23 706.71 176.12 717.59 172.95 716.69 169.78 718.06 167.91 723.67 174.12 731.98 170.55 732.58 167.98 730.61 165.06 733.6 162.86 736.81 163.44 753.59 154.17 756.27 151.31 752.53 150.96 749.36 148.21 749.31 144.97 747.12 143.62 742.29 145.66 739.85 148.54 738.14 153.04 735.02 154.22 730.3 152.82 727.35 149.25 724.93 147.72 718.79 147.39 717.24 145.7 718.7 142.84 717.02 138.19 717.22 135.09 720.74 124.87 720.19 123.41 722.25 121.08 717.59 138.1 719.41 142.76 718.15 146.24 723.73 146.86 726.99 147.94 730.94 152.02 735.31 153.35 738.03 151.78 739.25 147.19 744.28 143.51 747.45 142.76 750.09 144.62 750.16 147.9 752.95 150.2 758.69 149.74 768.84 145.24 780.46 136.46 782.34 133.03 786.86 129.66 787.49 150.09 786.55 150.2 773.99 162.75 775.96 164.26 775.29 166.25 770.44 164.7 768.69 166.83 767.82 170.15 763.01 170.37 755.79 175.38 752.48 176.36 748.18 180.53 744.13 181.97 742.97 186.05 739.36 188.46 727.46 189.33 719.86 191.39 712.39 194.09 706.58 197.91 704.05 197.73 701.64 195.13 695.89 195.82 690.33 195.71 684.74 196.75 676.39 201.78 672.8 201.41 667.81 203.58 659.14 211.23 652.16 220.18 649.23 225.41 646.24 232.64 648.88 234.97 645.6 239.02 657.86 239.8 658.26 235.08 660.01 234.04 666.66 233.08 671.33 235.81 672.66 233.64 675.92 232.33 678.74 232.79 682.97 230.29 684.59 231 679.14 234.12 675.24 233.59 671.62 236.78 661.69 238.87 656.7 241.95 645.16 243.3 643.29 244.43 639.19 251.75 641.37 254.65 637.69 260.26 635.65 260.35 630.48 257.95 628.51 259.81 622.06 262.12 619.33 264.38 618.18 267.6 615.08 268.95 609.14 272.78 594.62 278.04 601.16 281.6 605.06 285.24 605.06 288.01 607.72 289.76 610.95 289.41 612.95 291 608.47 294.13 600.49 297.7 593.15 291.14 590.49 291.07 582.14 293.26 575.55 294.06 573.49 292.42 564.92 296.52 559.4 297.81 559.11 300.09 553.3 300.42 550.77 303.64 545.61 307.72 538.45 314.19 541.26 317.22 534.1 319.33 529.58 319.77 524.66 322.46 522.47 324.5 521.56 327.71 523.69 335.02 526.04 339.19 529.74 341.96 533.97 341.76 535.86 343.89 534.5 348.72 531.64 355.95 535.32 356.5 539.76 353.44 549.91 354.33 552.37 356.02 554.65 359.16 557.18 360.94 562.06 361.16 566.78 362.73 567.22 364.66 575.16 366.37 575.11 370.47 576.29 373.66 573.6 377.69 573.29 381.93 573.54 383.19 575.33 383.86 583.29 383.48 586.26 384.65 594.06 386.47 602.35 384.52 603.57 385.03 612.77 384.57 615.41 385.61 628.33 383.06 634.65 385.16 639.19 385.16 639.99 387.38 648.24 390.55 651.16 390.39 662.98 393.83 664.17 396.69 659.23 395.2 655.57 395.23 642.08 392.01 630.81 387.78 624.83 387.73 619.44 388.69 609.05 389.42 606.14 388.47 592.8 389.18 591.27 388.8 586.53 390.75 582.27 389 580.59 384.9 574.6 385.41 573.03 386.78 568.93 385.52 567.91 383.97 569.28 380.93 567.4 377.72 569.86 373.11 575.04 372.8 573.78 368.41 571.59 369.63 565.98 370.14 561.39 369.56 560.55 367.7 556.63 364.77 557.71 361.82 551.19 357.66 545.45 356.81 541.44 355.06 538.12 355.15 535.94 357.46 530.78 358.5 530.62 353.89 533.35 349.39 534.66 343.14 528.52 343.16 522.31 335.51 519.7 326.36 520.58 323.52 518.14 318.95 515.55 316.36 510.23 314.81 505.07 315.87 502.19 313.08 495.49 312.57 493.81 314.32 489.95 314.19 484.21 315.87 481.28 317.6 484.01 319.26 478.73 320.62 478.14 322.63 480.66 325.12 478.45 326.18 475.7 330.57 475.01 333.98 471.71 336.6 474.77 338.84 473.46 344.95 472.84 350.87 473.46 355.77 474.66 355.95 472.33 372.24 473.75 372.37 473.1 377.07 473.92 379.84 476.14 379.69 475.45 384.32 484.59 389.64 480.91 390.62 483.77 397.11 482.32 399.79 483.37 402.14 486.76 402.17 486.05 409.17 491.79 409.24 492.25 411.25 489.37 412.01 489.22 415.31 492.48 417.39 489.77 419.76 489.57 423 497.93 424.8 505.53 423.47 512.76 428.7 513.84 434.73 513.31 436.1 509.3 435.57 508.17 437.61 515.55 442.06 515.11 444.26 518.19 446.36 521.09 446.25 517.15 450.53 516.48 453.39 514.13 453.35 514.66 450.13 517.59 448.98 518.32 447.16 514.18 444.64 513.53 441.58 507.79 439.65 507.59 436.77 509.68 430.83 509.28 429.25 504.29 425.9 499.13 425.37 496.33 428.05 486.91 428.03 480.99 443.9 480.6 446.41 483.23 447.72 479.98 450.44 478.56 455.83 476.87 459.51 480.06 466.38 474.17 466.36 468.32 472.92 474.61 476.73 479.51 477.77 482.75 480.34 485.56 480.08 489.02 477.42 491.68 479.26 496.51 479.21 498.39 480.23 504.58 480.63 505.82 478.97 510.21 479.97 503.63 481.92 496.31 479.9 494.34 482.87 491.5 480.08 488.44 478.86 486.71 480.7 484.96 487.3 482.15 489.34 475.03 492.07 477.27 494.71 483.39 497.26 488.22 500.18 490.37 499.78 495.14 500.74 499.55 503.6 501.17 507.39 503.43 507.48 503.49 513.08 504.47 514.77 504.53 518.82 508.81 523.92 511.85 531.37 515.24 533.1 520.56 532.39 525.39 532.46 526.19 530.82 530.47 531.06 533.57 532.43 533.24 537.49 535.86 539.73 540.27 540.28 548.87 545.71 555.3 547.71 558.89 550.79 561.32 555.44 564.8 558.59 568.53 559.88 569.64 562.74 573.27 565.77 572.16 567.39 568.86 564.46 567.22 560.98 560.5 557.79 558.69 553.03 555.01 548.97 549.2 547.53 539.49 541.48 534.92 541.41 532.8 540.21 531.6 537.05 532.29 534.12 528.52 532.72 524.46 534.96 522.38 533.21 515.4 534.19 510.39 531.33 508.3 527.23 500.06 522.46 495.27 518.18 493.21 510.05 490.04 505.35 491.37 501.49 486.45 500.72 475.85 495.66 471.86 491.92 471.55 488.55 467.38 489.32 464.39 492.29 463.15 490.25 463.57 486.91 461.8 483.4 455.22 487.64 439.52 493.67 428.22 494.82 421.32 494.77 412.3 492.67 404.77 493.07 395.99 491.25 384.53 494.11 380.12 494.33 375.53 492.89 374.95 491.47 362.45 497.26 359.52 497.46 347.44 502.44 344.36 504.75 340.17 516.14 337.03 519.02 333.35 521.15 334.39 523.75 341.22 530.91 348.64 535.58 354.43 533.68 358.77 536.78 363.47 538.18 364.09 535.23 367.75 533.08 369.06 535.12 376.95 536.73 382.44 536.49 390.16 539 388.12 540.1 378.01 537.98 370.81 537.69 370.41 548.08 371.01 550.08 375.11 554.6 375.73 556.84 383.35 559.28 382.18 560.41 381.45 564.95 382.05 567.72 378.37 571.47 380.6 574.82 383.42 576.26 382.98 578.85 386.9 585.68 382.22 584.28 381.93 582.26 378.92 576.99 375.64 573.13 371.05 573.26 363 571.56 365.91 569.78 374.35 571.14 376.77 569.36 378.54 564.49 380.98 563.53 380.83 559.52 374.97 557.3 372.67 553.12 369.19 549.97 369.43 545.14 367.33 541.54 364 540.53 356.02 536.23 354.38 534.7 351.43 535.09 348.97 536.85 339.49 532.92 336.74 528.93 333.95 527.03 331.42 521.97 326.85 519.38 320.96 517.96 316.08 519.09 313.02 521.13 313.69 525.23 316.28 529 318.14 530.2 312.82 532.86 311.62 532.46 307.83 527.89 304.8 525.65 296.04 530.37 293.14 533.72 295.11 538.24 298.1 543.23 292.25 545.65 285.58 538.93 281.1 539.73 281.37 542.25 285.71 549.19 284.27 552.76 286.51 557.64 291.01 559.81 285.42 566.53 285.14 568.81 287.84 570.29 289.08 573.62 291.7 575.81 289.68 577.03 285.96 574.37 285.6 571.36 283.45 569.34 285.49 565.09 289.95 560.39 287.64 559.79 284.83 557.24 283.27 554.05 284.78 549.06 279.97 541.99 269.66 547.75 265.78 548.37 264.72 546.29 257.34 547.2 260.86 549.75 262.39 554.31 262.75 563.64 259.05 569.12 257.41 569.98 242.84 584.44 241.82 593.35 243.57 596.49 242.53 599.46 245.75 600.28 248.01 597.43 252.46 597.56 254.48 598.64 257.36 598.02 261.62 599.27 263.17 601.1 262.99 607.49 269.09 616.47 272.57 619.08 275.36 620.08 277.2 624.49 279.28 626.95 279.44 630.01 277.8 631.58 281.63 634.91 285.53 636.55 284.91 637.9 276.23 632.16 276.38 629.54 278.35 627.82 275.47 623.94 274.78 621.28 267.62 617.66 263.12 618.88 261.31 616 262.97 614.45 263.24 611.63 261.22 607.13 257.94 605.12 254.01 606.69 254.44 610.22 249.27 612.92 250.09 608 246.99 607.05 247.08 605.09 244.26 604.36 241.62 600.88 241.11 597.43 242.33 596.07 239.76 590.98 240.85 587.89 239.94 581.73 243.71 579.96 252.91 571.71 252.93 570.32 257.07 566.84 260.42 562.67 260.53 558.01 259 552.18 254.79 548.62 250.22 550.68 246.35 548.97 240.76 549.41 234.95 552.94 227.04 553.14 212.79 556.64 206.4 559.59 203.81 558.72 198.91 560.01 194.26 559.94 177.43 563.78 170.4 564.8 172.11 570.74 168.21 574.75 163.58 575.79 160.08 577.56 156.53 577.94 150.37 575.86 145.47 575.99 138.64 578.34 137.73 575.66 118.85 569.01 113.9 567.88 113.11 565.71 107.94 565.17 107.87 567.1 95.17 567.68 87.33 569.25 81.59 573 74.45 573.09 65.18 575.35 57.73 576.15 51.73 579.76 46.5 582 44.75 584.13 40.09 584.19 41.51 588.29 42.99 588.4 62.39 583.08 70.86 579.63 71.99 580.38 66.98 583.73 58.36 585.79 56.21 585.48 44.59 588.98 37.72 591.46 28.56 596.32 25.84 595.92 12.51 602.88 12.51 585.26 16.11 585.52 19.54 584.5 23.22 582.26 26.61 578.01 25.77 576.9 20.01 575.7 12.51 575.07 12.51 553.35 21.56 548.26 27.46 546.11 33.37 545.14 32.33 542.54 33.86 541.54 37.52 543.52 46.32 540.61 54.14 537.44 47.12 525.96 47.94 525.74 52.84 533.83 55.5 536.07 58.02 536.14 66.73 532.97 69.08 527.38 70.59 519.36 68.29 513.48 70.52 509.18 83.58 501.47 89.68 495.57 95 493.75 99.52 492.91 103.75 493.6 107.79 491.54 109.85 492.16 113.57 490.83 115.9 492.03 126.21 485.22 134.19 484.29 138.42 483.09 142.19 483.27 147.6 485.29 155.42 485.29 157.08 490.43 150.88 486.86 145.22 486.86 153.51 489.94 154.4 493.09 146.86 493.84 147.8 488.19 140.88 488.32 140.19 484.98 131.19 485.73 128.89 486.35 121.73 490.08 117.87 493.49 111.51 497.74 107.67 499.47 105.04 498.52 103.13 495.11 100.32 494.29 93.53 495.68 90.58 496.86 92.2 499.39 92.03 504.11 92.69 508.45 87.59 510.73 80.1 512.42 73.25 512.15 70.21 512.95 73.07 520.13 71.77 525.52 73.65 526.92 80.59 527.71 84.09 529.13 91.36 530.22 95.2 532.5 99.25 532.99 105.61 532.3 105.5 533.92 113.04 534.72 114.32 531.53 117.56 531.84 117.98 533.5 122.13 534.23 123.46 532.97 145.58 531.92 150.81 535.12 160.34 535.43 176.94 535.32 191.62 536.05 198.47 538.31 200.28 541.39 213.65 537.29 215.05 534.87 219.88 535.18 228.48 532.55 230.34 530.79 234.82 529.2 233.02 526.52 235.53 525.9 237.7 528.82 241.51 528.67 247.59 526.07 249.2 524.65 254.79 522.37 263.15 518.05 279.26 512.02 286.64 508.1 287.62 506.01 292.87 500.83 294.78 500.45 295.97 499.25 299.57 498.99 306.08 494.33 319.63 483.05 330 478.08 331.75 472.92 330.49 467.47 326.12 462.26 314.9 458.49 309.3 457.67 300.39 454.06 294.22 449.09 290.68 450 288.57 447.87 291.99 447.12 287.37 439.98 286.22 434.97 285.36 422.6 290.28 418.26 295.69 417.93 304.75 418.46 307.81 416.95 314.26 406.78 317.39 400.7 314.95 398.77 310.85 398.09 305.24 398.88 299.21 397.38 295.55 395.03 293.34 391.75 294.02 384.06 296.37 379.93 295.62 378.67 299.03 374.48 302.18 372.22 309.36 363.2 309.27 354.4 309.76 350.41 311.89 347.84 316.3 345.44 321.71 344.76 333.08 348.63 338.07 348.15 343.34 343.6 359.21 332.56 362.36 328.33 366.88 317.69 367.22 314.39 366.17 311.44 363.05 306.81 356.64 299.38 348.95 293.77 344.01 291.69 340.42 288.23 337.67 280.3 335.59 275.62 332.35 273.23 325.19 271.58 316.9 266.82 312.11 261.14 311.29 253.19 317.59 246.01 323.7 241.31 332.79 232.99 336.63 227.56 339.84 219.72 340.31 212.49 339.86 210.38 336.76 207.06 327.92 204.91 317.96 201.19 310.29 197.88 302.05 192.43 295.82 188.82 291.61 185.27 286.49 179.75 281.37 175.52 277.27 173.39 273.59 172.48 266.72 168.47 252.35 161.44 245.7 156.06 235.99 150.34 230.34 145.53 227.02 141.91 222.52 140.21 218.66 136.79 213.07 130.19 203.43 122.98 195.45 118.97 190.09 114.94 183.77 107.98 179.07 103.39 169.36 91.95 164.42 88.89 159.81 83.75 151.96 73.69 147.66 66.51 140.57 61.61 136.09 60.45 128.49 61.65 122.17 64.11 111.44 67.28 102.31 69.21 94.09 70.01 87.9 69.48 79.9 66.7 67.27 58.66 64.25 56.15 57.27 44.92 54.88 40.39 52.53 29.91 51.68 21.88 52.78 10 55.71 10 Z M 164.11 545.69 160.63 545.11 159.5 546.75 153.03 545.31 144.65 545.73 142.12 544.87 134.85 546.47 125.1 544.91 118.69 546.78 115.81 545.14 110.16 545.96 108.47 544.74 103.77 544.94 97.32 543.05 93.75 544.65 107.16 547.57 113.79 547.17 120.95 547.91 128.87 547.97 135.91 546.75 143.34 548.84 148.86 549.66 153.62 549.59 164.18 548.28 164.11 545.69 Z M 507.57 303.59 505.73 305.41 510.08 306.9 515.26 306.81 520.69 308.34 527.52 308.42 530.34 309.93 533.04 308.93 542.84 302.02 548.76 296.7 557.89 291.98 558.11 290.83 567.64 286.9 571.56 285.9 571.96 283.02 563.83 284.71 557.84 284.64 541.35 288.72 535.83 291 534.13 292.47 526.35 294.68 518.1 298.36 511.21 300.98 507.57 303.59 Z M 367.53 536.96 364.76 535.27 364.02 538.42 366.6 539.24 367.53 536.96 Z M 12.51 621.86 15.38 624.29 12.51 627.62 12.51 621.86 Z M 12.51 633.15 16.37 636.5 16.26 638.57 20.21 643.58 18.71 644 14.49 639.78 12.51 636.16 12.51 633.15 Z" fill-rule="evenodd"/>
<path d="M 310.58 185.8 315.86 184.67 321.95 173.48 331.91 168.36 336.45 160.69 330.18 161.44 328.03 160.58 326.23 156.65 326.43 152.58 322.06 149.54 322.49 146.7 319.54 141.34 315.39 145.22 310.18 144.57 307.12 139.7 303.13 136.97 298.59 130.48 295.42 123.34 296.95 117.69 292.27 113.96 290.17 109.24 284.91 105.32 283.47 102.24 282.08 96.34 279.02 93.37 277.24 89.76 274.58 87.45 272.9 83.17 270.55 80.54 270.91 78.56 277.38 75.19 277.02 72.89 272.01 67.9 265.94 63.25 266.05 61.74 271.15 58.5 271.53 56.8 267.58 48.91 264.37 43.61 260.86 40.66 256.28 38.82 254.21 36.74 263.32 33.92 263.61 31.44 265.47 30.66 269.89 30.88 270.82 27.45 270.53 26.36 262.04 25.63 256.65 22.57 252.57 19.16 249.43 19.47 247.94 18.01 247.89 10 254.75 10 253.02 18.56 257.41 22.51 261.95 25.12 269.42 25.52 270.75 26.03 271.28 27.47 269.93 31.44 264.85 31.08 263.57 34.19 254.52 36.98 263.83 42.08 267.91 47.55 268.4 49.5 272.32 57.28 270.71 59.46 266.21 62.43 276.23 70.92 278.02 74.99 275.98 76.95 271.33 78.98 274.94 86.23 279.62 93.26 283.41 97.52 284.89 104.05 290.97 109.24 293.47 113.92 297.15 116.91 296.31 121.21 296.75 125.47 298.77 128.08 300.56 132.63 304.13 137.06 307.7 139.43 310.52 144.13 315.35 144.66 319.18 140.87 322.86 145.66 322.62 149.21 326.03 151.45 327.45 153.79 327.07 157.1 328.36 160.27 329.98 160.95 337.85 160.25 337.91 161.97 334.19 164.9 333.17 168.03 323.84 172.79 321.84 174.79 316.66 185.2 310.58 185.8 Z"/>
<path d="M 557.02 440.27 557.33 438.45 567.73 430.34 573.94 427.77 575.4 428.08 579.3 425.59 583.29 424.64 589.96 424.66 594.53 422.4 602.55 419.76 607.27 421.67 609.65 425.24 610.6 432.62 615.74 430.27 613.64 434.15 609.93 434 607.36 427.81 608.12 426.06 605.88 422.96 600.54 422.51 596.7 424.38 588.81 426.99 585.77 426.57 581.16 427.21 576.93 430.36 573.09 430.8 568.02 432.49 564.07 436.74 557.02 440.27 Z"/>
<path d="M 188.29 486.62 193.04 490.3 187.83 493.42 182.44 491.32 183.31 487.39 180.42 484.96 180.87 483.56 185.99 482.54 186.79 480.79 182.09 477.93 184.66 475.87 184.21 473.41 180.45 472.28 181.42 469.93 184.39 470.19 186.45 468.62 187.89 462.35 192.15 462.26 190.44 465.23 190.66 468.4 193.37 470.24 193.35 473.47 196.65 477.29 198.33 477.91 202.08 481.85 196.27 487.64 192.13 487.81 188.29 486.62 Z"/>
<g/>
<path d="M 49.02 629.06 52.84 629.65 53.1 631.23 56.69 631.54 59.29 633.84 58.6 635.37 64.07 636.15 66.11 637.72 62.54 639.54 54.48 635.46 51.06 634.35 47.63 630.21 49.02 629.06 Z"/>
<path d="M 446.39 573.84 446.9 571.93 452.84 573.22 454.48 579.03 452.62 579.49 451.51 575.81 449.08 574.08 439.92 573.8 435.2 574.33 433.67 572.13 441.16 572.53 445.31 572.07 446.39 573.84 Z"/>
<g/>
<path d="M 719.57 441.78 715.6 445.39 717.26 447.54 715.42 449.8 713.23 445.88 713.29 442.93 716.55 441.29 719.57 441.78 Z"/>
<g/>
<g/>
<g/>
<g/>
<g/>
<g/>
<g/>
<path d="M 297.53 497.46 294.64 500.27 292.65 500.34 291.32 499.23 293.54 495.4 297.53 497.46 Z"/>
<g/>
<path d="M 47.01 632.51 48.89 633.49 48.56 636.64 46.92 638.34 41.8 637.5 43.44 634.62 47.01 632.51 Z"/>
<g/>
<g/>
<g/>
<path d="M 576.33 381.93 575.98 383.57 573.52 382.48 573.83 378.31 576.46 377.47 578.72 380.77 576.33 381.93 Z"/>
<g/>
<g/>
<path d="M 751.8 628.72 746.23 627.59 742.8 628.64 740.71 626.77 734.82 625.62 737.65 623.6 743.95 627.42 749.96 626.82 751.8 628.72 Z"/>
<g/>
<g/>
<g/>
<g/>
<path d="M 578.33 580.56 578.61 586.76 579.9 589.14 583.2 591.42 582.96 594.17 580.54 594.72 579.01 598.31 577.08 597.03 581.96 591.04 577.28 588.16 578.13 584.21 572.61 581.11 573.01 579.58 579.08 576.39 579.94 578.52 578.33 580.56 Z"/>
<g/>
<path d="M 75.2 581.42 75.22 584.06 78.93 588.74 81.61 590.66 88.79 598.6 86.35 600.77 81.36 596.65 83 595.56 80.19 592.13 75.42 587.94 72.01 587.43 69.37 582.91 74.14 579.74 75.2 581.42 Z"/>
<g/>
<g/>
<g/>
<path d="M 338.56 259.95 333.5 257.22 331.42 252.01 332.79 248.93 338.82 248.44 340.46 257.33 338.56 259.95 Z"/>
<g/>
<path d="M 366.06 439.18 360.03 439.58 361.25 434.97 369.17 436.34 366.06 439.18 Z"/>
<path d="M 357.93 190.97 357.88 190.3 364.29 185.89 367.46 188 364.84 192.34 361.52 194.23 357.93 190.97 Z"/>
<path d="M 277.93 213.93 280.17 212.47 285.16 214.44 283.16 217.37 278.91 216.46 277.93 213.93 Z"/>
<path d="M 190.07 459.31 186.08 459.07 188.8 456.52 190.07 459.31 Z"/>
<g/>
<g/>
<path d="M 177.03 491.89 180.07 490.52 181.4 493.62 176.32 493.47 177.03 491.89 Z"/>
<g/>
<g/>
<path d="M 267.29 469.7 265.94 467.98 270.24 466 271.59 467.73 267.29 469.7 Z"/>
<path d="M 296.06 461.06 296.22 461.77 279.95 464.94 278.33 463.74 295.66 460.42 296.06 461.06 Z"/>
<g/>
<path d="M 314.82 462.99 315.61 463.52 303.05 470.88 301.25 470.77 312.42 463.83 314.82 462.99 Z"/>
<path d="M 295.42 464.85 294.78 465.89 287.02 467.04 284.52 465.91 295.84 463.59 295.42 464.85 Z"/>
<path d="M 294.84 467.04 294.64 468.15 287.22 469.42 285 467.93 294.73 466.05 294.84 467.04 Z"/>
<path d="M 296.31 462.77 296.06 463.48 281.68 466.09 280.13 465.12 296.13 461.95 296.31 462.77 Z"/>
<path d="M 291.3 472.32 280.7 472.56 286.51 469.86 291.3 472.32 Z"/>
<path d="M 772.5 127.44 777.42 124.09 779.28 125.71 774.34 129.04 772.5 127.44 Z"/>
<path d="M 580.41 244.87 582.27 246.96 578.06 249.15 576.2 247.07 580.41 244.87 Z"/>
<path d="M 365.22 580.8 362.89 581.64 358.9 580.87 360.81 578.32 365.22 580.8 Z"/>
<path d="M 115.79 638.57 113.48 635.31 116.28 634.66 117.67 637.3 115.79 638.57 Z"/>
<g/>
<g/>
<g/>
<g/>
<g/>
<path d="M 577.17 472.9 571.03 469.02 568.84 468.44 562.99 469.11 558.69 470.86 555.65 469.42 560.73 467.18 568.2 468.35 571.41 468.2 577.17 472.9 Z"/>
<path d="M 703.72 434.9 700.04 433.86 704.78 431.8 703.72 434.9 Z"/>
<path d="M 563.25 441.66 572.19 444.64 578.24 448.94 573.43 448.18 570.52 446.1 565.51 445.26 560.44 443.35 563.25 441.66 Z"/>
<path d="M 165.82 498.41 169.38 498.06 172.62 499.01 158.97 503.97 160.54 499.94 165.82 498.41 Z"/>
<path d="M 483.74 572.27 484.47 574.57 481.08 574.62 480.75 572.38 483.74 572.27 Z"/>
<g/>
<g/>
<path d="M 287.06 579.6 282.43 581.36 280.77 586.79 278.4 585.17 280.61 582.73 281.48 579.87 286.44 578.32 287.06 579.6 Z"/>
<g/>
<path d="M 382.05 554.93 384.28 556.82 389.69 558.66 387.88 559.96 384.15 558.26 382.05 554.93 Z"/>
<g/>
<path d="M 171.05 586.61 175.84 585.43 178.98 590.29 179.38 592.73 175.57 593.13 171.05 586.61 Z"/>
<path d="M 132.59 589.31 131.13 596.25 127.27 595.45 129.53 592.28 129.55 589.89 132.59 589.31 Z"/>
<g/>
<path d="M 441.65 434.93 441.1 437.41 437.33 436.94 437.88 434.44 441.65 434.93 Z"/>
<path d="M 772.21 585.61 784.07 586.96 781.65 589 772.7 587.78 772.21 585.61 Z"/>
<g/>
<g/>
<path d="M 122.22 600.53 120.77 596.98 124.12 596.38 122.22 600.53 Z"/>
<path d="M 172.98 575.28 170.47 573.8 173.09 572.05 174.75 573.42 172.98 575.28 Z"/>
<path d="M 553.9 626.06 551.53 635.51 547.56 641.23 545.39 641 549.22 636.33 550.33 630.72 549.29 629.3 551.48 626.86 553.9 626.06 Z"/>
<path d="M 128.69 637.77 133.14 640.65 134.41 642.67 129.19 644 127.47 640.58 125.01 638.37 128.69 637.77 Z"/>
<path d="M 34.46 602.37 43.95 599.44 45.1 607.24 40.73 606.58 40.05 609.35 38.56 610.41 32.51 607.36 34.46 602.37 Z M 44.92 607.16 43.79 599.66 34.62 602.63 33.82 607.84 39.62 609.31 40.02 605.05 42.82 605.09 44.92 607.16 Z" fill-rule="evenodd"/>
<g/>
<path d="M 112.24 500.45 115.26 500.72 122.48 497.97 124.88 498.85 113.44 502.2 112.24 500.45 Z"/>
<path d="M 320.34 430.74 322.68 434.42 319.52 435.64 317.23 431.96 320.34 430.74 Z"/>
<path d="M 286.16 450.42 287.37 451.77 273.72 457.89 270.22 457.34 286.16 450.42 Z"/>
<path d="M 767.14 142.31 767.98 140.65 777.75 133.93 779.24 136.73 769.6 144.11 767.14 142.31 Z"/>
<path d="M 287.4 469.73 294.76 468.29 294.33 472.05 292.45 472.17 287.4 469.73 Z"/>
<g/>
<g/>
<path d="M 683.3 233.28 681.71 234.9 675.88 238 672.55 236.61 676.1 234.19 680.47 234.17 683.3 233.28 Z"/>
<g/>
<g/>
<g/>
<path d="M 196.54 642.09 194.85 639.21 198.31 638.41 196.54 642.09 Z"/>
<g/>
<g/>
</g>
</svg>