<?xml version="1.0"?>
<svg xmlns="http://www.w3.org/2000/svg" version="1.2" baseProfile="tiny" width="800" height="814" viewBox="0 0 800 814" stroke-linecap="round" stroke-linejoin="round">
<defs>
    <style>
        :root {
            --water-color: #9FC9EA;
            --bg-color: #F2E7D3;
        }
    
        svg {
            background: var(--bg-color, #ffffff);
        }
        path, polygon, rect, circle {
            fill: var(--water-color, #3b82f6);
            stroke: none;
        }
    </style>
</defs>
<g id="water">
<path d="M 267.44 162.9 265.22 158.76 266 156.98 263.6 155.48 262.09 147.12 262.96 143.13 261.6 139.45 255.19 139.64 247.92 137.51 245.22 140.54 240.05 143.27 239.92 141.13 233.93 139.98 226.95 137.03 223.43 136.93 221.06 138.79 219.53 137.86 222.7 135.53 225.99 135.22 232.9 138.05 237.18 139.3 242.83 139.02 245.78 136.66 248.4 136.21 254.17 138.04 256.31 136.33 257.11 133.24 260.44 136.15 272.58 139.91 275.46 143.27 288.46 147.45 292.18 143.67 298.05 141.87 299.85 139.8 304.78 137.65 301.29 134.63 296.68 132.32 292.74 132.27 291.92 131.06 285.12 109.99 286.86 108.95 286.93 104.06 286.06 102.45 280.95 100.81 277.62 98.84 278.17 94.18 275.33 94.04 267.36 97.71 264.16 98.36 260.4 100.54 257.19 100.11 257.18 98.06 261.79 98.2 266.94 96.78 270.07 95.02 270.84 91.16 274.71 89.64 275.35 91.86 278.7 93.46 283.5 94.63 285.45 93.19 291.22 93.96 293.67 90.82 302.57 88.6 303.98 90.04 307.42 90.28 307.79 88.23 311.34 85.92 309.65 84.21 311.38 81.85 310.96 79.47 314.61 74.7 322.74 71.08 326.27 71.11 329.49 75.82 334.61 77.39 341.8 78.28 344.7 75.74 351.76 73.34 355.65 69.91 354.18 64.43 352.29 63.47 350.03 58.97 346.91 58.3 344.74 56.32 341.61 51.11 336.35 49.05 332.34 43.8 331.84 40.98 327.95 41.92 326.3 39.65 320.6 41.2 317.67 38.48 315.33 38.8 312.32 36.17 306.73 36.16 303.42 34.88 298.76 32.09 291.78 25.13 289.5 23.65 279.75 21.43 270 21.25 270.15 19.84 273.41 18.27 275.05 15.73 275.09 10.12 620.02 10.12 618.08 11.5 612.04 12.73 607.78 10.57 606.5 11.32 608.02 14.17 604.47 19.59 596.19 24 595.02 27.34 591.91 30.25 582.52 29.85 576.06 30.73 571.45 29.21 565.99 28.55 561.83 30.59 555.62 35.98 549.12 40.37 542.28 43.7 538.39 45.03 533.02 44.26 528.81 42.72 522.78 41.36 518.16 38.18 512.03 37.49 508.59 34.25 505.08 32.99 496.74 33.8 493.56 33.02 489.87 30.81 487.86 26.5 484.11 27.53 482.36 33.48 482.38 36.08 484.72 42.1 485.28 47.49 487.21 51.94 489.98 51.58 493.36 53.9 495.46 57.42 496.17 61.42 495.62 64.35 492.35 67.14 490.19 70.34 489.36 73.5 487.44 76.59 482.76 78.67 483.63 80.69 479.27 81.61 476.87 85.81 472.07 87.44 465.74 86.26 460.99 84.54 456.36 86.45 455.13 89.73 455.66 92.25 449.81 92.37 448.37 95.69 438.3 95.51 437.61 97.95 435.27 98.03 437.4 101.4 439.07 106.16 442.53 112.95 442.22 114.58 437.37 112.5 433.19 113.33 439.53 118.33 436.97 119.95 431.43 121.35 430.26 122.36 425.36 119.21 421.1 118.01 415.77 114.45 412.75 113.21 413.72 110.19 410.02 105.86 403.65 105.17 400.26 106.96 392.94 102.67 386.15 101.56 384.28 103.1 384.85 105.74 389.32 109.6 392.41 116.81 398.33 118.89 401.67 123.9 395.18 130.67 396.78 132.74 400.37 131.81 407.37 133.52 411.69 136.49 413.87 140.38 414.14 143.43 412.86 145.71 409.61 145.72 409.49 148.51 413.63 151.62 416.32 155.54 418.49 154.71 426.18 156.16 428.5 156.07 433.3 159.08 436.68 159.77 440.51 162.1 445.71 166.56 445.94 170.67 448.74 170.59 452.66 174.82 450.16 185.29 448.42 189.44 450.66 193.12 453.72 193.52 459.15 191.77 462.25 192.37 462.14 189.24 468.87 191.68 474.21 196 479.02 197.44 481.66 199.46 482.49 196.95 485.93 196.45 486.73 198.99 489.76 197.54 488.18 190.62 487.41 190.36 485.98 179.04 474.47 171.17 471.33 171.18 468.06 169.13 469.6 167.08 474.45 168.93 486.4 176.9 490.5 176.87 492.47 180.02 493.04 187.34 494.05 191.5 503.56 191.73 503.95 184.17 510 182.69 510.94 183.93 514.95 184.04 515.39 186.27 517.76 186.65 517.48 191.55 508.09 191.95 507.93 194.34 517.92 195.14 524.43 194.13 527.12 192.32 535.12 194.22 536.16 190.65 540.79 191.65 539.22 194.45 547.71 194.46 548.73 193.53 554.22 196.43 555.92 198.24 552.97 201.96 551 202.84 550.64 209.96 551.48 211.58 555.58 214.13 558.4 211 561.3 210.8 566.18 208.52 570.39 210.51 574.54 215.41 576.3 219.04 575.92 225.43 568.91 219.97 565.21 220.05 559.55 222.72 554.5 222.72 552.46 218.99 550 219.27 550.01 221.44 547.21 221.49 547.03 224.58 551.07 226.07 555.79 223.83 563.29 223.81 565.45 226.13 566.28 231.19 570.2 235.13 575.47 242.26 574.99 242.9 578.43 252.73 579.79 253.79 570.03 255.61 561.38 245.32 551.69 247.38 555.18 252.07 560.98 257.84 566.9 256.27 567.85 257.92 570.47 258.56 572.57 262.21 571.34 263.07 565.72 264.19 562.93 266.18 564.81 271.8 567 266.63 572.94 265.39 573.15 263.28 579.47 263.1 581.31 266.34 585.24 266.4 586.65 268.21 590.54 282.06 590.57 286.56 589.5 290.34 593.34 294.52 594.57 300.35 593.63 302.48 590.92 303.34 583.91 303.63 580.51 303.25 579.95 305.55 578.1 306.77 570.92 307.01 568.47 305.36 568.04 303.26 569.9 299.53 567.94 298.81 566.49 303.2 566.81 307.38 583.17 307.73 585.72 308.48 592.79 307.41 594.92 309.41 597.85 316.34 596.8 318.84 593.92 319.21 594.09 321.45 589.82 323.77 582.32 325.17 573.02 323.29 565.13 322.59 562.55 327.2 557.35 328.22 556.77 329.82 546.2 331.03 542.65 332.55 542.74 334.32 550.08 333.38 556.93 333.24 561 336.81 565.77 332.32 571.82 331.31 577.89 333.06 577.26 336.71 569.87 335.99 554.83 350.29 554.08 350.66 538.23 349.15 522.95 357.52 525.02 360.95 538.21 358.76 541.96 355.96 545.74 355.14 551.26 356.1 550.54 358.57 552.05 363.34 550.76 366.8 544.33 365.93 543.06 366.89 550.65 368.73 582.27 376.87 597.47 377.39 607.17 374.72 621.34 375.36 623.5 374.66 633.18 378.21 633.03 379.19 638.38 382.25 644.26 384.06 645.06 382.92 649.76 383.17 650.15 386.11 653.03 386.06 654.12 387.58 657.9 389.39 667.39 386.35 675.54 389.04 679.19 391.56 682.04 394.74 681.26 399.44 682.57 401.94 687.21 407.94 692.98 411.24 705.55 416.75 710.78 420.71 714 427.53 714.07 430.84 716.13 433.23 722.95 429.93 724.35 436.25 728.3 439.52 731.21 439.34 733.34 442.19 733.74 444.45 731.52 448.04 739.6 457.6 738.9 458.77 738.23 459.1 734.1 459.39 733.07 456.92 728.41 452.95 723.24 449.94 727.84 458.27 733.49 461.86 734.27 464.29 733.38 466.71 737.94 476.65 735.04 476.86 728.16 462.64 721.27 456.46 717.57 453.91 708.93 454.04 708.17 450.04 695.08 449.83 668.13 449.96 653.64 457.55 653.38 462.34 658.25 465.63 660.03 468.37 675.25 482.35 673.04 484.51 669.17 486.43 669.67 488.4 701.43 511.12 724.07 527.15 728.6 528.1 733.41 523.68 732.08 512.44 735.76 508.88 755.25 504.3 755.63 505.12 747.82 507.49 748.63 509.62 747.32 513.62 749.44 518.7 752.56 520.92 758.08 522.04 766.42 519.99 767.5 525.61 765.49 526.41 765.13 528.54 767.99 529.55 768.78 534.55 774.12 540.01 779.99 545.12 785.83 554.93 790 556.01 790 803.88 750.72 803.88 758.02 798.48 759.99 794.4 759.39 789.43 750.94 783.73 742.02 782.76 740.21 783.33 737.65 780.88 735.49 780.4 732.96 781.85 724.51 783 724.94 779.99 721.43 778.61 718.9 779.06 714.91 777.89 712.69 778.63 707.92 784.58 705.31 789.93 703.66 791.69 701.02 798.1 697.57 797.31 695.72 798.47 686.21 801.17 683.38 803.88 677.81 803.88 680.12 800.32 683.72 797.42 688.19 795.7 692.24 795.28 699.61 791.04 701.1 789.27 705.63 781.04 709.89 776.37 710.42 771.33 704.88 767.93 698.61 769.12 693.3 769.21 683.96 767.9 680.19 768.81 677.34 766.31 671.48 769.76 669.7 772.03 669.27 774.78 671.68 779.2 671.51 782.07 670.02 783.56 666.13 783.62 663.21 782.39 658.51 782.15 655.38 784.94 655.67 792.81 654.13 794.88 650.55 795.15 648.03 793.82 644.74 795.39 643.41 794.25 647.57 792.14 652.68 793.47 654.01 792.33 654.42 783.49 658.68 780.72 663.23 780.82 668.08 782.74 669.73 780.47 666.99 776.59 668.18 771.37 671.06 767.69 676.58 762.62 679.08 757.8 679.13 755.6 675.59 751.62 674.87 747.9 672.98 744.43 671.49 744.06 668.08 738.85 652.93 730.27 651.01 728.78 647.57 729.49 643.79 731.52 634.87 734.64 631.64 733.28 624.45 732.34 624.35 729.31 615.71 727.18 611.06 728.19 608.25 727.15 604.71 728.11 603.84 731.89 600.32 733.78 596.06 732.24 596.25 726.32 590.52 725.66 585.54 725.74 582.45 727.18 566.76 713.89 565.45 712.12 568.76 709.44 568.89 702.97 566.58 703.71 566.63 707.79 562.18 707.81 561.89 701.15 557.25 700.03 551.76 702.49 543.61 705.45 539.03 706.59 536.13 706.27 536 699.72 530.3 699.77 530.27 706.09 529.57 707.66 518.98 707.46 510.86 706.37 509.31 704.67 529.71 705.87 529.53 699.77 495.09 699.82 490.95 695.67 489.2 690.24 486.29 689.39 483.21 686.1 478.94 682.77 473.59 680.48 472.21 680.92 469.06 678.64 467.54 676.14 470.24 671.51 475.93 664.11 477.78 663.78 483.95 667.07 497.01 672.36 503.35 663.25 488.78 656.97 485.77 654.12 483.13 654.28 482.09 651.94 487.26 644.19 486.57 641.98 483.69 640.69 481.16 643.28 476.79 641.5 474.93 642.72 467.22 639.89 466.34 637.77 463.76 638.21 455.08 640.93 450.64 639.62 448.79 637.42 448.77 633.45 452.37 630.86 459.11 630.49 457.1 623.32 454.26 622.79 446.08 624.47 447.28 622.31 445.44 615.9 441.73 619.89 444.3 624.56 439.12 624.48 438.35 621.33 441.97 617.41 441.66 614 444.08 610.75 449.59 610.09 462.44 610.03 464.06 605.01 466.86 603.27 466.45 599.44 468.95 598.48 467.86 595.68 463.26 592.33 463.15 589.77 465.5 589.19 470.88 589.27 471.33 586.71 459.96 586.5 457.75 583.86 461.26 583.82 461.48 578.23 456.49 577.59 453.8 583.09 450.64 583.78 449.6 581.73 443.68 581.75 439.63 583.86 438.64 582.89 442.8 580.44 442.48 577.84 448.88 577.65 450.37 576.88 451.19 572.25 461.36 571.93 461.5 563.56 452.44 563.22 450.56 561.54 448.05 550.21 447.95 548.19 445.23 538.36 442.19 522.3 443.38 519.3 441.04 514.29 444.53 511.56 447.51 511.54 450.28 512.9 453.41 510.93 455.98 512.08 463.92 513.43 465.94 512.92 462.94 508.51 469.51 501.2 462.3 496.86 458.01 494.76 458.84 492.13 452.09 488.31 453.19 487.76 459.69 491.01 461.42 491.19 463.63 488.83 466.96 488.19 469.28 490.07 470.47 494.21 472.56 496.62 476.95 496.39 479.39 498.07 482.73 498.57 486.4 501.1 488.26 500.83 491.03 497.83 489.25 496.36 490.74 494.78 494.98 497.26 496.21 495.8 488.91 491.52 492.4 486.56 498.34 485.17 499.9 481.05 495.24 478.43 492.19 478.88 486.54 475.67 481.05 475.87 475.65 472.31 472.69 474.62 469.92 474.22 471.14 471.14 469.57 469.46 471.09 466.71 474.18 465.63 472.76 463.46 481.8 463.14 482.86 462.66 474.66 454.04 472.72 454.95 470.72 451.91 468.96 451.45 458.83 451.38 446.19 452.07 442.41 451 443.42 449.22 446.47 450.5 469.87 448.95 469.33 443.23 463.09 443.62 463.01 442.24 458.36 441.36 458.35 439.7 461.04 437.44 460.89 431.51 457.85 427.61 452.44 425.77 452.57 422.39 455.03 416.82 452.85 412.48 452.29 409.58 455.64 409.48 460.62 411.72 460.06 407.42 455.24 406.3 455.02 404.66 451 404.01 450.64 395.92 451.28 394.37 450.87 390.09 456.09 389.64 455.78 386.99 451.3 387.24 451.3 383.93 448.95 381.24 444.32 377.33 439.53 372.26 442.4 370.09 440.85 368.52 437.76 370.19 429.48 361.1 430.33 355.14 426.55 357.16 414.35 351.9 412.76 352.54 403.15 352.16 391.55 356.18 388.58 353.73 385.99 353.49 379.7 355.23 379.62 357.25 373.61 354.71 363.27 356.02 362.98 357.27 355.54 358.21 355.41 354.91 352.46 355.96 344.65 357.38 341.69 357.14 329.87 358.69 324.78 357.44 321.13 355.91 317.94 353.11 309.26 351.39 306.75 350.5 305 358.53 301.98 366.09 299.86 369.49 297.78 374.88 294.63 380.45 290.79 383.67 287.25 383.8 284.3 385.99 279.29 386.35 276.34 387.21 270.56 385.42 263.01 386.41 259.15 388.11 255.42 391.16 250.52 393.53 247.43 396.98 247.89 400.96 249.89 405.7 251.32 415.21 251.7 424.96 255 447.24 256.09 456.68 258.49 472.57 259.21 481.04 259.34 487.15 260.88 495.48 264.16 505.34 266.54 515.14 268.51 520.43 272.92 540.09 275.49 548.24 276.86 555.62 278.28 570.03 277.03 577.33 277.13 581.61 279.77 585.46 280.31 588.15 280.63 597.62 281.31 600.02 280.51 604.07 280.94 607.53 280.39 611.27 280.7 618.85 279.08 634.11 278.26 644.82 277.24 649.78 275.85 653.1 272.56 654.57 275.19 656.96 274.25 660.94 274.44 666.19 275.83 667.81 274.57 671.85 272.02 674.54 268.03 675.06 267.65 677.48 270.74 680.06 271.19 682.08 268.93 686.58 263.53 691.83 258.95 693.27 252.01 690.28 247.44 689.12 247.46 692.81 244.88 694.49 239.05 695.24 238.08 697.59 242.57 700.67 243.33 704.21 242.74 715.78 242.05 717.33 242.13 723.36 241.57 725.12 238.57 726.25 238.04 728.69 242.98 730.54 241.49 732.93 244.1 733.87 241.82 738.79 246.87 739.86 247.86 741.88 248.02 751.17 245.55 753.14 249.19 757.51 247.6 769.28 245.97 774.53 244.24 775.39 242.91 778.32 242.88 782.58 241.33 783.53 241.63 786.31 239.34 787.61 239.37 793.61 241.76 796.14 243.63 800.1 243.49 803.88 10 803.88 10 198.2 18.8 200.36 26.23 202.98 32.47 205.74 41.21 210.35 52.49 218.48 57.88 223.68 57.63 224.87 61.85 228.92 64.91 230.28 64.27 235.79 68.35 237.95 72.04 236.96 76.23 239.52 77.34 241.89 82.65 243.54 89.15 240.99 99.5 244.29 103.76 246.36 107.26 245.78 108.85 247.86 112.56 249.93 115.92 252.83 119.46 256.97 128.94 266.88 128.8 268.31 135.11 270.13 135.28 271.93 139.48 273.34 142.95 271.4 147.26 271.41 150.81 273.05 153.15 277.35 158.13 279.28 159.35 280.56 164.44 280.25 171.68 283.47 171.21 285.06 173.97 289.86 176.59 290 175.97 294.31 181.78 296.02 181.46 298.59 187.7 300.7 190.92 305.21 192.8 309.17 191.98 312.31 196.69 312 204.24 316.21 207.09 315.64 213.31 318.98 215.85 323.13 216.22 326.3 213.64 327.87 216.24 329.31 216.81 331.47 219.37 332.39 220.09 335.08 222.4 337.13 225.44 333.27 231.66 330.59 233.35 326.75 236.35 326.21 245.12 326.09 253.22 327.2 259.96 328.99 263.71 333.35 267.65 332.75 269.43 334.31 272.15 331.35 277.91 331.17 283.68 326.8 284.64 324.41 289.62 323.79 293.51 324.72 296.33 323.63 298.01 324.6 303.87 325.45 305.37 325.04 304.41 318.62 306.49 315.96 305.8 313.65 308.13 312.68 314.32 312.28 315.73 308.72 312.82 304.78 310.22 299.92 307.74 297.72 307.15 292.69 303.34 290.87 303.29 287.19 304.97 284.3 305.31 277.42 302.7 274.68 297.69 271.93 287.58 267.19 287.13 264.42 281.68 265.23 274.13 258.41 274.01 254.73 270.24 252.31 265.92 252.09 263.5 250.87 264.3 248.61 260.2 248.71 251.61 242.64 249.83 239.74 250.48 238.5 247.04 235.76 241.09 234.14 239.92 233 235.53 232.17 235.79 229.62 238.27 228.41 236.65 225.94 234.73 225.25 231.46 217.31 230.9 213.44 233.27 213.4 233.62 217.42 238.4 220.66 242.56 219.55 241.04 225.61 243.6 228.76 246.34 229.4 251.51 224.74 255.27 226.21 256.42 228.36 252.13 230.57 251.99 231.85 256.02 234.09 259.18 232.49 263.1 233.48 265.25 235.2 264.24 237.37 268.88 238.78 271.4 241.49 275.45 243.01 277.3 241.46 272.76 228.94 271.14 229.18 273.14 234.22 268.58 231 269.55 228.14 268.32 225.25 265.81 223.54 264.77 220.48 265.63 217.98 263.89 215.84 270.31 210.27 272.63 213.85 272.58 216.72 278.44 216.05 281.18 216.8 283.45 214.91 289.12 214.17 293.24 218.45 297.7 222.16 304.86 224.53 310.56 228.2 313.25 230.51 316.36 235.16 316.9 237.45 312.11 242.5 312.67 246.39 317.4 253.26 320.86 256.92 322.74 257.32 334.8 265.95 337.17 264.74 337.8 262.42 334.51 260.29 333.54 258.08 331.26 257.07 330.88 253.66 329.55 250.94 333.07 248.45 334.98 248.09 336.64 250.87 339.8 250.22 345.38 250.18 349.36 251.48 351.57 250.62 353.05 247.11 358.16 245.99 361.08 244.47 359.92 240.99 361.65 238.69 365.27 237.01 369 238.38 370.27 235.18 366.89 233.31 359.8 228.18 358.51 224.97 355.54 220.16 355.55 219.03 351.66 215.84 348.44 216.85 345.46 215.74 342.68 216.62 338.82 216.21 333.18 213.15 331.39 210.84 324.6 209.67 321.45 206.76 320.1 203.64 317.7 204.33 315.2 201.56 308.77 199.11 307.92 195.62 308.93 193.63 311.97 190.94 314.5 191.92 312.45 186.83 311.58 182.29 306.43 183.54 302.87 179.25 293.48 173.52 287.39 173.52 279.4 171.78 276.26 172.64 274.69 168.14 270.07 165.39 267.44 162.9 Z M 370.07 258.49 367.61 259.34 364.93 266.31 356.85 268.8 360.1 270.36 362.92 272.82 363.19 276.76 365.48 278.03 368.2 277.98 372.67 280.4 376.16 280.93 381.94 277.77 387.99 278.92 394.75 279.64 399.95 282.51 399.44 276.15 397.26 273 400.69 266.63 397.04 265.59 395.69 263.47 395.85 261.14 393.47 255.39 391.72 254.06 387.3 253.98 382.58 251.24 379.57 252.39 378.99 254.15 375.5 255.58 375.81 259.41 373.31 260.3 370.07 258.49 Z M 710.62 437.52 711.36 434.72 711.68 427.7 710.7 424.44 708.4 420.96 705.84 419.01 700.26 416.24 687.21 410.59 683.26 407.59 677.08 405.4 675.73 407.14 666.37 400.87 663.31 401.04 661.66 403.27 658.2 401.76 661.36 397.18 656.79 396.05 655.98 402.24 653.64 401.86 653.96 396.91 652.04 395.12 646.88 392.53 645.5 393.82 642.11 393.5 640.77 390.16 636.35 388.22 636.81 387.07 631.48 385.83 631.93 383.7 630.13 381.8 625.79 379.94 622.32 379.41 613.32 379.51 611.24 382.33 606.31 382.39 605.36 381.05 593 382.47 588.22 382.1 545.7 372.38 542.28 371.37 540.07 373.84 541.38 376.42 541.37 384.22 539.33 395.25 540.52 396.58 550.38 397.12 554.11 399.12 562.24 399.55 566.25 404.44 576.96 404.95 577.58 397.97 593.95 398.8 593.55 404.36 589.35 408.02 589.9 410.83 604.11 415.07 605.67 415.98 613.9 414.88 616.14 416.03 618.28 413.4 620.69 413.07 620.64 417.6 626.4 417.31 629.91 418.46 629.89 420.45 635.21 426.81 642.96 430.86 648.85 432.62 653.06 434.7 658.39 436.17 667.94 440.72 677.85 442.67 684.09 444.93 692.35 447.11 695.19 445.44 697.97 446.9 708.45 439.57 710.62 437.52 Z M 270.93 228.57 272.72 228.47 269.47 219.95 266.1 220.43 266.59 222.16 269.3 224.26 270.93 228.57 Z M 689.86 767.92 694.47 768.41 700.36 768.16 704.97 766.94 704.68 765.21 698.87 763.19 693.91 764.18 689.34 764.1 682.33 763 682.49 765.74 685.85 767.39 689.86 767.92 Z M 616.22 417.26 612.47 415.55 610.54 417.2 608.87 421.22 612.54 423.49 618.48 424.85 618.83 423.17 613.37 422.19 611.43 419.95 613.26 418.13 616.22 417.26 Z M 675.16 400.13 677.72 400.05 677.37 396.05 673.65 392.45 667.5 390.01 664.97 390.88 667.49 395.58 675.16 400.13 Z M 504.11 209.66 502.52 207.72 498.95 205.83 495.25 208.46 498.5 210.36 499.13 214.35 501.98 215.25 509.31 215.82 507.47 212.65 504.11 209.66 Z M 480.95 346.54 478.36 344.06 477.37 341.16 488.24 336.52 490.45 330.59 481.35 317.05 473.72 315.05 466.83 318.14 464.59 324.03 476.65 342.06 477.16 343.47 476.07 347.71 474.58 349.5 476.39 351.57 483.56 354.87 486.64 354.4 490.99 355.43 493.48 353.83 492.95 349.65 493.44 346.67 496.85 344.07 496.12 342.76 491.86 344.3 488.43 344.41 484.46 347.07 480.95 346.54 Z M 397.87 326.41 396.8 323.52 392.35 321.4 391.72 324.08 396.14 326.61 397.87 326.41 Z M 10 186.43 12.59 188.03 23.06 192.54 24.69 194.86 28.44 195.74 30.87 198.88 34.14 200.93 32.97 202.63 27.75 199.81 28.84 198.16 24.32 195.86 11.95 192.35 10 192.59 10 186.43 Z" fill-rule="evenodd"/>
<path d="M 652.98 363.72 654.07 359.94 650.47 356.02 651.78 350.11 653.33 350.83 652.84 354.55 656.87 359.21 660.88 358.28 662.57 355.43 666.61 355.48 668.77 353.91 671.81 353.43 669.47 358.97 666.42 360.05 663.52 363.79 662.27 366.6 659.31 366.8 656.55 368.92 653 367.72 652.98 363.72 Z"/>
<path d="M 665.45 794.83 669.41 793.58 675.19 789.9 677.61 791.64 674.53 792.64 674.28 790.51 660.17 802.66 660.14 803.88 653.85 803.88 653.8 801.57 659.35 801.17 661.85 800 665.52 796.32 665.45 794.83 Z"/>
<path d="M 641.02 761.4 638.27 760.44 634.79 763.3 639.71 770.61 640.77 779.89 647.25 780.21 646.95 781.77 641.29 781.61 638.52 779.49 638.06 770.33 636.14 767.21 631.35 761.4 630.85 759.7 633.82 756.95 638.68 756.37 646.37 760.31 652.18 759.73 656.49 757.41 659.47 756.95 660.81 753.99 660.92 751.28 659.24 747.23 654.63 743.55 650.31 742.3 647.68 743.55 644.32 743.74 644.93 739.78 653.67 741.98 656.86 743.55 659.99 746.27 662 750.05 662.17 753.65 661.15 756.8 655.69 760.04 648.13 762.09 643.39 760.21 641.02 761.4 Z"/>
<path d="M 623.68 775.07 620.46 772.32 617.42 772.32 614.04 768.54 614.47 765.63 617.66 764.23 616.12 762.42 611.96 763.99 609.48 763.3 607.54 760.37 603.79 758.37 602.35 756.16 605.64 750.78 602.5 748.35 602.08 744.94 605.99 743.13 609.89 743.24 612.15 742.17 612.38 739.49 606.69 739.67 602.96 738.98 605.84 736.63 608.47 737.93 611.3 737.3 614.7 739.67 614.97 741.72 610.95 744.94 604.58 745.07 604.4 747.98 608.02 750.13 608.33 752.77 604 755.33 604.56 757.11 609.03 759.73 612.34 762.52 615.96 760.69 619.09 761.22 619.73 765.05 616.57 765.93 617.18 769.79 619.66 769.26 623.17 769.95 624.75 774.11 627.94 776.91 628.84 783.11 625.15 788.97 623.15 786.89 625.52 785.58 626.37 778.92 623.68 775.07 Z"/>
<path d="M 292.11 504.97 288.54 506.77 286.65 505.58 281.48 500.48 278.3 498.54 275.91 498.38 268.96 490.34 267.01 486.55 268.95 485.15 272.13 486.88 275.93 490.88 283.47 493.21 287.2 498.6 293.17 501.07 292.11 504.97 Z"/>
<path d="M 281.35 483.52 279.32 486.08 276.57 487.41 271.94 483.81 268.03 483.89 269.68 480.12 273.09 477.96 274.58 480.83 282.22 482.48 285.69 481.28 289.28 482.59 291.35 481.5 293.4 482.97 289.5 484.38 286.91 483.54 282.99 484.21 281.35 483.52 Z"/>
<path d="M 290.83 511.17 289.5 508 290.99 506.69 293.46 508.43 290.83 511.17 Z"/>
<path d="M 433.38 547.5 434.14 546.14 445.38 546.16 448.71 561.54 444.72 560.66 433.38 547.5 Z"/>
<path d="M 53.25 151.5 51.25 150.11 49.73 146.35 49.16 141.63 51.05 140.74 56.94 140.18 59.71 138.13 59.37 134.64 61.04 132.45 63.02 132.71 65.02 130.53 62.19 126.57 61.02 123.44 65.06 124.41 67.65 121.6 69.84 117.62 66.85 112.21 73.73 116.62 77.53 115.67 80.63 116.14 85.52 115.78 88.27 113.21 90.8 113.8 91.84 115.94 90.63 117.3 86.51 116.42 79.19 117.08 77.11 118.38 73.13 119.21 70.08 121.43 70.26 123.92 67.28 125.9 71.4 131.71 67.92 134.4 63.82 135.78 64.29 138.09 60.25 140.07 56.87 144.27 52.85 142.49 51.22 145.53 53.25 151.5 Z"/>
<path d="M 368.91 755.54 369.42 754.55 375.6 756.56 376.42 757.91 385.46 760.92 393.26 765.75 396.35 764.68 395.66 768.51 393.55 771.23 391.5 768.22 387.51 766.68 385.83 764.6 380.66 760.52 374.88 759.01 372.7 756.56 368.91 755.54 Z"/>
<path d="M 106.99 126.7 110.21 127.44 105.79 130.05 104 128.37 99.5 126.19 97.7 122.72 91.2 118.58 94.05 115.43 99.43 116.6 105.39 115.49 109.42 116.63 107.21 120.52 103.1 124.09 106.99 126.7 Z"/>
<g/>
<path d="M 414.38 717.93 410.62 719.22 408.05 718.01 404.66 713.06 401.49 712.96 401.76 710.58 397.97 706.8 392.55 706.37 390.15 702.38 389.7 697.85 382.2 693.91 384.77 691.44 378.99 689.36 376.43 687.04 376.82 685.04 370.06 681.44 365.03 676.91 366.57 675.24 371.24 676.75 372.76 675.56 370.2 673.46 369.13 670.31 366.58 667.97 366.79 665.17 374.05 672.31 380.75 678.46 382.4 679.4 387.62 685.01 387.25 686.19 394.06 692.71 395.89 695.75 400.1 699.35 402.98 700.31 403.35 703.71 405.4 707.07 409.03 710.77 411.21 711.92 411.82 714 414.2 714.92 414.38 717.93 Z"/>
<path d="M 686.85 171.73 682.46 172.02 678.92 170.54 676.17 167.61 674.02 166.92 673.19 164.14 669.52 160.15 666.4 160.28 666.11 151.9 663.58 152.14 661.48 147.25 658.65 146.17 657.59 143.37 652.73 140.1 655.56 136.05 661.31 136.58 666.91 142.31 670.24 143.53 672.18 142.54 672.5 138.49 677.38 137.89 686.57 134.4 687.89 135.51 679.11 140.06 677.61 140.28 674.47 145.21 675.78 149.26 678.57 151.65 680.23 155.28 682.67 154.26 684.25 161.94 687.95 160.82 689.82 161.91 687.42 164.65 688.58 166.24 691.17 165.48 693.88 166.73 695.27 168.94 700.12 173.5 699.72 174.87 705.15 175.46 707.28 181.49 706.65 183.62 709.61 186.15 715.75 195.18 711.38 193.95 709.29 191.81 705.85 191.21 705.71 188.89 701.5 185.59 701.35 183.48 699.53 180.33 696.31 179.38 692.5 174.82 688.67 174.79 689.2 172.58 686.85 171.73 Z"/>
<path d="M 766.3 165.07 768.91 164.49 772 165.91 777.09 164.47 778.11 167.61 783.44 167.79 785.88 168.81 790 168.76 788.78 172.35 773.31 172.43 765.57 170.69 759.17 165.93 757.91 162.78 754.57 162.38 751.61 163.47 752 165.53 749.1 167.84 749.72 169.68 747.88 172.67 751.74 171.98 751.96 174.14 749.27 176.67 746.62 176.63 744.1 180.71 747.1 181.54 743.85 184.17 744.14 186.06 741.89 188.4 737.03 184.84 732.01 182.79 730.35 178.34 730.88 174.05 735.75 169.71 738.87 164.62 735.54 161.85 736.18 158.81 741.91 160.95 745.22 158.97 743.59 157.73 744.87 155.2 749.31 151.94 749.77 155.44 754.19 155.03 762.21 156.79 766.95 152.8 767.05 155.81 764.68 157.59 767.22 163.16 766.3 165.07 Z"/>
<path d="M 490.61 799.89 492.26 802.02 492.03 803.88 481.68 803.88 479.53 801.24 474.25 803.33 472.96 801.17 461.58 796.14 462.44 794.77 467.74 795.55 469.23 796.7 473.6 797.38 474.73 794.22 472.07 794.05 467.28 787.26 463.87 786.38 464.56 783.46 462.46 778.64 458.59 775.7 453.96 773.63 454.98 772.4 450.6 767.92 448.07 763.35 444.45 759.38 446.72 757.52 451.57 761.81 451.09 762.98 458.33 771.73 461.74 774.13 467.92 780.24 470.9 784.04 471.67 787.05 475.21 785.48 476.09 786.9 474.07 789.71 476.36 792.51 479.08 792.11 483.37 793.31 482.88 795.17 484.65 796.83 490.61 799.89 Z"/>
<path d="M 306.85 414.78 312.74 415.82 314.05 418.62 310.08 418.82 307.69 418.27 306.85 414.78 Z M 309.47 418.35 312.19 418.53 312.59 416.08 308.06 415.52 309.47 418.35 Z" fill-rule="evenodd"/>
<g/>
<path d="M 588.23 262.91 594.03 275.85 595.76 280.62 596.32 284.18 593.11 284.62 591.63 280.33 587.03 263.78 588.23 262.91 Z"/>
<g/>
<g/>
<g/>
<path d="M 676.9 788.01 677.96 782.95 683.02 780.66 686.22 781.88 690.67 781.3 689.36 784.13 687.21 784.98 684.38 782.95 676.9 788.01 Z"/>
<g/>
<g/>
<g/>
<path d="M 278.17 108.79 278.57 106.69 280.67 104.46 283.66 105.3 283.36 108.11 278.17 108.79 Z"/>
<path d="M 317.43 71.33 316.39 67.6 317.78 65.49 320.78 67.01 317.43 71.33 Z"/>
<path d="M 317.59 234.59 322.87 236.72 323.71 238.9 326.99 240.43 330.88 244.28 327.96 244.95 330.09 248.09 324.41 245.88 318.92 242.11 316.98 241.55 321.05 238.22 317.96 236.97 317.59 234.59 Z"/>
<g/>
<g/>
<g/>
<path d="M 216.03 320.22 213.48 317.8 228.26 315.14 229.53 316.6 220.38 319.63 216.03 320.22 Z"/>
<path d="M 218.69 43.91 222.27 42.87 222.45 45.59 218.69 43.91 Z"/>
<path d="M 270 21.25 257.11 21.27 254.23 20.02 251.77 15.78 250.1 14.62 246.16 15.09 242.4 20.15 241.98 24.52 239.95 25.35 236.01 24.12 231.67 24.49 228.24 26.52 227.43 29.74 231.16 29.45 233.98 31.45 232.09 33.45 227.72 31.18 226.85 28.18 228.52 25.65 231.94 23.92 236.73 23.86 241.23 24.65 241.92 19.97 244.16 16.5 247.46 13.84 251.89 14.97 254.02 18.72 256.86 20.45 261.36 20.75 270.15 19.84 270 21.25 Z"/>
<g/>
<g/>
<g/>
<g/>
<g/>
<g/>
<g/>
<g/>
<g/>
<path d="M 652.25 800.75 645.82 801.08 650.4 797.86 652.25 800.75 Z"/>
<g/>
<g/>
<path d="M 229.91 139.48 236.25 141.96 235.39 143.92 229.19 142.91 229.91 139.48 Z"/>
<g/>
<g/>
<g/>
<g/>
<g/>
<g/>
<path d="M 116.69 130.56 119.3 132.47 116.23 133.33 116.69 130.56 Z"/>
<g/>
<g/>
<g/>
<g/>
<g/>
<path d="M 448.23 124.69 449.96 123.23 453.89 135.64 451.25 134.74 448.23 124.69 Z"/>
<path d="M 413.72 116.31 415.15 114.34 420.96 118.28 416.89 118.66 413.72 116.31 Z"/>
<g/>
<g/>
<g/>
<g/>
<g/>
<g/>
<path d="M 451.22 135.06 454.02 136.02 454.92 138.89 452.82 139.3 451.22 135.06 Z"/>
<g/>
<path d="M 454.66 144.24 453.05 139.54 458.41 139.29 460.12 143.93 454.66 144.24 Z"/>
<g/>
<path d="M 283.71 104.69 286.4 103.82 286.46 108.82 284.96 109.38 283.71 104.69 Z"/>
<path d="M 703.55 780.47 700.73 783.67 695.75 781.08 700.81 779.76 703.55 780.47 Z"/>
<g/>
<g/>
<path d="M 656.86 784.89 658.51 782.84 662.25 782.63 668.91 784.55 666.05 785.82 664.67 784.07 660.25 782.89 656.86 784.89 Z"/>
<g/>
<path d="M 457.07 103.05 451.67 107.22 446.1 107.71 444.3 109.38 441.45 109.36 438.49 103.98 445.5 103.15 446.88 104.69 450.85 104.27 452.49 102.25 457.07 103.05 Z"/>
<path d="M 663.39 779.81 662.16 775.55 663.97 774.48 665.71 780.34 663.39 779.81 Z"/>
<g/>
</g>
</svg>