<?xml version="1.0"?>
<svg xmlns="http://www.w3.org/2000/svg" version="1.2" baseProfile="tiny" width="800" height="598" viewBox="0 0 800 598" stroke-linecap="round" stroke-linejoin="round">
<defs>
    <style>
        :root {
            --water-color: #9FC9EA;
            --bg-color: #F2E7D3;
        }
    
        svg {
            background: var(--bg-color, #ffffff);
        }
        path, polygon, rect, circle {
            fill: var(--water-color, #3b82f6);
            stroke: none;
        }
    </style>
</defs>
<g id="water">
<g/>
<path d="M 786.57 216.44 778.01 222.33 770.05 226.26 765.38 229.11 760.54 230.6 753.3 234.95 746.56 240.88 744.55 243.43 737.83 249.5 734.44 253.98 732.47 255.27 729.6 261.22 729.23 265.56 725.5 269.58 721.48 275.56 717.76 279.77 721.95 281.12 717.86 283.38 714.82 285.92 714.21 287.84 715.95 291.46 716.13 296.25 712.86 299.27 713.65 301.41 712.36 304.6 712.02 308.5 710.28 314.13 710.59 318.61 707.38 322.66 704.89 323.49 702.27 328.99 699.12 336.75 696.2 342.04 695.26 345.12 691.11 354.39 690.6 360.26 691.32 363.38 691.3 367.5 692.15 374.08 692.15 379.15 692.72 384.73 694.94 389.1 699.06 393.62 701.38 397.33 704.33 397.47 706.47 400.37 705.59 403.42 708.62 407.99 709.1 411.25 711.5 415.91 712.97 416.5 715.75 431.4 718.65 435.9 722.27 447.31 722.79 452.56 721.25 454.72 722.54 461.45 723.24 469.16 723.44 477.67 723.1 483.41 720.91 496.06 719.1 501.85 712.97 518.72 711 520.04 711.04 524 709.91 526.91 709.74 529.9 707.45 534.79 703.96 536.85 703.06 539.79 698.76 546.44 698.62 548.57 696.98 551.12 686.98 562.98 682.77 564.58 679.21 567.32 679.06 568.33 675.48 570.62 672.02 571.77 668.38 574.2 665.8 574.71 661.93 577.2 661.39 578.85 651.77 586.82 648.47 588 630.27 588 635.38 583.72 642.02 579.87 645.71 576.61 651.3 573.76 653.74 571.64 662.99 565.85 673.76 558.06 676.64 555.4 684.94 546.71 686.91 544.15 692.68 534.67 697.74 525.8 699.26 524.04 703.72 511.82 709.87 496.03 711.12 491.78 713.42 478.98 712.56 469.29 710.78 463.07 710.8 456.33 708.63 446.7 707.52 445.07 705.5 436.94 704.55 430.91 702.41 427.22 700.78 422.74 698.94 415.2 696.43 408.15 690.39 400.59 686.82 397.08 681.7 390.59 678.22 388.22 669.98 380.95 667 376.41 665.06 372.56 659.08 365.37 656.57 361.3 654.53 360.39 651.68 355.23 648.41 344.89 647.79 339.46 649.4 329.94 649.63 326.16 653.36 314.94 653.4 312 657.99 305.73 663.72 300.33 673.58 293.32 685.39 286.14 693.49 281.62 699.92 277.59 703.67 274.61 708.11 269 710.16 264.92 711.34 258.52 712.81 257.01 712.79 254.88 717.36 245.38 718.31 242.14 721.52 235.29 726.27 230.36 737.74 224.48 746.7 221.83 759.05 217.32 762.02 215.29 770.23 211.28 771.67 211.15 776.94 208.53 778.64 207.14 786.57 203.46 786.57 216.44 Z M 688.76 301.96 683.17 302.34 677.5 304.44 674.19 307.21 670.53 311.23 668.16 313.09 665.82 316.53 662.52 322.65 661.87 327.74 660.76 330.19 661.28 334.98 660.3 340.98 661.12 345.6 664.29 354.55 668.04 360.32 672.48 362.47 672.74 357.97 673.92 354.15 677.07 348.33 685.76 339.81 690.37 334.67 689.92 332.45 690.94 326.77 694.94 318.59 697.75 314.92 699.49 310.71 699.03 306.69 696.21 302.86 694.64 299.61 692.18 299.38 689.12 300.31 688.76 301.96 Z" fill-rule="evenodd"/>
<g/>
<g/>
<g/>
<g/>
<g/>
<g/>
<g/>
<g/>
<g/>
<path d="M 515.22 470.94 519.25 469.16 521.81 473.28 524.39 472.14 524.98 474.3 522.19 474.3 520.45 476.13 514.96 471.1 515.22 470.94 Z"/>
<g/>
<path d="M 639.17 403.48 643.2 401.79 643.75 402.79 640.3 404.87 639.17 403.48 Z"/>
<g/>
<path d="M 20.83 173.85 13.43 175.39 13.43 173.51 20.56 172.06 20.83 173.85 Z"/>
<path d="M 13.43 58.58 14.64 58.36 14.77 69.17 13.43 69.04 13.43 58.58 Z"/>
<g/>
<path d="M 674.79 10 678.42 12.25 680.39 13.5 683.94 16.28 685.48 18.02 686.89 19.38 694.64 23.45 699.35 24.85 703.27 26.51 706 28.59 705.82 28.74 713.42 32.86 715.35 30.87 720.01 33.48 720.19 33.43 724.76 35.42 725.73 36.21 731.68 38.49 732.65 38.56 732.63 38.38 731.93 36.84 732.83 37.73 733.19 37.95 733.62 38.72 738.98 41.96 744.82 44.29 749.71 47.05 750.09 47.25 757.15 52.66 757.42 53.29 758.64 54.42 760.14 55.42 761.77 56.46 761.95 56.48 762.04 56.5 762.22 56.6 762.81 57 763.64 57.52 764.12 58.86 764.21 59.11 768.92 61.55 769.39 61.77 769.52 61.68 767.96 60.91 767.65 60.82 767.8 60.33 768.39 60.42 768.71 60.35 769.71 60.46 770.22 60.8 771.9 62.32 772.96 62.97 773.48 63.16 774.7 63.77 775.86 63.92 776.26 64.29 776.99 64.69 778.01 65.17 778.46 65.42 779.34 65.92 780.47 66.23 782.28 67.2 784 68.2 785.34 68.83 785.75 69.02 786.57 69.05 786.2 78.22 784.84 77.9 784.34 77.88 783.94 78 783.24 77.84 780.14 77 778.26 76.19 777.44 76.01 777.4 75.84 777.37 75.67 775.82 74.78 773.48 73.86 772.22 73.52 771.29 73.9 767.62 77.38 766.34 79.44 765.86 80.84 765.81 81.37 765.99 82.22 769.32 84.51 770.81 85.48 778.03 89.65 780.79 90.41 786.57 90.17 786.57 91.25 786.57 92.07 785.27 92.5 781.42 92.31 778.14 91.05 776.18 90.26 769.18 86.07 764.73 82.05 765.5 77.91 768.17 74.63 768.92 73.38 768.82 72.29 768.51 71.84 766.7 70.32 766.72 70.15 764.46 69.13 764.16 69.54 763.8 69.76 763.1 69.92 762.87 70.55 762.83 70.64 762.76 70.84 762.92 71.19 762.88 71.41 762.67 71.18 762.63 70.91 762.6 70.6 762.78 70.08 763.21 69.49 763.46 69.04 763.69 68.95 763.96 68.85 763.64 68.31 763.32 68.33 759.48 66.1 759.52 66.07 759.55 66 759.64 65.87 759.89 65.58 760.21 65.19 760.32 65.06 760.66 64.67 760.75 64.54 761.09 64.15 761.18 64.04 761.52 63.65 761.63 63.52 761.95 63.13 762.31 62.72 762.4 62.61 762.49 62.5 762.81 62.12 762.85 62.12 762.97 62.16 763.24 62.21 763.3 62.21 763.76 62.3 769.93 65.49 769.77 65.39 754.39 57.3 754.41 57.47 762.58 61.66 762.67 61.87 759.41 65.76 759.3 65.87 759.26 65.91 759.19 65.98 759.16 66.03 759.09 66.09 759.01 66.18 759 66.19 756.74 65.01 756.61 65.19 758.21 66.01 758.42 66.5 758.48 66.68 751.79 74.49 750.23 73.79 749.86 73.6 749.32 73.61 735.25 66.28 734.93 66.12 734.41 65.48 733.8 65.87 733.17 66.09 731.32 65.8 727.72 65.49 726.27 63.77 725.75 63.67 725.07 63.7 723.47 63.67 720.77 63.86 719.51 63.79 715.44 62.73 713.85 62.25 709.87 60.58 708.83 60.12 707.38 59.56 704.96 58.47 704.28 58.56 703.97 58.74 703.58 59.44 702.58 60.73 700.73 61.46 699.82 60.71 698.51 58.86 698.35 58.24 697.88 57.79 695.55 52.81 694.78 52.03 694.03 50.89 695.05 50.4 698.76 48.63 703.2 46.37 705.05 46.25 705.95 46.73 709.96 48.41 710.89 49.1 711.81 49.76 713.97 51.21 714.83 51.73 716.02 52.27 716.16 53.32 715.37 53.45 713.44 53.56 711.84 53.24 710.84 52.73 710.32 52.79 709.19 52.73 707.76 52.29 706.66 51.89 706.55 52.03 707.52 52.43 707.59 52.52 708.81 53 709.49 53.32 710.3 53.47 711.73 53.59 715.91 53.92 716.73 53.93 718.26 53.45 724.73 55.44 724.87 55.73 725.21 56.03 733.17 58.27 733.76 58.27 733.99 57.86 734.94 56.75 735.62 56.03 736.06 55.37 735.62 54.83 735.19 54.17 734.32 53.76 734.26 53.56 732.9 53.16 731.38 52.97 730.23 52.55 725.25 50.94 721.81 49.99 720.84 49.69 718.01 48.54 713.44 47.2 712.36 46.69 710.41 46.14 708.81 44.79 707.65 44.13 707.56 43.81 707.04 43.07 706.23 42.27 704.98 41.12 704.96 40.9 704.37 40.9 702.11 39.97 701.57 39.92 700.68 39.58 700.03 39.06 697.79 38.23 697.36 39.22 697.09 40.04 697.11 40.19 697.15 40.56 696.98 40.69 696.57 41.59 696.03 41.64 696.29 42.05 696.43 42.27 696.18 42.5 694.08 43.58 687.54 45.65 685.26 46.46 684.76 46.69 684.06 47.25 676.37 51 674.55 51.82 669.87 49.85 669.17 49.54 666.41 48.06 666.18 48.04 665.78 48.02 665.98 47.75 663.04 45.87 660.19 43.13 658.58 41.32 657.02 40.51 657.55 40.65 657.91 40.74 657.64 40.22 656.52 40.06 656.95 39.94 657.18 39.87 656.57 38.79 655.14 35.46 654.72 32.02 654.56 30.72 654.33 29.56 654.13 28.59 655.33 26.62 657.3 27.23 658.29 30.03 659.62 31.51 660.92 33.29 661.35 34.74 661.59 36.33 661.68 37.39 662.07 38.18 662.81 38.74 663.97 38.81 665.73 38.97 666.44 39.26 670.46 42.79 673.74 44.85 674.47 45.22 678.76 47.09 679.31 47.39 680.33 47.43 680.71 47.45 681.34 47.03 681.59 46.78 682.23 46.46 682.47 46.25 683.67 45.53 688.83 43.66 688.97 41.77 688.2 41.51 684.83 40.96 674.8 36.84 674.03 35.65 672.93 35.33 670.8 35.21 669.11 34.72 666.12 31.6 665.1 30.19 664.56 29.31 663.79 28.61 660.98 25.72 660.03 24.85 658.93 23.34 657.97 22.62 654.83 18.81 654.51 18.54 654.02 17.98 653.95 17.89 653.15 17.21 652.77 16.83 652.43 16.49 652.3 16.37 651.78 16.51 651.84 16.92 652.16 18.13 652.09 18.36 651.86 18.38 651.52 18.41 650.64 18.48 649.45 18.82 648.74 18.99 648.72 19.13 648 19.18 647.95 18.77 647.82 18.75 647.59 18.7 647.54 18.63 647.34 18.45 646.98 18.48 646.39 19.38 645.51 19.27 645.42 17.14 647.73 17.07 648.04 17.41 648.43 17.53 649.17 17.46 650.57 17.21 651.05 17.03 651.16 16.55 650.98 16.4 649.69 16.71 649.35 16.83 649.19 16.91 648.9 17.01 648.43 15.65 648.61 15.47 650.01 14.88 650.51 15.26 651.19 15.74 651.48 15.72 651.91 15.49 651.71 15.42 649.69 13.79 649.4 13.64 647.7 12.64 646.66 11.55 646.35 10.83 646.08 10.67 645.51 10 674.79 10 Z M 644.27 10 644.47 10.6 644.49 11.42 644.79 13.04 644.61 13.5 644.53 14.24 644.7 15.19 642.48 15.31 639.78 10.74 640.04 10 644.27 10 Z M 638.74 10 638.58 10.76 638.54 11.31 637.86 12.73 637.63 13.97 637.45 15.15 637.45 15.28 637.28 15.58 637.25 16.83 638.16 19.68 638.23 20.49 638.49 20.96 638.92 21.75 639.11 21.92 639.51 22.3 639.83 22.86 640.99 24.22 641.5 26.42 641.01 26.64 640.67 26.94 640.06 27.34 639.96 27.46 636.91 26.87 636.21 25.98 634.76 23.05 634.22 20.08 634.11 19.02 634.13 18.34 633.99 17.37 634.09 13 633.59 13.12 633.43 13.41 633.31 13.63 633.18 13.84 632.82 13.99 632.52 14.11 631.17 15.4 630.94 15.63 630.51 16.58 630.21 18.68 630.01 19.51 629.95 20.19 629.15 18.95 628.99 18.59 628.83 18.21 629 17.75 628.74 16.06 628.57 15.31 628.38 14.77 628.41 14.25 628.47 13.34 628.66 13.23 628.95 13.04 629.56 12.16 630.13 11.44 630.55 10.92 631.32 10.38 638.74 10 Z" fill-rule="evenodd"/>
<path d="M 31.96 76.41 29.54 76.48 25.84 74.49 21.38 70.78 16.51 68.68 14.77 69.17 14.64 58.36 18.1 57.98 18.93 57.91 19.39 57.95 20.02 57.81 20.68 57.73 21.09 57.68 21.43 57.64 27.98 56.89 36.45 54.58 37.31 54.42 42.58 53.32 47.49 51.32 50.61 49.42 55.9 47.34 61.1 44.35 63.7 42.7 70.43 37.07 75.43 33.97 78.97 30.4 83.34 26.87 88.52 21.8 89.43 19.56 93.11 15.19 95.79 10.76 96.31 10 116.7 10 107.77 19.24 105.06 21.78 97.53 27.09 94.84 29.47 92.21 31.23 88.14 35.49 84.88 37.59 80.81 41.57 79.81 43.25 71.8 49.62 67.12 54.6 65.85 55.89 65.54 56.28 65.61 56.82 66.4 57.12 68.46 56.1 72.26 52.09 79.32 46.3 88.95 41.08 92.21 38.79 95.97 37.8 105.67 34.04 110.58 31.28 117.27 29.34 120.53 28.32 122.37 27.21 127.05 22.01 128.18 17.57 129.99 13.99 131 10 138.15 10 137.25 17.1 133.49 24.09 129.22 28.61 128.47 28.99 123.5 33.41 114.54 39.9 110.65 44.53 107.95 46.66 103.7 53.29 103.68 55.31 103.21 59.54 99.83 64.08 100.54 64.26 98.93 64.49 97.32 65.69 97.64 65.71 97.23 66.03 96.78 65.98 96.48 66.5 95.44 67.04 94.84 67.75 93.54 68.61 88.11 71.75 77.21 75.98 75.9 76.95 75 78.38 74.4 79.17 73.88 78.97 75.22 76.62 68.95 76.7 68.27 76.8 65.02 75.94 59.72 74.78 52.53 74.4 50.22 74.99 40.2 75.1 31.96 76.41 Z M 108.73 39.29 110.33 38.14 102.93 39.65 93.86 42.64 89.24 44.53 81.22 48.34 72.66 57.45 65.31 60.91 57.32 62.18 55.77 62.68 51.56 63.27 34.86 63.42 31.22 64.22 26.4 66.96 28.25 69.92 31.74 73 34 73.33 41.02 72.52 48.01 71.66 57.57 71.79 66.37 73.45 74.05 73.56 78.59 72.59 87.91 68.68 96.22 63.4 99.76 59.69 101.44 50.91 102.71 47.7 106.76 41.5 108.73 39.29 Z" fill-rule="evenodd"/>
<path d="M 571.13 298.29 570.18 296.78 573.21 295.89 573.62 297.66 571.13 298.29 Z"/>
<path d="M 786.57 261.25 740.45 324.4 734.69 331.89 714.03 359.06 713.53 359.8 709.55 365.23 707.31 368.11 707.65 367.99 706.55 370.62 703.56 369.75 704.39 368.74 709.19 362.18 709.71 362.41 711.99 359.28 711.7 358.97 711.63 358.65 726.32 338.54 736.14 324.89 740.63 318.77 756.61 296.59 762.33 288.95 785.79 256.62 786.57 261.25 Z"/>
<path d="M 147.66 365.66 148.07 359.08 150.31 359.15 153.31 357.16 158.11 359.26 153.16 366.48 150.48 372.65 145.91 368.24 147.66 365.66 Z"/>
<path d="M 25.61 144.53 25.31 144.69 23.55 144.75 23.1 144.23 22.8 144.03 22.31 144.05 19.37 145.36 19.27 145.32 19.21 145.28 19.18 145.25 18.57 144.8 18.1 144.93 17.69 145.79 17.24 146.09 16.65 146.18 14.68 145.95 14.55 145.61 14.46 145.48 14.28 145.23 13.98 145.11 13.71 145.25 13.43 142.42 13.51 142.38 14.96 142.15 14.84 141.97 14.75 141.86 14.71 141.81 14.52 141.47 14.41 141.25 14.48 140.61 14.88 141.45 15.14 141.63 15.2 141.66 15.61 141.5 16.09 141.31 17.42 140.79 18.93 140.14 19.62 139.89 22.46 138.92 23.26 138.71 23.69 138.65 24.14 138.6 25.95 139.39 26.17 139.44 27.83 140.71 28.05 140.89 28.16 140.98 28.01 141.36 27.98 141.9 27.71 142.49 27.56 142.69 27.47 142.81 27.01 143.46 26.6 143.89 26.35 144.12 25.61 144.53 Z"/>
<g/>
<g/>
<path d="M 678.92 54.44 690.39 51.69 694.39 52.79 696.64 57.34 692.84 59.19 682.54 55.91 678.92 54.44 Z"/>
<g/>
<path d="M 622.91 10 623.02 10.29 623.2 11.12 623.2 11.94 623.57 12.59 623.39 13.05 623.29 13.16 623.22 13.81 623.25 14.9 623.27 15.51 623.07 16.64 623.31 18.66 623.54 19.36 623.72 20.6 623.9 21.32 622.88 20.56 622.27 19.34 621.19 13.99 620.19 13.77 619.97 13.82 620.1 14.54 620.2 15.11 620.17 15.42 620.15 15.6 619.79 15.96 619.04 16.44 618.84 16.39 618.56 15.74 619.24 13.95 619.31 13.5 619.94 13.07 620.04 13.59 621.12 13.86 621.19 13.73 620.9 12.35 620.72 10.8 622.91 10 Z M 614.85 10 614.77 10.02 613.34 10.42 612.48 10.74 611.44 11.14 610.94 11.53 610.62 11.46 610.45 10.97 610.08 10.92 609.47 10.85 608.86 10.71 607.12 10.51 614.85 10 Z" fill-rule="evenodd"/>
<g/>
<g/>
<path d="M 702.77 73.24 699.1 69.71 698.36 67.99 694.53 63.49 695.59 62.52 699.17 67.25 704.37 66.89 705.71 70.39 701.3 69.46 700.71 70.48 702.77 73.24 Z M 699.35 67.43 700.25 69.22 704.37 69.65 704.15 67.88 699.35 67.43 Z" fill-rule="evenodd"/>
<path d="M 786.57 138.99 785.23 138.81 784.57 138.47 777.65 137.04 764.35 136.05 758.35 136.99 752.7 139.98 743.96 142.15 734.82 147.88 726.16 152.47 725.19 152.94 724.06 153.73 723.74 153.83 722.63 154.01 720.3 154.82 712.36 156.92 712.11 157.24 702.34 156.72 699.35 156.38 698.15 156 694.98 155.23 685.01 151.52 684.15 151.36 682.57 150.88 674.71 146.43 673.18 145.34 670.19 143.94 669.28 143.28 667.61 142.13 666.52 141.54 666.12 141.23 665.05 140.57 664.11 140.14 662.18 139.16 661.41 138.64 661.28 138.56 660.66 138.15 660.05 137.63 659.76 137.51 652.23 133.81 651.68 132.95 650.35 132.02 649.58 131.31 647.95 130.53 647.3 130.59 644.97 129.28 642.97 129.91 641.82 130.48 637.8 132.42 636.75 132.65 640.04 130.93 640.76 130.59 641.08 130.52 641.77 130.19 644.72 128.83 642.37 127.33 640.21 126.38 639.15 126.14 638.13 125.66 638.25 125.19 637.77 124.8 637.25 124.37 630.99 120.96 630.51 120.55 627.59 119.48 626.58 119.15 625.89 118.85 625.55 118.78 625.13 118.42 625.12 118.13 624.9 117.97 623.54 117.34 622.25 116.82 621.93 116.73 620.8 116.3 617.32 114.53 616.62 114.28 615.08 113.58 614.43 113.2 614 112.93 612.95 112.11 611.4 111.47 610.06 110.87 608.59 110.14 608.38 109.94 607.52 109.58 606.73 109.15 605.54 108.51 604.88 108.28 603.95 108.29 596.51 105.05 577.17 97.52 573.25 96.07 569 94.1 566.72 92.9 562.01 89.87 561.19 88.69 555.49 83.85 550.06 77.18 543.37 78.08 541.11 78.38 536.31 78.13 527.04 74.98 514.96 68.29 513.87 67.36 502.51 63.36 495.84 63.13 492.97 63.52 487.61 63.65 479.55 63.15 468.01 61.39 461.43 60.42 441.84 56.03 429.49 59.13 428.51 61.12 427.74 62.81 426.39 67.27 426.32 67.81 426.41 68.09 426.73 68.27 427.32 69.89 427.41 70.19 427.43 70.98 428.17 77.31 428.33 78.42 428.54 79.81 428.45 80.12 428.86 83.24 428.49 83.31 428.54 85.21 428.94 86.7 428.7 87.75 428.35 87.92 427.93 89.46 427.99 90.91 427.75 92.7 427.41 92.75 427.2 93.17 426.73 94.76 426.57 94.99 426.64 96.66 425.8 97.45 425.69 97.61 423.54 102.25 423.22 102.63 422.84 103.96 422.38 105.32 421.98 105.32 421.68 105.66 420.01 107.49 419.96 107.79 418.9 109.48 417.27 111.77 415.92 113.22 409.54 119.73 406.07 124.41 405.3 125.52 405.39 126.29 401.96 130.16 400.46 131.23 399.06 132.13 392.11 139.26 390.73 140.43 388.65 141.93 379.58 145.43 371.78 149.05 358.54 150.02 352.96 150.98 351.85 150.66 347.6 150.52 345.6 150.5 344.5 150.63 343.02 151.16 339.9 152.78 332.1 153.37 322.3 151.58 319.97 151.38 312.62 150.93 310.27 150.5 305.18 148.04 303.66 148.94 301.69 150.95 299.14 151.99 294.75 152.6 288.93 151.54 288.26 151.31 285.07 150.2 281.83 147.92 275.22 147.04 273.28 147.53 270.54 148.8 265.61 152.06 263.42 152.11 261.56 152.94 259.93 153.51 252.13 153.82 247.81 154.93 245.25 157.29 245.02 158.74 245.3 160.75 247.99 163.4 249.59 165.57 250.36 166.94 251.04 167.96 250.45 170.27 248.1 172.76 243.44 175.39 235.32 177.89 228.73 178.14 223.71 177.08 220.21 177.62 213.85 181.6 211.7 183.6 210.48 185.2 210.35 185.38 209.96 185.9 208.63 186.79 206.04 189.07 204.85 190.43 203.19 192.21 202.13 193.39 199.96 196.45 194.33 201.76 194.01 202.49 193.44 203 193.36 204.57 193.1 205.18 190.35 210.36 190 211.69 189.74 212.62 189.19 213.57 188.69 215.52 188.49 216.4 187.97 217.96 187.79 218.71 186.68 223.07 186.54 223.32 186.27 224.29 186.11 225.49 185.73 226.29 185.41 227.66 185.19 230.92 185.53 231.4 182.09 237.3 180.42 238.34 180.12 240.51 179.49 242.32 179.22 243.28 178.42 245.61 177.83 247.5 176.66 249.93 176.3 250.83 175.48 252.59 173.51 256.08 168.4 263.57 162.74 269.83 156.7 274.97 153.68 278.59 153.22 279 151.64 279.81 150.48 280.76 148.54 281.08 147.75 281.57 136.26 287.7 121.75 294.09 121.42 294.65 115.4 296.98 107.7 300.82 105.45 303.67 104.45 305.71 103.77 308.67 104.7 315.17 104.04 317.36 101.66 319.58 94.92 319.85 90.51 320.64 88.55 321.57 86.89 322.27 85.15 324.11 85.04 326.03 84.95 328.76 86.33 330.53 85.85 332.7 88.34 341.46 88.48 343.63 89.15 345.51 90.1 348.47 91.06 354.82 89.54 360.75 88.66 368.44 87.75 371.07 83.25 380.8 79.25 385.19 75.87 387.33 75.72 388.85 74.92 390.12 71.06 392.63 70.34 392.92 67.89 395.09 61.9 397.17 60.33 397.85 59.45 398.06 57.94 398.58 54.54 400.57 48.98 401 47.19 401.38 45.59 401.49 43.23 402.08 41.76 401.5 38.51 401.41 35.81 401.77 35.2 401.4 35.4 400.88 34.97 400.89 29.59 402.1 19.32 401.34 15.38 401.63 14.23 401.18 13.43 400.83 13.43 393.86 15.75 393.78 15.9 393.73 19.98 393.81 23.62 393.96 28.96 394.42 31.72 394.42 32.13 394.16 32.8 393.19 33.59 392.92 34.23 392.9 34.55 392.76 35.65 392.92 35.68 393.12 35.99 393.06 36.47 392.78 37.31 392.51 37.91 392.52 39.11 392.56 40.49 392.29 41.83 392.15 43.32 392.18 43.84 391.95 44.95 391.88 46.19 392.43 47.12 392.95 47.74 393.06 49.38 393.71 50.99 393.55 51.9 393.33 52.32 393.06 53.64 392.18 54.34 392.24 54.61 392.42 55.18 392.29 55.81 391.83 57.03 391.02 57.46 390.84 62.12 386.57 61.9 386.29 60.52 385.62 59.77 384.8 59.88 381.27 61.53 377.7 64.5 376 67.05 375.57 69.32 374.28 70.2 373.1 73.23 371.05 77.57 369.15 79.2 365.62 79.79 358.99 79.61 358.35 80.18 354.55 80.49 350.71 80.54 349.67 80.6 345.3 80.33 344.99 77.32 332.68 77.05 332.34 76.56 330.76 75.58 329.28 74.75 324.26 74.27 322.61 73.97 319.8 74.25 318.54 75.65 313.63 77.87 310.3 78.48 310.01 80.67 308.16 83.16 306.37 84.97 304.92 85.97 304.17 87.12 303.09 87.87 302.36 88.95 301.8 90.79 300.85 91.37 300.56 91.65 300.42 93.72 299.51 94.88 299.26 96.62 298.54 99.92 296.93 104.83 294.69 105.78 293.79 113.34 289.58 114.11 288.47 121.44 284.95 123.09 285.33 126.59 283.2 127.54 283.04 131.55 282.32 132.61 282 137.66 280.76 143.04 276.46 143.9 275.54 145.58 273.41 151 269.49 151.62 268.82 154.53 265.58 158.24 261.28 162.43 256.21 167.65 249.18 170.5 248.02 171.8 244.06 171.91 239.75 172.65 237.44 172.93 237.1 173.11 236.6 174.37 232.66 174.78 231.31 174.92 230.13 175.17 229.56 174.99 229.34 174.87 229.18 176.5 229.34 176.46 229.25 174.85 229.11 174.8 228.91 175.59 227.53 177.59 220.67 177.45 219.48 180.41 214.14 180.85 211.62 181.39 209.77 182.83 206.1 185.01 202.62 185.07 202.03 187.23 199.39 188.24 199.09 192.61 193.8 192.84 192.74 196.59 188.84 197.09 188.14 197.83 187.4 198.6 186.49 200.23 185.07 200.37 184.71 200.43 183.53 200.87 182.35 207.16 174.86 207.94 174.39 208.96 173.05 208.96 172.24 208.58 171.94 208.24 171.47 215.71 166.31 215.87 165.9 215.73 165.56 217.34 164.35 218.04 163.67 218.51 162.51 220.03 159.44 219.67 158.92 220.03 158.15 220.64 157.76 224.64 151.86 225.62 150.21 229.35 144.42 236.83 137.78 237.54 137.35 242.81 134.14 243.39 133.58 244.68 132.02 245.72 131.63 247.53 128.78 250.32 129.41 251.7 129.37 253.21 129.08 253.55 128.62 255.39 128.62 256.47 128.35 257.65 128.04 258.33 127.92 260.57 127.7 261.7 127.52 262.03 127.33 262.15 127.11 264.32 126.77 265.65 127.31 266.34 127.45 267.58 127.45 267.94 127.27 270.75 127.6 272.08 127.97 274.71 128.69 286.45 129.8 287.96 130.16 289 130.23 290.86 130.46 296.13 131.5 298.03 131.72 298.96 131.93 300.56 132.11 302.1 132.34 304.04 132.69 306.47 132.92 307.51 133.08 308.03 132.85 310.02 133.44 310.34 134.01 310.83 134.26 311.35 134.37 311.71 134.32 315.72 136.36 316.03 136.29 317.14 136.54 317.58 137.08 318.57 137.51 319.39 137.58 319.81 137.7 320.72 138.22 321.87 138.44 322.93 139.01 324.72 139.48 325.58 140.02 326.28 140.39 327.44 140.71 329.47 140.71 330.02 141.16 334.16 141.93 335.29 142.4 336.51 142.69 346.55 143.69 347.28 143.39 349.86 143.44 352.5 143.37 361.08 141.68 362.57 141.56 364.13 141.14 366.71 140.32 367.09 140.11 368.38 139.84 369.56 139.46 375.12 136.77 375.96 136.18 379.38 134.41 380.99 133.49 382.63 132.18 383.95 131.2 384.79 130.18 386.51 129.41 388.79 127.88 391.66 125.91 395.35 122.2 398.77 120.05 400.14 118.81 401.66 117.25 402.61 115.82 402.47 115.41 405.42 112.85 407.91 109.4 407.97 108.06 410.75 105.71 412.23 103.15 412.68 102.29 412.52 101.82 412.79 100.91 413.74 100.39 416.25 94.8 415.98 92.13 417.05 89.8 418.08 87.75 418.33 86.28 418.27 85.6 418.68 82.32 418.54 81.53 418 81.28 417.84 80.41 418.18 79.08 418.67 77.52 417.93 70.98 418 69.99 417.88 69.72 417.56 69.46 418.25 67.93 418.94 66.71 419.35 63.92 419.06 63.5 419.15 62.34 419.78 61.12 420.62 57.79 421.84 52.14 421.98 51.69 422.39 49.7 422.77 48.84 427.57 36.68 432.11 30.17 435.55 26.78 437.88 25.29 441.45 23.32 445.39 22.21 448.17 21.35 456.04 20.13 461.66 18.3 462.83 18.09 463.11 17.75 464.94 17.68 466.66 18.34 467.36 18.36 468.31 18.23 468.74 17.95 471.54 18.48 473.04 18.57 473.76 18.52 474.3 18.25 479.12 19.08 479.53 18.91 482.15 19.43 483.1 19.65 484.5 19.85 485.09 19.88 486.16 20.38 490.5 21.66 507.88 25.55 509.96 25.99 513.94 27.07 514.78 27.36 516.51 28.38 518.08 29.22 519.18 29.95 519.61 30.13 520.9 31.1 521.85 31.91 522.31 32.48 523.23 33.18 524.57 34.85 532.99 42.16 534.37 43.47 536.83 45.35 537.35 45.53 538.82 46.55 539.8 47.18 541.22 48.93 541.81 49.36 542.74 50.22 542.89 50.87 546.51 55.46 547.05 55.8 548.28 56.26 548.8 57.57 549.23 58.09 550.02 58.07 550.41 58.16 550.9 58.58 551.24 58.59 552.73 58.47 554.09 58.81 556.28 60.23 559.63 60.4 565.9 62.25 569.7 63.9 577.98 66.55 579.7 67.43 582.17 69.58 582.73 70.92 582.91 72.9 581.73 76.34 580.52 77.84 580.49 77.99 580.42 78.18 580.26 79.92 582.07 82.72 585.99 86.59 586.94 87.2 588.98 88.13 593.36 88.45 596.49 87.65 599.4 86.88 602.93 86.91 605.81 88.83 605.94 88.94 606.23 89.21 606.4 89.42 606.48 89.49 606.73 89.81 607.16 90.41 607.37 90.6 607.52 90.85 607.52 90.94 607.61 91.07 607.77 91.32 607.95 91.59 607.95 91.84 607.95 92.02 608.39 93.61 608.52 94.56 608.52 95.08 608.54 95.78 608.54 96.23 608.38 96.63 608.66 97.16 608.72 97.5 608.82 98.13 609.34 99.55 610.06 100.8 610.87 101.77 614.13 104.58 615.04 105.21 615.06 105.23 615.65 105.64 615.9 105.91 617.14 106.66 618 107.11 621.37 108.08 622.03 108.35 622.77 108.85 623.68 109.48 624.02 109.6 624.58 109.42 626.87 111.09 631.71 113.06 632.57 113.28 635.17 114.57 636.68 114.96 637.02 115.21 637.57 116.18 639.58 117.09 641.16 118.08 641.77 118.13 642.12 118.4 642.48 118.67 643.27 119.24 645.21 120.25 647.02 121.23 647.39 121.13 648.86 121.57 649.01 122.24 649.67 122.76 650.19 123.17 650.65 123.65 651.14 123.83 651.66 124.41 652.97 125.16 653.76 125.37 654.69 125.77 654.83 126 657.93 127.72 659.29 128.46 660.94 129.03 661.71 129.71 662.34 130.27 662.86 130.71 663.31 130.86 663.79 130.7 672.02 136.97 672.48 137.17 673.11 137.13 677.45 139.21 678.36 138.74 679.24 138.15 679.69 137.83 682.23 136.48 685.28 134.64 687.49 133.35 691.52 132.4 693.85 133.03 695.71 134.46 697.84 135.89 698.85 136.52 704.92 133.44 707.92 132.43 711.18 131.45 716.56 130.21 718.6 130.05 726.63 131.09 729.15 131.61 731.54 132.17 736.77 132.83 738.38 132.97 739.75 132.67 740.75 132.26 741.49 131.66 741.93 130.91 742.42 130.12 743.01 129.01 743.33 128.51 744.14 127.61 745.68 126.68 749.55 126.04 753.1 126.84 755.97 128.92 756.92 129.57 757.69 129.3 757.83 129.01 761.42 128.56 762.13 128.4 762.8 127.95 763.33 127.83 764.18 127.86 764.71 127.88 766.13 127.97 766.83 127.97 767.26 127.77 768.57 127.77 770.66 128.17 781.69 129.05 786.57 130.19 786.57 138.99 Z M 754.07 128.87 753.28 128.76 751.93 127.72 751.67 127.42 747.62 127.11 745.18 127.95 741.86 132.69 738.12 133.99 730 132.9 722.83 131.18 718.85 130.79 714.64 131.31 705.25 134.24 700.68 137.04 697.38 136.74 693.36 133.9 690.77 133.17 688.79 133.56 684.38 136.23 677.81 139.8 678.06 140.46 678.2 140.61 678.69 141.09 680.64 142.6 684.42 142.69 685.94 144.46 697.41 147.97 701.55 147.87 703.71 147.22 706.07 146.74 708.02 146.59 713.45 147.31 714.87 147.01 716.65 146.16 718.72 145.8 727.15 142.13 729.39 141.77 732.15 141.02 733.13 140.57 733.83 140.07 736.72 139.21 740.71 136.77 749.98 132.38 751.24 131.91 752.69 131.05 753.35 130.88 753.82 130.43 754.71 130.3 755.86 129.91 755.03 129.32 754.07 128.87 Z M 559.13 61.62 557.83 61.68 556.19 62.25 555.34 62.43 554.29 62.97 553.91 63.27 553.66 64.13 553.71 64.85 553.66 65.12 553.34 65.66 554.29 67.73 555.2 68.31 556.71 70.78 557.26 71.59 557.91 72.3 558.43 72.79 558.86 72.68 559.45 73.04 559.66 73.42 560.47 73.79 561.76 74.03 565.76 74.24 568.93 75.53 569.36 75.96 569.72 75.96 571.98 77.82 572.37 78.7 572.87 80.1 573.71 81.1 574.45 81.66 579.81 84.8 582.53 88.31 582.78 89.13 582.78 89.99 582.91 90.08 583.71 91.23 583.55 91.75 584.29 92.93 585.18 93.52 586.31 94.15 587.19 94.46 587.51 94.35 589.22 94.76 589.77 95.39 590.9 96.11 591.65 96.41 596.48 98.31 598.18 99.17 600.72 99.64 601.15 100.26 601.39 100.46 602.12 100.78 602.77 100.96 603.2 100.98 605.49 102.13 605.74 101.98 607.46 102.7 608.02 102.93 608.27 102.83 609.06 102.9 609.4 103.24 609.72 103.35 608.47 101.27 607.75 99.78 606.91 95.39 606.57 93.02 606.14 91.89 602.93 88.58 599.31 88.45 598.5 88.94 597.44 89.1 596.89 89.46 592.66 90.59 588.46 89.9 582.73 86.3 579.25 82.56 577.66 79.87 578.02 77.65 578.59 77.14 579.4 76.16 580.49 74.24 580.2 70.14 579.2 69.02 577.8 68.11 570.58 65.69 560.7 61.89 559.13 61.62 Z M 565.24 75.57 562.55 75.58 559.43 75.57 560.63 77.36 561.72 78.51 562.51 79.04 563.62 79.19 564.09 80.15 564.81 81.05 566.13 82.61 567.35 83.54 569.13 84.15 569.29 84.53 570.77 85.35 571.99 86.34 574.41 87.54 575.15 87.68 577.3 89.19 579.11 90.51 581.22 91.95 581.49 91.89 581.42 91.43 581.3 90.62 580.78 88.81 580 87.38 578.89 86.09 576.1 84.29 574.41 83.43 573.5 82.84 571.46 81.14 570.27 79.72 568.89 77.82 568.46 77.02 567.78 76.34 566.58 75.78 565.24 75.57 Z M 552.58 58.79 551.76 59.17 551.17 59.71 551.26 60.26 551.69 60.66 552.3 60.92 553.09 61.07 553.98 60.87 555.42 60.55 555.72 60.37 555.45 60.21 553.82 58.92 553.05 58.72 552.58 58.79 Z M 39.23 394.39 39.98 394.51 40.32 394.35 40.34 393.71 39.23 394.39 Z M 551.49 62.59 552.08 62.56 552.51 62.27 552.91 61.86 550.95 61.17 550.5 60.92 550.59 61.5 551.02 62.2 551.49 62.59 Z M 702.79 148.31 703.44 148.65 706.23 148.39 706.34 148.06 712.42 147.76 711.5 147.45 706.34 147.26 702.79 148.31 Z M 514.89 67.29 514.86 67.57 519.66 70.19 517.96 68.47 514.89 67.29 Z M 435.93 55.3 433.85 55.51 438.2 55.53 436.59 55.39 435.93 55.3 Z M 116.39 288.22 116.84 288.36 117.84 288.23 120.62 287.14 122.02 286.42 122.05 285.58 120.56 285.81 118.41 286.75 116.39 288.22 Z M 84.99 323.11 85.69 322.38 85.92 321.7 84.84 321.27 83.61 323.68 83.91 324.26 84.99 323.11 Z M 336.55 152.47 339.77 151.9 338.14 149.66 332.33 148.73 329.38 147.67 319.99 145.63 316.31 146.11 310.4 144.69 306.02 146.63 309 148.01 310.31 149.93 319.99 150.84 321.71 150.63 332.5 152.74 336.55 152.47 Z M 232.06 160.98 231.43 164.64 229.08 165.64 221.66 174.64 230.3 176.81 234.57 176.7 241.38 174.34 246.93 171.76 249.12 169.28 248.03 165.54 244.28 162.31 241.58 157.04 242.79 154.75 248.01 151.74 252.37 151.36 259.75 151.9 263.92 149.42 271.47 146.34 277.17 145.14 281.42 145.75 286.85 149.1 289.66 149.96 296.2 150.3 301.33 148.62 304.16 146.04 308.86 143.73 314.14 144.69 314.66 143.87 309.27 141.81 296.67 138.1 294.05 138.19 288.23 136.27 281.15 136.75 271.24 138.01 262.4 137.17 255.73 138.51 243.78 142.08 240.09 144.23 234.75 150.59 234.93 152.51 233.49 154.5 231.7 159.35 232.06 160.98 Z M 544.37 74.74 547.83 73.97 543.12 64.74 540.22 61.01 538.41 59.79 537.46 57.18 535.11 56 530.25 49.74 527.15 47.95 525 45.03 521.34 42.34 520.07 39.65 516.74 38.5 514.7 36.62 510.48 34.08 506.65 33.38 498.69 29.54 489.26 27.03 486.38 27.16 482.31 26.26 471.38 25.55 466.84 26.48 461.77 26.8 457.24 28.22 452.04 29.08 445 31.3 438.67 36.93 436.89 39.24 434.78 43.83 433.08 49.2 434.01 51.17 440.34 51.93 445.1 53.59 455.62 55.6 467 59.04 472 59.92 485.34 61.28 496.34 60.37 502.38 60.21 507.92 60.78 520.95 67.3 524.77 70.15 526.22 72.02 531.76 74.76 536.99 75.32 544.37 74.74 Z M 103.54 315.78 103.57 314.13 101.71 311.68 104.99 301.26 101.39 303.52 93.66 310.57 87.84 315.05 86.31 316.69 85.33 319.56 85.96 321.03 94.24 319.22 100.19 319.19 102.46 318.06 103.54 315.78 Z M 60.86 380.5 60.02 383.04 60.77 385.09 62.57 385.7 65.49 382.9 70.69 376.88 75.49 372.9 77.16 370.23 71.64 372.56 68.32 375.73 64.25 376.7 61.65 378.62 60.86 380.5 Z" fill-rule="evenodd"/>
<path d="M 696.39 71.16 700.32 73.77 699.53 75.8 696.39 71.16 Z"/>
<path d="M 730.02 314.35 728.13 312.7 725.43 307.11 726.41 306.87 728.49 312.03 730.02 314.35 Z"/>
<path d="M 699.06 393.62 694.94 389.1 697.24 379.28 699.21 375.8 703.56 369.75 706.55 370.62 703.42 374.82 700.03 380.98 698.9 384.96 698.63 389.53 699.06 393.62 Z"/>
<g/>
<path d="M 714.03 359.06 734.69 331.89 734.3 336.18 725.68 348.11 723.31 350.77 718.89 357.45 714.03 359.06 Z"/>
<g/>
<g/>
<g/>
<path d="M 553.64 479.2 553.89 479.2 554.77 479.77 556.45 484.38 554.66 484.72 553.25 482.05 553.64 479.2 Z"/>
<path d="M 336.55 152.47 332.5 152.74 321.71 150.63 319.99 150.84 310.31 149.93 309 148.01 306.02 146.63 310.4 144.69 316.31 146.11 319.99 145.63 329.38 147.67 332.33 148.73 338.14 149.66 339.77 151.9 336.55 152.47 Z"/>
<g/>
<path d="M 159.87 354.6 160.17 354.21 162.88 348.67 163.38 347.5 166.84 347.31 167.82 347.79 168.54 347.81 169.01 347.38 169.64 346.91 169.44 342.41 168.97 341.07 167.95 340.19 167.09 340.03 166.55 340.14 165.78 340.71 165.42 341.48 164.56 341.27 162.66 334.24 160.48 329.81 155.37 323.31 156.52 321.27 156.7 320.94 156.7 320.58 157.86 319.58 158.31 319.42 159.51 319.67 160.94 318.11 160.37 317.23 161.16 317.73 161.53 318.25 161.41 320.73 162 320.87 162.36 320.85 162.45 320.3 164.01 320.87 164.42 320.92 165.48 321.05 166.07 321.25 166.39 321.52 166.59 321.68 167.38 321.84 168.7 322.18 169.81 322.7 172 323.11 175.68 325.92 176.7 326.98 179.9 333.34 179.46 335.37 179.87 335.59 179.82 335.85 179.31 335.91 179.19 336.36 178.95 337.23 178.72 338.09 179.06 338.47 178.42 338.86 178.51 339.06 178.4 339.65 177.93 340.89 175.21 343.99 174.96 344.24 175.24 344.89 175.39 344.94 174.17 348.72 168.92 348.78 168.81 349.08 171.5 350.42 171.09 350.93 171.16 351.5 171.64 351.55 171.53 352.32 168.45 353.22 169.46 352.27 169.37 351.66 167.16 351.61 166.82 350.82 167.13 348.22 166.25 347.74 165.67 347.56 164.24 347.77 163.17 349.31 162.9 349.99 161.73 352.07 161.28 353.18 160.57 354.42 160.41 354.71 158.31 358.56 158.24 358.62 156.96 358.2 157.59 358.38 158.02 358.1 158.33 357.58 159.87 354.6 Z"/>
<path d="M 60.86 380.5 61.65 378.62 64.25 376.7 68.32 375.73 71.64 372.56 77.16 370.23 75.49 372.9 70.69 376.88 65.49 382.9 62.57 385.7 60.77 385.09 60.02 383.04 60.86 380.5 Z"/>
<path d="M 786.57 425.4 784.07 424.82 783.84 423.32 784.73 422.19 784.27 421 786.57 419.28 786.57 425.4 Z"/>
<g/>
<g/>
<g/>
<path d="M 729.21 503.36 730.8 501.87 732.69 502.57 731.93 504.63 729.21 503.36 Z"/>
<path d="M 630.64 422.96 633.92 422.15 633.18 424.5 630.64 422.96 Z"/>
<g/>
<path d="M 146.05 439.23 144.69 438.33 145.83 433.46 143.49 429.68 146.53 428.3 148.42 432.94 146.05 439.23 Z"/>
<g/>
<g/>
<g/>
<g/>
<g/>
<path d="M 84.18 400.41 80.38 397.69 81.65 396.25 86.83 394.39 85.97 399.82 84.18 400.41 Z"/>
<g/>
<g/>
<g/>
<g/>
<g/>
<g/>
<g/>
<g/>
<path d="M 638.23 28.11 644.02 28.74 645.85 30.46 651.69 33 651.26 33.81 641.8 30.85 638.23 28.11 Z"/>
<path d="M 250.21 88.97 247.69 87.95 253.23 86.18 255.93 86.91 250.21 88.97 Z"/>
<g/>
<g/>
<g/>
<g/>
<g/>
<g/>
<g/>
<path d="M 59.23 104.55 56.31 105.77 56.44 108.36 53.96 107.81 54.9 104.6 59.23 104.55 Z"/>
<path d="M 269.19 72.82 267.28 71.75 267.46 77.23 265.9 76.71 265.09 73.81 265.93 71.28 265.74 65.64 269.55 58.9 271.17 59.87 269.62 64.94 269.19 72.82 Z"/>
<g/>
<g/>
<path d="M 259.53 38.47 259.64 33.5 260.81 31.23 262.71 32.32 261.9 36.24 261.88 39.65 259.53 38.47 Z"/>
<g/>
<g/>
<path d="M 223.72 78.83 224.96 85.28 222.26 82.79 223.72 78.83 Z"/>
<path d="M 266.08 84.71 267.33 83.47 266.79 81.12 267.29 78.24 269.82 79.35 271 83.6 268.1 85.14 266.08 84.71 Z"/>
<g/>
<g/>
<path d="M 701.72 273.22 700.51 272.25 702.4 269.06 705.73 265.38 707.79 266.53 701.72 273.22 Z"/>
<path d="M 699.15 271.8 695.68 269.86 704.87 259.77 708.35 261.71 699.15 271.8 Z"/>
<path d="M 88.14 149.41 90.78 146.86 93.84 146.92 94.54 148.3 88.68 151.09 88.14 149.41 Z"/>
<path d="M 88.09 142.02 93.45 141.04 96.98 142.09 97.21 144.03 88.02 143.87 88.09 142.02 Z"/>
<path d="M 91.03 127.79 93.66 128.04 93.81 131.59 93.18 135.62 91.85 136.09 88.11 133.78 88.07 130.37 90.47 130.09 91.03 127.79 Z"/>
<path d="M 249.98 446.38 251.52 447.87 255.23 448.62 252.38 450.86 249.69 450.52 246.45 449.07 244.23 445.56 249.98 446.38 Z"/>
<path d="M 406.55 371.81 408.58 375.43 408.18 377.52 405.6 377.13 406.55 371.81 Z"/>
<path d="M 459.05 321.46 463.2 323.77 460.09 324.38 459.05 321.46 Z"/>
<path d="M 201.5 244.9 206.34 243.91 208.62 242.55 209.1 240.63 212.04 242.03 209.82 243.52 201.5 244.9 Z"/>
<g/>
<path d="M 213.22 225.95 217.26 226.13 226.29 234.81 229.66 238.95 230.54 241.55 230.7 247.46 226.25 245.47 229.21 243.75 229.42 241.81 226.49 236.1 218.29 227.98 213.22 225.95 Z"/>
<g/>
<g/>
<g/>
<g/>
<g/>
<g/>
<path d="M 767.53 325.48 763.67 324.54 763.4 323.45 766.83 318.61 768.08 318.7 768.24 324.1 767.53 325.48 Z"/>
<g/>
<g/>
<g/>
<g/>
<path d="M 13.43 139.54 14.12 136.68 15.5 135.95 17.87 135.88 20.86 137.29 23.46 136 25.66 133.85 30.4 132.69 31.18 131.61 30.36 126.27 36.6 124.39 38.87 121.57 42.73 122.79 44.86 122.61 47.67 120.21 47.3 116.57 49.81 114.39 49.9 110.95 47.71 108.83 48.77 107 52.69 105.52 53.52 101.11 52.14 96.8 52.58 89.3 54.73 86.7 59.63 85.32 61.99 82.29 63.79 81.71 68.62 82.2 73.88 78.97 74.4 79.17 70.11 81.96 67.84 82.79 64.72 82.2 61.72 83.17 59.84 85.85 55 87.04 52.98 90.05 52.58 95.1 53.96 100.86 52.69 106.55 48.89 107.34 48.46 109.28 50.56 110.98 50.24 114.39 47.92 116.3 48.55 119.53 45.15 122.81 40.95 122.9 38.64 122 37.19 124.33 35.74 125.32 30.86 126.39 31.56 131.43 29.98 133.29 26.94 133.6 22.12 137.29 19.64 137.47 16.63 136 14.77 136.75 13.43 139.54 Z"/>
<g/>
<g/>
<g/>
<path d="M 671.44 199.55 669.85 194.61 670.32 191.76 668.6 191.52 669.15 188.5 672.82 185.09 673.86 192.65 672.63 193.32 673.15 196.42 671.44 199.55 Z"/>
<path d="M 749.26 265.01 750.59 267.53 749.87 269.4 750.38 272.61 745.73 271.44 742.4 271.89 741.92 267.77 745.21 266.05 749.26 265.01 Z"/>
<g/>
<g/>
<g/>
<g/>
<g/>
<path d="M 774.16 460.84 777.24 458.78 777.96 460.61 774.16 460.84 Z"/>
<g/>
<path d="M 772.62 574.42 776.83 572.11 780.34 574.33 777.24 576.78 774.46 574.67 772.62 574.42 Z"/>
<path d="M 769.07 578.18 771.15 577.07 775.97 581.25 774.61 582.22 769.07 578.18 Z"/>
<path d="M 689.76 278.36 692.77 275.9 697 277.66 691.07 281.12 688.51 279.67 689.76 278.36 Z"/>
<g/>
<path d="M 205.57 196.6 208.49 197.21 211.2 199.39 203.19 203.16 201.3 202.01 204.57 200.07 203.47 198.85 205.57 196.6 Z"/>
<g/>
<path d="M 296.81 164.52 304.27 167.11 305 169.19 302.57 170.54 297.62 169.84 296.81 164.52 Z"/>
<path d="M 682.09 181.4 682.97 178.14 686.32 178.24 683.61 182.24 685.01 186.29 687.5 188.75 687.83 191.7 685.19 191.35 685.75 189.25 682.79 187.51 682.14 184.71 680.17 183.33 682.09 181.4 Z"/>
<g/>
<path d="M 200.71 437.55 203.08 439.84 198.79 440.81 200.71 437.55 Z"/>
<g/>
<path d="M 251.34 245.49 252.63 247.3 249.82 249 247.26 247.91 251.34 245.49 Z"/>
<path d="M 231.02 225.42 234.16 226.51 232.9 228.7 230.86 227.98 231.02 225.42 Z"/>
<path d="M 307.67 199.25 311.69 196.74 315.65 198.44 314.3 200.11 310.51 197.87 307.67 199.25 Z"/>
<g/>
<path d="M 346.39 228.43 343.81 225.83 347.28 225.61 346.39 228.43 Z"/>
<path d="M 664.51 171.25 665.39 168.57 667.77 171.31 664.51 171.25 Z"/>
<g/>
<g/>
<g/>
<path d="M 153.77 123.24 155.92 124.01 159.9 120.64 162.61 122.74 157 125.75 153.77 123.24 Z"/>
<g/>
<g/>
<path d="M 209.19 438.71 212.38 438.32 212.63 440.04 209.71 440.04 209.19 438.71 Z"/>
<path d="M 328.57 232.6 333.43 236.15 332.25 237.37 329.9 235.92 328.57 232.6 Z"/>
<path d="M 484.36 588 481.47 582.39 481.2 581.93 480.71 581.89 480.89 581.64 481.02 581.46 479.69 576.84 479.44 575.1 479.07 573.54 478.8 572.77 478.08 571.32 477.47 570.33 476.43 569.01 475.25 567.75 473.28 565.48 472.22 564.35 468.2 559.87 467.83 559.27 467.24 558.36 465.87 555.58 465.25 553.79 465.16 549.58 468.42 546.91 469.37 546.39 469.91 546.03 470.41 545.38 470.53 544.92 470.48 544.47 470.73 543.99 470.71 543.36 471.16 545.15 470.21 546.44 467.52 548.36 467.31 548.5 466.75 548.9 466.16 549.47 465.77 553.02 466.61 555.39 467.47 557.32 468.24 558.52 469.14 559.67 474.23 565.37 476 567.25 476.83 568.2 478.96 571.05 480.32 574.62 481.92 580.82 484.59 586.28 485.59 587.97 485.61 588 484.36 588 Z"/>
<path d="M 515.22 470.94 514.96 471.1 512.97 471.26 510.9 468.66 511.04 468.41 515.22 470.94 Z"/>
<g/>
<g/>
<g/>
<g/>
<path d="M 699.35 67.43 704.15 67.88 704.37 69.65 700.25 69.22 699.35 67.43 Z"/>
<path d="M 722.47 68.56 723.89 68.72 724.66 72.66 723.6 72.84 722.47 68.56 Z"/>
<g/>
<path d="M 684.8 47.59 686.77 46.68 699.57 42.64 701.07 44.31 698.38 46.34 678.58 52.43 675.32 52 684.8 47.59 Z"/>
<path d="M 630.1 28.29 633.65 28.39 633.56 29.9 629.74 30.49 630.1 28.29 Z"/>
<g/>
<g/>
<path d="M 739.77 261.03 737.94 259.52 739.37 257.23 742.22 257.41 739.77 261.03 Z"/>
<path d="M 224.39 178.75 232.09 178.85 230.48 180.61 225.36 180.91 224.39 178.75 Z"/>
<path d="M 112.16 304.67 112.86 303.24 116.57 299.87 128.04 292.43 130.65 291.39 134.11 292.73 128.63 296.35 112.89 304.76 112.16 304.67 Z"/>
<path d="M 145.39 287.39 144.78 285.85 147.7 285.08 148.72 287.39 145.39 287.39 Z"/>
<g/>
<path d="M 181.73 321.5 184.92 321.07 188.06 319.37 188.69 321.18 186 322.02 183.51 325.73 181.73 321.5 Z"/>
<path d="M 144.4 112.38 141.28 112 139.69 110.39 141.59 109.12 144.74 111.02 144.4 112.38 Z"/>
<g/>
<path d="M 130.37 120.73 132.68 121.09 131.5 123.46 128.45 122.08 130.37 120.73 Z"/>
<g/>
<g/>
<path d="M 93.86 258.7 91.58 256.83 94.36 256.05 93.86 258.7 Z"/>
<g/>
<path d="M 128.47 28.99 129.22 28.61 131.75 30.33 134.79 27.43 136.5 28.56 132.91 30.96 128.47 28.99 Z"/>
<path d="M 726.02 52.82 724.73 55.1 721.59 53.4 723.67 51.48 726.02 52.82 Z"/>
<path d="M 108.39 318.63 106.78 316.61 107.12 312.66 108.59 312.21 108.39 318.63 Z"/>
<path d="M 132.09 346.09 135.94 347.38 135.21 349.4 131.84 346.98 132.09 346.09 Z"/>
<path d="M 94.36 358.08 94.07 357.09 97.41 352.81 99.85 354.3 97.12 358.24 94.36 358.08 Z"/>
<path d="M 91.62 361.34 93.05 358.27 96.73 359.37 96.08 364.21 94.09 361.95 91.62 361.34 Z"/>
<path d="M 581.24 131.7 583.41 128.74 586.28 129.53 581.24 131.7 Z"/>
<path d="M 784.75 243.32 780.11 243.41 778.23 243.45 772.83 241.8 772.47 243.11 768.05 242.89 767.99 235.79 784.39 236.03 784.75 243.32 Z"/>
<path d="M 767.2 275.35 764.53 278.56 759.69 278.22 759.78 275.89 767.2 275.35 Z"/>
<path d="M 756.13 279.72 755.75 279.67 759.82 278.82 765.48 278.9 764.48 280.51 756.13 279.72 Z"/>
<path d="M 755.75 279.67 756.13 279.72 756.93 281.67 760.29 282.36 755.64 289.9 752.01 289.94 749.86 288.27 746.58 289.36 748.05 284.94 751.95 281.08 755.75 279.67 Z"/>
<path d="M 754.07 278.18 754.1 279.24 745.63 279.58 750.16 277.46 754.07 278.18 Z"/>
<path d="M 501.38 13.84 501.25 16.64 496.88 15.65 497.67 11.78 500.64 12.53 501.38 13.84 Z"/>
<path d="M 782.96 253.3 779.8 253 779.45 251.67 781.18 249.23 785.57 249.74 782.96 253.3 Z"/>
<path d="M 775.5 251.46 771.15 256.51 768.06 256.92 773.64 250.61 775.5 251.46 Z"/>
<g/>
<path d="M 735.36 279.54 738.47 280.24 738.3 281.93 736.04 282.46 734.19 280.58 735.36 279.54 Z"/>
<g/>
<path d="M 684.92 575.53 682 579.89 680.51 577.75 683.63 574.38 684.92 575.53 Z"/>
<g/>
<path d="M 707.63 573.16 700.34 585.3 697.3 588 706.34 573.86 707.63 573.16 Z"/>
<path d="M 336.6 103.69 335.58 102.75 337.59 97.74 340.83 98.78 336.6 103.69 Z"/>
<path d="M 101.62 392.08 99.85 391.92 100.33 388.83 104.43 389.16 104.18 390.93 101.62 392.08 Z"/>
<path d="M 105.49 388.64 108.18 388.89 107.91 390.73 104.34 391.04 105.49 388.64 Z"/>
<path d="M 19.27 424.35 23.55 419.96 26.61 422.24 19.27 424.35 Z"/>
<path d="M 351.8 67.66 351.76 74.31 352.17 76.03 348.91 80.3 346.92 79.37 349.36 72.59 349.13 68.79 346.92 67.21 338.89 65.19 340.4 64.08 342.91 64.47 348.16 66.39 350.45 65.64 351.8 67.66 Z"/>
<g/>
<path d="M 135.06 129.51 140.26 132.78 139.67 133.8 135.06 129.51 Z"/>
<g/>
<path d="M 264.44 459.39 267.51 461.38 265.61 462.35 264.44 459.39 Z"/>
<path d="M 550.7 398.28 553.52 395.52 555.58 397.18 554.02 399.5 550.7 398.28 Z"/>
<g/>
<path d="M 50.16 123.08 51.8 122.92 53.09 125.62 51.53 126.77 48.78 123.89 50.16 123.08 Z"/>
<g/>
<g/>
<path d="M 763.23 48.61 766.04 50.64 765.18 51.17 763.23 48.61 Z"/>
</g>
</svg>