<?xml version="1.0" encoding="UTF-8" standalone="no"?>
<!-- Created with Inkscape (http://www.inkscape.org/) -->

<svg
   width="6.3550262in"
   height="2.1144736in"
   viewBox="0 0 161.41767 53.707629"
   version="1.1"
   id="svg1"
   sodipodi:docname="bigLogoBlackVector.svg"
   inkscape:version="1.3.2 (091e20e, 2023-11-25)"
   xmlns:inkscape="http://www.inkscape.org/namespaces/inkscape"
   xmlns:sodipodi="http://sodipodi.sourceforge.net/DTD/sodipodi-0.dtd"
   xmlns="http://www.w3.org/2000/svg"
   xmlns:svg="http://www.w3.org/2000/svg">
  <sodipodi:namedview
     id="namedview1"
     pagecolor="#ffffff"
     bordercolor="#000000"
     borderopacity="0.25"
     inkscape:showpageshadow="2"
     inkscape:pageopacity="0.0"
     inkscape:pagecheckerboard="0"
     inkscape:deskcolor="#d1d1d1"
     inkscape:document-units="in"
     inkscape:zoom="1.1626219"
     inkscape:cx="305.34432"
     inkscape:cy="101.49473"
     inkscape:window-width="1728"
     inkscape:window-height="1051"
     inkscape:window-x="0"
     inkscape:window-y="38"
     inkscape:window-maximized="1"
     inkscape:current-layer="layer1" />
  <defs
     id="defs1">
    <rect
       x="240.83496"
       y="-63.649239"
       width="188.36734"
       height="381.03531"
       id="rect1" />
  </defs>
  <g
     id="layer1"
     transform="translate(-29.08707,-28.664083)">
    <path
       style="font-weight:bold;font-size:27.7696px;line-height:0.7;font-family:'Helvetica Neue', sans-serif;-inkscape-font-specification:'Helvetica Neue Bold';letter-spacing:0px;stroke-width:0.454071"
       d="m 90.811888,48.178981 h -4.220979 q -0.02777,1.832793 0.66647,3.165734 0.69424,1.332941 1.860563,2.193799 1.194093,0.860857 2.721421,1.249632 1.555098,0.416544 3.193504,0.416544 2.027181,0 3.554509,-0.472084 1.555094,-0.472083 2.582574,-1.305171 1.05524,-0.860857 1.58287,-2.027181 0.52762,-1.166323 0.52762,-2.527033 0,-1.666176 -0.72201,-2.721421 -0.69424,-1.083014 -1.66618,-1.721715 -0.971933,-0.638701 -1.971639,-0.916397 -0.971936,-0.305466 -1.527328,-0.416544 -1.860563,-0.472083 -3.026886,-0.777549 -1.138554,-0.305465 -1.805024,-0.610931 -0.638701,-0.305466 -0.860858,-0.66647 -0.222157,-0.361005 -0.222157,-0.944167 0,-0.638701 0.277696,-1.055245 0.277696,-0.416544 0.69424,-0.69424 0.444314,-0.277696 0.971936,-0.388774 0.527623,-0.111078 1.055245,-0.111078 0.805319,0 1.471789,0.138848 0.69424,0.138848 1.221862,0.472083 0.527623,0.333235 0.833088,0.916397 0.333236,0.583161 0.388775,1.471788 h 4.220981 q 0,-1.721715 -0.66647,-2.915808 -0.6387,-1.221862 -1.74949,-1.999411 -1.110781,-0.777549 -2.5548,-1.110784 -1.41625,-0.361005 -2.971348,-0.361005 -1.33294,0 -2.665881,0.361005 -1.332941,0.361005 -2.388186,1.110784 -1.055245,0.749779 -1.721715,1.888333 -0.638701,1.110784 -0.638701,2.638112 0,1.36071 0.499853,2.332646 0.527622,0.944167 1.36071,1.582868 0.833088,0.6387 1.888333,1.055244 1.055245,0.388775 2.166029,0.666471 1.083014,0.305465 2.138259,0.555392 1.055245,0.249926 1.888333,0.583161 0.833088,0.333236 1.332941,0.833088 0.527622,0.499853 0.527622,1.305172 0,0.749779 -0.388774,1.249632 -0.388775,0.472083 -0.971936,0.749779 -0.583162,0.277696 -1.249632,0.388774 -0.666471,0.08331 -1.249632,0.08331 -0.860858,0 -1.666176,-0.194387 -0.805319,-0.222157 -1.41625,-0.638701 -0.583161,-0.444314 -0.944166,-1.138554 -0.361005,-0.69424 -0.361005,-1.693945 z m 28.102842,6.581395 V 40.403493 h -3.94329 v 7.525561 q 0,2.193799 -0.72201,3.165735 -0.72201,0.944166 -2.33264,0.944166 -1.41625,0 -1.97164,-0.860857 -0.5554,-0.888628 -0.5554,-2.665882 v -8.108723 h -3.94328 v 8.830733 q 0,1.33294 0.22216,2.443724 0.24992,1.083015 0.83309,1.860564 0.58316,0.749779 1.58286,1.166323 1.02748,0.416544 2.61035,0.416544 1.24963,0 2.44372,-0.555392 1.19409,-0.555392 1.94387,-1.805024 h 0.0833 v 1.999411 z m 13.52381,-7.164557 q 0,0.888627 -0.19439,1.721715 -0.19439,0.833088 -0.61093,1.471789 -0.41655,0.638701 -1.05525,1.027475 -0.61093,0.361005 -1.49956,0.361005 -0.86085,0 -1.49955,-0.361005 -0.63871,-0.388774 -1.05525,-1.027475 -0.41654,-0.638701 -0.61093,-1.471789 -0.19439,-0.833088 -0.19439,-1.721715 0,-0.916397 0.19439,-1.749485 0.19439,-0.833088 0.61093,-1.471788 0.41654,-0.638701 1.05525,-0.999706 0.6387,-0.388774 1.49955,-0.388774 0.88863,0 1.49956,0.388774 0.6387,0.361005 1.05525,0.999706 0.41654,0.6387 0.61093,1.471788 0.19439,0.833088 0.19439,1.749485 z M 121.91386,34.932882 v 19.827494 h 3.74889 v -1.832794 h 0.0555 q 0.6387,1.194093 1.88834,1.693946 1.24963,0.499853 2.83249,0.499853 1.08302,0 2.13826,-0.444314 1.05525,-0.444313 1.88834,-1.36071 0.86085,-0.916397 1.38848,-2.332647 0.52762,-1.444019 0.52762,-3.41566 0,-1.971642 -0.52762,-3.387892 -0.52763,-1.444019 -1.38848,-2.360416 -0.83309,-0.916396 -1.88834,-1.36071 -1.05524,-0.444314 -2.13826,-0.444314 -1.33294,0 -2.58257,0.527623 -1.22186,0.499853 -1.94387,1.610637 h -0.0555 v -7.220096 z m 33.37906,19.827494 4.52644,-14.356883 H 155.765 l -2.63811,9.71936 h -0.0555 l -2.44373,-9.71936 h -3.8322 l -2.38819,9.747129 h -0.0555 l -2.63811,-9.747129 h -4.16544 l 4.55422,14.356883 h 4.08213 l 2.44372,-9.636051 h 0.0555 l 2.5548,9.636051 z m 6.02598,-9.941517 q 0.0833,-1.38848 0.69424,-2.304877 0.61093,-0.916396 1.55509,-1.471788 0.94417,-0.555392 2.11049,-0.777549 1.1941,-0.249927 2.38819,-0.249927 1.08301,0 2.1938,0.166618 1.11078,0.138848 2.02718,0.583162 0.91639,0.444313 1.49956,1.249632 0.58316,0.777548 0.58316,2.08272 v 7.470022 q 0,0.971936 0.11108,1.860563 0.11107,0.888627 0.38877,1.332941 h -3.99882 q -0.11108,-0.333235 -0.19439,-0.66647 -0.0555,-0.361005 -0.0833,-0.72201 -0.94416,0.971936 -2.22157,1.36071 -1.2774,0.388775 -2.61034,0.388775 -1.02747,0 -1.9161,-0.249927 -0.88863,-0.249926 -1.5551,-0.777548 -0.66647,-0.527623 -1.05524,-1.332941 -0.36101,-0.805319 -0.36101,-1.916103 0,-1.221862 0.41655,-1.999411 0.44431,-0.805318 1.11078,-1.277401 0.69424,-0.472084 1.5551,-0.69424 0.88862,-0.249927 1.77725,-0.388775 0.88863,-0.138848 1.74949,-0.222157 0.86085,-0.08331 1.52732,-0.249926 0.66647,-0.166618 1.05525,-0.472083 0.38877,-0.333235 0.361,-0.944167 0,-0.6387 -0.22215,-0.999705 -0.19439,-0.388775 -0.55539,-0.583162 -0.33324,-0.222157 -0.80532,-0.277696 -0.44432,-0.08331 -0.97194,-0.08331 -1.16632,0 -1.83279,0.499853 -0.66647,0.499853 -0.77755,1.666176 z m 9.10842,2.915808 q -0.24992,0.222157 -0.6387,0.361005 -0.361,0.111078 -0.80532,0.194387 -0.41654,0.08331 -0.88862,0.138848 -0.47209,0.05554 -0.94417,0.138848 -0.44431,0.08331 -0.88863,0.222157 -0.41654,0.138848 -0.74978,0.388774 -0.30546,0.222157 -0.49985,0.583162 -0.19439,0.361005 -0.19439,0.916397 0,0.527622 0.19439,0.888627 0.19439,0.361005 0.52762,0.583162 0.33324,0.194387 0.77755,0.277696 0.44432,0.08331 0.9164,0.08331 1.16632,0 1.80502,-0.388774 0.6387,-0.388774 0.94417,-0.916397 0.30547,-0.555392 0.36101,-1.110784 0.0833,-0.555392 0.0833,-0.888627 z m 14.07918,8.802963 5.99823,-16.134137 h -4.08213 l -3.13797,9.830438 h -0.0555 l -3.24904,-9.830438 h -4.19321 l 5.0263,13.468256 q 0.16662,0.416544 0.16662,0.888627 0,0.638701 -0.38878,1.166323 -0.361,0.527623 -1.13855,0.610931 -0.58316,0.02777 -1.16632,-0.02777 -0.58317,-0.05554 -1.13856,-0.111079 v 3.249044 q 0.61093,0.05554 1.19409,0.08331 0.61094,0.05554 1.22187,0.05554 2.02718,0 3.16573,-0.74978 1.13856,-0.749779 1.77726,-2.499264 z"
       id="text1-8"
       aria-label="Subway" />
    <path
       d="m 66.254641,69.400341 v -4.638993 h 4.083425 q 0.583346,0 1.111136,0.111114 0.555568,0.08334 0.972244,0.333341 0.416676,0.250005 0.666682,0.69446 0.250005,0.444454 0.250005,1.138914 0,1.250028 -0.750016,1.805596 -0.750017,0.555568 -1.91671,0.555568 z m -4.361209,-8.027957 v 19.833777 h 9.611327 q 1.333363,0 2.583391,-0.33334 1.277807,-0.333341 2.250051,-1.027801 1.000022,-0.69446 1.583368,-1.777818 0.583347,-1.111136 0.583347,-2.611169 0,-1.861153 -0.916687,-3.166738 -0.888909,-1.333363 -2.722284,-1.861153 1.333364,-0.638903 2.000045,-1.638925 0.69446,-1.000023 0.69446,-2.500057 0,-1.38892 -0.472233,-2.333385 -0.444454,-0.944466 -1.277806,-1.500034 -0.833352,-0.583346 -2.000045,-0.833352 -1.166693,-0.250005 -2.583391,-0.250005 z m 4.361209,16.444813 V 72.37263 h 4.750107 q 1.416698,0 2.277829,0.666682 0.86113,0.638903 0.86113,2.166715 0,0.777795 -0.277784,1.277806 -0.250006,0.500012 -0.69446,0.805574 -0.444454,0.277784 -1.027801,0.416676 -0.583346,0.111114 -1.22225,0.111114 z m 28.250647,3.388964 V 66.844728 h -3.944533 v 7.527947 q 0,2.194494 -0.722238,3.166738 -0.722239,0.944465 -2.333386,0.944465 -1.416698,0 -1.972266,-0.86113 -0.555568,-0.888909 -0.555568,-2.666727 v -8.111293 h -3.944533 v 8.833532 q 0,1.333363 0.222227,2.444499 0.250006,1.083358 0.833352,1.861153 0.583346,0.750017 1.583369,1.166693 1.027801,0.416676 2.611169,0.416676 1.250028,0 2.4445,-0.555568 1.194471,-0.555568 1.944488,-1.805596 h 0.08334 v 2.000044 z m 7.055722,-16.583705 v -3.250072 h -3.94453 v 3.250072 z m -3.94453,2.222272 v 14.361433 h 3.94453 V 66.844728 Z m 7.16681,-5.472344 v 19.833777 h 3.94453 V 61.372384 Z m 17.25037,12.611393 q 0,0.888909 -0.16667,1.722261 -0.16667,0.833352 -0.55557,1.500034 -0.38889,0.638903 -1.05558,1.027801 -0.6389,0.388897 -1.61114,0.388897 -0.91669,0 -1.58337,-0.388897 -0.63891,-0.416676 -1.08336,-1.05558 -0.41668,-0.666681 -0.61112,-1.500033 -0.19445,-0.833352 -0.19445,-1.666704 0,-0.888909 0.16667,-1.694483 0.19445,-0.833352 0.58334,-1.472255 0.41668,-0.638903 1.08336,-1.027801 0.66668,-0.388897 1.63893,-0.388897 0.97224,0 1.61114,0.388897 0.63891,0.388898 1.0278,1.027801 0.41668,0.611125 0.58335,1.444477 0.16667,0.805574 0.16667,1.694482 z m 0.0556,5.38901 v 1.833374 h 3.75008 V 61.372384 h -3.94453 v 7.222384 h -0.0556 q -0.66668,-1.05558 -1.83337,-1.583369 -1.13892,-0.555568 -2.41672,-0.555568 -1.58337,0 -2.77784,0.638903 -1.19447,0.611125 -2.00005,1.638926 -0.77779,1.027801 -1.19447,2.388942 -0.3889,1.333363 -0.3889,2.77784 0,1.500034 0.3889,2.888954 0.41668,1.38892 1.19447,2.472277 0.80558,1.05558 2.02783,1.694483 1.22225,0.611125 2.83339,0.611125 1.4167,0 2.52784,-0.500012 1.13891,-0.527789 1.83337,-1.694482 z m 16.38926,-6.889043 h -6.41681 q 0.0278,-0.416676 0.16667,-0.944466 0.16667,-0.527789 0.52779,-1.000022 0.3889,-0.472233 1.00002,-0.777795 0.6389,-0.333341 1.58337,-0.333341 1.44448,0 2.13894,0.777795 0.72223,0.777795 1.00002,2.277829 z m -6.41681,2.500056 h 10.36134 q 0.11112,-1.666704 -0.27778,-3.194516 -0.3889,-1.527812 -1.27781,-2.722283 -0.86113,-1.194472 -2.22227,-1.888932 -1.36114,-0.722238 -3.19452,-0.722238 -1.63892,0 -3.00006,0.583346 -1.33337,0.583347 -2.30561,1.611148 -0.97225,1.000022 -1.50004,2.388942 -0.52778,1.38892 -0.52778,3.000067 0,1.666704 0.50001,3.055624 0.52779,1.38892 1.47225,2.388943 0.94447,1.000022 2.30561,1.55559 1.36114,0.52779 3.05562,0.52779 2.4445,0 4.16676,-1.111136 1.72226,-1.111136 2.55562,-3.694528 h -3.4723 q -0.19445,0.666682 -1.05558,1.277807 -0.86113,0.583346 -2.05561,0.583346 -1.6667,0 -2.55561,-0.86113 -0.88891,-0.861131 -0.97224,-2.77784 z m 12.69471,-8.139072 v 14.361433 h 3.94453 v -6.472367 q 0,-0.972244 0.19445,-1.805596 0.19445,-0.833352 0.63891,-1.444477 0.47223,-0.638903 1.22225,-1.000022 0.75001,-0.361119 1.83337,-0.361119 0.36112,0 0.75002,0.05556 0.38889,0.02778 0.66668,0.08333 v -3.666749 q -0.47223,-0.138892 -0.86113,-0.138892 -0.75002,0 -1.44448,0.222227 -0.69446,0.222227 -1.30558,0.638903 -0.61113,0.388898 -1.08336,0.972244 -0.47223,0.555568 -0.75002,1.22225 h -0.0555 v -2.666727 z"
       id="text3-2"
       style="font-weight:bold;font-size:27.7784px;line-height:0.8;font-family:'Helvetica Neue', sans-serif;-inkscape-font-specification:'Helvetica Neue Bold';letter-spacing:0px;stroke-width:0.409763"
       aria-label="Builder" />
    <path
       id="rect3-1-8-8"
       style="fill:#0062cf;fill-opacity:1;stroke:#17100c;stroke-width:1.5;stroke-dasharray:none;stroke-opacity:1"
       d="m 47.625001,15.875 v 12.7 H 76.2 a 6.3500005,6.3500005 45 0 1 6.35,6.35 v 0 28.575 h 12.7 V 34.925 C 95.249999,24.403976 86.721024,15.875001 76.2,15.875 Z"
       transform="matrix(0,-0.72064723,0.72064723,0,36.49173,116.15204)" />
    <path
       id="rect3-0-61-0-7"
       style="fill:#009952;fill-opacity:1;stroke:#17100c;stroke-width:1.5;stroke-dasharray:none;stroke-opacity:1"
       d="m 34.924998,15.875 v 12.7 L 63.5,28.574999 h 10e-7 A 19.049999,19.049999 45 0 1 82.55,47.624998 v 1e-6 28.575 H 95.249999 V 47.625 C 95.249999,28.575 82.55,15.875 63.5,15.875 Z"
       transform="matrix(0,-0.72064723,0.72064723,0,27.339514,106.99981)" />
    <path
       id="rect3-0-3-2-4-8"
       style="fill:#d82233;fill-opacity:1;stroke:#17100c;stroke-width:1.5;stroke-dasharray:none;stroke-opacity:1"
       d="m 22.224998,15.874999 v 12.7 H 50.8 l 0,0 a 31.75,31.75 45.000001 0 1 31.749999,31.75 v 28.574999 h 12.7 V 66.667284 c 0,-3.502747 0.04603,-9.195978 -0.403314,-12.667345 C 91.976591,31.827255 74.087228,15.874999 50.8,15.874999 Z"
       transform="matrix(0,-0.72064723,0.72064723,0,18.187283,97.84761)" />
    <circle
       style="fill:#ffffff;fill-opacity:1;fill-rule:evenodd;stroke:none;stroke-width:0.134961"
       id="path7-0-0-7"
       cx="-52.089489"
       cy="65.132469"
       r="3.2390783"
       transform="rotate(-90)" />
    <circle
       style="fill:#ffffff;fill-opacity:1;fill-rule:evenodd;stroke:none;stroke-width:0.134961"
       id="path7-4-4-5-7"
       cx="-42.899677"
       cy="65.132469"
       r="3.2390783"
       transform="rotate(-90)" />
    <circle
       style="fill:#ffffff;fill-opacity:1;fill-rule:evenodd;stroke:none;stroke-width:0.134961"
       id="path7-4-9-4-7-4"
       cx="-33.778625"
       cy="65.132469"
       r="3.2390783"
       transform="rotate(-90)" />
    <text
       xml:space="preserve"
       transform="matrix(0.26458333,0,0,0.26458333,29.08707,28.664083)"
       id="text1"
       style="stroke:#000000;stroke-width:0.1;fill:#b328ac;stroke-opacity:0;white-space:pre;shape-inside:url(#rect1)" />
  </g>
</svg>
